<?xml version="1.0" encoding="utf-8"?>
<!-- Generator: Adobe Illustrator 27.2.0, SVG Export Plug-In . SVG Version: 6.00 Build 0)  -->
<svg version="1.1" id="Ebene_1" xmlns="http://www.w3.org/2000/svg" xmlns:xlink="http://www.w3.org/1999/xlink" x="0px" y="0px"
	 viewBox="0 0 1080 1080" style="enable-background:new 0 0 1080 1080;" xml:space="preserve">
<style type="text/css">
	.st0{fill:#FFFFFF;}
</style>
<path id="building-solid" class="st0" d="M236.2,0C180.3,0,135,45.3,134.9,101.3v877.6c0.1,55.9,45.4,101.1,101.3,101.2h202.5V911.4
	c0-55.9,45.3-101.3,101.3-101.3s101.3,45.3,101.3,101.3V1080h202.5c55.9,0,101.2-45.3,101.3-101.3V101.3C945,45.3,899.7,0,843.8,0
	H236.2z M270,506.3c0.1-18.6,15.1-33.7,33.8-33.8h67.5c18.6,0.1,33.7,15.1,33.8,33.8v67.5c-0.1,18.6-15.1,33.7-33.8,33.8h-67.5
	c-18.6-0.1-33.7-15.1-33.8-33.8V506.3z M506.2,472.5h67.4c18.6,0.1,33.7,15.1,33.8,33.8v67.5c-0.1,18.6-15.1,33.7-33.8,33.8h-67.4
	c-18.6-0.1-33.7-15.1-33.8-33.8v-67.5C472.5,487.7,487.6,472.6,506.2,472.5L506.2,472.5z M675,506.3c0.1-18.6,15.1-33.7,33.8-33.8
	h67.5c18.6,0.1,33.7,15.1,33.8,33.8v67.5c-0.1,18.6-15.1,33.7-33.8,33.8h-67.5c-18.6-0.1-33.7-15.1-33.8-33.8V506.3z M303.7,202.5
	h67.5c18.6,0.1,33.7,15.1,33.8,33.7v67.5c-0.1,18.6-15.1,33.7-33.8,33.8h-67.5c-18.6-0.1-33.7-15.1-33.8-33.8v-67.5
	C270,217.7,285.1,202.6,303.7,202.5z M472.5,236.3c0.1-18.6,15.1-33.7,33.8-33.8h67.4c18.7,0,33.8,15.1,33.9,33.8v67.5
	c-0.1,18.7-15.2,33.8-33.9,33.8h-67.4c-18.6-0.1-33.7-15.1-33.8-33.8L472.5,236.3z M708.8,202.5h67.5c18.6,0.1,33.7,15.1,33.7,33.8
	v67.5c-0.1,18.6-15.1,33.7-33.7,33.8h-67.5c-18.6-0.1-33.7-15.1-33.8-33.8v-67.5C675.1,217.7,690.1,202.6,708.8,202.5L708.8,202.5z"
	/>
</svg>
