<?xml version="1.0" encoding="utf-8"?>
<!-- Generator: Adobe Illustrator 27.1.1, SVG Export Plug-In . SVG Version: 6.00 Build 0)  -->
<svg version="1.1" id="Ebene_1" xmlns="http://www.w3.org/2000/svg" xmlns:xlink="http://www.w3.org/1999/xlink" x="0px" y="0px"
	 viewBox="0 0 1080 1080" style="enable-background:new 0 0 1080 1080;" xml:space="preserve">
<style type="text/css">
	.st0{fill:#FFFFFF;}
</style>
<g>
	<path class="st0" d="M936.2,667.3c-8.6,20-17,38.7-24.4,57.8c-1.2,3.2,0.6,9.2,3.2,11.9c25.8,26.5,52.2,52.5,78.3,78.7
		c14.1,14.1,14.1,21.7,0,35.7c-47.6,47.6-95.1,95.2-142.7,142.7c-13.1,13.1-21,13.1-34.1,0c-26.5-26.4-53-52.7-79.2-79.4
		c-4.6-4.7-8.2-5.5-14.4-2.6c-17.9,8.3-36.2,15.7-55.5,24c0,37.7,0,76.5,0,115.4c0,24.3-4.2,28.5-28.8,28.5c-65.8,0-131.6,0-197.3,0
		c-19.7,0-25-5.4-25-25.4c0-37-0.2-74,0.1-111c0.1-6.7-2.1-9.6-8.4-11.8c-15.8-5.7-31.4-11.9-46.5-19.2c-7.2-3.4-11-2.1-16.2,3.2
		c-25.6,26.2-51.7,51.9-77.6,77.8c-13.8,13.8-21.7,14.1-34.8,0.3c-40.3-42.1-84.2-81.4-119.8-127.1
		C-91.9,604.2-8.5,219.5,285.6,62.8C493-47.7,750.1-9.9,917,155.8c25.5,25.3,50.8,50.7,76.1,76.1c14.5,14.5,14.4,21.7-0.4,36.5
		c-25.6,25.7-51.1,51.4-77,76.8c-5.3,5.2-6.6,9-3.2,16.2c7.3,15.1,13.4,30.8,19.2,46.5c2.3,6.2,5.1,8.5,11.8,8.4
		c37.4-0.3,74.7-0.2,112.1-0.2c18.4,0,24.2,5.7,24.2,24c0,67.7,0,135.3,0,203c0,18.4-5.8,24.2-24,24.2
		C1016,667.4,976,667.3,936.2,667.3z M833.1,225.2c-166.9-155.5-439-155.9-606,22.8C65.4,421,80.4,679.9,227.2,834.6
		c2.3-3.5,4.1-7.5,7-10.4c41.1-41.3,82.4-82.6,123.6-123.8c15.3-15.3,21.7-15.2,37.6-1.1c57,50.4,123.3,67.9,196.9,49.9
		c159.2-38.8,217.2-234.8,106-355.2c-12.8-13.9-12.6-21.5,1-35.2c20.1-20.1,40.2-40.2,60.3-60.2
		C783.8,274.3,808.1,250.1,833.1,225.2z M733.3,378.1c91.4,109.6,70.5,257.3-14.2,341.7c-84.7,84.3-231.5,104.5-340.2,14.1
		C319.8,793,260.8,852,203.6,909.3c15.5,15.5,32,32,48.7,48.8c26.1-26.1,53.3-53.4,80.5-80.5c10.5-10.5,15.8-10.8,28.9-5.1
		c24.2,10.5,48.7,20.6,73.3,30.3c13.4,5.3,17,9.2,17,23.9c0,35.1,0,70.3,0,105.4c0,3.9,0,7.8,0,11.5c60.7,0,119.6,0,179.4,0
		c0-4.6,0-8.7,0-12.7c0-35.1,0.2-70.3-0.1-105.4c-0.1-11.8,5.2-18.2,16.1-22.4c25-9.6,49.8-19.9,74.4-30.6
		c12.6-5.5,18.4-5.3,28.1,4.4c23.3,23.2,46.6,46.4,69.7,69.8c4.4,4.5,7.6,10.1,10,13.3c44.4-44.4,86.3-86.3,128.6-128.6
		c-26.4-26.4-53.9-53.8-81.4-81.2c-9.8-9.8-10-15.5-4.5-28.1c10.5-24.2,20.7-48.7,30.3-73.3c5.3-13.5,9.2-17.2,23.7-17.2
		c35.1-0.1,70.2,0,105.4,0c3.9,0,7.9,0,11.8,0c0-60.6,0-119.5,0-179.5c-4.5,0-8.5,0-12.6,0c-35.1,0-70.2-0.2-105.4,0.1
		c-11.8,0.1-18.3-5.1-22.6-16c-9.8-25.3-20.2-50.5-31.1-75.4c-4.7-10.7-3.7-19,4.7-27.2c21.1-20.7,41.8-41.7,62.7-62.5
		c6.8-6.8,13.9-13.3,19.5-18.6c-17.7-17.7-34.2-34.2-49.9-50C851,260.3,792.2,319.2,733.3,378.1z M883.2,173.9
		C687.2-10.5,363.8-10.7,169,205.3C-22.8,418,14.4,719.9,174,882c8.2-7.9,16.3-15.8,24.4-23.7C29,674.1,41.9,398.4,195.9,229.8
		c75.9-83,169.5-134.2,281-149.3c145-19.6,272.2,21.9,381.3,117.7C866.7,190,874.7,182.2,883.2,173.9z"/>
	<path class="st0" d="M523.9,369.2c0-30.3,0-60.5,0-90.8c0-15.3,6.3-23.5,17.7-23.7c11.5-0.1,18.1,8.2,18.1,23.2
		c0,60.9,0.2,121.8-0.2,182.7c0,8,1.3,12.3,9.8,15.6c30,11.8,48.1,43.6,43.7,74.5c-4.7,33-29.9,58-62.8,62.3
		c-30.7,4-61.8-13.7-73.7-43.3c-3.5-8.7-8-10.4-16.4-10.3c-36.2,0.4-72.5,0.2-108.7,0.2c-16.3,0-24.7-6-24.9-17.6
		c-0.2-12.1,8.3-18.2,25.4-18.2c37,0,74-0.2,110.9,0.2c7,0.1,10.2-1.8,12.8-8.7c7.2-19.1,21-32.6,40.1-39.8
		c6.6-2.5,8.2-5.7,8.1-12.1C523.7,431.9,523.9,400.5,523.9,369.2z M577.6,541.9c0-19.6-15.8-35.7-35.4-36
		c-20-0.3-36.5,16.2-36.3,36.2c0.2,19.5,16.3,35.5,35.9,35.5C561.3,577.6,577.6,561.3,577.6,541.9z"/>
	<path class="st0" d="M686.2,546.8c-0.3-41-12.9-73.3-37.6-100.9c-1.5-1.7-3.1-3.2-4.6-4.9c-7.7-8.7-8-18.9-1-26.1
		c7.5-7.7,18.2-7.4,26.7,1.3c26.4,26.9,43.1,59.1,48.8,96.3c17.6,113.2-69.4,211.9-184,208.3c-45.1-1.4-84.1-18.5-116.8-49.8
		c-9.8-9.3-10.8-19.5-3.4-27.5c7.5-8.2,18.3-7.3,28.5,2c42.1,38.6,91,50.8,145.2,32.9c53.4-17.6,84.9-56.1,96-111.2
		C685.6,559.3,685.8,551,686.2,546.8z"/>
	<path class="st0" d="M559.7,165.2c0,5.6,0.2,11.2,0,16.8c-0.6,11.3-8,18.9-18.2,18.7c-9.7-0.2-17.1-7.5-17.5-18.2
		c-0.4-11.6-0.4-23.2,0-34.7c0.3-11.4,7.9-18.9,18.1-18.7c10.1,0.2,17.1,7.7,17.6,19.3C559.9,154,559.7,159.6,559.7,165.2z"/>
	<path class="st0" d="M164.7,559.6c-6,0-12,0.3-17.9-0.1c-10.5-0.7-17.7-8.4-17.5-18.2c0.2-9.3,7.1-16.9,17.1-17.3
		c12.3-0.5,24.7-0.5,37,0c10.5,0.4,17.7,8.4,17.5,18.1c-0.2,9.3-7.1,16.6-17.1,17.4C177.4,560,171,559.6,164.7,559.6z"/>
	<path class="st0" d="M230.7,380.6c-2.8-0.9-5.8-1.5-8.4-2.9c-10.4-5.8-20.9-11.5-31-17.8c-9-5.7-11.5-15.8-6.8-24.3
		c4.8-8.6,14.7-11.7,24.1-6.7c10.9,5.7,21.5,11.9,31.9,18.4c7.6,4.7,10.5,12.8,6.8,20.4c-2.9,5.8-9.4,9.9-14.4,14.7
		C232.3,381.8,231.5,381.2,230.7,380.6z"/>
	<path class="st0" d="M384.1,231.2c-6.4,6.8-10.2,13.1-15.7,16c-7,3.6-15.2,1.7-19.8-5.5c-7.4-11.6-14.3-23.5-20.6-35.8
		c-3.9-7.6-1.3-15.9,5.7-19.5c5.5-2.8,16.7-4.3,19.1-1.4C364,198.9,373.1,214.5,384.1,231.2z"/>
	<path class="st0" d="M758.5,197.1c-2,6-2.5,9-3.9,11.5c-5.8,10.4-11.5,20.9-17.9,30.9c-5.7,9-15.9,11.5-24.3,6.7
		c-8.4-4.7-11.5-14.8-6.6-24.2c5.7-10.9,11.9-21.5,18.4-31.9c4.7-7.6,12.8-10.5,20.4-6.8C750.4,186.4,754.4,193,758.5,197.1z"/>
	<path class="st0" d="M199.8,760.7c-6.7-6.2-14.4-10-15.7-15.4c-1.5-5.9,0.7-16,5.1-19.5c10.9-8.7,23.7-15.1,36.3-21.4
		c7.5-3.7,15.9-1,19.4,6.1c2.7,5.5,4.1,16.6,1,19.1C232,740.8,216.4,749.9,199.8,760.7z"/>
	<path class="st0" d="M882.4,860.2c-7.3,7.3-15.1,15.1-22.9,22.9c-7.9-8.5-15.7-16.9-23.8-25.7c6.8-6.1,15.3-13.6,23.8-21.2
		C866,843.1,873.8,851.2,882.4,860.2z"/>
	<path class="st0" d="M973,524c11.9,0,22.6,0,34.3,0c0,11.5,0,22.8,0,34.9c-11,0-22.3,0-34.3,0C973,547.6,973,536.3,973,524z"/>
	<path class="st0" d="M524.8,972.6c11.7,0,22.5,0,34.1,0c0,11.5,0,22.8,0,34.9c-11.1,0-22.4,0-34.1,0
		C524.8,995.8,524.8,984.3,524.8,972.6z"/>
</g>
</svg>
