<?xml version="1.0" encoding="utf-8"?>
<!-- Generator: Adobe Illustrator 27.1.1, SVG Export Plug-In . SVG Version: 6.00 Build 0)  -->
<svg version="1.1" id="Ebene_1" xmlns="http://www.w3.org/2000/svg" xmlns:xlink="http://www.w3.org/1999/xlink" x="0px" y="0px"
	 viewBox="0 0 1080 1080" style="enable-background:new 0 0 1080 1080;" xml:space="preserve">
<style type="text/css">
	.st0{fill:#FFFFFF;}
</style>
<g>
	<path class="st0" d="M221.5,0c219.4,0,438.8,0,658.1,0c2.7,6.9,7.5,13.7,7.6,20.7c0.7,41.5,0.4,83,0.4,124.4c0,3.7,0,7.4,0,11.7
		c27.4,0,53,0,78.6,0c19.6,0,24.5,4.8,24.5,24.2c0.1,34.8,0,69.6,0,104.4c0,7.3,0,14.6,0,21.6c2,0.8,3,1.2,3.9,1.5
		c45.6,11.9,65,36.8,65,83.7c0,200.4,0,400.7-0.1,601.1c0,9.1-0.2,18.5-2.5,27.1c-9.7,37.1-38.2,57.4-79.2,57.4
		c-291.1,0-582.1,0-873.2,0c-52.9,0-83.6-30.8-83.6-84c0-161.4,0-322.7,0-484.1c0-4.6,0-9.2,0.4-13.7c3.5-36.8,29.2-64,65.6-68.9
		c7.5-1,15.2-1.2,23.2-1.9c0-5,0-9.2,0-13.4c0-75.6,0-151.2,0-226.7c0-2.8-0.1-5.6,0-8.4c0.6-14.1,6-19.7,20.2-19.9
		c19.7-0.3,39.4-0.1,59.1-0.1c7.6,0,15.2,0,23.9,0c0-5.1,0-8.9,0-12.7c0-41.1-0.4-82.3,0.4-123.4C214.1,13.8,218.9,6.9,221.5,0z
		 M143.3,426.2c5.1,0,8.9-0.1,12.8,0c12,0.4,19.3,6.8,18.9,16.6c-0.3,9.3-7.4,15.2-19,15.3c-17.2,0.2-34.4,0-51.7,0.1
		C69.9,458.2,53,475,53,509.2c0,162,0,324.1,0,486.1c0,33.5,17.1,50.6,50.7,50.6c248.9,0,497.7,0,746.6,0
		c33.6,0,50.4-16.9,50.4-50.7c0-201.8,0-403.5,0-605.3c0-33.6-16.8-50.2-50.7-50.3c-83.7,0-167.3,0-251,0c-35.2,0-49.5,13-53.1,48.3
		c-4.2,40.6-33.2,69.3-73.7,69.8c-82.2,0.9-164.5,0.4-246.8,0.3c-10.9,0-17.6-6.2-17.9-15.3c-0.3-9.4,6.8-16,18-16.6
		c2.8-0.1,5.6,0,8.4,0c77.3,0,154.7,0,232,0c29.3,0,47.2-15.2,48.2-44.2c1.5-40.8,34.8-75.2,80.7-74.3c48.1,0.9,96.3,0.2,144.5,0.2
		c3.8,0,7.6,0,12.1,0c0-39.7,0-78.5,0-117.7c-203,0-405.6,0-608.1,0C143.3,269,143.3,347,143.3,426.2z M246.4,156.8
		c5.9,0,10.4,0,14.9,0c165.2,0,330.5,0,495.7,0c23.6,0,27.3,3.7,27.3,27.8c0,37.3,0,74.5,0,111.8c0,3.7,0.3,7.4,0.5,10.8
		c24.1,0,46.8,0,69.6,0c0-92.6,0-184.4,0-276.6c-203.1,0-405.4,0-608.1,0C246.4,72.7,246.4,114,246.4,156.8z M958.4,976.1
		c0-5,0-9.5,0-14c0-127.9,0-255.9,0-383.8c0-4.9,0.2-9.9,1.1-14.6c1.5-7.5,6.8-11.4,14.3-11.6c7.9-0.3,13.8,3.3,15.6,11.3
		c1.1,4.7,1.3,9.7,1.3,14.6c0.1,103,0.1,206,0.1,309c0,33.4,0.1,66.8,0,100.2c-0.1,16.2-5.5,21.4-21.5,21.6c-11.9,0.1-23.8,0-34.8,0
		c-4.5,12.8-8.7,24.5-13.2,37.3c18.6,0,37.1-0.7,55.6,0.2c29.8,1.5,51.3-17.9,51.2-51.3c-0.8-201.4-0.4-402.8-0.4-604.2
		c0-4.6,0.1-9.2-0.4-13.7c-2.3-19.1-19.6-35.7-36.3-34.2c0,3.7,0,7.6,0,11.4c0,46.7,0,93.5,0,140.2c0,3.8-0.1,7.7-0.8,11.5
		c-1.5,8.4-6.7,13.1-15.2,13.1c-8.5,0-13.9-4.4-15.4-12.9c-0.8-4.5-0.9-9.1-0.9-13.6c0-96.3,0-192.6,0-288.9c0-4.4,0-8.9,0-13.4
		c-24.4,0-47.3,0-70.8,0c0,40.2-0.1,79.6,0.2,118.9c0,2.5,2.3,6,4.5,7.2c29.4,16.6,40.7,42.2,40.6,75.3
		c-0.4,190.5-0.2,381-0.2,571.5c0,4.4,0,8.8,0,13.1C942.1,976.1,949.7,976.1,958.4,976.1z"/>
	<path class="st0" d="M672.9,512.9c53.1,0,106.1,0,159.2,0c18.8,0,23.9,5.1,24,23.7c0,34.8,0.1,69.6,0,104.4c0,17.4-5.4,23-22.6,23
		c-106.8,0.1-213.7,0.1-320.5,0c-17.3,0-22.9-5.5-22.9-22.6c-0.1-35.1-0.1-70.3,0-105.4c0-17.8,5.4-23,23.6-23
		C566.7,512.9,619.8,512.9,672.9,512.9z M823.1,631c0-28.7,0-56.9,0-85.3c-100.5,0-200.1,0-300.1,0c0,28.7,0,56.7,0,85.3
		C623.3,631,722.9,631,823.1,631z"/>
	<path class="st0" d="M419.5,272.3c-61.9,0-123.7,0-185.6-0.1c-4.2,0-9.6,0.7-12.2-1.5c-4.4-3.7-10-9.8-9.7-14.4
		c0.4-5.3,6.2-10.8,10.9-14.8c2.4-2,7.4-1.1,11.3-1.1c123.7,0,247.5,0,371.2,0c2.1,0,4.2-0.1,6.3,0.1c9.7,0.8,16.4,7.5,16.3,16
		c-0.1,8.7-6.7,15.4-16.6,15.6c-18.3,0.4-36.6,0.2-54.8,0.2C510.9,272.3,465.2,272.3,419.5,272.3z"/>
	<path class="st0" d="M337.5,352.5c-35.8,0-71.7,0-107.5,0c-7.6,0-14.9-1.9-16.8-9.7c-1.3-5.1-0.6-12.9,2.5-16.2
		c3.7-3.9,11.1-5.8,16.9-5.8c55.1-0.4,110.3-0.2,165.4-0.2c13.7,0,27.4,0,41.1,0c16.1,0,23.8,5.1,24,15.7
		c0.2,10.8-7.5,16.2-23.5,16.2C405.7,352.5,371.6,352.5,337.5,352.5z"/>
</g>
</svg>
