<?xml version="1.0" encoding="utf-8"?>
<!-- Generator: Adobe Illustrator 27.2.0, SVG Export Plug-In . SVG Version: 6.00 Build 0)  -->
<svg version="1.1" id="Ebene_1" xmlns="http://www.w3.org/2000/svg" xmlns:xlink="http://www.w3.org/1999/xlink" x="0px" y="0px"
	 viewBox="0 0 1080 1080" style="enable-background:new 0 0 1080 1080;" xml:space="preserve">
<style type="text/css">
	.st0{fill:#FFFFFF;}
</style>
<path id="envelope-solid_1_" class="st0" d="M101.5,135.4c-55.9,0-101.2,45.3-101.2,101.2c0,31.9,15,61.9,40.5,81l458.8,344.1
	c24,17.9,57,17.9,81,0l458.9-344.1c44.7-33.5,53.8-97,20.3-141.7c-19.1-25.5-49.1-40.5-81-40.5H101.5z M0.3,371.5V810
	c0.1,74.5,60.5,134.9,135,135H945c74.4-0.1,134.7-60.4,134.9-134.8V371.5L621.1,715.7c-48,36.1-114,36.1-162,0L0.3,371.5z"/>
</svg>
