<?xml version="1.0" encoding="utf-8"?>
<!-- Generator: Adobe Illustrator 27.1.1, SVG Export Plug-In . SVG Version: 6.00 Build 0)  -->
<svg version="1.1" id="Ebene_1" xmlns="http://www.w3.org/2000/svg" xmlns:xlink="http://www.w3.org/1999/xlink" x="0px" y="0px"
	 viewBox="0 0 1080 1080" style="enable-background:new 0 0 1080 1080;" xml:space="preserve">
<style type="text/css">
	.st0{fill:#FFFFFF;}
</style>
<path class="st0" d="M303.8,1080c-8.5-5.7-13-13.5-15.5-23.6c-9.2-36.3-19.3-72.5-29.4-110c-13.2,3.4-26,6.7-38.7,10.1
	c-25.1,6.7-50.2,13.2-75.2,20.3c-10.3,2.9-19.6,2.8-26.7-6.2c-7.5-9.5-4.7-18.8,0.8-28.3c42.8-73.8,85.3-147.8,128.2-221.5
	c4-6.9,4.4-10.7-2-16.6c-20.5-19.1-32-43.3-36.2-70.8c-3.2-20.7-12.3-38.3-28.9-51c-41.1-31.3-62.1-89.6-38.9-146.7
	c7.4-18.2,7.4-37.3,0-55.6c-23.1-57-2.5-115.3,39.8-147.4c16-12.2,24.5-29.4,27.9-49.3c9.9-58.1,46.7-95,105.1-105.6
	c20.5-3.7,37.9-12.6,51-29c20.6-25.8,46.7-42.1,79.5-47.2c0.9-0.1,1.8-1,2.7-1.5c10.5,0,21.1,0,31.6,0c14,4.2,27.7,9.8,42,12.3
	c11.8,2.1,24.5,2.2,36.3,0.1c14.3-2.5,28-8.1,41.9-12.4c10.5,0,21.1,0,31.6,0c8.4,2.3,17,4,25.2,6.9c21,7.3,39.3,19.1,53.1,36.6
	c15.9,20.1,35.9,31,61.3,35.2c50.7,8.5,90.4,49.1,98.5,99.9c3.7,23.3,14.1,42,32.2,57.2c43.4,36.6,56.8,87.1,37.4,140.6
	c-7.7,21.1-7.7,41.5,0,62.7c19.7,54.2,5.6,105-38.8,142c-15.2,12.6-25,28.1-29.1,47.5c-8.8,41.9-13.6,50.6-42.9,82.1
	c1.7,3.1,3.5,6.4,5.4,9.7c41.8,72.4,83.5,144.8,125.3,217.2c1.6,2.7,3.2,5.5,4.7,8.2c4.8,8.4,5.1,16.9-1.1,24.6
	c-6.1,7.7-14.1,9.7-23.6,7.1c-36.2-9.8-72.5-19.4-108.8-29.1c-2.3-0.6-4.7-1-8.2-1.8c-6.6,24.2-13,48.2-19.5,72.1
	c-3.4,12.5-7.4,24.9-9.9,37.6c-2.1,10.3-7,18-15.5,23.6c-4.2,0-8.4,0-12.7,0c-5.5-5.7-12.4-10.5-16.2-17.1
	c-46.3-79.5-92.1-159.3-138.3-238.9c-2.2-3.8-6-8-10-9.4c-10.5-3.8-21.7-5.6-32.3-9.1c-18.7-6.3-37.1-6.2-55.7,0.3
	c-8.3,2.9-16.6,6.2-25.2,7.3c-8.1,1.1-11.9,5.2-15.7,11.7c-45.7,79.5-91.4,158.9-137.6,238.1c-3.9,6.6-10.8,11.5-16.2,17.1
	C312.2,1080,308,1080,303.8,1080z M905.3,336.6c-0.9-29.7-9.6-50.9-28.8-66.2c-28.3-22.7-44.2-51.6-49.9-87.3
	c-5-31.5-31-57.5-62.3-62.4c-35.7-5.7-64.4-21.6-87.5-49.7c-22.2-27-56.2-35.9-88.7-23.5c-32.8,12.5-64.7,12.5-97.5,0.1
	c-33-12.4-67.1-3.3-89.4,24.1c-22,26.8-49.4,42.7-83.6,48.5c-36.4,6.2-60.7,31.3-66.7,68c-5.2,31.9-19.9,58-44.7,78.8
	c-31.8,26.7-40,57.8-25.8,97.1c10.6,29.3,10.6,58.3,0.1,87.6c-14.3,39.9-6.3,70.3,26.4,97.9c24.1,20.4,38.5,46,43.9,77
	c6.7,39.2,30.6,63.1,69.8,69.9c30.2,5.2,56.4,18.1,75.4,42.4c25,31.9,63.3,42.9,101.6,27.5c28.1-11.3,57-10,85.5,0.4
	c39.1,14.3,70.8,6,97.2-25.7c20-23.9,45-38.5,75.6-44.3c43.3-8.1,65-30,72.7-73.2c5.3-29.6,19.5-53.8,42.3-73.2
	c33.6-28.6,41.8-58.5,26.9-99.6c-10.3-28.6-10.3-56.9-0.1-85.5C901.7,354.2,903.7,342.8,905.3,336.6z M791.1,732.4
	c-11.1,2.3-21,4.2-30.9,6.4c-15.8,3.4-30.6,9.9-40.9,22.3c-18.6,22.3-39.5,40.8-68.9,49.5C687.4,875,724,938.3,762,1004.1
	c8.1-30.2,15.4-57.5,22.8-84.7c4.7-17.3,14.1-22.8,31.4-18.4c16.6,4.3,33.2,9,49.8,13.4c11.1,3,22.3,5.8,35.5,9.2
	C863.9,858.5,827.6,795.6,791.1,732.4z M288.8,732.8c-36.4,63.1-72.8,126.2-110.2,190.9c5.2-1.3,8.5-2,11.8-2.9
	c25.1-6.7,50.1-13.6,75.2-20.1c15.4-4,25.2,1.8,29.4,17.1c3.9,13.9,7.3,27.8,11.1,41.7c3.8,14,7.6,27.9,12.1,44.4
	c38-65.8,74.5-129,111.4-193c-28.4-8.7-49.4-24.9-66.8-46.5c-11.4-14.2-27-22.2-44.7-25.8C308.8,736.8,299.5,735,288.8,732.8z"/>
<path class="st0" d="M264.8,414.9c6.6-116.5,59.9-201.4,166.1-251.6c3.2-1.5,6.5-2.8,9.8-3.8c10.4-3.1,21.1,1.9,25.3,11.6
	c4.1,9.5,1.1,20.2-7.9,25.9c-3.8,2.4-8.2,4-12.3,5.8C350,245.3,295,345.6,310.4,449.6c15,101.2,97.4,182,199.2,195.5
	c114.3,15.1,223.3-57,254-167.9c31-112-24.1-228.1-130.4-274.8c-2.2-1-4.6-1.8-6.8-2.9c-12-5.7-16.9-16.4-12.5-27.5
	c4.5-11.4,16.3-16.3,28.8-11.3c44.6,18,82.1,45.8,111.9,83.5c125.8,159,43,393.4-155,438.7c-151.5,34.7-304.5-68.3-329.7-222.1
	C267.4,445.5,266.4,430,264.8,414.9z"/>
<path class="st0" d="M515.6,372.8c29.4-29.4,57.4-57.5,85.5-85.6c16.1-16.1,25.4-16,41.6,0.3c18.6,18.7,37.3,37.3,55.9,56
	c13.2,13.2,13.2,23.8,0,37C644,435.2,589.3,489.9,534.6,544.6c-13.4,13.4-23.8,13.5-37,0.3c-38.8-38.7-77.6-77.5-116.3-116.3
	c-12.8-12.8-12.8-23.5-0.2-36.3c19.8-20,39.7-39.8,59.7-59.6c12.1-12,23.3-12,35.6,0.2C489.3,345.6,501.9,358.8,515.6,372.8z
	 M460.6,375.1c-12.9,13.1-24.4,24.8-34.5,35c29.9,30,60.5,60.7,90.3,90.7c45.9-45.9,92.6-92.6,138.6-138.6
	c-10.9-11-22.5-22.6-34.6-34.8c-25.3,25.4-51,51.2-76.8,77.1c-25.9,25.9-29.7,25.9-55.7-0.4C478.3,394.2,469.2,384.1,460.6,375.1z"
	/>
<path class="st0" d="M540.5,141c11.6,0.2,20.7,9.5,20.6,20.9c-0.1,11.3-9.7,20.8-20.9,20.9c-11.6,0.1-21.5-10.1-21.1-21.8
	C519.4,149.5,528.8,140.8,540.5,141z"/>
</svg>
