<?xml version="1.0" encoding="utf-8"?>
<!-- Generator: Adobe Illustrator 27.1.1, SVG Export Plug-In . SVG Version: 6.00 Build 0)  -->
<svg version="1.1" id="Ebene_1" xmlns="http://www.w3.org/2000/svg" xmlns:xlink="http://www.w3.org/1999/xlink" x="0px" y="0px"
	 viewBox="0 0 1080 1080" style="enable-background:new 0 0 1080 1080;" xml:space="preserve">
<style type="text/css">
	.st0{fill:#FFFFFF;}
</style>
<g>
	<path class="st0" d="M1080,599c-6.9,21.1-22.3,33.8-41.7,43c-12.6,6-24.6,13.5-36.9,20.2c-31.9,17.4-60.2,9.6-78.8-21.8
		c-1.1-1.8-2.2-3.5-4.9-7.7c-11.7,9.2-22.9,17.8-33.6,27c-1.6,1.4-2.3,5.9-1.3,8c27.6,56.2,11.1,96.3-47.8,113.8
		c-0.2,41.9-20.8,68.1-62.1,77.7c-6.5,60.2-30.8,79.8-94.6,75.3c-9.3,30.8-28.8,50.5-61.8,55.1c-32.8,4.6-54.5-16-76.5-34.3
		c-19.7,15.7-38,31.5-57.6,45.7c-40.7,29.5-97.8,8.7-110-39.7c-1.9-7.7-2.1-15.9-3.2-24.4c-40.2-9.4-61.4-34.7-61.6-77.6
		c-40.7-9.2-62-34.8-62.4-77.8c-2.8-0.9-5.8-1.8-8.7-2.7c-47.6-12.9-68.2-66.2-41.2-107.5c3.8-5.9,4.4-9.9-1.2-14.1
		c-10.4-7.9-20.9-15.8-31.9-24.2c-3.7,6-5.9,9.9-8.4,13.7c-14.9,22.9-43.1,31.5-67.5,19.3c-21-10.5-41.3-22.5-61.8-34
		C11.4,624.7,5.4,612,0,599c0-7,0-14.1,0-21.1c13.4-25,26.4-50.2,40.3-74.9c41.8-74.4,83.9-148.6,125.9-222.8
		c19.1-33.7,46.8-41.6,80.6-23c14.8,8.1,29.5,16.3,44.2,24.5c30.5,17,39.1,38,28.6,72.7c17,4.9,34,9.8,51,14.5
		c1.3,0.4,3.4-0.8,4.6-1.9c22.4-19.9,50.3-24,78.3-27c34.9-3.7,70-6,105-9.3c21.2-2,41.2,2.6,60.8,9.7c24.1,8.6,48.1,17.7,72.5,25.4
		c7.5,2.4,16.6,2.6,24.4,1c14.7-2.9,28.9-7.8,42.6-11.6c-1.2-10.2-3.7-19.2-3.1-28c1.2-18.3,10.3-32.6,26.5-41.8
		c18.3-10.4,36.8-20.6,55.3-30.6c28-15.1,57.5-6.8,73.5,20.6c10.4,17.9,20.5,36,30.6,54.1c7.1,12.8,4.6,25-6.1,31.3
		c-11.1,6.5-23,2.4-30.7-10.9c-9.8-17-19.4-34.2-29.1-51.3c-5.8-10.1-9.5-11.3-19.5-5.9c-16.7,9.1-33.1,18.5-49.8,27.5
		c-8.5,4.5-10.8,10-5.8,18.8c53.3,94.1,106.5,188.3,159.6,282.4c4.5,8,10.5,9.6,18.4,5.3c17.2-9.5,34.4-19.1,51.6-28.5
		c8.2-4.5,9.2-10.5,4.6-18.4c-11.6-20.1-23-40.3-34.3-60.5c-4.5-8-4.8-16.2,0.7-23.8c4.9-6.9,12.3-10.4,20.2-8
		c5.6,1.7,12.1,5.5,14.8,10.3c15.1,26.4,29.2,53.4,43.7,80.3C1080,585,1080,592,1080,599z M488.4,738.7
		c18.9,10.3,32.1,25.1,37.6,45.9c5.6,21.2,1.1,40.9-10.2,59.5c26.1,14.7,39.7,36.1,40.4,65.4c0.1,2.9,2.5,6.4,4.9,8.4
		c9.4,8,19,15.7,28.8,23.1c13.5,10.1,30.8,8.5,40.7-3.5c10.4-12.6,8.5-29.6-5-41.2c-9.1-7.8-19-14.6-27.7-22.7
		c-4.1-3.8-7.7-9.3-9.1-14.6c-2.2-8.5,1.5-16,9.1-20.7c8.8-5.4,17.5-4.2,25.4,2.1c19.3,15.3,38.4,30.8,57.7,46
		c15,11.8,32.6,10.4,43-3c10.2-13.2,7.5-30-6.9-41.7c-17.2-13.9-34.5-27.7-51.9-41.5c-15.9-12.7-19.2-24.1-10.1-35.3
		c8.8-10.8,20.7-10.2,35.9,1.9c18.2,14.4,36,29.3,54.5,43.2c19.1,14.4,44.5,3.5,46.6-19.5c1-11.5-4.4-20.1-13.3-27.1
		c-17.9-14.2-35.9-28.3-53.5-42.9c-8.5-7.1-10.3-16.6-5.9-25.6c4.2-8.6,13.4-13.7,22.7-11.3c4.6,1.2,9,3.9,12.8,6.9
		c17.7,13.8,35.1,28.1,52.8,41.9c10.1,7.9,21.3,8.5,32.6,2.4c10.2-5.6,16.7-17.2,13.4-28.4c-2.3-7.8-7.6-16.1-13.9-21.2
		c-38.1-31.1-76.4-62-115.5-91.9c-34.6-26.4-70.1-51.7-105.5-77.1c-29.3-20.9-61.7-29.5-97.7-23c-12.4,2.2-24.9,4.3-37.5,5.4
		c-59.4,5.2-112.1-22.3-123.4-84c-0.4-2.2-2.8-5.1-4.8-5.7c-19-5.9-38.2-11.3-57.6-17C259,460.8,220.5,528.8,183,595.3
		c17.7,13.8,34.2,26.7,51.3,40.1c17.7-14.1,36.3-29.6,55.6-44.2c38.7-29.2,92.3-13.6,109.6,31.5c1.1,2.8,2.3,5.5,3.6,8.5
		c32.2-10.2,60.3-4.7,81.6,21.3C506.7,679.4,505.4,708.6,488.4,738.7z M897.1,595.4c-37.8-66.8-76.2-134.8-114.7-202.9
		c-18.9,5.3-36.8,10.1-54.6,15.4c-17.1,5.1-33.7,4.3-50.5-2.1c-25.6-9.7-51.4-18.9-77.4-27.2c-11.2-3.5-23.4-6.3-35-5.6
		c-36.8,2.1-73.6,5.5-110.2,9.5c-13.8,1.5-27.6,5.1-40.8,9.5c-12.3,4.2-14.2,9.7-10.4,22.2c6,20.1,19.3,33.1,39.3,39.1
		c18.3,5.5,37,5.2,55.3,1c56.3-12.7,107.2-1.6,153.3,32.8c36.9,27.5,74.3,54.4,110.9,82.2c28.7,21.8,56.7,44.6,83.5,65.9
		C863.1,621.7,879.6,608.9,897.1,595.4z M110.4,630.3c3.2-3.1,7.4-5.8,9.6-9.6C173.1,527,226,433.2,279.2,339.4
		c4.8-8.5,3.5-14.4-5.1-19c-17-9.2-33.9-18.5-50.7-28c-8.6-4.9-14.3-2.7-19,5.7c-52.9,93.8-106,187.6-159,281.4
		c-5.5,9.8-4.3,13.8,5.8,19.5c16.2,9.1,32.5,18.1,48.8,27C102.8,627.5,105.8,628.4,110.4,630.3z M458.7,702
		c-0.4-16.6-5.7-25.3-16-30.4c-10.7-5.3-21.3-4-30.7,3.4c-37.7,29.9-75.4,59.8-112.8,90.1c-13.3,10.8-15.3,27.8-5.7,40.3
		c9.9,12.9,27.4,15.3,41.2,4.5c37.8-29.7,75.5-59.7,112.6-90.3C453.6,714.6,456.5,705.6,458.7,702z M486.3,808
		c-0.3-16.2-5.1-25.1-15.4-30.4c-11.1-5.8-21.9-4.4-31.5,3.3c-26.1,20.7-52.3,41.4-78.1,62.4c-13.2,10.8-15,27.7-5.1,40.3
		c9.8,12.5,27,15,40.3,4.7c26.6-20.6,53-41.6,78.8-63.2C481.1,820,484,811.5,486.3,808z M254.7,740.2c5.9-2.6,12.7-4.1,17.7-8
		c26.3-20.4,52.4-41.2,78.1-62.3c13-10.7,14.7-28.1,5.1-40.4c-10-12.7-27.3-14.5-41.3-3.9c-9.5,7.2-18.7,14.8-28,22.3
		c-17,13.6-34.1,27-50.8,41c-9.8,8.2-12.4,20.2-8.2,31.4C231.7,731.8,241.5,738.6,254.7,740.2z M443.3,972.6c2.9-1,8.2-1.6,11.9-4.4
		c17.3-13.2,34.6-26.4,50.9-40.9c10.4-9.2,10.1-25.7,1.6-36.6c-8.8-11.3-25.1-15.2-36.8-6.8c-17.6,12.7-34.6,26.5-51,40.7
		c-8.7,7.5-9.8,20.8-4.8,31.2C420.4,966.8,429.5,971.9,443.3,972.6z"/>
	<path class="st0" d="M518.9,139.8c0-16.9-0.1-33.7,0-50.6c0.1-14.4,8.7-23.8,21.2-23.8c12.4,0.1,20.9,9.5,20.9,24
		c0.1,33.7,0.1,67.5,0,101.2c0,14.6-8.3,24.1-20.6,24.3c-12.6,0.3-21.4-9.6-21.5-24.6C518.8,173.5,518.9,156.6,518.9,139.8z"/>
	<path class="st0" d="M420.2,236c-0.3,12.1-5.1,18.9-14.3,22.3c-9.1,3.3-18.6,0.1-24.6-9.1c-11.9-18.2-23.3-36.8-35-55.2
		c-6.7-10.7-13.7-21.3-20.2-32.1c-7-11.7-4.4-24.1,6-30.5c10-6.2,22.1-3.4,29.3,7.7c18.6,29,36.9,58.1,55.1,87.4
		C418.6,229.8,419.4,234,420.2,236z"/>
	<path class="st0" d="M757.9,151.5c-1,2.5-2.4,7.6-5.1,11.9c-17.2,27.8-34.7,55.4-52.2,82.9c-8.4,13.2-20.1,16.7-31.1,9.7
		c-10.9-6.9-12.7-19.2-4.4-32.4c17.7-28.3,35.5-56.5,53.4-84.7c5.7-9.1,14.2-12.8,24.4-9.8C752.3,131.9,757.3,138.8,757.9,151.5z"/>
	<path class="st0" d="M950.7,425.5c-0.1-11.7,8.6-20.8,20.3-21.1c11.7-0.2,21,8.5,21.4,20c0.4,11.8-9.1,21.8-20.9,21.8
		C960,446.2,950.9,437.1,950.7,425.5z"/>
</g>
</svg>
