<?xml version="1.0" encoding="utf-8"?>
<!-- Generator: Adobe Illustrator 27.2.0, SVG Export Plug-In . SVG Version: 6.00 Build 0)  -->
<svg version="1.1" id="Ebene_1" xmlns="http://www.w3.org/2000/svg" xmlns:xlink="http://www.w3.org/1999/xlink" x="0px" y="0px"
	 viewBox="0 0 1080 1080" style="enable-background:new 0 0 1080 1080;" xml:space="preserve">
<style type="text/css">
	.st0{fill:#FFFFFF;}
</style>
<path id="phone-solid" class="st0" d="M347.8,51.9C331.6,12.7,288.7-8.2,247.8,3L62.2,53.7C25.5,63.7,0.1,97,0,135.1
	C0,656.9,423.1,1080,944.9,1080c38-0.1,71.3-25.5,81.4-62.2l50.6-185.6c11.3-40.9-9.7-83.8-48.9-100l-202.5-84.4
	c-34.4-14.4-74.1-4.4-97.6,24.5l-85.2,104C494,705.8,374.2,586,303.7,437.3l104.1-85c28.9-23.6,38.8-63.4,24.3-97.8L347.8,52.2V51.9
	z"/>
</svg>
