<?xml version="1.0" encoding="utf-8"?>
<!-- Generator: Adobe Illustrator 27.1.1, SVG Export Plug-In . SVG Version: 6.00 Build 0)  -->
<svg version="1.1" id="Ebene_1" xmlns="http://www.w3.org/2000/svg" xmlns:xlink="http://www.w3.org/1999/xlink" x="0px" y="0px"
	 viewBox="0 0 1080 1080" style="enable-background:new 0 0 1080 1080;" xml:space="preserve">
<style type="text/css">
	.st0{fill:#FFFFFF;}
</style>
<path class="st0" d="M720.4,720.5c-0.6,9.2-1.2,17.8-1.8,26.4c-0.7,10.3-6,16.4-16.3,18.6c-16.9,3.5-33.6,7.6-50.5,10.8
	c-7.6,1.4-10.2,5.6-13,12.5c-6.9,16.6-2.4,27.7,11.9,37.6c10.1,7,18.5,16.4,27.7,24.6c9,7.9,10.4,16.9,4.6,27.1
	c-7.9,14-15.6,28.2-24,41.9c-7.6,12.4-13.6,14.2-27.4,9.9c-15.7-4.9-31.5-9.7-47-15.2c-6.8-2.4-10.8-0.9-16.6,3.6
	c-14.9,11.5-16.9,23.7-8.9,40.2c5.2,10.7,7.5,22.7,11.3,34.1c3.5,10.6,1.6,19.3-8.4,25.2c-15.2,8.9-30.4,17.7-45.8,26.1
	c-9.1,5-17.3,3-24.2-4.7c-11.5-12.8-23.4-25.4-34.6-38.5c-4.8-5.6-9.1-5.9-16.4-5c-18.2,2.2-26,11.4-27.5,29.3
	c-1,12.6-5.3,24.8-7.9,37.3c-2.1,10.2-8.2,16-18.5,16.2c-18,0.3-35.9,0.3-53.9,0c-10.4-0.2-16.4-6-18.5-16.2
	c-3.5-16.9-7.5-33.6-10.8-50.5c-1.4-6.9-4.6-9.9-11.4-12.7c-17.5-7.4-29.1-2.3-39.4,12.6c-6.8,9.8-16,17.9-23.9,26.9
	c-7.5,8.5-16.2,10.6-26.1,5.1c-14.7-8.2-29.2-16.7-43.9-25.1c-10.4-6-13-14.6-9.3-25.8c5.3-16,10-32.2,15.6-48.1
	c2.4-6.8,0.8-10.8-3.7-16.6c-11.5-15-23.8-16.9-40.2-8.9c-10.7,5.2-22.7,7.5-34.1,11.2c-10.6,3.5-19.3,1.6-25.2-8.4
	c-8.9-15.2-17.7-30.4-26.1-45.8c-5-9.1-3-17.3,4.8-24.2c13.1-11.8,26-23.8,39.3-35.3c4.8-4.2,5.2-8.1,4.5-14.5
	c-2.1-19.1-11.7-27.5-30.7-28.7c-12.2-0.8-24.1-5.2-36.2-7.7c-10.2-2.1-16-8.2-16.2-18.5c-0.3-18-0.3-35.9,0-53.9
	c0.2-10.4,5.9-16.4,16.2-18.5c16.9-3.5,33.6-7.5,50.5-10.7c7-1.3,9.9-4.6,12.7-11.4c7.2-17.4,2.6-29.1-12.5-39.5
	c-9.8-6.7-17.8-16-26.9-23.9c-8.6-7.5-10.7-16.1-5.2-26.1c8.1-14.7,16.3-29.5,25.1-43.8c7.1-11.5,13.3-13.2,26.8-9
	c15.7,4.9,31.5,9.7,47,15.2c6.8,2.4,10.8,0.9,16.6-3.6c14.8-11.5,17.1-23.7,9-40.2c-5.4-11-7.9-23.4-11.6-35.1
	c-3.2-10.2-0.8-18.6,8.7-24.1c15.2-8.8,30.4-17.7,45.8-26.1c9.1-5,17.3-3,24.3,4.7c11.3,12.5,22.9,24.8,33.8,37.7
	c5.3,6.2,10.1,6.6,18.2,5.7c18.5-2.1,24.6-12.2,26.4-29c1.4-12.9,5.4-25.6,8.2-38.4c2-9.2,7.7-14.8,17.1-15
	c18.3-0.4,36.7-0.4,55-0.2c10.4,0.1,16.4,5.9,18.6,16.1c3.5,16.9,7.7,33.6,10.7,50.5c1.4,7.8,5.7,10.1,12.5,13
	c16.6,6.9,27.7,2.4,37.6-11.8c7-10.1,16.5-18.4,24.6-27.7c7.5-8.6,16.1-10.7,26.1-5.2c14.7,8.1,29.5,16.2,43.9,25
	c11.4,7,13.2,13.5,9,26.8c-4.9,15.7-9.7,31.5-15.1,47c-2.4,6.7-1,10.7,3.5,16.6c11.5,14.7,23.6,17.2,40.2,9.1
	c11-5.4,23.4-7.9,35.1-11.6c10.2-3.2,18.6-0.9,24.1,8.7c8.7,14.9,17.4,29.7,25.7,44.8c5.5,9.9,3.5,18.6-5,26.1
	c-12.6,11.2-24.9,22.8-37.7,33.8c-5.5,4.7-6.1,9-5.2,16.3c2.3,18.2,11.4,26,29.3,27.5c12.6,1,24.8,5.4,37.3,7.9
	c10.2,2.1,15.7,8.1,16.3,18.5C719.2,702.4,719.8,711.7,720.4,720.5z M187.2,994c7.9,4.5,14.6,8.3,22,12.5
	c13.5-14.8,26.7-29.1,39.5-43.6c7.1-8,14.8-10,25.1-6.6c13.5,4.4,27.2,8.4,41.1,11.1c12.1,2.3,18.1,8.6,20.4,20.5
	c3.6,18.6,8,37.1,11.9,55.3c9.3,0,17.4,0,25.7,0c4.2-19.4,8.3-38.1,12.1-56.8c2.2-10.9,8.4-16.6,19.4-18.8
	c13.2-2.7,26.5-5.6,39-10.3c12.4-4.7,21.3-2.4,29.8,7.5c12.1,14.2,24.9,27.7,37.8,41.8c7.9-4.6,14.8-8.7,21.9-12.7
	c-6.2-19.3-11.6-37.6-17.9-55.6c-3.8-10.8-0.9-18.5,7.4-25.8c10.1-8.9,20-18.2,28.6-28.5c8.4-10.1,17.2-12.9,29.6-8.4
	c17.5,6.3,35.3,11.5,53.5,17.4c4.4-7.9,8.3-15,12.3-22.1c-14.4-13.1-27.7-25.8-41.7-37.6c-10-8.5-12.1-17.4-7.4-29.8
	c4.6-12.2,7.7-25.1,10.1-37.9c2.2-12,8.3-18.4,20.2-20.6c18.6-3.5,37.1-7.9,55.7-11.9c0-9.2,0-17.2,0-25.7
	c-19.3-4.1-37.9-8.3-56.6-12c-10.9-2.2-16.8-8.1-19.1-19.1c-2.9-13.9-6.4-27.7-11-41.1c-3.8-11.2-1.6-19.3,7.2-27
	c14.4-12.5,28.3-25.5,42.8-38.7c-4.4-7.7-8.4-14.7-12.5-21.9c-19.5,6.2-38.1,11.8-56.5,18.1c-9.9,3.4-17.2,0.9-24.1-6.6
	c-9.6-10.4-19.4-21-30.1-30.2c-9.6-8.3-12.1-16.9-7.9-28.8c6.2-17.5,11.6-35.4,17.5-53.8c-7.7-4.3-14.8-8.3-22.1-12.4
	c-13.4,14.8-26.5,28.8-39,43.1c-7.3,8.4-15.3,10.5-26,6.8c-13.1-4.4-26.5-8.3-40-10.8c-12.6-2.3-18.8-8.7-21.1-21.1
	c-3.4-18.3-7.8-36.5-11.8-55c-8.8,0-16.9,0-25.5,0c-4.1,19.1-8.4,37.7-12,56.4c-2.2,11.4-8.5,17.4-20,19.5
	c-12.1,2.2-24.5,4.5-35.8,9.3c-15.1,6.4-25.4,2.7-35.2-9.5c-11-13.6-23.3-26.1-35.1-39.1c-8,4.7-14.7,8.6-21.9,12.8
	c6,18.8,11.5,37.1,17.8,55c3.9,11.2,1,19.2-7.7,26.8c-10.4,9.2-20.2,19-29.4,29.4c-7.7,8.7-15.7,11.5-26.8,7.6
	c-17.9-6.3-36.2-11.7-55.1-17.8c-4.3,7.5-8.3,14.5-12.5,22c13.9,12.6,26.9,25.1,40.6,36.6c10.6,8.9,13.8,18.1,8.4,31.5
	c-4.8,12.1-7.5,25.1-10,37.9c-2.2,11.5-8.2,17.7-19.6,20c-18.7,3.7-37.2,8-56.3,12.1c0,8.6,0,16.7,0,25.4
	c18.6,4.1,36.8,8.5,55.1,11.9c13,2.4,19.1,9.3,21.2,22.3c2.1,12.5,5.4,25,9.9,36.8c4.8,12.5,2.1,21.3-7.8,29.7
	c-14.2,12.1-27.7,24.9-41.6,37.5c4.5,7.8,8.4,14.5,12.7,21.9c19.1-6.1,37.6-11.7,55.9-18c10.3-3.5,17.8-1,25,6.8
	c9.9,10.8,20.1,21.2,30.9,31c8.3,7.5,10.7,15.3,7,26C198.8,956.6,193.3,974.9,187.2,994z"/>
<path class="st0" d="M912.3,92.6c-1.9,4.9-3.1,8.8-4.9,12.4c-6.1,12-12.5,23.9-18.6,35.9c-5.3,10.5-2.3,17.9,8.8,21.5
	c13.2,4.2,26.3,8.6,39.6,12.6c9.3,2.8,15,8.5,15.2,18.4c0.3,15.3,0.2,30.6-0.1,45.9c-0.2,9.4-5.8,14.9-14.6,17.7
	c-13.2,4.1-26.4,8.4-39.6,12.6c-11.8,3.8-14.8,11-9.1,22.1c6.3,12.3,12.8,24.6,19.3,36.8c4.3,8.2,4.1,16.1-2.4,22.8
	c-10.6,11.1-21.4,22-32.5,32.6c-7.1,6.8-15.3,6.7-23.8,2.1c-12.2-6.6-24.5-13-36.8-19.3c-10.3-5.2-17.7-2-21.3,9.2
	c-3.8,11.7-8,23.4-11,35.4c-3.4,13.1-11,20-24.6,19.9c-12,0-24,0-35.9,0c-13.6,0-21.2-6.8-24.6-20c-3.1-12.3-7.3-24.4-11.3-36.5
	c-3.2-9.7-10.9-13-20-8.4c-12.7,6.4-25.4,12.9-37.9,19.7c-9.1,4.9-17.3,4.3-24.7-2.9c-10.2-9.9-20.3-19.9-30.3-30.1
	c-7.9-8.1-8.2-16.8-2.6-26.6c6.6-11.7,12.6-23.8,18.7-35.8c5-9.8,1.9-17.4-8.5-20.8c-13.5-4.5-27-8.8-40.6-12.9
	c-8.9-2.7-14.4-8.2-14.6-17.6c-0.3-15.7-0.3-31.4,0.1-47.1c0.2-8.9,5.6-14.2,14-16.8c13.6-4.2,27.1-8.5,40.6-12.9
	c11.1-3.6,14.1-11.1,8.7-21.6c-6.3-12.3-12.7-24.6-19.2-36.8c-4.6-8.6-4.3-16.7,2.5-23.8c10.4-10.8,21-21.3,31.8-31.7
	c7.1-6.9,15.1-7.3,23.7-2.7c12.5,6.7,25.2,13.3,37.9,19.7c9.8,4.9,17.2,1.7,20.6-8.9c4-12.5,8.2-24.9,11.7-37.5
	c3.1-11,9.3-17.7,21.3-17.9c13.1-0.2,26.2-0.3,39.3-0.3c13.1,0,20.6,6.7,23.9,19.3c3.2,12.3,7.4,24.3,11.3,36.4
	c3.4,10.4,11,13.7,20.7,8.8c12.4-6.2,24.8-12.5,36.8-19.2c9.5-5.3,18-4.6,25.6,2.9c10.4,10.2,20.8,20.5,30.7,31.2
	C908.7,83.7,910.2,88.6,912.3,92.6z M805.6,324.1c4.8,1.8,8.8,2.9,12.4,4.8c10.7,5.4,21.5,10.7,31.8,16.7c6.3,3.7,10.2,2.8,15.5-2.2
	c5.9-5.6,5.5-9.9,1.8-16.4c-13-22.5-29.1-44.9-9.5-71.9c0.2-0.3,0.1-0.8,0.4-1c5.2-4.9,9.6-11.6,15.7-14.4
	c10.8-4.9,22.6-7.7,34.1-10.9c6.8-1.9,10.6-4.4,10.6-12.8c0-8.4-3.8-11.2-10.7-12.7c-4-0.9-7.8-2.9-11.8-3.5
	c-24.8-3.5-40.9-16.8-45.7-41.7c-1.3-6.8-1.7-14.9,0.7-21.2c4.5-11.8,11.2-22.8,17.4-33.9c2.8-4.9,2.7-8.3-1.4-12.7
	c-5.6-6-10-8-18-3.2c-22.4,13.3-44.7,28-72.1,9.7c-7.2-4.8-13.4-8.9-15.9-17.5c-3.1-10.8-6.8-21.4-9.8-32.2c-2-7-4.1-11.6-13.3-11.5
	c-8.6,0.2-10.9,4.3-12.5,11c-1,4-2.8,7.8-3.4,11.9c-3.7,24.1-16.4,39.5-40.8,45.7c-8.6,2.2-15.7,3.2-23.5-1.1
	c-10.5-5.8-21.4-10.8-31.7-16.9c-6-3.5-9.7-2.5-14.5,2.1c-5.5,5.2-6.5,9.3-2.6,16.3c12.6,22.5,29.1,44.3,10.4,72
	c-5,7.5-9,14.1-18.1,16.7c-11.9,3.4-23.4,7.8-35.4,10.8c-6.8,1.7-7.8,5.5-7.6,11.4c0.1,5.9,0,10.6,7.7,12.5
	c12.7,3.1,25.3,7,37.4,11.9c5.4,2.2,11.2,6.8,13.6,11.9c15.4,31.9,15.1,32-1.1,63c-2.1,4-3.8,8.2-6.3,11.9
	c-3.9,5.9-4.9,10.4,1.1,16.5c6.2,6.3,11,5.7,17.4,1.5c3.4-2.3,7.6-3.4,10.9-5.8c19.3-14.2,38.8-16.2,60.2-3.7
	c8,4.7,14,9.2,16.6,18.2c3.3,11.5,7.6,22.7,10.5,34.3c1.7,7,5.4,8.6,11.9,8.5c6.2-0.1,10.5-0.6,12.2-8.1c2.2-9.8,5.4-19.5,9-28.9
	c2.6-6.8,4.9-15.8,10.2-19.1C780.5,333.1,793.6,329.1,805.6,324.1z"/>
<path class="st0" d="M1047.7,528.7c-5.4,11.8-9.7,21.2-14.1,30.7c-5.7,12.2-1.8,21.3,11,26c1.4,0.5,2.8,1.1,4.2,1.6
	c30.7,11.1,31.5,12.2,31,45.3c-0.1,6.3,0.4,13.3-1.9,18.9c-2.5,5.9-7.2,11.9-12.5,15.4c-6,4-13.8,5.5-20.9,8
	c-12.8,4.7-16.7,13.8-10.9,26.1c0.6,1.4,1.2,2.7,1.9,4.1c13.8,29.2,13.6,30.6-9.2,53.1c-2.7,2.6-5.4,5.2-8.3,7.6
	c-14.1,12.4-16.6,12.2-34.1,4.7c-9.3-4-17.9-14.2-29.8-6.8c-3.5,2.2-6.2,5.7-8.8,9c-1.3,1.7-1.6,4.2-2.4,6.3
	c-11,30.9-12.1,31.7-45,31.3c-5.2-0.1-10.5-0.7-15.7-1c-10.7-0.6-17.3-5.9-20.4-16.2c-1.9-6.4-4.4-12.7-6.7-19.1
	c-4.1-11.3-13.9-15.5-24.6-10.7c-4.1,1.9-8.1,3.9-12.1,5.8c-20,9.6-22.6,9.2-38.8-5.4c-1.7-1.5-3.3-3-4.9-4.6
	c-24.1-23.4-25.1-25-9.7-54.6c7.3-14,1.8-27-13.3-31.6c-31.4-9.5-32-11.6-31.7-44.4c0-3.4,0.3-6.7,0.3-10.1
	c0-14.4,5.6-24.4,20.9-27.6c6.2-1.3,12.1-3.9,18-6.3c7.3-3,11.8-14.1,8.7-21.3c-3.3-7.6-6.8-15-10.5-22.4
	c-4.4-8.7-3.7-16.7,3.1-23.8c8.6-8.9,17.3-17.7,26.2-26.2c7-6.7,15-7.8,23.8-3.3c6.3,3.2,12.8,6.2,19.3,9.2
	c11.6,5.4,21.2,1.5,25.6-10.4c1.3-3.5,2.6-7,3.9-10.5c8.3-23.2,10.6-24.9,35.6-25.5c1.5,0,3-0.1,4.5-0.1
	c31.6-0.1,34.1,0.6,43.1,30.5c5.1,16.9,17.7,22,32.9,14.2c28.8-15,30.6-14.1,53.5,10C1035.7,512.1,1041.4,520.7,1047.7,528.7z
	 M1006.9,531.6c-5.1-2-10.3-6.1-14.4-5.2c-7.5,1.6-14.1,7-21.6,9.2c-5.3,1.6-11.9,2-17.1,0.4c-22.5-6.9-42.3-16.9-45.6-44.2
	c-0.3-2.2-5.2-5.5-7.8-5.3c-3.2,0.2-7.5,2.8-8.9,5.5c-3.3,6.6-4.4,14.4-7.9,20.9c-2.7,4.9-6.9,10-11.8,12.5
	c-20.8,10.7-42.1,17.9-63.4,0.9c-0.3-0.2-0.7-0.5-1-0.4c-2.9,0.6-6.7,0.5-8.4,2.3c-2,2.2-3.8,6.6-3,9.1c2.5,7.4,7.2,14.1,9.4,21.5
	c1.6,5.4,2.2,11.9,0.6,17.2c-6.8,22.5-16.7,42.5-44.1,45.7c-2.3,0.3-5.6,5-5.6,7.6c0.1,3.1,2.6,7.6,5.4,9c6.6,3.4,14.4,4.5,20.9,8
	c4.9,2.7,10.2,6.8,12.6,11.7c10.5,20.8,18.3,42,1.1,63.5c-0.2,0.3-0.5,0.7-0.4,1c0.8,3.2,0.8,7.3,2.9,9.2c2,1.9,6.6,2.9,9.2,2
	c7-2.4,13.4-6.9,20.5-9c5.4-1.6,12-2.4,17.2-0.7c22.3,7,42.9,16.3,45.5,44c0,0.4,0.1,0.9,0.4,1c2.8,1.7,5.7,4.8,8.5,4.8
	c2.8,0,6.8-2.6,8.1-5.1c2.9-5.6,4.8-11.8,6.5-17.9c2.7-9.5,9.3-13.7,17.8-18.3c20.7-11.2,39.9-12.3,59.7,1.3
	c1.8,1.2,7.1-0.3,9.1-2.3c2-2,3.2-6.6,2.3-9.2c-2.4-7-6.7-13.4-9.1-20.5c-1.6-4.7-3.2-10.8-1.7-15.1c7.7-21.8,15-44.4,43.5-47.8
	c2.8-0.3,7-5.6,7-8.6c0.1-3-3.8-8.3-6.7-8.9c-20.7-4.7-35.2-15.4-39.3-37.3c-0.1-0.4-0.3-0.7-0.5-1c-6.8-10.2-6-20.2,0-30.6
	C1000.4,546.6,1002.8,540.3,1006.9,531.6z"/>
<path class="st0" d="M27.6,443.2c-9.4-8-17.9-15.1-27.5-23.2C103,303,231.3,247.6,385.7,252.1c0.9-0.9,1.8-1.8,2.7-2.6
	c-8.6-5.7-17.3-11.3-26.2-17.2c12.1-11.9,20.1-19.8,27.9-27.5c18.7,18.2,37.8,36,56.1,54.7c6.2,6.3,5.8,15.3-0.3,21.6
	c-18.1,18.4-36.8,36.2-55.7,54.6c-7.5-7.9-15.2-16-23.7-25c5.7-6.1,12-12.7,18.3-19.3c-0.5-1-1-2-1.6-2.9
	C241,283.8,122.7,335.4,27.6,443.2z"/>
<path class="st0" d="M977.3,407.6c-10.5-8.5-19.2-15.5-27.9-22.6c64.8-88.4,75.6-182.3,31.5-282.6c-3,14.3-6.1,28.7-9.5,44.7
	c-11.4-2.2-22.6-4.3-35-6.6c4.8-24.2,9.4-47.6,14-70.9c1.2-6.2,2.3-12.5,3.9-18.7c2.6-10,9.3-16.4,19.6-14.6
	c30.1,5.3,60.1,11.7,91.4,17.9c-2.4,12.1-4.5,23.2-6.9,35.2c-15.3-2.9-29.5-5.7-45-8.7C1063.8,197.1,1051.9,305.3,977.3,407.6z"/>
<path class="st0" d="M162,719.6c0.2-109.2,89.3-197.8,198.7-197.6C469.7,522.3,558.4,611.6,558,721
	c-0.4,108.6-89.4,197.1-198.1,197.1C250.7,918,161.8,828.9,162,719.6z M198,719.6C197.9,808.7,270.3,881.7,359,882
	c89.6,0.3,162.8-72.3,162.9-161.6c0.1-89.1-72.3-162-161.1-162.4C271.2,557.7,198.1,630.2,198,719.6z"/>
<path class="st0" d="M737.6,306c-49.5-0.2-89.9-41-89.6-90.6c0.3-49.5,41.2-89.7,90.9-89.3c49,0.4,89.1,40.9,89,90.1
	C827.9,265.7,787.3,306.1,737.6,306z M737.8,270c29.4,0.1,53.8-23.9,54.2-53.2c0.4-29.9-23.9-54.6-53.7-54.8
	c-29.4-0.1-53.8,23.8-54.2,53.2C683.7,245.1,707.9,269.9,737.8,270z"/>
<path class="st0" d="M972,630.2c-0.1,39.7-32.7,72-72.5,71.8c-39.6-0.2-71.8-33-71.5-72.8c0.3-39.2,32.6-71.2,71.9-71.2
	C939.7,558,972.1,590.5,972,630.2z M936,630.4c0.2-19.5-15.8-36-35.3-36.4c-19.6-0.4-36.2,15.5-36.6,35c-0.5,20,15.9,36.9,35.8,37
	C919.4,666.1,935.8,649.9,936,630.4z"/>
</svg>
