<?xml version="1.0" encoding="utf-8"?>
<!-- Generator: Adobe Illustrator 27.2.0, SVG Export Plug-In . SVG Version: 6.00 Build 0)  -->
<svg version="1.1" id="Ebene_1" xmlns="http://www.w3.org/2000/svg" xmlns:xlink="http://www.w3.org/1999/xlink" x="0px" y="0px"
	 viewBox="0 0 674.3 523.4" style="enable-background:new 0 0 674.3 523.4;" xml:space="preserve">
<style type="text/css">
	.st0{enable-background:new    ;}
	.st1{fill:#F3F6FA;}
</style>
<g class="st0">
	<path class="st1" d="M303.7,160.9c0,39.2-5.4,77.1-16.3,113.9s-28.5,70.8-52.9,102.1c-24.4,31.3-55.7,59.5-94,84.5
		c-38.3,25-85.1,45.6-140.6,61.9v-77.7c60.9-19.3,105.4-42.8,133.8-70.5c28.3-27.7,42.5-59.7,42.5-95.8c0-12.1-3.3-22.1-9.9-30.3
		c-6.6-8.1-15.1-15.4-25.3-21.7c-10.3-6.3-21.1-12.5-32.5-18.5c-11.5-6-22.3-13.3-32.5-21.7c-10.3-8.4-18.7-18.8-25.3-31.2
		c-6.6-12.3-9.9-27.9-9.9-46.6c0-35.6,11.6-62.7,34.8-81.4c23.2-18.7,52-28,86.3-28c19.3,0,37.4,3.5,54.2,10.4
		c16.9,6.9,31.9,17.2,45.2,30.7c13.2,13.6,23.6,30.4,31.2,50.6C300,111.9,303.7,135,303.7,160.9z M674.3,160.9
		c0,39.2-5.4,77.1-16.3,113.9c-10.8,36.8-28.5,70.8-52.9,102.1c-24.4,31.3-55.7,59.5-94,84.5c-38.3,25-85.1,45.6-140.6,61.9v-77.7
		c60.3-19.3,104.7-42.8,133.3-70.5c28.6-27.7,42.9-59.7,42.9-95.8c0-12.1-3.3-22.1-9.9-30.3c-6.6-8.1-15.1-15.4-25.3-21.7
		c-10.3-6.3-21.1-12.5-32.5-18.5c-11.5-6-22.3-13.3-32.5-21.7c-10.3-8.4-18.7-18.8-25.3-31.2c-6.6-12.3-9.9-27.9-9.9-46.6
		c0-35.6,11.4-62.7,34.3-81.4c22.9-18.7,51.5-28,85.9-28c19.3,0,37.5,3.5,54.7,10.4c17.2,6.9,32.2,17.2,45.2,30.7
		c13,13.6,23.3,30.4,31.2,50.6C670.4,111.9,674.3,135,674.3,160.9z"/>
</g>
</svg>
