<svg xmlns="http://www.w3.org/2000/svg" id="a" width="285mm" height="89.89mm" viewBox="0 0 807.87 254.81"><path d="M148.35,224.6c-.06.42-.27.53-.7.46,0,0-5.75-.62-8.44-.62-.38,0-.75.43-.75.97l-.06,12.43.06,15.46c0,.43-.21.64-.7.64h-3.12c-.48,0-.71-.22-.71-.64l.06-15.46-.06-12.43c0-.54-.37-.97-.74-.97-2.69,0-8.44.62-8.44.62-.44.06-.65-.05-.71-.46l-.16-2.38c-.06-.42.42-.53.86-.53h22.9c.43,0,.92.11.86.53l-.16,2.38Z" fill="#b8b8b0" stroke-width="0"></path><path d="M203.77,253.94h-4.09c-.47,0-.69-.26-.91-.64l-7.53-12.3c-.86-1.41-1.72-2.17-2.74-2.17h-3.6c-.48,0-1.02.38-1.02.87l.05,13.6c0,.43-.22.64-.7.64h-3.12c-.49,0-.7-.22-.7-.64l.05-15.46-.05-15.51c0-.43.05-.64.49-.64h12.96c4.73,0,8.55,3.22,8.55,7.64s-3.17,7.85-7.63,8.86c-.32.06-.32.26-.1.44.43.31.96,1.01,1.99,2.52l7.09,10.12,1.51,2.04c.26.38-.06.64-.49.64ZM190.98,223.84h-5.65c-.7,0-1.39.51-1.39,1.22l-.05,10.71c0,.48.53.97,1.02.97h3.87c4.79,0,7.8-1.88,7.8-7.04,0-3.4-2.26-5.86-5.59-5.86Z" fill="#b8b8b0" stroke-width="0"></path><path d="M254.32,253.94h-18.98c-.49,0-.7-.22-.7-.64l.05-15.46-.05-15.51c0-.43.21-.64.7-.64h18.39c.42,0,.81.11.81.53v2.53c0,.43-.38.54-.81.51,0,0-5.76-.82-8.5-.82h-4.84c-.7,0-1.29.54-1.29,1.23l-.05,9.78c0,.22.16.38.37.38l10.22-.26c.27,0,.54.11.54.38v2.52c0,.29-.27.38-.54.38l-10.22-.25c-.21,0-.37.16-.37.36l.05,10.97c0,.69.59,1.3,1.29,1.3h4.84c2.74,0,9.09-1.04,9.09-1.04.43-.05.8.05.8.49v2.74c0,.41-.38.53-.8.53Z" fill="#b8b8b0" stroke-width="0"></path><path d="M309.48,226.36l-.44,17.96c-.17,6.95-4.09,10.5-10.8,10.5-7.58,0-12.1-3.5-12.21-10.5l-.21-18.43-.06-3.55c0-.43.21-.64.7-.64h3.33c.49,0,.7.21.7.64l-.11,3.61-.05,18.01c0,5.05,3.6,8.02,8.12,8.02,3.87,0,7.37-2.17,7.31-7.47l-.22-18.02c0-1.68-.21-3.93-.21-3.93-.06-.49.11-.85.54-.85h3.23c.48,0,.59.36.53.85,0,0-.1,2.15-.15,3.81Z" fill="#b8b8b0" stroke-width="0"></path><path d="M366.68,253.94h-3.12c-.49,0-.7-.22-.7-.64l.06-14.14c0-.22-.17-.37-.38-.37h-14.46c-.21,0-.38.15-.38.37l.05,14.14c0,.43-.22.64-.7.64h-3.12c-.48,0-.7-.22-.7-.64l.06-15.43-.06-15.54c0-.43.22-.64.7-.64h3.12c.48,0,.7.21.7.64l-.05,13.82c0,.23.16.38.38.38h14.46c.21,0,.38-.15.38-.38l-.06-13.82c0-.43.21-.64.7-.64h3.12c.48,0,.7.21.7.64l-.06,15.54.06,15.43c0,.43-.21.64-.7.64Z" fill="#b8b8b0" stroke-width="0"></path><path d="M424.91,253.94h-4.14c-.48,0-.8-.22-.97-.64,0,0-.81-2.32-1.29-3.65l-1.72-4.58c-.05-.28-.37-.43-.64-.43h-11.61c-.32,0-.54.15-.64.43l-2.64,8.29c-.16.41-.38.58-.86.58h-2.69c-.48,0-.58-.38-.42-.8l12.04-31.24c.21-.71,2.74-.71,3.01,0l11.24,27.8c.54,1.33,1.78,3.6,1.78,3.6.21.43.05.64-.43.64ZM410.39,227.66c-.11-.28-.43-.28-.53,0l-4.9,14.24c-.04.28.11.54.38.54h10.1c.28,0,.43-.26.33-.54l-5.38-14.24Z" fill="#b8b8b0" stroke-width="0"></path><path d="M478.73,245.35v8.65c0,.87-.97.82-1.19.49l-18.98-24.9c-.27-.32-.64-.17-.64.17l.64,23.31c.06.5-.05.87-.54.87h-2.74c-.48,0-.59-.38-.59-.87l.59-22.79-.11-7.95c0-.43.21-.64.7-.64h1.4c.37,0,.75.15.91.43l16.77,22.04c.38.49.97.27.97-.2l-.53-21.4c0-.49.1-.85.53-.85h2.59c.43,0,.53.36.53.85l-.31,22.8Z" fill="#b8b8b0" stroke-width="0"></path><path d="M523.73,254.17c-5.64,0-6.51-.44-7.58-.44-1.4,0-1.29.27-2.53.27-.32,0-.7-.05-.7-.53l.05-15.63-.05-15.51c0-.43.21-.64.7-.64h10.49c6.93,0,13.32,5.16,13.32,15.53,0,8.45-4.19,16.95-13.7,16.95ZM523.56,223.84h-4.63c-.69,0-1.5.51-1.5,1.22l-.06,12.81.06,11.23c0,2.47,3.44,3.12,5.16,3.12,8.28,0,9.78-9.05,9.78-15.44,0-9.73-4.14-12.95-8.82-12.95Z" fill="#b8b8b0" stroke-width="0"></path><path d="M629.92,253.94h-4.14c-.49,0-.81-.22-.97-.64,0,0-.81-2.32-1.3-3.65l-1.72-4.58c-.04-.28-.37-.43-.64-.43h-11.61c-.33,0-.54.15-.65.43l-2.63,8.29c-.17.41-.38.58-.86.58h-2.69c-.48,0-.58-.38-.42-.8l12.04-31.24c.21-.71,2.74-.71,3.01,0l11.24,27.8c.54,1.33,1.77,3.6,1.77,3.6.22.43.05.64-.42.64ZM615.4,227.66c-.11-.28-.44-.28-.54,0l-4.9,14.24c-.05.28.1.54.38.54h10.1c.27,0,.43-.26.33-.54l-5.37-14.24Z" fill="#b8b8b0" stroke-width="0"></path><path d="M682.7,254.12c-.53,0-1.99-1.46-1.99-1.46-.38-.22-.59-.16-.86,0-2.08,1.07-5.11,1.98-7.95,1.98-6.84,0-13.82-4.35-13.82-16.76,0-10.11,6.4-16.18,13.7-16.18h8.71c.44,0,.7.11.65.53l-.33,3.07c-.06.43-.38.65-.82.54-2.56-.82-4.08-1.51-8.27-1.51-5.48,0-8.61,4.73-8.61,13.55,0,10.53,4.7,13.98,10.44,13.98,2.48,0,5.75-1.72,5.75-3.5,0-.43-.53-8.87-.53-8.87,0,0-.17-1.15-.17-1.29,0-.45.34-.75.76-.75h3.66c.23,0,.43.16.43.4v15.53c0,.41-.31.75-.76.75Z" fill="#b8b8b0" stroke-width="0"></path><path d="M500.93,107.07c-10.94-1.93-28.89-4.47-28.89-18.14,0-10.53,9.38-17.93,22.07-17.93s18.92,7.21,21.64,19.1l.19.59c.39,1.56,1.96,2.74,3.7,2.74h1.37c1.96,0,3.11-1.57,2.94-3.33l-2.94-23.8c-.38-1.93-2.15-3.51-3.92-3.51h-30.21c-22.04,0-37.05,10.54-37.05,24.96s11.5,20.67,28.65,24.01c10.95,2.14,29.85,4.48,29.85,18.32,0,10.34-9.55,17.74-22.22,17.74-8.41,0-15.41-5.44-17.59-13.05-.58-1.97-1.17-3.69-1.91-5.26-2.56-4.49-6.84-7.24-10.76-7.24-5.05,0-7.99,4.3-7.99,9.19,0,13.64,17.77,24.57,39.58,24.57,31.23,0,42.93-10.53,42.93-24.95,0-13.67-12.48-20.68-29.45-24.02Z" fill="#0a5a40" stroke-width="0"></path><path d="M408.87,22.83c6.41,0,11.71-5.09,11.71-11.51s-5.3-11.32-11.71-11.32-11.91,5.05-11.91,11.32,5.3,11.51,11.91,11.51Z" fill="#0a5a40" stroke-width="0"></path><path d="M243.89,45.58c6.44,0,11.7-5.08,11.7-11.51s-5.26-11.33-11.7-11.33-11.91,5.09-11.91,11.33,5.28,11.51,11.91,11.51Z" fill="#0a5a40" stroke-width="0"></path><path d="M565.08,45.58c6.45,0,11.72-5.08,11.72-11.51s-5.28-11.33-11.72-11.33-11.89,5.09-11.89,11.33,5.29,11.51,11.89,11.51Z" fill="#0a5a40" stroke-width="0"></path><path d="M433.61,144.91h-2.05s-.07.05-.07.05v-.05c-4.49,0-8.2-3.69-8.2-8.19v-63.01c0-4.48-3.7-8.17-8.19-8.17h-66.9c-1.94,0-3.51,1.55-3.51,3.51v1.16c.33,1.97,1.65,3.22,3.51,3.51h3.32c2.34,0,4.1,1.96,4.1,4.1,0,.79-.2,1.37-.39,1.96l-20.51,40.57c-.56,1.18-1.73,2.14-3.31,2.14s-2.72-.96-3.33-2.14l-20.46-40.76c-.41-.59-.41-.97-.41-1.76,0-2.14,1.74-4.1,4.12-4.1h3.69c1.94,0,3.5-1.56,3.5-3.51v-1.16c0-1.96-1.55-3.51-3.5-3.51h-39.61c-1.94,0-3.49,1.55-3.49,3.51v1.37c.61,2.04,1.15,2.74,3.05,3.22l1.02.07c3.33,0,6.45,2.17,8.03,5.08l38.43,76.46c.57,1.35,1.93,2.34,3.47,2.34,1.36,0,2.75-.99,3.34-2.34l38.42-76.26c1.55-3.11,4.51-5.27,7.99-5.27h17.56c4.48,0,8.2,3.72,8.2,8.2v54.8c0,4.49-3.71,8.19-8.4,8.19h-1.94c-1.58,0-3.67.49-3.44,2.95.1.67.56,1.48,1.54,1.68l43.04.06v-.03l3.25-.04c.99-.2,1.42-1.01,1.54-1.68.23-2.46-1.87-2.95-3.43-2.95Z" fill="#0a5a40" stroke-width="0"></path><path d="M269.1,144.91h-2.04s-.02,0-.02,0h-.16c-4.51,0-8.21-3.69-8.21-8.19v-63.01c0-4.48-3.69-8.17-8.21-8.17h-23.95c-1.75,0-3.54,1.55-3.54,3.51v1.16c.44,1.86.94,2.64,3.02,3.18l2.65.32c4.47,0,8.2,3.72,8.2,8.2v54.8c0,4.38-3.53,7.97-8.03,8.15h-23.37c-4.5,0-8.19-3.71-8.19-8.19V46.36c0-4.46,3.7-8.16,8.19-8.16l1.89-.17c1.73-.4,3.26-1.64,3.56-3.33v-1.18c0-1.95-1.58-3.52-3.5-3.52h-23.81c-4.46,0-8.19,3.71-8.19,8.2v26.34c0,2.33-1.93,4.29-4.1,4.29-.75,0-1.15-.41-1.75-.58-6.63-3.71-13.86-5.67-20.86-5.67-25.17,0-38.82,23.2-38.82,46.6,0,9.96,2.32,20.29,6.42,29.47.8,1.56.8,1.75.8,2.74,0,1.92-2.15,3.49-4.3,3.49H0v4.73h267.21l.09.04,3.68-.06c.99-.19,1.44-1.02,1.54-1.69.23-2.49-1.85-2.98-3.42-2.98ZM175.39,136.69c0,4.48-3.7,8.19-8.18,8.19h-17.74c-5.09,0-9.17-2.91-11.31-7.6-4.52-10.14-7.23-21.85-7.23-32.77,0-13.45,5.06-33.75,21.86-33.75,5.24,0,10.73,2.16,15.78,6.26,4.29,3.31,6.82,8.58,6.82,14.44v45.24Z" fill="#0a5a40" stroke-width="0"></path><path d="M807.87,149.51l-.08-4.6h-106.16c-4.69,0-8.41-3.69-8.41-8.19v-54.8c0-4.49,3.72-8.2,8.41-8.2h1.91c1.99,0,3.54-1.56,3.54-3.51v-1.16c0-1.96-1.55-3.51-3.54-3.51h-32.18c-4.86-1.16-19.69-2.94-26.74-2.94-25.1,0-38.79,23.22-38.79,46.61,0,10.34,2.56,20.3,6.83,29.85.2.59.39,1.18.39,1.77,0,2.33-1.74,4.08-4.1,4.08h-21.25c-4.49,0-8.19-3.69-8.19-8.19v-63.01c0-4.48-3.71-8.17-8.19-8.17h-24c-1.76,0-3.51,1.55-3.51,3.51v1.16c.44,1.71.63,2.75,3.46,3.39l2.21.12c4.48,0,8.2,3.72,8.2,8.2v54.8c0,4.48-3.83,8.25-8.47,8.27v-.05h-1.96c-1.55,0-3.65.47-3.43,3.01.12.69.56,1.45,1.55,1.66h3.77s258.73-.1,258.73-.1ZM648.78,70.79c5.24,0,10.92,2.15,15.95,6.25,4.12,3.31,6.65,8.58,6.65,14.44v45.25c0,4.49-3.67,8.19-8.15,8.19h-17.57c-9.94,0-12.68-9.55-15.03-17.35-2.53-8.01-3.68-15.79-3.68-23.01,0-13.46,5.04-33.76,21.83-33.76Z" fill="#0a5a40" stroke-width="0"></path></svg>