<svg xmlns="http://www.w3.org/2000/svg" xmlns:xlink="http://www.w3.org/1999/xlink" width="200px" height="47px" viewBox="0 0 200 47"><title>Group</title><g id="Page-1" stroke="none" stroke-width="1" fill="none" fill-rule="evenodd"><g id="Group" transform="translate(0.000000, 0.000000)" fill="#3D5164" fill-rule="nonzero"><path d="M0.0528108503,0 L6.43429781,0 C11.7083181,0 16.0329642,4.16644029 16.0329642,9.38769337 C16.0329642,14.6089465 11.7610854,18.775378 6.43429781,18.775378 L0.0528108503,18.775378 L0.0528108503,0 Z M6.43429781,14.9253755 C9.59876234,14.9253755 11.7610854,12.3938562 11.7610854,9.38769337 C11.7610854,6.38153057 9.59876234,3.85001129 6.43429781,3.85001129 L4.21929475,3.85001129 L4.21929475,14.9253755 L6.43429781,14.9253755 Z" id="Shape"></path><path d="M18.9335925,0 L26.3172559,0 C29.8507422,0 32.1185997,2.53151057 32.1185997,5.64313807 C32.1185997,8.0692101 30.8001164,9.65135514 28.4268117,10.4951949 L35.0719953,18.775378 L30.0090439,18.775378 L23.8384166,11.0226057 L23.1527913,11.0226057 L23.1527913,18.775378 L18.9335925,18.775378 L18.9335925,0 Z M25.8425251,7.4890321 C27.1083284,7.4890321 28.0048482,6.75072682 28.0048482,5.69590532 C28.0048482,4.53563654 27.1083284,3.90275236 25.8425251,3.90275236 L23.1527913,3.90275236 L23.1527913,7.4890321 L25.8425251,7.4890321 Z" id="Shape"></path><path d="M36.2849441,16.1909171 C36.2849441,14.608772 37.5506601,13.3429688 39.1328924,13.3429688 C40.7150374,13.3429688 41.9808407,14.608772 41.9808407,16.1909171 C41.9808407,17.7731493 40.7150374,19.0388654 39.1328924,19.0388654 C37.5506601,18.9861853 36.2849441,17.7203821 36.2849441,16.1909171 Z" id="Path"></path><polygon id="Path" points="51.3158453 0 55.5350441 0 55.5350441 18.775378 51.3158453 18.775378"></polygon><polygon id="Path" points="62.4969184 4.06096687 57.6975416 4.06096687 57.6975416 0 71.568174 0 71.568174 4.00822579 66.7161172 4.00822579 66.7161172 18.775378 62.4969184 18.775378"></polygon><polygon id="Path" points="73.7831771 0 85.7024683 0 85.7024683 4.00822579 78.0023759 4.00822579 78.0023759 7.38358484 84.1203232 7.38358484 84.1203232 11.3918019 78.0023759 11.3918019 78.0023759 14.767161 85.7024683 14.767161 85.7024683 18.775378 73.7831771 18.775378"></polygon><polygon id="Path" points="102.473729 18.775378 93.3497934 7.1726031 93.3497934 18.775378 89.1301585 18.775378 89.1301585 0 92.7697898 0 101.893725 11.6027837 101.893725 0 106.112488 0 106.112488 18.775378"></polygon><path d="M111.49213,22.889304 L109.171244,22.889304 L111.175527,18.7755525 C110.27892,18.4063562 109.435516,17.4043019 109.435516,16.1385859 C109.435516,14.5563537 110.701058,13.2906376 112.283203,13.2906376 C113.865348,13.2906376 115.130889,14.5563537 115.130889,16.1385859 C115.130889,16.7714439 114.867489,17.4043019 114.550886,17.9844799 L111.49213,22.889304 Z" id="Path"></path><path d="M124.571428,0 L130.953212,0 C136.22732,0 140.551617,4.16644029 140.551617,9.38769337 C140.551617,14.6089465 136.279651,18.775378 130.953212,18.775378 L124.571428,18.775378 L124.571428,0 Z M130.953212,14.9253755 C134.117502,14.9253755 136.279651,12.3938562 136.279651,9.38769337 C136.279651,6.38153057 134.117502,3.85001129 130.953212,3.85001129 L128.73786,3.85001129 L128.73786,14.9253755 L130.953212,14.9253755 Z" id="Shape"></path><path d="M143.294641,11.3390347 L143.294641,0 L147.513404,0 L147.513404,11.3918019 C147.513404,13.6596594 148.937683,15.0309099 151.046628,15.0309099 C153.156446,15.0309099 154.580725,13.6596594 154.580725,11.3918019 L154.580725,0 L158.799488,0 L158.799488,11.3390347 C158.799488,16.0329642 155.582867,19.091807 151.099832,19.091807 C146.458931,19.091807 143.294641,16.0329642 143.294641,11.3390347 Z" id="Path"></path><path d="M162.596985,0 L168.978769,0 C174.252876,0 178.577173,4.16644029 178.577173,9.38769337 C178.577173,14.6089465 174.305207,18.775378 168.978769,18.775378 L162.596985,18.775378 L162.596985,0 Z M168.978769,14.9253755 C172.143059,14.9253755 174.305207,12.3938562 174.305207,9.38769337 C174.305207,6.38153057 172.143059,3.85001129 168.978769,3.85001129 L166.763417,3.85001129 L166.763417,14.9253755 L168.978769,14.9253755 Z" id="Shape"></path><polygon id="Path" points="181.530394 0 185.750029 0 185.750029 14.767161 193.502889 14.767161 193.502889 18.775378 181.530394 18.775378"></polygon><polygon id="Path" points="195.717369 0 199.937004 0 199.937004 18.775378 195.717369 18.775378"></polygon><path d="M6.38153057,40.0294122 L4.21920754,40.0294122 L4.21920754,45.9890577 L-3.87328303e-15,45.9890577 L-3.87328303e-15,27.2136012 L6.38153057,27.2136012 C10.1787659,27.2136012 12.9740342,30.0088695 12.9740342,33.6478903 C13.0267142,37.2869983 10.1787659,40.0294122 6.38153057,40.0294122 Z M6.32876333,31.1691383 L4.21920754,31.1691383 L4.21920754,36.0739623 L6.32876333,36.0739623 C7.85822835,36.0739623 8.91304986,34.9663736 8.91304986,33.5952103 C8.9658171,32.2239598 7.85822835,31.1691383 6.32876333,31.1691383 Z" id="Shape"></path><path d="M20.252163,27.2136012 L24.0493983,27.2136012 L32.0658325,45.9890577 L27.6884192,45.9890577 L26.0007396,42.0335207 L18.2479673,42.0335207 L16.5602877,45.9890577 L12.1829616,45.9890577 L20.252163,27.2136012 Z M24.4712746,38.3944999 L22.0980571,32.7513705 L19.7247523,38.3944999 L24.4712746,38.3944999 Z" id="Shape"></path><path d="M34.0171738,27.2136012 L41.4007499,27.2136012 C44.9343235,27.2136012 47.2020938,29.7451205 47.2020938,32.8568178 C47.2020938,35.2828026 45.8836105,36.8650349 43.5103057,37.7088746 L50.2083438,45.9890577 L45.1453052,45.9890577 L38.9219978,38.2362854 L38.2363726,38.2362854 L38.2363726,45.9890577 L34.0171738,45.9890577 L34.0171738,27.2136012 Z M40.9261064,34.6499446 C42.1918224,34.6499446 43.0884294,33.9116393 43.0884294,32.8568178 C43.0884294,31.696549 42.1918224,31.063691 40.9261064,31.063691 L38.2363726,31.063691 L38.2363726,34.6499446 L40.9261064,34.6499446 Z" id="Shape"></path><polygon id="Path" points="54.3220953 31.2219055 49.5227185 31.2219055 49.5227185 27.2136012 63.393351 27.2136012 63.393351 31.2219055 58.5412941 31.2219055 58.5412941 45.9890577 54.3220953 45.9890577"></polygon><polygon id="Path" points="78.9515757 45.9890577 69.8275528 34.3862828 69.8275528 45.9890577 65.608354 45.9890577 65.608354 27.2136012 69.2473748 27.2136012 78.3713977 38.8164634 78.3713977 27.2136012 82.5905093 27.2136012 82.5905093 45.9890577"></polygon><polygon id="Path" points="86.5990753 27.2136012 98.5183664 27.2136012 98.5183664 31.2219055 90.817838 31.2219055 90.817838 34.5972646 96.9362214 34.5972646 96.9362214 38.6054816 90.817838 38.6054816 90.817838 41.9808407 98.5183664 41.9808407 98.5183664 45.9890577 86.5990753 45.9890577"></polygon><path d="M101.946057,27.2136012 L109.329982,27.2136012 C112.863206,27.2136012 115.130889,29.7451205 115.130889,32.8568178 C115.130889,35.2828026 113.812144,36.8650349 111.438927,37.7088746 L118.137314,45.9890577 L113.074275,45.9890577 L106.85123,38.2362854 L106.165692,38.2362854 L106.165692,45.9890577 L101.946057,45.9890577 L101.946057,27.2136012 Z M108.85464,34.6499446 C110.121054,34.6499446 111.017661,33.9116393 111.017661,32.8568178 C111.017661,31.696549 110.121054,31.063691 108.85464,31.063691 L106.165692,31.063691 L106.165692,34.6499446 L108.85464,34.6499446 Z" id="Shape"></path><path d="M124.36036,32.5930688 L125.099101,32.5930688 C125.151432,33.3841413 125.995708,33.7533376 126.628043,33.7533376 C127.419115,33.7533376 127.999991,33.3313741 127.999991,32.6457488 C127.999991,32.065658 127.630184,31.6436946 126.997849,31.4327128 L125.995708,31.0636038 C124.940363,30.6416403 124.519097,30.1142295 124.519097,29.1649425 C124.519097,28.110121 125.362501,27.477263 126.522508,27.477263 C127.894456,27.477263 128.47446,28.37387 128.579994,29.2703898 L127.841253,29.2703898 C127.683387,28.5320845 127.050181,28.2156555 126.470177,28.2156555 C125.784639,28.2156555 125.204635,28.5847645 125.204635,29.2177098 C125.204635,29.8505678 125.521239,30.1142295 126.206777,30.3779785 L127.103384,30.7470876 C128.105525,31.1162838 128.685529,31.6964618 128.685529,32.6985161 C128.685529,33.8587848 127.788922,34.5444101 126.575711,34.5444101 C125.256967,34.4389628 124.36036,33.5951231 124.36036,32.5930688 Z" id="Path"></path><path d="M130.162139,32.9623523 L130.162139,30.167084 L129.159998,30.167084 L129.159998,29.534226 L130.162139,29.534226 L130.162139,28.2157427 L130.847678,28.2157427 L130.847678,29.534226 L132.218754,29.534226 L132.218754,30.167084 L130.847678,30.167084 L130.847678,32.909585 C130.847678,33.542443 131.111078,33.7006576 131.63875,33.7006576 C131.849819,33.7006576 132.113219,33.6478903 132.218754,33.5952103 L132.218754,34.1753011 C132.007685,34.2280683 131.796616,34.2808355 131.533216,34.2808355 C130.794474,34.3862828 130.162139,33.9116393 130.162139,32.9623523 Z" id="Path"></path><path d="M132.693223,31.9073563 C132.693223,30.5361058 133.58983,29.4286043 135.119644,29.4286043 C136.648585,29.4286043 137.492861,30.7470876 137.334123,32.1183381 L133.378761,32.1183381 C133.378761,33.1203923 134.169833,33.8060176 135.06644,33.8060176 C135.699647,33.8060176 136.22732,33.5423558 136.543051,32.9094106 L137.229461,32.9094106 C137.018392,33.7005703 136.279651,34.4388756 135.06644,34.4388756 C133.643033,34.3861956 132.693223,33.3313741 132.693223,31.9073563 Z M133.378761,31.5381601 L136.596254,31.5381601 C136.437516,30.588873 135.805182,30.0614623 135.014109,30.0614623 C134.328571,30.0614623 133.58983,30.4306585 133.378761,31.5381601 Z" id="Shape"></path><path d="M138.336265,32.5403888 L138.336265,29.534226 L139.022675,29.534226 L139.022675,32.4349415 C139.022675,33.2787813 139.497144,33.806192 140.182682,33.806192 C140.973755,33.806192 141.606089,33.0677995 141.606089,31.9075308 L141.606089,29.534226 L142.2925,29.534226 L142.2925,34.3335156 L141.606089,34.3335156 L141.606089,33.542443 C141.290358,34.1753011 140.709482,34.43905 140.077148,34.43905 C139.075006,34.3862828 138.336265,33.7006576 138.336265,32.5403888 Z" id="Path"></path><path d="M143.399303,31.9073563 C143.399303,30.5361058 144.29591,29.4286043 145.825724,29.4286043 C147.354666,29.4286043 148.198942,30.7470876 148.041076,32.1183381 L144.084841,32.1183381 C144.084841,33.1203923 144.875914,33.8060176 145.772521,33.8060176 C146.405728,33.8060176 146.9334,33.5423558 147.250004,32.9094106 L147.935542,32.9094106 C147.724473,33.7005703 146.985731,34.4388756 145.772521,34.4388756 C144.401445,34.3861956 143.399303,33.3313741 143.399303,31.9073563 Z M144.138045,31.5381601 L147.354666,31.5381601 C147.1968,30.588873 146.563593,30.0614623 145.772521,30.0614623 C145.034652,30.0614623 144.29591,30.4306585 144.138045,31.5381601 Z" id="Shape"></path><path d="M149.14788,29.5341388 L149.83429,29.5341388 L149.83429,30.536193 C150.044487,29.8505678 150.677694,29.4813715 151.205366,29.4813715 C151.310901,29.4813715 151.416435,29.4814587 151.574301,29.5341388 L151.574301,30.219764 C151.416435,30.1669968 151.310901,30.1669968 151.152163,30.1669968 C150.572159,30.1669968 149.83429,30.6944075 149.83429,31.9074435 L149.83429,34.3335156 L149.14788,34.3335156 L149.14788,29.5341388 Z" id="Path"></path><path d="M152.99858,33.4895886 L152.99858,34.2807483 L152.313042,34.2807483 L152.313042,27.160834 L152.99858,27.160834 L152.99858,30.3779785 C153.367515,29.8505678 154.053053,29.4813715 154.791794,29.4813715 C156.16287,29.4813715 157.165012,30.5889603 157.165012,31.9601236 C157.165012,33.3313741 156.16287,34.4389628 154.791794,34.4389628 C154.053053,34.3861956 153.367515,34.0169993 152.99858,33.4895886 Z M156.479474,31.9074435 C156.479474,30.852622 155.740732,30.0615495 154.738591,30.0615495 C153.684118,30.0615495 152.99858,30.9053893 152.99858,31.9074435 C152.99858,32.9622651 153.736449,33.7533376 154.738591,33.7533376 C155.740732,33.8060176 156.479474,32.9622651 156.479474,31.9074435 Z" id="Shape"></path><path d="M157.902881,31.9073563 C157.902881,30.5361058 158.799488,29.4286043 160.329302,29.4286043 C161.858244,29.4286043 162.70252,30.7470876 162.543782,32.1183381 L158.588419,32.1183381 C158.588419,33.1203923 159.379492,33.8060176 160.276099,33.8060176 C160.909306,33.8060176 161.436978,33.5423558 161.752709,32.9094106 L162.439119,32.9094106 C162.22805,33.7005703 161.489309,34.4388756 160.276099,34.4388756 C158.905023,34.3861956 157.902881,33.3313741 157.902881,31.9073563 Z M158.641622,31.5381601 L161.858244,31.5381601 C161.700378,30.588873 161.067171,30.0614623 160.276099,30.0614623 C159.590561,30.0614623 158.852691,30.4306585 158.641622,31.5381601 Z" id="Shape"></path><path d="M163.651458,29.5341388 L164.336996,29.5341388 L164.336996,30.536193 C164.548065,29.8505678 165.181272,29.4813715 165.708944,29.4813715 C165.814478,29.4813715 165.919141,29.4814587 166.077879,29.5341388 L166.077879,30.219764 C165.919141,30.1669968 165.814478,30.1669968 165.655741,30.1669968 C165.075737,30.1669968 164.336996,30.6944075 164.336996,31.9074435 L164.336996,34.3335156 L163.651458,34.3335156 L163.651458,29.5341388 Z" id="Path"></path><path d="M166.394482,31.9073563 C166.394482,30.5361058 167.396624,29.4286043 168.7677,29.4286043 C169.505569,29.4286043 170.191979,29.7978005 170.560914,30.3252113 L170.560914,29.5340515 L171.246452,29.5340515 L171.246452,34.3334283 L170.560914,34.3334283 L170.560914,33.5423558 C170.191979,34.0696794 169.505569,34.4388756 168.7677,34.4388756 C167.448955,34.3861956 166.394482,33.2786068 166.394482,31.9073563 Z M170.613245,31.9073563 C170.613245,30.852622 169.875376,30.0614623 168.873234,30.0614623 C167.818761,30.0614623 167.132351,30.9053021 167.132351,31.9073563 C167.132351,32.9621778 167.871093,33.7532504 168.873234,33.7532504 C169.875376,33.8060176 170.613245,32.9621778 170.613245,31.9073563 Z" id="Shape"></path><path d="M173.039666,32.9623523 L173.039666,30.167084 L172.037524,30.167084 L172.037524,29.534226 L173.039666,29.534226 L173.039666,28.2157427 L173.725204,28.2157427 L173.725204,29.534226 L175.09628,29.534226 L175.09628,30.167084 L173.725204,30.167084 L173.725204,32.909585 C173.725204,33.542443 173.988604,33.7006576 174.516276,33.7006576 C174.727345,33.7006576 174.990745,33.6478903 175.09628,33.5952103 L175.09628,34.1753011 C174.885211,34.2280683 174.674142,34.2808355 174.410742,34.2808355 C173.619669,34.3862828 173.039666,33.9116393 173.039666,32.9623523 Z" id="Path"></path><path d="M175.940556,32.5403888 L175.940556,29.534226 L176.626094,29.534226 L176.626094,32.4349415 C176.626094,33.2787813 177.100563,33.806192 177.786101,33.806192 C178.577173,33.806192 179.21038,33.0677995 179.21038,31.9075308 L179.21038,29.534226 L179.895918,29.534226 L179.895918,34.3335156 L179.21038,34.3335156 L179.21038,33.542443 C178.893777,34.1753011 178.313773,34.43905 177.680566,34.43905 C176.678425,34.3862828 175.940556,33.7006576 175.940556,32.5403888 Z" id="Path"></path><path d="M181.319325,29.5340515 L182.004864,29.5340515 L182.004864,30.3252113 C182.37467,29.692266 182.954674,29.4286043 183.587881,29.4286043 C184.642353,29.4286043 185.380223,30.1669968 185.380223,31.3272655 L185.380223,34.3334283 L184.694685,34.3334283 L184.694685,31.4327128 C184.694685,30.588873 184.220215,30.0614623 183.482346,30.0614623 C182.63807,30.0614623 182.004864,30.7470876 182.004864,31.9601236 L182.004864,34.3334283 L181.319325,34.3334283 L181.319325,29.5340515 Z" id="Path"></path><path d="M186.541102,34.8081591 L187.22664,34.8081591 C187.437709,35.4937843 188.070044,35.8102133 188.914319,35.8102133 C189.863258,35.8102133 190.548796,35.1773553 190.548796,34.0170866 L190.548796,33.4369086 C190.179861,33.9643193 189.547526,34.3335156 188.808785,34.3335156 C187.437709,34.3335156 186.435567,33.2786941 186.435567,31.9074435 C186.435567,30.536193 187.437709,29.4813715 188.808785,29.4813715 C189.547526,29.4813715 190.233064,29.8505678 190.548796,30.3779785 L190.548796,29.586906 L191.235206,29.586906 L191.235206,34.0697666 C191.235206,35.6519988 190.233064,36.4430714 188.914319,36.4430714 C187.595574,36.3903041 186.698967,35.7574461 186.541102,34.8081591 Z M190.548796,31.8546763 C190.548796,30.799942 189.863258,30.0615495 188.808785,30.0615495 C187.754312,30.0615495 187.068774,30.852622 187.068774,31.8546763 C187.068774,32.9094978 187.754312,33.6478903 188.808785,33.6478903 C189.863258,33.7005703 190.548796,32.9094978 190.548796,31.8546763 Z" id="Shape"></path><path d="M124.676963,44.0904837 L124.676963,41.0843209 L125.362501,41.0843209 L125.362501,43.9849492 C125.362501,44.828789 125.83697,45.3561997 126.522508,45.3561997 C127.313581,45.3561997 127.946788,44.6178944 127.946788,43.4576257 L127.946788,41.0843209 L128.632326,41.0843209 L128.632326,45.8836105 L127.946788,45.8836105 L127.946788,45.092538 C127.630184,45.725396 127.050181,45.989145 126.417846,45.989145 C125.415704,45.989145 124.676963,45.2507525 124.676963,44.0904837 Z" id="Path"></path><path d="M130.056605,41.1370009 L130.742143,41.1370009 L130.742143,41.9280734 C131.111078,41.2952154 131.691081,41.0314664 132.324288,41.0314664 C133.378761,41.0314664 134.117502,41.7698589 134.117502,42.9301277 L134.117502,45.9362905 L133.431964,45.9362905 L133.431964,43.035575 C133.431964,42.1917352 132.957495,41.6643244 132.218754,41.6643244 C131.374478,41.6643244 130.742143,42.3499497 130.742143,43.5629857 L130.742143,45.9362905 L130.056605,45.9362905 L130.056605,41.1370009 Z" id="Path"></path><path d="M135.119644,43.5102185 C135.119644,42.138968 136.121785,41.0314664 137.492861,41.0314664 C138.231603,41.0314664 138.917141,41.4006627 139.286075,41.9280734 L139.286075,38.7109289 L139.971613,38.7109289 L139.971613,45.8835233 L139.286075,45.8835233 L139.286075,45.0924507 C138.917141,45.6198615 138.231603,45.9890577 137.492861,45.9890577 C136.121785,45.9890577 135.119644,44.881469 135.119644,43.5102185 Z M139.338406,43.5102185 C139.338406,42.4554842 138.600537,41.6643244 137.598396,41.6643244 C136.543923,41.6643244 135.857513,42.5081642 135.857513,43.5102185 C135.857513,44.56504 136.596254,45.3561125 137.598396,45.3561125 C138.600537,45.3561125 139.338406,44.56504 139.338406,43.5102185 Z" id="Shape"></path><polygon id="Path" points="145.245721 39.8186049 143.030369 39.8186049 143.030369 39.1329796 148.146611 39.1329796 148.146611 39.8186049 145.931259 39.8186049 145.931259 45.9363777 145.192517 45.9363777"></polygon><path d="M148.252145,41.1370009 L148.937683,41.1370009 L148.937683,42.1390552 C149.148752,41.4534299 149.781087,41.0843209 150.308759,41.0843209 C150.414294,41.0843209 150.519828,41.0843209 150.677694,41.1370009 L150.677694,41.8226262 C150.519828,41.7699461 150.414294,41.7699461 150.255556,41.7699461 C149.675552,41.7699461 148.937683,42.2973569 148.937683,43.5103057 L148.937683,45.9363777 L148.252145,45.9363777 L148.252145,41.1370009 Z" id="Path"></path><path d="M150.994297,43.5103057 C150.994297,42.1390552 151.890904,41.0314664 153.419846,41.0314664 C154.94966,41.0314664 155.793936,42.3499497 155.635198,43.7212002 L151.679835,43.7212002 C151.679835,44.7232545 152.470908,45.4088797 153.367515,45.4088797 C154.000722,45.4088797 154.527522,45.145218 154.844125,44.51236 L155.529664,44.51236 C155.318595,45.3034325 154.580725,46.0417378 153.367515,46.0417378 C151.996439,45.9890577 150.994297,44.9342362 150.994297,43.5103057 Z M151.732167,43.0883422 L154.94966,43.0883422 C154.791794,42.1390552 154.158587,41.6116444 153.367515,41.6116444 C152.681977,41.6643244 151.890904,42.0335207 151.732167,43.0883422 Z" id="Shape"></path><path d="M156.689671,44.0904837 L156.689671,41.0843209 L157.375209,41.0843209 L157.375209,43.9849492 C157.375209,44.828789 157.85055,45.3561997 158.536088,45.3561997 C159.32716,45.3561997 159.959495,44.6178944 159.959495,43.4576257 L159.959495,41.0843209 L160.645905,41.0843209 L160.645905,45.8836105 L159.959495,45.8836105 L159.959495,45.092538 C159.643764,45.725396 159.062888,45.989145 158.430553,45.989145 C157.428412,45.989145 156.689671,45.2507525 156.689671,44.0904837 Z" id="Path"></path><path d="M162.016981,38.7109289 L162.70252,38.7109289 L162.70252,41.9280734 C163.071454,41.2951282 163.651458,41.0314664 164.284665,41.0314664 C165.339137,41.0314664 166.077879,41.7698589 166.077879,42.9301277 L166.077879,45.9362905 L165.392341,45.9362905 L165.392341,43.035575 C165.392341,42.1917352 164.917871,41.6643244 164.17913,41.6643244 C163.335726,41.6643244 162.70252,42.3499497 162.70252,43.5629857 L162.70252,45.9362905 L162.016981,45.9362905 L162.016981,38.7109289 Z" id="Path"></path><path d="M167.132351,43.5103057 C167.132351,42.1390552 168.134493,41.0314664 169.505569,41.0314664 C170.24431,41.0314664 170.929848,41.4006627 171.298783,41.9280734 L171.298783,41.1370009 L171.984321,41.1370009 L171.984321,45.9362905 L171.298783,45.9362905 L171.298783,45.145218 C170.929848,45.6726287 170.24431,46.0417378 169.505569,46.0417378 C168.134493,45.9890577 167.132351,44.881469 167.132351,43.5103057 Z M171.298783,43.5103057 C171.298783,42.4554842 170.560914,41.6643244 169.558772,41.6643244 C168.503427,41.6643244 167.817889,42.5081642 167.817889,43.5103057 C167.817889,44.56504 168.556631,45.3561997 169.558772,45.3561997 C170.613245,45.3561997 171.298783,44.56504 171.298783,43.5103057 Z" id="Shape"></path><path d="M173.356269,41.1370009 L174.041807,41.1370009 L174.041807,41.9280734 C174.410742,41.2952154 174.990745,41.0314664 175.623952,41.0314664 C176.678425,41.0314664 177.417166,41.7698589 177.417166,42.9301277 L177.417166,45.9362905 L176.731628,45.9362905 L176.731628,43.035575 C176.731628,42.1917352 176.256287,41.6643244 175.518418,41.6643244 C174.674142,41.6643244 174.041807,42.3499497 174.041807,43.5629857 L174.041807,45.9362905 L173.356269,45.9362905 L173.356269,41.1370009 Z" id="Path"></path><path d="M178.419308,43.5102185 C178.419308,42.138968 179.421449,41.0314664 180.792525,41.0314664 C181.530394,41.0314664 182.215932,41.4006627 182.585739,41.9280734 L182.585739,38.7109289 L183.271277,38.7109289 L183.271277,45.8835233 L182.585739,45.8835233 L182.585739,45.0924507 C182.215932,45.6198615 181.530394,45.9890577 180.792525,45.9890577 C179.47378,45.9890577 178.419308,44.881469 178.419308,43.5102185 Z M182.63807,43.5102185 C182.63807,42.4554842 181.900201,41.6643244 180.89806,41.6643244 C179.842715,41.6643244 179.157177,42.5081642 179.157177,43.5102185 C179.157177,44.56504 179.895918,45.3561125 180.89806,45.3561125 C181.952532,45.3561125 182.63807,44.56504 182.63807,43.5102185 Z" id="Shape"></path><path d="M189.336457,39.0801251 L189.916461,39.0801251 L192.975217,45.8836105 L192.184144,45.8836105 L191.235206,43.7739675 L187.964509,43.7739675 L187.015571,45.8836105 L186.27683,45.8836105 L189.336457,39.0801251 Z M190.970934,43.0883422 L189.652189,40.1349466 L188.334316,43.0883422 L190.970934,43.0883422 Z" id="Shape"></path><path d="M193.027548,42.508077 C193.027548,40.5039685 194.557362,38.9745034 196.561645,38.9745034 C198.249324,38.9745034 199.409331,40.0293249 199.778266,41.0841465 L198.987193,41.0841465 C198.618259,40.2929867 197.721652,39.6601287 196.561645,39.6601287 C194.979499,39.6601287 193.766289,40.8731647 193.766289,42.508077 C193.766289,44.0903093 194.979499,45.3560253 196.561645,45.3560253 C198.038255,45.3560253 199.092728,44.2485238 199.251466,42.771826 L196.561645,42.771826 L196.561645,42.0862007 L199.989335,42.0862007 C200.148073,44.4595055 198.512724,46.0416505 196.561645,46.0416505 C194.610565,45.9889705 193.027548,44.4595055 193.027548,42.508077 Z" id="Path"></path></g></g></svg>