<svg xmlns="http://www.w3.org/2000/svg" viewBox="0 0 256.1 44.8"><defs><style>      .cls-1 {        fill: #386b6c;        stroke: #000;        stroke-miterlimit: 10;      }      .cls-2 {        fill: #fff;        stroke-width: 0px;      }      .cls-3 {        display: none;      }    </style></defs><g id="Ebene_2" data-name="Ebene 2" class="cls-3"><rect class="cls-1" x="-12.9" y="-17" width="306.3" height="88.5"></rect></g><g id="Ebene_1" data-name="Ebene 1"><path class="cls-2" d="M181.8,32.2c1.3-.7,2.4-1.5,3.3-2.6l3.5,3.4c-.6.7-1.3,1.3-2,1.9-.8.6-1.7,1.2-2.7,1.7-1.1.5-2.2.9-3.3,1.2-1.2.3-2.5.4-3.8.4-4.1,0-8.1-1.6-11-4.5-1.4-1.4-2.5-3.1-3.3-5-1.6-4-1.6-8.6,0-12.6.8-1.9,1.9-3.6,3.3-5,1.4-1.4,3.1-2.5,4.9-3.3,3.1-1.3,6.6-1.5,9.9-.8,1.1.3,2.2.7,3.2,1.1.9.4,1.7.9,2.5,1.5.6.5,1.2,1.1,1.8,1.7l-3.5,3.4c-.9-.9-1.9-1.7-3.1-2.3-1.5-.8-3.1-1.1-4.7-1.1-1.4,0-2.8.3-4.1.9-1.2.6-2.3,1.4-3.2,2.4-.9,1-1.6,2.2-2.1,3.5-.9,2.7-.9,5.7,0,8.4.5,1.3,1.2,2.5,2.1,3.5.9,1,2,1.8,3.2,2.4,1.3.6,2.7.9,4.1.9,1.7.1,3.5-.3,5-1.1Z"></path><path class="cls-2" d="M250.5,28c-.3-.4-.8-.9-1.2-1.2-.6-.4-1.2-.7-1.8-.9-.7-.3-1.4-.6-2.2-.9-1.1-.4-2.2-.9-3.4-1.4-1.1-.5-2.1-1.2-3.1-1.9-.9-.7-1.7-1.6-2.2-2.6-.6-1.1-.9-2.3-.9-3.5,0-2.4,1-4.6,2.7-6.2.9-.8,2-1.5,3.1-2,1.3-.5,2.7-.7,4.1-.7,1.1,0,2.2.1,3.3.4,1,.3,1.9.7,2.8,1.1.8.5,1.5,1,2.2,1.6.6.5,1.2,1.1,1.7,1.7l-3.6,3.6c-.4-.5-.8-.9-1.2-1.3-.4-.4-.9-.8-1.5-1.1-.5-.3-1.1-.6-1.7-.8-.6-.2-1.3-.3-2-.3-1.2,0-2.3.3-3.3,1-.9.6-1.3,1.6-1.3,2.7,0,.7.2,1.3.6,1.8.4.5.9.9,1.5,1.3.7.4,1.4.7,2.1,1l2.4.9c1.1.4,2.2.9,3.2,1.4,1,.5,1.9,1.1,2.7,1.8.8.7,1.4,1.5,1.9,2.5.5,1.1.7,2.2.7,3.4,0,1.3-.3,2.6-.9,3.8-.5,1.1-1.3,2-2.3,2.7-1,.7-2.1,1.3-3.3,1.6-1.3.4-2.6.5-4,.5-1.3,0-2.6-.2-3.9-.5-1.1-.3-2.2-.8-3.2-1.4-.9-.6-1.7-1.3-2.5-2-.7-.7-1.3-1.5-1.8-2.3l3.9-3.3c.3.6.7,1.1,1.2,1.6.5.5,1,1,1.6,1.5.7.4,1.4.8,2.1,1.1.8.3,1.6.4,2.5.4.6,0,1.2,0,1.8-.2.6,0,1.1-.3,1.6-.6.5-.3.9-.7,1.2-1.2.3-.5.5-1.1.5-1.7.3-.4.2-1-.1-1.4Z"></path><path class="cls-2" d="M223.9,7.2v19.5c0,1.6-.3,3.1-.8,4.6-.5,1.4-1.4,2.6-2.4,3.7-1.1,1-2.3,1.8-3.7,2.4-3.2,1.2-6.6,1.2-9.8,0-1.4-.5-2.6-1.4-3.7-2.4-2.2-2.2-3.3-5.2-3.2-8.3V7.2h5.2v18.8c0,1.9.5,3.8,1.6,5.3,2.7,2.7,7.1,2.7,9.8,0,1.1-1.5,1.7-3.4,1.6-5.3V7.2h5.4Z"></path><polygon class="cls-2" points="68.3 6.2 53.7 37.7 59.1 37.7 68.3 17.6 77.4 37.7 82.8 37.7 68.3 6.2"></polygon><polygon class="cls-2" points="138.9 6.2 124.4 37.7 129.7 37.7 138.9 17.6 148.1 37.7 153.4 37.7 138.9 6.2"></polygon><path class="cls-2" d="M114.4,25.3c-.4-.8-.9-1.5-1.5-2.2-.5-.5-1-.9-1.6-1.2-.5-.2-.8-.4-.9-.4.2-.1.4-.3.8-.5.4-.3.8-.7,1.1-1.1.4-.5.7-1.1.9-1.8.3-.9.4-1.8.4-2.7,0-1.3-.3-2.6-.8-3.8-.6-1-1.3-1.9-2.2-2.6-.9-.7-2-1.2-3.1-1.5-1.2-.3-2.4-.5-3.6-.5h-9.9v30.5h11c1.4,0,2.7-.2,4-.7,1.2-.4,2.3-1,3.2-1.8.9-.8,1.7-1.8,2.2-2.9.5-1.2.8-2.4.8-3.7,0-1.1-.3-2.1-.8-3.1ZM108.6,32.4c-1.1.7-2.5,1.1-3.8,1h-5.9V11.5h4.8c1.2,0,2.4.3,3.5.9,1,.8,1.5,2,1.5,3.2.2,1.2-.4,2.5-1.4,3.2-1,.7-2.2,1-3.4.9l1,4.7c1.4,0,2.7.4,3.9,1.1,1,.8,1.6,2,1.4,3.3,0,1.6-.6,3-1.6,3.6Z"></path><path class="cls-2" d="M12.2,11.2c-.7-.7-1.9-.7-2.6,0-.7.7-.7,1.9,0,2.6.7.7,1.9.7,2.6,0,0,0,0,0,0,0h0c.7-.7.7-1.9,0-2.6Z"></path><path class="cls-2" d="M17.1,16.1c-.7-.7-1.9-.7-2.6,0-.7.7-.7,1.9,0,2.6.7.7,1.9.7,2.6,0h0c.7-.6.8-1.7.2-2.4,0,0-.1-.1-.2-.2Z"></path><path class="cls-2" d="M17.4,5.9c-.9-.9-2.3-.9-3.2,0s-.9,2.3,0,3.2c.9.9,2.3.9,3.2,0,.8-.9.8-2.3,0-3.2Z"></path><path class="cls-2" d="M22.4,10.9c-.9-.9-2.3-.9-3.2,0-.9.9-.9,2.3,0,3.2.9.9,2.3.9,3.2,0,.8-.9.8-2.3,0-3.2Z"></path><path class="cls-2" d="M27.3,15.8c-.9-.9-2.3-.9-3.2,0-.9.9-.9,2.3,0,3.2.9.9,2.3.9,3.2,0,.9-.9.9-2.3,0-3.1h0Z"></path><path class="cls-2" d="M33.7,25.4c-1,1-1,2.7,0,3.7,1,1,2.7,1,3.7,0,1-1,1-2.7,0-3.7h0c-1-1-2.7-1-3.7,0Z"></path><path class="cls-2" d="M28.8,30.4c-1,1-1,2.7,0,3.7s2.7,1,3.7,0c1-1,1-2.7,0-3.7h0c-.9-1-2.5-1.1-3.5-.2-.1,0-.2.1-.2.2Z"></path><path class="cls-2" d="M23.8,35.3c-1,1-1,2.7,0,3.7,1,1,2.7,1,3.7,0,1-1,1-2.7,0-3.7h0c-1-1-2.7-1-3.7,0Z"></path><path class="cls-2" d="M18.9,40.3c-1,1-1,2.7,0,3.7,1,1,2.7,1,3.7,0,1-1,1-2.7,0-3.7h0c-.9-1-2.5-1.1-3.5-.2,0,0-.1.1-.2.2Z"></path><path class="cls-2" d="M42.4,20.6c-1-1-2.7-1-3.7,0-1,1-1,2.7,0,3.7,1,1,2.7,1,3.7,0h0c1-1,1-2.7,0-3.7Z"></path><path class="cls-2" d="M37.4,15.7c-1-1-2.7-1-3.7,0-1,1-1,2.7,0,3.7,1,1,2.7,1,3.7,0h0c1-.9,1.1-2.5.2-3.5,0,0-.1-.1-.2-.2Z"></path><path class="cls-2" d="M32.5,10.7c-1-1-2.7-1-3.7,0-1,1-1,2.7,0,3.7,1,1,2.7,1,3.7,0h0c1-1,1-2.7,0-3.7Z"></path><path class="cls-2" d="M27.5,5.8c-1-1-2.7-1-3.7,0-1,1-1,2.7,0,3.7,1,1,2.7,1,3.7,0h0c1-.9,1.1-2.5.2-3.5,0,0-.1-.1-.2-.2Z"></path><path class="cls-2" d="M22.6.8c-1-1-2.7-1-3.7,0-1,1-1,2.7,0,3.7,1,1,2.7,1,3.7,0h0c1-1,1-2.7,0-3.7Z"></path><path class="cls-2" d="M14.2,35.6c-.9.9-.9,2.3,0,3.2.9.9,2.3.9,3.2,0,.9-.9.9-2.3,0-3.2-.9-.8-2.3-.8-3.2,0Z"></path><path class="cls-2" d="M9.6,30.9c-.7.7-.7,1.9,0,2.6.7.7,1.9.7,2.6,0,.7-.7.7-1.9,0-2.6,0,0,0,0,0,0h0c-.7-.7-1.9-.7-2.6,0Z"></path><path class="cls-2" d="M14.5,25.9c-.7.7-.7,1.9,0,2.6.7.7,1.9.7,2.6,0s.7-1.9,0-2.6c0,0,0,0,0,0h0c-.7-.7-1.9-.7-2.6,0Z"></path><path class="cls-2" d="M19.4,21c-.7.7-.7,1.9,0,2.6.7.7,1.9.7,2.6,0,.7-.7.7-1.9,0-2.6h0c-.7-.7-1.9-.7-2.6,0Z"></path><path class="cls-2" d="M9.9,21.2c-.6.6-.6,1.5,0,2.1.6.6,1.5.6,2.1,0,.6-.6.6-1.5,0-2.1-.6-.5-1.5-.5-2.1,0Z"></path><path class="cls-2" d="M4.9,26.1c-.6.6-.6,1.5,0,2.1.6.6,1.5.6,2.1,0h0c.6-.6.6-1.5,0-2.1-.6-.5-1.5-.5-2.1,0Z"></path><path class="cls-2" d="M5.3,16.6c-.6.6-.6,1.5,0,2.1.6.6,1.5.6,2.1,0,.6-.6.6-1.5,0-2.1-.5-.5-1.4-.6-2,0h0Z"></path><path class="cls-2" d="M.4,21.4c-.5.5-.5,1.3,0,1.8.5.5,1.3.5,1.8,0,.5-.5.5-1.3,0-1.8-.5-.5-1.3-.5-1.8,0Z"></path><path class="cls-2" d="M19.1,30.6c-.9.9-.9,2.3,0,3.2.9.9,2.3.9,3.2,0,.9-.9.9-2.3,0-3.2-.9-.8-2.3-.8-3.2,0Z"></path><path class="cls-2" d="M24,25.7c-.9.9-.9,2.3,0,3.2.9.9,2.3.9,3.2,0,.9-.9.9-2.3,0-3.2-.9-.9-2.3-.9-3.1,0h0Z"></path><path class="cls-2" d="M29,20.8c-.9.9-.9,2.3,0,3.2.9.9,2.3.9,3.2,0,.9-.9.9-2.3,0-3.2-.9-.9-2.3-.9-3.2,0,0,0,0,0,0,0h0Z"></path></g></svg>