<svg xmlns="http://www.w3.org/2000/svg" id="a" width="154.32" height="46.26" viewBox="0 0 154.32 46.26"><path d="M61.72,10.45h-2.35v-1.77h6.63v1.77h-2.3v8.27h-2l.02-8.27Z" fill="#fff" stroke-width="0"></path><path d="M76,18.72l-1.75-3c-.3.02-.59.02-.89,0-.48,0-.95-.03-1.42-.12v3.12h-2v-10h3.9c2.64,0,4.11,1.26,4.11,3.37.07,1.32-.67,2.56-1.87,3.12l2.1,3.55-2.18-.04ZM75.92,12.12c0-1-.56-1.69-2.23-1.69h-1.8v3.5c.46.07.92.1,1.38.1,1.83-.03,2.6-.66,2.6-1.91h.05Z" fill="#fff" stroke-width="0"></path><path d="M88.5,17v1.77h-6.62v-10h6.5v1.77h-4.63v2.13h4.41v1.71h-4.41v2.62h4.75Z" fill="#fff" stroke-width="0"></path><path d="M92.61,14.46v-5.78h2v5.82c0,1.38,1.12,2.5,2.5,2.5s2.5-1.12,2.5-2.5v-5.82h2v5.78c0,2.46-1.99,4.46-4.46,4.46-2.46,0-4.46-1.99-4.46-4.46h0s-.08,0-.08,0Z" fill="#fff" stroke-width="0"></path><path d="M115.12,8.68v10h-2v-4.34h-5v4.38h-2v-10h2v3.84h5v-3.88h2Z" fill="#fff" stroke-width="0"></path><path d="M125.34,16.91h-3.88l-.75,1.81h-2.16l4.73-10.16h.24l4.75,10.16h-2.18l-.75-1.81ZM123.4,12.19l-1.29,3.13h2.58l-1.29-3.13Z" fill="#fff" stroke-width="0"></path><path d="M140.74,8.68v10.1h-.25l-6.87-6.19v6.13h-1.94v-10.12h.26l6.85,6.13v-6.05h1.95Z" fill="#fff" stroke-width="0"></path><path d="M154.32,13.67c0,3.09-2.27,5.26-5.7,5.26-1.08.01-2.15-.14-3.17-.47v-9.78h3.34c3.31,0,5.53,2.12,5.53,4.99ZM152.32,13.67c.03-1.77-1.37-3.23-3.14-3.26-.12,0-.24,0-.35.01h-1.46v6.58c.48.08.97.13,1.46.13,1.79.13,3.35-1.22,3.48-3.01,0-.14.01-.28,0-.41v-.04Z" fill="#fff" stroke-width="0"></path><path d="M67.67,30.63c0,2.3-1.64,3.73-4.6,3.73-.58.02-1.17-.04-1.74-.16v3h-1.1v-10h3.32c2.72,0,4.12,1.46,4.12,3.43ZM66.52,30.63c0-1.31-.83-2.44-3-2.44h-2.19v5c.57.11,1.16.15,1.74.14,2.44.04,3.45-1.07,3.45-2.7Z" fill="#fff" stroke-width="0"></path><path d="M70.9,32.22c0-2.87,2.34-5.2,5.21-5.19s5.2,2.34,5.19,5.21c0,2.87-2.34,5.2-5.21,5.19-2.81.06-5.13-2.18-5.19-4.99,0-.07,0-.15,0-.22ZM80.2,32.22c-.05-2.26-1.93-4.06-4.19-4.01s-4.06,1.93-4.01,4.19c.05,2.22,1.86,4,4.09,4.01,2.25.02,4.09-1.78,4.11-4.03,0-.05,0-.11,0-.16Z" fill="#fff" stroke-width="0"></path><path d="M92,37.24l-2.28-3.47c-.45.07-.9.1-1.35.1-.63.01-1.26-.05-1.87-.19v3.56h-1.14v-10h3.64c2.69,0,4,1.21,4,3.16.06,1.46-.9,2.77-2.31,3.15l2.47,3.73-1.16-.04ZM88.37,32.89c2.4,0,3.55-.9,3.55-2.51,0-1.3-.75-2.19-2.94-2.19h-2.53v4.53c.62.12,1.24.18,1.87.17h.05Z" fill="#fff" stroke-width="0"></path><path d="M98.66,28.22h-2.75v-1h6.59v1h-2.75v9h-1.09v-9Z" fill="#fff" stroke-width="0"></path><path d="M110.63,34.48h-4.39l-1.14,2.76h-1.23l4.47-10.17h.2l4.46,10.17h-1.23l-1.14-2.76ZM108.43,29.17l-1.79,4.36h3.59l-1.8-4.36Z" fill="#fff" stroke-width="0"></path><path d="M121.68,36.22v1h-5v-10h1.1v9h3.9Z" fill="#fff" stroke-width="0"></path><rect width="46.26" height="46.26" rx="10.31" ry="10.31" fill="#fff" stroke-width="0"></rect><path d="M22.71,18.91V5.85H7.31c8.2,2.07,14.26,7.04,15.4,13.06Z" fill="#cecece" stroke-width="0"></path><path d="M31.59,23.7h-.07c-.35,0-.7.02-1.05.06-3.95.47-7.11,3.5-7.75,7.43v.28c0,4.93,4,8.93,8.93,8.93h0v-16.7h-.06Z" fill="#cecece" stroke-width="0"></path><path d="M40.34,13.41c0-.08,0-.16,0-.24-.08-.42-.2-.84-.34-1.25,0-.06,0-.13-.07-.2-.31-.84-.74-1.63-1.29-2.34-.02-.04-.04-.07-.07-.1-.28-.36-.58-.69-.91-1h0c-1.06-.98-2.33-1.68-3.72-2.06h0c-.76-.21-1.56-.32-2.35-.32h-8.88v25.36-.06c.64-3.93,3.8-6.96,7.75-7.43.35-.04.7-.06,1.05-.06h.12c2.34-.03,4.57-.97,6.22-2.63h0c.19-.2.38-.4.55-.62,0-.02,0-.05,0-.07.16-.19.32-.4.46-.61l.14-.18c.12-.19.24-.38.35-.58l.11-.22c.09-.19.19-.37.27-.56s.07-.21.11-.31.13-.33.18-.51c.05-.14.08-.28.11-.42,0-.14.08-.28.11-.43.04-.17.06-.35.08-.52,0-.12,0-.24.06-.36v-.91c.02-.46,0-.92-.04-1.37Z" fill="#cecece" stroke-width="0"></path></svg>