<svg xmlns="http://www.w3.org/2000/svg" id="a" width="773.83" height="224.12" viewBox="0 0 773.83 224.12"><g id="b"><g id="c"><path id="d" d="M187.4,87.51l2.49,14.38c.21,1.19,1.34,1.99,2.53,1.79l53.75-9.31c1.19-.21,1.99-1.34,1.79-2.53-.12-.67-.54-1.19-1.08-1.5l-31.66-19.41c-.45-.29-.99-.43-1.55-.33-.35.06-.64.21-.91.41l-24.32,14.26c-.76.45-1.2,1.33-1.04,2.25" fill="#fff" stroke-width="0"></path><path id="e" d="M294.73,149.08c6.1,0,12.99-1.19,18.53-3.4l4.99-25.97h-12.12l-3.33,17.42c-1.82.55-3.88.79-5.94.79-8.55,0-11.64-5.07-11.64-10.92,0-11.33,7.44-22.02,20.51-22.02,4.36,0,9.34,1.03,13.38,2.7l3.56-11.64c-4.83-1.35-10.37-2.06-15.83-2.06-20.59,0-34.69,15.2-34.69,34.77,0,11.95,6.65,20.35,22.57,20.35" fill="#fff" stroke-width="0"></path><path id="f" d="M156.67,57.25l12.79,7.03c1.06.58,2.39.19,2.98-.87l26.26-47.82c.58-1.06.19-2.39-.87-2.98-.59-.33-1.26-.32-1.85-.09l-34.92,12.64c-.5.17-.95.51-1.23,1.01-.17.31-.23.64-.25.96l-4.03,27.91c-.12.87.29,1.77,1.11,2.22" fill="#fff" stroke-width="0"></path><path id="g" d="M344.01,116.85c2.06,0,3.25,1.02,3.25,2.77,0,3.88-4.28,5.47-11.48,5.62,1.19-4.19,3.88-8.39,8.24-8.39h0ZM337.05,149.08c4.58,0,9.24-.74,13.44-2l1.9-9.77c-3.77,1.49-7.85,2.35-11.55,2.35-4.99,0-6.33-1.19-6.33-4.6,0-.55,0-1.43.08-2.06,14.57-.39,24.23-4.91,24.23-14.97,0-4.75-2.77-10.06-13.54-10.06-11.64,0-22.65,10.14-22.65,27.4,0,8.56,3.72,13.7,14.41,13.7" fill="#fff" stroke-width="0"></path><path id="h" d="M50,99.82c.28.45.71.81,1.26.97.34.1.67.09.99.02l28.1-2.35c.88-.08,1.66-.68,1.91-1.57l3.97-14.05c.33-1.17-.35-2.38-1.51-2.71l-52.5-14.83c-1.17-.33-2.38.35-2.71,1.51-.18.65-.03,1.3.33,1.82l20.17,31.18" fill="#fff" stroke-width="0"></path><path id="i" d="M85.58,39.15l19.37,20.49c.61.64,1.56.87,2.42.51l13.45-5.66c1.12-.47,1.64-1.76,1.17-2.87L100.83,1.34c-.47-1.12-1.75-1.64-2.87-1.17-.62.26-1.03.79-1.22,1.39l-11.79,35.21c-.18.5-.19,1.06.03,1.59.14.32.35.58.6.79" fill="#fff" stroke-width="0"></path><path id="j" d="M553.65,116.85c2.06,0,3.25,1.02,3.25,2.77,0,3.88-4.28,5.47-11.48,5.62,1.19-4.19,3.88-8.39,8.23-8.39ZM546.68,149.08c4.6,0,9.28-.75,13.5-2.02l1.91-9.77c-3.79,1.5-7.89,2.37-11.6,2.37-4.99,0-6.34-1.19-6.34-4.6,0-.55,0-1.43.08-2.06,14.57-.39,24.23-4.91,24.23-14.97,0-4.75-2.77-10.06-13.54-10.06-11.65,0-22.65,10.14-22.65,27.4,0,8.56,3.72,13.7,14.41,13.7" fill="#fff" stroke-width="0"></path><path id="k" d="M218.33,184.86c-.8.91-2.19.99-3.09.19l-40.81-36.2c-.91-.8-.99-2.19-.19-3.09l9.69-10.92c.62-.7,1.58-.89,2.4-.59l26.32,10.11c.32.09.62.22.88.45.43.38.66.89.71,1.42l4.59,36.85c.09.62-.05,1.27-.5,1.78h0ZM151.45,192.95l-25.94,26.57c-.43.46-1.02.75-1.7.72-1.21-.06-2.14-1.09-2.08-2.3l2.83-54.48c.06-1.21,1.09-2.14,2.3-2.08l14.58.76c.93.05,1.69.68,1.96,1.52l8.52,26.88c.13.3.21.62.2.97-.03.57-.29,1.07-.67,1.44ZM93.55,145.98l-15.69,23.43c-.15.29-.35.56-.64.76-.46.33-1.01.44-1.54.38l-36.95-3.69c-.63-.05-1.23-.33-1.62-.88-.71-.98-.48-2.35.5-3.06l44.34-31.78c.98-.71,2.35-.48,3.06.51l8.5,11.86c.54.76.52,1.74.04,2.48ZM247.33,108.78H24.99c-2.6,0-4.7,2.04-4.7,4.55,0,0-20.29,104.64-20.29,105.05,0,2.51,2.1,4.55,4.7,4.55h222.17c2.6,0,4.7-2.04,4.7-4.55,0,0,20.46-104.27,20.46-105.05,0-2.51-2.1-4.55-4.7-4.55" fill="#fff" stroke-width="0"></path><path id="l" d="M443.69,116.85c2.06,0,3.25,1.02,3.25,2.77,0,3.88-4.28,5.47-11.48,5.62,1.19-4.19,3.88-8.39,8.24-8.39ZM436.72,149.08c4.58,0,9.25-.74,13.46-2.01l1.91-9.77c-3.78,1.49-7.86,2.35-11.56,2.35-4.99,0-6.33-1.19-6.33-4.6,0-.55,0-1.43.08-2.06,14.57-.39,24.23-4.91,24.23-14.97,0-4.75-2.77-10.06-13.54-10.06-11.64,0-22.65,10.14-22.65,27.4,0,8.56,3.72,13.7,14.41,13.7" fill="#fff" stroke-width="0"></path><path id="m" d="M473.72,139.89c2.69-14.79,9.33-22,14.24-20.27l2.27-11.66c-6.1-.7-10.08,3.63-13.98,11.03h-.16c1.5-4.28,2.37-7.36,2.93-10.14h-11.4c-.71,4.75-2.38,13.94-3.32,18.77l-3.96,20.59h11.88l1.51-8.32" fill="#fff" stroke-width="0"></path><path id="n" d="M502.24,136.89c1.43-7.45,7.76-18.53,12.19-18.53,1.59,0,2.3,1.35,2.3,4.35,0,7.29-3.87,16.87-11.24,16.87-1.51,0-2.61-.24-3.64-.47l.4-2.22ZM503.35,149.08c17.34,0,25.65-13.54,25.65-28.67,0-8.47-3.33-12.51-9.58-12.51s-11.48,4.35-15.36,11.24h-.16c2.22-5.54,3.48-9.5,4.27-13.54l2.93-15.2h-11.87l-10.85,57.01c4.67,1.11,9.5,1.66,14.97,1.66" fill="#fff" stroke-width="0"></path><path id="o" d="M590.81,148.21l19.91-37.17-12.03-2.35-11.36,23.76h-.16c-.15-3.33-.39-6.97-.95-10.45l-1.98-13.15h-12.51l6.65,39.36h12.43" fill="#fff" stroke-width="0"></path><path id="p" d="M379.35,148.21c2.85-5.7,6.73-14.09,10.77-22.88h.08c0,3.64.16,6.65.48,9.42l1.51,13.46h13.3l18.37-37.44-11.82-2.31c-2.97,6.47-6.94,15.67-10.5,24.07h-.08c-.16-3.96-.32-8.31-.87-12.82l-1.27-10.85h-11.09c-3.64,7.52-7.84,16.79-10.77,23.6h-.08c-.08-4.59-.39-8.71-.71-12.67l-.87-10.93h-12.35l4.12,39.36h11.8" fill="#fff" stroke-width="0"></path><path id="q" d="M621.31,125.24c1.19-4.19,3.88-8.39,8.24-8.39,2.06,0,3.24,1.02,3.24,2.77,0,3.88-4.27,5.47-11.48,5.62ZM630.82,107.98c-11.64,0-22.64,10.14-22.64,27.4,0,8.56,3.72,13.7,14.41,13.7,4.6,0,9.28-.75,13.5-2.02l1.91-9.77c-3.79,1.5-7.89,2.37-11.61,2.37-4.98,0-6.33-1.19-6.33-4.6,0-.55,0-1.43.08-2.06,14.57-.39,24.23-4.91,24.23-14.97,0-4.75-2.77-10.06-13.54-10.06" fill="#fff" stroke-width="0"></path><path id="r" d="M662.12,118.99h-.16c1.5-4.28,2.37-7.36,2.93-10.14h-11.4c-.72,4.75-2.38,13.94-3.33,18.77l-3.96,20.59h11.88l1.51-8.32c2.69-14.8,9.34-22.01,14.24-20.27l2.27-11.66c-6.1-.71-10.08,3.62-13.98,11.03" fill="#fff" stroke-width="0"></path><path id="s" d="M476.94,200.21c1.19-4.19,3.88-8.39,8.24-8.39,2.06,0,3.25,1.03,3.25,2.77,0,3.88-4.28,5.47-11.48,5.62h0ZM486.45,182.95c-11.64,0-22.65,10.13-22.65,27.4,0,8.56,3.72,13.7,14.41,13.7,4.59,0,9.27-.75,13.49-2.02l1.91-9.77c-3.79,1.5-7.88,2.36-11.59,2.36-4.99,0-6.33-1.19-6.33-4.6,0-.55,0-1.42.08-2.06,14.57-.39,24.23-4.91,24.23-14.97,0-4.75-2.77-10.06-13.54-10.06" fill="#fff" stroke-width="0"></path><path id="t" d="M557.84,200.21c1.19-4.19,3.88-8.39,8.23-8.39,2.06,0,3.25,1.03,3.25,2.77,0,3.88-4.28,5.47-11.48,5.62ZM567.34,182.95c-11.65,0-22.65,10.13-22.65,27.4,0,8.56,3.72,13.7,14.41,13.7,4.63,0,9.35-.76,13.59-2.04l1.86-9.53v-.23c-3.8,1.51-7.92,2.38-11.64,2.38-4.99,0-6.34-1.19-6.34-4.6,0-.55,0-1.42.08-2.06,14.57-.39,24.23-4.91,24.23-14.97,0-4.75-2.77-10.06-13.54-10.06" fill="#fff" stroke-width="0"></path><path id="u" d="M512.83,165.37l-11.01,57.8h11.88l11.01-57.8h-11.88" fill="#fff" stroke-width="0"></path><path id="v" d="M533.83,165.37l-11.01,57.8h11.88l11.01-57.8h-11.88" fill="#fff" stroke-width="0"></path><path id="w" d="M614.16,182.87c-6.97,0-11.96,4.91-15.52,11.01h-.16c1.82-4.67,2.61-7.84,3.01-10.06h-11.48c-.72,4.75-2.38,13.94-3.33,18.77l-3.96,20.59h11.88l1.98-10.77c1.59-8.71,8.16-19.09,12.2-19.09,1.82,0,2.45,1.5,1.66,5.46l-4.67,24.39h11.8l5.22-27.4c1.43-7.36-.79-12.91-8.63-12.91" fill="#fff" stroke-width="0"></path><path id="x" d="M322.42,169.72l-10.77,25.65c-1.43,3.49-2.77,7.13-4.12,11.25h-.08c.32-4.04.32-8,.08-11.08l-1.98-25.82h-12.43l-11.88,26.29c-1.59,3.64-2.77,7.28-4.04,11.01h-.08c.32-3.88.55-7.76.4-11.24l-1.19-26.05h-12.35l2.77,53.45h13.86l11.16-25.58c1.66-3.8,3.01-7.68,4.2-11.8h.08c-.4,4.44-.55,8.56-.4,12.2l1.42,25.18h14.73l23.2-53.45h-12.59" fill="#fff" stroke-width="0"></path><path id="y" d="M687.31,125.24c1.19-4.19,3.88-8.39,8.24-8.39,2.06,0,3.24,1.02,3.24,2.77,0,3.88-4.27,5.47-11.48,5.62ZM696.81,107.98c-11.64,0-22.64,10.14-22.64,27.4,0,8.56,3.72,13.7,14.41,13.7,4.59,0,9.27-.74,13.48-2.01l1.9-9.77c-3.79,1.49-7.88,2.36-11.59,2.36-4.98,0-6.33-1.19-6.33-4.6,0-.55,0-1.43.08-2.06,14.57-.39,24.23-4.91,24.23-14.97,0-4.75-2.77-10.06-13.54-10.06" fill="#fff" stroke-width="0"></path><path id="z" d="M728.19,90.48c-4.04,0-7.76,3.17-7.76,7.52,0,3.56,2.77,6.73,6.81,6.73s7.84-3.25,7.84-7.69c0-3.4-2.85-6.57-6.89-6.57" fill="#fff" stroke-width="0"></path><path id="aa" d="M712.2,148.21h11.88l7.52-39.36h-11.88l-7.52,39.36" fill="#fff" stroke-width="0"></path><path id="ab" d="M764.79,107.9c-6.97,0-11.95,4.91-15.52,11.01h-.15c1.82-4.67,2.61-7.84,3-10.06h-11.48c-.71,4.75-2.37,13.94-3.32,18.77l-3.96,20.59h11.88l1.98-10.77c1.58-8.71,8.16-19.09,12.19-19.09,1.82,0,2.46,1.5,1.66,5.46l-4.67,24.39h11.8l5.23-27.4c1.42-7.36-.79-12.91-8.63-12.91" fill="#fff" stroke-width="0"></path><path id="ac" d="M436.54,196.25c0,9.19,8.95,10.45,8.95,15.05,0,2.06-1.9,3.24-5.23,3.24-1.76,0-3.87-.44-5.59-1.05l-1.94,9.97c1.92.36,4.17.58,6.66.58,12.91,0,18.69-7.21,18.69-13.86,0-8.47-9.19-11.25-9.19-15.13,0-1.98,1.59-3.24,4.99-3.24,1.57,0,3.22.23,4.79.7l1.79-9.16c-1.87-.27-3.99-.41-6.18-.41-11.96,0-17.74,5.78-17.74,13.3" fill="#fff" stroke-width="0"></path><path id="ad" d="M381.16,165.37l-11.01,57.8h11.88l11.01-57.8h-11.88" fill="#fff" stroke-width="0"></path><path id="ae" d="M354.45,195.06c-1.42,7.52-7.76,18.61-12.19,18.61-1.58,0-2.3-1.35-2.3-4.35,0-7.29,3.88-16.87,11.25-16.87,1.5,0,2.61.24,3.64.48l-.4,2.13ZM327.68,211.61c0,8.47,3.32,12.51,9.58,12.51,6.73,0,11.88-5.46,15.28-11.16h.16c-1.5,4.2-2.45,7.36-3.17,10.21h11.64c1.74-10.45,4.19-23.68,7.21-38.88-4.91-.95-10.14-1.35-15.05-1.35-17.34,0-25.66,13.54-25.66,28.67" fill="#fff" stroke-width="0"></path><path id="af" d="M402.15,165.37l-11.01,57.8h11.88l11.01-57.8h-11.88" fill="#fff" stroke-width="0"></path><path id="ag" d="M412.14,223.17h11.88l7.52-39.36h-11.88l-7.52,39.36" fill="#fff" stroke-width="0"></path><path id="ah" d="M428.14,165.45c-4.04,0-7.76,3.17-7.76,7.53,0,3.56,2.77,6.73,6.81,6.73s7.84-3.25,7.84-7.69c0-3.4-2.85-6.57-6.89-6.57" fill="#fff" stroke-width="0"></path></g></g></svg>