<svg xmlns="http://www.w3.org/2000/svg" width="16.562" height="16.558" viewBox="0 0 16.562 16.558">
  <path id="Pfad_582" data-name="Pfad 582" d="M8.281,4.841a4.245,4.245,0,1,0,4.245,4.245A4.239,4.239,0,0,0,8.281,4.841Zm0,7.005a2.76,2.76,0,1,1,2.76-2.76A2.765,2.765,0,0,1,8.281,11.846ZM13.69,4.668a.99.99,0,1,0-.99.99A.99.99,0,0,0,13.69,4.668Zm2.812,1A4.9,4.9,0,0,0,15.164,2.2,4.933,4.933,0,0,0,11.694.866C10.327.788,6.23.788,4.863.866A4.925,4.925,0,0,0,1.394,2.2,4.916,4.916,0,0,0,.056,5.669c-.078,1.367-.078,5.465,0,6.832A4.9,4.9,0,0,0,1.394,15.97a4.939,4.939,0,0,0,3.469,1.338c1.367.078,5.465.078,6.832,0a4.9,4.9,0,0,0,3.469-1.338A4.933,4.933,0,0,0,16.5,12.5C16.579,11.133,16.579,7.04,16.5,5.672Zm-1.766,8.295a2.794,2.794,0,0,1-1.574,1.574c-1.09.432-3.676.333-4.881.333s-3.794.1-4.881-.333a2.794,2.794,0,0,1-1.574-1.574c-.432-1.09-.333-3.676-.333-4.881s-.1-3.795.333-4.881A2.794,2.794,0,0,1,3.4,2.632C4.49,2.2,7.076,2.3,8.281,2.3s3.795-.1,4.881.333a2.794,2.794,0,0,1,1.574,1.574c.432,1.09.333,3.676.333,4.881S15.168,12.881,14.735,13.967Z" transform="translate(0.002 -0.808)" fill="#f2f2f2"/>
</svg>
