<svg xmlns="http://www.w3.org/2000/svg" width="865.115" height="586.975" viewBox="0 0 865.115 586.975">
  <path id="Pfad_589" data-name="Pfad 589" d="M1383.761,335.64c-12.656-20.429-31.491-32.886-54.212-36.274-67.266-9.667-152.969,64.974-162.037,73.046-14.151,10.762-29.1,23.119-44.844,36.672-72.249,62.881-156.157,150.278-204.191,201.6a732.224,732.224,0,0,1-162.535,20.13,381.671,381.671,0,0,1-119.883-16.842,191.468,191.468,0,0,1-26.907-11.161,57.359,57.359,0,0,1-5.979-3.388,4.8,4.8,0,0,1-1.2-.8h-.1l-.2-.1-.3-.3a82.114,82.114,0,0,1-38.666-73.345c-.3-40.36,21.425-89.29,44.146-126.959,11.261-18.835,22.622-35.078,31.092-46.439,4.185-5.68,7.773-10.165,10.165-13.254,1.893-2.292,6.577-7.474,8.57-9.766H612.042a579.908,579.908,0,0,0-34.879,51.72c-23.917,40.46-48.83,92.778-49.03,144.7a117.616,117.616,0,0,0,53.514,101.846c3.189,2.292,56.3,38.765,174,38.765h.3a711.859,711.859,0,0,0,122.574-11.46C773.3,766.251,667.172,838.739,572,885.479c.256-.033,75.374-.622,75.358-1.165,82.189-47.671,170.275-114.523,257.471-207.758.3-.2,12.158-13.453,31.79-34.58a1309.817,1309.817,0,0,0,179.875-58.2c66.17-21.824,242.557-108.722,272.055-190.339C1396.117,372.711,1394.423,352.78,1383.761,335.64Zm-29.8,45.242c-22.023,60.59-153.666,137.124-227.409,161.539a1436.48,1436.48,0,0,1-144.7,51.72c31.989-33.384,70.555-72.648,109.022-109.121,21.525-20.529,43.05-40.16,63.38-57.4,9.267-7.872,22.721-16.642,39.463-29.7,23.02-18.037,87.895-68.263,130.546-61.985,12.158,1.694,21.127,7.873,28.2,19.233C1355.459,359.856,1358.748,367.629,1353.964,380.882Z" transform="translate(-528.091 -298.504)" fill="#fff" opacity="0.4"/>
</svg>
