<?xml version="1.0" encoding="UTF-8"?> <!-- Generator: Adobe Illustrator 25.4.1, SVG Export Plug-In . SVG Version: 6.00 Build 0) --> <svg xmlns="http://www.w3.org/2000/svg" xmlns:xlink="http://www.w3.org/1999/xlink" version="1.1" id="treu-suisse-logo-verband-de" x="0px" y="0px" viewBox="0 0 27.3 35.7" style="enable-background:new 0 0 27.3 35.7;" xml:space="preserve"> <style type="text/css"> .st0{fill:#373737;} </style> <g id="g3344" transform="matrix(1.25,0,0,-1.25,0,175.4)"> <g id="g3346" transform="scale(0.1,0.1)"> <path id="path3348" class="st0" d="M0,1298.9h104.3v104.3H0V1298.9z"></path> <path id="path3350" class="st0" d="M114.1,1298.9h104.3v104.3H114.1V1298.9z"></path> <path id="path3352" class="st0" d="M0,1184.8h104.3v104.3H0V1184.8z"></path> <path id="path3354" class="st0" d="M114.1,1184.8h104.3v104.3H114.1C114.1,1289.1,114.1,1184.8,114.1,1184.8z"></path> <path id="path3356" class="st0" d="M14.2,1117.3h15l14.2,38.3H30.2l-8-27.3h-0.1l-7.9,27.3H0L14.2,1117.3z M84.9,1132.6v2.4 c0,11.4-5.1,21.5-19.3,21.5c-11.9,0-20.5-7.4-20.5-20c0-12.6,9.6-20.1,22.2-20.1c4.9,0,9.8,0.7,14,2.4v9.3 c-4-2.1-8.1-2.9-11.7-2.9c-6.5,0-10.5,2.1-11.2,7.4C58.5,1132.6,84.9,1132.6,84.9,1132.6z M58.3,1140.1c0.3,4.4,2.6,8,7.3,8 c5.3,0,7.3-3.6,7.3-8C73,1140.1,58.3,1140.1,58.3,1140.1z M92.2,1117.3h12.2v6.8h0.1c1.7-4.3,7-7.7,13.1-7.7 c11.4,0,17.5,9.4,17.5,20.7c0,9.3-5.8,19.3-16.4,19.3c-5.3,0-9.8-1.5-13.1-5.8h-0.1v21.8H92.2 C92.2,1172.5,92.2,1117.3,92.2,1117.3z M121.5,1136.9c0-6.1-3-10.3-8-10.3c-4.4,0-8.1,4.2-8.1,9.8c0,5.7,3.2,10,8.1,10 C118.6,1146.4,121.5,1142,121.5,1136.9 M137.4,1117.3h8.2v8.2h-8.2V1117.3z M175.6,1154.2c-2,0.8-5.6,1.5-8.4,1.5 c-11.4,0-19.1-8.2-19.1-19.6c0-10.7,7.8-19.6,19.1-19.6c2.5,0,5.8,0.2,8.7,1.5l-0.5,6.2c-2.1-1.4-5.1-2.1-7.4-2.1 c-8.9,0-12.5,7.3-12.5,14c0,7.1,4.3,14,12,14c2.2,0,4.8-0.5,7.5-1.6C175,1148.5,175.6,1154.2,175.6,1154.2z M185.1,1117.3h6.9 v17.3c0,9.1,3.5,15.4,11.4,15.4c6-0.4,7.9-4.6,7.9-13.4v-19.4h6.9v22.3c0,10.1-4.3,16.1-14,16.1c-5.2,0-9.5-2.3-12-6.2H192v23 h-6.9V1117.3"></path> </g> </g> </svg> 