<?xml version="1.0" encoding="UTF-8"?> <svg xmlns="http://www.w3.org/2000/svg" id="treu-suisse-logo-verband-de" width="101.859" height="20.792" viewBox="0 0 101.859 20.792"><path id="Pfad_553" data-name="Pfad 553" d="M9.6,35.426H8.776V28.813H7v-.76h4.4v.76H9.6Zm4.441,0h-.824V28.053h1.068c1.4,0,2.7.371,2.7,2.032a1.925,1.925,0,0,1-1.846,2.035l2.345,3.306H16.471l-2.229-3.236h-.2Zm0-3.954H14.3c.931,0,1.868-.176,1.868-1.32,0-1.217-.888-1.332-1.877-1.332h-.243Zm5.457-3.419h3.823v.76h-3v2.193H23.23v.76H20.316v2.9h3v.763H19.495Zm6.99,4.389a2.737,2.737,0,0,0,.322,1.642,1.907,1.907,0,0,0,1.484.7,1.956,1.956,0,0,0,1.448-.657,2.507,2.507,0,0,0,.377-1.688V28.053h.821v4.6a2.588,2.588,0,0,1-.645,2.044,2.713,2.713,0,0,1-2,.852,2.759,2.759,0,0,1-1.9-.766,2.59,2.59,0,0,1-.724-2.129v-4.6h.821ZM38,31.043v-2.99h.821v7.373H38V31.806H34.222v3.619H33.4V28.053h.821v2.99Zm4.429,2.29-.888,2.093h-.912l3.4-7.726,3.315,7.726h-.912l-.87-2.093Zm1.594-3.717L42.757,32.57h2.494Zm5.165-1.877,5.749,6.022V28.053h.821v7.7L50,29.744v5.682h-.821Zm9.073.313h1.39a4.022,4.022,0,0,1,2.874.888,3.783,3.783,0,0,1,.015,5.545,3.926,3.926,0,0,1-2.914.931H58.25Zm1.42,6.609A3.1,3.1,0,0,0,62,33.9a3.014,3.014,0,0,0-.04-4.371,3.117,3.117,0,0,0-2.287-.715h-.608v5.849Zm18.386-5.174a1.35,1.35,0,0,0-1.271-.785,1.171,1.171,0,0,0-1.217,1.144c0,.636.657.912,1.156,1.153l.487.216c.958.42,1.77.912,1.77,2.071a2.327,2.327,0,0,1-4.614.374l.8-.225a1.521,1.521,0,0,0,1.478,1.35,1.484,1.484,0,0,0,1.521-1.439c0-.861-.675-1.153-1.36-1.466l-.465-.192c-.861-.392-1.6-.833-1.6-1.889a1.934,1.934,0,0,1,2.062-1.877,2.111,2.111,0,0,1,1.907,1.144Zm3.9,2.953a2.715,2.715,0,0,0,.322,1.642,1.9,1.9,0,0,0,1.487.7,1.959,1.959,0,0,0,1.448-.657,2.544,2.544,0,0,0,.359-1.691V28.053H86.4v4.6a2.589,2.589,0,0,1-.645,2.044,2.71,2.71,0,0,1-1.983.843,2.753,2.753,0,0,1-1.907-.757,2.59,2.59,0,0,1-.724-2.129v-4.6h.821Zm7.7,2.984h-.821V28.053h.821Zm5.819-5.937a1.35,1.35,0,0,0-1.271-.785A1.168,1.168,0,0,0,93,29.847c0,.636.654.912,1.153,1.153l.49.216c.958.42,1.77.912,1.77,2.071a2.327,2.327,0,0,1-4.617.374l.8-.225a1.521,1.521,0,0,0,1.475,1.369,1.484,1.484,0,0,0,1.521-1.439c0-.861-.675-1.153-1.36-1.466l-.45-.195c-.861-.392-1.6-.833-1.6-1.889a1.934,1.934,0,0,1,2.062-1.877,2.129,2.129,0,0,1,1.907,1.144Zm6.445,0a1.35,1.35,0,0,0-1.271-.785,1.171,1.171,0,0,0-1.217,1.144c0,.636.657.912,1.156,1.153l.487.216c.961.42,1.77.912,1.77,2.071a2.327,2.327,0,0,1-4.611.359l.8-.225a1.521,1.521,0,0,0,1.478,1.369,1.484,1.484,0,0,0,1.521-1.439c0-.861-.672-1.153-1.36-1.466l-.447-.195c-.861-.392-1.606-.833-1.606-1.889a1.937,1.937,0,0,1,2.065-1.877,2.129,2.129,0,0,1,1.907,1.144Zm3.1-1.436h3.826v.76h-3.008v2.193h2.914v.76h-2.914v2.9h3v.763h-3.82Z" transform="translate(-7 -21.191)" fill="#373737"></path><path id="Pfad_554" data-name="Pfad 554" d="M211.2,27.092h-.733V6.3h.733Z" transform="translate(-148.58 -6.3)" fill="#373737"></path></svg> 