<?xml version="1.0" encoding="UTF-8"?> <svg xmlns="http://www.w3.org/2000/svg" id="Gruppe_316" data-name="Gruppe 316" width="101.859" height="25.865" viewBox="0 0 101.859 25.865"><path id="Pfad_530" data-name="Pfad 530" d="M-851.855,297.992c0,.827-.016,1.655.007,2.482.011.4-.127.526-.527.537a62.958,62.958,0,0,1-19.764-2.161,15.706,15.706,0,0,1-5.1-2.394,5.636,5.636,0,0,1-.436-.362c-1.782-1.656-1.69-3.394.263-4.869a17.785,17.785,0,0,1,6.047-2.7,50.644,50.644,0,0,1,10.524-1.743c1.206-.079,1.183-.073,1.211,1.135.012.519-.107.709-.675.779a30.282,30.282,0,0,0-7.7,1.776,8.643,8.643,0,0,0-3.023,1.8,2.012,2.012,0,0,0,.194,3.335,12.671,12.671,0,0,0,4.812,2.154,42.775,42.775,0,0,0,7.963,1.216c.431.036.526-.168.522-.541-.011-.993.018-1.986-.013-2.978-.015-.476.16-.6.614-.6q2.27.034,4.54,0c.448-.007.568.158.555.579C-851.873,296.29-851.855,297.141-851.855,297.992Z" transform="translate(878.963 -286.517)" fill="#373737"></path><path id="Pfad_531" data-name="Pfad 531" d="M-724.054,285.309a57.746,57.746,0,0,1,16.35,2.365,15.682,15.682,0,0,1,4.633,2.235,5.3,5.3,0,0,1,1.156,1.141,2.423,2.423,0,0,1-.041,3.134,6.9,6.9,0,0,1-2.326,1.823,29.753,29.753,0,0,1-8.6,2.729,60.269,60.269,0,0,1-7.169.892c-.519.035-.633-.126-.629-.614.013-1.4,0-1.376,1.375-1.564a28.493,28.493,0,0,0,7.8-1.961,6.884,6.884,0,0,0,2.4-1.594,1.885,1.885,0,0,0,.012-2.787,7.628,7.628,0,0,0-2.973-1.868,30.913,30.913,0,0,0-8.269-1.838c-.634-.069-1.273-.09-1.907-.161-.373-.042-.5.078-.487.458.022,1.063-.009,2.127.016,3.191.01.429-.063.633-.569.622-1.536-.034-3.074-.03-4.611,0-.464.009-.546-.169-.541-.579.019-1.678.028-3.357,0-5.034-.009-.5.19-.6.621-.593C-726.56,285.319-725.307,285.309-724.054,285.309Z" transform="translate(749.816 -285.273)" fill="#373737"></path><path id="Pfad_532" data-name="Pfad 532" d="M-331.172,295.575c0,.9,0,1.8,0,2.7,0,.255.044.505-.339.581-4.594.908-9.182,1.274-13.738-.19a10.245,10.245,0,0,1-4.031-2.3,5.172,5.172,0,0,1,.062-8.021,12.012,12.012,0,0,1,5.828-2.739,20.883,20.883,0,0,1,10.514.317c.76.23.711.209.241.868a1.73,1.73,0,0,1-2.159.762,13.342,13.342,0,0,0-7.824.229,6.55,6.55,0,0,0-2.263,1.289,4.246,4.246,0,0,0-.07,6.44,8.208,8.208,0,0,0,4.742,2.027,14.134,14.134,0,0,0,4.1-.137c.468-.078.672-.25.652-.777-.047-1.228,0-2.459-.024-3.688-.01-.468.137-.612.606-.6,1.04.034,2.082.035,3.122,0,.486-.017.607.159.591.611C-331.193,293.825-331.172,294.7-331.172,295.575Z" transform="translate(426.104 -285.085)" fill="#373737"></path><path id="Pfad_533" data-name="Pfad 533" d="M-483.622,295.629q0,1.347,0,2.695c0,.26.031.484-.352.559-4.546.9-9.084,1.257-13.6-.164a10.325,10.325,0,0,1-4.156-2.351,5.182,5.182,0,0,1,.2-8.113,12.966,12.966,0,0,1,6.491-2.785,21.039,21.039,0,0,1,9.751.469c.57.17.707.259.275.826a1.851,1.851,0,0,1-2.285.8,13.335,13.335,0,0,0-7.351.1,7.106,7.106,0,0,0-2.56,1.329,4.256,4.256,0,0,0-.187,6.533,8.18,8.18,0,0,0,4.739,2.032,13.824,13.824,0,0,0,4.168-.149c.431-.078.626-.233.609-.727-.043-1.251,0-2.505-.024-3.758-.009-.428.1-.576.551-.562q1.595.049,3.192,0c.456-.014.558.15.545.57C-483.642,293.832-483.622,294.73-483.622,295.629Z" transform="translate(556.893 -285.109)" fill="#373737"></path><path id="Pfad_534" data-name="Pfad 534" d="M-188.071,339.4c0,.922-.015,1.844.007,2.765.009.372-.118.5-.486.49-1.111-.017-2.223-.019-3.333,0-.391.007-.473-.153-.47-.5q.019-2.729,0-5.459c0-.366.112-.5.486-.488q1.666.03,3.333,0c.39-.008.477.151.47.5C-188.083,337.6-188.071,338.5-188.071,339.4Z" transform="translate(289.848 -328.945)" fill="#373737"></path><path id="Pfad_535" data-name="Pfad 535" d="M-424.1,426.772c.561-1.6,1.134-3.123,1.619-4.674.178-.57.538-.459.926-.495.5-.046.442.343.484.608.284,1.771.551,3.545.814,5.32.028.188.262.514-.188.5-.278-.006-.668.2-.738-.366-.152-1.241-.363-2.475-.55-3.712-.046-.3-.095-.6-.165-1.052-.545,1.6-1.048,3.068-1.543,4.537-.114.338-.178.631-.682.629-.481,0-.589-.248-.708-.6-.5-1.471-1.007-2.938-1.561-4.549-.206,1.621-.428,3.1-.565,4.592-.048.518-.279.555-.676.534-.572-.03-.245-.4-.217-.608q.355-2.6.759-5.185c.041-.259-.052-.664.448-.65.419.012.788-.068.969.53C-425.207,423.683-424.642,425.2-424.1,426.772Z" transform="translate(492.011 -402.217)" fill="#373737"></path><path id="Pfad_536" data-name="Pfad 536" d="M-325.652,423.136c-.5,1.473-1.009,2.941-1.5,4.414-.113.338-.229.55-.667.543s-.557-.191-.676-.544c-.5-1.49-1.024-2.972-1.584-4.585-.211,1.642-.433,3.146-.581,4.656-.051.522-.339.454-.664.452-.51,0-.25-.368-.224-.554.255-1.8.535-3.592.8-5.388.038-.255.021-.544.419-.5.344.042.739-.149.915.4.509,1.592,1.071,3.167,1.621,4.776.545-1.56,1.123-3.094,1.6-4.657.185-.6.56-.51.975-.521.486-.013.412.368.456.645q.421,2.619.816,5.243c.031.21.235.554-.251.549-.318,0-.641.1-.7-.432-.156-1.335-.375-2.662-.571-3.992C-325.486,423.467-325.446,423.26-325.652,423.136Z" transform="translate(409.355 -402.243)" fill="#373737"></path><path id="Pfad_537" data-name="Pfad 537" d="M-524.406,422.8c0,1.6-.007,3.086,0,4.569,0,.348-.01.568-.474.561s-.409-.258-.408-.547c0-1.7-.01-3.405.014-5.107,0-.26-.237-.707.209-.769.422-.059.907-.2,1.242.36.845,1.42,1.752,2.8,2.634,4.2.072.114.138.232.306.514v-3.094c0-.5.009-.993,0-1.49-.008-.31,0-.535.429-.535.415,0,.449.191.447.519-.01,1.75,0,3.5-.013,5.249,0,.224.168.613-.182.649-.4.042-.88.231-1.2-.3C-522.365,426.016-523.357,424.467-524.406,422.8Z" transform="translate(575.549 -402.085)" fill="#373737"></path><path id="Pfad_538" data-name="Pfad 538" d="M-652.042,427.894c-.4.044-.879.234-1.2-.294-.848-1.39-1.728-2.76-2.6-4.136-.1-.158-.187-.373-.335-.439-.17-.074-.067.131-.088.21q-.011,2.343-.023,4.682c-.667.139-.886-.089-.86-.8.06-1.629.009-3.26.03-4.89,0-.241-.207-.662.206-.71s.911-.207,1.246.352c.859,1.437,1.771,2.844,2.667,4.259.084.132.1.326.273.368v-4.41c0-.3-.077-.606.429-.612s.446.277.446.592c0,1.724.006,3.449-.01,5.172C-651.863,427.467-651.7,427.856-652.042,427.894Z" transform="translate(688.669 -402.098)" fill="#373737"></path><path id="Pfad_539" data-name="Pfad 539" d="M-854.644,427.518c0,.18.041.422-.249.4-.416-.026-.863.17-1.18-.363-.893-1.5-1.841-2.966-2.767-4.445-.034-.126-.055-.26-.264-.322v5.131c-.707.158-.86-.155-.839-.823.05-1.629.007-3.26.026-4.888,0-.241-.195-.656.237-.69.408-.033.876-.21,1.2.319.892,1.472,1.823,2.921,2.74,4.379.061.1.123.194.22.345,0-1.553,0-3.041,0-4.528,0-.3-.014-.564.424-.549.317.01.467.081.466.436C-854.649,423.787-854.642,425.652-854.644,427.518Z" transform="translate(862.668 -402.101)" fill="#373737"></path><path id="Pfad_540" data-name="Pfad 540" d="M-190.574,294.607c-1.663,0-1.663,0-1.663-1.647,0-2.056.27-2.339,2.32-2.319.628.006,1.432-.283,1.837.139.369.385.086,1.172.112,1.781a2.623,2.623,0,0,1-.139,1.186,1.281,1.281,0,0,1-1.19.857C-189.722,294.618-190.148,294.607-190.574,294.607Z" transform="translate(289.748 -289.775)" fill="#373737"></path><path id="Pfad_541" data-name="Pfad 541" d="M-264.6,424.36c.893-.6,1.174-1.144.957-1.905-.223-.784-.868-.988-1.583-1.079a15.737,15.737,0,0,0-2.054-.014c-.363,0-.422.183-.42.49q.013,2.764,0,5.529c0,.273.038.456.378.446.684-.023,1.376.03,2.054-.04a1.921,1.921,0,0,0,1.782-1.479C-263.312,425.437-263.57,424.97-264.6,424.36Zm-2.172-1.2c0-1.177.288-1.363,1.518-1.039a.933.933,0,0,1,.463,1.593,1.8,1.8,0,0,1-1.786.382C-267.012,423.989-266.657,423.438-266.772,423.163Zm.711,3.973c-1.112.071-.585-.726-.738-1.211.253-.331-.463-1.143.615-1.109,1.188.038,1.822.395,1.814,1.126C-264.376,426.707-264.976,427.066-266.06,427.135Z" transform="translate(354.497 -401.987)" fill="#373737"></path><path id="Pfad_542" data-name="Pfad 542" d="M-601.362,423.912a2.7,2.7,0,0,0-2.662-2.459,19.148,19.148,0,0,0-2.191-.018c-.427-.006-.507.183-.5.557.02.9.006,1.793.006,2.69s0,1.793,0,2.689c0,.216-.092.511.294.513a7.943,7.943,0,0,0,3.148-.264C-601.807,427.03-601.141,425.745-601.362,423.912Zm-.98,1.391c-.213,1.21-1.126,1.866-2.712,1.869-.615.167-.761-.182-.737-.838.046-1.2.036-2.4,0-3.6-.013-.469.145-.583.589-.608C-603.026,422.01-601.964,423.174-602.342,425.3Z" transform="translate(645.378 -402.054)" fill="#373737"></path><path id="Pfad_543" data-name="Pfad 543" d="M-804.077,423.741a2.692,2.692,0,0,0-2.61-2.279,18.885,18.885,0,0,0-2.195-.023c-.425,0-.5.177-.5.554.017,1.512.007,3.026.007,4.538,0,1.369,0,1.369,1.362,1.387a4.765,4.765,0,0,0,2.345-.419A3.277,3.277,0,0,0-804.077,423.741Zm-1.038,1.934a2.76,2.76,0,0,1-3.179,1.478c-.247-.109-.172-.308-.175-.478-.01-.684,0-1.367,0-2.052s0-1.369,0-2.052c0-.231.021-.369.318-.423A2.558,2.558,0,0,1-805.115,425.675Z" transform="translate(819.27 -402.061)" fill="#373737"></path><path id="Pfad_544" data-name="Pfad 544" d="M-188.781,427.627c-.731-.923-1.465-1.846-2.24-2.821.266-.072.473-.121.673-.187a1.738,1.738,0,0,0,1.285-1.814c-.072-.835-.572-1.3-1.549-1.472a10.361,10.361,0,0,0-1.911-.06c-.361,0-.48.148-.477.514.017,1.82.014,3.64,0,5.461,0,.328.028.517.446.521.436.006.507-.177.5-.548-.02-.714-.006-1.431-.006-2.147a11.812,11.812,0,0,1,1.78,2.079,1.2,1.2,0,0,0,1.481.549C-188.792,427.671-188.772,427.639-188.781,427.627Zm-3.283-4.59c.2-.3-.442-1.079.558-1.064s1.5.365,1.481,1.1c-.017.713-.572,1.144-1.5,1.126C-192.138,424.193-192.058,424.363-192.063,423.037Z" transform="translate(290.403 -401.924)" fill="#373737"></path><path id="Pfad_545" data-name="Pfad 545" d="M-723.939,422.793a1.809,1.809,0,0,0-1.626-1.442,9,9,0,0,0-1.833-.058c-.383,0-.532.134-.518.54.028.894.009,1.792.009,2.688,0,.943.016,1.887-.007,2.83-.009.363.145.43.461.426.3,0,.494-.038.478-.415-.024-.541.006-1.085-.01-1.627-.01-.3.094-.419.406-.4a2.972,2.972,0,0,0,1.568-.348A2,2,0,0,0-723.939,422.793Zm-1.542,1.565a2.279,2.279,0,0,1-.875.244c-.422.058-.687-.05-.63-.554a7.383,7.383,0,0,0,0-.774.419.419,0,0,1,0-.141c.145-.365-.349-.953.329-1.116a1.475,1.475,0,0,1,1.724.761A1.258,1.258,0,0,1-725.48,424.358Z" transform="translate(749.372 -401.939)" fill="#373737"></path><path id="Pfad_546" data-name="Pfad 546" d="M-760.824,421.628c.425,0,.85.008,1.274,0,.273-.007.452.044.443.381s-.217.358-.473.354c-.472-.008-.944,0-1.416,0a.72.72,0,0,0-.281.006c-.718.337-.189.971-.323,1.453-.065.233-.129.59.358.568.542-.025,1.086,0,1.628-.008.253,0,.393.061.4.352s-.117.369-.379.364c-.5-.01-.994.029-1.486-.012-.459-.038-.539.149-.543.564-.015,1.7-.029,1.695,1.663,1.7.165,0,.331.01.5,0,.284-.021.368.117.36.38-.006.226-.067.351-.322.349-.921-.007-1.841-.012-2.762,0-.366.005-.348-.223-.348-.467,0-1.84.006-3.68,0-5.521,0-.327.1-.476.443-.459C-761.675,421.644-761.249,421.628-760.824,421.628Z" transform="translate(779.081 -402.237)" fill="#373737"></path><path id="Pfad_547" data-name="Pfad 547" d="M-691.605,424.771c0-.873.012-1.747-.006-2.62-.007-.367.057-.57.5-.554.825.03,1.653.013,2.479.006.268,0,.454.033.449.375s-.214.362-.47.359c-.519-.006-1.04.021-1.558-.009-.383-.022-.465.124-.475.485-.042,1.544-.054,1.522,1.459,1.562.313.008.933-.345.917.349-.016.659-.617.317-.935.326-1.432.04-1.391.019-1.449,1.443-.029.689.16.931.846.834a9.271,9.271,0,0,1,1.2-.011c.244,0,.464-.02.466.346,0,.331-.15.388-.431.385-.85-.011-1.7-.017-2.55,0-.342.008-.453-.111-.447-.448C-691.594,426.659-691.605,425.715-691.605,424.771Z" transform="translate(718.222 -402.215)" fill="#373737"></path><path id="Pfad_548" data-name="Pfad 548" d="M-559.8,424.792c0-.874.019-1.749-.008-2.623-.013-.419.1-.594.549-.576.8.032,1.608.011,2.412.008.248,0,.468-.01.466.351,0,.333-.166.39-.444.383-.473-.012-.946,0-1.419,0a.725.725,0,0,0-.282.006c-.723.336-.192.973-.327,1.456-.067.24-.114.59.367.565s.946-.01,1.418,0c.267,0,.593-.1.589.375,0,.443-.317.307-.55.333a1.4,1.4,0,0,1-.142,0c-1.8.009-1.795.009-1.705,1.808.017.328.093.465.442.449.543-.025,1.088,0,1.631-.011.287-.008.432.06.424.388-.007.3-.148.346-.4.344-.875-.007-1.75-.017-2.624,0-.386.009-.406-.2-.4-.489C-559.791,426.636-559.8,425.714-559.8,424.792Z" transform="translate(605.13 -402.211)" fill="#373737"></path><path id="Pfad_549" data-name="Pfad 549" d="M-363.945,424.848c0-.921.011-1.843-.006-2.764-.006-.332.1-.464.442-.457.85.017,1.7.012,2.552,0,.281,0,.442.052.429.386-.011.29-.147.358-.4.349a6.539,6.539,0,0,0-.921,0c-.382.041-.974-.215-1.1.149a4.829,4.829,0,0,0-.045,1.683c.008.243.239.178.39.18.5.008.993.007,1.489,0,.249,0,.463-.01.472.349s-.185.369-.446.365c-.5-.008-.993.016-1.488-.008-.351-.017-.426.129-.445.454-.1,1.8-.11,1.8,1.707,1.8.165,0,.331.008.5,0,.28-.015.286.164.289.369s-.034.361-.3.359c-.922-.008-1.843-.012-2.765,0-.362.005-.35-.214-.349-.463C-363.942,426.69-363.945,425.769-363.945,424.848Z" transform="translate(437.082 -402.241)" fill="#373737"></path><path id="Pfad_550" data-name="Pfad 550" d="M-227.528,424.829c0-.9.015-1.793-.007-2.69-.01-.385.09-.55.509-.535.8.029,1.6.01,2.407.007.271,0,.524-.02.507.385s-.3.341-.552.343c-.519,0-1.039.015-1.558,0-.3-.011-.391.094-.412.4-.111,1.627-.121,1.626,1.516,1.627.142,0,.283,0,.425,0,.246-.005.464-.015.47.347s-.191.368-.449.364c-.5-.006-.993.021-1.487-.009-.382-.023-.464.125-.476.484-.058,1.773-.069,1.772,1.724,1.774.165,0,.331.007.5,0,.267-.01.3.153.3.365s-.047.362-.309.36c-.92-.006-1.841-.012-2.762,0-.368.006-.346-.221-.346-.465Q-227.526,426.209-227.528,424.829Z" transform="translate(320.035 -402.221)" fill="#373737"></path><path id="Pfad_551" data-name="Pfad 551" d="M-479,425.225c0-.709-.043-1.422.013-2.127.049-.618-.19-.793-.757-.717-.256.034-.521-.008-.78.009-.306.02-.415-.1-.412-.408s.186-.332.416-.332c1.3,0,2.6,0,3.9,0,.281,0,.443.058.436.389-.008.352-.219.343-.473.355-.465.023-1.077-.216-1.357.1-.3.336-.085.948-.091,1.439-.015,1.229-.01,2.459,0,3.688,0,.293-.012.491-.4.48-.341-.01-.517-.061-.5-.462C-478.979,426.834-479,426.029-479,425.225Z" transform="translate(537.457 -402.259)" fill="#373737"></path><path id="Pfad_552" data-name="Pfad 552" d="M-878.145,424.831c0,.918-.018,1.837.008,2.755.011.389-.139.462-.49.468-.381.006-.408-.177-.406-.475q.012-2.755,0-5.51c0-.3.043-.474.413-.474s.491.109.482.481C-878.16,422.994-878.145,423.913-878.145,424.831Z" transform="translate(879.033 -402.213)" fill="#373737"></path></svg> 