<?xml version="1.0" encoding="UTF-8"?> <svg xmlns="http://www.w3.org/2000/svg" id="Gruppe_315" data-name="Gruppe 315" width="101.859" height="40.37" viewBox="0 0 101.859 40.37"><path id="Pfad_520" data-name="Pfad 520" d="M333.477,212.629v-1.613h-5.195v-2.682h4.584v-1.613h-4.584V204.43h5.212v-1.613H326.5v9.812Zm9.269,0-3.056-4.991,3.022-4.838h-1.935l-2.139,3.446-2.207-3.429h-1.952l3.056,4.821-3.09,5.008h1.918l2.207-3.565,2.207,3.565h1.969Zm8.335-6.672c0-1.884-1.205-3.141-3.463-3.141h-3.854v9.812h1.766v-3.514H347.6c2.275,0,3.48-1.273,3.48-3.158m-1.8.017c0,.934-.543,1.579-1.732,1.579h-2v-3.175h2a1.507,1.507,0,0,1,1.732,1.6m9.9,6.655v-1.613h-5.212v-2.682h4.584v-1.613h-4.584V204.43h5.212v-1.613h-6.994v9.812Zm9.082,0-1.8-4.023a2.829,2.829,0,0,0,1.8-2.75c0-1.579-1.07-3.039-3.412-3.039h-4.142v9.812h1.8v-3.718h2.173l1.63,3.718Zm-1.783-6.774c0,.934-.577,1.46-1.6,1.46h-2.377v-2.937h2.36a1.5,1.5,0,0,1,1.613,1.477m9.914-1.375v-1.664h-7.605v1.664h2.9v8.149h1.783v-8.149Z" transform="translate(-274.535 -202.8)" fill="#373737"></path><path id="Pfad_521" data-name="Pfad 521" d="M373.488,281.236c0-2.462-1.545-4.736-4.176-4.736a4.013,4.013,0,0,0-3.327,1.7,6.45,6.45,0,0,0,.306,7.2,3.962,3.962,0,0,0,3.107,1.392,3.893,3.893,0,0,0,2.8-1.137,3.615,3.615,0,0,0,1.086-2.054h-1.019a2.706,2.706,0,0,1-.747,1.392,3.144,3.144,0,0,1-4.5-.17A4.692,4.692,0,0,1,366,281.882h7.47c0-.221.017-.407.017-.645m-.985-.255h-6.468a3.328,3.328,0,0,1,3.276-3.565,3.363,3.363,0,0,1,3.192,3.565m-15.567-1.749a1.673,1.673,0,0,1,.764-1.358,2.955,2.955,0,0,1,1.766-.441,2.815,2.815,0,0,1,2.224.866,2.6,2.6,0,0,1,.492,1.171h.985a2.914,2.914,0,0,0-.747-1.8,3.838,3.838,0,0,0-2.954-1.154,3.908,3.908,0,0,0-2.682.917,2.56,2.56,0,0,0-.849,1.9,2.341,2.341,0,0,0,.543,1.545,3.441,3.441,0,0,0,2.207.985l1.9.255a1.834,1.834,0,0,1,1.8,1.783,1.593,1.593,0,0,1-.526,1.256,3.2,3.2,0,0,1-2.309.73,3.259,3.259,0,0,1-2.309-.781,2.5,2.5,0,0,1-.73-1.511h-1a2.9,2.9,0,0,0,.815,1.969,4.193,4.193,0,0,0,3.209,1.256,4.254,4.254,0,0,0,3.175-1.171,2.639,2.639,0,0,0,.662-1.8,2.821,2.821,0,0,0-2.7-2.7l-1.85-.255c-1.477-.221-1.884-.849-1.884-1.664m-9.252,0a1.673,1.673,0,0,1,.764-1.358,2.955,2.955,0,0,1,1.766-.441,2.815,2.815,0,0,1,2.224.866,2.6,2.6,0,0,1,.492,1.171h.985a2.914,2.914,0,0,0-.747-1.8,3.838,3.838,0,0,0-2.954-1.154,3.908,3.908,0,0,0-2.682.917,2.56,2.56,0,0,0-.849,1.9,2.342,2.342,0,0,0,.543,1.545,3.441,3.441,0,0,0,2.207.985l1.9.255a1.834,1.834,0,0,1,1.8,1.783,1.593,1.593,0,0,1-.526,1.256,3.2,3.2,0,0,1-2.309.73,3.232,3.232,0,0,1-2.309-.781,2.5,2.5,0,0,1-.73-1.511h-1a2.9,2.9,0,0,0,.815,1.969,4.782,4.782,0,0,0,6.366.085,2.639,2.639,0,0,0,.662-1.8,2.821,2.821,0,0,0-2.7-2.7l-1.85-.255c-1.46-.221-1.867-.849-1.867-1.664m-8.3,2.394c0,2.105-.849,4.176-3.242,4.176-1.783,0-2.529-.985-2.529-2.682v-6.366h-.985v6.451c0,2.19,1.188,3.582,3.446,3.582a3.645,3.645,0,0,0,3.31-2.037l.119,1.783h.866v-9.778h-.985Zm-14.956-2.394a1.673,1.673,0,0,1,.764-1.358,2.955,2.955,0,0,1,1.766-.441,2.815,2.815,0,0,1,2.224.866,2.6,2.6,0,0,1,.492,1.171h.985a2.914,2.914,0,0,0-.747-1.8,3.838,3.838,0,0,0-2.954-1.154,3.908,3.908,0,0,0-2.682.917,2.56,2.56,0,0,0-.849,1.9,2.256,2.256,0,0,0,.543,1.545,3.441,3.441,0,0,0,2.207.985l1.9.255a1.834,1.834,0,0,1,1.8,1.783,1.593,1.593,0,0,1-.526,1.256,3.2,3.2,0,0,1-2.309.73,3.259,3.259,0,0,1-2.309-.781A2.5,2.5,0,0,1,324,283.6h-1a2.9,2.9,0,0,0,.815,1.969,4.193,4.193,0,0,0,3.209,1.256,4.255,4.255,0,0,0,3.175-1.171,2.639,2.639,0,0,0,.662-1.8,2.821,2.821,0,0,0-2.7-2.7l-1.85-.255c-1.477-.221-1.884-.849-1.884-1.664m19.71-2.462H343.1v9.778h1.036Z" transform="translate(-271.629 -263.989)" fill="#373737"></path><path id="Pfad_522" data-name="Pfad 522" d="M35.933,212.135l-3.9,13.564H46l1.07-3.752H44.829l-.458,1.6H34.864l3.293-11.425H35.933Zm16.756-3.82-.611,2.156h9.133l-2.563,7.588H40.432l1.7-5.925H39.889L37.58,220.2h22.6l.255-.73L64.2,208.315H52.689Zm-28.266,0L20.4,220.2H31.876l.611-2.156H23.4l2.563-7.588H44.235l-1.7,5.925h2.241l2.309-8.064ZM38.582,202.9l-1.07,3.752h2.241l.458-1.6h9.507L46.476,216.4h2.207l3.871-13.479H38.582Z" transform="translate(-20.4 -202.883)" fill="#373737"></path><path id="Pfad_523" data-name="Pfad 523" d="M449.99,394.7a1.088,1.088,0,0,0-.764.306,2.432,2.432,0,0,0,0,3.022,1.088,1.088,0,0,0,.764.306c1.07,0,1.341-.951,1.341-1.817.017-.866-.272-1.816-1.341-1.816" transform="translate(-375.99 -362.122)" fill="#373737"></path><path id="Pfad_524" data-name="Pfad 524" d="M479.9,406.851c0,.424.272.815.934.815a1.318,1.318,0,0,0,.985-.39,1.5,1.5,0,0,0,.407-1.086V405.9l-1.273.068c-.492.068-1.053.289-1.053.883" transform="translate(-401.893 -371.421)" fill="#373737"></path><path id="Pfad_525" data-name="Pfad 525" d="M287.041,395.6c-1.069,0-1.341.951-1.341,1.816s.289,1.816,1.341,1.816a1.088,1.088,0,0,0,.764-.306,2.432,2.432,0,0,0,0-3.022,1.167,1.167,0,0,0-.764-.306" transform="translate(-240.662 -362.87)" fill="#373737"></path><path id="Pfad_526" data-name="Pfad 526" d="M368.29,394.9a1.12,1.12,0,0,0-.849.34,2.692,2.692,0,0,0,0,2.954,1.148,1.148,0,0,0,.849.34,1.12,1.12,0,0,0,.849-.34,2.106,2.106,0,0,0,.441-1.477,2.132,2.132,0,0,0-.441-1.477,1.147,1.147,0,0,0-.849-.34" transform="translate(-308.16 -362.288)" fill="#373737"></path><path id="Pfad_527" data-name="Pfad 527" d="M255.307,395.6A1.324,1.324,0,0,0,254,396.992h2.529a1.671,1.671,0,0,0-.289-.968,1.141,1.141,0,0,0-.934-.424" transform="translate(-214.343 -362.87)" fill="#373737"></path><path id="Pfad_528" data-name="Pfad 528" d="M123.507,395.6a1.324,1.324,0,0,0-1.307,1.392h2.529a1.671,1.671,0,0,0-.289-.968,1.118,1.118,0,0,0-.934-.424" transform="translate(-104.918 -362.87)" fill="#373737"></path><path id="Pfad_529" data-name="Pfad 529" d="M23.6,378.913H124.881V366.3H23.6Zm14.311-4.023a2.584,2.584,0,0,1-1.783.713,2.541,2.541,0,0,1-1.8-.713,3.578,3.578,0,0,1-.832-2.75,3.646,3.646,0,0,1,.832-2.75,2.541,2.541,0,0,1,1.8-.713,2.608,2.608,0,0,1,1.783.679,2.269,2.269,0,0,1,.662,1.528h-.866a1.488,1.488,0,0,0-.373-.934,1.644,1.644,0,0,0-1.205-.492,1.667,1.667,0,0,0-1.205.509,4.429,4.429,0,0,0,0,4.312,1.726,1.726,0,0,0,1.205.509,1.625,1.625,0,0,0,1.205-.509,1.535,1.535,0,0,0,.373-.951h.866a2.4,2.4,0,0,1-.662,1.562m5.772-1.528H40.322a1.759,1.759,0,0,0,.458,1.188,1.177,1.177,0,0,0,.866.34,1.213,1.213,0,0,0,.883-.306,1.06,1.06,0,0,0,.289-.509H43.6a1.7,1.7,0,0,1-.73,1.171,2.234,2.234,0,0,1-1.205.356,2.071,2.071,0,0,1-1.579-.713,2.706,2.706,0,0,1-.594-1.766,2.838,2.838,0,0,1,.373-1.528,2.035,2.035,0,0,1,1.8-1,1.9,1.9,0,0,1,1.443.611,2.4,2.4,0,0,1,.594,1.681Zm3.854-1.85a1.937,1.937,0,0,0-.441-.034,1.326,1.326,0,0,0-.9.373,2.109,2.109,0,0,0-.424,1.528v2.105H44.99v-4.753H45.7l.068.832A1.479,1.479,0,0,1,47.2,370.7a2.777,2.777,0,0,1,.373.034v.781Zm4.21,3.9a3.677,3.677,0,0,1-.951.136,1.17,1.17,0,0,1-1.307-1.29V371.41h-.917v-.679h.917v-1.205l.8-.187v1.392H51.7v.679H50.287v2.75c0,.458.2.645.645.645a5.761,5.761,0,0,0,.815-.085Zm2.207.068h-.815v-4.753h.815Zm.051-5.84h-.934v-.934H54Zm4.448-.289a5.147,5.147,0,0,0-.781-.068.624.624,0,0,0-.679.645v.8h1.375v.679H56.993v4.074h-.8V371.41h-.866v-.679h.866v-.849a1.288,1.288,0,0,1,1.375-1.273,4.581,4.581,0,0,1,.883.085Zm1.986,6.128h-.815v-4.753h.815Zm.051-5.84h-.934v-.934h.934Zm5.568,3.718H62.7a1.759,1.759,0,0,0,.458,1.188,1.177,1.177,0,0,0,.866.34,1.213,1.213,0,0,0,.883-.306,1.06,1.06,0,0,0,.289-.509h.781a1.7,1.7,0,0,1-.73,1.171,2.234,2.234,0,0,1-1.205.356,2.071,2.071,0,0,1-1.579-.713,2.706,2.706,0,0,1-.594-1.766,2.837,2.837,0,0,1,.373-1.528,2.035,2.035,0,0,1,1.8-1,1.9,1.9,0,0,1,1.443.611,2.4,2.4,0,0,1,.594,1.681Zm5.432,2.122h-.7l-.051-.628a1.681,1.681,0,0,1-1.426.747,1.857,1.857,0,0,1-1.341-.509,3.2,3.2,0,0,1,.051-4.006,1.858,1.858,0,0,1,1.307-.475,1.637,1.637,0,0,1,1.375.679v-2.58h.8v6.774Zm8-.594a2.606,2.606,0,0,1-3.582,0,3.578,3.578,0,0,1-.832-2.75,3.646,3.646,0,0,1,.832-2.75,2.541,2.541,0,0,1,1.8-.713,2.608,2.608,0,0,1,1.783.679,2.269,2.269,0,0,1,.662,1.528h-.866a1.488,1.488,0,0,0-.373-.934,1.644,1.644,0,0,0-1.205-.492,1.667,1.667,0,0,0-1.205.509,4.429,4.429,0,0,0,0,4.312,1.726,1.726,0,0,0,1.205.509,1.625,1.625,0,0,0,1.205-.509,1.535,1.535,0,0,0,.373-.951h.866a2.4,2.4,0,0,1-.662,1.562m5.127.017a2,2,0,0,1-1.443.56,2.055,2.055,0,0,1-1.443-.56,2.3,2.3,0,0,1-.679-1.8,2.906,2.906,0,0,1,.679-2.088,2,2,0,0,1,1.443-.56,2.056,2.056,0,0,1,1.443.56,2.626,2.626,0,0,1,.679,1.952,2.544,2.544,0,0,1-.679,1.935m8.692.441h-.8v-3.022c0-.662-.221-1.12-.968-1.12a.949.949,0,0,0-.73.323,1.809,1.809,0,0,0-.407,1.307v2.53h-.8v-3.022c0-.662-.2-1.12-.951-1.12a1.029,1.029,0,0,0-.815.424,2.11,2.11,0,0,0-.323,1.205v2.53h-.8v-4.753h.7l.068.679a1.466,1.466,0,0,1,1.341-.8,1.415,1.415,0,0,1,1.426.9,1.561,1.561,0,0,1,1.46-.9c1.087,0,1.6.7,1.6,1.749Zm5.195-.39a1.858,1.858,0,0,1-1.307.475,1.637,1.637,0,0,1-1.375-.679v2.58h-.8v-6.774h.713l.051.611a1.681,1.681,0,0,1,1.426-.747,1.857,1.857,0,0,1,1.341.509,2.779,2.779,0,0,1,.679,1.969,2.833,2.833,0,0,1-.73,2.054m6.128.34a1.092,1.092,0,0,1-.526.119.673.673,0,0,1-.679-.73h-.017a1.741,1.741,0,0,1-1.528.781,1.485,1.485,0,0,1-1.63-1.46c0-.611.39-1.409,1.7-1.477l1.443-.085v-.34a1,1,0,0,0-.238-.73,1.045,1.045,0,0,0-.781-.238,1.169,1.169,0,0,0-.866.289.78.78,0,0,0-.238.577h-.781a1.5,1.5,0,0,1,.407-1,2.039,2.039,0,0,1,1.46-.509,1.634,1.634,0,0,1,1.664.917,1.7,1.7,0,0,1,.136.73v2.309c0,.255.1.323.272.323a.927.927,0,0,0,.2-.034v.56Zm5.161.051h-.8v-3.022c0-.713-.289-1.137-1.036-1.137a1.176,1.176,0,0,0-1.036.73,3.243,3.243,0,0,0-.17,1.205v2.207h-.8v-4.753h.7l.068.713a1.6,1.6,0,0,1,1.443-.832,1.533,1.533,0,0,1,1.647,1.749v3.141Zm3.276.934a1.3,1.3,0,0,1-1.29,1.019,2.1,2.1,0,0,1-.73-.1v-.7a2.425,2.425,0,0,0,.56.068.674.674,0,0,0,.713-.475l.306-.8-1.9-4.753h.9l1.392,3.752,1.341-3.752h.832Z" transform="translate(-23.057 -338.544)" fill="#373737"></path></svg> 