<svg xmlns:inkscape="http://www.inkscape.org/namespaces/inkscape" xmlns:sodipodi="http://sodipodi.sourceforge.net/DTD/sodipodi-0.dtd" xmlns="http://www.w3.org/2000/svg" xmlns:svg="http://www.w3.org/2000/svg" width="119.32708mm" height="48.815624mm" viewBox="0 0 119.32708 48.815624" id="svg5" inkscape:version="1.1.1 (3bf5ae0d25, 2021-09-20)" sodipodi:docname="Zeichnung.svg"><defs id="defs2"></defs><g inkscape:label="Ebene 1" inkscape:groupmode="layer" id="layer1" transform="translate(-51.583882,-147.73652)"><g id="g65" transform="matrix(0.26458333,0,0,0.26458333,30.999299,130.14173)"><path class="st0" d="M 262.3,251 H 77.8 V 66.5 h 117.3 c 37.1,0 67.1,30.1 67.1,67.1 V 251 Z" id="path11"></path><g id="g17"><g id="g15"><path class="st1" d="m 171.1,163.1 h -26.9 v 70.4 h -20.4 v -70.4 h -27 v -17.9 h 74.3 z" id="path13"></path></g></g><g id="g37"><g id="g35"><path class="st2" d="M 301.1,145.9 H 291 v 26 h -3.7 v -26 h -10.1 v -3.3 h 24 v 3.3 z" id="path19"></path><path class="st2" d="m 305.7,171.9 v -29.3 h 12.6 c 1.3,0 2.5,0.3 3.6,0.8 1.1,0.5 2,1.3 2.8,2.1 0.8,0.9 1.4,1.9 1.8,3 0.4,1.1 0.7,2.3 0.7,3.4 0,1 -0.1,2 -0.4,3 -0.3,1 -0.7,1.8 -1.2,2.6 -0.5,0.8 -1.2,1.4 -1.9,2 -0.8,0.6 -1.6,0.9 -2.5,1.2 l 7.1,11.2 h -4.2 l -6.7,-10.5 h -7.8 v 10.5 z m 3.7,-13.8 h 8.9 c 0.8,0 1.5,-0.2 2.1,-0.5 0.6,-0.3 1.1,-0.8 1.6,-1.3 0.4,-0.6 0.8,-1.2 1,-2 0.2,-0.7 0.4,-1.5 0.4,-2.3 0,-0.8 -0.1,-1.6 -0.4,-2.3 -0.3,-0.7 -0.7,-1.4 -1.2,-1.9 -0.5,-0.6 -1,-1 -1.7,-1.3 -0.6,-0.3 -1.3,-0.5 -2,-0.5 h -8.6 v 12.1 z" id="path21"></path><path class="st2" d="m 353,168.6 v 3.3 h -19.9 v -29.3 h 19.5 v 3.3 h -15.8 v 9.5 h 13.8 v 3.1 h -13.8 v 10.1 z" id="path23"></path><path class="st2" d="m 370.5,168.8 c 1.7,0 3.1,-0.3 4.3,-1 1.1,-0.7 2,-1.5 2.7,-2.6 0.7,-1.1 1.1,-2.3 1.4,-3.6 0.3,-1.4 0.4,-2.7 0.4,-4.2 v -14.8 h 3.7 v 14.8 c 0,2 -0.2,3.9 -0.7,5.6 -0.5,1.7 -1.2,3.3 -2.2,4.7 -1,1.3 -2.3,2.4 -3.9,3.2 -1.6,0.8 -3.5,1.2 -5.8,1.2 -2.3,0 -4.3,-0.4 -5.9,-1.2 -1.6,-0.8 -2.9,-1.9 -3.9,-3.3 -1,-1.4 -1.7,-2.9 -2.1,-4.7 -0.4,-1.8 -0.6,-3.6 -0.6,-5.5 v -14.8 h 3.7 v 14.8 c 0,1.5 0.1,2.9 0.4,4.2 0.3,1.4 0.8,2.6 1.4,3.6 0.7,1 1.6,1.9 2.7,2.5 1.3,0.8 2.7,1.1 4.4,1.1 z" id="path25"></path><path class="st2" d="m 413.6,142.6 v 29.3 h -3.7 v -13.3 h -16.2 v 13.3 H 390 v -29.3 h 3.7 v 12.7 h 16.2 v -12.7 z" id="path27"></path><path class="st2" d="m 429.8,142.6 h 3.1 l 12,29.3 h -4 l -3.5,-8.6 h -12.3 l -3.4,8.6 h -4 z m 6.9,17.9 -5.3,-13.5 -5.5,13.5 z" id="path29"></path><path class="st2" d="M 452.9,149.6 V 172 h -3.7 v -29.3 h 2.9 l 18.2,22.8 V 142.7 H 474 V 172 h -3.1 z" id="path31"></path><path class="st2" d="m 481.3,171.9 v -29.3 h 10.2 c 2.3,0 4.4,0.4 6.2,1.2 1.8,0.8 3.3,1.8 4.4,3.1 1.2,1.3 2.1,2.9 2.7,4.6 0.6,1.7 0.9,3.7 0.9,5.7 0,2.2 -0.3,4.2 -1,6.1 -0.7,1.8 -1.6,3.3 -2.9,4.6 -1.3,1.3 -2.7,2.3 -4.5,3 -1.7,0.7 -3.7,1.1 -5.8,1.1 h -10.2 z m 20.6,-14.7 c 0,-1.7 -0.2,-3.2 -0.7,-4.6 -0.5,-1.4 -1.1,-2.6 -2,-3.6 -0.9,-1 -2,-1.8 -3.3,-2.3 -1.3,-0.5 -2.8,-0.8 -4.4,-0.8 h -6.4 v 22.7 h 6.4 c 1.7,0 3.2,-0.3 4.5,-0.9 1.3,-0.6 2.4,-1.4 3.3,-2.4 0.9,-1 1.5,-2.2 2,-3.6 0.4,-1.3 0.6,-2.8 0.6,-4.5 z" id="path33"></path></g></g><g id="g41"><path class="st2" d="m 516.3,142.5 c -1.8,0 -3.4,-0.3 -5,-0.9 -1.5,-0.6 -2.8,-1.5 -3.9,-2.6 -1.1,-1.1 -2,-2.4 -2.6,-3.9 -0.6,-1.5 -0.9,-3.1 -0.9,-4.9 0,-1.7 0.3,-3.3 0.9,-4.8 0.6,-1.5 1.5,-2.8 2.6,-3.9 1.1,-1.1 2.4,-1.9 3.9,-2.6 1.5,-0.6 3.2,-0.9 5,-0.9 1.8,0 3.4,0.3 5,0.9 1.5,0.6 2.9,1.5 4,2.6 1.1,1.1 2,2.4 2.6,3.9 0.6,1.5 0.9,3.1 0.9,4.8 0,1.8 -0.3,3.4 -0.9,4.9 -0.6,1.5 -1.5,2.8 -2.6,3.9 -1.1,1.1 -2.4,1.9 -4,2.6 -1.6,0.6 -3.3,0.9 -5,0.9 z m 0,-1.1 c 1.6,0 3.1,-0.3 4.4,-0.8 1.4,-0.5 2.6,-1.3 3.6,-2.3 1,-1 1.8,-2.1 2.4,-3.5 0.6,-1.4 0.9,-2.9 0.9,-4.5 0,-1.6 -0.3,-3.1 -0.8,-4.4 -0.6,-1.4 -1.4,-2.5 -2.4,-3.5 -1,-1 -2.2,-1.8 -3.6,-2.3 -1.4,-0.6 -2.9,-0.8 -4.5,-0.8 -1.6,0 -3.1,0.3 -4.5,0.8 -1.4,0.6 -2.6,1.3 -3.6,2.3 -1,1 -1.8,2.2 -2.3,3.5 -0.6,1.4 -0.8,2.8 -0.8,4.4 0,1.6 0.3,3 0.8,4.4 0.6,1.4 1.3,2.5 2.3,3.5 1,1 2.2,1.8 3.5,2.3 1.4,0.6 2.9,0.9 4.6,0.9 z m 0.2,-3.3 c -1,0 -2,-0.2 -3,-0.6 -0.9,-0.4 -1.8,-0.9 -2.5,-1.6 -0.7,-0.7 -1.3,-1.5 -1.8,-2.5 -0.4,-1 -0.7,-2.1 -0.7,-3.2 0,-0.9 0.2,-1.9 0.5,-2.8 0.3,-0.9 0.8,-1.8 1.4,-2.5 0.6,-0.7 1.4,-1.4 2.4,-1.8 1,-0.5 2.1,-0.7 3.4,-0.7 1.5,0 2.8,0.3 4,1 1.2,0.6 2,1.6 2.5,2.8 l -2.2,0.7 c -0.2,-0.5 -0.5,-0.9 -0.9,-1.2 -0.3,-0.3 -0.7,-0.6 -1.1,-0.7 -0.4,-0.2 -0.8,-0.3 -1.2,-0.4 -0.4,-0.1 -0.8,-0.1 -1.1,-0.1 -0.9,0 -1.7,0.2 -2.3,0.5 -0.7,0.3 -1.2,0.8 -1.7,1.4 -0.4,0.6 -0.8,1.2 -1,1.9 -0.2,0.7 -0.3,1.4 -0.3,2.1 0,0.9 0.2,1.8 0.5,2.5 0.3,0.7 0.8,1.3 1.3,1.8 0.5,0.5 1.1,0.9 1.7,1.1 0.6,0.3 1.3,0.4 1.9,0.4 0.9,0 1.7,-0.2 2.6,-0.7 0.9,-0.5 1.5,-1.1 1.9,-1.9 l 2.2,0.6 c -0.2,0.4 -0.4,0.8 -0.8,1.3 -0.4,0.5 -0.9,0.9 -1.4,1.3 -0.6,0.4 -1.2,0.7 -1.9,1 -0.7,0.2 -1.5,0.3 -2.4,0.3 z" id="path39"></path></g><path class="st0" d="m 313.9,233.3 v -45.5 h 10.5 v 45.5 z" id="path43"></path><path class="st0" d="m 343.7,207.3 v 26 h -10.5 v -45.5 h 8.2 l 21.2,26.7 v -26.7 h 10.5 v 45.5 h -8.5 z" id="path45"></path><path class="st0" d="m 394.1,187.8 h 9.5 l 16.6,45.5 h -10.8 l -3.5,-10.2 h -14.2 l -3.5,10.2 h -10.8 z m 10.1,28.1 -5.3,-16.1 -5.4,16.1 z" id="path47"></path><path class="st0" d="m 435.2,207.3 v 26 h -10.5 v -45.5 h 8.2 l 21.2,26.7 v -26.7 h 10.5 v 45.5 h -8.5 z" id="path49"></path><path class="st0" d="M 470.8,225.4 494.5,197 h -22.8 v -9.2 h 34.9 v 7.9 L 484,224.1 h 22.8 v 9.2 h -36.1 v -7.9 z" id="path51"></path><g id="g57"><polygon class="st0" points="308.3,197.1 308.3,187.8 277.5,187.8 277.5,197.1 " id="polygon53"></polygon><polygon class="st0" points="304.8,215.4 304.8,206.9 277.5,206.8 277.5,233.3 288,233.3 288,215.4 " id="polygon55"></polygon></g><g id="g63"><polygon class="st1" points="241.2,163 241.2,145.1 181.2,145.1 181.2,163 " id="polygon59"></polygon><polygon class="st1" points="234.2,198.6 234.2,182.1 181.2,181.9 181.2,233.5 201.6,233.5 201.6,198.6 " id="polygon61"></polygon></g></g></g><style type="text/css" id="style9">	.st0{fill:#173667;}	.st1{fill:#FFFFFF;}	.st2{fill:#575756;}</style></svg>