<?xml version="1.0" encoding="UTF-8"?> <!-- Generator: Adobe Illustrator 25.4.1, SVG Export Plug-In . SVG Version: 6.00 Build 0) --> <svg xmlns="http://www.w3.org/2000/svg" xmlns:xlink="http://www.w3.org/1999/xlink" version="1.1" id="treu-suisse-logo-verband-de" x="0px" y="0px" viewBox="0 0 75.3 30.3" style="enable-background:new 0 0 75.3 30.3;" xml:space="preserve"> <style type="text/css"> .st0{fill:#373737;} </style> <polygon class="st0" points="40,14 31.6,8.4 23.2,14 23.2,17.8 31.6,12.2 40,17.8 "></polygon> <polygon class="st0" points="9.9,21.5 9.9,24.7 8,24.7 8,21.5 6.1,21.5 6.1,29.5 8,29.5 8,26.2 9.9,26.2 9.9,29.5 11.8,29.5 11.8,21.5 "></polygon> <polygon class="st0" points="33,21.5 31.5,27.3 31.5,27.3 30.1,21.5 28.1,21.5 30.5,29.5 32.5,29.5 34.9,21.5 "></polygon> <path class="st0" d="M39.9,28.4c0.6,0.5,1.2,0.5,1.4,0.5c1.3,0,1.4-1.2,1.4-1.4c0-0.9-0.6-1.3-1.5-2c-1.1-0.8-1.4-1.3-1.4-2.2 c0-1.8,1.6-1.9,2.1-1.9c0.6,0,1.1,0.2,1.3,0.3l0,0.8c-0.3-0.2-0.7-0.4-1.3-0.4c-0.5,0-1.3,0.2-1.3,1.2c0,0.8,0.4,1.1,1.1,1.6 c1.4,1,1.9,1.4,1.9,2.5c0,1.3-0.9,2.2-2.2,2.2c-0.5,0-1.1-0.1-1.5-0.4L39.9,28.4z"></path> <path class="st0" d="M48,24.5c-0.3-0.2-0.7-0.3-1.1-0.3c-0.9,0-1.7,0.6-1.7,2.2c0,2.2,1.2,2.5,1.8,2.5c0.3,0,0.8-0.1,1-0.3l0.1,0.8 c-0.3,0.1-0.7,0.2-1.1,0.2c-1.3,0-2.4-1-2.4-3c0-1.8,0.8-3,2.4-3c0.5,0,0.8,0.1,1.1,0.2L48,24.5z"></path> <path class="st0" d="M49.1,20.9h0.7v3.6h0c0.1-0.3,0.5-0.9,1.4-0.9c1.6,0,1.6,1.6,1.6,2v3.9h-0.7v-4c0-0.4,0-1.4-1.1-1.4 c-0.8,0-1.3,0.8-1.3,1.7v3.6h-0.7V20.9z"></path> <polygon class="st0" points="53.8,23.7 54.5,23.7 55.7,28.8 55.8,28.8 56.9,23.7 57.8,23.7 59.1,28.8 59.1,28.8 60.3,23.7 61,23.7 59.5,29.5 58.6,29.5 57.4,24.4 57.3,24.4 56.1,29.5 55.4,29.5 "></polygon> <path class="st0" d="M62.3,26.8c0,2.2,1.4,2.2,1.7,2.2c0.4,0,0.9-0.2,1.3-0.5l0,0.8c-0.3,0.1-0.7,0.3-1.4,0.3c-2.3,0-2.3-2.4-2.3-3 c0-2.2,1.1-3,2.1-3c1.7,0,1.9,1.8,1.9,3.2H62.3z M64.8,26.2c0-1.6-0.7-2-1.2-2c-0.9,0-1.3,1.2-1.3,2H64.8z"></path> <path class="st0" d="M66.9,23.7h0.7v5.9h-0.7V23.7z M66.8,21.3h0.8v1h-0.8V21.3z"></path> <polygon class="st0" points="68.7,28.9 71.5,24.3 68.8,24.3 68.8,23.7 72.2,23.7 72.2,24.3 69.4,28.9 72.3,28.9 72.3,29.5 68.7,29.5 "></polygon> <polygon class="st0" points="18,21.5 22.6,21.5 22.6,22.9 19.8,22.9 19.8,24.7 22.5,24.7 22.5,26.1 19.8,26.1 19.8,28.1 22.8,28.1 22.8,29.5 18,29.5 "></polygon> <polygon class="st0" points="28.8,6.4 20.4,0.8 12,6.4 12,8.6 20.4,3 28.8,8.6 "></polygon> <polygon class="st0" points="17.6,15.5 9.2,9.9 0.8,15.5 0.8,16.3 9.2,10.7 17.6,16.3 "></polygon> </svg> 