<?xml version="1.0" encoding="utf-8"?>
<!-- Generator: Adobe Illustrator 25.4.1, SVG Export Plug-In . SVG Version: 6.00 Build 0)  -->
<svg version="1.0" id="Ebene_1" xmlns="http://www.w3.org/2000/svg" xmlns:xlink="http://www.w3.org/1999/xlink" x="0px" y="0px"
	 viewBox="0 0 443.5 85.9" style="enable-background:new 0 0 443.5 85.9;" xml:space="preserve">
<style type="text/css">
	.st0{fill:#E24486;}
	.st1{fill:#373737;}
</style>
<path class="st0" d="M69.4,41.9c-6,1.1-11.3,1.5-15.8,1.5l0,0c-15.2,0-22-4.7-22.4-5c-5-3.3-6.9-8.3-6.9-13.1
	c0-6.7,3.2-13.4,6.3-18.6C32.2,3.9,33.9,1.6,35,0H20.8L1.1,81.2C17.2,78.4,43.5,69.5,69.4,41.9"/>
<path class="st0" d="M82.6,34.2c5.6-1.7,11.8-3.8,18.6-6.7l3.6-14.8c-2.6,2.2-5.4,4.7-8.2,7.4C91.7,24.8,86.8,29.9,82.6,34.2"/>
<path class="st0" d="M72.7,44.8C45.1,74.4,16.7,83.3,0,85.9l0,0h87.2l12.8-53c-8.6,3.4-16.3,5.9-23.2,7.5
	C74.3,43.1,72.8,44.8,72.7,44.8"/>
<path class="st0" d="M40.8,0c-0.3,0.3-0.9,1-1.1,1.3c-0.3,0.4-0.8,1-1.3,1.7c-1.1,1.5-2.5,3.5-4,6c-2.9,4.8-5.7,11.1-5.7,16.3
	c0.1,3.8,1.2,6.9,5,9.4l0,0l0,0l0,0c0,0,0.1,0.1,0.2,0.1c0.2,0.1,0.4,0.2,0.8,0.4c0.7,0.4,1.9,0.9,3.5,1.4c3.2,1.1,8.2,2.2,15.4,2.2
	c5.6,0,12.6-0.7,20.9-2.6c6.2-6.6,17-17.9,26.3-25.9c2-1.8,4-3.3,5.8-4.7l1.4-5.7L40.8,0L40.8,0z"/>
<path class="st1" d="M120.5,19.6h0.6c1.1,2.4,2.4,3.5,4.1,3.5c2,0,2.9-1.4,2.9-2.6c0-1.5-1.1-2-3.5-2.9c-1.8-0.6-3.8-1.2-3.8-3.7
	s2-4.1,4.5-4.1c1.1,0,1.9,0.2,2.6,0.5l0.7-0.6h0.4v3.9h-0.6c-0.6-1.9-1.8-3.1-3.4-3.1c-1.4,0-2.5,0.9-2.5,2.5c0,1.5,1.2,1.9,3.3,2.7
	c1.8,0.6,3.8,1.3,3.8,3.8c0,2-1.2,4.4-4.5,4.4c-1.1,0-2.3-0.2-3-0.6l-1,0.7h-0.5L120.5,19.6L120.5,19.6z"/>
<path class="st1" d="M130.8,19c0-2.8,1.9-4.9,4.5-4.9c2.1,0,3.2,1.2,3.2,2.2c0,0.7-0.4,1.2-1,1.2c-0.7,0-1.1-0.4-1.1-1
	c0-0.5,0.4-0.9,0.6-1.1c-0.3-0.3-0.9-0.6-1.7-0.6c-1.5,0-2.7,1.3-2.7,3.8c0,2.4,1.2,4,3.2,4c1,0,1.9-0.6,2.6-1.4l0.4,0.4
	c-0.9,1.2-1.9,2.1-3.7,2.1C132.4,23.7,130.8,21.7,130.8,19"/>
<path class="st1" d="M139.7,22.9c1.2,0,1.5-0.2,1.5-0.7V11.1c0-0.6-0.4-1-1.6-1V9.5l3.3-0.1v6.2c1.1-0.8,2.3-1.4,3.7-1.4
	s2.3,1,2.3,2.8v5.3c0,0.5,0.3,0.7,1.5,0.7v0.6h-4.5V23c1,0,1.3-0.2,1.3-0.7v-4.5c0-1.8-0.7-2.3-1.9-2.3c-0.9,0-1.7,0.4-2.3,0.8v6
	c0,0.5,0.3,0.7,1.3,0.7v0.6h-4.5v-0.7H139.7z"/>
<path class="st1" d="M157.5,16.1c-0.3-0.9-0.6-1.2-1.4-1.3v-0.6h4.2v0.6c-0.9,0.1-1.3,0.3-1.3,0.7c0,0.1,0,0.2,0.1,0.4l2,5.5h0.1
	l1.6-4.6c0.1-0.4,0.3-0.8,0.3-1c0-0.4-0.3-0.7-1.2-0.9v-0.6h3.7v0.6c-1,0.1-1.4,0.6-1.7,1.5l-2.7,7.3h-0.9l-2.1-5.9l-2.4,5.9h-0.9
	l-2.8-7.6c-0.4-1-0.6-1.1-1.5-1.3v-0.6h4.3v0.6c-0.9,0.1-1.2,0.3-1.2,0.7c0,0.1,0,0.3,0.1,0.4l2,5.5h0.1l1.9-4.7L157.5,16.1z"/>
<path class="st1" d="M167.5,18l4.4-0.1c0.2-1.7-0.6-3.2-2-3.2C168.6,14.7,167.7,15.7,167.5,18 M165.6,19c0-2.8,1.7-4.9,4.3-4.9
	c2.7,0,3.9,2.3,3.7,4.5h-6.2v0.1l0,0c0,2.2,1.1,3.9,3.1,3.9c1.1,0,2-0.7,2.9-1.7l0.4,0.4c-0.8,1.3-1.8,2.4-3.9,2.4
	C167.1,23.7,165.6,21.7,165.6,19"/>
<path class="st1" d="M176.2,10.7c0-0.7,0.5-1.2,1.2-1.2s1.2,0.5,1.2,1.2s-0.5,1.2-1.2,1.2C176.6,11.9,176.2,11.4,176.2,10.7
	 M175,22.9c1.2,0,1.5-0.2,1.5-0.7v-6.3c0-0.6-0.3-1-1.5-1v-0.6l3.2-0.1v8c0,0.5,0.3,0.7,1.5,0.7v0.6H175V22.9z"/>
<path class="st1" d="M180.9,23.2l5.8-8.3h-2c-1.8,0-2.1,0.8-2.8,2.4h-0.6l0.2-3.1h7.3v0.3l-5.7,8.3h2c1.9,0,2.4-0.9,3-2.5h0.6
	l-0.2,3.2H181L180.9,23.2z"/>
<path class="st1" d="M192.2,18l4.4-0.1c0.2-1.7-0.6-3.2-2-3.2C193.3,14.7,192.4,15.7,192.2,18 M190.4,19c0-2.8,1.7-4.9,4.3-4.9
	c2.7,0,3.9,2.3,3.7,4.5h-6.2v0.1l0,0c0,2.2,1.1,3.9,3.1,3.9c1.1,0,2-0.7,2.9-1.7l0.4,0.4c-0.8,1.3-1.8,2.4-3.9,2.4
	C191.9,23.7,190.4,21.7,190.4,19"/>
<path class="st1" d="M200.2,22.9c1.2,0,1.5-0.2,1.5-0.7v-6.3c0-0.6-0.3-1-1.5-1v-0.6l3.1-0.1v1.6c0.7-0.9,1.6-1.6,2.7-1.6
	c1,0,1.5,0.7,1.5,1.4c0,0.6-0.4,1.2-1.1,1.2c-0.6,0-1.1-0.4-1.1-1.1c0-0.1,0-0.2,0-0.3c-0.9,0-1.6,0.6-2,1.2v5.7
	c0,0.5,0.4,0.7,1.7,0.7v0.6h-4.9v-0.7H200.2z"/>
<path class="st1" d="M209.6,10.7c0-0.7,0.5-1.2,1.2-1.2s1.2,0.5,1.2,1.2s-0.5,1.2-1.2,1.2S209.6,11.4,209.6,10.7 M208.5,22.9
	c1.2,0,1.5-0.2,1.5-0.7v-6.3c0-0.6-0.3-1-1.5-1v-0.6l3.2-0.1v8c0,0.5,0.3,0.7,1.5,0.7v0.6h-4.7V22.9z"/>
<path class="st1" d="M214.7,20.6h0.6c0.9,1.5,1.9,2.5,3,2.5s1.7-0.8,1.7-1.5c0-1-0.6-1.3-2.4-1.9c-2-0.6-2.8-1.3-2.8-2.6
	c0-1.8,1.3-3,3.3-3c0.6,0,1.5,0.2,1.9,0.5l0.4-0.5h0.5v2.8h-0.6c-0.6-1.3-1.4-2.1-2.4-2.1s-1.6,0.6-1.6,1.5c0,0.8,0.7,1.3,2.3,1.7
	c1.9,0.5,2.8,1.3,2.8,2.6c0,1.7-1.1,3.1-3.1,3.1c-0.8,0-1.8-0.3-2.4-0.7l-0.6,0.7h-0.5L214.7,20.6L214.7,20.6z"/>
<path class="st1" d="M222.6,19c0-2.8,1.9-4.9,4.5-4.9c2.1,0,3.2,1.2,3.2,2.2c0,0.7-0.4,1.2-1,1.2c-0.7,0-1.1-0.4-1.1-1
	c0-0.5,0.4-0.9,0.6-1.1c-0.3-0.3-0.9-0.6-1.7-0.6c-1.5,0-2.7,1.3-2.7,3.8c0,2.4,1.2,4,3.2,4c1,0,1.9-0.6,2.6-1.4l0.4,0.4
	c-0.9,1.2-1.9,2.1-3.7,2.1C224.2,23.7,222.6,21.7,222.6,19"/>
<path class="st1" d="M231.6,22.9c1.2,0,1.5-0.2,1.5-0.7V11.1c0-0.6-0.4-1-1.6-1V9.5l3.3-0.1v6.2c1.1-0.8,2.3-1.4,3.7-1.4
	s2.3,1,2.3,2.8v5.3c0,0.5,0.3,0.7,1.5,0.7v0.6h-4.5V23c1,0,1.3-0.2,1.3-0.7v-4.5c0-1.8-0.7-2.3-1.9-2.3c-0.9,0-1.7,0.4-2.3,0.8v6
	c0,0.5,0.3,0.7,1.3,0.7v0.6h-4.5v-0.7H231.6z"/>
<path class="st1" d="M245.3,18l4.4-0.1c0.2-1.7-0.5-3.2-2-3.2C246.4,14.7,245.4,15.7,245.3,18 M243.4,19c0-2.8,1.7-4.9,4.3-4.9
	c2.7,0,3.9,2.3,3.7,4.5h-6.2v0.1l0,0c0,2.2,1.1,3.9,3.1,3.9c1.1,0,2-0.7,2.9-1.7l0.4,0.4c-0.8,1.3-1.8,2.4-3.9,2.4
	C244.9,23.7,243.4,21.7,243.4,19"/>
<path class="st1" d="M259.5,22.9c1.8-0.1,2.3-0.2,2.3-0.9V10.9h-1c-1.9,0-2.3,1.1-3.1,3.5h-0.6l0.1-4.2h11.2l0.1,4.2h-0.6
	c-0.7-2.3-1.1-3.5-3.1-3.5h-1.1V22c0,0.6,0.4,0.8,2.3,0.9v0.7h-6.4L259.5,22.9L259.5,22.9z"/>
<path class="st1" d="M269.3,22.9c1.2,0,1.5-0.2,1.5-0.7v-6.3c0-0.6-0.3-1-1.5-1v-0.6l3.1-0.1v1.6c0.7-0.9,1.6-1.6,2.7-1.6
	c1,0,1.5,0.7,1.5,1.4c0,0.6-0.4,1.2-1.1,1.2c-0.6,0-1.1-0.4-1.1-1.1c0-0.1,0-0.2,0-0.3c-0.9,0-1.6,0.6-2,1.2v5.7
	c0,0.5,0.4,0.7,1.7,0.7v0.6h-4.9L269.3,22.9L269.3,22.9z"/>
<path class="st1" d="M279.1,18l4.4-0.1c0.2-1.7-0.5-3.2-2-3.2C280.2,14.7,279.2,15.7,279.1,18 M277.2,19c0-2.8,1.7-4.9,4.3-4.9
	c2.7,0,3.9,2.3,3.7,4.5H279v0.1l0,0c0,2.2,1.1,3.9,3.1,3.9c1.1,0,2-0.7,2.9-1.7l0.4,0.4c-0.8,1.3-1.8,2.4-3.9,2.4
	C278.7,23.7,277.2,21.7,277.2,19"/>
<path class="st1" d="M287.8,20.9v-5.2c0-0.6-0.3-0.8-1.5-0.8v-0.6l3.2-0.1v6c0,1.8,0.7,2.3,2.1,2.3c0.9,0,1.5-0.3,2.1-0.7v-6
	c0-0.6-0.4-0.8-1.5-0.8v-0.6l3.2-0.1v8c0,0.5,0.3,0.7,1.5,0.7v0.6h-3.1v-1.2c-1,0.7-2.2,1.3-3.5,1.3
	C288.7,23.7,287.8,22.7,287.8,20.9"/>
<path class="st1" d="M297.8,22.9c1.2,0,1.5-0.2,1.5-0.7V11.1c0-0.6-0.4-1-1.6-1V9.5l3.3-0.1v6.2c1.1-0.8,2.3-1.4,3.7-1.4
	c1.4,0,2.3,1,2.3,2.8v5.3c0,0.5,0.3,0.7,1.5,0.7v0.6H304V23c1,0,1.3-0.2,1.3-0.7v-4.5c0-1.8-0.7-2.3-1.9-2.3c-0.9,0-1.7,0.4-2.3,0.8
	v6c0,0.5,0.3,0.7,1.3,0.7v0.6h-4.5L297.8,22.9L297.8,22.9z"/>
<path class="st1" d="M315.2,21.3v-2.7c-2.9,0.6-3.6,1.1-3.6,2.4c0,0.9,0.5,1.5,1.5,1.5C313.9,22.6,314.8,22,315.2,21.3 M309.7,21.5
	c0-0.8,0.4-1.6,1.2-2.1c1.5-0.9,4-1.2,4.3-1.4v-0.6c0-2-0.6-2.7-1.9-2.7c-0.7,0-1,0.2-1.4,0.5c0.2,0.3,0.2,0.7,0.2,1
	c0,0.6-0.4,1.1-1.1,1.1s-1-0.5-1-1.1c0-1.2,1.6-2.1,3.5-2.1c2.1,0,3.3,1,3.3,2.9v4.6c0,1,0.2,1.2,1.6,1.1l0.1,0.5
	c-0.7,0.3-1.2,0.4-1.9,0.4c-1.1,0-1.3-0.5-1.4-1.6h-0.1c-0.8,0.9-1.8,1.6-3,1.6C310.5,23.7,309.7,22.6,309.7,21.5"/>
<path class="st1" d="M319.3,22.9c1.2,0,1.5-0.2,1.5-0.7v-6.3c0-0.6-0.3-1-1.5-1v-0.6l3.1-0.1v1.4c1.1-0.8,2.3-1.5,3.7-1.5
	c1.4,0,2.3,1,2.3,2.8v5.3c0,0.5,0.3,0.7,1.5,0.7v0.6h-4.5v-0.6c1,0,1.3-0.2,1.3-0.7v-4.5c0-1.8-0.7-2.3-1.9-2.3
	c-0.9,0-1.7,0.4-2.3,0.8v6c0,0.5,0.3,0.7,1.3,0.7v0.6h-4.5V22.9z"/>
<path class="st1" d="M337.9,21.9v-6c-0.5-0.8-1.1-1.2-2.1-1.2c-1.4,0-2.7,1.5-2.7,4.2c0,2.2,1.1,3.8,2.9,3.8
	C336.7,22.7,337.3,22.4,337.9,21.9 M331.2,19c0-2.8,1.8-5,4.5-5c1,0,1.6,0.2,2.2,0.5V11c0-0.6-0.4-1-1.6-1V9.5l3.3-0.1v12.8
	c0,0.5,0.3,0.7,1.5,0.7v0.6l-3.1,0.1v-1.1c-0.7,0.7-1.6,1.2-2.8,1.2C332.7,23.7,331.2,21.7,331.2,19"/>
<path class="st1" d="M348,17.2c0-1.7-0.9-2.5-1.9-2.5s-1.7,0.7-1.7,2.5c0,1.9,0.9,2.5,1.9,2.5C347.3,19.8,348,19.1,348,17.2
	 M349.5,25c0-0.8-0.5-1.4-2.7-1.4h-1.7c-1.1,0.3-1.7,0.7-1.7,1.7s0.9,1.8,3.1,1.8C348.3,27,349.5,26.2,349.5,25 M347.9,14.5
	c0.4-0.8,1.1-1.6,2-1.6c0.7,0,1.1,0.4,1.1,1c0,0.4-0.3,0.8-0.8,0.8c-0.4,0-0.8-0.4-0.8-1c-0.4,0.1-0.9,0.5-1.1,1
	c0.9,0.5,1.4,1.4,1.4,2.5c0,2-1.5,3.1-3.6,3.1c-0.4,0-0.8,0-1.2-0.1c-0.6,0.3-1,0.6-1,1s0.4,0.8,2.1,0.8h0.8c2.6,0,3.9,0.7,3.9,2.5
	c0,1.6-1.6,3.2-4.8,3.2c-2.5,0-4-1-4-2.2c0-0.9,1-1.9,2.5-2.1v-0.1c-1.3-0.2-1.7-0.7-1.7-1.6c0-0.6,0.6-1.2,1.5-1.7
	c-1-0.4-1.7-1.3-1.7-2.7c0-1.9,1.5-3.1,3.6-3.1C346.8,14.1,347.4,14.2,347.9,14.5"/>
<path class="st1" d="M354,18l4.4-0.1c0.2-1.7-0.5-3.2-2-3.2C355.1,14.7,354.1,15.7,354,18 M352.1,19c0-2.8,1.7-4.9,4.3-4.9
	c2.7,0,3.9,2.3,3.7,4.5h-6.2v0.1l0,0c0,2.2,1.1,3.9,3.1,3.9c1.1,0,2-0.7,2.9-1.7l0.4,0.4c-0.8,1.3-1.8,2.4-3.9,2.4
	C353.6,23.7,352.1,21.7,352.1,19"/>
<path class="st1" d="M362.1,20.6h0.6c0.9,1.5,1.9,2.5,3,2.5s1.7-0.8,1.7-1.5c0-1-0.6-1.3-2.4-1.9c-2-0.6-2.8-1.3-2.8-2.6
	c0-1.8,1.3-3,3.3-3c0.7,0,1.5,0.2,1.9,0.5l0.4-0.5h0.5v2.8h-0.6c-0.7-1.3-1.4-2.1-2.4-2.1s-1.6,0.6-1.6,1.5c0,0.8,0.7,1.3,2.3,1.7
	c1.9,0.5,2.8,1.3,2.8,2.6c0,1.7-1.1,3.1-3.1,3.1c-0.8,0-1.8-0.3-2.4-0.7l-0.6,0.7h-0.5L362.1,20.6L362.1,20.6z"/>
<path class="st1" d="M372.3,18l4.4-0.1c0.2-1.7-0.6-3.2-2-3.2C373.4,14.7,372.5,15.7,372.3,18 M370.4,19c0-2.8,1.7-4.9,4.3-4.9
	c2.7,0,3.9,2.3,3.7,4.5h-6.2v0.1l0,0c0,2.2,1.1,3.9,3.1,3.9c1.1,0,2-0.7,2.9-1.7l0.4,0.4c-0.8,1.3-1.8,2.4-3.9,2.4
	C371.9,23.7,370.4,21.7,370.4,19"/>
<path class="st1" d="M380.1,22.9c1.2,0,1.5-0.2,1.5-0.7V11.1c0-0.6-0.4-1-1.6-1V9.5l3.3-0.1v12.8c0,0.5,0.3,0.7,1.5,0.7v0.6h-4.7
	L380.1,22.9L380.1,22.9z"/>
<path class="st1" d="M385.9,22.9c1.2,0,1.5-0.2,1.5-0.7V11.1c0-0.6-0.4-1-1.6-1V9.5l3.3-0.1v12.8c0,0.5,0.3,0.7,1.5,0.7v0.6h-4.7
	L385.9,22.9L385.9,22.9z"/>
<path class="st1" d="M392.1,20.6h0.6c0.9,1.5,1.9,2.5,3,2.5s1.7-0.8,1.7-1.5c0-1-0.6-1.3-2.4-1.9c-2-0.6-2.8-1.3-2.8-2.6
	c0-1.8,1.3-3,3.3-3c0.7,0,1.5,0.2,1.9,0.5l0.4-0.5h0.5v2.8h-0.6c-0.6-1.3-1.4-2.1-2.4-2.1s-1.6,0.6-1.6,1.5c0,0.8,0.7,1.3,2.3,1.7
	c1.9,0.5,2.8,1.3,2.8,2.6c0,1.7-1.1,3.1-3.1,3.1c-0.8,0-1.8-0.3-2.4-0.7l-0.6,0.7h-0.5L392.1,20.6L392.1,20.6z"/>
<path class="st1" d="M400.5,19c0-2.8,1.9-4.9,4.5-4.9c2.1,0,3.2,1.2,3.2,2.2c0,0.7-0.4,1.2-1,1.2c-0.7,0-1.1-0.4-1.1-1
	c0-0.5,0.4-0.9,0.6-1.1c-0.3-0.3-0.9-0.6-1.7-0.6c-1.5,0-2.7,1.3-2.7,3.8c0,2.4,1.2,4,3.2,4c1,0,1.9-0.6,2.6-1.4l0.4,0.4
	c-0.9,1.2-1.9,2.1-3.7,2.1C402.1,23.7,400.5,21.7,400.5,19"/>
<path class="st1" d="M409,22.9c1.2,0,1.5-0.2,1.5-0.7V11.1c0-0.6-0.4-1-1.6-1V9.5l3.3-0.1v6.2c1.1-0.8,2.3-1.4,3.7-1.4
	c1.4,0,2.3,1,2.3,2.8v5.3c0,0.5,0.3,0.7,1.5,0.7v0.6h-4.5V23c1,0,1.3-0.2,1.3-0.7v-4.5c0-1.8-0.7-2.3-1.9-2.3
	c-0.9,0-1.7,0.4-2.3,0.8v6c0,0.5,0.3,0.7,1.3,0.7v0.6H409V22.9z"/>
<path class="st1" d="M426.5,21.3v-2.7c-2.9,0.6-3.6,1.1-3.6,2.4c0,0.9,0.5,1.5,1.5,1.5C425.2,22.6,426,22,426.5,21.3 M421,21.5
	c0-0.8,0.4-1.6,1.2-2.1c1.5-0.9,4-1.2,4.3-1.4v-0.6c0-2-0.6-2.7-1.9-2.7c-0.6,0-1,0.2-1.4,0.5c0.2,0.3,0.2,0.7,0.2,1
	c0,0.6-0.4,1.1-1.1,1.1c-0.6,0-1-0.5-1-1.1c0-1.2,1.6-2.1,3.5-2.1c2.1,0,3.3,1,3.3,2.9v4.6c0,1,0.2,1.2,1.6,1.1l0.1,0.5
	c-0.7,0.3-1.2,0.4-1.9,0.4c-1.1,0-1.3-0.5-1.4-1.6h-0.1c-0.8,0.9-1.8,1.6-3,1.6C421.7,23.7,421,22.6,421,21.5"/>
<path class="st1" d="M430.4,22.9c1.2,0,1.5-0.2,1.5-0.7v-7h-1.7v-0.6l1.7-0.4v-0.4c0-1.7,0.4-2.9,1.2-3.6c0.6-0.7,1.4-1,2.2-1
	c1.5,0,2.2,0.8,2.2,1.5c0,0.6-0.4,1.1-1,1.1c-0.5,0-1.1-0.3-1.1-1.3c0-0.2,0-0.3,0.1-0.5c-0.2-0.1-0.3-0.1-0.5-0.1
	c-0.3,0-0.6,0.1-0.9,0.3c-0.4,0.4-0.6,1-0.6,2.6v1.4h2.6v0.9h-2.6v7.1c0,0.5,0.4,0.6,2,0.7v0.6h-5.2L430.4,22.9L430.4,22.9z"/>
<path class="st1" d="M438.6,21.2v-6h-1.7v-0.6l1.8-0.4v-2.6l1.7-0.7v3.4h2.9v0.9h-2.9V21c0,1.1,0.4,1.6,1.3,1.6c0.6,0,1-0.4,1.5-1.1
	l0.5,0.3c-0.8,1.4-1.4,1.9-2.7,1.9C439.4,23.7,438.6,22.9,438.6,21.2"/>
<path class="st1" d="M113,48h0.6c1.1,2.4,2.4,3.5,4.1,3.5c2,0,2.9-1.4,2.9-2.6c0-1.5-1.1-2-3.5-2.9c-1.8-0.6-3.8-1.2-3.8-3.7
	s2-4.1,4.5-4.1c1.1,0,1.9,0.2,2.6,0.5l0.7-0.6h0.4V42h-0.6c-0.6-1.9-1.8-3.1-3.4-3.1c-1.4,0-2.5,0.9-2.5,2.5c0,1.5,1.2,1.9,3.3,2.7
	c1.8,0.6,3.8,1.3,3.8,3.8c0,2-1.2,4.4-4.5,4.4c-1.1,0-2.3-0.2-3-0.6l-1,0.7H113V48z"/>
<path class="st1" d="M130.5,47.3c0-2.8-1.1-4.2-2.7-4.2c-1.6,0-2.6,1.3-2.6,4.2c0,2.8,1.1,4.2,2.7,4.2S130.5,50.1,130.5,47.3
	 M123.3,47.3c0-2.8,1.8-4.8,4.5-4.8c2.9,0,4.5,1.9,4.5,4.8c0,2.8-1.8,4.9-4.5,4.9C125,52.1,123.3,50.2,123.3,47.3"/>
<path class="st1" d="M134.1,47.4c0-2.8,1.9-4.9,4.5-4.9c2.1,0,3.2,1.2,3.2,2.2c0,0.7-0.4,1.2-1,1.2c-0.7,0-1.1-0.4-1.1-1
	c0-0.5,0.4-0.9,0.6-1.1c-0.3-0.3-0.9-0.6-1.7-0.6c-1.5,0-2.7,1.3-2.7,3.8c0,2.4,1.2,4,3.2,4c1,0,1.9-0.6,2.6-1.4l0.4,0.4
	c-0.9,1.2-1.9,2.1-3.7,2.1C135.7,52.1,134.1,50.1,134.1,47.4"/>
<path class="st1" d="M144.4,39.1c0-0.7,0.5-1.2,1.2-1.2s1.2,0.5,1.2,1.2s-0.5,1.2-1.2,1.2S144.4,39.8,144.4,39.1 M143.3,51.3
	c1.2,0,1.5-0.2,1.5-0.7v-6.3c0-0.6-0.3-1-1.5-1v-0.6l3.2-0.1v8c0,0.5,0.3,0.7,1.5,0.7V52h-4.7V51.3z"/>
<path class="st1" d="M154,38.6c0.4-1,0.7-1.5,1.2-1.5s0.8,0.4,0.8,0.8c0,0.4-0.3,0.9-0.8,1.4l-1.6,1.7h-0.7L154,38.6z M151.1,46.4
	l4.4-0.1c0.2-1.7-0.6-3.2-2-3.2C152.2,43.1,151.3,44.1,151.1,46.4 M149.3,47.4c0-2.8,1.7-4.9,4.3-4.9c2.7,0,3.9,2.3,3.7,4.5h-6.2
	v0.1l0,0c0,2.2,1.1,3.9,3.1,3.9c1.1,0,2-0.7,2.9-1.7l0.4,0.4c-0.8,1.3-1.8,2.4-3.9,2.4C150.8,52.1,149.3,50.1,149.3,47.4"/>
<path class="st1" d="M160.2,49.6v-6h-1.7V43l1.8-0.4V40l1.7-0.7v3.4h2.9v0.9H162v5.8c0,1.1,0.4,1.6,1.3,1.6c0.6,0,1-0.4,1.5-1.1
	l0.5,0.3c-0.8,1.4-1.4,1.9-2.7,1.9C161,52.1,160.2,51.3,160.2,49.6"/>
<path class="st1" d="M170.9,38.6c0.4-1,0.7-1.5,1.2-1.5s0.8,0.4,0.8,0.8c0,0.4-0.3,0.9-0.8,1.4l-1.6,1.7h-0.7L170.9,38.6z M168,46.4
	l4.4-0.1c0.2-1.7-0.6-3.2-2-3.2C169.1,43.1,168.2,44.1,168,46.4 M166.2,47.4c0-2.8,1.7-4.9,4.3-4.9c2.7,0,3.9,2.3,3.7,4.5H168v0.1
	l0,0c0,2.2,1.1,3.9,3.1,3.9c1.1,0,2-0.7,2.9-1.7l0.4,0.4c-0.8,1.3-1.8,2.4-3.9,2.4C167.7,52.1,166.2,50.1,166.2,47.4"/>
<path class="st1" d="M179.7,51.3c1.7-0.1,2.1-0.2,2.1-0.9V40.1c0-0.6-0.4-0.8-2.1-0.9v-0.7h10.8l0.1,3.8H190
	c-0.7-2.3-1.4-3.1-3.6-3.1h-2.6v5.5h1.3c1.5,0,1.8-0.2,2.4-2.2h0.5v5.2h-0.5c-0.5-2.1-0.9-2.3-2.4-2.3h-1.3v4.8
	c0,0.7,0.4,0.8,2.2,0.9V52h-6.3L179.7,51.3L179.7,51.3z"/>
<path class="st1" d="M192.8,39.1c0-0.7,0.5-1.2,1.2-1.2s1.2,0.5,1.2,1.2s-0.5,1.2-1.2,1.2C193.2,40.3,192.8,39.8,192.8,39.1
	 M191.6,51.3c1.2,0,1.5-0.2,1.5-0.7v-6.3c0-0.6-0.3-1-1.5-1v-0.6l3.2-0.1v8c0,0.5,0.3,0.7,1.5,0.7V52h-4.7V51.3z"/>
<path class="st1" d="M204.3,50.3v-6c-0.5-0.8-1.1-1.2-2.1-1.2c-1.4,0-2.7,1.5-2.7,4.2c0,2.2,1.1,3.8,2.9,3.8
	C203.1,51.2,203.7,50.8,204.3,50.3 M197.6,47.5c0-2.8,1.8-5,4.5-5c1,0,1.6,0.2,2.2,0.5v-3.5c0-0.6-0.4-1-1.6-1v-0.6l3.3-0.1v12.8
	c0,0.5,0.3,0.7,1.5,0.7V52l-3.1,0.1V51c-0.7,0.7-1.6,1.2-2.8,1.2C199.1,52.1,197.6,50.1,197.6,47.5"/>
<path class="st1" d="M209.4,49.3v-5.2c0-0.6-0.3-0.8-1.5-0.8v-0.6l3.2-0.1v6c0,1.8,0.7,2.3,2,2.3c0.9,0,1.5-0.3,2.1-0.7v-6
	c0-0.6-0.4-0.8-1.5-0.8v-0.6l3.2-0.1v8c0,0.5,0.3,0.7,1.5,0.7V52h-3.1v-1.2c-1,0.7-2.2,1.3-3.5,1.3
	C210.4,52.1,209.4,51.1,209.4,49.3"/>
<path class="st1" d="M219.7,47.4c0-2.8,1.9-4.9,4.5-4.9c2.1,0,3.2,1.2,3.2,2.2c0,0.7-0.4,1.2-1,1.2c-0.7,0-1.1-0.4-1.1-1
	c0-0.5,0.4-0.9,0.6-1.1c-0.3-0.3-0.9-0.6-1.7-0.6c-1.5,0-2.7,1.3-2.7,3.8c0,2.4,1.2,4,3.2,4c1,0,1.9-0.6,2.6-1.4l0.4,0.4
	c-0.9,1.2-1.9,2.1-3.7,2.1C221.4,52.1,219.7,50.1,219.7,47.4"/>
<path class="st1" d="M230.1,39.1c0-0.7,0.5-1.2,1.2-1.2s1.2,0.5,1.2,1.2s-0.5,1.2-1.2,1.2S230.1,39.8,230.1,39.1 M229,51.3
	c1.2,0,1.5-0.2,1.5-0.7v-6.3c0-0.6-0.3-1-1.5-1v-0.6l3.2-0.1v8c0,0.5,0.3,0.7,1.5,0.7V52H229V51.3z"/>
<path class="st1" d="M240.5,49.8v-2.7c-2.9,0.6-3.6,1.1-3.6,2.4c0,0.9,0.5,1.5,1.5,1.5C239.3,51,240.1,50.4,240.5,49.8 M235,50
	c0-0.8,0.4-1.6,1.2-2.1c1.5-0.9,4-1.2,4.3-1.4v-0.6c0-2-0.6-2.7-1.9-2.7c-0.6,0-1,0.2-1.4,0.5c0.2,0.3,0.2,0.7,0.2,1
	c0,0.6-0.4,1.1-1.1,1.1c-0.6,0-1-0.5-1-1.1c0-1.2,1.6-2.1,3.5-2.1c2.1,0,3.3,1,3.3,2.9v4.6c0,1,0.2,1.2,1.6,1.1l0.1,0.5
	c-0.7,0.3-1.2,0.4-1.9,0.4c-1.1,0-1.3-0.5-1.4-1.6h-0.1c-0.8,0.9-1.8,1.6-3,1.6C235.8,52.1,235,51.1,235,50"/>
<path class="st1" d="M245.8,39.1c0-0.7,0.5-1.2,1.2-1.2s1.2,0.5,1.2,1.2s-0.5,1.2-1.2,1.2S245.8,39.8,245.8,39.1 M244.7,51.3
	c1.2,0,1.5-0.2,1.5-0.7v-6.3c0-0.6-0.3-1-1.5-1v-0.6l3.2-0.1v8c0,0.5,0.3,0.7,1.5,0.7V52h-4.7V51.3z"/>
<path class="st1" d="M250.2,51.3c1.2,0,1.5-0.2,1.5-0.7v-6.3c0-0.6-0.3-1-1.5-1v-0.6l3.1-0.1v1.6c0.7-0.9,1.6-1.6,2.7-1.6
	c1,0,1.5,0.7,1.5,1.4c0,0.6-0.4,1.2-1.1,1.2c-0.6,0-1.1-0.4-1.1-1.1c0-0.1,0-0.2,0-0.3c-0.9,0-1.6,0.6-2,1.2v5.7
	c0,0.5,0.4,0.7,1.7,0.7V52h-4.9v-0.7H250.2z"/>
<path class="st1" d="M260.4,46.4l4.4-0.1c0.2-1.7-0.5-3.2-2-3.2C261.5,43.1,260.6,44.1,260.4,46.4 M258.6,47.4
	c0-2.8,1.7-4.9,4.3-4.9c2.7,0,3.9,2.3,3.7,4.5h-6.2v0.1l0,0c0,2.2,1.1,3.9,3.1,3.9c1.1,0,2-0.7,2.9-1.7l0.4,0.4
	c-0.8,1.3-1.8,2.4-3.9,2.4C260.1,52.1,258.6,50.1,258.6,47.4"/>
<path class="st1" d="M272.2,48h0.6c1.1,2.4,2.4,3.5,4.1,3.5c2,0,2.9-1.4,2.9-2.6c0-1.5-1.1-2-3.5-2.9c-1.8-0.6-3.8-1.2-3.8-3.7
	s2-4.1,4.5-4.1c1.1,0,1.9,0.2,2.6,0.5l0.7-0.6h0.4V42H280c-0.7-1.9-1.8-3.1-3.4-3.1c-1.4,0-2.5,0.9-2.5,2.5c0,1.5,1.2,1.9,3.3,2.7
	c1.8,0.6,3.8,1.3,3.8,3.8c0,2-1.2,4.4-4.5,4.4c-1.1,0-2.3-0.2-3-0.6l-1,0.7h-0.5L272.2,48L272.2,48z"/>
<path class="st1" d="M283.7,49.3v-5.2c0-0.6-0.3-0.8-1.5-0.8v-0.6l3.2-0.1v6c0,1.8,0.7,2.3,2.1,2.3c0.9,0,1.5-0.3,2.1-0.7v-6
	c0-0.6-0.4-0.8-1.5-0.8v-0.6l3.2-0.1v8c0,0.5,0.3,0.7,1.5,0.7V52h-3.1v-1.2c-1,0.7-2.2,1.3-3.5,1.3
	C284.6,52.1,283.7,51.1,283.7,49.3"/>
<path class="st1" d="M295.1,39.1c0-0.7,0.5-1.2,1.2-1.2s1.2,0.5,1.2,1.2s-0.5,1.2-1.2,1.2C295.5,40.3,295.1,39.8,295.1,39.1
	 M293.9,51.3c1.2,0,1.5-0.2,1.5-0.7v-6.3c0-0.6-0.3-1-1.5-1v-0.6l3.2-0.1v8c0,0.5,0.3,0.7,1.5,0.7V52h-4.7V51.3z"/>
<path class="st1" d="M300.1,49h0.6c0.9,1.5,1.9,2.5,3,2.5s1.7-0.8,1.7-1.5c0-1-0.6-1.3-2.4-1.9c-2-0.6-2.8-1.3-2.8-2.6
	c0-1.8,1.3-3,3.3-3c0.7,0,1.5,0.2,1.9,0.5l0.4-0.5h0.5v2.8h-0.6c-0.6-1.3-1.4-2.1-2.4-2.1s-1.6,0.6-1.6,1.5c0,0.8,0.7,1.3,2.3,1.7
	c1.9,0.5,2.8,1.3,2.8,2.6c0,1.7-1.1,3.1-3.1,3.1c-0.8,0-1.8-0.3-2.4-0.7l-0.6,0.7h-0.5L300.1,49L300.1,49z"/>
<path class="st1" d="M308.2,49h0.6c0.9,1.5,1.9,2.5,3,2.5s1.7-0.8,1.7-1.5c0-1-0.6-1.3-2.4-1.9c-2-0.6-2.8-1.3-2.8-2.6
	c0-1.8,1.3-3,3.3-3c0.7,0,1.5,0.2,1.9,0.5l0.4-0.5h0.5v2.8h-0.6c-0.6-1.3-1.4-2.1-2.4-2.1s-1.6,0.6-1.6,1.5c0,0.8,0.7,1.3,2.3,1.7
	c1.9,0.5,2.8,1.3,2.8,2.6c0,1.7-1.1,3.1-3.1,3.1c-0.8,0-1.8-0.3-2.4-0.7l-0.6,0.7h-0.5L308.2,49L308.2,49z"/>
<path class="st1" d="M318.4,46.4l4.4-0.1c0.2-1.7-0.5-3.2-2-3.2C319.5,43.1,318.6,44.1,318.4,46.4 M316.5,47.4
	c0-2.8,1.7-4.9,4.3-4.9c2.7,0,3.9,2.3,3.7,4.5h-6.2v0.1l0,0c0,2.2,1.1,3.9,3.1,3.9c1.1,0,2-0.7,2.9-1.7l0.4,0.4
	c-0.8,1.3-1.8,2.4-3.9,2.4C318,52.1,316.5,50.1,316.5,47.4"/>
<path class="st1" d="M106,76.4h0.6c1.1,2.4,2.4,3.5,4.1,3.5c2,0,2.9-1.4,2.9-2.6c0-1.5-1.1-2.1-3.5-2.9c-1.8-0.7-3.8-1.2-3.8-3.7
	s2-4.1,4.5-4.1c1.1,0,1.9,0.2,2.6,0.5l0.7-0.6h0.4v3.9h-0.6c-0.6-1.9-1.8-3.1-3.4-3.1c-1.4,0-2.5,0.9-2.5,2.5c0,1.5,1.2,1.9,3.3,2.7
	c1.8,0.6,3.8,1.3,3.8,3.8c0,2-1.2,4.4-4.5,4.4c-1.1,0-2.3-0.2-3-0.6l-1,0.6H106V76.4z"/>
<path class="st1" d="M122.4,72.9c-0.3-0.9-0.6-1.2-1.4-1.3V71h4.2v0.6c-0.9,0.1-1.3,0.3-1.3,0.7c0,0.1,0,0.2,0.1,0.4l2,5.5h0.1
	l1.6-4.6c0.1-0.4,0.3-0.8,0.3-1c0-0.4-0.3-0.7-1.2-0.9v-0.6h3.7v0.6c-1,0.1-1.4,0.6-1.7,1.5l-2.7,7.3h-0.9l-2.1-5.9l-2.4,5.9h-0.9
	l-2.8-7.6c-0.4-1-0.6-1.1-1.5-1.3V71h4.3v0.6c-0.9,0.1-1.2,0.3-1.2,0.6c0,0.1,0,0.3,0.1,0.4l2,5.5h0.1l1.9-4.7L122.4,72.9z"/>
<path class="st1" d="M132.1,67.5c0-0.7,0.5-1.2,1.2-1.2s1.2,0.5,1.2,1.2s-0.5,1.2-1.2,1.2S132.1,68.3,132.1,67.5 M131,79.8
	c1.2,0,1.5-0.2,1.5-0.7v-6.3c0-0.6-0.3-1-1.5-1v-0.6l3.2-0.1v8c0,0.5,0.3,0.7,1.5,0.7v0.6H131V79.8z"/>
<path class="st1" d="M137.2,77.4h0.6c0.9,1.5,1.9,2.5,3,2.5s1.7-0.8,1.7-1.5c0-1-0.6-1.3-2.4-1.9c-2-0.6-2.8-1.3-2.8-2.6
	c0-1.8,1.3-3,3.3-3c0.6,0,1.5,0.2,1.9,0.5l0.4-0.5h0.5v2.8h-0.6c-0.7-1.3-1.4-2.1-2.4-2.1s-1.6,0.6-1.6,1.5c0,0.8,0.7,1.3,2.3,1.7
	c1.9,0.5,2.8,1.3,2.8,2.6c0,1.7-1.1,3.1-3.1,3.1c-0.8,0-1.8-0.3-2.4-0.7l-0.6,0.7h-0.5L137.2,77.4L137.2,77.4z"/>
<path class="st1" d="M145.7,77.4h0.6c0.9,1.5,1.9,2.5,3,2.5s1.7-0.8,1.7-1.5c0-1-0.6-1.3-2.4-1.9c-2-0.6-2.8-1.3-2.8-2.6
	c0-1.8,1.3-3,3.3-3c0.6,0,1.5,0.2,1.9,0.5l0.4-0.5h0.5v2.8h-0.6c-0.6-1.3-1.4-2.1-2.4-2.1s-1.6,0.6-1.6,1.5c0,0.8,0.7,1.3,2.3,1.7
	c1.9,0.5,2.8,1.3,2.8,2.6c0,1.7-1.1,3.1-3.1,3.1c-0.8,0-1.8-0.3-2.4-0.7l-0.6,0.7h-0.5L145.7,77.4L145.7,77.4z"/>
<path class="st1" d="M160.3,79.7c1.8-0.1,2.3-0.2,2.3-0.9v-11h-1c-1.9,0-2.3,1.1-3.1,3.5h-0.6l0.1-4.2h11.2l0.1,4.2h-0.6
	c-0.7-2.3-1.1-3.5-3.1-3.5h-1.1v11.1c0,0.6,0.4,0.8,2.3,0.9v0.7h-6.4L160.3,79.7L160.3,79.7z"/>
<path class="st1" d="M170.1,79.8c1.2,0,1.5-0.2,1.5-0.7v-6.3c0-0.6-0.3-1-1.5-1v-0.6l3.1-0.1v1.6c0.7-0.9,1.6-1.6,2.7-1.6
	c1,0,1.5,0.7,1.5,1.4c0,0.7-0.4,1.2-1.1,1.2c-0.6,0-1.1-0.4-1.1-1.1c0-0.1,0-0.2,0-0.3c-0.9,0-1.6,0.6-2,1.2V79
	c0,0.5,0.4,0.7,1.7,0.7v0.6H170v-0.5H170.1z"/>
<path class="st1" d="M179.6,77.7v-5.2c0-0.6-0.3-0.8-1.5-0.8v-0.6l3.2-0.1v6c0,1.8,0.7,2.3,2,2.3c0.9,0,1.5-0.3,2.1-0.7v-6
	c0-0.6-0.4-0.8-1.5-0.8v-0.6l3.2-0.1v8c0,0.5,0.3,0.7,1.5,0.7v0.6h-3.1v-1.2c-1,0.7-2.2,1.3-3.5,1.3
	C180.5,80.5,179.6,79.5,179.6,77.7"/>
<path class="st1" d="M190.1,77.4h0.6c0.9,1.5,1.9,2.5,3,2.5s1.7-0.8,1.7-1.5c0-1-0.6-1.3-2.4-1.9c-2-0.6-2.8-1.3-2.8-2.6
	c0-1.8,1.3-3,3.3-3c0.6,0,1.5,0.2,1.9,0.5l0.4-0.5h0.5v2.8h-0.6c-0.6-1.3-1.4-2.1-2.4-2.1s-1.6,0.6-1.6,1.5c0,0.8,0.7,1.3,2.3,1.7
	c1.9,0.5,2.8,1.3,2.8,2.6c0,1.7-1.1,3.1-3.1,3.1c-0.8,0-1.8-0.3-2.4-0.7l-0.6,0.7h-0.5L190.1,77.4L190.1,77.4z"/>
<path class="st1" d="M199.5,78v-6h-1.7v-0.6l1.8-0.4v-2.6l1.7-0.7v3.4h2.9V72h-2.9v5.8c0,1.1,0.4,1.6,1.3,1.6c0.6,0,1-0.4,1.5-1.1
	l0.5,0.3c-0.8,1.4-1.4,1.9-2.7,1.9C200.3,80.5,199.5,79.7,199.5,78"/>
<path class="st1" d="M209.3,73.9c0-4.1,3-7.2,6.8-7.2c1.4,0,2.6,0.5,3.3,0.9l0.6-0.9h0.6v4.4H220c-0.9-2.3-2.1-3.7-4.1-3.7
	c-2.3,0-4.4,2.2-4.4,6.4c0,3.9,2.5,5.9,4.8,5.9s3.5-1.4,4.3-3.1l0.7,0.3c-0.8,1.9-2.6,3.8-5.5,3.8C212,80.7,209.3,78,209.3,73.9"/>
<path class="st1" d="M229.6,75.7c0-2.8-1.1-4.2-2.7-4.2c-1.6,0-2.6,1.3-2.6,4.2c0,2.8,1.1,4.2,2.7,4.2
	C228.6,79.9,229.6,78.6,229.6,75.7 M222.4,75.8c0-2.8,1.8-4.8,4.5-4.8c2.9,0,4.5,1.9,4.5,4.8c0,2.8-1.8,4.9-4.5,4.9
	C224.1,80.5,222.4,78.6,222.4,75.8"/>
<path class="st1" d="M238.8,79.8c1,0,1.2-0.2,1.2-0.7v-4.5c0-1.8-0.7-2.3-1.9-2.3c-0.9,0-1.5,0.4-2.1,0.8v6c0,0.5,0.1,0.7,1.2,0.7
	v0.6h-4.3v-0.6c1.2,0,1.5-0.2,1.5-0.7v-6.3c0-0.6-0.3-1-1.5-1v-0.6l3.1-0.1v1.4c1.1-0.8,2.2-1.5,3.5-1.5c1.1,0,1.8,0.6,2.1,1.7
	c1.2-1.1,2.4-1.7,3.7-1.7c1.4,0,2.2,1,2.2,2.8V79c0,0.5,0.3,0.7,1.5,0.7v0.6h-4.4v-0.6c1,0,1.2-0.2,1.2-0.7v-4.5
	c0-1.8-0.7-2.3-1.9-2.3c-0.7,0-1.4,0.4-2.2,1c0,0.3,0,0.5,0,0.6V79c0,0.5,0.2,0.7,1.4,0.7v0.6h-4.2v-0.5H238.8z"/>
<path class="st1" d="M257.4,75.6c0-2.2-1-3.7-2.5-3.7c-1.1,0-1.8,0.6-2.4,1.1v5.1c0.4,1.3,1.1,1.8,2.3,1.8
	C256.2,79.9,257.4,78.4,257.4,75.6 M249.4,83.7c1.2,0,1.5-0.2,1.5-0.7V72.7c0-0.6-0.3-1-1.5-1v-0.6l3.1-0.1v1.3
	c0.9-0.8,1.8-1.4,3-1.4c2.4,0,3.7,1.9,3.7,4.5c0,2.8-1.5,5-4.1,5c-1,0-1.8-0.3-2.6-0.6v3.1c0,0.5,0.5,0.7,1.9,0.7v0.6h-5.1v-0.5
	H249.4z"/>
<path class="st1" d="M266.5,78.2v-2.7c-2.9,0.6-3.6,1.1-3.6,2.4c0,0.9,0.5,1.5,1.5,1.5C265.2,79.4,266,78.8,266.5,78.2 M261,78.4
	c0-0.8,0.4-1.6,1.2-2.1c1.5-0.9,4-1.2,4.3-1.4v-0.6c0-2-0.6-2.7-1.9-2.7c-0.7,0-1,0.2-1.4,0.5c0.2,0.3,0.2,0.7,0.2,1
	c0,0.6-0.4,1.1-1.1,1.1s-1-0.5-1-1.1c0-1.2,1.6-2.1,3.5-2.1c2.1,0,3.3,1,3.3,2.9v4.6c0,1,0.2,1.2,1.6,1.1l0.1,0.5
	c-0.7,0.3-1.2,0.4-1.9,0.4c-1.1,0-1.3-0.5-1.4-1.6h-0.1c-0.8,0.9-1.8,1.6-3,1.6C261.7,80.5,261,79.5,261,78.4"/>
<path class="st1" d="M270.6,79.8c1.2,0,1.5-0.2,1.5-0.7v-6.3c0-0.6-0.3-1-1.5-1v-0.6l3.1-0.1v1.4c1.1-0.8,2.3-1.5,3.7-1.5
	c1.4,0,2.3,1,2.3,2.8V79c0,0.5,0.3,0.7,1.5,0.7v0.6h-4.5v-0.6c1,0,1.3-0.2,1.3-0.7v-4.5c0-1.8-0.7-2.3-1.9-2.3
	c-0.9,0-1.7,0.4-2.3,0.8v6c0,0.5,0.3,0.7,1.3,0.7v0.6h-4.5V79.8z"/>
<path class="st1" d="M282.9,72.9c-0.4-0.9-0.6-1.2-1.5-1.3V71h4.6v0.6c-1.3,0.1-1.6,0.4-1.3,1l2.3,5.5l1.9-4.7
	c0.5-1.2,0.4-1.7-1-1.9v-0.6h3.7v0.6c-0.6,0.1-1.2,0.5-1.6,1.5l-3.4,8.1c-1,2.5-2.1,3.2-3.2,3.2s-1.7-0.6-1.7-1.4
	c0-0.6,0.4-1.2,1.1-1.2c0.6,0,1.1,0.5,1.1,1.1c0,0.2,0,0.4-0.1,0.6c0.7,0,1.3-0.7,2.3-3l0.1-0.2L282.9,72.9z"/>
</svg>
