<?xml version="1.0" encoding="utf-8"?>
<!-- Generator: Adobe Illustrator 27.2.0, SVG Export Plug-In . SVG Version: 6.00 Build 0)  -->
<svg version="1.1" id="Ebene_1" xmlns="http://www.w3.org/2000/svg" xmlns:xlink="http://www.w3.org/1999/xlink" x="0px" y="0px"
	 viewBox="0 0 283 92" style="enable-background:new 0 0 283 92;" xml:space="preserve">
<g id="BT-UI-Desktop">
	<g id="BT---OBT-Gruppe" transform="translate(-829.000000, -1898.000000)">
		<g id="BakerTillySwitzerland-logo" transform="translate(829.495567, 1898.000000)">
			<path id="Shape" d="M59.7,24.9l7.3-3.3v12.2c1.9-0.6,3.4-1.2,7.3-1.2c8.3,0,12.4,4.4,12.4,14.4c0,11.7-4.6,14.4-15.3,14.4
				c-5.1,0-9.5-0.9-11.7-1.9L59.7,24.9L59.7,24.9z M71.9,55.5c5.7,0,7.5-3.2,7.5-8.5c0-5.1-1.8-8.3-7.5-8.3c-1.6,0-3.1,0.3-4.9,0.9
				v15C68.3,55,70.1,55.5,71.9,55.5z M101.3,61.4c-9.3,0-11.9-2.9-11.9-8.8c0-6.1,2.7-8.8,11.6-8.8c2.8,0,5.4,0.4,6.3,0.5v-1.8
				c0-2.2-1.2-3.8-7-3.8c-4.7,0-7.3,1.3-8.2,1.7l-0.6-5.7c1.2-0.5,5.1-2.1,10.9-2.1c8.7,0,12.2,3.7,12.2,10.8v15.9
				C112.4,60.2,107.1,61.4,101.3,61.4z M107.3,49.2c-1.3-0.2-3.8-0.6-5.8-0.6c-4.8,0-5.2,2-5.2,3.7c0,2.8,1.3,3.8,5.3,3.8
				c2.7,0,4.6-0.4,5.6-0.7V49.2z M202.4,61c2.9,0,4.8-0.5,5.1-0.5l0.3-5.6c-0.3,0.1-1.7,0.5-2.6,0.5c-3.4,0-4.4-2.4-4.4-5.5v-10h7.8
				v-6.5h-7.8v-5.8l-7.3,3.3v21.1C193.6,58.2,196.9,61,202.4,61z M126.9,60.7v-12h1.7l8.9,12h8.2l-11.4-15.9l10.4-11.4h-8l-8.2,9.2
				h-1.6V21.6l-7.3,3.3v35.8H126.9z M160,55.3c4.1,0,6.7-0.9,8-1.3l0.7,5.4c-1.1,0.5-4.6,1.9-9.1,1.9c-10,0-15.1-5.1-15.1-14.9
				c0-9.9,4.9-13.9,13.5-13.9c9.3,0,12.3,5.1,12.3,13.8c0,0.9-0.1,2.2-0.2,2.7h-18.3C151.7,54,155.4,55.3,160,55.3z M163.3,44v-0.6
				c0-3.7-1.6-5.4-5.7-5.4c-4.1,0-5.7,2.2-5.8,6H163.3z M216.5,30.1c-2.2,0-3.9-0.9-3.9-4c0-2.9,1.5-4.1,3.9-4.1
				c2.5,0,4.1,0.9,4.1,4C220.5,29,219,30.1,216.5,30.1z M212.8,60.7V33.3l7.3,0v27.3H212.8z M239.2,60.7l0.3-5.5
				c-0.3,0.1-1.1,0.2-1.8,0.2c-2.5,0-3.2-1.6-3.2-3.8v-30l-7.3,3.3V53c0,4,2,8,7.8,8C237.2,61,238.9,60.7,239.2,60.7z M254.3,60.7
				l0.3-5.5c-0.3,0.1-1.1,0.2-1.8,0.2c-2.5,0-3.2-1.6-3.2-3.8v-30l-7.3,3.3V53c0,4,2,8,7.8,8C252.3,61,254,60.7,254.3,60.7z
				 M181.5,60.7V39.5c0.8-0.3,2.9-0.6,5.1-0.6c1.2,0,3.1,0.1,4.1,0.2v-6.2c-0.8-0.2-2.8-0.3-4.8-0.3c-4.8,0-9.4,1.3-11.8,2.4v25.6
				H181.5L181.5,60.7z M256.9,73.1c0.2,0,1.6-0.2,1.9-0.3c6.6-1,11.4-3.9,14.1-11.9c1.8-5.4,9-27.5,9-27.5h-7.7l-6.1,20.9h-1.2
				l-4.7-20.9h-8l7.8,27.3h4.2c0,0-0.2,0.5-0.3,1c-0.9,3-5.7,5.1-10.1,5.7L256.9,73.1z"/>
			<path id="Shape_00000112610118525073940790000014664326527355366568_" d="M44.3,21.1c0,0.5,0,1.5,0,2c-2.1-3.7-6.2-5.8-10.4-5.8
				c-6.2,0-11.8,5.4-11.8,12.5c0,7,5.7,12,12,12c1.7,0,3.5-0.4,5.1-1.1c-0.7,1-1.4,2-2.3,2.9c-0.4,0.4-0.8,0.9-1.3,1.1
				c-0.6,0.2-1.9,0.7-4.1,0.7c-7.5,0-12.7-5.6-15.1-9.1c-2.4-3.6-4.5-8.3-4.5-13.5c0-10.2,8.5-15.5,17.9-15.5
				C39.9,7.4,44.3,15.4,44.3,21.1z M34.9,20.6c-5.6,0-10.3,4.2-10.3,9.7c0,5.2,4.3,10.1,10.4,10.1c1.4,0,2.9-0.3,4.2-0.9
				c0.2-0.1,0.5-0.2,0.7-0.3c0.2-0.1,0.2-0.3,0.3-0.5c1.7-2.8,3.5-9.1,3.8-12.6c0-0.4-0.1-0.5-0.3-0.8
				C42.3,23.3,39.4,20.6,34.9,20.6z M33,1.3L33,1.3C31,0.4,28.1,0,25.2,0C12.3,0,0,7.2,0,19.4c0,4.3,1.4,8.9,3.8,13
				c2.7,4.7,6.5,8.9,11,12c3.4,2.3,7.4,3.9,11.4,3.9c3.4,0,5.7-0.9,6.5-1.6c-0.3,0.1-1.2,0.2-2.2,0.2c-10.7,0-18-9.5-20.8-16.4
				c-1.1-2.7-1.8-5.9-1.8-9C7.9,8.5,19.6,1.4,31,1.4c0.6,0,1.3,0,1.9,0.1C33,1.5,33,1.4,33,1.3C33,1.4,33,1.4,33,1.3z"/>
			<g id="Group" transform="translate(60.722628, 77.189781)">
				<path id="Path" d="M8.7,10.4c0,2.5-1.2,4-4.7,4c-1.4,0-3-0.3-4.1-0.7l0.3-1.2c1,0.3,2.6,0.6,3.8,0.6c2.9,0,3.2-1.4,3.2-2.5
					c0-1-0.2-1.8-2.6-2.5L2.9,7.5C1.1,7,0.2,5.8,0.2,4c0-2.5,1.3-4,4.6-4c1,0,2.4,0.1,3.4,0.4L7.9,1.7C6.9,1.5,5.6,1.3,4.6,1.3
					c-2.6,0-3,1.1-3,2.5c0,1,0.2,1.8,2.2,2.4l1.8,0.6C7.8,7.5,8.7,8.3,8.7,10.4z"/>
				<path id="Path_00000070085303350487291770000009920445742200316809_" d="M16.2,14.2h-1.9L11.1,0.3l1.5-0.1
					c2.1,9,2.5,11,2.8,12.7c0.4-1.6,0.9-3.5,3.3-11.8h1.8c2.3,8.3,2.8,10.4,3.2,11.9c0.3-1.5,0.8-3.7,2.8-12.7l1.4,0.1l-3.3,13.8
					h-1.9C20.6,6.7,20,4.4,19.5,2.5C19,4.3,18.4,6.7,16.2,14.2z"/>
				<polygon id="Path_00000158017343053707274540000009198583325505324445_" points="31,14.2 31,0.3 32.5,0.3 32.5,14.2 				"/>
				<polygon id="Path_00000053526610307266042860000012782090989032947845_" points="39.9,14.2 39.9,1.6 35.6,1.6 35.6,0.3 
					45.6,0.3 45.6,1.6 41.3,1.6 41.3,14.2 				"/>
				<path id="Path_00000161594866480440524070000006597492965339569552_" d="M47.7,14.2v-1.3C54,4.2,55.2,2.6,56,1.6h-7.6V0.3h9.3
					v1.3c-6.6,9.1-7.1,9.8-8.2,11.2H58v1.3H47.7z"/>
				<polygon id="Path_00000038402946240081595210000011960030753165887925_" points="61.2,14.2 61.2,0.3 68.9,0.3 68.9,1.6 
					62.7,1.6 62.7,6.2 68.4,6.2 68.4,7.6 62.7,7.6 62.7,12.8 69.2,12.8 69.2,14.2 				"/>
				<path id="Shape_00000028305918294507196630000008560188805353555867_" d="M72.5,14.2V0.3c0.9-0.1,3.1-0.1,3.4-0.1
					c1.5,0,2.7,0.2,3.4,0.5c1.4,0.6,1.9,1.8,1.9,3.4c0,1.9-0.9,3.2-2.5,3.7l-0.1,0l3.3,6.3l-1.6,0l-3.1-6.1c-0.4,0-0.8,0-1.2,0h-2.1
					v6L72.5,14.2L72.5,14.2z M76.1,6.9c1.1,0,1.9-0.1,2.4-0.3c0.8-0.3,1.3-1.1,1.3-2.3c0-1.5-0.5-2-1.2-2.3
					c-0.4-0.2-1.2-0.3-2.5-0.3c-1,0-1.7,0-2.1,0v5.3H76.1z"/>
				<polygon id="Path_00000176021114303474625450000007104826971655949702_" points="85,14.2 85,0.3 86.5,0.3 86.5,12.8 93,12.8 
					93,14.2 				"/>
				<path id="Shape_00000172405053557989800050000011996949332392170143_" d="M96.8,14.2l-1.5-0.1l4.8-13.9h1.7l4.8,13.9l-1.5,0.1
					l-1.5-4.4h-5.2L96.8,14.2z M103.1,8.5c-1.4-4.3-1.8-5.4-2.2-6.7c-0.4,1.3-0.8,2.6-2.3,6.7H103.1L103.1,8.5z"/>
				<path id="Path_00000155138983301827184020000012519839230087212441_" d="M109.5,14.2V0.3h1.9c5,8.9,6,10.6,6.5,11.7
					c0-1.5,0-3.3,0-11.7h1.4v13.9h-1.7c-5.5-9.8-6.1-10.9-6.7-12.1c0,1.8,0,4.4,0,12.1H109.5L109.5,14.2z"/>
				<path id="Shape_00000003086257920704773020000007410462799057714611_" d="M123.6,0.3c1.1-0.1,2.2-0.1,3.3-0.1
					c1.6,0,2.7,0.1,3.5,0.4c2.3,0.7,3.4,2.9,3.4,6.4c0,3.2-0.8,5.6-3.5,6.6c-1,0.4-2.6,0.5-3.6,0.5c-1.1,0-2.2,0-3.1-0.1L123.6,0.3
					L123.6,0.3z M125,12.8c0.6,0.1,1.4,0.1,2,0.1c1.3,0,2.3-0.2,3-0.5c1.8-0.9,2.3-2.9,2.3-5.3c0-2.4-0.5-4.2-2.2-5
					c-0.7-0.4-1.7-0.5-3.1-0.5c-0.6,0-1.4,0-2,0.1V12.8L125,12.8z"/>
			</g>
		</g>
	</g>
</g>
</svg>
