<?xml version="1.0" encoding="UTF-8" ?>
<!DOCTYPE svg PUBLIC "-//W3C//DTD SVG 1.1//EN" "http://www.w3.org/Graphics/SVG/1.1/DTD/svg11.dtd">
<svg width="256pt" height="256pt" viewBox="0 0 256 256" version="1.1" xmlns="http://www.w3.org/2000/svg">
<path fill="#003d7f" opacity="1.00" d=" M 0.00 0.00 L 256.00 0.00 L 256.00 256.00 L 192.40 256.00 C 202.57 244.22 208.15 228.61 207.73 213.05 C 208.10 202.67 205.78 192.20 200.91 183.02 C 192.78 168.39 179.85 157.03 165.85 148.14 C 151.69 138.66 135.65 132.60 120.92 124.13 C 109.10 117.76 97.62 110.37 88.40 100.51 C 76.39 86.87 77.87 63.57 91.60 51.63 C 101.56 43.10 115.00 38.87 128.04 40.01 C 144.68 41.19 161.04 48.29 172.67 60.35 C 178.84 66.64 183.55 74.28 186.76 82.47 C 187.68 82.47 189.53 82.45 190.46 82.45 C 190.39 62.84 190.42 43.22 190.44 23.61 C 189.81 23.63 188.53 23.67 187.89 23.69 C 185.98 26.31 185.03 29.48 183.27 32.20 C 173.09 30.21 163.00 27.75 153.12 24.61 C 132.44 18.88 109.83 19.96 89.89 27.94 C 76.12 33.56 63.58 43.14 56.32 56.32 C 48.52 70.09 46.63 86.63 49.12 102.10 C 51.53 116.13 60.00 128.22 69.99 138.00 C 83.02 150.52 99.24 159.06 115.58 166.45 C 131.91 174.65 148.67 183.15 161.28 196.72 C 172.04 208.72 174.17 227.41 166.58 241.60 C 163.65 247.54 158.69 252.18 153.38 256.00 L 83.09 256.00 C 68.22 247.26 56.23 232.74 52.94 215.54 C 51.43 216.05 49.94 216.63 48.46 217.26 C 48.40 230.18 47.88 243.09 47.65 256.00 L 0.00 256.00 L 0.00 0.00 Z" />
<path fill="#ea5b0c" opacity="1.00" d=" M 89.89 27.94 C 109.83 19.96 132.44 18.88 153.12 24.61 C 163.00 27.75 173.09 30.21 183.27 32.20 C 185.03 29.48 185.98 26.31 187.89 23.69 C 188.53 23.67 189.81 23.63 190.44 23.61 C 190.42 43.22 190.39 62.84 190.46 82.45 C 189.53 82.45 187.68 82.47 186.76 82.47 C 183.55 74.28 178.84 66.64 172.67 60.35 C 161.04 48.29 144.68 41.19 128.04 40.01 C 115.00 38.87 101.56 43.10 91.60 51.63 C 77.87 63.57 76.39 86.87 88.40 100.51 C 97.62 110.37 109.10 117.76 120.92 124.13 C 135.65 132.60 151.69 138.66 165.85 148.14 C 179.85 157.03 192.78 168.39 200.91 183.02 C 205.78 192.20 208.10 202.67 207.73 213.05 C 208.15 228.61 202.57 244.22 192.40 256.00 L 153.38 256.00 C 158.69 252.18 163.65 247.54 166.58 241.60 C 174.17 227.41 172.04 208.72 161.28 196.72 C 148.67 183.15 131.91 174.65 115.58 166.45 C 99.24 159.06 83.02 150.52 69.99 138.00 C 60.00 128.22 51.53 116.13 49.12 102.10 C 46.63 86.63 48.52 70.09 56.32 56.32 C 63.58 43.14 76.12 33.56 89.89 27.94 Z" />
<path fill="#ea5b0c" opacity="1.00" d=" M 48.46 217.26 C 49.94 216.63 51.43 216.05 52.94 215.54 C 56.23 232.74 68.22 247.26 83.09 256.00 L 47.65 256.00 C 47.88 243.09 48.40 230.18 48.46 217.26 Z" />
</svg>
