<?xml version="1.0" encoding="utf-8"?>
<!-- Generator: Adobe Illustrator 25.2.0, SVG Export Plug-In . SVG Version: 6.00 Build 0)  -->
<svg version="1.1" id="Ebene_1" xmlns="http://www.w3.org/2000/svg" xmlns:xlink="http://www.w3.org/1999/xlink" x="0px" y="0px"
	 width="611px" height="361px" viewBox="0 0 611 361" style="enable-background:new 0 0 611 361;" xml:space="preserve">
<style type="text/css">
	.st0{display:none;}
	.st1{display:inline;}
	.st2{fill:#0097CC;}
	.st3{fill:#49484A;}
</style>
<g>
	<g>
		<g>
			<path d="M434.2999878,260.7999878H175.5V2h258.7999878V260.7999878z M183.1000061,253.1999969h243.6000061V9.6000004H183.1000061
				V253.1999969z"/>
		</g>
		<path d="M420.6000061,14.8999996h-113v112.9000015H420.5V14.8999996H420.6000061z M188.1999969,247.8999939h112.9000092v-113
			H188.1999969V247.8999939z M251.3999939,54.4000015l-20.3000031,24.9000015h20.3000031V54.4000015z M188.1999969,127.9000015
			h112.9000092v-113H188.1999969V127.9000015z M209.8999939,79.8000031l45.5-53.2999992h12.5v52.7999992h10.5V94h-10.5v19.0999985
			h-16.5V94h-41.5V79.8000031z M308.7999878,134.8999939v112.8999939h112.8999939V134.8999939H308.7999878z
			 M398.7000122,219.6000061c-1.6000061,3.3000031-3.7999878,6-6.7000122,8.1999969
			c-2.8999939,2.1999969-6.3999939,3.8000031-10.3999939,4.8999939c-4,1.1000061-8.5,1.6999969-13.2999878,1.6999969
			c-4.5,0-8.3999939-0.3000031-11.8999939-1c-3.3999939-0.6999969-6.6000061-1.6000061-9.3999939-2.6999969
			c-2.7999878-1.1000061-5.5-2.5-8-4.1000061s-5.1000061-3.3000031-7.7999878-5.1999969l9-13.1999969
			c4.2999878,3,8.7999878,5.6000061,13.3999939,7.6999969c4.6000061,2.1999969,9.3999939,3.1999969,14.5,3.1999969
			c2.7000122,0,5-0.3000031,7.1000061-1c2-0.6999969,3.7999878-1.5,5.2000122-2.6000061
			c1.3999939-1.1000061,2.5-2.3000031,3.2000122-3.6999969s1.1000061-2.6999969,1.1000061-4.1000061
			c0-1.6999969-0.5-3.1999969-1.6000061-4.3999939s-2.5-2.1999969-4.2999878-3s-3.8999939-1.5-6.2999878-2
			s-4.8999939-1.1000061-7.5-1.5c-1.7000122-0.3000031-3.7000122-0.6999969-6-1.1000061
			c-2.2999878-0.3999939-4.6000061-1-7.1000061-1.8000031c-2.3999939-0.6999969-4.7999878-1.6999969-7.2000122-3
			c-2.3999939-1.1999969-4.5-2.8000031-6.3999939-4.6000061s-3.3999939-4.1000061-4.5-6.6000061
			c-1.1000061-2.6000061-1.7000122-5.6000061-1.7000122-9c0-5,1-9.1999969,3.1000061-12.6000061
			c2-3.3000031,4.7000122-6,7.8999939-7.8999939c3.2000122-1.8999939,6.7000122-3.3000031,10.6000061-4.1000061
			s7.7000122-1.1999969,11.2999878-1.1999969c3.6000061,0,6.8999939,0.1999969,9.7000122,0.6999969
			c2.7999878,0.5,5.5,1.1999969,7.8999939,2.1000061c2.3999939,0.8999939,4.7999878,2,7.1000061,3.3999939
			c2.2999878,1.3999939,4.7999878,3,7.5,4.8999939l-9.2000122,13c-4.1000061-2.8000031-8-5-11.7999878-6.5
			s-7.7999878-2.1999969-11.8999939-2.1999969c-1.3999939,0-3,0.1999969-4.7999878,0.5
			c-1.7999878,0.3999939-3.5,0.8999939-5.1000061,1.6999969s-3,1.8000031-4,3
			c-1.1000061,1.1999969-1.6000061,2.6999969-1.6000061,4.3999939s0.6000061,3.1999969,1.8999939,4.3999939
			s2.8999939,2.1999969,4.7999878,3c2,0.8000031,4.1000061,1.5,6.5,2c2.3999939,0.6000061,4.6000061,1.1000061,6.8999939,1.6999969
			c1.7000122,0.3999939,3.6000061,0.8000031,5.7999878,1.1999969c2.2000122,0.3999939,4.6000061,0.8999939,7,1.6999969
			c2.3999939,0.6999969,4.7999878,1.6999969,7.1000061,2.8000031c2.3999939,1.1999969,4.5,2.6999969,6.2999878,4.5
			c1.7999878,1.8999939,3.2999878,4.1000061,4.5,6.8999939c1.1000061,2.6999969,1.7000122,6,1.7000122,9.8999939
			C401,212.3999939,400.2000122,216.3000031,398.7000122,219.6000061z"/>
	</g>
	<g>
		<path d="M64.5,339.2000122c-1.4000015,2.6000061-3.0999985,4.8999939-5.2000008,7
			C57.2000008,348.3000183,55,350.1000061,52.5,351.6000061s-5.2000008,2.7000122-8.0999985,3.5
			c-2.9000015,0.7999878-5.9000015,1.2000122-9,1.2000122c-4.6000004,0-8.8999996-0.8999939-12.8999996-2.6000061
			S14.9000015,349.6000061,11.9000015,346.5c-3-3-5.4000001-6.6000061-7.1999998-10.6000061S2.1000018,327.5,2.1000018,323
			s0.7999983-9,2.599998-13s4.0999994-7.6000061,7.1999998-10.6000061c3-3,6.6000004-5.3999939,10.6000004-7.2000122
			c4-1.7999878,8.3999996-2.6000061,12.9000015-2.6000061c3.0999985,0,6.0999985,0.3999939,9,1.2000122
			c2.9000015,0.7999878,5.5999985,2,8.0999985,3.5s4.7999992,3.2999878,6.7999992,5.3999939
			c2.0999985,2.1000061,3.7999992,4.3999939,5.2000008,6.8999939L53,311.2000122c-0.9000015-1.3999939-2-2.7000122-3.2999992-4
			C48.4000015,306,47,304.9000244,45.5,303.9000244c-1.5-0.8999939-3.0999985-1.7000122-4.7999992-2.2000122
			s-3.5-0.7999878-5.2999992-0.7999878c-2.9000015,0-5.7000008,0.6000061-8.2000008,1.7999878
			C24.6000004,303.9000244,22.4000015,305.5,20.6000004,307.5c-1.8999996,2-3.3999996,4.2999878-4.5,7
			s-1.6999998,5.3999939-1.6999998,8.2999878S15.000001,328.5,16.1000004,331.1999817
			c1.1000004,2.6000061,2.6000004,5,4.5,6.8999939c1.8999996,2,4.1000004,3.6000061,6.6000004,4.7999878
			c2.6000004,1.2000122,5.2999992,1.7999878,8.2000008,1.7999878c1.7999992,0,3.5999985-0.2999878,5.2999992-0.7999878
			S44,342.5999756,45.5,341.6999512c1.5-0.8999939,2.9000015-2,4.2000008-3.2999878s2.4000015-2.6000061,3.2999992-4
			L64.5,339.2000122z"/>
		<path d="M104.0999985,356.2000122c-4.5999985,0-8.9000015-0.8999939-12.9000015-2.6000061
			S83.5999985,349.5,80.5999985,346.3999939c-3-3-5.4000015-6.6000061-7.1999969-10.6000061
			c-1.8000031-4-2.5999985-8.3999939-2.5999985-13s0.9000015-8.8999939,2.5999985-13
			c1.8000031-4.1000061,4.0999985-7.6000061,7.1999969-10.6000061c3-3,6.5999985-5.3999939,10.5999985-7.2000122
			s8.4000015-2.6000061,12.9000015-2.6000061c4.5999985,0,9,0.8999939,13,2.6000061
			c4,1.7999878,7.5999985,4.1000061,10.5999985,7.2000122c3,3,5.3999939,6.6000061,7.1999969,10.6000061
			c1.8000031,4.1000061,2.6000061,8.3999939,2.6000061,13s-0.8999939,9-2.6000061,13
			c-1.8000031,4-4.1000061,7.6000061-7.1999969,10.6000061c-3,3-6.5999985,5.3999939-10.5999985,7.2000122
			C113.0999985,355.3999939,108.6999969,356.2000122,104.0999985,356.2000122z M104.0999985,300.8999939
			c-2.9000015,0-5.6999969,0.6000061-8.1999969,1.7999878c-2.5,1.2000122-4.8000031,2.7999878-6.6999969,4.7999878
			c-1.9000015,2-3.4000015,4.2999878-4.5,7s-1.6999969,5.3999939-1.6999969,8.2999878s0.5999985,5.7000122,1.6999969,8.3999939
			c1.0999985,2.6000061,2.5999985,5,4.5,7s4.0999985,3.6000061,6.6999969,4.7999878
			c2.5,1.2000122,5.3000031,1.7999878,8.1999969,1.7999878c2.9000015,0,5.6999969-0.6000061,8.1999969-1.7999878
			c2.5-1.2000122,4.8000031-2.7999878,6.6999969-4.7999878c1.9000015-2,3.4000015-4.3999939,4.5-7
			s1.6999969-5.3999939,1.6999969-8.3999939c0-2.8999939-0.5999985-5.6000061-1.6999969-8.2999878s-2.5999985-5-4.5-7
			s-4.0999985-3.6000061-6.6999969-4.7999878C109.8000031,301.5,107.0999985,300.8999939,104.0999985,300.8999939z"/>
		<path d="M203,355l-42.3000031-38.2999878V355h-12.3000031v-64.2999878h1.3000031L192,329.6000061v-38.8999939h12.3000031V355H203z
			"/>
		<path d="M215.8999939,346.6000061l6.6999969-9.8999939c3.1999969,2.2000122,6.6000061,4.1000061,10,5.7999878
			c3.3999939,1.6000061,7,2.3999939,10.8000031,2.3999939c2,0,3.8000031-0.2000122,5.3000031-0.7000122
			s2.8000031-1.1000061,3.8999939-1.8999939c1.1000061-0.7999878,1.8000031-1.7000122,2.3999939-2.7000122
			c0.5-1,0.8000031-2,0.8000031-3c0-1.2999878-0.3999939-2.3999939-1.1999969-3.2999878s-1.8000031-1.7000122-3.1999969-2.2000122
			c-1.3000031-0.6000061-2.8999939-1.1000061-4.6999969-1.5S243,328.7999878,241.0999908,328.4999695
			c-1.3000031-0.2000122-2.8000031-0.5-4.5-0.7999878s-3.5-0.7999878-5.3000031-1.2999878
			c-1.8000031-0.6000061-3.6000061-1.2999878-5.3999939-2.2000122c-1.8000031-0.8999939-3.3000031-2.1000061-4.6999969-3.3999939
			c-1.3999939-1.3999939-2.5-3-3.3999939-4.8999939S216.5,311.7999878,216.5,309.1999817
			c0-3.7999878,0.8000031-6.8999939,2.3000031-9.3999939s3.5-4.5,5.8000031-5.8999939c2.3999939-1.3999939,5-2.3999939,7.8999939-3
			S238.1999969,290,240.8999939,290s5.1000061,0.2000122,7.1999969,0.5c2.1000061,0.3999939,4.1000061,0.8999939,5.8999939,1.5
			c1.8000031,0.7000122,3.5999908,1.5,5.3000031,2.6000061c1.7000122,1,3.6000061,2.2000122,5.6000061,3.7000122L258,308.0000305
			c-3-2.1000061-6-3.7000122-8.8000031-4.7999878c-2.8000031-1.1000061-5.8000031-1.7000122-8.8999939-1.7000122
			c-1.1000061,0-2.3000031,0.1000061-3.6000061,0.3999939s-2.6000061,0.7000122-3.8000031,1.2999878
			c-1.1999969,0.6000061-2.1999969,1.2999878-3,2.2000122c-0.8000031,0.8999939-1.1999969,2-1.1999969,3.2999878
			s0.5,2.3999939,1.3999939,3.2999878s2.1000061,1.6000061,3.6000061,2.2000122s3.1000061,1.1000061,4.8000031,1.5
			c1.8000031,0.3999939,3.5,0.7999878,5.1000061,1.2000122c1.1999969,0.2999878,2.6999969,0.6000061,4.3999939,0.8999939
			s3.3999939,0.7000122,5.1999969,1.2000122s3.5999908,1.2000122,5.3000031,2.1000061
			c1.7999878,0.8999939,3.2999878,2,4.7000122,3.3999939c1.3999939,1.3999939,2.5,3.1000061,3.2999878,5.1000061
			s1.2999878,4.5,1.2999878,7.2999878c0,3.2999878-0.6000061,6.2000122-1.7999878,8.7000122
			c-1.2000122,2.5-2.7999878,4.5-5,6.1000061s-4.7000122,2.7999878-7.6999969,3.7000122
			c-3,0.7999878-6.3000031,1.2000122-9.8999939,1.2000122c-3.3000031,0-6.3000031-0.2000122-8.8000031-0.7000122
			c-2.6000061-0.5-4.8999939-1.2000122-7-2s-4.1000061-1.8999939-6-3
			C219.8000031,349.2999878,217.8999939,348,215.8999939,346.6000061z"/>
		<path d="M305.8999939,356.2000122c-4.2000122,0-7.8999939-0.6000061-11.2999878-1.8999939s-6.2999878-3.1000061-8.7000122-5.5
			c-2.3999939-2.2999878-4.2999878-5.2000122-5.6000061-8.5c-1.2999878-3.2999878-2-7.1000061-2-11.2000122v-38.2999878h12.2999878
			V329c0,3.2000122,0.5,5.8999939,1.6000061,8s2.3999939,3.7999878,3.8999939,5c1.6000061,1.2000122,3.2000122,2.1000061,5,2.5
			c1.7999878,0.5,3.3999939,0.7000122,4.7999878,0.7000122s3-0.2000122,4.7999878-0.7000122s3.5-1.2999878,5-2.5
			c1.6000061-1.2000122,2.8999939-2.8999939,3.8999939-5c1.1000061-2.1000061,1.6000061-4.7999878,1.6000061-8v-38.2999878
			h12.2999878V329c0,4.1000061-0.6000061,7.7999878-1.8999939,11.2000122c-1.2999878,3.2999878-3.1000061,6.2000122-5.5,8.5
			s-5.2999878,4.2000122-8.7000122,5.5C313.8999939,355.5,310.1000061,356.2000122,305.8999939,356.2000122z"/>
		<path d="M393.8999939,344.1000061V355H347.5v-64.3999939h12.2999878v53.5H393.8999939z"/>
		<path d="M436.8999939,301.5H418.5V355h-12.2999878v-53.5h-18.5v-10.8999939h49.2000122V301.5H436.8999939z"/>
		<path d="M459.3999939,355h-12.2999878v-64.2999878h12.2999878V355z"/>
		<path d="M529.9000244,355l-42.2999878-38.2999878V355h-12.2999878v-64.2999878h1.2999878l42.2999878,38.8999939v-38.8999939
			h12.2999878V355H529.9000244z"/>
		<path d="M607.7999878,319.7999878c-0.0999756,1.2000122-0.0999756,2.3999939-0.0999756,3.3999939
			c-0.0999756,0.8999939-0.0999756,1.8999939-0.0999756,2.7999878s0,1.6000061-0.0999756,2.1000061
			c-0.4000244,4-1.5,7.7999878-3.2999878,11.2999878s-4.2000122,6.3999939-7.0999756,8.8999939
			c-2.9000244,2.5-6.2000122,4.3999939-10,5.7999878s-7.7999878,2.1000061-11.9000244,2.1000061
			c-4.5999756,0-8.9000244-0.8999939-12.9000244-2.6000061c-4-1.7999878-7.5999756-4.1000061-10.5999756-7.2000122
			c-3-3-5.4000244-6.6000061-7.2000122-10.6000061s-2.7000122-8.3999939-2.7000122-12.8999939s0.9000244-8.8999939,2.7000122-13
			s4.2000122-7.6000061,7.2000122-10.6000061s6.5999756-5.3999939,10.5999756-7.2000122
			c4-1.7999878,8.4000244-2.6000061,12.9000244-2.6000061c5.7999878,0,11.0999756,1.2999878,16,4
			c4.7999878,2.7000122,8.7999878,6.2999878,11.7000122,10.7999878l-10.5999756,6.3999939
			c-1.9000244-2.7999878-4.2999878-5.1000061-7.2999878-6.8999939c-3-1.8999939-6.2999878-2.7999878-9.7999878-2.7999878
			c-2.9000244,0-5.7000122,0.6000061-8.2000122,1.7999878c-2.5999756,1.2000122-4.7999878,2.7999878-6.7000122,4.7999878
			s-3.4000244,4.2999878-4.5,7s-1.7000122,5.3999939-1.7000122,8.2999878s0.5999756,5.7000122,1.7000122,8.3999939
			c1.0999756,2.6000061,2.5999756,5,4.5,6.8999939c1.9000244,2,4.0999756,3.6000061,6.7000122,4.7999878
			c2.5999756,1.2000122,5.2999878,1.7999878,8.2000122,1.7999878c2.2000122,0,4.4000244-0.2999878,6.4000244-1
			c2.0999756-0.7000122,3.9000244-1.6000061,5.5999756-2.8999939c1.7000122-1.2000122,3.2000122-2.7000122,4.4000244-4.3999939
			c1.2999878-1.7000122,2.2000122-3.6000061,2.7999878-5.6000061h-23.7000122v-11.1000061h37.0998535V319.7999878z"/>
	</g>
</g>
<g class="st0">
	<g class="st1">
		<g>
			<path class="st2" d="M435.2999878,260.7999878H176.5V2h258.7999878V260.7999878z M184.1000061,253.1999969h243.6000061V9.6000004
				H184.1000061V253.1999969z"/>
		</g>
		<path class="st2" d="M421.6000061,14.8999996h-113v112.9000015H421.5V14.8999996H421.6000061z M189.1999969,247.8999939
			h112.9000092v-113H189.1999969V247.8999939z M252.3999939,54.4000015l-20.3000031,24.9000015h20.3000031V54.4000015z
			 M189.1999969,127.9000015h112.9000092v-113H189.1999969V127.9000015z M210.8999939,79.8000031l45.5-53.2999992h12.5v52.7999992
			h10.5V94h-10.5v19.0999985h-16.5V94h-41.5V79.8000031z M309.7999878,134.8999939v112.8999939h112.8999939V134.8999939H309.7999878
			z M399.7000122,219.6000061c-1.6000061,3.3000031-3.7999878,6-6.7000122,8.1999969
			c-2.8999939,2.1999969-6.3999939,3.8000031-10.3999939,4.8999939c-4,1.1000061-8.5,1.6999969-13.2999878,1.6999969
			c-4.5,0-8.3999939-0.3000031-11.8999939-1c-3.3999939-0.6999969-6.6000061-1.6000061-9.3999939-2.6999969
			c-2.7999878-1.1000061-5.5-2.5-8-4.1000061s-5.1000061-3.3000031-7.7999878-5.1999969l9-13.1999969
			c4.2999878,3,8.7999878,5.6000061,13.3999939,7.6999969c4.6000061,2.1999969,9.3999939,3.1999969,14.5,3.1999969
			c2.7000122,0,5-0.3000031,7.1000061-1c2-0.6999969,3.7999878-1.5,5.2000122-2.6000061
			c1.3999939-1.1000061,2.5-2.3000031,3.2000122-3.6999969s1.1000061-2.6999969,1.1000061-4.1000061
			c0-1.6999969-0.5-3.1999969-1.6000061-4.3999939s-2.5-2.1999969-4.2999878-3s-3.8999939-1.5-6.2999878-2
			s-4.8999939-1.1000061-7.5-1.5c-1.7000122-0.3000031-3.7000122-0.6999969-6-1.1000061
			c-2.2999878-0.3999939-4.6000061-1-7.1000061-1.8000031c-2.3999939-0.6999969-4.7999878-1.6999969-7.2000122-3
			c-2.3999939-1.1999969-4.5-2.8000031-6.3999939-4.6000061s-3.3999939-4.1000061-4.5-6.6000061
			c-1.1000061-2.6000061-1.7000122-5.6000061-1.7000122-9c0-5,1-9.1999969,3.1000061-12.6000061
			c2-3.3000031,4.7000122-6,7.8999939-7.8999939c3.2000122-1.8999939,6.7000122-3.3000031,10.6000061-4.1000061
			s7.7000122-1.1999969,11.2999878-1.1999969c3.6000061,0,6.8999939,0.1999969,9.7000122,0.6999969
			c2.7999878,0.5,5.5,1.1999969,7.8999939,2.1000061c2.3999939,0.8999939,4.7999878,2,7.1000061,3.3999939
			c2.2999878,1.3999939,4.7999878,3,7.5,4.8999939l-9.2000122,13c-4.1000061-2.8000031-8-5-11.7999878-6.5
			s-7.7999878-2.1999969-11.8999939-2.1999969c-1.3999939,0-3,0.1999969-4.7999878,0.5
			c-1.7999878,0.3999939-3.5,0.8999939-5.1000061,1.6999969s-3,1.8000031-4,3
			c-1.1000061,1.1999969-1.6000061,2.6999969-1.6000061,4.3999939s0.6000061,3.1999969,1.8999939,4.3999939
			s2.8999939,2.1999969,4.7999878,3c2,0.8000031,4.1000061,1.5,6.5,2c2.3999939,0.6000061,4.6000061,1.1000061,6.8999939,1.6999969
			c1.7000122,0.3999939,3.6000061,0.8000031,5.7999878,1.1999969c2.2000122,0.3999939,4.6000061,0.8999939,7,1.6999969
			c2.3999939,0.6999969,4.7999878,1.6999969,7.1000061,2.8000031c2.3999939,1.1999969,4.5,2.6999969,6.2999878,4.5
			c1.7999878,1.8999939,3.2999878,4.1000061,4.5,6.8999939c1.1000061,2.6999969,1.7000122,6,1.7000122,9.8999939
			C402,212.3999939,401.2000122,216.3000031,399.7000122,219.6000061z"/>
	</g>
	<g class="st1">
		<path class="st3" d="M65.5,339.2000122c-1.4000015,2.6000061-3.0999985,4.8999939-5.2000008,7
			C58.2000008,348.3000183,56,350.1000061,53.5,351.6000061s-5.2000008,2.7000122-8.0999985,3.5
			c-2.9000015,0.7999878-5.9000015,1.2000122-9,1.2000122c-4.6000004,0-8.8999996-0.8999939-12.8999996-2.6000061
			S15.9000015,349.6000061,12.9000015,346.5c-3-3-5.4000001-6.6000061-7.1999998-10.6000061S3.1000018,327.5,3.1000018,323
			s0.7999983-9,2.599998-13s4.0999994-7.6000061,7.1999998-10.6000061c3-3,6.6000004-5.3999939,10.6000004-7.2000122
			c4-1.7999878,8.3999996-2.6000061,12.9000015-2.6000061c3.0999985,0,6.0999985,0.3999939,9,1.2000122
			c2.9000015,0.7999878,5.5999985,2,8.0999985,3.5s4.7999992,3.2999878,6.7999992,5.3999939
			c2.0999985,2.1000061,3.7999992,4.3999939,5.2000008,6.8999939L54,311.2000122c-0.9000015-1.3999939-2-2.7000122-3.2999992-4
			C49.4000015,306,48,304.9000244,46.5,303.9000244c-1.5-0.8999939-3.0999985-1.7000122-4.7999992-2.2000122
			s-3.5-0.7999878-5.2999992-0.7999878c-2.9000015,0-5.7000008,0.6000061-8.2000008,1.7999878
			C25.6000004,303.9000244,23.4000015,305.5,21.6000004,307.5c-1.8999996,2-3.3999996,4.2999878-4.5,7
			s-1.6999998,5.3999939-1.6999998,8.2999878S16,328.5,17.1000004,331.1999817c1.1000004,2.6000061,2.6000004,5,4.5,6.8999939
			c1.8999996,2,4.1000004,3.6000061,6.6000004,4.7999878c2.6000004,1.2000122,5.2999992,1.7999878,8.2000008,1.7999878
			c1.7999992,0,3.5999985-0.2999878,5.2999992-0.7999878S45,342.5999756,46.5,341.6999512
			c1.5-0.8999939,2.9000015-2,4.2000008-3.2999878s2.4000015-2.6000061,3.2999992-4L65.5,339.2000122z"/>
		<path class="st3" d="M105.0999985,356.2000122c-4.5999985,0-8.9000015-0.8999939-12.9000015-2.6000061
			S84.5999985,349.5,81.5999985,346.3999939c-3-3-5.4000015-6.6000061-7.1999969-10.6000061
			c-1.8000031-4-2.5999985-8.3999939-2.5999985-13s0.9000015-8.8999939,2.5999985-13
			c1.8000031-4.1000061,4.0999985-7.6000061,7.1999969-10.6000061c3-3,6.5999985-5.3999939,10.5999985-7.2000122
			s8.4000015-2.6000061,12.9000015-2.6000061c4.5999985,0,9,0.8999939,13,2.6000061
			c4,1.7999878,7.5999985,4.1000061,10.5999985,7.2000122c3,3,5.3999939,6.6000061,7.1999969,10.6000061
			c1.8000031,4.1000061,2.6000061,8.3999939,2.6000061,13s-0.8999939,9-2.6000061,13
			c-1.8000031,4-4.1000061,7.6000061-7.1999969,10.6000061c-3,3-6.5999985,5.3999939-10.5999985,7.2000122
			C114.0999985,355.3999939,109.6999969,356.2000122,105.0999985,356.2000122z M105.0999985,300.8999939
			c-2.9000015,0-5.6999969,0.6000061-8.1999969,1.7999878c-2.5,1.2000122-4.8000031,2.7999878-6.6999969,4.7999878
			c-1.9000015,2-3.4000015,4.2999878-4.5,7s-1.6999969,5.3999939-1.6999969,8.2999878s0.5999985,5.7000122,1.6999969,8.3999939
			c1.0999985,2.6000061,2.5999985,5,4.5,7s4.0999985,3.6000061,6.6999969,4.7999878
			c2.5,1.2000122,5.3000031,1.7999878,8.1999969,1.7999878c2.9000015,0,5.6999969-0.6000061,8.1999969-1.7999878
			c2.5-1.2000122,4.8000031-2.7999878,6.6999969-4.7999878c1.9000015-2,3.4000015-4.3999939,4.5-7
			s1.6999969-5.3999939,1.6999969-8.3999939c0-2.8999939-0.5999985-5.6000061-1.6999969-8.2999878s-2.5999985-5-4.5-7
			s-4.0999985-3.6000061-6.6999969-4.7999878C110.8000031,301.5,108.0999985,300.8999939,105.0999985,300.8999939z"/>
		<path class="st3" d="M204,355l-42.3000031-38.2999878V355h-12.3000031v-64.2999878h1.3000031L193,329.6000061v-38.8999939
			h12.3000031V355H204z"/>
		<path class="st3" d="M216.8999939,346.6000061l6.6999969-9.8999939c3.1999969,2.2000122,6.6000061,4.1000061,10,5.7999878
			c3.3999939,1.6000061,7,2.3999939,10.8000031,2.3999939c2,0,3.8000031-0.2000122,5.3000031-0.7000122
			s2.8000031-1.1000061,3.8999939-1.8999939c1.1000061-0.7999878,1.8000031-1.7000122,2.3999939-2.7000122
			c0.5000153-1,0.8000031-2,0.8000031-3c0-1.2999878-0.3999939-2.3999939-1.1999969-3.2999878
			s-1.8000031-1.7000122-3.1999969-2.2000122c-1.3000031-0.6000061-2.8999939-1.1000061-4.6999969-1.5
			S244,328.7999878,242.0999908,328.4999695c-1.3000031-0.2000122-2.8000031-0.5-4.5-0.7999878s-3.5-0.7999878-5.3000031-1.2999878
			c-1.8000031-0.6000061-3.6000061-1.2999878-5.3999939-2.2000122c-1.8000031-0.8999939-3.3000031-2.1000061-4.6999969-3.3999939
			c-1.3999939-1.3999939-2.5-3-3.3999939-4.8999939S217.5,311.7999878,217.5,309.1999817
			c0-3.7999878,0.8000031-6.8999939,2.3000031-9.3999939s3.5-4.5,5.8000031-5.8999939c2.3999939-1.3999939,5-2.3999939,7.8999939-3
			S239.1999969,290,241.8999939,290s5.1000061,0.2000122,7.1999969,0.5c2.1000061,0.3999939,4.1000061,0.8999939,5.8999939,1.5
			c1.8000031,0.7000122,3.5999908,1.5,5.3000031,2.6000061c1.7000122,1,3.6000061,2.2000122,5.6000061,3.7000122L259,308.0000305
			c-3-2.1000061-6-3.7000122-8.8000031-4.7999878c-2.8000031-1.1000061-5.8000031-1.7000122-8.8999939-1.7000122
			c-1.1000061,0-2.3000031,0.1000061-3.6000061,0.3999939s-2.6000061,0.7000122-3.8000031,1.2999878
			c-1.1999969,0.6000061-2.1999969,1.2999878-3,2.2000122c-0.8000031,0.8999939-1.1999969,2-1.1999969,3.2999878
			s0.5,2.3999939,1.3999939,3.2999878s2.1000061,1.6000061,3.6000061,2.2000122s3.1000061,1.1000061,4.8000031,1.5
			c1.8000031,0.3999939,3.5,0.7999878,5.1000061,1.2000122c1.1999969,0.2999878,2.6999969,0.6000061,4.3999939,0.8999939
			s3.3999939,0.7000122,5.1999969,1.2000122s3.5999908,1.2000122,5.3000031,2.1000061
			c1.7999878,0.8999939,3.2999878,2,4.7000122,3.3999939c1.3999939,1.3999939,2.5,3.1000061,3.2999878,5.1000061
			s1.2999878,4.5,1.2999878,7.2999878c0,3.2999878-0.6000061,6.2000122-1.7999878,8.7000122
			c-1.2000122,2.5-2.7999878,4.5-5,6.1000061s-4.7000122,2.7999878-7.6999969,3.7000122
			c-3,0.7999878-6.3000031,1.2000122-9.8999939,1.2000122c-3.3000031,0-6.3000031-0.2000122-8.8000031-0.7000122
			c-2.6000061-0.5-4.8999939-1.2000122-7-2s-4.1000061-1.8999939-6-3
			C220.8000031,349.2999878,218.8999939,348,216.8999939,346.6000061z"/>
		<path class="st3" d="M306.8999939,356.2000122c-4.2000122,0-7.8999939-0.6000061-11.2999878-1.8999939
			s-6.2999878-3.1000061-8.7000122-5.5c-2.3999939-2.2999878-4.2999878-5.2000122-5.6000061-8.5
			c-1.2999878-3.2999878-2-7.1000061-2-11.2000122v-38.2999878h12.2999878V329c0,3.2000122,0.5,5.8999939,1.6000061,8
			s2.3999939,3.7999878,3.8999939,5c1.6000061,1.2000122,3.2000122,2.1000061,5,2.5
			c1.7999878,0.5,3.3999939,0.7000122,4.7999878,0.7000122s3-0.2000122,4.7999878-0.7000122s3.5-1.2999878,5-2.5
			c1.6000061-1.2000122,2.8999939-2.8999939,3.8999939-5c1.1000061-2.1000061,1.6000061-4.7999878,1.6000061-8v-38.2999878
			h12.2999878V329c0,4.1000061-0.6000061,7.7999878-1.8999939,11.2000122c-1.2999878,3.2999878-3.1000061,6.2000122-5.5,8.5
			s-5.2999878,4.2000122-8.7000122,5.5C314.8999939,355.5,311.1000061,356.2000122,306.8999939,356.2000122z"/>
		<path class="st3" d="M394.8999939,344.1000061V355H348.5v-64.3999939h12.2999878v53.5H394.8999939z"/>
		<path class="st3" d="M437.8999939,301.5H419.5V355h-12.2999878v-53.5h-18.5v-10.8999939h49.2000122V301.5H437.8999939z"/>
		<path class="st3" d="M460.3999939,355h-12.2999878v-64.2999878h12.2999878V355z"/>
		<path class="st3" d="M530.9000244,355l-42.2999878-38.2999878V355h-12.2999878v-64.2999878h1.2999878l42.2999878,38.8999939
			v-38.8999939h12.2999878V355H530.9000244z"/>
		<path class="st3" d="M608.7999878,319.7999878c-0.0999756,1.2000122-0.0999756,2.3999939-0.0999756,3.3999939
			c-0.0999756,0.8999939-0.0999756,1.8999939-0.0999756,2.7999878s0,1.6000061-0.0999756,2.1000061
			c-0.4000244,4-1.5,7.7999878-3.2999878,11.2999878s-4.2000122,6.3999939-7.0999756,8.8999939
			c-2.9000244,2.5-6.2000122,4.3999939-10,5.7999878s-7.7999878,2.1000061-11.9000244,2.1000061
			c-4.5999756,0-8.9000244-0.8999939-12.9000244-2.6000061c-4-1.7999878-7.5999756-4.1000061-10.5999756-7.2000122
			c-3-3-5.4000244-6.6000061-7.2000122-10.6000061s-2.7000122-8.3999939-2.7000122-12.8999939s0.9000244-8.8999939,2.7000122-13
			s4.2000122-7.6000061,7.2000122-10.6000061s6.5999756-5.3999939,10.5999756-7.2000122
			c4-1.7999878,8.4000244-2.6000061,12.9000244-2.6000061c5.7999878,0,11.0999756,1.2999878,16,4
			c4.7999878,2.7000122,8.7999878,6.2999878,11.7000122,10.7999878l-10.5999756,6.3999939
			c-1.9000244-2.7999878-4.2999878-5.1000061-7.2999878-6.8999939c-3-1.8999939-6.2999878-2.7999878-9.7999878-2.7999878
			c-2.9000244,0-5.7000122,0.6000061-8.2000122,1.7999878c-2.5999756,1.2000122-4.7999878,2.7999878-6.7000122,4.7999878
			s-3.4000244,4.2999878-4.5,7s-1.7000122,5.3999939-1.7000122,8.2999878s0.5999756,5.7000122,1.7000122,8.3999939
			c1.0999756,2.6000061,2.5999756,5,4.5,6.8999939c1.9000244,2,4.0999756,3.6000061,6.7000122,4.7999878
			c2.5999756,1.2000122,5.2999878,1.7999878,8.2000122,1.7999878c2.2000122,0,4.4000244-0.2999878,6.4000244-1
			c2.0999756-0.7000122,3.9000244-1.6000061,5.5999756-2.8999939c1.7000122-1.2000122,3.2000122-2.7000122,4.4000244-4.3999939
			c1.2999878-1.7000122,2.2000122-3.6000061,2.7999878-5.6000061h-23.7000122v-11.1000061h37.0998535V319.7999878z"/>
	</g>
</g>
</svg>
