<?xml version="1.0" encoding="UTF-8" ?>
<!DOCTYPE svg PUBLIC "-//W3C//DTD SVG 1.1//EN" "http://www.w3.org/Graphics/SVG/1.1/DTD/svg11.dtd">
<svg width="340pt" height="156pt" viewBox="0 0 340 156" version="1.1" xmlns="http://www.w3.org/2000/svg">
<path fill="#004992" opacity="1.00" d=" M 50.06 16.76 C 52.44 16.27 54.84 16.00 57.26 15.80 C 57.55 19.86 58.35 23.87 59.54 27.76 C 56.11 28.92 52.86 30.52 49.77 32.40 C 49.25 31.56 48.75 30.71 48.28 29.84 C 49.61 29.27 50.97 28.76 52.33 28.23 C 51.28 24.47 50.52 20.64 50.06 16.76 Z" />
<path fill="#004992" opacity="1.00" d=" M 78.56 19.97 C 80.54 20.56 82.51 21.20 84.47 21.88 C 83.75 24.20 83.10 26.54 82.51 28.90 C 80.30 28.28 78.07 27.71 75.83 27.16 C 76.66 24.73 77.57 22.33 78.56 19.97 Z" />
<path fill="#004992" opacity="1.00" d=" M 28.42 29.95 C 29.93 27.85 31.74 25.98 33.80 24.41 C 34.99 25.27 36.18 26.13 37.36 27.00 C 36.95 27.57 36.12 28.71 35.70 29.29 C 37.72 33.02 40.20 36.48 42.80 39.83 C 40.96 42.97 39.49 46.31 38.30 49.75 C 36.25 49.03 34.19 48.32 32.12 47.62 C 33.20 45.22 34.34 42.85 35.57 40.53 C 32.93 37.18 30.52 33.66 28.42 29.95 Z" />
<path fill="#004992" opacity="1.00" d=" M 102.55 40.03 C 104.75 38.93 107.15 38.04 108.98 40.25 C 107.80 41.13 106.62 42.02 105.44 42.89 C 104.48 41.94 103.51 40.98 102.55 40.03 Z" />
<path fill="#004992" opacity="1.00" d=" M 19.67 56.06 C 19.67 53.07 19.99 50.08 20.71 47.17 C 22.87 47.60 25.02 48.06 27.16 48.55 C 26.95 50.71 26.78 52.87 26.66 55.03 C 29.68 57.39 32.86 59.53 36.18 61.45 C 36.19 65.88 36.61 70.30 37.43 74.66 C 34.81 75.45 32.23 76.35 29.66 77.30 C 30.35 80.90 31.64 84.38 33.73 87.42 L 35.93 86.64 C 35.43 87.02 34.43 87.78 33.93 88.16 C 30.86 88.71 26.04 89.04 24.84 85.38 C 23.73 83.02 23.13 80.47 22.52 77.94 C 25.36 76.67 28.31 75.69 31.32 74.92 C 30.48 70.86 30.03 66.74 29.68 62.61 C 26.16 60.72 22.83 58.50 19.67 56.06 Z" />
<path fill="#004992" opacity="1.00" d=" M 237.39 57.39 C 241.89 55.73 245.69 60.83 243.93 64.89 C 243.08 68.63 237.68 69.49 235.42 66.59 C 232.90 63.82 233.90 58.85 237.39 57.39 M 236.02 65.63 C 237.30 67.88 240.12 67.05 242.21 67.17 C 241.22 66.14 240.27 65.08 239.22 64.12 C 238.67 64.56 237.57 65.43 237.02 65.87 C 237.20 63.57 237.31 61.28 237.49 58.98 C 238.30 59.28 239.92 59.88 240.73 60.18 C 241.21 62.27 241.47 64.41 242.00 66.49 C 243.86 63.89 243.90 59.57 240.45 58.33 C 236.38 56.81 233.24 62.66 236.02 65.63 M 238.50 61.12 C 238.77 64.46 241.41 59.46 238.50 61.12 Z" />
<path fill="#004992" opacity="1.00" d=" M 86.54 58.70 C 88.10 58.51 89.67 58.52 91.24 58.50 C 91.24 60.11 91.25 61.71 91.25 63.32 C 89.57 63.36 87.88 63.37 86.20 63.35 C 86.29 61.80 86.31 60.24 86.54 58.70 Z" />
<path fill="#004992" opacity="1.00" d=" M 178.53 58.59 C 180.17 58.58 181.81 58.58 183.45 58.60 C 183.47 60.18 183.48 61.76 183.49 63.33 C 181.82 63.36 180.16 63.36 178.49 63.34 C 178.50 61.76 178.51 60.17 178.53 58.59 Z" />
<path fill="#004992" opacity="1.00" d=" M 61.50 59.00 C 68.33 59.00 75.17 59.00 82.00 59.00 C 82.00 60.33 82.00 61.67 82.00 63.00 C 79.33 63.00 76.67 63.00 74.00 63.00 C 74.00 71.92 74.00 80.83 74.00 89.75 C 72.50 89.75 71.00 89.75 69.50 89.75 C 69.50 80.84 69.49 71.93 69.51 63.02 C 66.84 63.00 64.17 63.00 61.50 62.99 C 61.50 61.66 61.50 60.33 61.50 59.00 Z" />
<path fill="#004992" opacity="1.00" d=" M 158.00 58.99 C 159.50 59.00 161.01 59.01 162.51 59.02 C 162.49 67.85 162.51 76.67 162.50 85.50 C 166.53 85.50 170.55 85.49 174.58 85.51 C 174.60 86.91 174.62 88.31 174.64 89.71 C 169.09 89.78 163.55 89.73 158.00 89.75 C 157.99 79.50 158.00 69.24 158.00 58.99 Z" />
<path fill="#004992" opacity="1.00" d=" M 257.00 59.00 C 261.90 59.00 266.81 58.94 271.71 59.10 C 271.62 59.64 271.44 60.72 271.35 61.26 C 267.32 61.24 263.28 61.25 259.25 61.25 C 259.25 65.25 259.25 69.25 259.24 73.24 C 263.04 73.25 266.85 73.24 270.65 73.30 C 270.58 73.79 270.45 74.77 270.38 75.26 C 266.67 75.25 262.96 75.25 259.25 75.25 C 259.25 79.33 259.25 83.41 259.24 87.49 C 263.57 87.50 267.90 87.50 272.23 87.50 C 272.25 88.06 272.28 89.17 272.29 89.73 C 267.19 89.76 262.10 89.74 257.00 89.75 C 256.99 79.50 257.00 69.25 257.00 59.00 Z" />
<path fill="#004992" opacity="1.00" d=" M 276.75 59.00 C 281.85 59.37 288.24 57.61 292.18 61.80 C 296.10 66.43 293.41 74.00 287.64 75.55 C 290.74 79.91 292.68 84.92 294.93 89.73 C 294.25 89.74 292.90 89.75 292.22 89.75 C 290.41 85.94 288.99 81.91 286.75 78.32 C 285.20 75.53 281.64 76.42 279.03 76.15 C 278.95 80.91 279.14 85.67 278.79 90.42 C 278.33 90.10 277.39 89.45 276.92 89.12 C 276.50 79.10 276.88 69.04 276.75 59.00 M 279.01 61.21 C 278.99 65.49 279.00 69.76 279.00 74.04 C 282.25 73.87 285.86 74.56 288.76 72.74 C 292.35 70.51 292.60 64.30 288.73 62.22 C 285.73 60.74 282.24 61.38 279.01 61.21 Z" />
<path fill="#004992" opacity="1.00" d=" M 299.75 59.00 C 304.10 59.16 308.73 58.39 312.84 60.18 C 318.40 63.06 318.11 71.89 313.39 75.45 C 310.17 77.98 305.83 77.45 302.01 77.54 C 302.00 81.67 302.03 85.81 301.92 89.95 C 301.37 89.85 300.27 89.64 299.72 89.53 C 299.78 79.35 299.73 69.17 299.75 59.00 M 302.02 61.20 C 301.99 65.90 302.00 70.60 302.01 75.30 C 305.02 75.15 308.28 75.70 311.07 74.25 C 315.65 71.97 315.84 63.91 310.90 61.96 C 308.06 60.94 304.97 61.32 302.02 61.20 Z" />
<path fill="#004992" opacity="1.00" d=" M 102.57 70.06 C 105.76 66.46 111.87 66.07 114.71 70.32 C 117.93 66.28 125.68 65.82 127.61 71.29 C 128.95 77.32 127.95 83.61 128.25 89.75 C 126.75 89.75 125.25 89.75 123.75 89.75 C 123.52 84.34 124.28 78.83 123.33 73.49 C 122.06 69.55 115.99 71.37 115.74 75.06 C 115.19 79.93 115.62 84.85 115.51 89.74 C 114.01 89.74 112.51 89.75 111.01 89.76 C 110.76 84.28 111.52 78.70 110.59 73.28 C 109.52 69.60 104.07 71.23 103.40 74.42 C 102.06 79.39 103.02 84.65 102.75 89.75 C 101.25 89.75 99.75 89.75 98.25 89.75 C 98.27 82.32 98.21 74.90 98.29 67.48 C 100.29 67.48 102.50 67.46 102.57 70.06 Z" />
<path fill="#004992" opacity="1.00" d=" M 136.56 69.55 C 140.55 66.04 147.87 66.31 150.87 70.98 C 152.58 73.56 152.46 76.76 152.63 79.72 C 147.54 79.78 142.45 79.71 137.37 79.79 C 138.13 81.82 138.28 84.61 140.58 85.57 C 143.69 87.28 147.27 86.12 150.51 85.55 C 150.81 86.73 151.11 87.92 151.42 89.10 C 145.96 90.61 138.66 91.27 134.88 86.11 C 131.90 81.13 132.14 73.64 136.56 69.55 M 137.36 76.43 C 141.08 76.53 144.79 76.53 148.51 76.44 C 147.73 73.85 146.39 70.53 143.08 70.79 C 139.77 70.58 138.38 73.91 137.36 76.43 Z" />
<path fill="#004992" opacity="1.00" d=" M 194.40 70.62 C 196.53 68.71 199.03 66.76 202.10 67.23 C 205.41 67.15 208.33 69.83 208.53 73.13 C 209.04 78.65 208.62 84.21 208.75 89.75 C 207.24 89.75 205.74 89.75 204.25 89.75 C 204.10 84.53 204.62 79.26 203.97 74.07 C 203.20 69.70 196.75 70.90 195.63 74.45 C 194.01 79.36 195.00 84.66 194.76 89.74 C 193.34 89.74 191.92 89.75 190.51 89.76 C 190.51 82.35 190.46 74.94 190.53 67.54 C 191.47 67.57 193.33 67.64 194.27 67.67 C 194.30 68.41 194.37 69.88 194.40 70.62 Z" />
<path fill="#004992" opacity="1.00" d=" M 217.87 68.90 C 221.88 66.18 228.29 66.60 231.19 70.76 C 233.09 73.36 232.95 76.69 233.13 79.75 C 228.03 79.76 222.94 79.70 217.85 79.81 C 218.62 81.89 218.86 84.76 221.26 85.67 C 224.36 87.22 227.82 86.13 231.00 85.52 C 231.29 86.73 231.58 87.93 231.87 89.14 C 226.32 90.61 218.75 91.31 215.17 85.78 C 212.34 80.53 212.70 72.61 217.87 68.90 M 217.79 76.40 C 221.52 76.53 225.26 76.55 228.99 76.38 C 228.12 74.01 227.11 70.78 224.00 70.80 C 220.53 70.33 218.88 73.75 217.79 76.40 Z" />
<path fill="#004992" opacity="1.00" d=" M 84.50 67.75 C 86.92 67.75 89.33 67.75 91.75 67.75 C 91.75 75.08 91.75 82.42 91.75 89.75 C 90.25 89.75 88.75 89.75 87.25 89.75 C 87.25 83.58 87.25 77.42 87.25 71.25 C 86.56 71.25 85.18 71.25 84.49 71.24 C 84.50 70.37 84.50 68.62 84.50 67.75 Z" />
<path fill="#004992" opacity="1.00" d=" M 176.61 67.76 C 178.99 67.75 181.37 67.75 183.75 67.75 C 183.74 75.09 183.75 82.42 183.75 89.75 C 182.33 89.75 180.91 89.74 179.50 89.74 C 179.51 83.60 179.48 77.46 179.52 71.32 C 178.78 71.29 177.31 71.22 176.58 71.18 C 176.59 70.33 176.60 68.61 176.61 67.76 Z" />
<path fill="#004992" opacity="1.00" d=" M 36.48 89.05 C 36.45 88.48 36.47 87.91 36.52 87.34 C 38.42 87.54 40.33 87.73 42.23 87.89 C 44.56 92.18 47.18 96.30 50.19 100.15 C 48.55 102.67 47.06 105.28 45.72 107.97 C 47.33 110.09 49.01 112.14 50.79 114.11 C 49.13 115.00 47.46 115.86 45.79 116.72 C 43.06 114.39 40.67 111.71 38.59 108.80 C 39.86 105.86 41.45 103.08 43.32 100.49 C 40.78 96.84 38.36 93.09 36.48 89.05 Z" />
<path fill="#004992" opacity="1.00" d=" M 127.37 103.88 C 128.94 104.35 130.49 104.84 132.06 105.32 C 131.93 105.92 131.68 107.12 131.56 107.72 C 129.93 107.46 128.32 107.19 126.70 106.92 C 126.87 106.16 127.21 104.64 127.37 103.88 Z" />
<path fill="#004992" opacity="1.00" d=" M 55.92 114.03 C 57.39 112.96 58.85 111.87 60.30 110.78 C 63.75 113.76 67.40 116.52 71.22 119.02 C 71.57 123.58 69.85 129.87 74.98 132.34 C 74.50 133.26 74.03 134.18 73.55 135.11 C 70.54 134.06 67.29 133.18 64.94 130.91 C 63.93 127.38 64.33 123.63 64.23 120.01 C 61.38 118.13 58.61 116.13 55.92 114.03 Z" />
<path fill="#004992" opacity="1.00" d=" M 110.77 124.27 C 112.48 123.28 114.18 122.30 115.88 121.30 C 118.02 123.43 120.21 125.50 122.42 127.56 C 121.05 128.55 119.68 129.54 118.29 130.50 C 115.66 128.57 113.15 126.50 110.77 124.27 Z" />
<path fill="#004992" opacity="1.00" d=" M 83.14 127.20 C 83.13 126.57 83.12 125.31 83.11 124.68 C 87.07 125.80 91.11 126.62 95.21 127.01 C 96.94 131.06 99.04 134.94 101.29 138.72 C 98.86 138.90 96.41 139.00 93.97 139.07 C 91.76 135.52 89.81 131.81 88.15 127.97 C 86.48 127.73 84.79 127.56 83.14 127.20 Z" />
</svg>
