<?xml version="1.0" encoding="UTF-8" ?>
<!DOCTYPE svg PUBLIC "-//W3C//DTD SVG 1.1//EN" "http://www.w3.org/Graphics/SVG/1.1/DTD/svg11.dtd">
<svg width="1240pt" height="849pt" viewBox="0 0 1240 849" version="1.1" xmlns="http://www.w3.org/2000/svg">
<path fill="#a1bf38" opacity="1.00" d=" M 546.05 60.29 C 590.98 46.73 639.70 45.96 684.98 58.32 C 726.39 69.54 764.92 91.35 795.69 121.27 C 824.96 149.64 847.13 185.23 859.85 223.95 C 872.67 262.72 875.98 304.60 869.23 344.89 C 862.32 386.59 844.71 426.45 818.70 459.76 C 794.90 490.30 763.91 515.18 729.00 531.91 C 689.11 551.15 644.13 559.73 599.97 556.38 C 575.16 554.55 550.66 548.95 527.45 540.00 C 530.66 528.82 533.93 517.64 537.74 506.65 C 541.02 497.51 545.22 488.23 552.72 481.76 C 556.95 478.01 562.12 475.56 567.36 473.58 C 560.12 469.42 552.39 466.14 544.97 462.31 C 545.23 461.70 545.76 460.46 546.02 459.85 C 546.85 458.16 547.65 456.46 548.48 454.78 C 548.53 454.68 548.62 454.49 548.67 454.39 C 549.26 453.19 549.85 451.99 550.44 450.80 C 550.51 450.66 550.66 450.37 550.73 450.23 L 551.38 448.89 C 551.48 448.70 551.66 448.32 551.76 448.13 L 552.34 446.94 C 552.44 446.74 552.63 446.34 552.73 446.14 L 553.31 444.95 C 553.41 444.75 553.61 444.35 553.72 444.15 L 554.25 442.98 C 554.38 442.76 554.62 442.32 554.75 442.09 L 555.25 440.98 C 555.38 440.75 555.64 440.29 555.76 440.06 L 556.31 438.89 C 556.41 438.68 556.62 438.26 556.72 438.04 L 557.34 436.73 C 557.41 436.61 557.54 436.37 557.60 436.25 C 558.37 434.05 560.76 433.09 562.86 434.04 C 602.86 446.43 642.86 458.86 682.88 471.20 C 684.62 472.61 687.36 472.55 689.17 471.28 C 694.72 469.66 696.71 463.93 698.99 459.26 C 702.59 451.29 706.85 443.65 710.43 435.67 C 710.47 435.59 710.56 435.42 710.60 435.34 C 713.45 431.40 714.30 425.91 711.69 421.63 C 711.63 421.55 711.53 421.38 711.47 421.30 C 710.64 420.26 709.71 419.34 708.68 418.53 C 708.59 418.48 708.42 418.36 708.34 418.31 C 707.23 417.71 706.12 417.14 705.00 416.61 C 704.76 416.49 704.28 416.25 704.03 416.12 L 702.42 415.41 C 705.96 406.81 709.94 398.22 711.30 388.94 C 711.49 386.79 711.98 383.53 709.37 382.69 C 668.70 362.69 628.03 342.69 587.36 322.69 C 557.89 308.34 528.61 293.52 499.02 279.44 C 493.23 282.04 490.08 288.06 486.49 292.98 C 482.85 292.63 480.66 295.90 478.61 298.33 C 478.56 298.39 478.47 298.52 478.43 298.58 C 477.97 299.27 477.06 300.65 476.61 301.34 C 476.56 301.42 476.44 301.57 476.39 301.65 C 472.59 308.19 468.57 315.54 469.27 323.32 C 469.19 323.46 469.04 323.73 468.96 323.87 L 470.74 324.49 C 469.14 330.25 466.64 335.99 466.96 342.08 C 466.90 343.40 467.86 344.39 469.03 344.83 C 538.56 379.03 608.10 413.22 677.63 447.42 C 679.74 448.85 681.88 446.69 683.39 445.36 C 689.99 438.58 694.58 430.18 699.06 421.94 C 700.13 422.42 701.19 422.91 702.26 423.42 C 702.35 423.47 702.54 423.56 702.63 423.61 C 704.81 424.41 706.79 426.54 705.66 429.00 C 705.57 429.20 705.39 429.59 705.29 429.79 C 704.66 430.93 704.06 432.09 703.51 433.27 C 703.45 433.39 703.34 433.62 703.28 433.73 L 702.64 435.06 C 702.54 435.27 702.33 435.68 702.23 435.89 L 701.70 437.02 C 701.58 437.25 701.33 437.70 701.21 437.92 L 700.70 439.06 C 700.58 439.29 700.34 439.73 700.22 439.95 L 699.67 441.09 C 699.57 441.29 699.37 441.69 699.26 441.89 L 698.70 443.06 C 698.59 443.28 698.35 443.72 698.23 443.94 L 697.66 445.11 C 697.56 445.31 697.36 445.71 697.26 445.91 L 696.71 447.08 C 696.60 447.28 696.39 447.69 696.29 447.89 L 695.71 449.06 C 695.60 449.27 695.38 449.68 695.27 449.89 L 694.72 451.07 C 694.60 451.29 694.37 451.73 694.25 451.95 L 693.60 453.29 C 693.54 453.40 693.43 453.63 693.38 453.74 C 692.80 454.94 692.20 456.14 691.59 457.33 C 691.54 457.42 691.46 457.59 691.42 457.67 C 689.92 460.12 689.05 465.19 685.09 464.06 C 644.75 451.75 604.53 439.04 564.19 426.72 C 562.40 425.42 559.67 425.48 557.85 426.67 C 555.40 427.73 552.91 429.14 551.71 431.65 C 549.24 436.49 546.74 441.34 544.57 446.32 C 544.53 446.41 544.45 446.58 544.41 446.66 C 543.74 447.86 543.12 449.09 542.57 450.35 C 542.52 450.44 542.43 450.62 542.38 450.70 L 542.18 450.98 C 541.93 451.47 541.44 452.45 541.20 452.94 L 540.72 454.00 C 540.59 454.23 540.34 454.67 540.21 454.90 L 539.64 456.07 C 539.53 456.28 539.31 456.69 539.20 456.89 C 538.96 457.44 538.49 458.54 538.26 459.09 C 530.71 455.22 523.05 451.58 515.45 447.82 C 516.80 453.11 518.36 458.47 518.02 463.99 C 517.56 472.01 514.52 479.65 510.51 486.53 C 503.62 498.30 495.08 508.99 487.44 520.26 C 454.30 500.37 425.92 472.63 405.14 440.04 C 378.39 398.30 364.26 348.61 365.13 299.04 C 365.90 241.41 387.36 184.44 424.37 140.32 C 455.92 102.47 498.85 74.35 546.05 60.29 M 542.22 109.40 C 542.88 118.81 543.65 128.22 544.14 137.64 C 552.93 137.51 561.74 136.47 570.55 136.00 C 553.03 171.95 535.26 207.78 517.64 243.69 C 514.37 250.74 510.41 257.58 507.57 264.76 C 577.71 298.97 647.58 333.76 717.73 367.94 C 738.50 325.29 759.64 282.81 780.40 240.15 C 780.68 240.19 781.25 240.26 781.53 240.30 C 786.03 247.26 790.69 254.13 795.28 261.03 L 795.86 261.24 C 803.59 255.99 811.40 250.87 819.20 245.72 C 811.59 233.63 803.43 221.87 795.57 209.94 C 801.11 197.51 807.73 185.47 813.33 173.06 C 803.05 168.15 792.95 162.76 782.56 158.14 C 779.76 164.28 776.53 170.23 773.77 176.39 L 773.14 176.18 C 755.68 149.85 738.10 123.60 720.70 97.23 C 719.20 96.60 717.53 97.25 715.99 97.21 C 658.07 101.29 600.14 105.23 542.22 109.40 Z" />
<path fill="#7a7a79" opacity="1.00" d=" M 627.23 189.24 C 628.15 187.74 628.49 185.79 629.84 184.62 C 641.64 190.57 653.55 196.31 665.39 202.18 C 659.60 214.17 653.65 226.08 647.79 238.03 C 635.83 232.35 624.06 226.27 612.09 220.61 C 616.65 209.98 622.26 199.72 627.23 189.24 Z" />
<path fill="#7a7a79" opacity="1.00" d=" M 670.32 205.11 L 671.06 205.03 C 682.77 210.65 694.39 216.48 706.06 222.19 L 706.32 222.78 C 700.36 234.51 694.69 246.39 688.83 258.18 C 676.79 252.53 664.96 246.43 652.96 240.70 C 658.57 228.76 664.64 217.02 670.32 205.11 Z" />
<path fill="#7a7a79" opacity="1.00" d=" M 609.21 225.82 L 609.86 225.81 C 621.63 231.62 633.42 237.41 645.20 243.20 C 639.50 255.18 633.44 266.99 627.74 278.97 C 616.68 274.06 605.94 268.31 595.01 263.09 C 594.06 262.32 592.16 262.40 591.95 261.01 C 597.66 249.26 603.53 237.58 609.21 225.82 Z" />
<path fill="#7a7a79" opacity="1.00" d=" M 650.22 245.98 C 662.33 251.22 674.02 257.63 686.01 263.25 C 680.82 275.43 674.31 287.15 668.70 299.20 C 656.64 293.65 644.84 287.48 632.86 281.74 C 638.34 269.69 644.55 257.95 650.22 245.98 Z" />
<path fill="#7a7a79" opacity="1.00" d=" M 478.61 298.33 C 480.66 295.90 482.85 292.63 486.49 292.98 C 480.35 302.69 475.11 313.01 471.17 323.81 C 470.46 323.95 469.83 323.79 469.27 323.32 C 468.57 315.54 472.59 308.19 476.39 301.65 C 476.44 301.57 476.56 301.42 476.61 301.34 C 477.06 300.65 477.97 299.27 478.43 298.58 C 478.47 298.52 478.56 298.39 478.61 298.33 Z" />
<path fill="#b6be96" opacity="1.00" d=" M 478.43 298.58 C 478.47 298.52 478.56 298.39 478.61 298.33 C 478.56 298.39 478.47 298.52 478.43 298.58 Z" />
<path fill="#b5bb9d" opacity="1.00" d=" M 476.39 301.65 C 476.44 301.57 476.56 301.42 476.61 301.34 C 476.56 301.42 476.44 301.57 476.39 301.65 Z" />
<path fill="#7a7a79" opacity="1.00" d=" M 699.06 421.94 C 700.18 419.76 701.24 417.56 702.42 415.41 L 704.03 416.12 C 704.28 416.25 704.76 416.49 705.00 416.61 C 706.12 417.14 707.23 417.71 708.34 418.31 C 708.42 418.36 708.59 418.48 708.68 418.53 C 709.71 419.34 710.64 420.26 711.47 421.30 C 711.53 421.38 711.63 421.55 711.69 421.63 C 714.30 425.91 713.45 431.40 710.60 435.34 C 710.56 435.42 710.47 435.59 710.43 435.67 C 706.85 443.65 702.59 451.29 698.99 459.26 C 696.71 463.93 694.72 469.66 689.17 471.28 C 687.13 470.61 684.94 470.77 682.88 471.20 C 642.86 458.86 602.86 446.43 562.86 434.04 C 560.76 433.09 558.37 434.05 557.60 436.25 C 557.54 436.37 557.41 436.61 557.34 436.73 L 556.72 438.04 C 556.62 438.26 556.41 438.68 556.31 438.89 L 555.76 440.06 C 555.64 440.29 555.38 440.75 555.25 440.98 L 554.75 442.09 C 554.62 442.32 554.38 442.76 554.25 442.98 L 553.72 444.15 C 553.61 444.35 553.41 444.75 553.31 444.95 L 552.73 446.14 C 552.63 446.34 552.44 446.74 552.34 446.94 L 551.76 448.13 C 551.66 448.32 551.48 448.70 551.38 448.89 L 550.73 450.23 C 550.66 450.37 550.51 450.66 550.44 450.80 C 549.85 451.99 549.26 453.19 548.67 454.39 C 548.62 454.49 548.53 454.68 548.48 454.78 C 547.65 456.46 546.85 458.16 546.02 459.85 C 545.70 460.39 545.07 461.47 544.76 462.02 C 542.42 461.78 540.40 460.03 538.26 459.09 C 538.49 458.54 538.96 457.44 539.20 456.89 C 539.31 456.69 539.53 456.28 539.64 456.07 L 540.21 454.90 C 540.34 454.67 540.59 454.23 540.72 454.00 L 541.20 452.94 C 541.44 452.45 541.93 451.47 542.18 450.98 L 542.38 450.70 C 542.43 450.62 542.52 450.44 542.57 450.35 C 543.12 449.09 543.74 447.86 544.41 446.66 C 544.45 446.58 544.53 446.41 544.57 446.32 C 546.74 441.34 549.24 436.49 551.71 431.65 C 552.91 429.14 555.40 427.73 557.85 426.67 C 559.87 427.39 562.13 427.26 564.19 426.72 C 604.53 439.04 644.75 451.75 685.09 464.06 C 689.05 465.19 689.92 460.12 691.42 457.67 C 691.46 457.59 691.54 457.42 691.59 457.33 C 692.20 456.14 692.80 454.94 693.38 453.74 C 693.43 453.63 693.54 453.40 693.60 453.29 L 694.25 451.95 C 694.37 451.73 694.60 451.29 694.72 451.07 L 695.27 449.89 C 695.38 449.68 695.60 449.27 695.71 449.06 L 696.29 447.89 C 696.39 447.69 696.60 447.28 696.71 447.08 L 697.26 445.91 C 697.36 445.71 697.56 445.31 697.66 445.11 L 698.23 443.94 C 698.35 443.72 698.59 443.28 698.70 443.06 L 699.26 441.89 C 699.37 441.69 699.57 441.29 699.67 441.09 L 700.22 439.95 C 700.34 439.73 700.58 439.29 700.70 439.06 L 701.21 437.92 C 701.33 437.70 701.58 437.25 701.70 437.02 L 702.23 435.89 C 702.33 435.68 702.54 435.27 702.64 435.06 L 703.28 433.73 C 703.34 433.62 703.45 433.39 703.51 433.27 C 704.06 432.09 704.66 430.93 705.29 429.79 C 705.39 429.59 705.57 429.20 705.66 429.00 C 706.79 426.54 704.81 424.41 702.63 423.61 C 702.54 423.56 702.35 423.47 702.26 423.42 C 701.19 422.91 700.13 422.42 699.06 421.94 Z" />
<path fill="#adb0a2" opacity="1.00" d=" M 704.03 416.12 C 704.28 416.25 704.76 416.49 705.00 416.61 C 704.76 416.49 704.28 416.25 704.03 416.12 Z" />
<path fill="#b5bb9d" opacity="1.00" d=" M 708.34 418.31 C 708.42 418.36 708.59 418.48 708.68 418.53 C 708.59 418.48 708.42 418.36 708.34 418.31 Z" />
<path fill="#b5bc99" opacity="1.00" d=" M 711.47 421.30 C 711.53 421.38 711.63 421.55 711.69 421.63 C 711.63 421.55 711.53 421.38 711.47 421.30 Z" />
<path fill="#b0b4a1" opacity="1.00" d=" M 702.26 423.42 C 702.35 423.47 702.54 423.56 702.63 423.61 C 702.54 423.56 702.35 423.47 702.26 423.42 Z" />
<path fill="#aeb29d" opacity="1.00" d=" M 557.85 426.67 C 559.67 425.48 562.40 425.42 564.19 426.72 C 562.13 427.26 559.87 427.39 557.85 426.67 Z" />
<path fill="#aeb1a2" opacity="1.00" d=" M 705.29 429.79 C 705.39 429.59 705.57 429.20 705.66 429.00 C 705.57 429.20 705.39 429.59 705.29 429.79 Z" />
<path fill="#afb3a1" opacity="1.00" d=" M 703.28 433.73 C 703.34 433.62 703.45 433.39 703.51 433.27 C 703.45 433.39 703.34 433.62 703.28 433.73 Z" />
<path fill="#b1b5a1" opacity="1.00" d=" M 702.23 435.89 C 702.33 435.68 702.54 435.27 702.64 435.06 C 702.54 435.27 702.33 435.68 702.23 435.89 Z" />
<path fill="#adb1a2" opacity="1.00" d=" M 710.43 435.67 C 710.47 435.59 710.56 435.42 710.60 435.34 C 710.56 435.42 710.47 435.59 710.43 435.67 Z" />
<path fill="#b5bc99" opacity="1.00" d=" M 557.34 436.73 C 557.41 436.61 557.54 436.37 557.60 436.25 C 557.54 436.37 557.41 436.61 557.34 436.73 Z" />
<path fill="#b1b5a0" opacity="1.00" d=" M 701.21 437.92 C 701.33 437.70 701.58 437.25 701.70 437.02 C 701.58 437.25 701.33 437.70 701.21 437.92 Z" />
<path fill="#b4ba9b" opacity="1.00" d=" M 556.31 438.89 C 556.41 438.68 556.62 438.26 556.72 438.04 C 556.62 438.26 556.41 438.68 556.31 438.89 Z" />
<path fill="#b2b79f" opacity="1.00" d=" M 700.22 439.95 C 700.34 439.73 700.58 439.29 700.70 439.06 C 700.58 439.29 700.34 439.73 700.22 439.95 Z" />
<path fill="#b4ba9d" opacity="1.00" d=" M 555.25 440.98 C 555.38 440.75 555.64 440.29 555.76 440.06 C 555.64 440.29 555.38 440.75 555.25 440.98 Z" />
<path fill="#b3b89f" opacity="1.00" d=" M 699.26 441.89 C 699.37 441.69 699.57 441.29 699.67 441.09 C 699.57 441.29 699.37 441.69 699.26 441.89 Z" />
<path fill="#b3b89e" opacity="1.00" d=" M 554.25 442.98 C 554.38 442.76 554.62 442.32 554.75 442.09 C 554.62 442.32 554.38 442.76 554.25 442.98 Z" />
<path fill="#b4ba9e" opacity="1.00" d=" M 698.23 443.94 C 698.35 443.72 698.59 443.28 698.70 443.06 C 698.59 443.28 698.35 443.72 698.23 443.94 Z" />
<path fill="#b2b79f" opacity="1.00" d=" M 553.31 444.95 C 553.41 444.75 553.61 444.35 553.72 444.15 C 553.61 444.35 553.41 444.75 553.31 444.95 Z" />
<path fill="#b4ba9d" opacity="1.00" d=" M 697.26 445.91 C 697.36 445.71 697.56 445.31 697.66 445.11 C 697.56 445.31 697.36 445.71 697.26 445.91 Z" />
<path fill="#acafa2" opacity="1.00" d=" M 544.41 446.66 C 544.45 446.58 544.53 446.41 544.57 446.32 C 544.53 446.41 544.45 446.58 544.41 446.66 Z" />
<path fill="#b1b7a0" opacity="1.00" d=" M 552.34 446.94 C 552.44 446.74 552.63 446.34 552.73 446.14 C 552.63 446.34 552.44 446.74 552.34 446.94 Z" />
<path fill="#b4ba9b" opacity="1.00" d=" M 696.29 447.89 C 696.39 447.69 696.60 447.28 696.71 447.08 C 696.60 447.28 696.39 447.69 696.29 447.89 Z" />
<path fill="#b1b4a0" opacity="1.00" d=" M 551.38 448.89 C 551.48 448.70 551.66 448.32 551.76 448.13 C 551.66 448.32 551.48 448.70 551.38 448.89 Z" />
<path fill="#b5bc9a" opacity="1.00" d=" M 695.27 449.89 C 695.38 449.68 695.60 449.27 695.71 449.06 C 695.60 449.27 695.38 449.68 695.27 449.89 Z" />
<path fill="#aeb2a2" opacity="1.00" d=" M 542.38 450.70 C 542.43 450.62 542.52 450.44 542.57 450.35 C 542.52 450.44 542.43 450.62 542.38 450.70 Z" />
<path fill="#b0b4a2" opacity="1.00" d=" M 550.44 450.80 C 550.51 450.66 550.66 450.37 550.73 450.23 C 550.66 450.37 550.51 450.66 550.44 450.80 Z" />
<path fill="#b5bc99" opacity="1.00" d=" M 694.25 451.95 C 694.37 451.73 694.60 451.29 694.72 451.07 C 694.60 451.29 694.37 451.73 694.25 451.95 Z" />
<path fill="#afb3a1" opacity="1.00" d=" M 541.20 452.94 C 541.44 452.45 541.93 451.47 542.18 450.98 C 541.93 451.47 541.44 452.45 541.20 452.94 Z" />
<path fill="#b6be97" opacity="1.00" d=" M 693.38 453.74 C 693.43 453.63 693.54 453.40 693.60 453.29 C 693.54 453.40 693.43 453.63 693.38 453.74 Z" />
<path fill="#b1b5a1" opacity="1.00" d=" M 540.21 454.90 C 540.34 454.67 540.59 454.23 540.72 454.00 C 540.59 454.23 540.34 454.67 540.21 454.90 Z" />
<path fill="#adb1a2" opacity="1.00" d=" M 548.48 454.78 C 548.53 454.68 548.62 454.49 548.67 454.39 C 548.62 454.49 548.53 454.68 548.48 454.78 Z" />
<path fill="#b1b5a0" opacity="1.00" d=" M 539.20 456.89 C 539.31 456.69 539.53 456.28 539.64 456.07 C 539.53 456.28 539.31 456.69 539.20 456.89 Z" />
<path fill="#b7c093" opacity="1.00" d=" M 691.42 457.67 C 691.46 457.59 691.54 457.42 691.59 457.33 C 691.54 457.42 691.46 457.59 691.42 457.67 Z" />
<path fill="#b2ba96" opacity="1.00" d=" M 682.88 471.20 C 684.94 470.77 687.13 470.61 689.17 471.28 C 687.36 472.55 684.62 472.61 682.88 471.20 Z" />
<path fill="#a1bf38" opacity="1.00" d=" M 445.57 590.26 C 457.62 565.95 471.69 542.67 487.30 520.49 C 500.02 528.04 513.26 534.75 527.10 540.03 C 519.30 566.01 509.23 591.27 497.45 615.69 C 477.61 615.48 458.00 605.73 445.57 590.26 M 480.15 566.25 C 472.15 567.39 466.41 576.11 468.58 583.91 C 470.25 591.57 478.91 596.68 486.42 594.35 C 493.73 592.51 498.59 584.31 496.54 577.02 C 494.95 569.89 487.35 564.85 480.15 566.25 Z" />
<path fill="#a1bf38" opacity="1.00" d=" M 29.74 657.82 C 34.08 657.97 38.65 657.23 42.85 658.20 C 48.36 670.45 53.70 682.78 59.23 695.03 C 65.27 682.98 69.84 669.95 75.93 657.90 C 80.13 657.86 84.61 657.28 88.66 658.19 C 88.73 679.07 88.72 699.95 88.67 720.83 C 84.80 721.59 80.15 721.58 76.27 720.84 C 76.21 708.94 76.22 697.04 76.27 685.14 L 75.30 685.55 C 72.06 693.78 68.23 701.77 64.79 709.92 C 63.74 714.37 58.27 712.21 55.03 712.48 C 54.87 712.33 54.54 712.03 54.38 711.88 C 50.08 702.90 46.64 693.43 42.04 684.65 C 41.79 696.78 42.11 708.93 41.88 721.07 C 37.82 721.47 33.68 721.35 29.61 721.13 C 29.56 700.03 29.30 678.89 29.74 657.82 Z" />
<path fill="#a1bf38" opacity="1.00" d=" M 149.88 657.87 C 154.16 657.83 158.56 657.42 162.78 658.06 C 163.01 674.69 162.64 691.34 162.96 707.96 C 163.32 711.61 167.58 710.13 169.67 711.28 C 169.64 714.72 169.78 718.17 169.59 721.62 C 164.78 722.03 159.49 722.34 155.08 720.01 C 150.85 717.66 149.77 712.39 149.78 707.94 C 149.82 691.25 149.63 674.55 149.88 657.87 Z" />
<path fill="#a1bf38" opacity="1.00" d=" M 354.27 658.21 C 358.36 657.22 362.91 657.96 367.18 657.84 C 367.56 665.25 367.27 672.71 367.32 680.14 C 373.99 672.05 389.23 673.60 393.58 683.37 C 396.71 690.13 396.37 697.82 395.93 705.08 C 395.39 711.24 392.83 718.08 386.79 720.76 C 380.45 723.45 371.75 722.95 367.30 717.10 C 367.38 718.45 367.36 719.82 367.22 721.18 C 362.93 721.18 358.47 721.69 354.29 720.94 C 354.18 700.03 354.23 679.12 354.27 658.21 M 372.35 686.46 C 368.75 687.54 367.62 691.60 367.47 694.94 C 367.34 699.10 366.97 703.50 368.58 707.44 C 370.79 712.52 379.22 712.58 381.60 707.63 C 383.52 701.91 383.56 695.23 381.52 689.54 C 379.90 686.23 375.60 685.42 372.35 686.46 Z" />
<path fill="#a1bf38" opacity="1.00" d=" M 455.05 657.91 C 459.34 657.66 463.66 657.68 467.95 657.90 C 468.05 661.52 468.27 665.20 467.84 668.81 C 463.59 668.91 459.34 668.98 455.10 668.77 C 454.83 665.15 454.92 661.52 455.05 657.91 Z" />
<path fill="#a1bf38" opacity="1.00" d=" M 702.89 657.87 C 707.23 657.75 711.62 657.57 715.95 657.96 C 721.50 670.24 726.99 682.57 732.33 694.95 L 732.83 694.67 C 738.38 682.47 743.39 670.02 749.05 657.88 C 753.31 657.72 757.61 657.61 761.87 657.93 C 762.02 678.99 762.00 700.06 761.88 721.12 C 757.81 721.44 753.72 721.30 749.65 721.19 C 749.34 709.17 749.46 697.11 749.59 685.09 C 749.39 685.17 748.97 685.34 748.76 685.42 C 745.29 693.36 741.80 701.30 738.33 709.25 C 737.78 710.34 737.48 711.65 736.49 712.47 C 734.01 712.78 731.50 712.60 729.02 712.59 C 727.59 712.70 727.26 711.01 726.76 710.07 C 723.54 702.64 720.25 695.23 717.02 687.80 C 716.46 686.74 716.22 685.41 715.20 684.68 C 715.22 696.84 715.36 709.02 715.13 721.18 C 711.05 721.34 706.94 721.38 702.87 721.16 C 702.73 700.07 702.70 678.96 702.89 657.87 Z" />
<path fill="#a1bf38" opacity="1.00" d=" M 823.17 658.01 C 827.43 657.50 831.81 657.79 836.11 657.87 C 836.17 661.50 836.48 665.21 835.97 668.81 C 831.72 668.90 827.47 669.00 823.24 668.76 C 822.95 665.18 823.10 661.58 823.17 658.01 Z" />
<path fill="#a1bf38" opacity="1.00" d=" M 1015.17 657.93 C 1019.46 657.62 1023.79 657.71 1028.10 657.89 C 1028.29 665.27 1028.21 672.66 1028.13 680.04 C 1034.34 672.96 1047.48 673.21 1052.65 681.37 C 1056.07 686.58 1055.30 693.05 1055.38 698.97 C 1055.31 706.37 1055.52 713.78 1055.28 721.18 C 1051.00 721.15 1046.48 721.75 1042.34 720.89 C 1042.20 711.62 1042.44 702.34 1042.23 693.08 C 1042.30 688.90 1038.37 685.40 1034.23 686.26 C 1030.82 686.50 1028.47 689.74 1028.30 692.97 C 1028.01 702.36 1028.39 711.77 1028.11 721.16 C 1023.80 721.29 1019.43 721.52 1015.15 721.06 C 1015.05 700.02 1015.01 678.97 1015.17 657.93 Z" />
<path fill="#a1bf38" opacity="1.00" d=" M 1194.39 658.24 C 1198.44 657.17 1203.04 657.98 1207.31 657.84 C 1207.64 678.92 1207.49 700.05 1207.38 721.14 C 1203.11 721.14 1198.44 721.84 1194.40 720.81 C 1194.39 719.96 1194.37 718.27 1194.36 717.42 C 1187.60 724.92 1173.25 723.81 1168.49 714.63 C 1165.19 708.32 1165.33 700.95 1165.62 694.03 C 1166.01 687.66 1167.96 680.36 1173.96 677.05 C 1180.41 673.69 1189.44 674.25 1194.38 680.04 C 1194.37 672.77 1194.34 665.50 1194.39 658.24 M 1183.50 686.58 C 1178.67 688.53 1178.82 694.61 1178.80 698.96 C 1178.75 703.29 1179.00 709.49 1184.09 710.92 C 1187.94 712.22 1192.82 710.24 1193.64 706.00 C 1194.66 700.95 1194.79 695.51 1193.37 690.53 C 1192.18 686.44 1187.12 685.14 1183.50 686.58 Z" />
<path fill="#a1bf38" opacity="1.00" d=" M 481.32 662.43 C 485.35 662.38 489.39 662.31 493.42 662.48 C 494.19 666.90 493.43 671.53 493.80 676.03 C 496.15 676.11 498.51 675.97 500.86 676.17 C 500.95 679.30 501.41 682.61 500.65 685.66 C 498.36 685.72 496.07 685.62 493.79 685.75 C 493.75 693.14 493.59 700.56 493.87 707.95 C 494.29 711.47 498.46 710.56 500.93 710.89 C 501.01 714.51 501.17 718.15 500.85 721.77 C 495.71 721.85 489.99 722.49 485.48 719.49 C 481.79 716.94 480.85 712.11 480.77 707.92 C 480.71 700.64 480.77 693.36 480.75 686.08 C 479.52 685.13 477.82 686.12 476.51 685.40 C 476.36 682.39 476.41 679.38 476.49 676.38 C 477.83 675.82 479.35 676.22 480.75 675.85 C 481.12 671.44 479.99 666.49 481.32 662.43 Z" />
<path fill="#a1bf38" opacity="1.00" d=" M 896.38 662.46 C 900.47 662.32 904.58 662.41 908.68 662.41 C 909.66 666.82 908.76 671.50 909.15 676.02 C 911.44 676.11 913.74 676.02 916.05 676.11 C 916.45 679.14 916.89 682.85 915.83 685.67 C 913.58 685.71 911.35 685.61 909.12 685.78 C 909.06 692.52 909.10 699.26 909.10 706.00 C 909.08 707.54 909.20 709.55 910.82 710.34 C 912.54 710.98 914.43 710.62 916.25 710.84 C 916.29 714.47 916.80 718.30 916.00 721.82 C 910.64 721.80 904.47 722.57 900.04 718.88 C 896.19 715.44 896.01 709.83 896.06 705.05 C 896.04 698.61 896.11 692.19 896.02 685.76 C 894.75 685.70 893.48 685.66 892.23 685.65 C 891.37 682.70 891.77 679.24 892.03 676.15 C 893.34 676.09 894.66 676.04 895.99 676.01 C 896.36 671.51 895.60 666.89 896.38 662.46 Z" />
<path fill="#a1bf38" opacity="1.00" d=" M 101.07 680.12 C 105.87 675.90 112.79 675.05 118.98 675.02 C 124.57 675.15 130.98 675.68 135.04 680.02 C 138.68 684.05 138.52 689.85 138.46 694.94 C 138.38 703.68 138.63 712.44 138.33 721.19 C 134.33 721.21 130.19 721.65 126.27 720.97 C 126.24 720.13 126.18 718.46 126.15 717.62 C 120.70 723.14 111.48 723.63 104.82 720.15 C 96.50 715.48 96.58 701.49 104.84 696.79 C 111.21 692.96 118.89 694.12 125.96 693.85 C 126.37 691.04 125.95 687.33 122.79 686.33 C 117.19 684.70 110.78 685.41 105.93 688.79 C 104.18 685.98 102.36 683.15 101.07 680.12 M 113.54 703.58 C 110.06 705.04 110.30 710.93 114.00 711.95 C 117.23 712.82 121.06 712.79 123.94 710.91 C 126.56 709.04 126.03 705.48 126.01 702.69 C 121.87 702.73 117.48 702.02 113.54 703.58 Z" />
<path fill="#a1bf38" opacity="1.00" d=" M 184.51 678.53 C 194.29 672.17 210.22 674.18 215.59 685.39 C 217.91 690.72 218.48 696.92 217.67 702.60 C 208.12 702.74 198.54 702.37 189.00 702.78 C 189.35 705.82 190.69 709.04 193.58 710.46 C 199.07 713.12 205.77 711.23 210.06 707.19 C 212.57 709.35 215.01 711.61 217.31 714.00 C 214.51 718.00 209.68 720.21 205.07 721.43 C 197.56 723.15 188.79 722.61 182.77 717.32 C 177.06 712.33 175.91 704.17 176.12 697.00 C 176.22 690.09 178.39 682.47 184.51 678.53 M 189.09 693.81 C 194.38 693.98 199.69 693.89 204.99 693.86 C 206.17 688.67 200.93 684.03 195.89 685.11 C 191.55 685.35 188.61 689.66 189.09 693.81 Z" />
<path fill="#a1bf38" opacity="1.00" d=" M 240.77 680.39 C 245.40 674.34 255.14 673.12 260.95 678.13 C 259.34 681.92 257.32 685.74 254.93 689.06 C 251.98 687.42 248.49 685.85 245.11 687.22 C 241.98 688.38 240.87 691.99 240.75 695.03 C 240.56 703.63 240.77 712.23 240.65 720.83 C 236.57 721.83 231.98 721.10 227.71 721.20 C 227.38 708.48 227.66 695.73 227.57 683.01 C 227.67 680.71 227.30 678.36 227.82 676.11 C 232.07 676.20 236.42 675.71 240.61 676.37 C 240.64 677.70 240.69 679.04 240.77 680.39 Z" />
<path fill="#a1bf38" opacity="1.00" d=" M 265.49 679.99 C 271.29 675.53 279.00 674.72 286.08 675.11 C 290.75 675.42 295.87 676.26 299.30 679.75 C 302.42 682.97 303.02 687.72 302.98 692.01 C 302.93 701.71 303.09 711.41 302.90 721.11 C 298.89 721.43 294.82 721.35 290.80 721.15 C 290.78 720.26 290.74 718.48 290.73 717.59 C 285.00 723.35 275.06 723.80 268.37 719.52 C 260.40 713.94 261.71 699.53 270.97 695.94 C 277.07 693.13 283.93 694.08 290.43 693.89 C 290.86 691.19 290.56 687.58 287.61 686.47 C 282.04 684.65 275.48 685.31 270.62 688.73 C 268.44 686.19 267.00 682.97 265.49 679.99 M 277.75 703.74 C 274.30 705.55 275.15 711.58 279.12 712.14 C 282.66 712.78 287.36 712.83 289.70 709.59 C 290.74 707.50 290.93 704.78 290.20 702.60 C 286.07 702.85 281.62 701.91 277.75 703.74 Z" />
<path fill="#a1bf38" opacity="1.00" d=" M 327.45 680.81 C 331.78 674.34 342.28 672.88 347.90 678.38 C 346.11 682.04 344.09 685.60 342.01 689.11 C 339.20 687.76 336.18 686.02 332.94 686.95 C 329.25 687.64 327.68 691.71 327.62 695.07 C 327.43 703.62 327.66 712.19 327.51 720.75 C 323.71 721.92 319.03 721.07 314.92 721.18 L 314.48 720.69 C 314.43 705.92 314.40 691.15 314.49 676.38 C 318.66 675.68 322.99 676.24 327.23 676.10 C 327.85 677.58 327.47 679.24 327.45 680.81 Z" />
<path fill="#a1bf38" opacity="1.00" d=" M 412.37 678.22 C 422.08 672.32 437.38 674.29 442.84 685.08 C 445.50 690.30 445.36 696.36 445.43 702.08 L 444.77 702.56 C 435.39 702.69 426.01 702.54 416.63 702.64 C 416.32 706.12 418.66 709.79 422.03 710.92 C 425.85 712.27 430.24 711.76 433.78 709.85 C 435.17 709.15 436.17 707.71 437.70 707.30 C 440.07 709.55 442.50 711.73 444.80 714.07 C 439.39 720.64 430.25 722.91 422.05 722.15 C 415.51 721.68 408.98 718.04 406.10 711.99 C 403.23 705.77 403.02 698.63 403.97 691.95 C 404.76 686.48 407.55 681.13 412.37 678.22 M 416.70 693.90 C 421.92 693.90 427.14 693.90 432.37 693.90 C 433.38 689.42 429.58 684.94 425.03 685.04 C 420.19 684.37 415.44 689.04 416.70 693.90 Z" />
<path fill="#a1bf38" opacity="1.00" d=" M 533.28 680.25 C 535.87 677.32 540.26 676.31 544.05 675.53 C 550.57 674.69 557.61 674.58 563.71 677.38 C 568.49 679.59 570.59 685.02 570.60 690.01 C 570.69 700.26 570.64 710.52 570.62 720.78 C 566.89 721.90 562.50 721.08 558.53 721.18 C 558.51 720.42 558.46 718.90 558.44 718.14 C 556.77 718.14 555.98 720.03 554.45 720.51 C 549.01 723.00 542.25 723.01 536.95 720.13 C 528.48 715.37 528.75 701.01 537.39 696.56 C 543.71 693.01 551.17 694.11 558.09 693.86 C 558.50 691.02 558.09 687.27 554.88 686.30 C 549.32 684.71 543.00 685.43 538.18 688.73 C 536.26 686.12 534.66 683.17 533.28 680.25 M 546.24 703.34 C 542.41 704.42 542.18 710.70 546.04 711.90 C 549.29 712.86 553.17 712.78 556.10 710.91 C 558.68 709.02 558.18 705.46 558.12 702.67 C 554.17 702.70 550.07 702.16 546.24 703.34 Z" />
<path fill="#a1bf38" opacity="1.00" d=" M 637.76 678.69 C 643.27 674.77 650.51 674.52 656.97 675.51 C 661.58 676.39 666.34 677.94 669.87 681.13 C 668.39 684.07 665.84 686.39 663.83 689.00 C 658.92 686.37 653.20 684.00 647.58 685.51 C 644.92 686.05 643.98 690.16 646.58 691.41 C 650.69 693.01 655.26 692.61 659.54 693.57 C 663.61 694.35 667.83 696.34 669.83 700.18 C 672.69 705.82 671.43 713.44 666.55 717.59 C 662.31 721.23 656.51 722.30 651.08 722.29 C 643.54 722.29 635.71 720.06 630.10 714.84 C 632.11 711.92 634.68 709.44 637.04 706.81 C 642.65 710.37 649.60 713.72 656.33 711.33 C 659.07 710.51 659.84 706.04 656.95 704.94 C 650.95 702.86 643.97 704.22 638.41 700.67 C 630.71 696.23 630.65 683.71 637.76 678.69 Z" />
<path fill="#a1bf38" opacity="1.00" d=" M 780.92 677.98 C 789.84 672.93 802.99 674.03 809.43 682.58 C 813.65 688.15 813.55 695.50 813.58 702.16 L 812.83 702.57 C 803.46 702.70 794.09 702.52 784.73 702.65 C 784.48 706.65 787.47 710.58 791.46 711.32 C 796.62 712.65 801.80 710.48 805.75 707.22 C 808.14 709.45 810.56 711.66 812.88 713.99 C 809.89 718.12 804.87 720.42 800.00 721.58 C 792.51 723.13 783.78 722.44 777.96 716.98 C 772.29 711.70 771.36 703.35 771.70 696.04 C 771.88 689.08 774.55 681.55 780.92 677.98 M 784.89 693.89 C 790.17 693.80 795.47 694.11 800.75 693.73 C 801.05 689.71 798.42 685.49 794.17 685.15 C 789.09 683.86 783.42 688.65 784.89 693.89 Z" />
<path fill="#a1bf38" opacity="1.00" d=" M 852.01 678.93 C 855.67 676.07 860.45 675.13 865.00 675.03 C 871.86 674.94 879.00 676.67 884.45 681.00 C 883.23 684.00 880.48 686.18 878.62 688.83 C 873.44 686.73 867.53 683.58 861.74 685.70 C 859.28 686.49 858.79 690.49 861.34 691.49 C 867.66 693.63 875.04 692.19 880.77 696.19 C 886.50 699.96 887.21 708.33 884.08 714.00 C 881.47 718.66 876.24 721.11 871.14 721.88 C 862.00 723.22 851.96 721.32 844.90 715.07 C 846.42 712.01 849.30 708.94 852.05 706.87 C 857.36 710.76 864.50 713.60 871.02 711.27 C 873.90 710.35 874.34 705.57 871.15 704.77 C 865.05 702.96 858.03 704.14 852.53 700.38 C 845.36 695.79 845.34 683.97 852.01 678.93 Z" />
<path fill="#a1bf38" opacity="1.00" d=" M 927.80 682.83 C 934.42 673.79 948.41 672.75 957.46 678.56 C 965.20 683.68 966.46 694.16 965.42 702.56 C 955.88 702.74 946.34 702.46 936.80 702.69 C 936.88 706.41 939.22 710.17 942.96 711.13 C 948.21 712.75 953.84 710.78 957.80 707.21 C 960.25 709.31 962.65 711.52 964.88 713.86 C 964.60 715.68 962.35 716.63 961.05 717.82 C 952.90 723.13 941.52 724.04 932.99 719.14 C 926.99 715.68 924.36 708.65 923.95 702.05 C 923.55 695.51 923.97 688.40 927.80 682.83 M 936.88 693.86 C 942.22 693.88 947.57 694.02 952.91 693.78 C 953.47 689.18 949.74 684.74 945.01 685.04 C 940.20 684.58 936.07 689.11 936.88 693.86 Z" />
<path fill="#a1bf38" opacity="1.00" d=" M 988.37 680.80 C 992.66 674.26 1002.94 673.04 1008.74 678.21 C 1007.01 681.96 1004.96 685.57 1002.82 689.10 C 999.85 687.59 996.49 685.86 993.10 687.14 C 989.80 688.21 988.58 691.93 988.47 695.07 C 988.25 703.76 988.57 712.46 988.31 721.15 C 984.03 721.14 979.40 721.83 975.32 720.82 C 975.29 706.04 975.25 691.26 975.34 676.48 C 979.40 675.55 983.91 676.28 988.15 676.12 C 988.57 677.63 988.34 679.23 988.37 680.80 Z" />
<path fill="#a1bf38" opacity="1.00" d=" M 1067.15 680.19 C 1071.37 676.35 1077.46 675.34 1082.99 675.05 C 1088.59 674.99 1094.73 675.16 1099.50 678.50 C 1103.46 681.29 1104.62 686.43 1104.61 691.02 C 1104.60 700.90 1104.67 710.78 1104.57 720.66 L 1104.13 721.26 C 1100.26 721.01 1096.01 721.92 1092.39 720.80 C 1092.37 720.00 1092.34 718.40 1092.32 717.59 C 1086.70 723.29 1076.99 723.74 1070.31 719.74 C 1062.65 714.70 1062.97 701.43 1070.94 696.82 C 1077.31 692.97 1085.01 694.11 1092.09 693.86 C 1092.54 691.03 1092.08 687.29 1088.89 686.32 C 1083.26 684.66 1076.91 685.50 1072.00 688.77 C 1070.30 685.95 1068.62 683.12 1067.15 680.19 M 1080.17 703.36 C 1076.35 704.47 1076.20 710.75 1080.05 711.91 C 1083.27 712.84 1087.08 712.77 1090.01 710.98 C 1092.69 709.13 1092.20 705.50 1092.15 702.68 C 1088.16 702.70 1084.02 702.15 1080.17 703.36 Z" />
<path fill="#a1bf38" opacity="1.00" d=" M 1129.16 680.11 C 1135.39 672.68 1149.20 673.30 1154.02 681.99 C 1157.05 687.13 1156.27 693.29 1156.37 698.99 C 1156.28 706.39 1156.55 713.81 1156.24 721.20 C 1151.96 721.08 1147.36 721.86 1143.29 720.81 C 1143.17 711.55 1143.39 702.28 1143.18 693.03 C 1143.18 689.22 1139.91 685.75 1136.00 686.20 C 1132.22 686.07 1129.34 689.56 1129.27 693.16 C 1129.03 702.48 1129.35 711.81 1129.11 721.13 C 1124.80 721.28 1120.38 721.58 1116.13 720.99 C 1116.12 706.06 1115.89 691.10 1116.25 676.18 C 1120.50 675.99 1124.77 676.00 1129.03 676.18 C 1129.18 677.47 1129.22 678.78 1129.16 680.11 Z" />
<path fill="#a1bf38" opacity="1.00" d=" M 455.13 676.16 C 459.36 676.00 463.61 676.03 467.86 676.14 C 468.27 691.12 468.03 706.15 467.98 721.14 C 463.68 721.38 459.35 721.38 455.05 721.14 C 454.94 706.15 454.79 691.14 455.13 676.16 Z" />
<path fill="#a1bf38" opacity="1.00" d=" M 581.86 676.13 C 586.12 676.15 590.42 675.80 594.65 676.30 C 594.88 685.52 594.61 694.74 594.79 703.96 C 594.77 707.42 597.24 711.07 600.95 711.15 C 604.75 711.74 608.16 708.58 608.40 704.87 C 608.91 695.30 608.14 685.66 608.79 676.12 C 613.04 676.15 617.33 675.80 621.55 676.30 C 621.70 691.09 621.61 705.90 621.60 720.69 L 621.09 721.21 C 616.96 721.33 612.81 721.36 608.68 721.18 C 608.53 719.82 608.52 718.47 608.63 717.12 C 603.63 723.27 593.74 723.93 587.48 719.43 C 582.75 715.89 581.38 709.57 581.61 703.97 C 581.79 694.69 581.28 685.36 581.86 676.13 Z" />
<path fill="#a1bf38" opacity="1.00" d=" M 823.20 676.24 C 827.47 675.91 831.78 676.05 836.07 676.17 C 836.35 691.15 836.23 706.17 836.12 721.16 C 831.81 721.28 827.42 721.54 823.16 721.03 C 823.08 706.10 823.00 691.16 823.20 676.24 Z" />
<path fill="#7a7a79" opacity="1.00" d=" M 29.78 759.17 C 31.08 759.11 32.37 759.15 33.66 759.28 C 33.97 774.42 33.34 789.67 33.98 804.74 C 42.41 804.79 50.84 804.65 59.27 804.81 C 59.15 806.06 60.27 809.12 57.91 808.69 C 48.64 808.66 39.36 808.72 30.09 808.67 L 29.58 808.13 C 29.71 791.82 29.31 775.46 29.78 759.17 Z" />
<path fill="#7a7a79" opacity="1.00" d=" M 70.33 759.28 C 71.76 759.14 73.22 759.00 74.63 759.37 C 74.68 761.10 74.71 762.85 74.57 764.60 C 73.17 764.74 71.76 764.72 70.36 764.63 C 70.20 762.84 70.23 761.05 70.33 759.28 Z" />
<path fill="#7a7a79" opacity="1.00" d=" M 84.93 759.19 C 86.25 759.15 87.58 759.14 88.90 759.19 C 89.27 760.96 89.37 762.93 88.84 764.69 C 87.59 764.70 86.34 764.70 85.09 764.69 C 84.39 762.98 84.76 760.98 84.93 759.19 Z" />
<path fill="#7a7a79" opacity="1.00" d=" M 196.96 759.18 C 197.80 759.17 199.47 759.16 200.31 759.16 C 200.80 765.66 200.52 772.27 200.44 778.82 C 204.64 771.43 217.25 771.14 221.31 778.76 C 223.75 783.12 222.90 788.28 223.06 793.06 C 222.91 798.27 223.37 803.52 222.81 808.70 C 221.61 808.69 220.42 808.67 219.22 808.63 C 218.90 801.09 219.28 793.52 219.03 785.98 C 219.01 782.17 216.80 777.97 212.75 777.30 C 207.46 775.74 201.15 779.26 200.70 784.98 C 200.32 792.80 200.69 800.65 200.51 808.49 C 199.29 808.56 197.47 809.28 196.61 808.12 C 196.60 792.05 196.58 775.97 196.63 759.89 L 196.96 759.18 Z" />
<path fill="#7a7a79" opacity="1.00" d=" M 332.24 759.25 C 333.45 759.14 334.67 759.12 335.89 759.19 C 342.09 775.48 347.68 792.03 353.63 808.42 C 352.30 808.90 350.86 808.63 349.49 808.64 C 347.85 804.40 346.38 800.12 344.85 795.86 C 337.64 795.90 330.24 795.41 323.15 796.11 C 321.62 800.27 320.23 804.49 318.57 808.61 C 317.22 808.55 315.68 809.08 314.47 808.31 C 320.44 791.97 326.20 775.56 332.24 759.25 M 333.74 766.50 C 330.94 774.96 327.29 783.22 324.99 791.80 C 331.08 791.80 337.18 791.79 343.28 791.80 C 340.58 783.19 337.17 774.79 334.38 766.19 C 334.22 766.27 333.90 766.42 333.74 766.50 Z" />
<path fill="#7a7a79" opacity="1.00" d=" M 423.18 759.19 C 424.38 759.14 425.59 759.15 426.81 759.20 C 427.02 775.67 427.12 792.21 426.76 808.67 C 425.59 808.68 424.42 808.68 423.26 808.68 C 422.97 807.14 422.88 805.59 422.98 804.03 C 418.23 811.99 403.90 811.16 400.94 802.05 C 398.76 795.31 398.80 787.78 400.77 781.00 C 403.44 771.52 418.20 770.47 423.00 778.66 C 423.15 772.17 422.79 765.66 423.18 759.19 M 409.44 777.63 C 405.51 778.92 403.81 783.22 403.56 787.03 C 403.27 791.68 402.98 796.66 404.98 801.01 C 407.29 805.87 414.05 806.81 418.41 804.32 C 421.94 802.24 422.81 797.80 422.95 794.03 C 423.01 789.65 423.33 784.92 421.08 780.97 C 418.77 777.08 413.45 776.18 409.44 777.63 Z" />
<path fill="#7a7a79" opacity="1.00" d=" M 492.29 759.28 C 502.14 759.05 512.01 759.17 521.88 759.22 C 522.03 760.48 522.04 761.75 521.92 763.04 C 513.40 763.29 504.87 762.90 496.37 763.23 C 496.41 769.34 496.31 775.44 496.42 781.55 C 503.68 781.64 510.95 781.55 518.21 781.59 C 518.88 782.74 518.48 784.12 518.47 785.38 C 511.20 785.72 503.90 785.46 496.62 785.51 C 496.06 791.84 496.50 798.31 496.41 804.69 C 504.92 804.88 513.44 804.58 521.96 804.84 C 522.13 806.14 522.06 807.42 521.72 808.68 C 511.92 808.63 502.10 808.81 492.30 808.59 C 492.16 792.15 492.19 775.71 492.29 759.28 Z" />
<path fill="#7a7a79" opacity="1.00" d=" M 532.21 759.24 C 533.70 759.12 535.20 759.11 536.71 759.26 C 536.82 761.05 536.86 762.85 536.66 764.64 C 535.19 764.71 533.73 764.71 532.28 764.67 C 531.94 762.87 532.07 761.03 532.21 759.24 Z" />
<path fill="#7a7a79" opacity="1.00" d=" M 571.19 759.22 C 572.41 759.15 573.63 759.14 574.86 759.20 C 575.01 775.68 575.18 792.22 574.78 808.68 C 573.59 808.69 572.40 808.67 571.22 808.64 C 571.08 807.10 571.01 805.58 571.03 804.06 C 566.53 811.46 553.53 811.34 549.63 803.44 C 547.15 798.35 547.24 792.50 547.58 786.99 C 548.00 782.41 549.45 777.16 553.76 774.78 C 559.38 771.85 567.35 772.84 570.99 778.42 C 571.27 772.02 570.88 765.61 571.19 759.22 M 558.29 777.36 C 553.91 778.34 551.75 782.97 551.61 787.10 C 551.38 791.71 551.02 796.65 552.99 800.96 C 555.39 806.04 562.64 806.92 567.00 803.97 C 570.41 801.50 570.97 796.92 571.06 793.02 C 571.05 788.77 571.29 784.08 568.76 780.42 C 566.44 777.17 561.94 776.42 558.29 777.36 Z" />
<path fill="#7a7a79" opacity="1.00" d=" M 679.99 759.16 C 681.16 759.09 682.35 759.14 683.53 759.32 C 683.61 775.71 683.61 792.11 683.53 808.51 C 682.26 808.56 680.55 809.23 679.59 808.16 C 679.61 806.72 679.65 805.30 679.73 803.89 C 675.18 811.60 661.61 811.39 657.96 802.98 C 655.72 797.97 655.85 792.30 656.17 786.94 C 656.56 782.25 658.12 776.89 662.64 774.61 C 668.15 771.97 676.04 772.81 679.39 778.44 C 680.20 772.10 678.97 765.43 679.99 759.16 M 666.42 777.50 C 662.74 778.53 660.66 782.29 660.32 785.90 C 659.86 790.78 659.54 795.99 661.39 800.64 C 663.60 805.81 670.71 806.94 675.21 804.22 C 678.91 801.85 679.52 797.04 679.61 793.02 C 679.61 788.82 679.83 784.19 677.41 780.53 C 675.03 777.08 670.21 776.32 666.42 777.50 Z" />
<path fill="#7a7a79" opacity="1.00" d=" M 696.57 759.35 C 698.04 759.00 699.55 759.17 701.06 759.22 C 701.10 761.01 701.62 763.03 700.81 764.70 C 699.38 764.70 697.96 764.76 696.57 764.55 C 696.47 762.81 696.47 761.07 696.57 759.35 Z" />
<path fill="#7a7a79" opacity="1.00" d=" M 752.87 759.18 C 754.11 759.07 755.35 759.13 756.59 759.35 C 756.71 773.55 756.48 787.76 756.70 801.96 C 756.58 805.00 759.91 805.30 762.17 805.19 C 762.39 806.41 762.38 807.63 762.13 808.86 C 759.40 808.90 756.06 809.14 754.17 806.76 C 752.30 804.24 752.75 800.89 752.67 797.96 C 752.81 785.04 752.40 772.08 752.87 759.18 Z" />
<path fill="#7a7a79" opacity="1.00" d=" M 804.19 759.24 C 805.59 759.27 807.16 758.79 808.47 759.49 C 813.84 771.23 819.25 782.95 824.43 794.78 C 824.67 794.77 825.15 794.73 825.39 794.72 C 830.57 782.87 835.79 771.05 841.14 759.28 C 842.48 759.14 843.82 759.11 845.18 759.19 C 845.62 775.50 845.23 791.86 845.38 808.19 C 844.33 809.25 842.64 808.46 841.34 808.61 C 841.05 795.78 841.28 782.92 841.23 770.08 L 840.25 770.53 C 836.50 779.56 832.19 788.34 828.23 797.28 C 827.50 798.64 827.15 800.27 826.03 801.40 C 825.29 801.35 823.80 801.26 823.05 801.22 C 817.98 790.66 813.65 779.68 808.20 769.33 C 808.28 782.24 808.26 795.15 808.22 808.06 L 807.82 808.70 C 806.63 808.69 805.46 808.68 804.29 808.66 C 803.91 792.21 804.09 775.70 804.19 759.24 Z" />
<path fill="#7a7a79" opacity="1.00" d=" M 896.18 759.21 C 897.41 759.14 898.64 759.14 899.89 759.21 C 900.18 772.79 899.93 786.39 900.01 799.98 C 900.05 801.34 899.93 802.91 900.86 804.07 C 902.02 805.48 904.06 804.90 905.67 805.29 C 905.67 806.42 905.67 807.57 905.64 808.73 C 903.20 809.04 900.45 809.05 898.38 807.57 C 896.12 805.75 896.09 802.58 896.06 799.96 C 896.15 786.38 895.91 772.79 896.18 759.21 Z" />
<path fill="#7a7a79" opacity="1.00" d=" M 1078.41 759.32 C 1079.88 759.04 1081.39 759.15 1082.90 759.23 C 1082.95 761.04 1083.27 762.94 1082.73 764.71 C 1081.29 764.72 1079.86 764.71 1078.46 764.61 C 1078.31 762.84 1078.33 761.07 1078.41 759.32 Z" />
<path fill="#7a7a79" opacity="1.00" d=" M 105.94 762.90 C 107.24 762.71 108.52 762.77 109.79 763.07 C 109.89 766.68 109.75 770.30 109.86 773.92 C 112.29 773.96 114.73 773.91 117.16 773.95 C 117.87 774.90 117.67 776.38 117.22 777.43 C 114.87 777.44 112.53 777.43 110.19 777.41 C 109.39 785.10 109.94 793.16 109.91 800.98 C 109.88 804.95 114.34 805.41 117.33 805.14 C 117.67 806.39 117.66 807.65 117.29 808.90 C 112.99 809.29 106.89 808.48 106.21 803.20 C 105.37 794.65 106.21 786.01 105.76 777.44 C 104.19 777.40 102.60 777.54 101.06 777.24 C 101.07 776.45 101.10 774.88 101.11 774.09 C 102.69 773.89 104.27 773.93 105.86 773.88 C 105.92 770.21 105.77 766.55 105.94 762.90 Z" />
<path fill="#7a7a79" opacity="1.00" d=" M 1131.93 762.91 C 1133.22 762.71 1134.52 762.76 1135.80 763.07 C 1135.87 766.68 1135.74 770.30 1135.87 773.92 C 1138.43 774.12 1141.07 773.55 1143.59 774.26 C 1143.71 775.37 1143.57 776.43 1143.18 777.43 C 1140.86 777.43 1138.57 777.44 1136.28 777.40 C 1135.30 778.67 1136.01 780.49 1135.82 782.00 C 1135.99 788.67 1135.45 795.40 1136.12 802.05 C 1136.76 805.37 1140.72 805.14 1143.33 805.14 C 1143.69 806.41 1143.66 807.66 1143.25 808.91 C 1140.34 808.82 1137.09 809.13 1134.62 807.32 C 1132.34 805.65 1131.95 802.57 1131.89 799.97 C 1131.85 792.58 1131.91 785.19 1131.87 777.80 C 1130.58 776.77 1128.53 777.97 1127.07 777.17 C 1127.08 776.40 1127.09 774.87 1127.09 774.10 C 1128.66 773.91 1130.26 773.91 1131.87 773.87 C 1131.92 770.21 1131.81 766.56 1131.93 762.91 Z" />
<path fill="#7a7a79" opacity="1.00" d=" M 75.56 773.76 C 80.44 772.49 86.24 773.38 89.79 777.19 C 93.03 780.59 93.82 785.52 93.93 790.04 C 94.02 795.01 93.69 800.44 90.56 804.55 C 85.07 811.58 72.32 810.98 67.95 803.01 C 65.07 797.50 65.34 790.91 66.13 784.92 C 66.80 779.80 70.41 775.00 75.56 773.76 M 76.36 777.52 C 71.88 778.86 69.80 783.76 69.71 788.10 C 69.57 792.57 69.26 797.45 71.65 801.44 C 75.02 806.96 84.25 807.06 87.75 801.63 C 89.80 798.50 89.92 794.60 89.92 791.00 C 89.90 787.38 89.65 783.44 87.37 780.46 C 84.87 777.17 80.16 776.29 76.36 777.52 Z" />
<path fill="#7a7a79" opacity="1.00" d=" M 131.55 774.59 C 137.64 772.03 145.15 773.10 150.46 776.99 C 149.89 778.02 149.18 778.95 148.34 779.78 C 143.93 777.42 138.53 775.85 133.66 777.67 C 129.66 778.96 128.70 785.41 132.56 787.43 C 137.36 789.86 143.29 788.22 147.93 791.16 C 152.07 793.69 152.57 799.57 150.55 803.63 C 148.96 806.86 145.44 808.57 142.02 809.11 C 135.84 810.11 128.99 808.50 124.46 804.04 C 125.14 803.02 125.96 802.14 126.91 801.39 C 131.58 805.14 138.17 807.04 143.92 804.82 C 147.82 803.48 149.15 797.62 146.05 794.88 C 141.13 791.62 134.45 793.88 129.62 790.34 C 124.20 786.56 125.51 777.08 131.55 774.59 Z" />
<path fill="#7a7a79" opacity="1.00" d=" M 162.88 778.84 C 167.45 771.85 179.00 771.20 184.34 777.62 C 184.96 778.55 186.33 779.48 185.82 780.78 C 184.93 781.28 184.02 781.76 183.09 782.21 C 181.17 779.04 177.83 776.60 173.96 777.00 C 169.12 776.75 165.13 780.82 164.58 785.47 C 163.95 791.02 163.38 797.37 166.70 802.24 C 170.84 807.57 180.12 806.42 183.10 800.41 C 184.14 800.87 185.13 801.45 186.07 802.13 C 182.60 810.95 168.96 811.80 163.42 804.55 C 160.48 800.70 160.14 795.63 160.14 790.97 C 160.21 786.82 160.53 782.40 162.88 778.84 Z" />
<path fill="#7a7a79" opacity="1.00" d=" M 236.12 779.08 C 240.65 771.63 252.76 771.24 258.15 777.91 C 261.34 781.87 261.74 787.28 261.38 792.16 C 253.56 792.27 245.75 792.18 237.93 792.20 C 236.90 796.76 238.81 802.56 243.33 804.66 C 248.38 806.84 254.73 805.31 258.13 800.95 C 259.26 801.14 260.93 802.24 260.68 803.59 C 256.22 809.38 247.60 810.91 241.10 807.96 C 236.20 805.67 233.89 800.09 233.74 794.95 C 233.59 789.62 233.21 783.81 236.12 779.08 M 237.75 788.87 C 244.28 788.88 250.80 788.86 257.33 788.88 C 258.39 783.20 254.24 776.68 248.07 776.89 C 241.50 776.01 236.61 782.77 237.75 788.87 Z" />
<path fill="#7a7a79" opacity="1.00" d=" M 276.23 779.01 C 278.98 772.88 287.43 771.50 292.56 775.42 C 293.67 776.74 291.75 778.08 290.91 778.97 C 288.11 777.30 284.59 776.20 281.46 777.66 C 277.90 779.30 276.63 783.46 276.43 787.09 C 276.26 794.10 276.42 801.12 276.35 808.13 C 275.48 809.27 273.65 808.59 272.44 808.45 C 272.36 797.05 272.45 785.66 272.39 774.27 C 273.64 773.87 274.92 773.78 276.24 773.98 C 276.44 775.65 276.36 777.33 276.23 779.01 Z" />
<path fill="#7a7a79" opacity="1.00" d=" M 366.21 778.41 C 370.25 772.73 378.93 771.47 384.48 775.62 C 387.79 778.33 388.91 782.84 388.79 786.97 C 388.71 794.18 388.94 801.40 388.67 808.61 C 387.54 808.67 386.41 808.70 385.28 808.71 C 384.09 800.46 385.69 791.74 384.42 783.40 C 383.66 778.60 378.36 776.16 373.92 777.16 C 370.13 777.69 366.99 780.87 366.48 784.66 C 365.81 792.62 366.86 800.81 365.94 808.68 C 364.77 808.71 363.60 808.68 362.44 808.57 C 362.29 797.13 362.45 785.69 362.36 774.26 C 363.60 773.88 364.87 773.78 366.17 773.98 C 366.29 775.44 366.31 776.92 366.21 778.41 Z" />
<path fill="#7a7a79" opacity="1.00" d=" M 587.50 780.59 C 590.45 771.72 604.49 770.47 608.97 778.62 C 608.97 777.06 609.01 775.52 609.10 773.98 C 610.36 773.88 611.63 773.91 612.90 774.08 C 613.01 785.72 612.95 797.36 612.93 809.00 C 612.93 814.08 610.43 819.61 605.38 821.42 C 599.30 823.63 591.15 822.65 587.23 817.04 C 588.02 816.08 588.94 815.26 589.99 814.60 C 593.90 819.20 601.61 820.31 606.30 816.32 C 609.64 812.93 608.95 807.81 608.99 803.47 C 604.43 811.50 590.43 810.32 587.49 801.47 C 585.30 794.80 585.30 787.25 587.50 780.59 M 596.30 777.46 C 592.23 778.65 590.43 783.05 590.13 786.93 C 589.80 791.65 589.56 796.75 591.87 801.05 C 594.93 806.55 604.17 806.46 607.23 801.00 C 608.98 797.98 608.97 794.37 609.01 791.00 C 608.99 787.38 608.93 783.45 606.77 780.37 C 604.49 777.09 599.91 776.37 596.30 777.46 Z" />
<path fill="#7a7a79" opacity="1.00" d=" M 718.06 778.64 C 722.74 770.87 736.57 771.32 739.94 780.05 C 742.44 787.05 742.41 795.05 740.13 802.11 C 737.13 811.20 722.61 812.03 718.10 803.84 C 717.90 809.81 718.40 815.84 717.85 821.78 C 716.64 821.80 715.45 821.78 714.26 821.70 C 714.08 805.85 714.21 789.99 714.19 774.14 C 715.43 773.88 716.69 773.85 717.97 774.04 C 718.08 775.56 718.11 777.10 718.06 778.64 M 724.44 777.52 C 720.38 778.69 718.50 783.04 718.27 786.93 C 718.04 791.68 717.61 796.80 719.78 801.21 C 722.21 805.98 729.01 806.78 733.32 804.22 C 737.02 801.84 737.61 797.04 737.71 793.01 C 737.69 788.78 737.94 784.11 735.45 780.45 C 733.05 777.00 728.21 776.34 724.44 777.52 Z" />
<path fill="#7a7a79" opacity="1.00" d=" M 859.14 777.10 C 863.31 772.87 870.02 772.79 875.53 773.62 C 879.75 774.08 882.96 777.80 883.10 781.99 C 883.43 788.64 883.15 795.32 883.25 801.99 C 882.96 804.18 883.83 806.72 882.79 808.71 C 881.58 808.87 880.45 808.72 879.41 808.25 C 879.44 807.44 879.52 805.82 879.55 805.01 C 875.13 809.58 867.78 810.69 862.03 808.00 C 855.19 804.83 855.15 793.14 862.30 790.30 C 867.65 788.05 873.62 789.14 879.26 788.87 C 879.41 785.09 880.16 779.68 875.98 777.75 C 871.06 776.10 865.15 776.52 860.97 779.83 C 860.16 779.02 859.54 778.11 859.14 777.10 M 864.98 793.02 C 859.76 794.38 859.37 802.72 864.25 804.77 C 868.37 806.42 873.65 806.14 877.13 803.20 C 880.25 800.46 879.22 795.98 879.38 792.34 C 874.60 792.26 869.63 791.68 864.98 793.02 Z" />
<path fill="#7a7a79" opacity="1.00" d=" M 915.63 778.62 C 920.64 771.23 933.38 771.40 938.15 778.97 C 940.59 782.75 940.73 787.39 940.73 791.74 L 940.10 792.17 C 932.37 792.28 924.65 792.14 916.93 792.24 C 916.45 796.66 917.70 801.85 921.79 804.25 C 926.88 807.02 933.81 805.56 937.36 800.95 C 938.53 801.07 939.40 802.07 940.03 803.01 C 936.48 809.08 927.94 810.62 921.60 808.51 C 915.98 806.67 913.10 800.64 912.95 795.06 C 912.77 789.53 912.39 783.43 915.63 778.62 M 919.66 779.64 C 917.36 782.08 916.69 785.60 916.88 788.84 C 923.41 788.93 929.94 788.81 936.48 788.90 C 937.31 784.48 935.13 779.06 930.62 777.52 C 926.95 776.26 922.42 776.74 919.66 779.64 Z" />
<path fill="#7a7a79" opacity="1.00" d=" M 955.43 778.94 C 958.33 772.71 967.36 771.31 972.23 775.96 C 971.81 777.03 971.22 778.61 969.97 778.88 C 967.22 777.27 963.81 776.25 960.75 777.61 C 957.20 779.25 955.88 783.38 955.69 787.00 C 955.46 794.17 955.73 801.35 955.55 808.52 C 954.28 808.52 952.60 809.25 951.65 808.16 C 951.74 796.77 951.52 785.37 951.76 773.98 C 952.69 773.97 954.54 773.97 955.47 773.96 C 955.68 775.60 955.63 777.28 955.43 778.94 Z" />
<path fill="#7a7a79" opacity="1.00" d=" M 984.25 778.40 C 989.05 771.32 1002.02 771.17 1005.36 779.65 C 1008.86 773.13 1017.87 771.43 1024.04 774.99 C 1027.75 777.28 1029.35 781.86 1029.32 786.06 C 1029.34 793.41 1029.34 800.76 1029.32 808.12 C 1028.47 809.36 1026.70 808.42 1025.47 808.59 C 1025.23 801.09 1025.54 793.58 1025.32 786.09 C 1025.20 782.97 1023.96 779.54 1021.03 778.04 C 1016.98 776.08 1011.36 776.82 1008.66 780.64 C 1006.23 783.90 1006.93 788.17 1006.84 791.97 C 1006.74 797.52 1007.02 803.10 1006.69 808.65 C 1005.50 808.68 1004.33 808.69 1003.16 808.68 C 1002.40 800.39 1003.56 791.95 1002.53 783.66 C 1001.77 777.85 994.75 775.59 989.89 777.76 C 986.22 779.13 984.21 783.12 984.34 786.90 C 984.31 794.00 984.33 801.10 984.34 808.20 C 983.33 809.20 981.71 808.57 980.48 808.51 C 980.33 797.10 980.49 785.68 980.40 774.26 C 981.63 773.87 982.90 773.78 984.22 773.99 C 984.33 775.45 984.34 776.92 984.25 778.40 Z" />
<path fill="#7a7a79" opacity="1.00" d=" M 1042.29 779.30 C 1046.90 771.31 1060.16 771.14 1065.13 778.84 C 1067.71 782.71 1067.86 787.54 1067.75 792.04 C 1059.88 792.45 1051.97 792.08 1044.10 792.22 C 1043.37 796.78 1044.97 802.30 1049.36 804.52 C 1054.07 806.70 1060.27 805.66 1063.73 801.68 C 1064.73 799.88 1067.43 802.30 1066.88 803.71 C 1062.35 809.47 1053.66 810.92 1047.19 807.86 C 1042.42 805.53 1040.20 800.05 1040.03 795.00 C 1039.86 789.74 1039.50 784.01 1042.29 779.30 M 1048.37 778.31 C 1044.85 780.48 1043.69 784.93 1043.94 788.84 C 1050.57 788.86 1057.20 788.97 1063.82 788.78 C 1063.80 785.85 1063.41 782.75 1061.59 780.37 C 1058.58 776.43 1052.48 775.88 1048.37 778.31 Z" />
<path fill="#7a7a79" opacity="1.00" d=" M 1099.70 774.75 C 1105.83 771.94 1113.44 773.10 1118.90 776.92 C 1118.41 778.04 1117.71 778.98 1116.77 779.74 C 1112.30 777.41 1106.82 775.77 1101.93 777.75 C 1098.18 779.14 1097.27 785.10 1100.74 787.27 C 1105.81 790.07 1112.43 787.97 1117.15 791.71 C 1122.44 796.09 1120.45 805.92 1113.97 808.11 C 1107.06 810.73 1098.23 809.36 1093.04 804.02 C 1093.62 803.06 1094.32 802.19 1095.13 801.40 C 1100.09 804.98 1106.77 807.24 1112.70 804.68 C 1116.69 803.09 1117.69 796.44 1113.69 794.34 C 1108.69 791.89 1102.43 793.68 1097.83 790.16 C 1092.81 786.32 1094.01 777.37 1099.70 774.75 Z" />
<path fill="#7a7a79" opacity="1.00" d=" M 1153.86 778.83 C 1158.81 771.09 1172.08 771.36 1176.70 779.32 C 1179.04 783.13 1179.14 787.76 1179.04 792.11 C 1171.10 792.39 1163.15 792.05 1155.21 792.28 C 1154.92 796.61 1155.97 801.69 1159.94 804.13 C 1165.19 807.20 1172.17 805.39 1175.97 800.84 C 1176.93 801.41 1177.79 802.14 1178.55 803.03 C 1174.13 809.67 1164.23 811.23 1157.53 807.34 C 1153.04 804.58 1151.34 799.06 1151.26 794.06 C 1151.14 788.92 1150.94 783.32 1153.86 778.83 M 1158.33 779.32 C 1155.79 781.74 1155.07 785.44 1155.20 788.82 C 1161.79 788.92 1168.38 788.87 1174.97 788.85 C 1175.35 784.74 1173.89 779.94 1169.99 777.97 C 1166.30 776.19 1161.40 776.47 1158.33 779.32 Z" />
<path fill="#7a7a79" opacity="1.00" d=" M 1194.02 778.58 C 1197.08 772.47 1205.91 771.54 1210.76 775.99 C 1210.13 777.01 1209.45 778.00 1208.73 778.97 C 1205.99 777.72 1203.01 776.25 1199.95 777.32 C 1196.25 778.36 1194.47 782.32 1194.11 785.86 C 1193.59 793.44 1194.28 801.08 1193.75 808.66 C 1192.59 808.67 1191.45 808.69 1190.32 808.70 C 1189.60 797.23 1190.04 785.53 1190.10 773.98 C 1191.33 773.91 1192.58 773.92 1193.84 774.00 C 1193.88 775.52 1193.94 777.04 1194.02 778.58 Z" />
<path fill="#7a7a79" opacity="1.00" d=" M 435.87 773.99 C 437.23 773.87 438.59 773.90 439.95 774.10 C 443.54 783.28 446.98 792.52 450.41 801.77 L 451.03 801.96 C 454.52 792.74 457.82 783.46 461.26 774.24 C 462.59 773.86 463.96 773.78 465.38 773.97 C 461.09 786.03 456.35 797.93 451.88 809.92 C 450.52 813.34 449.41 817.07 446.78 819.77 C 444.80 821.82 441.77 821.87 439.12 821.79 C 438.77 820.57 438.71 819.34 438.93 818.09 C 440.86 817.93 443.16 818.23 444.60 816.64 C 446.76 814.23 447.58 810.98 448.74 808.05 C 444.68 796.62 439.88 785.44 435.87 773.99 Z" />
<path fill="#7a7a79" opacity="1.00" d=" M 532.45 774.30 C 533.68 773.86 534.96 773.75 536.29 773.98 C 536.59 785.38 536.32 796.81 536.43 808.22 C 535.36 809.12 533.75 808.67 532.51 808.46 C 532.40 797.07 532.52 785.68 532.45 774.30 Z" />
<path fill="#7a7a79" opacity="1.00" d=" M 696.95 774.07 C 698.22 773.86 699.50 773.87 700.79 774.11 C 700.82 785.61 700.94 797.12 700.73 808.62 C 699.58 808.67 698.44 808.70 697.31 808.71 L 696.94 808.09 C 696.86 796.75 696.84 785.41 696.95 774.07 Z" />
<path fill="#7a7a79" opacity="1.00" d=" M 1078.83 773.99 C 1080.11 773.80 1081.39 773.88 1082.65 774.22 C 1082.59 785.67 1082.74 797.13 1082.57 808.58 C 1081.39 808.68 1080.23 808.71 1079.07 808.69 C 1078.34 797.25 1078.83 785.53 1078.83 773.99 Z" />
<path fill="#7a7a79" opacity="1.00" d=" M 625.20 802.37 C 626.72 802.31 628.25 802.30 629.79 802.34 C 630.25 804.38 630.28 806.62 629.80 808.68 C 628.27 808.69 626.74 808.69 625.23 808.67 C 624.85 806.58 624.89 804.44 625.20 802.37 Z" />
<path fill="#7a7a79" opacity="1.00" d=" M 771.13 802.34 C 772.61 802.30 774.10 802.30 775.60 802.41 C 775.76 804.46 775.74 806.53 775.62 808.60 C 774.11 808.69 772.60 808.70 771.11 808.69 C 770.35 806.87 770.32 804.12 771.13 802.34 Z" />
</svg>
