<?xml version="1.0" encoding="UTF-8" ?>
<!DOCTYPE svg PUBLIC "-//W3C//DTD SVG 1.1//EN" "http://www.w3.org/Graphics/SVG/1.1/DTD/svg11.dtd">
<svg width="2160pt" height="726pt" viewBox="0 0 2160 726" version="1.1" xmlns="http://www.w3.org/2000/svg">
<path fill="#000000" opacity="1.00" d=" M 120.54 60.80 C 124.39 57.53 130.19 58.36 134.18 60.95 C 134.60 62.27 135.27 63.54 135.32 64.96 C 135.70 99.91 135.08 134.90 137.32 169.81 C 138.27 184.51 140.63 199.21 139.45 213.98 C 139.43 216.31 138.70 218.91 140.26 220.93 C 137.87 245.04 141.45 269.10 142.88 293.14 C 143.68 302.09 144.20 311.09 144.52 320.08 C 143.59 323.95 142.09 327.95 143.30 331.94 C 143.26 334.66 145.57 336.48 148.03 336.99 C 151.62 337.70 155.36 337.72 158.98 337.17 C 161.39 336.79 163.38 334.84 165.93 335.17 C 171.18 335.32 176.47 334.90 181.70 335.40 C 184.38 336.48 187.64 338.56 187.23 341.90 C 187.24 344.73 185.65 347.16 183.17 348.44 C 179.36 348.78 175.76 346.85 171.96 347.38 C 164.62 348.11 157.24 347.33 149.88 347.45 C 145.51 347.47 142.39 351.37 138.13 351.80 C 134.16 352.41 130.26 350.15 127.95 347.05 C 125.89 343.98 127.96 340.26 128.19 336.94 C 130.26 327.46 129.55 317.71 128.89 308.12 C 128.04 278.35 125.94 248.63 125.25 218.86 C 124.21 204.94 124.88 190.94 123.89 177.01 C 123.23 145.93 121.66 114.87 121.13 83.79 C 120.51 76.15 120.58 68.46 120.54 60.80 Z" />
<path fill="#f0800e" opacity="1.00" d=" M 1704.83 63.73 C 1719.47 61.72 1734.28 62.32 1749.02 62.26 C 1759.24 62.17 1769.43 63.29 1779.56 64.67 C 1824.25 70.34 1867.55 86.21 1905.59 110.31 C 1934.24 128.49 1959.92 151.34 1981.28 177.71 C 2020.26 225.63 2044.57 285.36 2049.66 346.94 C 2054.23 397.75 2046.07 449.68 2026.01 496.58 C 2020.94 497.45 2015.80 497.84 2010.67 498.15 C 2014.47 488.73 2018.92 479.54 2021.87 469.79 C 2027.45 454.61 2030.97 438.78 2034.10 422.94 C 2035.39 408.96 2038.14 395.07 2037.95 380.98 C 2037.72 372.86 2038.29 364.72 2037.43 356.63 C 2036.41 345.50 2035.56 334.32 2033.50 323.33 C 2031.79 316.83 2030.52 310.24 2029.26 303.65 C 2026.84 294.69 2024.20 285.78 2020.93 277.09 C 2019.46 272.13 2017.54 267.34 2015.29 262.70 C 2008.39 244.44 1998.27 227.60 1987.61 211.32 C 1983.34 205.32 1979.31 199.11 1974.47 193.55 C 1967.33 185.05 1960.31 176.41 1952.25 168.76 C 1944.97 161.00 1936.44 154.60 1928.66 147.38 C 1906.18 130.50 1882.16 115.18 1855.70 105.33 C 1848.08 102.64 1840.80 99.00 1832.92 97.12 C 1825.17 94.47 1817.08 93.12 1809.24 90.81 C 1803.20 89.10 1796.90 88.67 1790.75 87.51 C 1769.06 83.97 1746.99 83.61 1725.10 84.92 C 1713.52 85.76 1702.13 88.05 1690.66 89.69 C 1679.77 92.31 1668.84 94.77 1658.18 98.21 C 1630.79 107.44 1604.31 119.93 1580.84 136.91 C 1566.34 147.12 1552.59 158.47 1540.25 171.22 C 1532.61 178.64 1525.98 187.00 1519.08 195.09 C 1515.79 198.87 1513.40 203.32 1510.17 207.14 C 1505.59 212.46 1502.57 218.84 1498.81 224.72 C 1492.66 234.89 1486.92 245.32 1482.30 256.28 C 1480.94 259.89 1477.52 263.71 1479.32 267.71 L 1479.40 267.95 C 1467.28 269.33 1455.21 271.06 1443.11 272.55 C 1455.68 236.47 1474.75 202.66 1499.37 173.42 C 1523.71 144.43 1553.35 119.90 1586.40 101.44 C 1622.79 81.03 1663.34 68.15 1704.83 63.73 Z" />
<path fill="#f18f03" opacity="1.00" d=" M 1725.10 84.92 C 1746.99 83.61 1769.06 83.97 1790.75 87.51 C 1796.90 88.67 1803.20 89.10 1809.24 90.81 C 1817.08 93.12 1825.17 94.47 1832.92 97.12 C 1840.80 99.00 1848.08 102.64 1855.70 105.33 C 1882.16 115.18 1906.18 130.50 1928.66 147.38 C 1936.44 154.60 1944.97 161.00 1952.25 168.76 C 1960.31 176.41 1967.33 185.05 1974.47 193.55 C 1979.31 199.11 1983.34 205.32 1987.61 211.32 C 1998.27 227.60 2008.39 244.44 2015.29 262.70 C 2017.54 267.34 2019.46 272.13 2020.93 277.09 C 2024.20 285.78 2026.84 294.69 2029.26 303.65 C 2030.52 310.24 2031.79 316.83 2033.50 323.33 C 2035.56 334.32 2036.41 345.50 2037.43 356.63 C 2038.29 364.72 2037.72 372.86 2037.95 380.98 C 2038.14 395.07 2035.39 408.96 2034.10 422.94 C 2030.97 438.78 2027.45 454.61 2021.87 469.79 C 2018.92 479.54 2014.47 488.73 2010.67 498.15 L 2010.54 498.48 C 2002.12 499.13 1993.73 500.21 1985.30 500.46 C 1983.68 500.03 1982.10 499.52 1980.55 499.02 C 1984.36 493.59 1987.45 487.65 1989.66 481.39 C 1990.48 478.67 1992.71 476.60 1993.27 473.78 C 1994.27 468.86 1997.20 464.63 1998.49 459.80 C 2000.20 455.35 2000.15 450.43 2002.18 446.09 C 2004.74 440.59 2005.48 434.52 2006.58 428.62 C 2008.77 418.68 2010.44 408.61 2011.25 398.46 C 2011.34 390.63 2012.88 382.87 2012.17 375.03 C 2011.58 369.84 2012.97 364.63 2012.05 359.48 C 2011.37 355.55 2011.46 351.55 2010.98 347.61 C 2010.53 342.70 2009.06 337.93 2008.93 332.99 C 2008.76 327.76 2006.48 322.93 2005.75 317.80 C 2005.04 313.27 2003.90 308.83 2002.51 304.47 C 2000.85 299.64 2000.70 294.37 1998.42 289.74 C 1995.96 284.53 1994.89 278.80 1992.29 273.67 C 1990.48 270.13 1989.31 266.29 1987.25 262.88 C 1984.46 258.42 1983.04 253.27 1980.22 248.82 C 1977.63 244.07 1974.59 239.57 1972.22 234.71 C 1969.86 229.67 1965.80 225.76 1962.98 221.02 C 1960.65 217.09 1957.23 214.00 1954.63 210.28 C 1950.14 203.91 1944.47 198.52 1939.51 192.54 C 1929.73 181.66 1918.43 172.27 1906.98 163.23 C 1898.25 158.02 1890.55 151.26 1881.61 146.38 C 1871.16 140.54 1860.56 134.89 1849.45 130.46 C 1844.53 127.40 1838.62 127.00 1833.45 124.59 C 1829.60 122.84 1825.53 121.69 1821.41 120.88 C 1821.76 120.33 1822.14 119.78 1822.54 119.23 C 1815.47 119.72 1808.73 117.12 1801.99 115.46 C 1792.43 114.63 1783.25 111.06 1773.58 111.37 C 1760.76 109.83 1747.85 109.62 1734.96 110.10 C 1729.23 110.60 1723.52 111.33 1717.77 111.48 C 1712.51 111.48 1707.58 113.61 1702.35 113.80 C 1693.71 115.43 1685.02 117.00 1676.68 119.81 C 1671.70 121.52 1666.41 122.15 1661.53 124.17 C 1656.02 125.98 1650.79 128.52 1645.17 129.97 C 1639.68 133.42 1633.40 135.32 1627.96 138.86 C 1621.40 142.84 1614.02 145.33 1607.65 149.63 C 1601.20 154.65 1594.32 159.08 1587.49 163.55 C 1582.37 167.02 1578.20 171.67 1573.08 175.14 C 1567.66 178.66 1564.50 184.54 1559.52 188.55 C 1552.21 194.25 1547.24 202.20 1540.94 208.88 C 1535.36 214.85 1531.76 222.32 1526.41 228.46 C 1524.24 231.07 1523.40 234.48 1521.23 237.09 C 1518.68 240.18 1517.96 244.31 1515.44 247.42 C 1511.75 251.96 1511.25 258.61 1506.51 262.32 C 1502.10 263.54 1497.41 263.31 1493.05 264.79 C 1488.48 265.83 1483.81 266.37 1479.32 267.71 C 1477.52 263.71 1480.94 259.89 1482.30 256.28 C 1486.92 245.32 1492.66 234.89 1498.81 224.72 C 1502.57 218.84 1505.59 212.46 1510.17 207.14 C 1513.40 203.32 1515.79 198.87 1519.08 195.09 C 1525.98 187.00 1532.61 178.64 1540.25 171.22 C 1552.59 158.47 1566.34 147.12 1580.84 136.91 C 1604.31 119.93 1630.79 107.44 1658.18 98.21 C 1668.84 94.77 1679.77 92.31 1690.66 89.69 C 1702.13 88.05 1713.52 85.76 1725.10 84.92 Z" />
<path fill="#000000" opacity="1.00" d=" M 368.74 93.67 C 378.05 92.98 387.07 95.85 396.02 97.97 C 402.18 99.46 408.76 100.90 413.76 105.03 C 413.46 106.34 413.74 107.49 414.59 108.48 C 420.29 116.25 424.91 125.16 426.09 134.83 C 428.55 152.72 428.98 171.14 424.89 188.83 C 423.70 193.69 421.64 198.27 420.04 203.00 C 416.25 208.70 411.66 213.84 407.28 219.10 C 419.06 226.87 425.30 240.46 428.18 253.84 C 430.24 267.44 430.86 281.24 430.46 294.99 C 429.70 310.05 423.78 325.27 412.46 335.51 C 400.15 347.24 382.75 352.56 365.96 351.79 C 362.24 351.71 359.11 348.54 358.55 344.95 C 357.20 333.96 359.02 322.95 359.40 311.95 C 360.36 296.64 361.08 281.32 361.98 266.00 C 363.64 250.05 362.02 234.03 361.86 218.06 C 362.75 196.38 363.23 174.69 364.06 153.01 C 364.62 137.85 364.98 122.68 364.37 107.51 C 363.70 106.85 363.02 106.18 362.35 105.53 C 361.82 100.72 363.55 95.05 368.74 93.67 M 379.25 116.88 C 375.61 135.33 376.07 154.26 376.65 172.96 C 376.77 183.64 376.19 194.32 376.23 205.00 C 376.12 207.38 377.36 209.50 378.13 211.67 C 383.81 211.92 389.74 211.32 394.84 208.62 C 400.81 205.34 404.96 199.45 407.30 193.17 C 413.55 176.87 411.78 159.04 411.07 142.00 C 409.73 135.93 408.60 129.80 407.21 123.72 C 405.28 117.84 402.03 111.93 396.54 108.71 C 392.99 106.91 388.85 105.96 384.89 106.57 C 381.30 108.65 380.14 113.10 379.25 116.88 M 375.43 266.06 C 375.37 278.02 375.07 290.04 376.47 301.95 C 375.72 304.56 374.60 307.11 374.51 309.87 C 373.90 318.98 374.42 328.12 374.49 337.24 C 384.64 337.09 394.72 333.17 401.93 325.95 C 409.55 318.59 415.41 308.87 416.14 298.11 C 416.43 292.04 416.44 285.95 416.13 279.88 C 415.76 277.92 415.68 275.93 415.62 273.95 C 415.46 265.75 412.98 257.85 410.42 250.14 C 407.70 243.49 404.45 236.71 398.77 232.07 C 392.97 227.10 385.26 224.90 377.74 224.66 C 376.59 238.43 375.53 252.23 375.43 266.06 Z" />
<path fill="#000000" opacity="1.00" d=" M 826.39 103.39 C 833.54 95.42 845.90 91.47 855.86 96.36 C 859.96 98.13 865.11 100.87 864.53 106.16 C 859.70 109.31 853.99 106.57 848.94 105.66 C 842.03 105.14 835.55 109.25 831.70 114.78 C 828.04 119.41 826.59 125.21 824.47 130.61 C 821.49 138.78 822.09 147.65 822.82 156.15 C 826.30 170.02 830.05 184.45 839.05 195.89 C 849.32 210.74 861.01 224.76 868.82 241.14 C 873.19 250.62 875.51 260.88 877.23 271.12 C 878.51 288.38 878.14 306.56 870.43 322.44 C 865.06 334.56 855.41 345.83 842.15 349.26 C 836.24 351.23 829.97 351.07 823.93 352.20 C 818.49 351.03 811.57 349.22 809.92 343.09 C 810.73 342.09 811.54 341.08 812.36 340.08 C 820.75 340.75 829.31 344.50 837.64 341.42 C 847.24 338.37 854.16 330.04 858.11 321.08 C 864.09 305.83 866.97 289.24 865.12 272.89 C 863.72 260.50 858.79 248.87 853.00 237.95 C 844.12 221.94 832.25 207.81 823.13 191.94 C 813.71 175.24 808.14 155.78 810.66 136.53 C 812.82 124.38 817.89 112.46 826.39 103.39 Z" />
<path fill="#000000" opacity="1.00" d=" M 1097.09 99.12 C 1100.53 95.62 1106.08 93.07 1110.84 95.40 C 1121.88 102.70 1135.65 102.33 1148.17 104.92 C 1156.24 107.42 1161.27 114.72 1165.69 121.43 C 1172.40 131.48 1176.48 143.07 1179.17 154.79 C 1181.80 167.36 1183.42 180.16 1183.48 193.01 C 1183.39 196.01 1183.99 199.15 1182.87 202.03 C 1182.95 234.72 1185.74 267.82 1179.13 300.13 C 1176.73 311.63 1173.27 323.11 1167.15 333.23 C 1162.07 341.59 1154.69 348.80 1145.48 352.41 C 1135.90 355.86 1124.93 355.61 1115.66 351.32 C 1105.14 346.07 1098.02 336.05 1093.25 325.60 C 1087.55 313.02 1084.25 299.48 1082.08 285.89 C 1077.33 256.53 1076.94 226.71 1077.59 197.03 C 1078.03 179.99 1079.70 163.00 1082.10 146.13 C 1083.15 137.37 1085.32 128.79 1087.11 120.17 C 1089.34 112.73 1091.80 105.00 1097.09 99.12 M 1103.97 109.81 C 1100.74 115.71 1100.44 122.56 1099.54 129.08 C 1098.49 137.74 1097.71 146.42 1096.81 155.09 C 1095.71 170.13 1093.59 185.06 1092.81 200.14 C 1092.56 207.75 1091.22 215.35 1092.08 222.97 C 1092.24 230.64 1092.50 238.30 1092.70 245.97 C 1092.72 260.76 1094.35 275.51 1096.79 290.09 C 1099.31 301.42 1101.71 312.90 1106.44 323.57 C 1110.46 331.33 1115.40 339.72 1123.96 343.04 C 1131.33 344.93 1139.64 343.54 1145.57 338.58 C 1153.42 332.64 1157.00 323.17 1160.23 314.24 C 1165.46 299.39 1167.50 283.67 1168.46 268.01 C 1168.77 258.14 1170.06 248.25 1168.95 238.38 C 1167.76 215.95 1166.13 193.52 1164.88 171.10 C 1164.59 166.37 1164.57 161.62 1164.29 156.88 C 1164.33 155.14 1163.07 153.77 1162.36 152.30 C 1163.81 148.91 1162.91 145.19 1162.24 141.73 C 1159.82 129.33 1151.08 118.43 1139.74 112.98 C 1128.48 107.95 1115.90 110.15 1103.97 109.81 Z" />
<path fill="#000000" opacity="1.00" d=" M 995.63 98.19 C 997.93 96.90 1000.11 94.67 1002.99 95.14 C 1005.93 95.43 1008.80 96.27 1011.60 97.24 C 1012.89 112.38 1011.87 127.72 1013.13 142.88 C 1013.74 173.33 1016.44 203.69 1016.87 234.14 C 1018.23 257.05 1017.15 280.10 1018.18 303.04 C 1018.29 317.41 1019.59 331.72 1020.68 346.04 C 1021.10 348.39 1018.92 349.97 1017.97 351.87 C 1014.94 347.07 1008.33 348.66 1003.56 348.21 C 1003.25 341.44 1003.41 334.65 1003.13 327.88 C 1002.61 324.61 1002.79 321.29 1002.74 318.00 C 1002.52 295.30 1001.45 272.63 1001.34 249.93 C 1001.47 248.31 1000.90 246.80 1000.31 245.33 C 1003.18 240.21 1000.89 234.12 1000.10 228.71 C 997.77 227.37 994.87 227.24 992.22 227.27 C 979.73 229.06 967.43 225.23 955.04 224.25 C 953.00 224.07 951.09 224.95 949.18 225.49 C 948.61 240.65 948.35 255.82 948.17 270.98 C 948.13 273.36 949.42 275.53 949.34 277.92 C 950.06 298.64 951.79 319.34 951.72 340.08 C 952.15 346.61 943.03 350.00 938.89 345.08 C 933.19 338.46 934.36 329.10 934.22 321.01 C 934.11 287.96 935.51 254.89 934.18 221.86 C 932.97 218.29 935.14 214.74 935.19 211.12 C 936.79 190.04 934.21 168.95 934.14 147.86 C 933.38 143.30 933.77 138.65 933.52 134.06 C 933.44 124.71 932.67 115.38 932.54 106.04 C 932.47 101.30 937.73 97.57 942.23 98.76 C 945.50 99.95 947.35 103.22 948.17 106.43 C 949.30 111.18 949.68 116.08 949.64 120.96 C 949.28 141.30 948.69 161.64 948.46 181.98 C 948.22 192.06 948.55 202.16 947.68 212.21 C 947.98 212.68 948.60 213.62 948.90 214.09 C 957.69 216.46 966.89 216.50 975.93 216.86 C 983.13 216.82 990.89 217.84 997.52 214.37 C 1001.14 211.48 1001.37 206.31 1001.70 202.04 C 1001.91 187.27 999.99 172.58 999.12 157.85 C 997.63 138.01 995.41 118.12 995.63 98.19 Z" />
<path fill="#000000" opacity="1.00" d=" M 1253.74 98.60 C 1265.63 95.24 1278.04 97.80 1290.10 98.64 C 1299.24 99.84 1308.83 100.57 1317.10 105.02 C 1317.55 106.04 1318.01 107.05 1318.51 108.07 C 1317.43 111.75 1313.58 113.12 1310.14 113.51 C 1306.14 113.92 1301.86 114.74 1298.12 112.78 C 1289.34 110.11 1280.01 110.24 1270.96 110.88 C 1268.05 110.68 1267.50 113.73 1266.62 115.81 C 1264.77 119.60 1265.43 123.94 1265.01 128.02 C 1264.07 140.66 1263.43 153.32 1262.65 165.97 C 1262.33 170.60 1262.66 175.28 1261.86 179.87 C 1261.72 190.47 1260.27 201.08 1261.26 211.67 C 1269.90 212.94 1278.74 211.76 1287.33 213.69 C 1288.97 214.49 1290.95 215.19 1291.76 217.01 C 1292.53 220.19 1289.76 222.93 1286.96 223.85 C 1278.90 227.32 1270.22 221.49 1262.07 223.87 C 1258.23 227.04 1257.41 232.34 1257.33 237.03 C 1257.15 250.35 1257.30 263.68 1257.25 277.01 C 1257.08 292.69 1258.47 308.31 1259.01 323.97 C 1259.14 331.51 1261.01 339.32 1258.42 346.64 C 1257.01 350.83 1252.48 353.76 1248.08 352.58 C 1245.05 351.01 1242.33 348.92 1239.33 347.32 C 1242.02 323.99 1243.72 300.53 1243.57 277.03 C 1243.51 249.66 1244.38 222.30 1245.98 194.97 C 1247.91 164.63 1249.62 134.28 1249.98 103.88 C 1249.94 101.46 1251.99 99.89 1253.74 98.60 Z" />
<path fill="#000000" opacity="1.00" d=" M 243.32 103.10 C 246.73 99.38 252.19 99.07 256.89 99.48 C 259.58 99.58 261.49 101.97 264.12 102.26 C 274.87 103.38 285.85 103.57 296.26 106.79 C 299.39 107.66 302.82 108.88 304.51 111.88 C 304.36 116.26 299.11 117.87 295.84 119.69 C 284.92 117.44 274.05 114.17 262.88 113.06 C 261.29 112.80 259.69 112.68 258.09 112.60 C 257.31 113.39 256.52 114.17 255.73 114.95 C 256.69 127.30 255.80 139.68 255.52 152.05 C 255.38 165.36 254.36 178.65 254.55 191.97 C 254.62 194.94 255.86 198.78 259.04 199.66 C 268.98 200.32 279.12 198.09 288.93 200.57 C 291.30 201.15 293.82 202.66 294.62 205.10 C 295.24 208.46 293.63 212.00 291.01 214.11 C 287.79 216.13 283.73 215.92 280.10 215.48 C 277.51 215.19 275.57 213.05 273.00 212.74 C 267.97 212.11 262.95 211.33 257.89 210.83 C 257.01 211.53 256.14 212.24 255.26 212.94 C 257.02 236.91 255.66 260.94 255.48 284.94 C 255.33 299.94 254.67 315.14 257.64 329.94 C 258.50 333.62 259.30 338.38 263.48 339.68 C 275.66 343.97 288.65 339.25 301.10 341.33 C 303.42 341.92 306.45 342.34 307.32 344.97 C 307.65 346.90 306.58 348.98 304.80 349.80 C 300.02 352.52 294.33 352.47 289.00 352.57 C 275.38 352.59 261.76 352.61 248.14 352.56 C 244.60 352.78 240.85 350.58 240.12 346.96 C 238.52 342.48 241.85 337.28 238.78 333.30 C 243.74 322.44 241.01 310.32 241.13 298.86 C 240.15 290.97 240.76 282.98 240.02 275.08 C 239.14 265.37 240.49 255.67 240.38 245.95 C 240.71 237.35 240.30 228.69 241.12 220.12 C 241.47 198.75 242.12 177.38 242.81 156.01 C 242.32 140.67 241.31 125.35 241.21 110.00 C 241.11 107.54 241.44 104.88 243.32 103.10 Z" />
<path fill="#000000" opacity="1.00" d=" M 493.20 103.16 C 496.62 99.36 502.19 99.04 506.95 99.50 C 509.63 99.61 511.50 102.05 514.15 102.27 C 526.16 103.51 538.57 103.63 549.96 108.11 C 552.13 109.11 555.35 111.08 554.17 113.91 C 552.43 116.35 549.67 117.71 547.10 119.10 C 544.92 120.58 542.44 118.73 540.17 118.41 C 531.11 116.48 522.13 113.93 512.87 113.07 C 511.27 112.81 509.66 112.68 508.05 112.59 C 507.27 113.36 506.49 114.14 505.71 114.90 C 506.93 140.58 504.31 166.24 504.43 191.91 C 504.57 194.91 505.80 198.92 509.10 199.67 C 519.02 200.29 529.12 198.11 538.90 200.56 C 541.24 201.20 543.71 202.64 544.56 205.03 C 545.23 208.53 543.50 212.29 540.63 214.31 C 537.42 216.09 533.57 215.92 530.05 215.48 C 527.48 215.21 525.58 213.09 523.04 212.77 C 518.35 212.17 513.66 211.44 508.96 210.94 C 507.40 210.65 506.39 212.23 505.17 212.87 C 507.01 237.20 505.61 261.60 505.41 285.97 C 505.23 300.65 504.72 315.52 507.60 330.00 C 508.42 333.71 509.34 338.46 513.54 339.73 C 525.39 343.81 537.97 339.52 550.10 341.16 C 552.72 341.74 556.14 342.11 557.31 344.96 C 557.65 346.93 556.49 348.93 554.72 349.81 C 549.66 352.67 543.63 352.47 538.00 352.58 C 524.46 352.56 510.91 352.67 497.37 352.53 C 493.56 352.68 490.62 349.72 489.62 346.26 C 489.23 341.93 490.84 337.20 488.76 333.17 C 490.85 328.08 491.94 322.54 491.73 317.03 C 491.23 304.67 490.45 292.33 490.26 279.96 C 489.29 271.64 489.66 263.25 489.88 254.89 C 490.70 247.97 490.21 240.95 490.53 233.99 C 491.16 207.69 491.99 181.39 492.79 155.09 C 492.21 141.70 491.54 128.31 491.11 114.92 C 490.73 110.95 490.28 106.35 493.20 103.16 Z" />
<path fill="#000000" opacity="1.00" d=" M 611.39 125.97 C 611.03 116.63 611.70 105.61 619.73 99.38 C 621.83 102.04 625.24 98.43 627.69 100.41 C 632.59 102.58 632.62 108.48 634.16 112.86 C 645.56 146.65 663.20 177.80 679.50 209.37 C 686.81 224.01 694.79 238.41 700.18 253.90 C 704.98 266.49 708.01 279.66 712.39 292.40 C 716.50 303.71 720.98 315.08 728.07 324.90 C 729.68 321.16 729.40 317.00 730.10 313.07 C 731.66 295.34 734.13 277.67 734.86 259.87 C 736.90 229.29 738.63 198.61 738.79 167.94 C 739.65 151.65 739.32 135.32 739.42 119.01 C 739.53 113.87 737.16 108.35 739.74 103.51 C 741.96 100.44 746.60 100.54 749.66 102.25 C 753.55 104.23 755.35 108.82 755.24 113.00 C 755.23 121.01 755.22 129.03 755.23 137.04 C 754.39 138.21 753.55 139.39 752.73 140.57 C 752.75 175.74 749.74 210.82 748.39 245.93 C 747.08 266.92 745.61 287.92 743.89 308.86 C 743.19 319.59 741.65 330.24 739.92 340.84 C 739.46 342.73 738.92 344.61 738.35 346.47 C 733.63 347.78 728.75 348.33 723.95 349.23 C 722.91 348.92 721.87 348.63 720.84 348.34 C 715.51 342.45 715.67 334.04 713.53 326.83 C 708.90 307.91 699.21 290.85 692.04 272.87 C 685.60 260.24 680.48 246.99 675.18 233.86 C 664.32 207.04 653.52 180.18 641.07 154.05 C 636.57 145.51 632.85 136.27 626.17 129.15 C 625.19 132.33 624.60 135.62 623.85 138.86 C 621.10 157.49 624.53 176.28 623.14 194.99 C 622.17 204.95 623.29 214.96 624.13 224.89 C 624.23 226.32 624.32 227.76 624.40 229.20 C 624.13 229.43 623.59 229.90 623.32 230.14 C 623.02 243.07 623.35 256.03 623.53 268.97 C 623.77 273.26 623.37 277.61 624.13 281.87 C 624.41 287.66 624.54 293.48 626.00 299.13 C 626.48 310.07 625.98 321.06 626.24 332.01 C 627.18 335.22 628.93 338.47 627.94 341.92 C 627.60 345.04 625.13 347.36 622.29 348.36 C 618.59 348.90 614.47 347.97 612.66 344.37 C 608.81 337.31 609.50 328.74 610.24 321.00 C 610.59 311.67 611.79 302.39 611.22 293.04 C 610.12 277.39 610.85 261.65 609.77 246.00 C 609.67 231.98 609.26 217.96 608.79 203.95 C 608.10 191.94 609.63 179.97 609.70 167.97 C 610.38 153.98 610.86 139.97 611.39 125.97 Z" />
<path fill="#f39e00" opacity="1.00" d=" M 1717.77 111.48 C 1723.52 111.33 1729.23 110.60 1734.96 110.10 C 1747.85 109.62 1760.76 109.83 1773.58 111.37 C 1783.25 111.06 1792.43 114.63 1801.99 115.46 C 1808.73 117.12 1815.47 119.72 1822.54 119.23 C 1822.14 119.78 1821.76 120.33 1821.41 120.88 C 1825.53 121.69 1829.60 122.84 1833.45 124.59 C 1838.62 127.00 1844.53 127.40 1849.45 130.46 C 1860.56 134.89 1871.16 140.54 1881.61 146.38 C 1890.55 151.26 1898.25 158.02 1906.98 163.23 C 1918.43 172.27 1929.73 181.66 1939.51 192.54 C 1944.47 198.52 1950.14 203.91 1954.63 210.28 C 1957.23 214.00 1960.65 217.09 1962.98 221.02 C 1965.80 225.76 1969.86 229.67 1972.22 234.71 C 1974.59 239.57 1977.63 244.07 1980.22 248.82 C 1983.04 253.27 1984.46 258.42 1987.25 262.88 C 1989.31 266.29 1990.48 270.13 1992.29 273.67 C 1994.89 278.80 1995.96 284.53 1998.42 289.74 C 2000.70 294.37 2000.85 299.64 2002.51 304.47 C 2003.90 308.83 2005.04 313.27 2005.75 317.80 C 2006.48 322.93 2008.76 327.76 2008.93 332.99 C 2009.06 337.93 2010.53 342.70 2010.98 347.61 C 2011.46 351.55 2011.37 355.55 2012.05 359.48 C 2012.97 364.63 2011.58 369.84 2012.17 375.03 C 2012.88 382.87 2011.34 390.63 2011.25 398.46 C 2010.44 408.61 2008.77 418.68 2006.58 428.62 C 2005.48 434.52 2004.74 440.59 2002.18 446.09 C 2000.15 450.43 2000.20 455.35 1998.49 459.80 C 1997.20 464.63 1994.27 468.86 1993.27 473.78 C 1992.71 476.60 1990.48 478.67 1989.66 481.39 C 1987.45 487.65 1984.36 493.59 1980.55 499.02 C 1982.10 499.52 1983.68 500.03 1985.30 500.46 C 1977.51 500.51 1969.77 501.52 1961.99 501.29 C 1957.76 501.37 1953.59 500.56 1949.39 500.56 C 1949.52 497.61 1950.65 494.87 1952.25 492.43 C 1955.83 486.80 1958.50 480.66 1962.21 475.11 C 1965.02 466.64 1968.41 458.34 1971.91 450.13 C 1972.83 445.90 1974.03 441.75 1975.39 437.64 C 1976.70 431.65 1978.21 425.71 1979.86 419.80 C 1981.53 414.14 1981.00 408.15 1982.27 402.42 C 1985.33 380.71 1984.36 358.60 1981.07 336.98 C 1980.77 329.63 1977.41 322.90 1976.51 315.65 C 1975.85 309.90 1972.83 304.85 1971.62 299.25 C 1968.56 289.03 1964.23 279.22 1959.28 269.79 C 1955.66 261.31 1950.48 253.65 1945.79 245.76 C 1941.46 239.32 1937.04 232.94 1931.95 227.08 C 1925.68 217.82 1917.22 210.50 1909.57 202.47 C 1902.89 196.45 1896.19 190.44 1888.99 185.05 C 1879.19 178.38 1869.85 170.86 1858.83 166.26 C 1853.88 164.47 1849.78 161.05 1844.93 159.07 C 1834.21 154.44 1823.34 150.05 1811.98 147.22 C 1803.87 145.61 1796.23 141.91 1787.89 141.54 C 1774.02 139.60 1760.09 137.26 1746.04 137.96 C 1730.96 137.25 1716.21 140.78 1701.33 142.45 C 1695.94 143.45 1690.79 145.40 1685.42 146.42 C 1679.29 147.60 1673.79 150.74 1667.71 152.06 C 1656.53 155.87 1645.94 161.19 1635.29 166.27 C 1627.45 169.69 1621.04 175.49 1613.68 179.73 C 1608.91 182.44 1605.05 186.39 1600.53 189.45 C 1594.58 193.38 1589.85 198.78 1584.33 203.24 C 1574.51 212.82 1565.68 223.37 1557.08 234.03 C 1552.59 241.47 1547.31 248.39 1542.89 255.87 C 1541.13 258.83 1540.46 263.18 1536.26 263.46 C 1538.18 263.81 1540.10 264.26 1542.01 264.78 C 1533.01 264.32 1524.04 263.07 1515.01 263.40 C 1507.65 263.30 1500.37 264.43 1493.05 264.79 C 1497.41 263.31 1502.10 263.54 1506.51 262.32 C 1511.25 258.61 1511.75 251.96 1515.44 247.42 C 1517.96 244.31 1518.68 240.18 1521.23 237.09 C 1523.40 234.48 1524.24 231.07 1526.41 228.46 C 1531.76 222.32 1535.36 214.85 1540.94 208.88 C 1547.24 202.20 1552.21 194.25 1559.52 188.55 C 1564.50 184.54 1567.66 178.66 1573.08 175.14 C 1578.20 171.67 1582.37 167.02 1587.49 163.55 C 1594.32 159.08 1601.20 154.65 1607.65 149.63 C 1614.02 145.33 1621.40 142.84 1627.96 138.86 C 1633.40 135.32 1639.68 133.42 1645.17 129.97 C 1650.79 128.52 1656.02 125.98 1661.53 124.17 C 1666.41 122.15 1671.70 121.52 1676.68 119.81 C 1685.02 117.00 1693.71 115.43 1702.35 113.80 C 1707.58 113.61 1712.51 111.48 1717.77 111.48 Z" />
<path fill="#f4ac00" opacity="1.00" d=" M 1701.33 142.45 C 1716.21 140.78 1730.96 137.25 1746.04 137.96 C 1760.09 137.26 1774.02 139.60 1787.89 141.54 C 1796.23 141.91 1803.87 145.61 1811.98 147.22 C 1823.34 150.05 1834.21 154.44 1844.93 159.07 C 1849.78 161.05 1853.88 164.47 1858.83 166.26 C 1869.85 170.86 1879.19 178.38 1888.99 185.05 C 1896.19 190.44 1902.89 196.45 1909.57 202.47 C 1917.22 210.50 1925.68 217.82 1931.95 227.08 C 1937.04 232.94 1941.46 239.32 1945.79 245.76 C 1950.48 253.65 1955.66 261.31 1959.28 269.79 C 1964.23 279.22 1968.56 289.03 1971.62 299.25 C 1972.83 304.85 1975.85 309.90 1976.51 315.65 C 1977.41 322.90 1980.77 329.63 1981.07 336.98 C 1984.36 358.60 1985.33 380.71 1982.27 402.42 C 1981.00 408.15 1981.53 414.14 1979.86 419.80 C 1978.21 425.71 1976.70 431.65 1975.39 437.64 C 1974.03 441.75 1972.83 445.90 1971.91 450.13 C 1968.41 458.34 1965.02 466.64 1962.21 475.11 C 1958.50 480.66 1955.83 486.80 1952.25 492.43 C 1950.65 494.87 1949.52 497.61 1949.39 500.56 C 1937.75 499.34 1926.35 495.05 1914.52 496.67 C 1915.38 494.17 1916.14 491.64 1916.88 489.10 C 1918.74 487.90 1920.57 486.54 1921.61 484.51 C 1930.56 470.29 1937.66 454.88 1942.95 438.93 C 1944.24 435.19 1944.26 431.03 1946.45 427.60 C 1946.27 426.88 1946.09 426.16 1945.97 425.45 C 1947.12 424.28 1948.23 422.97 1948.32 421.23 C 1949.49 413.94 1949.53 406.45 1951.87 399.39 C 1954.25 391.74 1952.14 383.78 1952.83 375.97 C 1953.21 364.44 1953.51 352.67 1950.47 341.43 C 1948.70 335.69 1949.52 329.45 1947.19 323.86 C 1945.18 318.91 1944.38 313.59 1942.42 308.64 C 1938.60 300.03 1936.14 290.83 1931.52 282.57 C 1930.04 278.84 1926.98 276.00 1925.76 272.17 C 1924.42 267.89 1920.55 265.17 1918.68 261.18 C 1917.23 258.16 1915.24 255.48 1913.06 252.98 C 1908.82 246.64 1903.68 240.99 1898.73 235.21 C 1891.78 228.51 1885.38 221.19 1877.61 215.40 C 1872.52 211.70 1868.01 206.66 1861.66 205.21 C 1861.36 204.51 1861.11 203.82 1860.88 203.13 C 1856.96 201.51 1853.97 198.38 1850.09 196.70 C 1839.51 190.05 1827.96 185.14 1816.37 180.54 C 1813.34 179.43 1810.06 179.26 1807.12 177.91 C 1803.87 176.48 1800.54 175.10 1796.97 174.89 C 1789.29 174.55 1782.39 170.06 1774.59 170.70 C 1763.67 169.81 1752.75 168.30 1741.78 169.18 C 1734.83 169.81 1727.62 169.15 1720.91 171.26 C 1720.17 170.95 1719.45 170.64 1718.76 170.33 C 1717.86 171.03 1716.98 171.73 1716.13 172.43 C 1711.19 170.27 1706.15 173.43 1701.28 174.23 C 1694.39 175.35 1687.61 177.31 1681.31 180.31 C 1676.34 183.39 1669.89 182.53 1665.18 186.15 C 1660.13 189.90 1653.90 191.39 1648.45 194.38 C 1643.06 197.23 1638.04 200.69 1632.81 203.80 C 1630.33 205.23 1628.93 207.85 1626.78 209.66 C 1625.38 209.37 1624.10 208.73 1622.90 208.07 C 1620.50 205.13 1616.45 204.36 1613.05 205.92 C 1605.45 209.63 1599.53 215.83 1592.84 220.85 C 1587.66 225.11 1581.34 227.84 1576.73 232.79 C 1569.10 240.73 1564.41 250.86 1559.70 260.67 C 1555.66 269.60 1551.60 278.52 1547.37 287.36 C 1538.14 305.24 1529.79 323.56 1520.83 341.57 C 1520.36 341.64 1519.42 341.79 1518.94 341.86 C 1526.61 315.51 1540.68 291.75 1550.93 266.42 C 1547.95 265.86 1544.92 265.60 1542.01 264.78 C 1540.10 264.26 1538.18 263.81 1536.26 263.46 C 1540.46 263.18 1541.13 258.83 1542.89 255.87 C 1547.31 248.39 1552.59 241.47 1557.08 234.03 C 1565.68 223.37 1574.51 212.82 1584.33 203.24 C 1589.85 198.78 1594.58 193.38 1600.53 189.45 C 1605.05 186.39 1608.91 182.44 1613.68 179.73 C 1621.04 175.49 1627.45 169.69 1635.29 166.27 C 1645.94 161.19 1656.53 155.87 1667.71 152.06 C 1673.79 150.74 1679.29 147.60 1685.42 146.42 C 1690.79 145.40 1695.94 143.45 1701.33 142.45 Z" />
<path fill="#959595" opacity="1.00" d=" M 1241.13 161.11 C 1244.18 159.65 1241.21 164.40 1241.13 161.11 Z" />
<path fill="#f6ba00" opacity="1.00" d=" M 1720.91 171.26 C 1727.62 169.15 1734.83 169.81 1741.78 169.18 C 1752.75 168.30 1763.67 169.81 1774.59 170.70 C 1782.39 170.06 1789.29 174.55 1796.97 174.89 C 1800.54 175.10 1803.87 176.48 1807.12 177.91 C 1810.06 179.26 1813.34 179.43 1816.37 180.54 C 1827.96 185.14 1839.51 190.05 1850.09 196.70 C 1853.97 198.38 1856.96 201.51 1860.88 203.13 C 1861.11 203.82 1861.36 204.51 1861.66 205.21 C 1868.01 206.66 1872.52 211.70 1877.61 215.40 C 1885.38 221.19 1891.78 228.51 1898.73 235.21 C 1903.68 240.99 1908.82 246.64 1913.06 252.98 C 1915.24 255.48 1917.23 258.16 1918.68 261.18 C 1920.55 265.17 1924.42 267.89 1925.76 272.17 C 1926.98 276.00 1930.04 278.84 1931.52 282.57 C 1936.14 290.83 1938.60 300.03 1942.42 308.64 C 1944.38 313.59 1945.18 318.91 1947.19 323.86 C 1949.52 329.45 1948.70 335.69 1950.47 341.43 C 1953.51 352.67 1953.21 364.44 1952.83 375.97 C 1952.14 383.78 1954.25 391.74 1951.87 399.39 C 1949.53 406.45 1949.49 413.94 1948.32 421.23 C 1948.23 422.97 1947.12 424.28 1945.97 425.45 C 1946.09 426.16 1946.27 426.88 1946.45 427.60 C 1944.26 431.03 1944.24 435.19 1942.95 438.93 C 1937.66 454.88 1930.56 470.29 1921.61 484.51 C 1920.57 486.54 1918.74 487.90 1916.88 489.10 C 1916.14 491.64 1915.38 494.17 1914.52 496.67 L 1914.39 497.07 C 1901.72 499.98 1889.44 505.99 1880.67 515.76 C 1878.67 518.37 1877.17 521.58 1874.04 523.03 C 1869.45 525.21 1864.63 526.89 1859.88 528.68 C 1856.98 529.92 1853.90 528.35 1850.92 528.48 C 1842.80 528.26 1834.08 529.53 1827.38 534.41 C 1824.82 535.90 1824.54 540.17 1827.45 541.44 C 1833.00 544.53 1839.70 543.80 1845.70 545.55 C 1852.36 547.40 1859.48 548.40 1866.20 546.11 C 1878.31 541.96 1891.00 539.76 1903.74 538.68 C 1907.70 538.62 1910.41 535.51 1913.84 534.05 C 1913.45 536.59 1911.00 537.86 1908.95 538.92 C 1903.38 541.77 1896.96 541.03 1891.00 542.27 C 1880.73 543.53 1871.12 547.62 1861.08 549.88 C 1853.91 551.43 1847.08 547.96 1840.01 547.53 C 1834.75 546.88 1828.95 546.85 1824.60 543.44 C 1822.06 541.65 1820.74 538.04 1822.34 535.22 C 1823.98 532.30 1826.77 530.12 1829.76 528.69 C 1837.64 525.26 1846.38 523.78 1854.95 524.74 C 1859.08 525.34 1862.75 522.94 1866.51 521.61 C 1869.73 520.13 1874.12 519.04 1875.16 515.13 C 1878.13 505.30 1877.88 494.82 1876.17 484.79 C 1876.65 486.44 1877.07 488.11 1877.52 489.79 C 1878.46 482.34 1885.36 478.04 1888.95 471.94 C 1893.48 464.12 1898.82 456.73 1902.42 448.39 C 1903.13 446.80 1903.05 445.04 1903.05 443.34 C 1904.43 442.38 1906.11 441.51 1906.41 439.67 C 1907.99 433.69 1911.20 428.26 1912.28 422.13 C 1913.68 415.72 1917.37 409.09 1915.01 402.48 C 1916.02 401.21 1917.17 399.93 1917.35 398.24 C 1919.08 387.26 1919.41 376.10 1918.95 365.01 C 1918.58 357.58 1916.50 350.38 1916.03 342.97 C 1915.79 337.99 1913.78 333.38 1912.61 328.60 C 1910.18 317.37 1905.02 307.04 1900.33 296.64 C 1899.45 295.01 1897.74 294.14 1896.37 293.04 C 1896.69 292.39 1897.03 291.75 1897.40 291.11 C 1890.23 279.13 1882.38 267.41 1872.37 257.60 C 1868.21 253.74 1864.73 249.15 1860.04 245.91 C 1855.44 242.62 1852.17 236.85 1846.27 235.76 C 1844.03 233.24 1841.52 230.95 1838.56 229.33 C 1829.15 223.74 1819.54 218.37 1809.20 214.71 C 1805.97 213.39 1802.54 211.38 1799.05 213.05 C 1796.37 211.29 1793.69 209.43 1790.63 208.43 C 1785.26 206.61 1779.52 206.71 1774.00 205.72 C 1758.07 201.77 1741.46 202.75 1725.27 203.96 C 1720.56 206.06 1717.41 210.55 1712.79 212.85 C 1706.97 215.73 1702.72 220.84 1697.10 224.00 C 1696.14 220.67 1696.06 216.93 1694.05 214.01 C 1691.93 211.25 1687.38 211.40 1685.57 214.39 C 1683.17 218.36 1682.14 223.00 1679.59 226.90 C 1673.75 225.22 1666.89 226.10 1662.20 230.15 C 1656.75 234.51 1649.94 236.73 1644.66 241.35 C 1643.43 240.93 1642.22 240.52 1641.03 240.10 C 1638.77 241.83 1636.51 243.56 1634.28 245.31 C 1633.96 248.43 1633.45 251.54 1632.59 254.56 C 1633.32 243.34 1632.19 231.96 1628.62 221.28 C 1627.41 216.59 1625.52 212.13 1622.90 208.07 C 1624.10 208.73 1625.38 209.37 1626.78 209.66 C 1628.93 207.85 1630.33 205.23 1632.81 203.80 C 1638.04 200.69 1643.06 197.23 1648.45 194.38 C 1653.90 191.39 1660.13 189.90 1665.18 186.15 C 1669.89 182.53 1676.34 183.39 1681.31 180.31 C 1687.61 177.31 1694.39 175.35 1701.28 174.23 C 1706.15 173.43 1711.19 170.27 1716.13 172.43 C 1716.98 171.73 1717.86 171.03 1718.76 170.33 C 1719.45 170.64 1720.17 170.95 1720.91 171.26 Z" />
<path fill="#f8c800" opacity="1.00" d=" M 1725.27 203.96 C 1741.46 202.75 1758.07 201.77 1774.00 205.72 C 1779.52 206.71 1785.26 206.61 1790.63 208.43 C 1793.69 209.43 1796.37 211.29 1799.05 213.05 C 1802.54 211.38 1805.97 213.39 1809.20 214.71 C 1819.54 218.37 1829.15 223.74 1838.56 229.33 C 1841.52 230.95 1844.03 233.24 1846.27 235.76 C 1852.17 236.85 1855.44 242.62 1860.04 245.91 C 1864.73 249.15 1868.21 253.74 1872.37 257.60 C 1882.38 267.41 1890.23 279.13 1897.40 291.11 C 1897.03 291.75 1896.69 292.39 1896.37 293.04 C 1897.74 294.14 1899.45 295.01 1900.33 296.64 C 1905.02 307.04 1910.18 317.37 1912.61 328.60 C 1913.78 333.38 1915.79 337.99 1916.03 342.97 C 1916.50 350.38 1918.58 357.58 1918.95 365.01 C 1919.41 376.10 1919.08 387.26 1917.35 398.24 C 1917.17 399.93 1916.02 401.21 1915.01 402.48 C 1917.37 409.09 1913.68 415.72 1912.28 422.13 C 1911.20 428.26 1907.99 433.69 1906.41 439.67 C 1906.11 441.51 1904.43 442.38 1903.05 443.34 C 1903.05 445.04 1903.13 446.80 1902.42 448.39 C 1898.82 456.73 1893.48 464.12 1888.95 471.94 C 1885.36 478.04 1878.46 482.34 1877.52 489.79 C 1877.07 488.11 1876.65 486.44 1876.17 484.79 C 1874.09 478.11 1871.42 470.61 1864.60 467.45 C 1857.91 462.80 1849.58 462.15 1841.70 462.86 C 1844.51 458.44 1848.54 454.97 1851.42 450.59 C 1855.33 444.69 1859.78 439.06 1862.48 432.46 C 1865.33 425.79 1868.87 419.32 1870.38 412.16 C 1871.26 408.29 1872.73 404.60 1873.78 400.79 C 1875.14 396.03 1874.85 391.03 1875.40 386.16 C 1876.88 374.67 1875.72 363.04 1874.43 351.60 C 1871.62 341.14 1869.22 330.43 1864.15 320.76 C 1856.45 303.74 1844.81 288.53 1830.51 276.54 C 1819.81 267.26 1807.28 260.35 1794.37 254.68 C 1776.78 248.12 1757.83 244.96 1739.05 246.11 C 1732.36 246.48 1725.89 248.75 1719.16 248.63 C 1714.20 248.72 1709.04 248.63 1704.38 250.56 C 1702.35 251.38 1700.29 252.14 1698.13 252.46 C 1699.91 242.99 1698.43 233.41 1697.10 224.00 C 1702.72 220.84 1706.97 215.73 1712.79 212.85 C 1717.41 210.55 1720.56 206.06 1725.27 203.96 Z" />
<path fill="#f8c800" opacity="1.00" d=" M 1662.20 230.15 C 1666.89 226.10 1673.75 225.22 1679.59 226.90 C 1676.01 235.85 1669.18 242.82 1662.81 249.82 C 1657.39 255.12 1651.33 259.69 1645.63 264.66 C 1642.87 267.11 1639.88 269.28 1636.64 271.04 C 1636.61 282.01 1635.52 292.95 1633.60 303.75 C 1632.18 311.60 1631.18 319.58 1628.69 327.19 C 1626.00 326.70 1625.93 323.71 1626.26 321.55 C 1628.74 306.14 1631.51 290.68 1631.54 275.02 C 1631.78 268.20 1631.09 261.27 1632.59 254.56 C 1633.45 251.54 1633.96 248.43 1634.28 245.31 C 1636.51 243.56 1638.77 241.83 1641.03 240.10 C 1642.22 240.52 1643.43 240.93 1644.66 241.35 C 1649.94 236.73 1656.75 234.51 1662.20 230.15 Z" />
<path fill="#fab500" opacity="1.00" d=" M 1587.55 252.51 C 1590.33 248.81 1593.94 244.42 1599.08 244.80 C 1604.61 246.02 1607.68 251.85 1609.06 256.90 C 1611.90 271.16 1606.85 285.85 1598.93 297.63 C 1598.40 297.72 1597.35 297.90 1596.82 297.99 C 1600.52 290.10 1604.48 282.13 1605.45 273.34 C 1606.47 265.65 1606.58 256.30 1600.56 250.51 C 1597.76 247.67 1594.54 251.55 1592.83 253.73 C 1582.97 267.37 1577.41 283.69 1566.95 296.96 C 1556.63 310.42 1547.33 324.64 1537.57 338.49 C 1537.04 338.67 1536.00 339.04 1535.48 339.23 C 1536.10 336.04 1538.29 333.52 1539.69 330.67 C 1545.00 321.39 1550.54 312.22 1556.54 303.36 C 1560.48 297.12 1565.33 291.48 1568.95 285.01 C 1575.34 274.29 1580.31 262.72 1587.55 252.51 Z" />
<path fill="#f9d200" opacity="1.00" d=" M 1719.16 248.63 C 1725.89 248.75 1732.36 246.48 1739.05 246.11 C 1757.83 244.96 1776.78 248.12 1794.37 254.68 C 1807.28 260.35 1819.81 267.26 1830.51 276.54 C 1844.81 288.53 1856.45 303.74 1864.15 320.76 C 1869.22 330.43 1871.62 341.14 1874.43 351.60 C 1875.72 363.04 1876.88 374.67 1875.40 386.16 C 1874.85 391.03 1875.14 396.03 1873.78 400.79 C 1872.73 404.60 1871.26 408.29 1870.38 412.16 C 1868.87 419.32 1865.33 425.79 1862.48 432.46 C 1859.78 439.06 1855.33 444.69 1851.42 450.59 C 1848.54 454.97 1844.51 458.44 1841.70 462.86 L 1841.39 463.32 C 1839.40 463.50 1837.40 463.66 1835.45 463.83 C 1836.02 465.85 1836.62 467.88 1837.22 469.91 C 1841.86 469.43 1846.63 468.49 1850.37 465.48 C 1848.75 471.35 1842.41 473.75 1836.95 474.51 C 1830.15 475.61 1821.81 474.09 1818.36 467.42 C 1821.92 469.13 1825.75 470.19 1829.72 470.43 C 1828.97 468.46 1828.20 466.53 1827.36 464.61 C 1820.22 465.50 1812.19 465.43 1806.44 470.42 C 1799.36 476.44 1797.06 486.08 1796.59 494.98 C 1796.40 502.29 1797.58 509.70 1800.38 516.47 C 1796.09 518.32 1792.07 521.11 1787.34 521.61 C 1784.38 522.02 1780.99 521.92 1778.93 524.44 C 1775.51 523.87 1772.00 523.62 1768.64 524.55 C 1762.23 526.27 1755.55 525.83 1749.00 525.86 C 1742.61 525.79 1736.18 526.24 1729.84 525.29 C 1725.34 524.61 1720.84 523.95 1716.32 523.48 C 1718.13 514.02 1718.66 504.38 1718.64 494.77 C 1713.59 495.07 1708.14 495.24 1703.80 492.22 C 1693.87 485.69 1684.64 478.08 1674.14 472.43 C 1674.17 481.03 1675.93 489.46 1677.17 497.93 C 1676.33 500.51 1675.19 502.99 1674.22 505.52 C 1672.17 493.80 1670.87 481.93 1669.63 470.08 C 1665.81 468.48 1661.26 467.46 1657.38 469.43 C 1654.09 470.95 1651.81 474.61 1647.98 474.83 C 1645.81 474.64 1642.52 473.89 1642.88 471.08 C 1645.23 471.96 1648.37 473.89 1650.47 471.47 C 1654.74 467.31 1660.94 463.84 1667.02 466.06 C 1681.67 470.64 1693.60 480.71 1706.66 488.37 C 1712.04 491.56 1718.23 488.73 1723.97 488.70 C 1728.23 488.40 1731.85 491.27 1736.06 491.38 C 1738.48 491.54 1740.90 491.03 1743.27 490.44 C 1746.70 485.39 1753.59 485.74 1759.00 485.23 C 1764.29 485.07 1770.69 483.35 1772.66 477.81 C 1775.49 470.36 1771.41 462.66 1768.41 455.94 C 1774.43 455.56 1779.84 452.71 1785.25 450.32 C 1791.03 447.81 1795.34 443.09 1800.45 439.56 C 1803.52 437.43 1806.59 435.29 1809.52 432.95 C 1809.07 432.22 1808.64 431.48 1808.24 430.76 C 1811.18 428.97 1814.52 427.37 1816.31 424.26 C 1820.13 417.64 1824.31 411.14 1826.80 403.86 C 1828.17 399.85 1830.36 395.59 1828.86 391.30 C 1832.09 389.30 1831.76 385.24 1831.04 382.00 C 1830.29 379.15 1833.03 375.40 1829.81 373.55 C 1830.65 372.46 1831.50 371.37 1832.18 370.15 C 1830.93 369.50 1829.65 368.94 1828.40 368.39 C 1829.56 367.57 1830.76 366.79 1831.85 365.83 C 1830.94 361.83 1829.51 357.96 1829.25 353.83 C 1828.77 347.67 1825.12 342.50 1822.96 336.87 C 1820.21 330.85 1816.51 324.64 1810.72 321.15 C 1810.49 319.35 1810.29 317.42 1808.81 316.17 C 1805.42 312.83 1801.90 308.85 1796.93 308.19 C 1795.38 305.98 1793.04 304.55 1791.23 302.62 C 1790.98 302.84 1790.49 303.29 1790.25 303.52 C 1789.91 302.80 1789.60 302.08 1789.31 301.37 C 1788.50 301.75 1787.68 301.86 1786.83 301.70 C 1785.88 302.35 1785.22 303.39 1784.49 304.24 C 1784.45 302.67 1784.41 301.10 1784.39 299.54 C 1781.63 297.92 1779.01 295.97 1775.93 295.03 C 1768.74 292.89 1761.60 290.13 1754.02 289.98 C 1748.40 289.93 1742.75 289.71 1737.17 290.26 C 1733.11 291.10 1729.16 292.32 1725.11 293.13 C 1723.04 293.22 1722.65 295.37 1722.01 296.87 C 1720.67 296.26 1719.34 295.66 1718.03 295.05 C 1714.91 297.08 1711.59 298.77 1708.15 300.14 C 1701.39 302.91 1696.03 308.00 1690.19 312.21 C 1690.71 309.14 1693.42 306.88 1693.76 303.82 C 1693.53 301.01 1690.31 300.67 1688.20 301.52 C 1689.40 299.12 1689.98 296.48 1690.13 293.81 C 1688.67 294.11 1687.21 294.33 1685.86 294.88 C 1684.43 296.00 1684.58 298.07 1684.09 299.65 C 1682.36 299.63 1680.66 299.60 1678.95 299.57 C 1679.62 296.47 1680.35 293.38 1681.15 290.30 C 1679.92 291.30 1678.69 292.30 1677.50 293.31 C 1678.09 290.76 1678.55 288.13 1677.94 285.53 C 1684.55 274.50 1695.97 265.97 1697.82 252.52 L 1698.13 252.46 C 1700.29 252.14 1702.35 251.38 1704.38 250.56 C 1709.04 248.63 1714.20 248.72 1719.16 248.63 M 1818.37 449.83 C 1823.25 454.23 1828.73 458.59 1830.93 465.05 C 1831.99 467.14 1831.79 470.38 1834.46 471.21 C 1832.38 462.03 1826.04 454.73 1820.92 447.10 C 1820.04 448.00 1819.19 448.91 1818.37 449.83 M 1723.69 494.32 C 1723.76 498.76 1723.63 503.21 1723.44 507.65 C 1729.41 504.31 1735.45 501.07 1741.18 497.31 C 1738.41 497.28 1735.62 497.40 1732.93 496.78 C 1729.77 496.19 1726.94 494.41 1723.69 494.32 Z" />
<path fill="#fadc00" opacity="1.00" d=" M 1660.89 311.04 C 1666.45 302.46 1671.90 293.79 1677.94 285.53 C 1678.55 288.13 1678.09 290.76 1677.50 293.31 C 1678.69 292.30 1679.92 291.30 1681.15 290.30 C 1680.35 293.38 1679.62 296.47 1678.95 299.57 C 1680.66 299.60 1682.36 299.63 1684.09 299.65 C 1684.58 298.07 1684.43 296.00 1685.86 294.88 C 1687.21 294.33 1688.67 294.11 1690.13 293.81 C 1689.98 296.48 1689.40 299.12 1688.20 301.52 C 1690.31 300.67 1693.53 301.01 1693.76 303.82 C 1693.42 306.88 1690.71 309.14 1690.19 312.21 C 1696.03 308.00 1701.39 302.91 1708.15 300.14 C 1711.59 298.77 1714.91 297.08 1718.03 295.05 C 1719.34 295.66 1720.67 296.26 1722.01 296.87 C 1722.65 295.37 1723.04 293.22 1725.11 293.13 C 1729.16 292.32 1733.11 291.10 1737.17 290.26 C 1742.75 289.71 1748.40 289.93 1754.02 289.98 C 1761.60 290.13 1768.74 292.89 1775.93 295.03 C 1779.01 295.97 1781.63 297.92 1784.39 299.54 C 1784.41 301.10 1784.45 302.67 1784.49 304.24 C 1785.22 303.39 1785.88 302.35 1786.83 301.70 C 1787.68 301.86 1788.50 301.75 1789.31 301.37 C 1789.60 302.08 1789.91 302.80 1790.25 303.52 C 1790.49 303.29 1790.98 302.84 1791.23 302.62 C 1793.04 304.55 1795.38 305.98 1796.93 308.19 C 1801.90 308.85 1805.42 312.83 1808.81 316.17 C 1810.29 317.42 1810.49 319.35 1810.72 321.15 C 1816.51 324.64 1820.21 330.85 1822.96 336.87 C 1825.12 342.50 1828.77 347.67 1829.25 353.83 C 1829.51 357.96 1830.94 361.83 1831.85 365.83 C 1830.76 366.79 1829.56 367.57 1828.40 368.39 C 1829.65 368.94 1830.93 369.50 1832.18 370.15 C 1831.50 371.37 1830.65 372.46 1829.81 373.55 C 1833.03 375.40 1830.29 379.15 1831.04 382.00 C 1831.76 385.24 1832.09 389.30 1828.86 391.30 C 1830.36 395.59 1828.17 399.85 1826.80 403.86 C 1824.31 411.14 1820.13 417.64 1816.31 424.26 C 1814.52 427.37 1811.18 428.97 1808.24 430.76 C 1808.64 431.48 1809.07 432.22 1809.52 432.95 C 1806.59 435.29 1803.52 437.43 1800.45 439.56 C 1795.34 443.09 1791.03 447.81 1785.25 450.32 C 1779.84 452.71 1774.43 455.56 1768.41 455.94 C 1766.75 452.19 1765.17 448.15 1765.76 443.98 C 1766.66 435.70 1768.94 426.76 1765.10 418.87 C 1764.06 418.42 1763.04 417.97 1762.04 417.51 C 1756.88 419.04 1752.42 423.46 1751.58 428.87 C 1748.21 439.52 1742.13 449.11 1738.88 459.81 C 1738.05 463.60 1737.98 467.62 1738.81 471.42 C 1739.59 474.71 1742.37 476.89 1743.87 479.80 C 1742.14 480.96 1741.04 479.07 1739.96 478.04 C 1734.83 471.99 1734.32 463.22 1736.89 455.96 C 1739.50 446.00 1745.33 437.07 1747.01 426.88 C 1737.62 424.00 1728.75 419.58 1719.43 416.46 C 1707.51 411.57 1694.91 408.72 1682.78 404.47 C 1673.65 401.46 1666.25 394.03 1663.27 384.89 C 1660.18 377.77 1659.90 369.74 1655.97 362.95 C 1651.27 353.84 1647.55 344.09 1641.34 335.86 C 1641.40 335.54 1641.51 334.91 1641.57 334.59 C 1648.56 327.22 1655.00 319.32 1660.89 311.04 Z" />
<path fill="#ffd62b" opacity="1.00" d=" M 1585.99 356.14 C 1590.98 351.64 1596.98 347.44 1603.95 347.26 C 1610.65 346.65 1617.34 349.17 1622.30 353.65 C 1623.49 354.46 1623.88 355.85 1624.12 357.22 C 1620.11 355.85 1616.63 353.11 1612.37 352.47 C 1606.87 351.25 1600.84 351.99 1596.09 355.12 C 1587.42 360.24 1580.91 368.21 1575.62 376.62 C 1575.38 378.04 1572.59 377.97 1573.52 376.33 C 1575.69 368.62 1580.27 361.69 1585.99 356.14 Z" />
<path fill="#ffd62b" opacity="1.00" d=" M 1581.64 379.72 C 1589.12 373.68 1596.88 367.55 1606.06 364.33 C 1611.79 362.33 1618.67 365.04 1621.44 370.45 C 1625.03 376.71 1621.98 384.71 1626.39 390.67 C 1627.52 393.16 1631.09 394.05 1631.00 397.11 C 1624.52 395.47 1620.29 389.35 1619.38 382.99 C 1618.61 379.00 1618.78 374.31 1615.65 371.28 C 1613.15 368.62 1609.08 368.59 1605.91 369.90 C 1596.29 373.46 1588.08 379.84 1578.84 384.16 C 1578.16 382.04 1580.41 380.95 1581.64 379.72 Z" />
<path fill="#ffd62b" opacity="1.00" d=" M 1588.34 381.22 C 1594.90 379.00 1601.97 377.07 1608.96 377.94 C 1612.88 379.43 1613.68 384.31 1613.76 388.03 C 1610.69 387.55 1610.49 383.36 1608.29 381.51 C 1603.21 382.22 1598.29 383.66 1593.35 384.99 C 1594.11 386.30 1594.50 388.21 1596.15 388.75 C 1601.27 390.66 1607.05 387.15 1611.94 390.09 C 1613.12 390.89 1615.28 391.77 1614.39 393.56 C 1611.81 393.27 1609.30 391.70 1606.69 392.52 C 1601.96 393.65 1596.15 395.21 1591.89 392.07 C 1589.11 389.43 1586.46 385.05 1588.34 381.22 Z" />
<path fill="#000000" opacity="1.00" d=" M 665.79 400.82 C 668.63 397.62 674.97 396.45 677.72 400.39 C 678.92 401.60 678.77 403.36 678.74 404.93 C 678.01 421.94 677.31 438.97 677.48 456.00 C 678.03 482.04 679.46 508.04 680.64 534.06 C 682.22 561.70 684.13 589.35 683.72 617.06 C 683.96 626.67 682.78 636.33 684.17 645.89 C 684.62 652.94 685.48 659.96 685.49 667.03 C 685.54 676.04 686.32 685.25 683.97 694.06 C 683.22 696.83 681.19 699.62 678.04 699.58 C 675.36 699.02 672.92 697.67 670.46 696.53 C 670.83 694.71 671.32 692.92 671.58 691.10 C 669.87 687.22 670.65 682.97 670.62 678.89 C 670.65 669.58 671.49 660.30 671.21 650.99 C 670.28 634.97 670.68 618.90 670.14 602.87 C 669.27 583.61 669.46 564.28 668.72 544.99 C 667.76 524.68 669.23 504.36 669.14 484.04 C 668.69 473.96 668.33 463.85 667.15 453.84 C 666.44 457.18 666.57 460.61 666.32 464.00 C 664.52 483.89 660.84 503.57 657.11 523.18 C 653.97 540.10 651.01 557.06 646.84 573.76 C 643.48 586.36 640.42 599.13 635.18 611.13 C 634.34 613.95 632.45 617.41 634.55 620.11 C 633.32 628.16 632.66 636.56 628.85 643.91 C 627.47 646.39 625.11 649.00 621.99 648.63 C 618.82 648.74 617.11 645.42 615.99 642.95 C 611.99 631.08 613.92 618.31 611.58 606.15 C 608.52 589.05 604.51 572.14 600.87 555.16 C 595.96 532.48 590.77 509.86 585.77 487.19 C 582.32 474.00 579.90 460.51 575.54 447.58 C 574.46 465.02 574.20 482.51 574.19 499.98 C 573.59 512.63 573.57 525.33 574.19 537.98 C 574.18 565.98 574.56 593.97 574.78 621.97 C 574.52 641.36 576.17 660.70 577.14 680.05 C 577.09 683.34 575.99 686.50 574.03 689.14 C 569.19 689.13 565.29 685.39 564.03 680.90 C 561.67 671.07 563.42 660.96 563.38 651.00 C 563.76 644.04 563.32 637.03 564.12 630.11 C 565.01 609.74 564.40 589.35 564.25 568.96 C 564.20 567.67 564.07 566.39 563.86 565.13 C 563.19 538.42 563.51 511.72 563.73 485.01 C 563.86 482.00 563.38 478.91 564.21 475.98 C 563.47 474.43 563.85 472.73 564.16 471.15 C 564.59 450.11 564.28 429.05 564.40 408.02 C 567.06 407.00 569.29 405.02 572.05 404.30 C 574.59 406.10 575.82 409.19 577.16 411.91 C 583.52 427.85 587.69 444.54 591.86 461.15 C 601.89 500.88 609.21 541.23 619.10 580.99 C 620.42 590.25 623.69 599.24 623.77 608.67 C 624.11 608.65 624.79 608.61 625.13 608.59 C 626.36 603.08 628.08 597.68 629.09 592.12 C 638.24 550.25 646.23 508.15 654.51 466.10 C 658.03 447.02 663.30 428.23 665.18 408.86 C 665.81 406.16 663.60 403.10 665.79 400.82 Z" />
<path fill="#000000" opacity="1.00" d=" M 145.88 407.90 C 156.92 406.89 167.93 405.32 179.04 405.34 C 182.51 405.20 186.08 407.05 187.83 410.08 C 189.34 413.48 186.31 417.12 182.86 417.34 C 176.18 417.85 169.56 415.85 162.87 416.58 C 160.67 416.78 158.81 418.12 157.40 419.76 C 161.84 450.65 160.25 481.91 159.98 512.99 C 159.85 528.39 160.52 543.78 161.87 559.12 C 162.62 565.53 163.64 571.92 165.41 578.16 C 165.29 582.13 164.11 586.03 164.36 590.05 C 164.93 613.68 165.64 637.32 165.84 660.96 C 166.35 667.63 166.44 674.35 166.23 681.04 C 165.81 684.65 165.36 689.00 162.05 691.22 C 159.31 692.57 155.68 691.47 154.28 688.71 C 151.84 684.26 150.97 679.03 151.37 674.00 C 152.35 656.99 153.04 639.98 153.90 622.96 C 155.00 611.30 153.88 599.60 153.53 587.93 C 152.50 560.62 149.77 533.39 148.94 506.06 C 148.07 482.00 150.41 457.89 148.16 433.87 C 147.12 429.35 147.41 423.55 143.19 420.61 C 134.38 421.03 125.63 422.90 116.79 422.39 C 114.08 421.06 111.66 418.99 111.40 415.77 C 112.85 414.71 114.31 413.57 116.10 413.15 C 125.81 410.30 135.87 409.03 145.88 407.90 Z" />
<path fill="#000000" opacity="1.00" d=" M 1030.54 439.52 C 1035.96 435.75 1043.64 435.09 1049.40 438.47 C 1052.17 440.01 1055.18 441.88 1056.21 445.08 C 1056.97 446.61 1056.33 448.25 1055.07 449.27 C 1050.91 450.65 1046.91 448.33 1042.89 447.61 C 1037.87 447.48 1033.14 450.41 1030.29 454.43 C 1026.52 458.86 1025.07 464.59 1023.19 469.95 C 1019.06 482.49 1019.97 496.10 1023.28 508.72 C 1026.05 518.37 1028.47 528.37 1034.20 536.80 C 1045.78 556.73 1060.47 575.78 1064.84 598.93 C 1067.88 609.67 1068.01 620.88 1067.70 631.96 C 1067.86 646.12 1064.38 660.30 1057.79 672.82 C 1053.15 681.22 1046.05 689.05 1036.48 691.61 C 1031.81 693.32 1026.77 693.09 1021.98 694.24 C 1016.97 693.19 1011.35 690.66 1010.01 685.21 C 1010.68 684.21 1011.32 683.18 1012.10 682.25 C 1017.13 682.50 1021.91 684.35 1026.92 684.71 C 1034.08 684.72 1040.62 680.42 1044.75 674.78 C 1051.15 666.53 1053.54 656.08 1055.47 646.03 C 1058.52 631.93 1058.47 617.12 1054.99 603.10 C 1050.31 582.56 1038.58 564.77 1028.17 546.79 C 1020.66 534.21 1014.75 520.56 1011.86 506.15 C 1009.12 491.00 1009.31 474.85 1015.51 460.53 C 1018.78 452.55 1023.08 444.32 1030.54 439.52 Z" />
<path fill="#000000" opacity="1.00" d=" M 1283.28 440.15 C 1284.89 438.78 1286.63 436.83 1288.98 437.13 C 1291.73 437.32 1294.29 438.48 1296.89 439.33 C 1296.93 464.21 1298.22 489.06 1298.74 513.93 C 1299.80 524.23 1299.22 534.61 1300.06 544.93 C 1300.95 572.28 1302.05 599.63 1302.02 627.01 C 1302.02 648.03 1303.01 669.03 1304.30 690.00 C 1303.53 691.22 1302.80 692.47 1302.13 693.74 C 1299.48 689.46 1293.93 690.54 1289.68 690.21 C 1289.25 660.13 1288.32 630.06 1287.92 599.97 C 1287.58 595.76 1288.58 591.32 1286.91 587.32 C 1289.60 582.01 1287.23 575.98 1286.74 570.43 C 1284.41 569.89 1282.08 568.98 1279.67 569.35 C 1268.96 571.10 1258.52 567.08 1247.93 566.29 C 1246.32 566.24 1244.88 567.07 1243.40 567.51 C 1243.40 579.69 1242.59 591.83 1242.57 604.01 C 1242.76 608.33 1241.54 612.86 1243.24 616.99 C 1243.99 622.91 1243.19 628.95 1244.13 634.86 C 1244.41 648.58 1244.96 662.29 1245.57 676.00 C 1245.70 679.62 1245.97 683.55 1244.10 686.82 C 1242.16 690.07 1237.02 690.29 1234.73 687.33 C 1231.79 683.54 1230.96 678.56 1230.56 673.91 C 1230.10 664.61 1230.53 655.30 1230.53 645.99 C 1230.52 618.31 1231.97 590.60 1230.33 562.94 C 1230.06 559.23 1231.36 555.65 1231.48 551.96 C 1232.62 534.31 1230.97 516.66 1230.62 499.01 C 1230.28 481.70 1229.29 464.41 1229.30 447.09 C 1229.33 443.08 1233.38 440.27 1237.17 440.51 C 1242.42 443.66 1243.29 450.33 1243.52 455.91 C 1243.81 469.27 1243.35 482.64 1243.31 496.01 C 1243.14 501.30 1243.48 506.62 1242.89 511.90 C 1242.76 525.95 1242.52 540.01 1242.36 554.07 C 1242.08 556.39 1245.09 556.68 1246.77 557.17 C 1256.69 558.89 1266.84 559.10 1276.89 558.82 C 1280.49 558.29 1285.34 557.55 1286.55 553.46 C 1288.98 546.57 1288.09 539.12 1287.95 531.96 C 1286.39 505.30 1284.17 478.68 1283.11 451.99 C 1283.20 448.05 1282.48 444.01 1283.28 440.15 Z" />
<path fill="#000000" opacity="1.00" d=" M 448.90 443.85 C 449.92 440.83 452.77 438.49 456.03 438.52 C 462.15 438.43 468.24 439.36 474.19 440.78 C 483.13 443.69 492.11 448.76 496.66 457.34 C 501.62 465.68 500.56 475.73 500.67 485.01 C 500.38 493.31 501.38 501.72 499.90 509.93 C 496.66 525.08 488.34 538.46 480.95 551.86 C 479.81 553.73 480.55 555.95 480.98 557.93 C 484.05 569.64 486.91 581.39 489.92 593.11 C 496.59 619.35 503.28 645.59 510.12 671.79 C 512.23 679.37 519.14 685.88 517.40 694.26 C 515.58 697.12 511.75 695.45 509.08 695.03 C 506.22 693.87 505.00 690.84 503.77 688.26 C 499.00 677.41 496.29 665.79 493.75 654.26 C 487.19 625.98 484.49 596.82 475.60 569.09 C 474.24 565.69 472.98 561.89 470.05 559.52 C 466.17 559.21 460.03 559.08 458.85 563.80 C 458.73 590.26 460.94 616.67 461.88 643.11 C 463.04 657.11 463.03 671.26 465.35 685.16 C 465.95 687.94 463.63 690.23 462.94 692.82 C 460.98 692.98 459.02 693.05 457.07 693.08 C 456.00 692.02 454.92 690.98 453.84 689.96 C 453.32 681.02 453.79 672.01 452.86 663.12 C 452.03 624.08 449.65 585.08 449.26 546.03 C 448.23 529.08 448.55 512.07 448.20 495.09 C 447.45 483.41 447.91 471.69 447.72 459.99 C 447.79 454.60 447.21 449.06 448.90 443.85 M 459.00 469.04 C 459.40 492.71 459.82 516.38 460.28 540.05 C 460.36 543.41 460.21 546.80 460.81 550.14 C 464.96 549.72 469.13 548.20 472.09 545.19 C 478.84 538.67 482.36 529.67 484.81 520.80 C 487.93 508.20 491.48 495.25 489.86 482.15 C 489.99 473.70 488.21 465.19 484.18 457.74 C 479.59 450.23 470.11 447.76 461.81 448.52 C 457.53 454.51 458.91 462.17 459.00 469.04 Z" />
<path fill="#000000" opacity="1.00" d=" M 1141.96 445.94 C 1147.55 443.43 1153.25 441.15 1159.01 439.06 C 1163.66 438.77 1168.34 438.99 1173.02 438.94 C 1176.80 438.94 1181.53 439.84 1182.60 444.14 C 1180.74 446.16 1178.81 448.13 1177.00 450.20 C 1170.32 450.40 1163.62 449.96 1156.96 450.44 C 1150.61 451.68 1146.15 457.04 1142.80 462.20 C 1136.10 473.20 1133.74 486.17 1131.91 498.73 C 1130.20 510.45 1129.08 522.25 1129.08 534.10 C 1127.59 541.27 1128.89 548.65 1127.87 555.87 C 1127.45 573.57 1127.67 591.30 1126.82 608.99 C 1126.72 618.62 1127.02 628.30 1128.12 637.87 C 1128.97 649.92 1132.94 661.99 1140.62 671.44 C 1144.27 676.01 1149.29 679.37 1154.80 681.28 C 1162.17 683.27 1170.60 684.48 1177.58 680.62 C 1179.31 679.55 1181.33 680.47 1183.19 680.64 C 1183.99 682.03 1184.85 683.53 1184.38 685.22 C 1182.03 689.66 1177.14 691.71 1173.06 694.22 C 1170.07 696.23 1166.38 695.60 1163.01 695.69 C 1160.03 695.58 1156.93 696.11 1154.11 694.93 C 1146.83 692.14 1138.88 690.39 1132.87 685.13 C 1125.84 678.88 1121.62 670.11 1118.77 661.30 C 1113.43 640.66 1113.19 619.20 1113.31 598.01 C 1113.35 577.99 1113.17 557.96 1113.59 537.93 C 1113.76 533.98 1113.40 529.98 1114.12 526.07 C 1114.31 513.18 1115.86 500.36 1118.82 487.81 C 1121.49 477.55 1124.46 467.19 1129.86 457.98 C 1132.81 453.06 1136.61 448.36 1141.96 445.94 Z" />
<path fill="#ffdf1b" opacity="1.00" d=" M 1755.42 447.44 C 1758.22 444.98 1760.05 441.69 1762.20 438.69 C 1763.66 442.43 1761.24 446.26 1759.15 449.24 C 1755.50 453.47 1752.56 459.31 1754.12 464.97 C 1754.75 467.19 1757.89 466.38 1758.69 464.69 C 1761.10 460.18 1760.19 454.85 1760.35 449.94 C 1760.77 450.04 1761.61 450.25 1762.03 450.36 C 1763.68 454.92 1764.73 459.98 1763.66 464.80 C 1762.88 468.28 1759.92 471.28 1756.27 471.48 C 1752.43 471.98 1749.10 468.60 1748.61 464.98 C 1747.68 458.50 1750.49 451.69 1755.42 447.44 Z" />
<path fill="#000000" opacity="1.00" d=" M 225.37 444.81 C 228.30 443.03 231.47 441.25 235.02 441.42 C 249.04 441.42 263.19 441.60 276.96 444.57 C 281.41 445.60 286.67 446.66 289.30 450.82 C 290.25 452.37 289.50 454.09 288.99 455.65 C 284.33 456.16 279.48 457.20 275.18 454.72 C 272.31 454.50 269.42 454.39 266.56 454.72 C 267.83 463.77 267.56 472.94 267.51 482.05 C 267.28 509.05 266.71 536.04 266.41 563.04 C 267.17 596.36 269.18 629.65 268.62 662.99 C 268.72 666.09 269.66 669.09 269.69 672.21 C 274.93 675.36 281.27 673.76 287.03 673.86 C 291.98 673.79 298.12 673.39 301.56 677.69 C 302.01 681.56 299.79 684.92 296.29 686.42 C 292.24 686.67 288.14 686.62 284.15 685.83 C 281.72 685.55 279.28 685.50 276.84 685.65 C 271.01 688.41 264.49 691.05 257.97 689.12 C 256.09 688.53 255.27 685.89 253.07 686.27 C 250.00 686.30 246.94 686.40 243.88 686.26 C 241.50 685.50 238.73 684.90 237.35 682.58 C 237.17 679.59 240.29 678.17 242.08 676.31 C 245.79 676.16 249.50 676.21 253.21 676.24 C 253.72 675.96 254.73 675.40 255.24 675.12 C 255.87 671.43 257.03 667.76 256.78 663.98 C 255.87 643.98 255.28 623.96 254.59 603.96 C 253.85 583.64 254.53 563.32 254.72 543.01 C 255.38 517.68 256.34 492.30 255.09 466.97 C 254.59 462.47 254.41 457.95 254.32 453.43 C 246.66 449.91 238.03 453.02 230.03 452.20 C 226.35 451.87 224.76 448.07 225.37 444.81 Z" />
<path fill="#000000" opacity="1.00" d=" M 347.47 450.00 C 347.63 444.28 353.68 440.78 358.95 441.41 C 361.89 440.93 364.00 443.13 366.49 444.14 C 376.99 445.69 388.07 445.49 397.83 450.23 C 399.83 451.29 402.34 453.42 401.27 455.97 C 399.53 458.70 396.58 460.25 393.90 461.90 C 383.40 458.67 372.75 455.61 361.78 454.54 C 361.24 455.63 360.02 456.56 360.24 457.91 C 360.48 468.94 360.62 480.01 359.80 491.02 C 359.70 503.00 359.29 514.98 359.02 526.97 C 358.96 530.92 358.56 535.07 359.98 538.86 C 360.67 540.05 361.41 541.78 363.06 541.71 C 371.90 542.35 381.23 539.69 389.70 543.23 C 396.35 546.13 392.78 557.50 386.05 557.63 C 382.39 558.27 378.78 557.25 375.79 555.13 C 371.60 554.10 367.26 553.54 362.96 553.12 C 361.52 552.78 360.56 554.01 359.57 554.79 C 361.89 588.18 358.81 621.64 359.88 655.06 C 361.02 663.49 359.68 672.97 364.57 680.41 C 369.72 684.27 376.79 683.59 382.88 683.28 C 389.09 683.11 395.76 681.68 401.63 684.41 C 404.50 685.39 404.56 689.66 402.36 691.35 C 398.35 694.56 392.91 694.53 388.03 694.63 C 376.48 694.63 364.92 694.69 353.37 694.61 C 350.10 694.82 347.08 692.26 346.57 689.07 C 346.11 686.05 346.48 682.99 346.52 679.96 C 346.49 678.53 346.83 676.84 345.46 675.86 C 347.24 669.75 348.54 663.38 347.91 657.00 C 347.30 648.06 347.76 639.05 346.85 630.14 C 346.52 620.08 346.17 610.02 346.49 599.96 C 346.77 590.96 346.38 581.94 347.24 572.97 C 347.41 551.63 348.03 530.30 348.58 508.96 C 349.43 489.30 347.24 469.66 347.47 450.00 Z" />
<path fill="#000000" opacity="1.00" d=" M 739.50 444.52 C 742.38 441.40 747.00 441.07 750.97 441.59 C 753.05 441.89 754.44 443.85 756.51 444.20 C 758.69 444.56 760.91 444.65 763.12 444.91 C 771.68 445.97 780.69 446.50 788.43 450.73 C 790.61 451.75 791.46 454.44 790.50 456.60 C 788.76 458.99 786.05 460.36 783.64 461.94 C 773.65 458.81 763.49 455.89 753.06 454.75 C 751.35 454.08 750.65 456.06 749.54 456.83 C 750.30 475.25 749.27 493.68 749.12 512.10 C 748.42 520.10 748.62 528.18 748.69 536.21 C 749.49 538.29 750.13 541.61 752.93 541.73 C 760.34 542.02 767.77 540.80 775.16 541.79 C 777.89 542.60 781.39 543.31 782.46 546.37 C 783.20 549.82 782.34 554.07 779.49 556.37 C 775.23 558.62 769.38 558.35 765.74 555.01 C 760.90 554.25 756.08 553.29 751.18 553.03 C 750.71 553.47 749.77 554.35 749.30 554.80 C 750.39 580.52 749.50 606.26 749.36 632.00 C 749.41 645.72 748.80 659.60 751.40 673.15 C 752.30 676.29 752.86 680.43 756.35 681.78 C 766.87 686.01 778.34 681.00 789.10 683.54 C 791.80 684.03 794.95 686.55 793.38 689.59 C 790.62 694.07 784.60 694.40 779.87 694.59 C 767.59 694.69 755.31 694.67 743.04 694.61 C 740.06 694.79 737.40 692.64 736.47 689.91 C 735.02 685.93 736.32 681.71 736.27 677.64 C 735.99 677.17 735.42 676.23 735.14 675.76 C 736.47 670.30 738.22 664.81 737.87 659.12 C 737.26 647.06 736.74 634.99 736.31 622.92 C 736.18 615.96 735.31 609.01 736.10 602.06 C 736.62 567.05 738.06 532.05 738.61 497.03 C 738.27 482.69 737.69 468.35 737.05 454.02 C 736.82 450.73 737.25 447.10 739.50 444.52 Z" />
<path fill="#000000" opacity="1.00" d=" M 841.54 451.07 C 842.36 447.40 844.71 444.35 847.00 441.46 C 848.48 443.23 850.53 442.07 852.35 441.63 C 854.58 442.59 856.74 444.14 857.49 446.57 C 867.20 485.93 885.81 522.21 901.67 559.29 C 906.58 570.74 911.68 582.16 915.36 594.08 C 922.56 616.72 925.93 640.74 936.93 662.05 C 937.84 663.48 938.28 665.47 940.04 666.17 C 941.69 654.49 942.57 642.72 943.49 630.98 C 944.64 612.60 946.41 594.25 946.87 575.84 C 947.62 569.59 947.38 563.27 947.63 556.99 C 948.79 530.67 948.83 504.28 949.16 477.93 C 949.11 469.63 949.58 461.30 948.61 453.04 C 948.28 449.61 948.35 444.72 952.31 443.40 C 956.89 441.88 960.80 445.89 962.35 449.81 C 963.25 458.84 962.57 467.95 962.80 477.02 C 963.09 479.17 961.75 480.93 960.75 482.68 C 960.82 516.50 958.20 550.25 957.20 584.04 C 957.12 584.74 956.95 586.15 956.86 586.85 C 955.92 614.98 953.86 643.08 951.42 671.10 C 950.85 677.00 949.89 682.88 948.32 688.60 C 944.21 689.74 940.02 690.48 935.85 691.35 C 930.54 689.37 930.16 682.78 928.85 678.08 C 928.39 671.61 926.47 665.40 924.84 659.16 C 921.25 646.43 916.01 634.25 911.39 621.87 C 908.52 613.05 904.38 604.72 901.53 595.89 C 889.04 560.52 877.50 524.77 863.00 490.14 C 859.92 483.77 857.53 476.89 852.89 471.44 C 846.95 492.17 851.58 513.84 850.33 535.00 C 849.06 547.01 850.57 559.05 851.28 571.05 C 849.67 572.59 850.44 574.97 850.26 576.94 C 850.48 594.86 850.08 612.83 851.34 630.72 C 851.29 634.53 852.19 638.23 852.78 641.97 C 852.97 652.68 852.70 663.39 852.89 674.10 C 854.21 678.27 855.48 683.06 853.23 687.17 C 851.18 691.25 844.61 691.70 842.07 687.90 C 839.83 684.33 839.27 680.01 838.83 675.91 C 838.12 664.25 840.63 652.67 840.23 641.01 C 839.54 613.33 838.72 585.65 838.14 557.97 C 836.80 531.98 839.16 506.01 839.96 480.04 C 840.80 470.40 839.40 460.58 841.54 451.07 Z" />
<path fill="#f6bb00" opacity="1.00" d=" M 1677.17 497.93 C 1679.11 510.76 1681.47 523.70 1686.16 535.85 C 1687.81 540.81 1691.70 545.37 1697.01 546.42 C 1701.21 547.17 1704.90 544.45 1707.75 541.71 C 1711.54 542.05 1715.29 542.85 1718.88 544.16 C 1723.64 546.01 1728.80 543.85 1733.66 545.30 C 1740.02 546.93 1746.59 545.56 1753.06 546.08 C 1754.61 546.01 1755.86 547.00 1756.96 548.01 C 1757.97 549.38 1758.91 551.29 1760.93 551.26 C 1765.95 551.56 1770.98 551.16 1776.02 551.25 C 1780.44 551.08 1784.56 552.98 1788.91 553.52 C 1799.78 555.56 1810.83 556.55 1821.69 558.64 C 1815.10 562.89 1807.27 564.46 1799.93 566.96 C 1793.09 569.40 1785.79 569.78 1778.84 571.77 C 1771.35 573.79 1763.54 572.91 1755.92 573.77 C 1748.41 574.74 1740.87 573.51 1733.35 573.46 C 1720.79 573.24 1708.62 569.96 1696.42 567.38 C 1688.29 564.61 1679.77 562.93 1672.02 559.14 C 1659.58 553.68 1647.10 548.06 1636.23 539.78 C 1638.74 538.24 1641.04 536.36 1643.56 534.81 C 1651.03 534.13 1658.73 533.61 1665.75 530.67 C 1669.93 529.07 1673.83 526.83 1677.82 524.78 C 1676.96 518.30 1674.63 512.07 1674.22 505.52 C 1675.19 502.99 1676.33 500.51 1677.17 497.93 Z" />
<path fill="#f7c400" opacity="1.00" d=" M 1787.34 521.61 C 1792.07 521.11 1796.09 518.32 1800.38 516.47 C 1803.01 522.49 1807.36 527.40 1812.25 531.68 C 1807.05 532.75 1801.81 533.75 1796.91 535.84 C 1792.02 536.92 1786.93 536.76 1781.97 536.74 C 1777.57 536.25 1773.37 538.11 1768.98 537.67 C 1763.13 537.41 1757.13 541.91 1756.96 548.01 C 1755.86 547.00 1754.61 546.01 1753.06 546.08 C 1746.59 545.56 1740.02 546.93 1733.66 545.30 C 1728.80 543.85 1723.64 546.01 1718.88 544.16 C 1715.29 542.85 1711.54 542.05 1707.75 541.71 C 1712.38 536.67 1715.38 530.25 1716.32 523.48 C 1720.84 523.95 1725.34 524.61 1729.84 525.29 C 1736.18 526.24 1742.61 525.79 1749.00 525.86 C 1755.55 525.83 1762.23 526.27 1768.64 524.55 C 1772.00 523.62 1775.51 523.87 1778.93 524.44 C 1780.99 521.92 1784.38 522.02 1787.34 521.61 Z" />
<path fill="#f4ae00" opacity="1.00" d=" M 1602.10 551.10 C 1614.07 549.61 1625.84 546.01 1636.23 539.78 C 1647.10 548.06 1659.58 553.68 1672.02 559.14 C 1679.77 562.93 1688.29 564.61 1696.42 567.38 C 1708.62 569.96 1720.79 573.24 1733.35 573.46 C 1740.87 573.51 1748.41 574.74 1755.92 573.77 C 1763.54 572.91 1771.35 573.79 1778.84 571.77 C 1785.79 569.78 1793.09 569.40 1799.93 566.96 C 1807.27 564.46 1815.10 562.89 1821.69 558.64 C 1827.79 559.13 1833.84 560.25 1839.96 560.66 C 1846.01 561.38 1852.26 561.44 1857.97 563.86 C 1865.34 566.82 1873.70 566.92 1880.94 563.49 C 1879.57 565.27 1878.01 566.94 1875.98 567.95 C 1868.04 572.24 1860.77 577.68 1852.71 581.74 C 1840.50 587.42 1828.41 593.71 1815.17 596.61 C 1808.10 598.11 1801.33 600.75 1794.28 602.30 C 1789.96 602.86 1785.63 603.36 1781.43 604.52 C 1776.85 605.77 1772.09 605.38 1767.42 605.62 C 1755.97 606.59 1744.49 606.37 1733.03 606.41 C 1729.32 606.06 1725.70 604.95 1721.97 605.02 C 1713.91 605.08 1706.11 602.86 1698.24 601.46 C 1688.20 598.74 1677.79 597.11 1668.29 592.72 C 1660.16 590.41 1652.75 586.30 1644.95 583.16 C 1637.13 580.08 1630.75 574.40 1623.27 570.67 C 1618.24 568.27 1614.74 563.59 1609.52 561.53 C 1604.92 559.66 1601.96 555.49 1598.36 552.30 C 1599.58 551.88 1600.82 551.46 1602.10 551.10 Z" />
<path fill="#f19101" opacity="1.00" d=" M 1943.66 540.41 C 1957.43 538.01 1971.35 540.67 1985.16 541.32 C 1981.19 548.40 1975.30 554.08 1970.65 560.67 C 1966.92 565.88 1962.17 570.20 1957.74 574.78 C 1952.53 580.89 1946.49 586.19 1940.77 591.80 C 1933.49 597.86 1926.09 603.77 1918.61 609.58 C 1913.77 613.13 1908.56 616.14 1903.74 619.71 C 1895.66 625.21 1886.78 629.35 1878.35 634.27 C 1868.47 638.87 1858.50 643.31 1848.31 647.19 C 1828.47 654.42 1807.88 659.45 1787.00 662.59 C 1773.36 663.72 1759.73 665.32 1746.03 664.84 C 1735.92 665.21 1725.84 664.50 1715.83 663.24 C 1704.65 662.92 1693.88 659.68 1682.89 658.03 C 1664.53 653.31 1646.23 647.97 1629.04 639.90 C 1617.51 635.40 1606.97 628.86 1596.30 622.69 C 1590.30 619.54 1585.12 615.13 1579.38 611.59 C 1573.23 607.89 1568.11 602.82 1562.43 598.49 C 1547.94 586.89 1534.68 573.70 1523.13 559.16 C 1523.63 558.98 1524.64 558.62 1525.14 558.43 C 1537.67 560.17 1550.41 559.52 1562.81 557.14 C 1570.50 560.14 1575.27 567.46 1581.44 572.60 C 1586.00 575.25 1589.32 579.49 1593.96 582.07 C 1607.76 592.53 1623.03 600.82 1638.43 608.62 C 1648.89 612.05 1658.38 618.09 1669.24 620.30 C 1671.78 620.78 1673.88 622.36 1676.23 623.36 C 1686.10 625.00 1695.88 627.21 1705.68 629.27 C 1711.77 629.88 1717.70 631.79 1723.89 631.40 C 1740.08 633.03 1756.45 632.91 1772.65 631.41 C 1776.75 630.92 1781.02 631.49 1784.94 629.90 C 1787.89 628.78 1791.12 629.27 1794.14 628.38 C 1797.75 627.32 1801.71 627.89 1805.16 626.22 C 1809.48 624.31 1814.22 623.86 1818.73 622.54 C 1827.56 619.51 1836.85 617.63 1845.12 613.08 C 1849.29 610.61 1854.37 610.26 1858.41 607.53 C 1865.49 603.03 1873.70 600.52 1880.44 595.46 C 1883.98 592.76 1888.43 591.62 1891.94 588.87 C 1894.18 587.11 1896.44 585.36 1898.84 583.79 C 1902.65 581.36 1905.47 577.65 1909.49 575.49 C 1914.34 572.88 1917.76 568.48 1921.66 564.71 C 1925.53 560.88 1930.16 557.83 1933.56 553.52 C 1935.90 550.55 1938.52 547.82 1941.33 545.28 C 1942.84 544.10 1942.99 542.07 1943.66 540.41 Z" />
<path fill="#f3a100" opacity="1.00" d=" M 1919.90 547.81 C 1927.16 543.59 1935.42 541.67 1943.66 540.41 C 1942.99 542.07 1942.84 544.10 1941.33 545.28 C 1938.52 547.82 1935.90 550.55 1933.56 553.52 C 1930.16 557.83 1925.53 560.88 1921.66 564.71 C 1917.76 568.48 1914.34 572.88 1909.49 575.49 C 1905.47 577.65 1902.65 581.36 1898.84 583.79 C 1896.44 585.36 1894.18 587.11 1891.94 588.87 C 1888.43 591.62 1883.98 592.76 1880.44 595.46 C 1873.70 600.52 1865.49 603.03 1858.41 607.53 C 1854.37 610.26 1849.29 610.61 1845.12 613.08 C 1836.85 617.63 1827.56 619.51 1818.73 622.54 C 1814.22 623.86 1809.48 624.31 1805.16 626.22 C 1801.71 627.89 1797.75 627.32 1794.14 628.38 C 1791.12 629.27 1787.89 628.78 1784.94 629.90 C 1781.02 631.49 1776.75 630.92 1772.65 631.41 C 1756.45 632.91 1740.08 633.03 1723.89 631.40 C 1717.70 631.79 1711.77 629.88 1705.68 629.27 C 1695.88 627.21 1686.10 625.00 1676.23 623.36 C 1673.88 622.36 1671.78 620.78 1669.24 620.30 C 1658.38 618.09 1648.89 612.05 1638.43 608.62 C 1623.03 600.82 1607.76 592.53 1593.96 582.07 C 1589.32 579.49 1586.00 575.25 1581.44 572.60 C 1575.27 567.46 1570.50 560.14 1562.81 557.14 C 1570.17 555.89 1577.11 553.12 1584.08 550.58 C 1590.06 550.59 1596.06 551.83 1602.10 551.10 C 1600.82 551.46 1599.58 551.88 1598.36 552.30 C 1601.96 555.49 1604.92 559.66 1609.52 561.53 C 1614.74 563.59 1618.24 568.27 1623.27 570.67 C 1630.75 574.40 1637.13 580.08 1644.95 583.16 C 1652.75 586.30 1660.16 590.41 1668.29 592.72 C 1677.79 597.11 1688.20 598.74 1698.24 601.46 C 1706.11 602.86 1713.91 605.08 1721.97 605.02 C 1725.70 604.95 1729.32 606.06 1733.03 606.41 C 1744.49 606.37 1755.97 606.59 1767.42 605.62 C 1772.09 605.38 1776.85 605.77 1781.43 604.52 C 1785.63 603.36 1789.96 602.86 1794.28 602.30 C 1801.33 600.75 1808.10 598.11 1815.17 596.61 C 1828.41 593.71 1840.50 587.42 1852.71 581.74 C 1860.77 577.68 1868.04 572.24 1875.98 567.95 C 1878.01 566.94 1879.57 565.27 1880.94 563.49 C 1893.04 556.45 1907.39 554.14 1919.90 547.81 Z" />
<path fill="#f0800e" opacity="1.00" d=" M 1985.16 541.32 C 1990.70 541.45 1996.20 542.22 2001.73 542.67 C 1980.65 575.10 1953.88 603.88 1922.59 626.67 C 1869.01 665.97 1802.52 687.76 1736.00 686.46 C 1655.90 686.80 1576.67 653.42 1519.76 597.23 C 1509.47 587.05 1499.75 576.26 1491.00 564.73 C 1495.54 563.60 1500.33 563.25 1504.76 561.76 C 1507.14 559.29 1510.70 559.09 1513.88 558.42 C 1517.59 557.74 1521.42 557.64 1525.14 558.43 C 1524.64 558.62 1523.63 558.98 1523.13 559.16 C 1534.68 573.70 1547.94 586.89 1562.43 598.49 C 1568.11 602.82 1573.23 607.89 1579.38 611.59 C 1585.12 615.13 1590.30 619.54 1596.30 622.69 C 1606.97 628.86 1617.51 635.40 1629.04 639.90 C 1646.23 647.97 1664.53 653.31 1682.89 658.03 C 1693.88 659.68 1704.65 662.92 1715.83 663.24 C 1725.84 664.50 1735.92 665.21 1746.03 664.84 C 1759.73 665.32 1773.36 663.72 1787.00 662.59 C 1807.88 659.45 1828.47 654.42 1848.31 647.19 C 1858.50 643.31 1868.47 638.87 1878.35 634.27 C 1886.78 629.35 1895.66 625.21 1903.74 619.71 C 1908.56 616.14 1913.77 613.13 1918.61 609.58 C 1926.09 603.77 1933.49 597.86 1940.77 591.80 C 1946.49 586.19 1952.53 580.89 1957.74 574.78 C 1962.17 570.20 1966.92 565.88 1970.65 560.67 C 1975.30 554.08 1981.19 548.40 1985.16 541.32 Z" />
</svg>
