<?xml version="1.0" encoding="utf-8"?>
<!-- Generator: Adobe Illustrator 22.0.1, SVG Export Plug-In . SVG Version: 6.00 Build 0)  -->
<!DOCTYPE svg PUBLIC "-//W3C//DTD SVG 1.0//EN" "http://www.w3.org/TR/2001/REC-SVG-20010904/DTD/svg10.dtd">
<svg version="1.0" id="Ebene_1" xmlns="http://www.w3.org/2000/svg" xmlns:xlink="http://www.w3.org/1999/xlink" x="0px" y="0px"
	 viewBox="0 0 115 84.6" style="enable-background:new 0 0 115 84.6;" xml:space="preserve">
<style type="text/css">
	.st0{clip-path:url(#SVGID_2_);fill:#687CBB;}
	.st1{fill:#A0B0DA;}
	.st2{clip-path:url(#SVGID_4_);fill:#687CBB;}
	.st3{fill:#A1B1DB;}
	.st4{clip-path:url(#SVGID_6_);fill:#687CBC;}
</style>
<g>
	<g>
		<defs>
			<rect id="SVGID_1_" width="115" height="84.6"/>
		</defs>
		<clipPath id="SVGID_2_">
			<use xlink:href="#SVGID_1_"  style="overflow:visible;"/>
		</clipPath>
		<path class="st0" d="M98,77.2c0.1,4.4,3.6,6.5,8.3,6.5c3.9,0,8.3-1.6,8.3-6.1c0-3.7-3-4.8-6-5.5c-3-0.7-6.1-1-6.1-3
			c0-1.6,2.2-1.9,3.4-1.9c1.8,0,3.4,0.5,3.8,2.5h4.3c-0.5-4.2-4-5.7-7.8-5.7c-3.4,0-7.8,1.3-7.8,5.3c0,3.8,3,4.9,6,5.5
			c3,0.7,6,0.9,6.1,3.1c0.1,2.1-2.6,2.5-4.2,2.5c-2.2,0-4-0.9-4.2-3.3H98z M77.4,67.6h3.1v11c0.1,3.1,0.9,4.8,5.2,4.8
			c0.9,0,1.8-0.1,2.7-0.2V80c-0.6,0.1-1.2,0.1-1.7,0.1c-1.8,0-2-0.9-2-2.6v-10h3.7v-3.1h-3.7v-5.6h-4.1v5.6h-3.1V67.6z M58.9,83.2
			H63v-8.9c0-4.1,2.2-6.4,5.1-6.4c0.6,0,1.2,0.1,1.8,0.2v-4c-0.4,0-0.6-0.1-1.6-0.1c-2.5,0-5,2.1-5.5,4.1h-0.1v-3.6h-3.9V83.2z
			 M46.8,69.4c0-3.9-3.8-5.4-7.5-5.4c-4.1,0-8.2,1.4-8.5,6.2H35c0.2-2,1.8-3,4.1-3c1.7,0,3.9,0.4,3.9,2.5c0,2.4-2.6,2.1-5.6,2.6
			c-3.5,0.4-7.2,1.2-7.2,5.8c0,3.6,3,5.5,6.4,5.5c2.2,0,4.8-0.7,6.5-2.3c0.3,1.7,1.5,2.3,3.2,2.3c0.7,0,2-0.3,2.6-0.5v-2.9
			c-0.4,0.1-0.8,0.1-1,0.1c-0.8,0-1-0.4-1-1.4V69.4z M42.7,76.9c0,2.6-2.8,3.5-4.6,3.5c-1.4,0-3.8-0.5-3.8-2.4
			c0-2.2,1.6-2.8,3.4-3.1c1.8-0.3,3.8-0.3,5.1-1.1V76.9z M0,83.2h4.5v-9.9h6.9c7.4,0,8.8-4.7,8.8-7.9c0-3.2-1.4-8-8.8-8H0V83.2z
			 M4.5,61.1h6.7c2.4,0,4.4,0.9,4.4,4.3c0,3.3-2.5,4.3-4.5,4.3H4.5V61.1z"/>
	</g>
	<polygon class="st1" points="95.4,37.4 115,37.4 115,32.6 101,32.6 101,26.3 113.5,26.3 113.5,21.9 101,21.9 101,16.4 114.7,16.4 
		114.7,11.6 95.4,11.6 	"/>
	<g>
		<defs>
			<rect id="SVGID_3_" width="115" height="84.6"/>
		</defs>
		<clipPath id="SVGID_4_">
			<use xlink:href="#SVGID_3_"  style="overflow:visible;"/>
		</clipPath>
		<path class="st2" d="M84.8,37.4h5.1V17.7H74.6v6h8.1c-0.5,5.1-3.5,7.9-8.7,7.9c-7.2,0-9.9-6.1-9.9-12.2c0-6.4,2.7-12.5,9.9-12.5
			c3.8,0,6.8,2.1,7.7,6.1h7.7C88.5,4.6,81.4,0,74,0C62.6,0,56,8.4,56,19.3c0,10.5,6.7,19,18,19c3.5,0,7.2-1.4,10-5L84.8,37.4z"/>
	</g>
	<polygon class="st3" points="33.1,37.4 52.7,37.4 52.7,32.6 38.8,32.6 38.8,26.3 51.3,26.3 51.3,21.9 38.8,21.9 38.8,16.4 
		52.4,16.4 52.4,11.6 33.1,11.6 	"/>
	<g>
		<defs>
			<rect id="SVGID_5_" width="115" height="84.6"/>
		</defs>
		<clipPath id="SVGID_6_">
			<use xlink:href="#SVGID_5_"  style="overflow:visible;"/>
		</clipPath>
		<path class="st4" d="M8.1,7.1h6.2c3.7,0,7.1,0.8,7.1,5.5c0,4.7-3.3,5.5-7.1,5.5H8.1V7.1z M0,37.4h8V24.3h8.4
			c9.1,0,12.6-5.8,12.6-11.7c0-5.9-3.5-11.7-12.6-11.7H0V37.4z"/>
	</g>
</g>
</svg>
