<?xml version="1.0" encoding="utf-8"?>
<!-- Generator: Adobe Illustrator 26.0.2, SVG Export Plug-In . SVG Version: 6.00 Build 0)  -->
<svg version="1.1" id="Layer_1" xmlns="http://www.w3.org/2000/svg" xmlns:xlink="http://www.w3.org/1999/xlink" x="0px" y="0px"
	 viewBox="0 0 340 156" style="enable-background:new 0 0 340 156;" xml:space="preserve">
<style type="text/css">
	.st0{fill:#60236A;}
</style>
<g>
	<g>
		<path class="st0" d="M46.4,66.7c-8.3,0-15,7.4-15,16.6s6.7,16.6,15,16.6c8.3,0,15-7.4,15-16.6S54.7,66.7,46.4,66.7z M46.4,96.6
			c-6.6,0-12-5.9-12-13.3S39.8,70,46.4,70c6.6,0,12,5.9,12,13.3S53,96.6,46.4,96.6z"/>
		<path class="st0" d="M78.6,66.7c0,0-6.7-0.1-10,6v-4.8h-3.3V68v30.6h3.2V79c0,0,1-9,10-9c0,0,8.4-0.1,8.4,8.7v19.9H90V79.6
			C90,79.6,90.6,66.7,78.6,66.7z"/>
		<path class="st0" d="M108.8,66.7c-8.3,0-15,7.4-15,16.6s6.7,16.6,15,16.6c6.2,0,11.5-4.1,13.8-10.1l-2.8-1.2c-1.9,4.7-6.1,8-11,8
			c-6.3,0-11.5-5.4-12-12.2h24c0,0,0,0,0,0l0,0h3c0-0.3,0-0.7,0-1C123.9,74.1,117.1,66.7,108.8,66.7z M96.9,81.3
			c0.9-6.4,5.8-11.3,11.9-11.3c6,0,11,4.9,11.9,11.3H96.9z"/>
		<path class="st0" d="M193,59.8c10.8-3.6,9.3-17.6,9.3-17.6c-0.9-20.7-26.1-20.1-26.1-20.1h-39.6v37.7v38.7H181
			c0,0,23.4-0.1,23.4-19.4C204.3,79.1,206,64.1,193,59.8z M162,41.4h9.4c2.9,0,5.2,2.3,5.2,5.2s-2.3,5.2-5.2,5.2H162V41.4z
			 M178.2,74.3c0,2.9-2.3,5.2-5.2,5.2H162V68.1H173c2.9,0,5.2,2.3,5.2,5.2V74.3z"/>
		<rect x="213" y="22.1" class="st0" width="25" height="76.5"/>
		<polygon class="st0" points="307.1,22.1 289.7,22.1 264.7,22.1 246.7,22.1 246.7,44.3 264.7,44.3 264.7,98.5 289.7,98.5 
			289.7,44.3 307.1,44.3 		"/>
	</g>
	<g>
		<path class="st0" d="M37.3,122c-0.2-0.4-0.4-0.6-0.7-0.9c-0.3-0.2-0.7-0.3-1.1-0.3c-0.2,0-0.4,0-0.6,0.1c-0.2,0-0.4,0.1-0.6,0.2
			c-0.2,0.1-0.3,0.2-0.4,0.4c-0.1,0.2-0.2,0.4-0.2,0.6c0,0.4,0.1,0.7,0.4,0.9c0.3,0.2,0.7,0.3,1.3,0.5l1.2,0.3
			c0.6,0.1,1.1,0.4,1.5,0.8c0.4,0.4,0.6,0.9,0.6,1.5c0,0.5-0.1,0.9-0.3,1.2c-0.2,0.3-0.4,0.6-0.8,0.8c-0.3,0.2-0.7,0.4-1.1,0.5
			s-0.8,0.1-1.2,0.1c-0.7,0-1.3-0.1-1.9-0.4c-0.6-0.3-1.1-0.7-1.5-1.3l1.1-0.7c0.2,0.4,0.6,0.7,0.9,0.9c0.4,0.2,0.8,0.4,1.3,0.4
			c0.2,0,0.5,0,0.7-0.1c0.2-0.1,0.5-0.1,0.7-0.3c0.2-0.1,0.3-0.3,0.5-0.5c0.1-0.2,0.2-0.4,0.2-0.6c0-0.4-0.2-0.7-0.5-0.9
			s-0.7-0.3-1.2-0.5l-1.2-0.3c-0.1,0-0.3-0.1-0.6-0.2c-0.3-0.1-0.5-0.2-0.7-0.4c-0.2-0.2-0.4-0.4-0.6-0.7c-0.2-0.3-0.3-0.6-0.3-1
			c0-0.4,0.1-0.8,0.3-1.2s0.4-0.6,0.7-0.8c0.3-0.2,0.6-0.4,1-0.5c0.4-0.1,0.8-0.2,1.2-0.2c0.6,0,1.2,0.1,1.7,0.4
			c0.5,0.2,0.9,0.6,1.2,1.2L37.3,122z"/>
		<path class="st0" d="M49.5,124.3c0,0.7-0.1,1.3-0.3,1.8c-0.2,0.6-0.5,1-1,1.4c-0.4,0.4-0.9,0.7-1.5,1c-0.6,0.2-1.2,0.3-1.9,0.3
			c-0.7,0-1.3-0.1-1.8-0.3s-1-0.5-1.5-1c-0.4-0.4-0.7-0.9-1-1.4c-0.2-0.6-0.3-1.2-0.3-1.8c0-0.7,0.1-1.3,0.3-1.8
			c0.2-0.6,0.5-1,1-1.4c0.4-0.4,0.9-0.7,1.5-1c0.6-0.2,1.2-0.3,1.8-0.3c0.7,0,1.3,0.1,1.9,0.3c0.6,0.2,1,0.5,1.5,1
			c0.4,0.4,0.7,0.9,1,1.4C49.4,123,49.5,123.6,49.5,124.3z M48.1,124.3c0-0.5-0.1-0.9-0.2-1.4c-0.2-0.4-0.4-0.8-0.7-1.1
			c-0.3-0.3-0.6-0.6-1-0.7c-0.4-0.2-0.9-0.3-1.4-0.3s-1,0.1-1.4,0.3c-0.4,0.2-0.7,0.4-1,0.7c-0.3,0.3-0.5,0.7-0.6,1.1
			c-0.2,0.4-0.2,0.9-0.2,1.4c0,0.5,0.1,0.9,0.2,1.4c0.2,0.4,0.4,0.8,0.6,1.1c0.3,0.3,0.6,0.6,1,0.7c0.4,0.2,0.9,0.3,1.4,0.3
			s1-0.1,1.4-0.3c0.4-0.2,0.7-0.4,1-0.7c0.3-0.3,0.5-0.7,0.7-1.1C48.1,125.2,48.1,124.7,48.1,124.3z"/>
		<path class="st0" d="M55.9,121h-2.1v7.6h-1.2V121h-1.8v-1.1h1.8v-2.4c0-1.2,0.3-2,0.8-2.5c0.5-0.5,1.2-0.7,2.1-0.7
			c0.2,0,0.3,0,0.5,0c0.2,0,0.4,0.1,0.5,0.1l-0.2,1.1c-0.1,0-0.3-0.1-0.5-0.1c-0.2,0-0.3,0-0.5,0c-0.3,0-0.6,0.1-0.8,0.2
			c-0.2,0.1-0.4,0.3-0.5,0.5c-0.1,0.2-0.2,0.4-0.2,0.7c0,0.3-0.1,0.6-0.1,0.9v2.2h2.1V121z"/>
		<path class="st0" d="M61.9,121h-2.5v5.1c0,0.3,0,0.6,0.1,0.8c0.1,0.2,0.1,0.4,0.3,0.5s0.2,0.2,0.4,0.2c0.2,0,0.3,0.1,0.5,0.1
			c0.2,0,0.4,0,0.6-0.1s0.4-0.1,0.6-0.2l0.1,1.1c-0.5,0.2-1,0.3-1.7,0.3c-0.2,0-0.5,0-0.7-0.1c-0.3-0.1-0.5-0.2-0.7-0.4
			c-0.2-0.2-0.4-0.4-0.5-0.7c-0.1-0.3-0.2-0.7-0.2-1.2V121h-1.8v-1.1h1.8v-2.4h1.2v2.4h2.5V121z"/>
		<path class="st0" d="M64.1,119.9l2,7h0l2.3-7h1.3l2.3,7h0l2-7h1.4l-2.7,8.7h-1.4l-2.3-7.1h0l-2.3,7.1h-1.4l-2.7-8.7H64.1z"/>
		<path class="st0" d="M82.7,123.3v-0.2c0-1.5-0.7-2.2-2.2-2.2c-1,0-1.9,0.3-2.7,1l-0.7-0.9c0.8-0.8,2-1.3,3.7-1.3
			c0.4,0,0.8,0.1,1.2,0.2c0.4,0.1,0.7,0.3,1,0.6c0.3,0.3,0.5,0.6,0.7,1c0.2,0.4,0.3,0.8,0.3,1.4v3.9c0,0.3,0,0.7,0,1
			c0,0.4,0.1,0.7,0.1,0.9h-1.2c0-0.2-0.1-0.4-0.1-0.7c0-0.2,0-0.5,0-0.7h0c-0.4,0.6-0.8,1-1.3,1.3c-0.5,0.3-1.1,0.4-1.8,0.4
			c-0.4,0-0.8-0.1-1.1-0.2c-0.4-0.1-0.7-0.3-1-0.5c-0.3-0.2-0.5-0.5-0.7-0.8c-0.2-0.3-0.2-0.7-0.2-1.1c0-0.7,0.2-1.3,0.5-1.7
			c0.4-0.4,0.8-0.7,1.4-0.9c0.5-0.2,1.1-0.3,1.8-0.4c0.6,0,1.2-0.1,1.7-0.1H82.7z M82.1,124.3c-0.3,0-0.7,0-1.2,0s-0.9,0.1-1.3,0.2
			s-0.8,0.3-1.1,0.5c-0.3,0.2-0.5,0.6-0.5,1c0,0.3,0.1,0.5,0.2,0.7s0.3,0.4,0.5,0.5c0.2,0.1,0.4,0.2,0.7,0.3
			c0.2,0.1,0.5,0.1,0.7,0.1c0.4,0,0.8-0.1,1.2-0.2c0.3-0.1,0.6-0.3,0.8-0.6c0.2-0.3,0.4-0.5,0.5-0.9c0.1-0.3,0.2-0.7,0.2-1.1v-0.6
			H82.1z"/>
		<path class="st0" d="M87,122.6c0-0.4,0-0.8,0-1.2s0-0.9,0-1.5h1.2v1.6h0c0.1-0.2,0.2-0.5,0.4-0.7c0.2-0.2,0.4-0.4,0.6-0.6
			c0.2-0.2,0.5-0.3,0.8-0.4c0.3-0.1,0.6-0.2,1-0.2c0.3,0,0.6,0,0.9,0.1l-0.2,1.2c-0.2-0.1-0.4-0.1-0.7-0.1c-0.5,0-0.9,0.1-1.2,0.3
			c-0.3,0.2-0.6,0.4-0.8,0.7c-0.2,0.3-0.4,0.6-0.5,0.9c-0.1,0.3-0.2,0.6-0.2,0.9v4.9H87V122.6z"/>
		<path class="st0" d="M93.7,124.6c0,0.4,0.1,0.8,0.3,1.2c0.2,0.4,0.4,0.7,0.7,1c0.3,0.3,0.6,0.5,1,0.7c0.4,0.2,0.8,0.2,1.2,0.2
			c0.7,0,1.2-0.2,1.7-0.5c0.5-0.3,0.8-0.7,1.1-1l0.9,0.8c-0.5,0.7-1.1,1.1-1.7,1.4s-1.3,0.4-2,0.4c-0.6,0-1.2-0.1-1.8-0.3
			s-1-0.5-1.4-1c-0.4-0.4-0.7-0.9-0.9-1.4c-0.2-0.6-0.3-1.2-0.3-1.8c0-0.7,0.1-1.3,0.3-1.8c0.2-0.6,0.5-1,0.9-1.4
			c0.4-0.4,0.9-0.7,1.4-1c0.5-0.2,1.1-0.3,1.7-0.3c0.7,0,1.2,0.1,1.8,0.4c0.5,0.2,1,0.5,1.3,0.9c0.4,0.4,0.6,0.8,0.8,1.4
			c0.2,0.5,0.3,1.1,0.3,1.7v0.6H93.7z M99.6,123.6c0-0.8-0.2-1.5-0.7-2c-0.5-0.5-1.2-0.8-2.1-0.8c-0.4,0-0.8,0.1-1.1,0.2
			c-0.4,0.2-0.7,0.4-1,0.6c-0.3,0.3-0.5,0.6-0.7,0.9c-0.2,0.3-0.2,0.7-0.2,1H99.6z"/>
		<path class="st0" d="M117.2,128.6H116v-1.4h0c-0.2,0.3-0.4,0.5-0.7,0.8c-0.3,0.2-0.6,0.4-0.9,0.5c-0.3,0.1-0.6,0.2-0.9,0.3
			c-0.3,0.1-0.6,0.1-0.9,0.1c-0.7,0-1.3-0.1-1.9-0.3c-0.6-0.2-1-0.5-1.5-1c-0.4-0.4-0.7-0.9-1-1.4s-0.3-1.2-0.3-1.8
			c0-0.7,0.1-1.3,0.3-1.8c0.2-0.6,0.5-1,1-1.4c0.4-0.4,0.9-0.7,1.5-1c0.6-0.2,1.2-0.3,1.9-0.3c0.3,0,0.6,0,0.9,0.1
			c0.3,0.1,0.6,0.2,0.9,0.3c0.3,0.1,0.6,0.3,0.9,0.5c0.3,0.2,0.5,0.5,0.7,0.8h0v-6.8h1.2V128.6z M109.3,124.3c0,0.5,0.1,0.9,0.2,1.4
			c0.2,0.4,0.4,0.8,0.7,1.1c0.3,0.3,0.6,0.6,1,0.7c0.4,0.2,0.9,0.3,1.4,0.3c0.5,0,1-0.1,1.4-0.3c0.4-0.2,0.8-0.4,1.1-0.7
			c0.3-0.3,0.5-0.7,0.7-1.1c0.2-0.4,0.3-0.9,0.3-1.4c0-0.5-0.1-0.9-0.3-1.4c-0.2-0.4-0.4-0.8-0.7-1.1c-0.3-0.3-0.7-0.6-1.1-0.7
			c-0.4-0.2-0.9-0.3-1.4-0.3c-0.5,0-1,0.1-1.4,0.3c-0.4,0.2-0.7,0.4-1,0.7c-0.3,0.3-0.5,0.7-0.7,1.1
			C109.3,123.3,109.3,123.8,109.3,124.3z"/>
		<path class="st0" d="M120.8,124.6c0,0.4,0.1,0.8,0.3,1.2c0.2,0.4,0.4,0.7,0.7,1c0.3,0.3,0.6,0.5,1,0.7c0.4,0.2,0.8,0.2,1.2,0.2
			c0.7,0,1.2-0.2,1.7-0.5c0.5-0.3,0.8-0.7,1.1-1l0.9,0.8c-0.5,0.7-1.1,1.1-1.7,1.4s-1.3,0.4-2,0.4c-0.6,0-1.2-0.1-1.8-0.3
			s-1-0.5-1.4-1c-0.4-0.4-0.7-0.9-0.9-1.4c-0.2-0.6-0.3-1.2-0.3-1.8c0-0.7,0.1-1.3,0.3-1.8c0.2-0.6,0.5-1,0.9-1.4
			c0.4-0.4,0.9-0.7,1.4-1c0.5-0.2,1.1-0.3,1.7-0.3c0.7,0,1.2,0.1,1.8,0.4c0.5,0.2,1,0.5,1.3,0.9c0.4,0.4,0.6,0.8,0.8,1.4
			c0.2,0.5,0.3,1.1,0.3,1.7v0.6H120.8z M126.7,123.6c0-0.8-0.2-1.5-0.7-2c-0.5-0.5-1.2-0.8-2.1-0.8c-0.4,0-0.8,0.1-1.1,0.2
			c-0.4,0.2-0.7,0.4-1,0.6c-0.3,0.3-0.5,0.6-0.7,0.9c-0.2,0.3-0.2,0.7-0.2,1H126.7z"/>
		<path class="st0" d="M134.2,128.6h-1.4l-3.5-8.7h1.4l2.8,7.3h0l2.8-7.3h1.4L134.2,128.6z"/>
		<path class="st0" d="M140.3,124.6c0,0.4,0.1,0.8,0.3,1.2c0.2,0.4,0.4,0.7,0.7,1c0.3,0.3,0.6,0.5,1,0.7c0.4,0.2,0.8,0.2,1.2,0.2
			c0.7,0,1.2-0.2,1.7-0.5c0.5-0.3,0.8-0.7,1.1-1l0.9,0.8c-0.5,0.7-1.1,1.1-1.7,1.4s-1.3,0.4-2,0.4c-0.6,0-1.2-0.1-1.8-0.3
			s-1-0.5-1.4-1c-0.4-0.4-0.7-0.9-0.9-1.4c-0.2-0.6-0.3-1.2-0.3-1.8c0-0.7,0.1-1.3,0.3-1.8c0.2-0.6,0.5-1,0.9-1.4
			c0.4-0.4,0.9-0.7,1.4-1c0.5-0.2,1.1-0.3,1.7-0.3c0.7,0,1.2,0.1,1.8,0.4c0.5,0.2,1,0.5,1.3,0.9c0.4,0.4,0.6,0.8,0.8,1.4
			c0.2,0.5,0.3,1.1,0.3,1.7v0.6H140.3z M146.2,123.6c0-0.8-0.2-1.5-0.7-2c-0.5-0.5-1.2-0.8-2.1-0.8c-0.4,0-0.8,0.1-1.1,0.2
			c-0.4,0.2-0.7,0.4-1,0.6c-0.3,0.3-0.5,0.6-0.7,0.9c-0.2,0.3-0.2,0.7-0.2,1H146.2z"/>
		<path class="st0" d="M151.4,128.6h-1.2v-14h1.2V128.6z"/>
		<path class="st0" d="M163.2,124.3c0,0.7-0.1,1.3-0.3,1.8c-0.2,0.6-0.5,1-1,1.4c-0.4,0.4-0.9,0.7-1.5,1c-0.6,0.2-1.2,0.3-1.9,0.3
			c-0.7,0-1.3-0.1-1.8-0.3s-1-0.5-1.5-1c-0.4-0.4-0.7-0.9-1-1.4c-0.2-0.6-0.3-1.2-0.3-1.8c0-0.7,0.1-1.3,0.3-1.8
			c0.2-0.6,0.5-1,1-1.4c0.4-0.4,0.9-0.7,1.5-1c0.6-0.2,1.2-0.3,1.8-0.3c0.7,0,1.3,0.1,1.9,0.3c0.6,0.2,1,0.5,1.5,1
			c0.4,0.4,0.7,0.9,1,1.4C163.1,123,163.2,123.6,163.2,124.3z M161.9,124.3c0-0.5-0.1-0.9-0.2-1.4c-0.2-0.4-0.4-0.8-0.7-1.1
			c-0.3-0.3-0.6-0.6-1-0.7c-0.4-0.2-0.9-0.3-1.4-0.3s-1,0.1-1.4,0.3c-0.4,0.2-0.7,0.4-1,0.7c-0.3,0.3-0.5,0.7-0.6,1.1
			c-0.2,0.4-0.2,0.9-0.2,1.4c0,0.5,0.1,0.9,0.2,1.4c0.2,0.4,0.4,0.8,0.6,1.1c0.3,0.3,0.6,0.6,1,0.7c0.4,0.2,0.9,0.3,1.4,0.3
			s1-0.1,1.4-0.3c0.4-0.2,0.7-0.4,1-0.7c0.3-0.3,0.5-0.7,0.7-1.1C161.8,125.2,161.9,124.7,161.9,124.3z"/>
		<path class="st0" d="M165.5,119.9h1.2v1.4h0c0.2-0.3,0.4-0.5,0.7-0.8c0.3-0.2,0.6-0.4,0.9-0.5c0.3-0.1,0.6-0.2,0.9-0.3
			c0.3-0.1,0.6-0.1,0.9-0.1c0.7,0,1.3,0.1,1.9,0.3c0.6,0.2,1,0.5,1.5,1c0.4,0.4,0.7,0.9,1,1.4c0.2,0.6,0.3,1.2,0.3,1.8
			c0,0.7-0.1,1.3-0.3,1.8c-0.2,0.6-0.5,1-1,1.4c-0.4,0.4-0.9,0.7-1.5,1c-0.6,0.2-1.2,0.3-1.9,0.3c-0.3,0-0.6,0-0.9-0.1
			c-0.3-0.1-0.6-0.2-0.9-0.3c-0.3-0.1-0.6-0.3-0.9-0.5c-0.3-0.2-0.5-0.5-0.7-0.8h0v6.8h-1.2V119.9z M173.4,124.3
			c0-0.5-0.1-0.9-0.2-1.4c-0.2-0.4-0.4-0.8-0.7-1.1c-0.3-0.3-0.6-0.6-1-0.7c-0.4-0.2-0.9-0.3-1.4-0.3c-0.5,0-1,0.1-1.4,0.3
			c-0.4,0.2-0.8,0.4-1.1,0.7c-0.3,0.3-0.6,0.7-0.7,1.1c-0.2,0.4-0.3,0.9-0.3,1.4c0,0.5,0.1,0.9,0.3,1.4c0.2,0.4,0.4,0.8,0.7,1.1
			c0.3,0.3,0.7,0.6,1.1,0.7c0.4,0.2,0.9,0.3,1.4,0.3c0.5,0,1-0.1,1.4-0.3c0.4-0.2,0.7-0.4,1-0.7c0.3-0.3,0.5-0.7,0.7-1.1
			C173.4,125.2,173.4,124.7,173.4,124.3z"/>
		<path class="st0" d="M177,121.9c0-0.3,0-0.6,0-1s0-0.6-0.1-1h1.3v1.3h0c0.3-0.5,0.7-0.9,1.2-1.1c0.5-0.3,1-0.4,1.6-0.4
			c0.2,0,0.5,0,0.8,0.1c0.3,0,0.5,0.1,0.8,0.3c0.2,0.1,0.5,0.3,0.7,0.5c0.2,0.2,0.4,0.5,0.5,0.9c0.2-0.6,0.6-1,1.2-1.3
			c0.5-0.3,1.1-0.5,1.7-0.5c1.1,0,1.9,0.3,2.5,0.9c0.5,0.6,0.8,1.4,0.8,2.5v5.5h-1.2v-5.1c0-0.9-0.2-1.6-0.5-2s-0.9-0.7-1.7-0.7
			c-0.5,0-0.8,0.1-1.2,0.3c-0.3,0.2-0.6,0.4-0.8,0.7c-0.2,0.3-0.3,0.6-0.4,1c-0.1,0.4-0.1,0.8-0.1,1.2v4.6h-1.2v-5.1
			c0-0.9-0.2-1.6-0.5-2c-0.3-0.5-0.9-0.7-1.7-0.7c-0.1,0-0.2,0-0.5,0.1c-0.3,0-0.5,0.2-0.8,0.4s-0.5,0.6-0.8,1s-0.3,1.1-0.3,1.9v4.5
			H177V121.9z"/>
		<path class="st0" d="M193.7,124.6c0,0.4,0.1,0.8,0.3,1.2c0.2,0.4,0.4,0.7,0.7,1c0.3,0.3,0.6,0.5,1,0.7c0.4,0.2,0.8,0.2,1.2,0.2
			c0.7,0,1.2-0.2,1.7-0.5s0.8-0.7,1.1-1l0.9,0.8c-0.5,0.7-1.1,1.1-1.7,1.4c-0.6,0.3-1.3,0.4-2,0.4c-0.6,0-1.2-0.1-1.8-0.3
			c-0.6-0.2-1-0.5-1.4-1s-0.7-0.9-0.9-1.4c-0.2-0.6-0.3-1.2-0.3-1.8c0-0.7,0.1-1.3,0.3-1.8c0.2-0.6,0.5-1,0.9-1.4s0.9-0.7,1.4-1
			c0.5-0.2,1.1-0.3,1.7-0.3c0.7,0,1.2,0.1,1.8,0.4c0.5,0.2,1,0.5,1.3,0.9c0.4,0.4,0.6,0.8,0.8,1.4c0.2,0.5,0.3,1.1,0.3,1.7v0.6
			H193.7z M199.6,123.6c0-0.8-0.2-1.5-0.7-2s-1.2-0.8-2.1-0.8c-0.4,0-0.8,0.1-1.1,0.2c-0.4,0.2-0.7,0.4-1,0.6
			c-0.3,0.3-0.5,0.6-0.7,0.9c-0.2,0.3-0.3,0.7-0.3,1H199.6z"/>
		<path class="st0" d="M204.5,119.9c0,0.2,0,0.5,0,0.7c0,0.2,0,0.5,0,0.7h0c0.1-0.2,0.3-0.5,0.5-0.6c0.2-0.2,0.4-0.4,0.7-0.5
			c0.3-0.1,0.5-0.3,0.8-0.3c0.3-0.1,0.6-0.1,0.9-0.1c1.1,0,1.9,0.3,2.5,0.9c0.5,0.6,0.8,1.4,0.8,2.5v5.5h-1.2v-4.8
			c0-1-0.2-1.7-0.5-2.2c-0.3-0.5-1-0.8-1.9-0.8c-0.1,0-0.2,0-0.5,0.1c-0.3,0-0.6,0.2-0.9,0.4c-0.3,0.2-0.6,0.6-0.8,1
			c-0.2,0.4-0.4,1.1-0.4,1.9v4.5h-1.2v-6.8c0-0.2,0-0.5,0-0.9s0-0.7-0.1-1H204.5z"/>
		<path class="st0" d="M218.2,121h-2.5v5.1c0,0.3,0,0.6,0.1,0.8c0.1,0.2,0.1,0.4,0.3,0.5s0.2,0.2,0.4,0.2c0.2,0,0.3,0.1,0.5,0.1
			c0.2,0,0.4,0,0.6-0.1s0.4-0.1,0.6-0.2l0.1,1.1c-0.5,0.2-1,0.3-1.6,0.3c-0.2,0-0.5,0-0.7-0.1c-0.3-0.1-0.5-0.2-0.7-0.4
			c-0.2-0.2-0.4-0.4-0.5-0.7c-0.1-0.3-0.2-0.7-0.2-1.2V121h-1.8v-1.1h1.8v-2.4h1.2v2.4h2.5V121z"/>
		<path class="st0" d="M231.6,122c-0.2-0.3-0.5-0.6-0.9-0.8s-0.8-0.3-1.3-0.3c-0.5,0-1,0.1-1.4,0.2s-0.7,0.4-1,0.7
			c-0.3,0.3-0.5,0.7-0.6,1.1s-0.2,0.9-0.2,1.4c0,0.5,0.1,1,0.2,1.4c0.1,0.4,0.4,0.8,0.6,1.1c0.3,0.3,0.6,0.6,1,0.7s0.9,0.3,1.4,0.2
			c0.5,0,0.9-0.1,1.3-0.3s0.7-0.5,0.9-0.8l1,0.8c-0.4,0.5-0.9,0.9-1.5,1.1c-0.5,0.2-1.1,0.4-1.7,0.4c-0.7,0-1.3-0.1-1.9-0.3
			s-1.1-0.5-1.5-1c-0.4-0.4-0.7-0.9-0.9-1.5c-0.2-0.6-0.3-1.2-0.3-1.8c0-0.7,0.1-1.3,0.3-1.8c0.2-0.6,0.5-1,0.9-1.5
			c0.4-0.4,0.9-0.7,1.5-1c0.6-0.2,1.2-0.3,1.9-0.3c0.6,0,1.2,0.1,1.7,0.4s1,0.6,1.5,1.1L231.6,122z"/>
		<path class="st0" d="M243.1,124.3c0,0.7-0.1,1.3-0.3,1.8s-0.5,1-1,1.4s-0.9,0.7-1.5,1s-1.2,0.3-1.9,0.3c-0.7,0-1.3-0.1-1.8-0.3
			c-0.6-0.2-1-0.5-1.5-1c-0.4-0.4-0.7-0.9-1-1.4c-0.2-0.6-0.3-1.2-0.3-1.8c0-0.7,0.1-1.3,0.3-1.8c0.2-0.6,0.5-1,1-1.4
			c0.4-0.4,0.9-0.7,1.5-1c0.6-0.2,1.2-0.3,1.8-0.3c0.7,0,1.3,0.1,1.9,0.3c0.6,0.2,1,0.5,1.5,1s0.7,0.9,1,1.4
			C242.9,123,243.1,123.6,243.1,124.3z M241.7,124.3c0-0.5-0.1-0.9-0.2-1.4c-0.2-0.4-0.4-0.8-0.7-1.1c-0.3-0.3-0.6-0.6-1-0.7
			c-0.4-0.2-0.9-0.3-1.4-0.3s-1,0.1-1.4,0.3c-0.4,0.2-0.7,0.4-1,0.7c-0.3,0.3-0.5,0.7-0.6,1.1c-0.2,0.4-0.2,0.9-0.2,1.4
			c0,0.5,0.1,0.9,0.2,1.4c0.2,0.4,0.4,0.8,0.6,1.1c0.3,0.3,0.6,0.6,1,0.7c0.4,0.2,0.9,0.3,1.4,0.3s1-0.1,1.4-0.3
			c0.4-0.2,0.7-0.4,1-0.7c0.3-0.3,0.5-0.7,0.7-1.1C241.6,125.2,241.7,124.7,241.7,124.3z"/>
		<path class="st0" d="M246.6,119.9c0,0.2,0,0.5,0,0.7c0,0.2,0,0.5,0,0.7h0c0.1-0.2,0.3-0.5,0.5-0.6c0.2-0.2,0.4-0.4,0.7-0.5
			c0.3-0.1,0.5-0.3,0.8-0.3c0.3-0.1,0.6-0.1,0.9-0.1c1.1,0,1.9,0.3,2.5,0.9c0.5,0.6,0.8,1.4,0.8,2.5v5.5h-1.2v-4.8
			c0-1-0.2-1.7-0.5-2.2c-0.3-0.5-1-0.8-1.9-0.8c-0.1,0-0.2,0-0.5,0.1c-0.3,0-0.6,0.2-0.9,0.4c-0.3,0.2-0.6,0.6-0.8,1
			c-0.2,0.4-0.4,1.1-0.4,1.9v4.5h-1.2v-6.8c0-0.2,0-0.5,0-0.9s0-0.7-0.1-1H246.6z"/>
		<path class="st0" d="M260.4,122c-0.2-0.4-0.4-0.6-0.7-0.9c-0.3-0.2-0.7-0.3-1.1-0.3c-0.2,0-0.4,0-0.6,0.1c-0.2,0-0.4,0.1-0.6,0.2
			c-0.2,0.1-0.3,0.2-0.4,0.4c-0.1,0.2-0.2,0.4-0.2,0.6c0,0.4,0.1,0.7,0.4,0.9c0.3,0.2,0.7,0.3,1.3,0.5l1.2,0.3
			c0.6,0.1,1.1,0.4,1.5,0.8s0.6,0.9,0.6,1.5c0,0.5-0.1,0.9-0.3,1.2c-0.2,0.3-0.4,0.6-0.8,0.8c-0.3,0.2-0.7,0.4-1.1,0.5
			s-0.8,0.1-1.2,0.1c-0.7,0-1.3-0.1-1.9-0.4c-0.6-0.3-1.1-0.7-1.5-1.3l1.1-0.7c0.2,0.4,0.6,0.7,0.9,0.9c0.4,0.2,0.8,0.4,1.3,0.4
			c0.2,0,0.5,0,0.7-0.1s0.5-0.1,0.7-0.3c0.2-0.1,0.3-0.3,0.5-0.5s0.2-0.4,0.2-0.6c0-0.4-0.2-0.7-0.5-0.9c-0.3-0.2-0.7-0.3-1.2-0.5
			l-1.2-0.3c-0.1,0-0.3-0.1-0.6-0.2c-0.3-0.1-0.5-0.2-0.7-0.4c-0.2-0.2-0.4-0.4-0.6-0.7c-0.2-0.3-0.3-0.6-0.3-1
			c0-0.4,0.1-0.8,0.3-1.2c0.2-0.3,0.4-0.6,0.7-0.8c0.3-0.2,0.6-0.4,1-0.5c0.4-0.1,0.8-0.2,1.2-0.2c0.6,0,1.2,0.1,1.7,0.4
			c0.5,0.2,0.9,0.6,1.2,1.2L260.4,122z"/>
		<path class="st0" d="M270.1,128.6c0-0.2,0-0.5,0-0.7c0-0.2,0-0.5,0-0.7h0c-0.1,0.2-0.3,0.5-0.5,0.6c-0.2,0.2-0.4,0.4-0.7,0.5
			c-0.3,0.1-0.5,0.3-0.8,0.3c-0.3,0.1-0.6,0.1-0.9,0.1c-1.1,0-1.9-0.3-2.5-0.9s-0.8-1.4-0.8-2.5v-5.5h1.2v4.8c0,0.5,0,0.9,0.1,1.3
			s0.2,0.7,0.4,0.9c0.2,0.3,0.4,0.4,0.7,0.6c0.3,0.1,0.7,0.2,1.1,0.2c0.1,0,0.2,0,0.5-0.1c0.3,0,0.6-0.2,0.9-0.4
			c0.3-0.2,0.6-0.6,0.8-1s0.4-1.1,0.4-1.9v-4.4h1.2v6.8c0,0.2,0,0.5,0,0.9s0,0.7,0.1,1H270.1z"/>
		<path class="st0" d="M275.7,128.6h-1.2v-14h1.2V128.6z"/>
		<path class="st0" d="M283.3,121h-2.5v5.1c0,0.3,0,0.6,0.1,0.8c0.1,0.2,0.1,0.4,0.3,0.5s0.2,0.2,0.4,0.2c0.2,0,0.3,0.1,0.5,0.1
			c0.2,0,0.4,0,0.6-0.1s0.4-0.1,0.6-0.2l0.1,1.1c-0.5,0.2-1,0.3-1.6,0.3c-0.2,0-0.5,0-0.7-0.1c-0.3-0.1-0.5-0.2-0.7-0.4
			c-0.2-0.2-0.4-0.4-0.5-0.7c-0.1-0.3-0.2-0.7-0.2-1.2V121h-1.8v-1.1h1.8v-2.4h1.2v2.4h2.5V121z"/>
		<path class="st0" d="M286.9,116.6c0,0.3-0.1,0.5-0.3,0.6s-0.4,0.3-0.6,0.3s-0.4-0.1-0.6-0.3s-0.3-0.4-0.3-0.6
			c0-0.3,0.1-0.5,0.3-0.6s0.4-0.2,0.6-0.2s0.4,0.1,0.6,0.2S286.9,116.3,286.9,116.6z M286.6,128.6h-1.2v-8.7h1.2V128.6z"/>
		<path class="st0" d="M290.8,119.9c0,0.2,0,0.5,0,0.7c0,0.2,0,0.5,0,0.7h0c0.1-0.2,0.3-0.5,0.5-0.6c0.2-0.2,0.4-0.4,0.7-0.5
			c0.3-0.1,0.5-0.3,0.8-0.3c0.3-0.1,0.6-0.1,0.9-0.1c1.1,0,1.9,0.3,2.5,0.9c0.5,0.6,0.8,1.4,0.8,2.5v5.5h-1.2v-4.8
			c0-1-0.2-1.7-0.5-2.2c-0.3-0.5-1-0.8-1.9-0.8c-0.1,0-0.2,0-0.5,0.1c-0.3,0-0.6,0.2-0.9,0.4c-0.3,0.2-0.6,0.6-0.8,1
			c-0.2,0.4-0.4,1.1-0.4,1.9v4.5h-1.2v-6.8c0-0.2,0-0.5,0-0.9s0-0.7-0.1-1H290.8z"/>
		<path class="st0" d="M300.7,130.3c0.4,0.5,0.8,0.9,1.4,1.2c0.6,0.3,1.2,0.4,1.9,0.4c0.6,0,1.1-0.1,1.6-0.3c0.4-0.2,0.8-0.4,1-0.7
			s0.5-0.7,0.6-1.1c0.1-0.4,0.2-0.9,0.2-1.3V127h0c-0.4,0.6-0.9,1-1.4,1.3c-0.6,0.2-1.2,0.4-1.8,0.4c-0.6,0-1.2-0.1-1.8-0.3
			c-0.6-0.2-1-0.5-1.4-0.9c-0.4-0.4-0.7-0.9-1-1.4c-0.2-0.5-0.4-1.1-0.4-1.8c0-0.6,0.1-1.2,0.3-1.8s0.5-1,0.9-1.4s0.9-0.7,1.4-1
			c0.5-0.2,1.1-0.3,1.8-0.3c0.3,0,0.5,0,0.8,0.1c0.3,0,0.6,0.1,0.9,0.3c0.3,0.1,0.6,0.3,0.9,0.5c0.3,0.2,0.5,0.5,0.8,0.8h0v-1.4h1.2
			v8.6c0,0.5-0.1,1-0.2,1.5c-0.1,0.5-0.3,1-0.7,1.5c-0.3,0.4-0.8,0.8-1.4,1.1s-1.4,0.4-2.4,0.4c-0.9,0-1.6-0.1-2.3-0.4
			c-0.7-0.3-1.3-0.7-1.9-1.3L300.7,130.3z M300.9,124.2c0,0.5,0.1,0.9,0.3,1.3c0.2,0.4,0.4,0.8,0.7,1.1c0.3,0.3,0.6,0.5,1,0.7
			c0.4,0.2,0.8,0.3,1.3,0.3c0.4,0,0.9-0.1,1.3-0.2c0.4-0.2,0.8-0.4,1.1-0.7c0.3-0.3,0.5-0.6,0.7-1c0.2-0.4,0.2-0.9,0.2-1.4
			c0-0.5-0.1-0.9-0.2-1.3s-0.4-0.8-0.6-1.1s-0.6-0.5-1-0.7c-0.4-0.2-0.9-0.3-1.4-0.3c-0.5,0-0.9,0.1-1.3,0.3c-0.4,0.2-0.7,0.4-1,0.7
			c-0.3,0.3-0.5,0.7-0.7,1.1C301,123.3,300.9,123.7,300.9,124.2z"/>
	</g>
</g>
</svg>
