<?xml version="1.0" encoding="UTF-8" ?>
<!DOCTYPE svg PUBLIC "-//W3C//DTD SVG 1.1//EN" "http://www.w3.org/Graphics/SVG/1.1/DTD/svg11.dtd">
<svg width="366pt" height="133pt" viewBox="0 0 366 133" version="1.1" xmlns="http://www.w3.org/2000/svg">
<path fill="#010101" opacity="1.00" d=" M 79.98 10.99 C 81.94 7.00 88.61 8.92 88.83 13.08 C 88.50 16.54 86.94 19.72 85.71 22.93 C 94.64 16.33 105.93 13.30 116.96 13.69 C 127.77 13.41 137.50 18.85 146.62 23.99 C 141.36 33.28 131.60 39.09 121.41 41.46 C 135.77 56.27 135.51 81.77 122.29 97.22 C 108.01 113.88 86.86 123.74 65.18 125.83 C 55.48 126.74 44.77 128.19 35.95 123.02 C 28.20 118.44 24.49 109.74 21.64 101.61 C 16.26 87.50 14.22 71.47 19.10 56.93 C 23.41 43.82 33.62 32.24 46.96 28.00 C 55.48 25.69 64.87 25.90 73.03 29.45 C 75.56 23.38 77.42 17.03 79.98 10.99 M 42.56 43.49 C 34.22 49.35 29.37 59.08 27.63 68.94 C 26.16 77.75 28.72 86.56 31.42 94.87 C 33.51 100.62 35.43 106.72 39.68 111.30 C 44.40 116.07 51.71 117.00 58.08 116.00 C 67.69 115.07 77.23 113.06 86.18 109.37 C 95.39 105.59 103.57 99.58 110.59 92.58 C 118.73 84.32 123.47 71.40 118.93 60.18 C 114.29 45.99 97.50 36.69 83.15 41.58 C 70.46 45.22 61.28 55.96 55.48 67.35 C 53.74 70.48 53.00 74.59 49.69 76.52 C 47.26 77.42 43.42 77.71 42.26 74.80 C 40.82 71.22 42.83 67.51 44.23 64.25 C 48.49 54.45 55.15 45.81 63.22 38.83 C 56.04 36.83 48.49 39.39 42.56 43.49 Z" />
<path fill="#010101" opacity="1.00" d=" M 253.48 21.79 C 255.98 10.90 273.59 9.93 278.16 19.74 C 279.54 23.16 278.92 26.96 279.07 30.55 C 276.35 30.57 273.64 30.56 270.93 30.52 C 270.77 27.83 271.48 24.93 270.36 22.38 C 268.40 18.67 261.46 19.78 261.55 24.33 C 261.43 33.75 261.43 43.19 261.55 52.62 C 261.59 57.34 269.20 58.17 270.63 53.90 C 271.24 50.95 270.84 47.88 271.10 44.89 C 273.69 44.91 276.27 44.91 278.86 44.87 C 279.01 48.87 279.62 53.09 278.23 56.94 C 274.11 66.04 259.04 66.28 254.38 57.57 C 252.55 53.99 253.41 49.82 253.22 45.96 C 253.40 37.91 252.86 29.82 253.48 21.79 Z" />
<path fill="#010101" opacity="1.00" d=" M 156.80 13.75 C 164.20 14.39 172.91 11.68 179.15 16.88 C 183.77 20.57 182.54 26.94 182.63 32.10 C 182.84 36.43 179.87 40.42 175.93 42.00 C 172.54 43.42 168.80 43.12 165.22 43.09 C 165.16 49.78 165.20 56.47 165.19 63.16 C 162.40 63.17 159.61 63.17 156.82 63.16 C 156.80 46.69 156.80 30.22 156.80 13.75 M 165.19 20.73 C 165.20 25.87 165.19 31.00 165.20 36.14 C 168.30 36.08 172.84 36.68 174.25 33.10 C 174.45 29.78 174.74 26.33 174.05 23.07 C 172.07 20.12 168.23 20.76 165.19 20.73 Z" />
<path fill="#010101" opacity="1.00" d=" M 189.59 13.73 C 197.50 13.72 205.41 13.73 213.32 13.73 C 213.33 16.07 213.33 18.40 213.34 20.74 C 208.27 20.73 203.19 20.73 198.12 20.74 C 198.13 25.32 198.12 29.90 198.13 34.48 C 202.17 34.50 206.21 34.38 210.25 34.57 C 210.23 36.93 210.22 39.29 210.22 41.65 C 206.19 41.69 202.16 41.67 198.14 41.66 C 198.13 46.42 198.13 51.18 198.14 55.94 C 203.21 56.00 208.30 55.68 213.36 56.16 C 213.33 58.49 213.33 60.83 213.33 63.17 C 205.42 63.15 197.50 63.20 189.59 63.16 C 189.58 46.68 189.57 30.21 189.59 13.73 Z" />
<path fill="#010101" opacity="1.00" d=" M 227.39 13.73 C 231.09 13.72 234.78 13.74 238.48 13.70 C 241.61 30.17 244.62 46.67 247.56 63.18 C 244.76 63.17 241.96 63.16 239.16 63.18 C 238.38 59.55 237.88 55.88 237.28 52.22 C 234.37 52.24 231.46 52.25 228.55 52.21 C 227.72 55.82 227.34 59.50 226.62 63.13 C 223.85 63.18 221.08 63.19 218.31 63.19 C 221.26 46.69 224.25 30.20 227.39 13.73 M 232.98 24.82 C 231.51 31.45 230.89 38.22 229.46 44.86 C 231.69 44.88 233.93 44.88 236.16 44.88 C 235.00 38.21 233.92 31.52 232.98 24.82 Z" />
<path fill="#010101" opacity="1.00" d=" M 286.66 13.71 C 289.50 13.72 292.34 13.73 295.19 13.73 C 295.20 20.64 295.18 27.56 295.20 34.47 C 298.40 34.48 301.60 34.48 304.81 34.46 C 304.79 27.55 304.79 20.65 304.80 13.75 C 307.59 13.72 310.39 13.72 313.19 13.75 C 313.19 30.23 313.20 46.70 313.19 63.18 C 310.39 63.17 307.60 63.17 304.82 63.16 C 304.80 56.00 304.81 48.84 304.81 41.68 C 301.60 41.67 298.39 41.67 295.18 41.68 C 295.19 48.84 295.19 56.00 295.19 63.16 C 292.34 63.18 289.50 63.18 286.66 63.17 C 286.65 46.69 286.65 30.20 286.66 13.71 Z" />
<path fill="#010101" opacity="1.00" d=" M 319.09 13.72 C 322.11 13.72 325.13 13.72 328.15 13.73 C 330.22 19.88 332.24 26.06 334.51 32.15 C 336.70 26.02 338.83 19.87 341.00 13.73 C 343.91 13.73 346.83 13.73 349.75 13.73 C 346.38 22.44 343.02 31.16 339.64 39.86 C 339.17 41.17 338.57 42.49 338.63 43.92 C 338.60 50.34 338.66 56.76 338.62 63.18 C 335.87 63.18 333.11 63.18 330.36 63.16 C 330.34 56.71 330.40 50.26 330.35 43.81 C 330.40 42.06 329.48 40.51 328.94 38.90 C 325.55 30.55 322.48 22.07 319.09 13.72 Z" />
<path fill="#010101" opacity="1.00" d=" M 156.80 71.38 C 161.21 71.39 165.63 71.33 170.05 71.38 C 175.38 71.20 180.32 75.65 180.85 80.94 C 181.32 84.52 181.33 88.19 180.91 91.77 C 180.44 96.09 177.21 100.03 172.96 101.09 C 170.23 101.81 167.39 101.53 164.61 101.58 C 164.60 108.48 164.62 115.37 164.60 122.27 C 162.00 122.27 159.40 122.27 156.81 122.25 C 156.79 105.29 156.81 88.34 156.80 71.38 M 164.61 78.63 C 164.61 83.85 164.59 89.07 164.62 94.30 C 167.21 94.15 170.45 94.90 172.40 92.68 C 173.91 89.39 173.14 85.56 173.10 82.05 C 172.56 77.90 167.63 78.63 164.61 78.63 Z" />
<path fill="#010101" opacity="1.00" d=" M 190.74 71.35 C 194.23 71.38 197.72 71.37 201.21 71.37 C 204.01 88.34 206.91 105.30 209.69 122.28 C 207.02 122.26 204.35 122.26 201.69 122.26 C 201.10 118.45 200.60 114.63 199.85 110.85 C 197.16 110.88 194.46 110.88 191.77 110.89 C 191.22 114.68 190.61 118.46 190.14 122.26 C 187.49 122.26 184.84 122.26 182.19 122.27 C 185.11 105.31 187.80 88.31 190.74 71.35 M 192.75 103.47 C 194.82 103.48 196.89 103.48 198.96 103.48 C 197.92 96.69 196.90 89.90 195.98 83.09 C 194.70 89.85 193.87 96.68 192.75 103.47 Z" />
<path fill="#010101" opacity="1.00" d=" M 219.37 72.29 C 224.53 69.29 232.36 70.01 235.77 75.32 C 237.64 78.00 237.88 81.34 237.84 84.50 C 235.39 84.86 232.93 85.16 230.47 85.35 C 230.32 82.74 230.37 78.65 227.08 78.04 C 225.16 77.39 222.35 78.69 222.22 80.90 C 221.94 83.12 222.05 85.59 223.47 87.43 C 227.50 93.07 233.44 97.13 236.98 103.15 C 239.47 107.60 239.69 113.50 236.77 117.80 C 232.50 124.24 222.01 124.74 216.92 119.05 C 214.20 116.31 213.69 112.26 213.63 108.59 C 216.17 108.36 218.71 108.09 221.24 107.76 C 221.50 109.99 221.26 112.50 222.85 114.30 C 224.92 116.29 228.92 116.03 230.51 113.54 C 231.92 110.74 230.93 107.30 228.99 105.01 C 224.62 99.78 218.72 95.73 215.60 89.51 C 213.01 83.86 213.86 75.91 219.37 72.29 Z" />
<path fill="#010101" opacity="1.00" d=" M 248.62 72.64 C 253.80 69.17 262.16 69.85 265.66 75.42 C 267.52 78.08 267.70 81.39 267.73 84.51 C 265.25 84.84 262.77 85.14 260.27 85.30 C 260.06 82.20 259.79 78.28 256.03 77.59 C 251.66 78.01 250.73 83.26 252.73 86.49 C 256.83 93.17 264.14 97.35 267.52 104.55 C 269.22 108.88 269.17 114.24 266.39 118.12 C 261.72 124.65 250.53 124.62 245.90 118.05 C 243.88 115.33 243.50 111.85 243.60 108.57 C 246.15 108.34 248.69 108.07 251.23 107.77 C 251.30 110.41 251.13 113.90 253.95 115.26 C 256.14 115.89 258.98 115.69 260.33 113.60 C 261.66 110.91 260.76 107.70 259.09 105.38 C 254.61 99.48 247.61 95.42 244.91 88.24 C 243.35 82.97 243.82 76.13 248.62 72.64 Z" />
<path fill="#010101" opacity="1.00" d=" M 275.22 71.37 C 277.78 71.36 280.35 71.35 282.92 71.38 C 282.94 88.34 282.93 105.30 282.93 122.26 C 280.36 122.26 277.79 122.26 275.23 122.25 C 275.21 105.29 275.23 88.33 275.22 71.37 Z" />
<path fill="#010101" opacity="1.00" d=" M 297.32 71.75 C 304.21 68.40 314.23 71.87 315.42 80.01 C 316.00 90.01 315.54 100.05 315.67 110.07 C 315.86 114.37 314.10 119.01 310.19 121.18 C 303.19 125.55 291.99 121.93 290.87 113.15 C 290.48 103.12 290.81 93.07 290.71 83.04 C 290.52 78.43 293.01 73.65 297.32 71.75 M 298.67 81.98 C 298.26 90.31 298.64 98.67 298.49 107.02 C 298.59 109.46 298.15 112.27 299.77 114.34 C 302.22 116.77 307.78 115.65 307.71 111.71 C 307.89 101.81 307.84 91.90 307.73 82.00 C 307.92 79.33 305.25 78.07 303.04 77.62 C 300.92 78.20 298.59 79.41 298.67 81.98 Z" />
<path fill="#010101" opacity="1.00" d=" M 323.51 71.34 C 326.38 71.37 329.25 71.38 332.12 71.39 C 335.14 82.49 338.80 93.42 341.44 104.63 C 342.27 93.58 341.60 82.46 341.80 71.39 C 344.37 71.36 346.93 71.35 349.50 71.36 C 349.52 88.33 349.53 105.29 349.50 122.26 C 346.77 122.25 344.04 122.25 341.31 122.27 C 338.00 111.63 334.13 101.13 331.57 90.29 C 330.69 100.90 331.40 111.59 331.17 122.24 C 328.62 122.27 326.06 122.27 323.51 122.27 C 323.50 105.29 323.51 88.32 323.51 71.34 Z" />
</svg>
