<?xml version="1.0" encoding="UTF-8" standalone="no"?>
<!DOCTYPE svg PUBLIC "-//W3C//DTD SVG 1.1//EN" "http://www.w3.org/Graphics/SVG/1.1/DTD/svg11.dtd">
<svg width="100%" height="100%" viewBox="0 0 500 500" version="1.1" xmlns="http://www.w3.org/2000/svg" xmlns:xlink="http://www.w3.org/1999/xlink" xml:space="preserve" xmlns:serif="http://www.serif.com/" style="fill-rule:evenodd;clip-rule:evenodd;stroke-linejoin:round;stroke-miterlimit:2;">
    <g transform="matrix(0.682507,0,0,0.682507,-1134.39,-416.412)">
        <g transform="matrix(0.616415,0,0,0.616415,-2416.11,-3819.17)">
            <circle cx="7210.23" cy="7779.81" r="489.5" style="fill:white;"/>
        </g>
        <g transform="matrix(0.616415,0,0,0.616415,-2416.11,-3819.17)">
            <path d="M7210.23,7236.23C7510.23,7236.23 7753.8,7479.8 7753.8,7779.81C7753.8,8079.82 7510.23,8323.38 7210.23,8323.38C6910.22,8323.38 6666.65,8079.82 6666.65,7779.81C6666.65,7479.8 6910.22,7236.23 7210.23,7236.23ZM7210.23,7290.31C6940.06,7290.31 6720.73,7509.65 6720.73,7779.81C6720.73,8049.97 6940.06,8269.31 7210.23,8269.31C7480.39,8269.31 7699.73,8049.97 7699.73,7779.81C7699.73,7509.65 7480.39,7290.31 7210.23,7290.31Z" style="fill:rgb(0,43,113);"/>
        </g>
        <g transform="matrix(0.647644,0,0,0.647644,1199.4,785.312)">
            <g transform="matrix(4.16667,0,0,4.16667,-127.012,-22149.6)">
                <path d="M295.793,5351.01L283.001,5337.22C283.001,5337.22 260.877,5343.48 250.449,5380.18L265.972,5394.62C265.972,5394.62 268.918,5368.51 295.793,5351.01Z" style="fill:rgb(0,43,113);fill-rule:nonzero;"/>
            </g>
            <g transform="matrix(4.16667,0,0,4.16667,-127.012,-22149.6)">
                <path d="M416.536,5345.54L395.355,5351.73L404.447,5406.18L424.917,5404.64L416.536,5345.54Z" style="fill:rgb(0,43,113);fill-rule:nonzero;"/>
            </g>
            <g transform="matrix(4.16667,0,0,4.16667,-127.012,-22149.6)">
                <path d="M293.107,5410.04L295.987,5407.44C299.457,5404.31 299.732,5398.96 296.602,5395.49C293.473,5392.02 288.123,5391.75 284.653,5394.88L281.774,5397.47C278.303,5400.6 278.028,5405.95 281.158,5409.42C284.288,5412.89 289.637,5413.17 293.107,5410.04Z" style="fill:rgb(0,43,113);fill-rule:nonzero;"/>
            </g>
            <g transform="matrix(4.16667,0,0,4.16667,-127.012,-22149.6)">
                <path d="M333.918,5442.8C336.763,5440.24 336.99,5435.85 334.422,5433C331.855,5430.16 327.467,5429.93 324.622,5432.5L322.26,5434.63C319.413,5437.2 319.187,5441.58 321.754,5444.43C324.321,5447.28 328.71,5447.5 331.555,5444.93L333.918,5442.8Z" style="fill:rgb(0,43,113);fill-rule:nonzero;"/>
            </g>
            <g transform="matrix(4.16667,0,0,4.16667,-127.012,-22149.6)">
                <path d="M308.173,5420.67C312.464,5416.8 313.405,5410.85 310.275,5407.38C307.145,5403.91 301.13,5404.24 296.84,5408.11L293.279,5411.32C288.989,5415.19 288.048,5421.14 291.178,5424.61C294.307,5428.08 300.323,5427.75 304.613,5423.88L308.173,5420.67Z" style="fill:rgb(0,43,113);fill-rule:nonzero;"/>
            </g>
            <g transform="matrix(4.16667,0,0,4.16667,-127.012,-22149.6)">
                <path d="M323.195,5419.93C320.065,5416.46 314.05,5416.78 309.76,5420.65L306.199,5423.87C301.908,5427.74 300.968,5433.69 304.098,5437.16C307.228,5440.63 313.242,5440.3 317.533,5436.43L321.093,5433.22C325.383,5429.35 326.325,5423.4 323.195,5419.93Z" style="fill:rgb(0,43,113);fill-rule:nonzero;"/>
            </g>
            <g transform="matrix(4.16667,0,0,4.16667,-127.012,-22149.6)">
                <path d="M370.272,5347.34C370.272,5347.34 350.058,5327.63 330.711,5346.32L307.76,5364.96C307.76,5364.96 299.731,5374.63 312.967,5378.61L312.874,5378.56C316.752,5379.52 320.231,5378.13 322.031,5377.16C322.297,5377 322.573,5376.84 322.862,5376.67C323.16,5376.49 323.325,5376.36 323.325,5376.36L323.319,5376.42C332.239,5371.41 350.331,5364.04 359.224,5380.08C359.224,5380.08 377.074,5409.68 385.257,5412.44L401.388,5403.84L391.875,5354.52C391.875,5354.52 379.449,5354.36 370.272,5347.34Z" style="fill:rgb(0,43,113);fill-rule:nonzero;"/>
            </g>
            <g transform="matrix(4.16667,0,0,4.16667,-127.012,-22149.6)">
                <path d="M377.497,5413.45C369.913,5407 351.387,5379.67 351.387,5379.67C344.837,5370.83 331.478,5377.15 331.478,5377.15C329.713,5377.87 328.035,5378.66 326.522,5379.46C326.525,5379.46 326.533,5379.45 326.533,5379.45C326.372,5379.54 326.214,5379.63 326.055,5379.71C325.961,5379.76 325.866,5379.81 325.774,5379.86C325.099,5380.22 324.446,5380.52 323.803,5380.8L323.808,5380.81C323.703,5380.86 323.602,5380.89 323.497,5380.94C323.255,5381.04 323.017,5381.14 322.781,5381.23C322.629,5381.29 322.478,5381.34 322.327,5381.4C322.143,5381.47 321.958,5381.54 321.777,5381.6C310.175,5385.74 304.774,5380.51 304.774,5380.51C297.147,5372.5 301.431,5365.67 304.245,5362.61C304.369,5362.45 304.466,5362.33 304.517,5362.27L304.783,5361.95L305.713,5361.19C305.946,5361 306.09,5360.89 306.09,5360.89L298.891,5356.6C298.891,5356.6 277.709,5369.27 270.295,5393.79C270.295,5393.79 274.176,5395.6 278.235,5399.41C278.282,5399.36 279.913,5395.5 279.96,5395.46L282.839,5392.86C285.572,5390.4 289.342,5389.44 292.926,5390.3C295.126,5390.82 297.093,5391.99 298.614,5393.68C300.905,5396.22 301.805,5399.53 301.374,5402.68C303.326,5402.19 305.321,5402.13 307.181,5402.58C309.19,5403.06 310.954,5404.09 312.286,5405.57C314.358,5407.87 315.209,5410.97 314.681,5414.3C314.635,5414.59 314.569,5414.88 314.502,5415.17C316.387,5414.73 318.307,5414.7 320.101,5415.13C322.11,5415.61 323.875,5416.64 325.206,5418.12C327.278,5420.41 328.129,5423.52 327.601,5426.85C327.53,5427.31 327.424,5427.76 327.302,5428.21C328.675,5427.92 330.114,5427.93 331.519,5428.27C333.42,5428.72 335.12,5429.73 336.434,5431.19C339.996,5435.14 339.681,5441.25 335.731,5444.82L333.369,5446.95C332.324,5447.89 331.101,5448.58 329.796,5448.99C331.85,5450.8 342.887,5459.84 345.803,5447.64C345.803,5447.64 357.618,5453.87 359.247,5441.89C359.247,5441.89 367.283,5449.69 372.011,5433.8C372.011,5433.8 378.373,5432.31 380.643,5427.95C385.002,5421.5 377.497,5413.45 377.497,5413.45Z" style="fill:rgb(0,43,113);fill-rule:nonzero;"/>
            </g>
        </g>
    </g>
</svg>
