<?xml version="1.0" encoding="UTF-8" ?>
<!DOCTYPE svg PUBLIC "-//W3C//DTD SVG 1.1//EN" "http://www.w3.org/Graphics/SVG/1.1/DTD/svg11.dtd">
<svg width="297pt" height="41pt" viewBox="0 0 297 41" version="1.1" xmlns="http://www.w3.org/2000/svg">
<path fill="#00a8df" opacity="1.00" d=" M 18.87 0.00 L 22.34 0.00 C 28.28 0.55 33.97 3.60 37.38 8.53 C 42.44 15.44 42.44 25.55 37.36 32.44 C 33.96 37.33 28.32 40.35 22.45 41.00 L 19.05 41.00 C 9.29 40.19 0.93 32.03 0.00 22.26 L 0.00 18.80 C 0.86 9.05 9.21 0.97 18.87 0.00 M 16.44 5.64 C 9.39 7.55 4.18 14.85 5.15 22.17 C 5.93 30.68 14.71 37.32 23.11 35.77 C 31.38 34.72 37.53 26.12 35.94 17.94 C 34.82 9.05 24.97 2.84 16.44 5.64 Z" />
<path fill="#00a8df" opacity="1.00" d=" M 99.85 0.00 L 103.36 0.00 C 109.06 0.55 114.54 3.38 117.98 8.02 C 123.22 14.73 123.56 24.76 118.78 31.81 C 115.40 37.04 109.55 40.34 103.41 41.00 L 100.02 41.00 C 93.78 40.32 87.83 36.97 84.39 31.66 C 79.92 25.14 79.84 15.93 84.36 9.41 C 87.77 4.11 93.66 0.78 99.85 0.00 M 97.46 5.63 C 90.08 7.59 84.74 15.50 86.26 23.09 C 87.58 31.59 96.82 37.72 105.17 35.57 C 113.34 33.91 118.86 24.91 116.71 16.86 C 115.01 8.50 105.59 3.02 97.46 5.63 Z" />
<path fill="#00a8df" opacity="1.00" d=" M 143.44 0.00 L 145.54 0.00 C 147.19 1.09 147.20 3.81 144.97 4.13 C 142.54 4.51 141.92 1.44 143.44 0.00 Z" />
<path fill="#00a8df" opacity="1.00" d=" M 47.38 5.50 C 44.50 5.15 45.12 0.24 48.04 0.66 C 56.68 0.51 65.32 0.64 73.96 0.60 C 75.62 0.39 77.70 1.05 77.76 3.05 C 77.74 4.62 76.43 5.74 74.89 5.61 C 71.31 5.76 67.72 5.58 64.13 5.64 C 64.14 15.79 64.11 25.93 64.15 36.07 C 64.06 37.38 64.28 39.22 62.79 39.84 C 60.96 41.00 58.66 39.04 59.12 37.03 C 59.04 26.57 59.12 16.10 59.09 5.64 C 55.19 5.54 51.27 5.87 47.38 5.50 Z" />
<path fill="#00a8df" opacity="1.00" d=" M 130.53 1.43 C 132.10 -1.12 136.17 1.90 133.93 4.04 C 132.33 6.00 129.06 3.48 130.53 1.43 Z" />
<path fill="#00a8df" opacity="1.00" d=" M 136.98 0.84 C 138.93 -1.46 142.20 2.03 140.04 3.96 C 138.11 5.68 135.09 2.75 136.98 0.84 Z" />
<path fill="#00a8df" opacity="1.00" d=" M 149.24 1.19 C 150.95 -0.84 154.07 1.68 152.79 3.88 C 151.08 6.03 147.24 3.52 149.24 1.19 Z" />
<path fill="#00a8df" opacity="1.00" d=" M 169.28 3.11 C 169.25 0.09 172.95 0.59 174.99 0.57 C 180.49 0.95 186.25 -0.27 191.55 1.61 C 198.94 4.48 201.02 14.66 197.02 21.01 C 195.52 23.48 192.85 24.76 190.31 25.89 C 192.78 28.12 194.60 30.90 196.49 33.61 C 197.74 35.47 200.98 34.58 201.68 37.01 C 201.99 39.51 199.19 40.66 197.18 39.84 C 192.28 38.81 191.06 33.28 187.64 30.35 C 185.77 28.33 183.13 27.47 180.79 26.19 C 179.01 25.20 179.89 21.94 181.95 22.00 C 185.77 21.51 190.64 21.69 193.00 18.00 C 195.07 13.96 193.92 7.47 189.06 6.05 C 184.19 5.15 179.19 5.86 174.27 5.64 C 174.19 16.44 174.45 27.26 174.16 38.05 C 174.06 40.93 169.22 40.70 169.32 37.87 C 169.15 26.29 169.22 14.69 169.28 3.11 Z" />
<path fill="#00a8df" opacity="1.00" d=" M 210.46 1.38 C 211.78 -0.30 214.83 0.90 214.70 3.00 C 214.79 14.65 214.85 26.32 214.67 37.97 C 214.67 40.78 209.88 40.84 209.84 38.03 C 209.53 27.37 209.85 16.70 209.69 6.04 C 209.92 4.52 209.25 2.57 210.46 1.38 Z" />
<path fill="#00a8df" opacity="1.00" d=" M 222.80 6.09 C 222.90 4.22 222.34 1.22 224.85 0.74 C 226.41 0.29 227.34 1.85 228.27 2.77 C 236.04 12.13 243.86 21.44 251.67 30.77 C 251.76 21.51 251.51 12.23 251.77 2.97 C 251.71 -0.03 256.81 0.15 256.65 3.12 C 256.77 14.71 256.77 26.31 256.65 37.90 C 256.70 40.39 253.09 41.16 251.95 39.01 C 243.87 29.45 235.92 19.77 227.88 10.18 C 227.79 19.44 228.01 28.70 227.79 37.95 C 227.93 40.82 223.07 41.01 222.95 38.18 C 222.63 27.49 222.96 16.79 222.80 6.09 Z" />
<path fill="#00a8df" opacity="1.00" d=" M 266.45 5.43 C 263.94 4.89 264.38 0.61 267.00 0.73 C 276.36 0.39 285.75 0.71 295.12 0.60 C 295.59 0.95 296.53 1.63 297.00 1.97 L 297.00 4.25 C 293.15 7.09 287.87 5.05 283.43 5.63 C 283.31 16.42 283.65 27.23 283.29 38.01 C 283.31 40.89 278.40 40.76 278.51 37.91 C 278.21 27.16 278.49 16.39 278.39 5.63 C 274.41 5.53 270.40 5.95 266.45 5.43 Z" />
<path fill="#00a8df" opacity="1.00" d=" M 154.35 4.21 C 155.96 2.05 159.56 4.67 157.81 6.81 C 156.24 9.11 152.57 6.43 154.35 4.21 Z" />
<path fill="#00a8df" opacity="1.00" d=" M 130.55 7.53 C 131.52 5.32 135.37 6.72 134.41 9.06 C 133.93 12.32 128.80 10.10 130.55 7.53 Z" />
<path fill="#00a8df" opacity="1.00" d=" M 158.20 9.06 C 160.62 7.79 162.52 12.03 159.93 12.89 C 157.54 14.40 155.50 9.89 158.20 9.06 Z" />
<path fill="#00a8df" opacity="1.00" d=" M 131.22 13.18 C 132.45 12.10 134.79 13.37 134.51 15.03 C 134.57 16.58 132.35 17.80 131.21 16.69 C 129.90 15.96 129.95 13.92 131.22 13.18 Z" />
<path fill="#00a8df" opacity="1.00" d=" M 157.28 15.34 C 159.21 13.81 162.09 16.57 160.33 18.45 C 158.36 20.68 155.00 17.31 157.28 15.34 Z" />
<path fill="#00a8df" opacity="1.00" d=" M 130.68 19.61 C 132.04 17.42 135.64 19.69 134.28 21.92 C 132.90 24.57 128.78 21.93 130.68 19.61 Z" />
<path fill="#00a8df" opacity="1.00" d=" M 154.48 21.49 C 155.66 19.34 159.02 20.56 158.53 23.00 C 157.81 26.08 152.92 24.18 154.48 21.49 Z" />
<path fill="#00a8df" opacity="1.00" d=" M 150.11 24.20 C 152.22 22.44 154.91 25.99 152.77 27.65 C 150.59 29.39 147.88 25.77 150.11 24.20 Z" />
<path fill="#00a8df" opacity="1.00" d=" M 131.16 25.31 C 133.65 23.08 136.20 28.33 132.98 28.95 C 130.88 30.07 129.10 26.41 131.16 25.31 Z" />
<path fill="#00a8df" opacity="1.00" d=" M 137.22 25.22 C 139.41 23.39 142.15 27.24 139.78 28.73 C 137.61 30.35 135.03 26.78 137.22 25.22 Z" />
<path fill="#00a8df" opacity="1.00" d=" M 144.16 25.11 C 146.63 23.58 148.64 27.98 145.99 28.91 C 143.67 30.24 141.66 26.10 144.16 25.11 Z" />
<path fill="#00a8df" opacity="1.00" d=" M 131.30 31.33 C 133.23 29.71 135.83 33.01 133.83 34.64 C 131.62 36.81 128.59 32.75 131.30 31.33 Z" />
<path fill="#00a8df" opacity="1.00" d=" M 131.39 41.00 C 129.93 39.70 129.85 37.36 132.00 36.74 C 134.55 36.34 135.17 39.62 133.44 41.00 L 131.39 41.00 Z" />
</svg>
