<?xml version="1.0" encoding="UTF-8" standalone="no"?>
<!DOCTYPE svg PUBLIC "-//W3C//DTD SVG 1.1//EN" "http://www.w3.org/Graphics/SVG/1.1/DTD/svg11.dtd">
<svg width="100%" height="100%" viewBox="0 0 500 500" version="1.1" xmlns="http://www.w3.org/2000/svg" xmlns:xlink="http://www.w3.org/1999/xlink" xml:space="preserve" xmlns:serif="http://www.serif.com/" style="fill-rule:evenodd;clip-rule:evenodd;stroke-linejoin:round;stroke-miterlimit:2;">
    <g transform="matrix(0.682507,0,0,0.682507,-595.083,-416.412)">
        <g transform="matrix(0.616415,0,0,0.616415,-3206.29,-3819.17)">
            <circle cx="7210.23" cy="7779.81" r="489.5" style="fill:white;"/>
        </g>
        <g transform="matrix(0.616415,0,0,0.616415,-3206.29,-3819.17)">
            <path d="M7210.23,7236.23C7510.23,7236.23 7753.8,7479.8 7753.8,7779.81C7753.8,8079.82 7510.23,8323.38 7210.23,8323.38C6910.22,8323.38 6666.65,8079.82 6666.65,7779.81C6666.65,7479.8 6910.22,7236.23 7210.23,7236.23ZM7210.23,7290.31C6940.06,7290.31 6720.73,7509.65 6720.73,7779.81C6720.73,8049.97 6940.06,8269.31 7210.23,8269.31C7480.39,8269.31 7699.73,8049.97 7699.73,7779.81C7699.73,7509.65 7480.39,7290.31 7210.23,7290.31Z" style="fill:rgb(161,186,17);"/>
        </g>
        <g transform="matrix(0.94622,0,0,0.94622,96.5309,56.1625)">
            <g transform="matrix(2.42117,0,0,2.42117,405.129,340.309)">
                <path d="M334.991,215.681L386.685,215.681C388.121,215.681 389.507,215.204 390.636,214.316C397.762,208.711 423.502,187.544 411.619,183.131C411.619,183.131 403.583,178.539 388.267,188.254C387.8,188.551 387.296,188.794 386.767,188.959C384.111,189.786 376.636,191.106 375.969,180.068C375.929,179.406 375.819,178.752 375.611,178.123C374.141,173.66 367.17,157.37 345.735,165.876C345.735,165.876 335.931,169.797 345.343,188.229C345.343,188.229 349.956,198.224 332.921,192.333C332.635,192.234 332.348,192.114 332.08,191.974C330.388,191.09 322.378,187.481 316.786,195.021C316.4,195.542 316.113,196.132 315.915,196.751C314.792,200.273 312.99,211.503 333.735,215.561C334.146,215.642 334.573,215.681 334.991,215.681Z" style="fill:rgb(161,186,17);fill-rule:nonzero;"/>
            </g>
            <g transform="matrix(2.42117,0,0,2.42117,405.129,340.309)">
                <path d="M386.032,225.367C386.032,225.367 450.497,277.06 402.452,328.753C402.452,328.753 390.289,346.39 362.922,346.39C362.922,346.39 347.962,346.542 333.188,342.279C333.824,340.239 334.166,338.071 334.166,335.825L334.166,258.247C334.166,249.355 328.791,241.702 321.123,238.343C324.023,233.909 327.387,229.552 331.298,225.367L386.032,225.367ZM383.891,294.975L388.394,294.975L388.394,273.968L383.891,273.968L383.891,282.219L373.97,282.219L373.97,273.968L369.498,273.968L369.498,294.975L373.97,294.975L373.97,286.156L383.891,286.156L383.891,294.975ZM346.856,284.487C346.856,290.944 351.738,295.353 358.037,295.353C362.666,295.353 365.312,292.801 366.824,290.188L362.981,288.329C362.099,290.061 360.21,291.384 358.037,291.384C354.226,291.384 351.454,288.455 351.454,284.487C351.454,280.519 354.226,277.59 358.037,277.59C360.21,277.59 362.099,278.944 362.981,280.645L366.824,278.755C365.343,276.141 362.666,273.621 358.037,273.621C351.738,273.621 346.856,278.031 346.856,284.487ZM392.518,294.975L396.989,294.975L396.989,286.282L407.162,286.282L407.162,282.345L396.989,282.345L396.989,277.905L407.382,277.905L407.382,273.968L392.518,273.968L392.518,294.975Z" style="fill:rgb(161,186,17);"/>
            </g>
            <g transform="matrix(2.42117,0,0,2.42117,405.129,340.309)">
                <path d="M324.95,335.825C324.95,342.736 319.348,348.338 312.437,348.338L262.387,348.338C255.476,348.338 249.874,342.736 249.874,335.825L249.874,258.247C249.874,251.336 255.476,245.734 262.387,245.734L312.437,245.734C319.348,245.734 324.95,251.336 324.95,258.247L324.95,335.825ZM292.989,308.231C292.989,304.658 290.092,301.761 286.518,301.761C282.945,301.761 280.048,304.658 280.048,308.231C280.048,311.805 282.945,314.702 286.518,314.702C290.092,314.702 292.989,311.805 292.989,308.231ZM269.459,308.231C269.459,304.658 266.562,301.761 262.988,301.761C259.414,301.761 256.517,304.658 256.517,308.231C256.517,311.805 259.414,314.702 262.988,314.702C266.562,314.702 269.459,311.805 269.459,308.231ZM269.459,329.212C269.459,325.639 266.562,322.742 262.988,322.742C259.414,322.742 256.517,325.639 256.517,329.212C256.517,332.786 259.414,335.683 262.988,335.683C266.562,335.683 269.459,332.786 269.459,329.212ZM310.817,335.291C313.953,335.291 316.519,332.725 316.519,329.589L316.519,308.639C316.519,305.503 313.953,302.937 310.817,302.937L309.083,302.937C305.947,302.937 303.381,305.503 303.381,308.639L303.381,329.589C303.381,332.725 305.947,335.291 309.083,335.291L310.817,335.291ZM292.989,287.251C292.989,283.677 290.092,280.78 286.518,280.78C282.945,280.78 280.048,283.677 280.048,287.251C280.048,290.824 282.945,293.721 286.518,293.721C290.092,293.721 292.989,290.824 292.989,287.251ZM292.989,329.212C292.989,325.639 290.092,322.742 286.518,322.742C282.945,322.742 280.048,325.639 280.048,329.212C280.048,332.786 282.945,335.683 286.518,335.683C290.092,335.683 292.989,332.786 292.989,329.212ZM316.519,287.251C316.519,283.677 313.622,280.78 310.048,280.78C306.474,280.78 303.577,283.677 303.577,287.251C303.577,290.824 306.474,293.721 310.048,293.721C313.622,293.721 316.519,290.824 316.519,287.251ZM317.602,273.746L317.602,256.979L255.867,256.979L255.867,273.746L317.602,273.746ZM269.459,287.251C269.459,283.677 266.562,280.78 262.988,280.78C259.414,280.78 256.517,283.677 256.517,287.251C256.517,290.824 259.414,293.721 262.988,293.721C266.562,293.721 269.459,290.824 269.459,287.251Z" style="fill:rgb(161,186,17);"/>
            </g>
        </g>
    </g>
</svg>
