<?xml version="1.0" encoding="utf-8"?>
<!-- Generator: Adobe Illustrator 25.2.0, SVG Export Plug-In . SVG Version: 6.00 Build 0)  -->
<svg version="1.1" id="Ebene_1" xmlns="http://www.w3.org/2000/svg" xmlns:xlink="http://www.w3.org/1999/xlink" x="0px" y="0px"
	 width="713.8200073px" height="152.1527405px" viewBox="0 0 713.8200073 152.1527405"
	 style="enable-background:new 0 0 713.8200073 152.1527405;" xml:space="preserve">
<path d="M0,0c7.6100006,0.0400004,15.2200012,0.0099998,22.8300018,0.02c-0.0100021,33.6899986,0,67.3700027,0,101.0599976
	c-7.5700016,0.0200043-15.1400013-0.0199966-22.710001,0.0200043c3.039999-5.1800003,4.2399998-11.1900024,4.2399998-17.1500015
	c0.0599995-21.6399956,0-43.2699966,0.0300007-64.8999939C4.5,12.460001,3.3500004,5.7499995,0,0z"/>
<path d="M320.0100098,0c7.3099976,0.0400004,14.6300049,0.0099998,21.9400024,0.02
	c0.0100098,28.0099983-0.0100098,56.0199966,0.0100098,84.0400009c-0.0200195,5.8899994,0.8800049,11.9300003,3.9899902,17.0400009
	c-8.4899902-0.0299988-16.980011-0.0200043-25.4700012,0c1.7099915-4.1300049,2.4500122-8.5800018,2.3999939-13.0299988
	c0.0200195-24.7000008,0.0100098-49.4099998,0-74.1100006C322.9700012,9.1599998,322.0800171,4.3499999,320.0100098,0z"/>
<path d="M471.5200195,0c7.8999939,0.0300002,15.789978,0.0400004,23.6900024,0c-1.3699951,3.48-2.25,7.1600003-2.1700134,10.9200001
	C492.9700012,28.9500008,493.0500183,46.9799995,493,65.0099945c-0.3799744,9.3100052,0.8600159,19.4400024,7.2000122,26.75
	c5.3499756,6.4599991,13.9199829,9.0500031,22.0599976,9.2200012c-12.1900024,2.8899994-26.0599976,1.8600006-36.3800049-5.7999954
	C478,89.4199982,473.8000183,79.6499939,473.6900024,70.0299988c-0.1300049-16.6599998-0.0099792-33.3199997-0.0499878-49.9699974
	C473.5500183,13.3400002,474.3000183,6.3300004,471.5200195,0z"/>
<path d="M541.9700317,0c4.2999878,0.0300002,8.6099854,0.0300002,12.9199829,0
	c-2.9099731,3.2999997-5.1199951,7.1200004-6.6699829,11.2299995C546.7399902,7.1799998,544.710022,3.3399997,541.9700317,0z"/>
<path d="M624.8699951,0c7.1100464,0.0499997,14.2200317,0.0099998,21.3300171,0.02
	c0.0100098,29.0099983-0.0200195,58.0100021,0.0100098,87.0100021c-0.0499878,4.7799988,0.5,9.6100006,2.2999878,14.0699997
	c-7.8800049-0.0299988-15.75-0.0200043-23.6199951,0c1.7700195-4.4900055,2.2600098-9.3199997,2.2399902-14.1100006
	c0-25.3099937,0.0100098-50.6299973,0-75.9399948C627.210022,7.23,626.3500366,3.4999995,624.8699951,0z"/>
<path d="M678.6099854,1.2800002c8.8900146,1.5299997,19.0599976,3.6199999,24.5,11.5799999
	c4.4800415,7.3400002,4.4100342,17.2299995,0.5400391,24.8100014c-4.8699951,8.6699982-15.4899902,11.0900002-24.6199951,12.0599976
	c4.0799561-7.5299988,4.2999878-16.2999992,4.3299561-24.6599998
	C683.2700195,16.960001,682.7600098,8.4700012,678.6099854,1.2800002z"/>
<path d="M373.4900208,1.3399997c9.0599976,1.6700001,19.3899841,4.1400003,24.6799927,12.460001
	c4.5100098,7.75,4.5599976,17.9999981,0.5700073,25.9699993c-4.960022,8.9799995-15.730011,11.7900009-25.1000061,13.4300003
	c4.6399841-7.8499985,4.9299927-17.2400017,5-26.1100006C378.5400085,18.3299999,378.1700134,9.0500011,373.4900208,1.3399997z"/>
<path d="M58.3600044,2.5599999C68.1699982,5.1399999,77.9400024,9.5,84.6699982,17.3500004
	C92.9900055,26.7400017,95.75,39.7299995,95.5399933,51.9799995c-0.0799866,11.6200027-2.9499969,23.8699989-11.019989,32.6299934
	c-6.7200012,7.5200043-16.3300018,11.590004-25.9300041,14c6.1999931-7.0699997,8.9000053-16.3799973,10.260006-25.5
	c1.7999878-12.2999916,1.75-24.8099937,0.8899994-37.1799927C68.6999969,24.170002,66.3800049,11.710001,58.3600044,2.5599999z"/>
<path d="M207.6199951,4.2199998c12.5,29.210001,24.9499969,58.4399986,37.4199982,87.659996
	c1.3500061,3.25,3.1300049,6.2900009,5.0700073,9.2200012c-9.0500183-0.0299988-18.1000061-0.0200043-27.1500092-0.0100021
	c1.9000092-7.8000031-1.9700012-15.159996-5.0399933-22.0699997c-6.7100067-16.0899925-13.8000031-32.029995-20.3000031-48.1799965
	C200.2799988,21.7900009,204.3999939,13.1200008,207.6199951,4.2199998z"/>
<path d="M186.7399902,67.8299942c1.6700134-5.0399971,3.3500061-11.2199974,9.1200104-12.9599953
	c-0.5299988,2.7399979-1.4900055,5.6600037-4.2100067,6.9300003c-3.9299927,1.9100037-4.1299896,6.8800011-6.1399994,10.2499962
	c1.9199982-2.0800018,4.2400055-3.7399979,7.0700073-4.25c-1.1000061,3.0400009-3.75,5.090004-7.0599976,4.8499985
	c-1.0600128,3.1399994-1.8700104,6.3600006-2.6100006,9.6000061c7.7799988-5.9200058,19.219986-8.4100037,28.1299896-3.6000061
	c-1.9599915,0.6600037-3.9599915,1.1900024-5.9700012,1.6700058c-4.5099945,0.9199982-7.5699921,5.0899963-12.1799927,5.7299957
	c-3.4199982,0.7399979-6.8800049-0.0999985-10.2200012-0.8300018c-1.7900085,5.2100067-4.7599945,10.2200012-4.7299957,15.8700027
	c-2.9300079-0.0100021-5.8700104-0.0100021-8.8000031,0c3.7700043-7.1299973,8.0999908-14.0100021,11.2599945-21.4400024
	c-0.3499908-2.2999954-2.9199982-4.0699997-2.6900024-6.6100006c0.2799988-3.1699982,0.4700012-6.359993-0.0999908-9.5199928
	c3.7399902,3.079998,5.019989,7.9499931,4.8699951,12.6199989c1.3000031-2.6700058,2.6199951-5.3199997,3.8300018-8.0300064
	c-1.75-1.7199936-2.1300049-4.0399933-1.2899933-6.2999916C185.9400024,63.7100029,186.5099945,65.7199936,186.7399902,67.8299942z"
	/>
<path d="M675.0100098,57.7100029c6.6199951-0.8700027,14.0499878,0.2599945,18.8699951,5.2699966
	c6.5900269,6.8099937,9.2999878,16.2000008,11.8900146,25.0699959c1.3800049,5.0200043,4.3699951,9.4300003,8.0499878,13.0599976
	c-6.710022-0.2599945-13.5200195,0.5400009-20.1400146-0.8099976c-3.6199951-0.6699982-5.6399536-4.0800018-6.7399902-7.2799988
	c-3.0499878-8.8099976-4.4599609-18.0599976-6.8900146-27.0400009
	C679.2300415,62.7700005,676.9800415,60.2599983,675.0100098,57.7100029z"/>
<path d="M2.9596267,130.8784485c0.792901-0.0111694,2.3898668-0.0111694,3.1827679-0.0223236
	c0,6.9239044,0.011168,13.8366547,0,20.7605743c-0.792901-0.0111694-2.3898668-0.0223389-3.1827679-0.0223389
	C2.9484589,144.6927795,2.9484589,137.7800293,2.9596267,130.8784485z"/>
<path d="M16.6734467,130.8672791c0.7705631,0,2.3116932,0,3.0822582,0c2.992918,4.5340576,5.9299965,9.1016083,8.8670769,13.6803284
	c0.0335026-4.5340576,0.0335026-9.0569305,0.0335026-13.5909882c0.8264046-0.033493,2.479208-0.1004944,3.3056126-0.1340027
	c0,7.0690918,0.1005077,14.149353-0.0670071,21.2296143c-3.3502808-0.2456818-4.6345577-3.4507904-6.2650261-5.8518219
	c-1.8538227-2.9482574-3.7411461-5.8853302-5.6173038-8.822403c-0.044672,4.7350616-0.044672,9.4589539-0.044672,14.1940155
	c-0.8152351,0.0111694-2.4680386,0.0335083-3.2944412,0.0446777
	C16.6622791,144.703949,16.6622791,137.7800293,16.6734467,130.8672791z"/>
<path d="M42.0239067,130.8896179c3.5066299,0.0670013,7.1584358-0.446701,10.5310516,0.7370605
	c7.649807,3.2274475,7.549305,16.1818695-0.1786804,19.2417908c-3.3167801,1.1390839-6.9015808,0.6365509-10.3412018,0.7258911
	C42.0239067,144.6927795,42.0239067,137.7911987,42.0239067,130.8896179 M45.5752068,133.7038574
	c-0.1786804,4.9584198-0.1563454,9.9279938-0.1340103,14.897583c2.6355553-0.3126984,5.985836,0.2121887,7.7503166-2.2781982
	c2.1330109-3.0487518,2.0995102-7.6944733-0.3461952-10.5645447
	C51.0473328,133.692688,48.0209122,134.1617279,45.5752068,133.7038574z"/>
<path d="M71.6850662,131.414505c2.6467209-1.4741364,6.0305023-1.2954559,8.55439,0.3461914
	c7.4264526,5.0254211,5.2711105,20.0458527-4.6345596,20.3920441
	C65.4312057,151.7730408,63.4545441,135.9038696,71.6850662,131.414505 M73.6282349,133.9718781
	c-5.0365906,2.9705811-4.8467484,12.7199097,0.9045715,14.8082428c4.5452118,1.0720978,7.0914307-4.2101898,6.5553894-8.0183411
	C81.4902267,136.8531189,77.8607559,131.9393768,73.6282349,133.9718781z"/>
<path d="M94.1096191,130.7556152c0.8375702,0.0781708,2.5015411,0.2233429,3.3279495,0.3015137
	c2.8142319,4.5787201,5.7848206,9.0569305,8.7107239,13.5686493c0.0111694-4.5787201,0.0111694-9.1686096,0.0111694-13.7473297
	c0.8264008,0,2.4792099-0.0111694,3.3056107-0.0111694c-0.0223312,7.0579376,0.0558395,14.1046906-0.0446701,21.1626129
	c-1.7979889-0.3238525-3.4842911-1.02742-4.3218613-2.7583923c-2.6355515-3.8974915-5.0589294-7.9513397-7.6833191-11.87117
	c-0.0335007,4.7350616-0.0335007,9.4701385-0.0223312,14.2052002c-0.8263931-0.0111694-2.4792099-0.0111694-3.305603-0.0111694
	C94.0984497,144.6481018,94.0761108,137.7018585,94.1096191,130.7556152z"/>
<path d="M119.6387634,130.8784485c4.2883606-0.0111694,8.5767212-0.0111694,12.8762512,0c0,0.7593994,0,2.2781982,0,3.0375977
	c-3.1939392,0.0223236-6.3990402,0.0111694-9.5929718,0.0223236c0.0111618,1.9320068,0.0111618,3.8639984,0.0335007,5.79599
	c2.8700714,0.0781708,5.7513046,0.0111694,8.6213913,0.1116791c-0.0446777,0.7370605-0.1340027,2.188858-0.1786804,2.9259186
	c-2.8254089,0.0446625-5.6508102,0.0223236-8.4762115,0.0558319c0,1.8761597,0,3.7411499,0,5.6173096
	c3.1939316,0.0111542,6.3878632,0,9.5818024,0.0111542c0.0111694,0.7817383,0.0446625,2.356369,0.0558472,3.1381073
	c-4.2995453,0.0111694-8.6102371,0-12.920929,0C119.6387634,144.6927795,119.6387634,137.7800293,119.6387634,130.8784485z"/>
<path d="M142.9902344,140.4155884c-3.071106-2.6020508-1.8538361-8.2305298,1.9543304-9.4701233
	c3.1827545-1.4406281,6.4325256,0.2121735,9.2914276,1.5969543c-0.4020233,0.6588898-1.1949158,1.9654999-1.5858002,2.6243896
	c-3.0152435-1.529953-7.0467529-2.6467133-8.8112335,1.2284393c2.5462189,2.0436707,5.5056305,3.439621,8.3310394,5.04776
	c3.138092,1.8649902,3.0152435,6.9239197,0.2233429,9.0569305c-3.4284515,2.8477325-8.7553864,1.6192932-11.6478119-1.4071198
	c0.3127136-0.6365662,0.9380951-1.909668,1.2396088-2.5462189c2.3005371,0.9715881,4.6233826,3.0040894,7.2924347,2.1665192
	c1.4852905-0.6923981,2.0995178-1.8761597,1.8315125-3.5401306
	C148.7191925,143.0734711,145.5252838,142.291748,142.9902344,140.4155884z"/>
<path d="M163.6502991,130.8784485c0.8375702-0.0111694,2.5127106-0.0111694,3.3502808-0.0111694
	c0,6.9127502,0,13.8255005-0.0111847,20.7382507c-0.8263855,0-2.5015259,0-3.3279419,0
	C163.6502991,144.6927795,163.6502991,137.7800293,163.6502991,130.8784485z"/>
<path d="M183.5621338,130.8672791c1.1055908,0.0111694,2.2223511,0.0223389,3.3391113,0.0335083
	c2.4457092,6.9239197,5.0142517,13.8031616,7.4934692,20.7159119c-0.8934174-0.0111694-2.6690674-0.0335083-3.5624695-0.0446777
	c-0.5695496-1.5969696-1.1390991-3.1827698-1.7086487-4.7685699c-2.6467133,0-5.3046112,0-7.9513245,0
	c-0.5695648,1.5746307-1.1167603,3.1604309-1.6528168,4.7462311c-1.1614227,0.0111694-2.3340302,0.0223389-3.4954529,0.0335083
	C178.5255432,144.6816101,181.0494232,137.7800293,183.5621338,130.8672791 M182.2108459,143.7770386
	c1.9543304,0.0223389,3.9198303,0.033493,5.8853302,0.0446625c-0.9939117-2.7695618-1.9654999-5.5391235-2.9594269-8.3086853
	C184.1651764,138.2714081,183.1936035,141.0298004,182.2108459,143.7770386z"/>
<path d="M202.681076,130.833786c0.7929077,0.0223389,2.3898621,0.0893402,3.1827698,0.1116791
	c2.9370728,4.5787048,5.9076538,9.1239319,8.855896,13.6914825c0.0335083-4.5898895,0.0335083-9.1909485,0.0335083-13.7808228
	c0.8264008,0.0111542,2.4680481,0.0223236,3.2944336,0.033493c-0.0111542,6.9127502,0,13.8366699-0.0111542,20.7605743
	c-0.9827576-0.0558319-1.9654999-0.1005096-2.9482422-0.1563416c-2.9929352-4.7238922-6.0640259-9.4031219-9.101593-14.1046906
	c-0.0223389,4.7350769-0.0335236,9.4701385-0.0111847,14.2052002c-0.8263855,0-2.4680328,0.0111694-3.2944336,0.0223389
	C202.6699066,144.6927795,202.6699066,137.7576904,202.681076,130.833786z"/>
<path d="M240.8296204,130.8896179c3.4842834,0.0781708,7.1360931-0.4802094,10.4975281,0.7035675
	c4.467041,1.9319916,4.8914185,8.9452515,1.0386047,11.6924744c-2.3005371,1.7086487-5.3157959,1.3959503-7.9960175,1.6974792
	c-0.0893402,2.2223511-0.167511,4.4447021-0.2456818,6.6670532c-0.8152313-0.033493-2.4680481-0.0893402-3.2944336-0.1116638
	C240.8184357,144.6481018,240.8296204,137.7688599,240.8296204,130.8896179 M244.3139038,133.7038574
	c0.0446777,2.7360687,0.0446777,5.4721222,0.0446777,8.2193604c2.9035645-0.1116791,7.7167969-0.2903595,7.1025848-4.4893799
	C251.5058441,133.6033478,246.9382935,134.0835571,244.3139038,133.7038574z"/>
<path d="M263.656189,130.8784485c0.8375854,0,2.5350342-0.0111694,3.3726196-0.0223236
	c0.0111694,5.8629913,0.0111694,11.7259827,0,17.588974c3.0264282,0.0111542,6.0528564-0.0111694,9.0792542,0.0223389
	c-0.1340027,0.7482147-0.4020081,2.2223511-0.5360413,2.9594116c-3.9644775,0.3908691-7.9513245,0.1340027-11.9158325,0.1563416
	C263.656189,144.6816101,263.656189,137.7800293,263.656189,130.8784485z"/>
<path d="M283.4116821,151.6055298c2.4792175-6.9350891,5.0365906-13.8366699,7.538147-20.7605743
	c0.8263855,0.0111694,2.4792175,0.0446625,3.305603,0.0558319c2.5015259,6.9015808,4.9919128,13.8031616,7.5381165,20.693573
	c-1.2060852-0.0111694-2.4122009-0.0111694-3.6071472-0.0111694c-0.5583801-1.5969696-1.1055603-3.1827698-1.652771-4.7685699
	c-2.6690674-0.0111694-5.3269653-0.0111694-7.9848328-0.0111694c-0.580719,1.5858002-1.1502991,3.1827698-1.6974792,4.7797394
	C285.7010498,151.5831909,284.5507812,151.5943604,283.4116821,151.6055298 M289.6097107,143.7993774
	c1.9543152,0.0111542,3.9086609,0.0111542,5.8629761,0.0111542c-0.9938965-2.7583923-1.9766541-5.5167847-2.98172-8.2751923
	C291.5417175,138.2937469,290.5701294,141.0409698,289.6097107,143.7993774z"/>
<path d="M310.0352478,130.8561249c0.7929077,0.0111542,2.3787231,0.0446625,3.1716003,0.0558319
	c2.9705811,4.5675507,5.9299927,9.1351013,8.8782654,13.7138214c0.0335083-4.5898895,0.0335083-9.1686096,0.0335083-13.7584991
	c0.8263855,0,2.4792175,0,3.305603,0c-0.0111694,6.9127502,0,13.8143311-0.0111694,20.7270813
	c-0.6924133,0.0111694-2.06604,0.033493-2.7584229,0.0446777c-3.1604004-4.712738-6.2091675-9.5036469-9.3025818-14.2722015
	c-0.0335083,4.7462311-0.0223694,9.5036316-0.0223694,14.2498627c-0.8263855-0.0111694-2.4680176-0.0223389-3.2944336-0.0223389
	C310.0240784,144.6816101,310.0240784,137.7688599,310.0352478,130.8561249z"/>
<path d="M334.3136292,130.8672791c4.712738,0,9.4254456,0,14.149353,0c0,0.7929077,0,2.356369,0,3.1381073
	c-1.7980042,0.0111694-3.5848083,0.0111694-5.382782,0.0223236c-0.0111694,5.8630066-0.0111694,11.7148285,0,17.5666504
	c-1.1390686,0-2.2670288,0-3.3837891,0.0111694c0-5.8629913,0-11.7148132-0.0111694-17.5778198
	c-1.7979736-0.0111542-3.5848083-0.0111542-5.382782-0.0223236
	C334.3136292,133.2236481,334.3136292,131.6601868,334.3136292,130.8672791z"/>
<path d="M357.5422668,130.8672791c3.8974915,0.2121887,8.2081604-0.7705536,11.7929688,1.1502686
	c3.2274475,2.1330109,2.155365,6.5553894,0,9.0569305c2.4122314,1.6863098,4.2436829,4.8244019,2.3786926,7.6274719
	c-3.2832642,4.3665314-9.4924622,2.5127106-14.1716614,2.8924103
	C357.5534058,144.6927795,357.5534058,137.7800293,357.5422668,130.8672791 M360.8590393,133.7485199
	c-0.0111694,2.1218567-0.0223694,4.2325287-0.0111694,6.3543701c2.3563538-0.4355316,6.7787476,0.5918884,7.1584473-2.8253937
	C368.519989,133.2571564,363.3717651,134.0723877,360.8590393,133.7485199 M360.8478699,142.6714478
	c-0.0112,1.9654999-0.0112,3.9421539,0.0111694,5.9076538c2.5797119-0.5137024,7.1472778,0.9715881,8.1411743-2.4010315
	C369.4133911,141.8115387,363.550415,143.0958099,360.8478699,142.6714478z"/>
<path d="M386.723175,132.1738892c0.3461914-1.6751404,2.4569092-1.0944214,3.651825-1.5746307
	c2.4680481,7.1137695,5.2041321,14.149353,7.6274719,21.2854614c-3.6517944,0.7370605-4.4558716-2.5015411-5.5279541-5.1259308
	c-2.5908813,0.0558319-5.1817627,0.0111694-7.7726746,0.0781708c-0.5471802,1.5858002-1.0943909,3.1604309-1.6304626,4.7350616
	c-1.161438,0.0111694-2.3228455,0.0335083-3.473114,0.0558319
	C382.021637,145.1618195,384.1658325,138.5841064,386.723175,132.1738892 M385.8186035,143.7993774
	c1.9432068,0,3.8863525,0.0111542,5.8406677,0c-0.9827576-2.7584076-1.9654846-5.5279694-2.9594116-8.2863617
	C387.7394409,138.2714081,386.7790527,141.0409698,385.8186035,143.7993774z"/>
<path d="M408.8015747,131.1018066c3.2944031-1.7086487,6.8233643,0.0670013,9.849823,1.4741211
	c-0.4913635,0.6477203-1.485321,1.9319916-1.987854,2.5797119c-2.4568787-0.9269104-5.9076538-2.9929199-7.7949829,0.0111694
	c-0.2791748,3.8304901,4.6122437,4.02034,6.9797668,5.9300079c4.0873413,1.8203125,3.6852722,8.2975159-0.2121887,10.1066742
	c-3.5959778,2.188858-7.538147-0.0446625-10.8549194-1.5969696c0.5025635-1.0050812,1.0050659-2.0101624,1.5299683-3.0152435
	c1.7644958,0.8598938,3.4842834,1.9543304,5.460968,2.3116913c1.9208069,0.3238525,3.0487366-1.6304779,4.4335327-2.5573883
	c-2.2335205-2.8700714-5.8183594-3.8304901-8.7330627-5.7513123
	C404.2898254,138.2378998,405.1609192,132.5759277,408.8015747,131.1018066z"/>
<path d="M428.2108765,130.8896179c4.1654968,0.0223389,8.3533325-0.2233429,12.5300293,0.1005096
	c0.245697,0.9604187,0.4020386,1.9543304,0.5918884,2.9259186c-3.2832642,0.0223236-6.5554199,0.0111694-9.8275146,0.0111694
	c-0.0111389,1.9543304,0,3.8974915,0.0112,5.8406525c2.814209,0,5.6396179,0,8.4650269,0
	c-0.0111694,1.0162506-0.0111694,2.0325012,0,3.0375824c-2.8254089,0.0111694-5.6508179,0-8.4762268,0
	c-0.0111389,1.8873291-0.0223083,3.7634888-0.0223083,5.6396484c3.2162781,0.0111542,6.4436951,0,9.6599731,0.0111542
	c0.0223083,0.7817383,0.0446777,2.3451996,0.0669861,3.1269379c-4.3330383,0.0223389-8.6660767,0.0111694-12.999054,0.0223389
	C428.1996765,144.6927795,428.1996765,137.7911987,428.2108765,130.8896179z"/>
<path d="M450.0770264,130.8449554c3.3167725,0.0781708,6.7452393-0.3126984,9.9838257,0.6253815
	c7.9178467,2.7695618,8.1747131,15.8244934,0.6477051,19.2306213c-3.3614197,1.3736115-7.1025696,0.7928925-10.6315308,0.9268951
	C450.0658264,144.703949,450.0658264,137.7688599,450.0770264,130.8449554 M453.4719849,133.7261963
	c-0.0223694,4.969574-0.0335083,9.9391632,0.0111389,14.9087524c2.5797424-0.3238678,5.7736816,0.1228333,7.5716248-2.2111969
	c2.1777039-2.9035645,2.1777039-7.3706055,0.0446777-10.296524
	C459.3684692,133.6703491,456.0740051,134.1505585,453.4719849,133.7261963z"/>
<path d="M488.3930664,130.8561249c4.4112244,0.4020233,10.1960449-1.3736267,13.4234619,2.5797119
	c2.557373,3.6518097,0.6700439,8.3980408-2.8142395,10.6538849c1.49646,2.5015564,3.0152588,5.0030975,4.5229187,7.5046387
	c-1.3066406-0.0111694-2.6132507-0.0111694-3.9086609-0.0111694c-1.407135-2.3786926-2.8477783-4.7350616-4.2437134-7.1026001
	c-0.8934021-0.0223236-2.6914062-0.0670013-3.5848083-0.0893402c0,2.4122009-0.0111694,4.8132477-0.0111694,7.2142792
	c-1.1390991-0.0111694-2.2670288-0.0223389-3.3837891-0.0335083
	C488.4042358,144.6704407,488.3930664,137.7576904,488.3930664,130.8561249 M491.7991943,133.7596893
	c-0.0111694,2.5685577-0.0223389,5.1482697-0.0111694,7.7279816c2.4568481-0.4131927,5.6173096,0.3908691,7.3817749-1.8426514
	c0.5472412-1.4406128,0.5137329-2.8700714-0.089325-4.2883606
	C497.1819763,133.4581757,494.2002258,134.139389,491.7991943,133.7596893z"/>
<path d="M512.4592896,130.8784485c4.2883301-0.0111694,8.5767212-0.0111694,12.8762207,0.0111694
	c-0.0111694,0.7593994-0.0335083,2.2781982-0.0335083,3.0375977c-3.1827393,0.0111542-6.3543701-0.0111694-9.5371094,0.0111542
	c0,1.9431763,0.0111084,3.8751678,0.0446777,5.8183289c2.7918701,0.0223389,5.5949097,0,8.3980103,0.0223389
	c0,0.7593994,0,2.2670135,0,3.0152435c-2.814209,0.0223389-5.628479,0-8.4315796,0.0223389
	c-0.0222778,1.8761597-0.0111084,3.7523193-0.0111084,5.628479c3.2050781,0.0111542,6.3989868,0,9.6152954,0.0111542
	c0,0.7817383,0.0223389,2.356369,0.0335083,3.1381073c-4.3218994,0-8.6325684,0-12.9544067,0.0111694
	C512.4481201,144.6927795,512.4592896,137.7800293,512.4592896,130.8784485z"/>
<path d="M537.2178345,131.1576385c3.2385864-1.7309723,6.7787476,0,9.8721924,1.1837769
	c-0.5137329,0.8598938-1.0609131,1.697464-1.6304932,2.5127106c-2.6914062-0.1228485-6.0528564-2.7919006-8.02948,0.2680206
	c-0.0670166,4.9919128,7.3817139,4.1431732,9.2467651,8.1970215c1.6639404,3.0822601-0.0893555,7.2142639-3.3837891,8.2751923
	c-3.4284668,1.5746307-6.8904419-0.6253815-9.9503784-1.9990082c0.4690552-1.0050812,0.9492798-1.9989929,1.4295044-2.9929199
	c3.1157227,1.9320068,7.4822998,3.685318,9.9168091-0.2680206c-2.2111816-2.8700714-5.78479-3.8304749-8.699585-5.7401428
	C532.8848267,138.2378998,533.6777344,132.7099457,537.2178345,131.1576385z"/>
<path d="M554.5834351,130.9119568c4.7462769-0.0558319,9.4924927-0.0446777,14.2498779-0.0335083
	c0,0.7817383,0,2.3451996,0,3.1381073c-1.8203125,0-3.6294556,0-5.4274292,0.0111542
	c-0.0111694,5.8630066-0.0111694,11.7148285-0.0111694,17.5778198c-0.8375854,0-2.5239258,0-3.3614502,0
	c-0.0111694-5.8518219,0-11.7036591-0.0223999-17.555481c-1.8091431-0.0223389-3.6293945-0.0558319-5.4274292-0.0893402
	C554.5834351,133.1901398,554.5834351,131.6713562,554.5834351,130.9119568z"/>
<path d="M581.5308838,130.8561249c0.8375854,0.0223236,2.5126953,0.0446625,3.3502808,0.0670013
	c2.4345093,7.0132599,5.1594238,13.9259949,7.5046387,20.9727631c-3.6183472,0.6812134-4.4335327-2.490387-5.4497681-5.1035919
	c-2.6132202,0.0111542-5.215332,0-7.8061523,0.033493c-0.5695801,1.5858002-1.1279297,3.1716003-1.6863403,4.7574005
	c-1.161438,0.0111694-2.3116455,0.0111694-3.4508057,0.0223389
	C576.5054932,144.6927795,579.0293579,137.7800293,581.5308838,130.8561249 M583.0608521,135.5241699
	c-0.9380493,2.769577-1.9096069,5.5167999-2.8477173,8.2752075c1.9431152,0.0111542,3.8862915,0,5.8406372,0
	C585.0598755,141.0409698,584.0771484,138.2714081,583.0608521,135.5241699z"/>
<path d="M599.9350586,130.8784485c1.1279297,0,2.2670898,0,3.406189-0.0111694
	c0.1340332,5.1147766-0.4578857,10.2853699,0.3684692,15.3442993c0.9046021,3.607132,7.0021362,3.6183014,7.7503662-0.0670166
	c0.8375244-5.0477448,0.2121582-10.2183533,0.3908691-15.3107758c0.826416,0.0223389,2.4903564,0.0781708,3.3167725,0.1005096
	c-0.2344971,5.5726318,0.6812134,11.290451-0.7258911,16.7514038c-2.0883179,6.0193329-12.0945435,5.829483-13.9371948-0.2680206
	C599.298584,142.0013885,600.1696167,136.3729095,599.9350586,130.8784485z"/>
<path d="M624.8723755,130.8784485c4.388855,0.3573608,10.0396729-1.3512726,13.3564453,2.4233704
	c2.6914062,3.6294708,0.8487549,8.5543823-2.7584229,10.7544098c1.5523071,2.5015411,3.0264282,5.0365906,4.6010742,7.5157928
	c-1.3512573,0.167511-2.6801758,0.1228485-3.9979858-0.1451721c-1.4852905-2.3451996-2.8924561-4.7462311-4.388855-7.0914307
	c-0.8487549,0.033493-2.5462646,0.0893402-3.3950195,0.1228485c0,2.3898621-0.0222778,4.7685547-0.0111694,7.158432
	c-0.8486328-0.0111694-2.557312-0.0335083-3.4060669-0.0446777
	C624.8612061,144.6704407,624.8723755,137.7800293,624.8723755,130.8784485 M628.2896118,133.7596893
	c0,2.5685577-0.0111694,5.1482697,0,7.7168274c2.9259644-0.1675262,8.1300659,0.2791901,7.7950439-4.0650177
	C636.1069946,133.2571564,631.0592651,134.105896,628.2896118,133.7596893z"/>
<path d="M654.913269,130.9342957c1.1167603-0.0335083,2.2446899-0.0558472,3.3725586-0.0670166
	c2.5015869,6.9239197,5.0253906,13.8366699,7.5493164,20.7605743c-0.9157715-0.0223236-2.7249146-0.0558319-3.6295166-0.0781708
	c-0.5471802-1.5858002-1.0831909-3.1604309-1.6304321-4.7462311c-2.6690674,0-5.3381348-0.0111542-7.9960327,0
	c-0.5583496,1.5634766-1.1167603,3.1381073-1.6304321,4.7239075c-1.1726074,0.0446625-2.3340454,0.0781708-3.4954224,0.0893402
	C649.8989868,144.703949,652.5009766,137.8582001,654.913269,130.9342957 M653.6513062,143.7993774
	c1.9431152,0.0111542,3.9086304,0.0111542,5.8629761,0.0111542c-0.9938965-2.7583923-1.9655151-5.5167847-2.9706421-8.2640228
	C655.583252,138.3049164,654.6005249,141.0409698,653.6513062,143.7993774z"/>
<path d="M674.0880127,130.8561249c0.7929077,0.0111542,2.3786621,0.0446625,3.1716309,0.0558319
	c2.9593506,4.5675507,5.9188232,9.1351013,8.8670654,13.7138214c0.0334473-4.5898895,0.0334473-9.1686096,0.0334473-13.7584991
	c0.826416,0,2.479248,0,3.3056641,0c-0.0111694,6.9015808-0.0111694,13.8031616,0,20.7047424
	c-0.6812134,0.0223389-2.0437012,0.0781708-2.7137451,0.1005096c-3.2050781-4.7127228-6.2539062-9.5259705-9.34729-14.3056946
	c-0.0446777,4.7574005-0.0223389,9.5036316-0.0335083,14.2498627c-0.8151855-0.0111694-2.4680786-0.0223389-3.2832642-0.0223389
	C674.0768433,144.6816101,674.0768433,137.7688599,674.0880127,130.8561249z"/>
<path d="M698.6679077,130.9119568c4.7350464-0.0558319,9.4812622-0.0446777,14.2275391-0.0446777
	c0.0111694,0.7705688,0.0446167,2.3228607,0.0557861,3.104599c-1.8314209,0.0223389-3.6517334,0.0893402-5.4608765,0.167511
	c0,5.8183289,0,11.6478119,0,17.4661407c-0.8375854,0-2.5126953,0-3.3502808,0
	c-0.0111694-5.8518219,0-11.7036591-0.0111694-17.555481c-1.831543-0.0223389-3.6518555-0.0558319-5.4609985-0.1005096
	C698.6679077,133.1901398,698.6679077,131.6713562,698.6679077,130.9119568z"/>
</svg>
