<?xml version="1.0" encoding="UTF-8" standalone="no"?>
<svg
   xmlns:dc="http://purl.org/dc/elements/1.1/"
   xmlns:cc="http://creativecommons.org/ns#"
   xmlns:rdf="http://www.w3.org/1999/02/22-rdf-syntax-ns#"
   xmlns:svg="http://www.w3.org/2000/svg"
   xmlns="http://www.w3.org/2000/svg"
   viewBox="0 0 960 960"
   height="960"
   width="960"
   xml:space="preserve"
   id="svg2"
   version="1.1"><metadata
     id="metadata8"><rdf:RDF><cc:Work
         rdf:about=""><dc:format>image/svg+xml</dc:format><dc:type
           rdf:resource="http://purl.org/dc/dcmitype/StillImage" /></cc:Work></rdf:RDF></metadata><defs
     id="defs6"><clipPath
       id="clipPath18"
       clipPathUnits="userSpaceOnUse"><path
         id="path16"
         d="M 0,720 H 720 V 0 H 0 Z" /></clipPath></defs><g
     transform="matrix(1.3333333,0,0,-1.3333333,0,960)"
     id="g10"><g
       id="g12"><g
         clip-path="url(#clipPath18)"
         id="g14"><g
           transform="translate(603.1406,268.1611)"
           id="g20"><path
             id="path22"
             style="fill:#eb5f21;fill-opacity:1;fill-rule:nonzero;stroke:none"
             d="m 0,0 c -15.144,22.257 -34.11,41.881 -56.439,58.318 -22.781,16.764 -48.055,31.786 -75.1,44.659 -28.106,13.377 -54.247,27.128 -77.714,40.868 -24.094,14.095 -44.676,29.598 -61.197,46.127 -17.963,17.95 -27.07,40.616 -27.07,67.378 0,33.478 12.36,60.023 36.718,78.907 23.444,18.179 51.525,27.653 83.425,28.14 55.271,0 88.784,-20.274 88.784,-20.274 25.413,-14.222 44.851,-37.394 58.308,-69.528 h 7.853 v 108.258 h -5.601 l -8.999,-17.937 c -20.925,3.734 -40.917,8.59 -59.981,14.576 0,0 -38.08,10.096 -72.92,10.096 -24.334,0 -48.211,-3.626 -70.943,-10.764 -3.47,-1.091 -6.843,-2.271 -10.155,-3.517 -45.218,-24.293 -73.371,-56.801 -83.701,-96.737 -13.54,-52.306 6.794,-103.716 15.733,-116.522 14.059,-20.154 30.947,-37.454 50.198,-51.416 20.902,-15.167 44.189,-28.69 69.27,-40.189 32.093,-14.738 56.77,-27.755 77.677,-40.97 1.422,-0.892 3.301,-1.976 5.518,-3.271 25.858,-15.1 104.548,-61.047 104.548,-150.41 0,-32.117 -12.317,-59.548 -28.304,-81.702 2.132,1.633 4.253,3.289 6.313,5.024 37.544,30.84 55.764,70.57 55.764,121.516 C 21.985,-48.181 14.576,-21.485 0,0" /></g><g
           transform="translate(94.874,308.1084)"
           id="g24"><path
             id="path26"
             style="fill:#194582;fill-opacity:1;fill-rule:nonzero;stroke:none"
             d="m 0,0 0.771,34.051 2.06,0.512 c 1.181,-5.295 3.445,-9.692 6.771,-13.186 3.324,-3.506 7.083,-6.144 11.263,-7.933 4.181,-1.795 8.619,-2.734 13.312,-2.819 4.692,-0.09 8.963,0.639 12.805,2.175 3.831,1.542 6.988,3.843 9.457,6.909 2.47,3.077 3.716,6.915 3.716,11.522 0,4.946 -1.499,9.09 -4.474,12.415 -2.989,3.331 -6.657,6.306 -11.005,8.962 -4.356,2.639 -9.138,5.157 -14.342,7.548 -5.205,2.391 -9.975,5.161 -14.336,8.318 C 11.649,71.631 7.975,75.383 5,79.738 2.012,84.093 0.518,89.502 0.518,95.989 c 0,5.288 1.024,10.029 3.072,14.209 2.048,4.18 4.818,7.632 8.318,10.366 3.5,2.729 7.547,4.819 12.15,6.271 4.614,1.445 9.383,2.181 14.347,2.181 4.94,0 9.601,-0.688 13.95,-2.054 4.349,-1.368 8.915,-2.477 13.685,-3.325 l 2.049,4.095 h 1.276 V 99.32 h -1.783 c -3.071,7.33 -7.517,12.625 -13.312,15.872 -5.806,3.235 -11.565,4.812 -17.281,4.734 -5.716,-0.09 -10.667,-1.759 -14.842,-4.993 -4.179,-3.246 -6.282,-7.764 -6.282,-13.566 0,-4.607 1.542,-8.45 4.614,-11.515 3.079,-3.079 6.867,-5.94 11.397,-8.579 4.518,-2.65 9.457,-5.252 14.841,-7.805 5.373,-2.56 10.325,-5.506 14.843,-8.83 4.523,-3.332 8.324,-7.253 11.395,-11.777 3.066,-4.523 4.602,-10.022 4.602,-16.509 0,-10.41 -3.836,-18.776 -11.517,-25.088 C 61.956,7.849 57.343,5.379 52.223,3.843 47.103,2.307 41.898,1.542 36.604,1.542 32.683,1.542 28.756,1.885 24.841,2.56 20.901,3.246 16.985,4.012 13.059,4.867 11.691,5.204 10.33,5.548 8.963,5.891 7.602,6.234 6.229,6.487 4.867,6.656 4.181,6.656 3.59,5.674 3.072,3.717 2.565,1.759 2.139,0.519 1.807,0 Z" /></g><g
           transform="translate(288.1289,311.4394)"
           id="g28"><path
             id="path30"
             style="fill:#194582;fill-opacity:1;fill-rule:nonzero;stroke:none"
             d="M 0,0 -2.301,0.512 -2.554,22.786 C -7.518,15.101 -13.011,9.125 -19.07,4.861 c -6.06,-4.258 -13.782,-6.39 -23.166,-6.39 -12.451,0 -21.721,3.788 -27.768,11.383 -6.059,7.589 -9.09,17.281 -9.09,29.057 v 72.95 c 0,3.921 -0.632,6.391 -1.921,7.42 -1.277,1.025 -3.626,1.536 -7.035,1.536 v 2.042 h 27.901 l -0.519,-81.394 c 0,-7.162 1.374,-12.974 4.107,-17.407 2.718,-4.433 6.217,-7.59 10.494,-9.463 4.258,-1.885 8.825,-2.567 13.697,-2.054 4.854,0.512 9.421,2.054 13.685,4.607 4.265,2.56 7.807,6.102 10.625,10.625 2.807,4.519 4.217,9.855 4.217,15.999 v 68.089 c 0,4.258 -0.891,6.818 -2.675,7.673 -1.8,0.856 -4.493,1.283 -8.077,1.283 v 2.042 H 15.106 L 14.589,15.613 c 0,-3.416 0.644,-5.458 1.927,-6.144 1.277,-0.687 3.361,-1.024 6.264,-1.024 V 6.403 Z" /></g><g
           transform="translate(404.332,316.6924)"
           id="g32"><path
             id="path34"
             style="fill:#194582;fill-opacity:1;fill-rule:nonzero;stroke:none"
             d="m 0,0 c -2.048,-1.452 -4.216,-2.693 -6.529,-3.717 -2.295,-1.024 -4.687,-1.795 -7.161,-2.307 -2.477,-0.506 -4.742,-0.758 -6.789,-0.758 -5.458,0 -9.855,0.927 -13.179,2.805 -3.325,1.88 -5.928,4.398 -7.807,7.555 -1.88,3.155 -3.156,6.824 -3.843,11.004 -0.686,4.181 -1.024,8.578 -1.024,13.186 v 83.188 h -19.19 v 5.379 l 18.431,1.271 c 2.898,4.777 4.976,9.994 6.265,15.62 1.276,5.631 2.951,11.004 4.987,16.129 0.687,0.169 1.458,0.506 2.313,1.019 0.849,0.512 1.698,0.934 2.553,1.283 0.856,0.337 1.579,0.421 2.181,0.259 0.591,-0.181 0.892,-0.777 0.892,-1.801 V 117.606 H 0 v -6.65 H -27.9 V 27.768 c 0,-2.392 0.216,-4.994 0.65,-7.807 0.41,-2.818 1.181,-5.421 2.302,-7.813 1.095,-2.384 2.637,-4.39 4.601,-6.01 1.963,-1.621 4.482,-2.428 7.554,-2.428 2.722,0 5.378,0.295 7.926,0.892 2.566,0.595 5.036,1.662 7.433,3.198 L 4.614,4.987 C 3.59,3.107 2.048,1.444 0,0" /></g><g
           transform="translate(506.8506,402.5674)"
           id="g36"><path
             id="path38"
             style="fill:#194582;fill-opacity:1;fill-rule:nonzero;stroke:none"
             d="m 0,0 c -1.121,4.259 -2.735,8.144 -4.879,11.644 -2.132,3.499 -4.892,6.306 -8.3,8.444 -3.422,2.133 -7.686,3.198 -12.806,3.198 -5.469,0 -10.156,-0.981 -14.077,-2.945 -3.933,-1.964 -7.258,-4.602 -9.993,-7.927 -2.722,-3.331 -4.903,-7.174 -6.517,-11.522 -1.62,-4.349 -2.771,-8.915 -3.457,-13.692 H 2.168 C 1.831,-8.541 1.108,-4.271 0,0 m -60.535,-23.292 c 0.156,-6.662 1.059,-13.191 2.681,-19.582 1.62,-6.403 4.101,-12.161 7.426,-17.281 3.325,-5.12 7.673,-9.216 13.059,-12.288 5.373,-3.072 11.89,-4.609 19.576,-4.609 3.24,0 6.698,0.26 10.372,0.772 3.662,0.511 7.204,1.319 10.613,2.427 3.41,1.109 6.614,2.651 9.602,4.614 2.987,1.958 5.421,4.475 7.3,7.548 l 2.554,-3.844 c -4.783,-9.047 -11.481,-15.823 -20.094,-20.34 -8.614,-4.518 -17.962,-6.782 -28.033,-6.782 -9.042,0 -16.805,1.613 -23.287,4.854 -6.48,3.246 -11.818,7.638 -15.998,13.186 -4.179,5.547 -7.252,12.034 -9.215,19.449 -1.964,7.427 -2.94,15.232 -2.94,23.425 0,8.192 1.061,16.251 3.192,24.183 2.138,7.939 5.415,15.017 9.855,21.251 4.438,6.228 10.029,11.264 16.769,15.101 6.746,3.837 14.721,5.765 23.93,5.765 8.361,0 15.402,-1.542 21.125,-4.609 C 3.662,26.871 8.354,22.774 12.022,17.661 15.69,12.541 18.456,6.649 20.347,0 c 1.88,-6.656 3.144,-13.571 3.831,-20.738 l 0.265,-2.554 z" /></g><g
           transform="translate(592.4668,312.4629)"
           id="g40"><path
             id="path42"
             style="fill:#194582;fill-opacity:1;fill-rule:nonzero;stroke:none"
             d="m 0,0 h -40.959 v 2.049 c 4.434,0 7.252,0.639 8.445,1.921 1.193,1.277 1.795,4.222 1.795,8.83 v 93.429 c 0,2.723 -0.175,4.65 -0.518,5.758 -0.337,1.103 -0.891,1.747 -1.662,1.916 -0.771,0.169 -1.784,0.217 -3.073,0.132 -1.276,-0.09 -2.855,0.127 -4.734,0.639 v 1.277 l 22.781,7.686 4.866,-0.259 V 97.52 c 1.537,3.24 3.362,6.487 5.505,9.733 2.133,3.234 4.519,6.138 7.157,8.698 2.657,2.56 5.638,4.651 8.975,6.277 3.324,1.614 7.023,2.433 11.131,2.433 2.373,0 4.903,-0.687 7.541,-2.054 2.65,-1.368 4.145,-3.5 4.493,-6.397 0,-0.856 -0.054,-1.97 -0.132,-3.331 -0.09,-1.367 -0.385,-2.771 -0.903,-4.217 -0.507,-1.457 -1.193,-2.782 -2.049,-3.974 -0.854,-1.187 -1.963,-2.042 -3.324,-2.561 -1.711,-0.506 -3.024,-0.21 -3.964,0.898 -0.939,1.108 -1.831,2.433 -2.686,3.969 -0.855,1.536 -1.843,3.029 -2.952,4.476 -1.108,1.451 -2.601,2.174 -4.481,2.174 -1.704,0 -3.542,-0.596 -5.493,-1.783 -1.97,-1.199 -3.879,-2.656 -5.759,-4.348 -1.879,-1.711 -3.59,-3.506 -5.126,-5.386 -1.53,-1.873 -2.728,-3.493 -3.584,-4.86 -2.385,-3.584 -3.577,-7.421 -3.577,-11.517 V 73.974 12.029 c 0,-2.559 0.205,-4.523 0.639,-5.884 0.42,-1.369 1.108,-2.349 2.047,-2.94 0.939,-0.608 2.168,-0.946 3.71,-1.03 C -4.349,2.091 -2.396,2.049 0,2.049 Z" /></g><g
           transform="translate(211.2705,238.4169)"
           id="g44"><path
             id="path46"
             style="fill:#2b2b2a;fill-opacity:1;fill-rule:nonzero;stroke:none"
             d="m 0,0 h -1.729 v 25.576 h -7.03 v 1.626 H 7.035 V 25.576 H 0 Z" /></g><g
           transform="translate(236.207,252.9218)"
           id="g48"><path
             id="path50"
             style="fill:#2b2b2a;fill-opacity:1;fill-rule:nonzero;stroke:none"
             d="m 0,0 c 1.699,0 3.397,0.072 4.771,1.259 1.301,1.048 1.916,2.669 1.916,4.295 0,2.017 -0.941,4.042 -2.892,4.903 -1.434,0.687 -3.283,0.614 -4.867,0.614 h -1.12 L -2.192,0 Z M 9.541,-14.505 H 7.554 l -8.879,12.879 h -0.867 v -12.879 h -1.723 v 27.202 h 3.385 c 2.205,0 4.367,-0.036 6.204,-1.379 1.94,-1.367 2.735,-3.53 2.735,-5.837 0,-4.728 -3.277,-7.179 -7.789,-7.107 z" /></g><g
           transform="translate(262.457,263.9931)"
           id="g52"><path
             id="path54"
             style="fill:#2b2b2a;fill-opacity:1;fill-rule:nonzero;stroke:none"
             d="m 0,0 v -9.885 h 10.969 v -1.62 H 0 v -12.444 h 11.252 v -1.627 H -1.729 V 1.626 H 11.252 V 0 Z" /></g><g
           transform="translate(306.3437,265.6191)"
           id="g56"><path
             id="path58"
             style="fill:#2b2b2a;fill-opacity:1;fill-rule:nonzero;stroke:none"
             d="m 0,0 h 1.723 v -16.955 c 0,-2.783 0,-5.157 -1.831,-7.434 -1.843,-2.09 -4.663,-3.174 -7.397,-3.174 -2.747,0 -5.554,1.084 -7.397,3.174 -1.843,2.277 -1.843,4.651 -1.843,7.434 V 0 h 1.734 v -16.449 c 0,-2.452 0,-5.054 1.41,-6.855 1.337,-1.735 3.999,-2.633 6.096,-2.633 2.096,0 4.758,0.898 6.096,2.633 C 0,-21.503 0,-18.901 0,-16.449 Z" /></g><g
           transform="translate(342.7607,254.0722)"
           id="g60"><path
             id="path62"
             style="fill:#2b2b2a;fill-opacity:1;fill-rule:nonzero;stroke:none"
             d="M 0,0 V 11.547 H 1.729 V -15.655 H 0 V -1.62 h -16.521 v -14.035 h -1.73 v 27.202 h 1.73 V 0 Z" /></g><g
           transform="translate(369.8301,262.1201)"
           id="g64"><path
             id="path66"
             style="fill:#2b2b2a;fill-opacity:1;fill-rule:nonzero;stroke:none"
             d="M 0,0 -5.337,-13.132 H 5.301 Z m -5.987,-14.758 -3.651,-8.945 h -1.758 L 0,4.396 11.372,-23.703 h -1.77 l -3.645,8.945 z" /></g><g
           transform="translate(419.7041,237.5205)"
           id="g68"><path
             id="path70"
             style="fill:#2b2b2a;fill-opacity:1;fill-rule:nonzero;stroke:none"
             d="M 0,0 -22.829,24.268 V 0.896 h -1.723 V 28.46 L -1.735,4.361 V 28.099 H 0 Z" /></g><g
           transform="translate(441.2676,240.0439)"
           id="g72"><path
             id="path74"
             style="fill:#2b2b2a;fill-opacity:1;fill-rule:nonzero;stroke:none"
             d="m 0,0 c 3.578,0 6.529,0.723 9.131,3.277 2.313,2.313 3.602,5.415 3.602,8.656 0,3.469 -1.373,6.715 -3.938,9.058 C 6.217,23.335 3.386,23.949 0,23.949 H -3.132 V 0 Z m -4.867,25.575 h 4.916 c 3.957,0 7.095,-0.65 10.095,-3.432 2.842,-2.669 4.325,-6.307 4.325,-10.21 0,-3.746 -1.447,-7.313 -4.193,-9.952 C 7.288,-0.903 4.071,-1.627 0.049,-1.627 h -4.916 z" /></g><g
           transform="translate(226.8223,205.915)"
           id="g76"><path
             id="path78"
             style="fill:#2b2b2a;fill-opacity:1;fill-rule:nonzero;stroke:none"
             d="m 0,0 c -2.096,2.566 -5.771,4.295 -9.132,4.295 -6.782,0 -12.371,-5.843 -12.371,-12.517 0,-3.174 1.373,-6.162 3.65,-8.402 2.265,-2.163 5.517,-3.746 8.721,-3.746 3.145,0 7.109,1.692 9.132,4.143 v -2.378 c -2.565,-2.133 -5.71,-3.398 -9.06,-3.398 -7.577,0 -14.166,6.318 -14.166,13.926 0,7.723 6.482,13.999 14.204,13.999 3.276,0 6.601,-1.302 9.022,-3.536 z" /></g><g
           transform="translate(242.8203,197.874)"
           id="g80"><path
             id="path82"
             style="fill:#2b2b2a;fill-opacity:1;fill-rule:nonzero;stroke:none"
             d="m 0,0 c 0,-6.71 5.59,-12.329 12.372,-12.329 6.747,0 12.373,5.655 12.373,12.329 0,6.71 -5.626,12.336 -12.373,12.336 C 5.59,12.336 0,6.71 0,0 m 26.48,0 c 0,-7.644 -6.459,-13.962 -14.108,-13.962 -7.638,0 -14.095,6.318 -14.095,13.962 0,7.649 6.41,13.963 14.095,13.963 C 20.021,13.963 26.48,7.649 26.48,0" /></g><g
           transform="translate(308.9336,183.3759)"
           id="g84"><path
             id="path86"
             style="fill:#2b2b2a;fill-opacity:1;fill-rule:nonzero;stroke:none"
             d="M 0,0 -22.841,24.274 V 0.897 h -1.722 V 28.461 L -1.735,4.36 V 28.1 H 0 Z" /></g><g
           transform="translate(338.2139,207)"
           id="g88"><path
             id="path90"
             style="fill:#2b2b2a;fill-opacity:1;fill-rule:nonzero;stroke:none"
             d="m 0,0 c -1.229,1.945 -2.958,3.21 -5.523,3.21 -2.916,0 -5.121,-2.35 -5.121,-5.198 0,-2.849 2.71,-4.036 4.903,-5.084 l 5.192,-2.699 c 2.061,-1.3 3.109,-2.957 3.109,-5.415 0,-4.504 -4.109,-7.902 -8.518,-7.902 -3.782,0 -6.739,2.349 -7.999,5.849 l 1.519,0.686 c 1.143,-2.891 3.276,-4.902 6.565,-4.902 3.56,0 6.698,2.807 6.698,6.414 0,3.066 -3.138,4.367 -5.481,5.518 l -4.904,2.602 c -1.794,1.114 -2.806,2.698 -2.806,4.866 0,4.042 2.879,6.892 6.95,6.892 2.747,0 5.349,-1.483 6.638,-3.825 z" /></g><g
           transform="translate(372.5713,211.4755)"
           id="g92"><path
             id="path94"
             style="fill:#2b2b2a;fill-opacity:1;fill-rule:nonzero;stroke:none"
             d="m 0,0 h 1.74 v -16.956 c 0,-2.777 0,-5.15 -1.855,-7.427 -1.831,-2.096 -4.638,-3.18 -7.384,-3.18 -2.747,0 -5.566,1.084 -7.397,3.18 -1.843,2.277 -1.843,4.65 -1.843,7.427 V 0 h 1.734 v -16.45 c 0,-2.452 0,-5.048 1.41,-6.849 1.324,-1.735 3.999,-2.632 6.096,-2.632 2.083,0 4.758,0.897 6.095,2.632 C 0,-21.498 0,-18.902 0,-16.45 Z" /></g><g
           transform="translate(392.4668,185.8994)"
           id="g96"><path
             id="path98"
             style="fill:#2b2b2a;fill-opacity:1;fill-rule:nonzero;stroke:none"
             d="M 0,0 H 6.933 V -1.626 H -1.724 V 25.576 H 0 Z" /></g><g
           transform="translate(418.3545,184.2734)"
           id="g100"><path
             id="path102"
             style="fill:#2b2b2a;fill-opacity:1;fill-rule:nonzero;stroke:none"
             d="m 0,0 h -1.729 v 25.575 h -7.029 v 1.627 H 7.036 V 25.575 H 0 Z" /></g><path
           id="path104"
           style="fill:#2b2b2a;fill-opacity:1;fill-rule:nonzero;stroke:none"
           d="m 441.099,184.273 h -1.723 v 27.202 h 1.723 z" /><g
           transform="translate(482.335,183.3759)"
           id="g106"><path
             id="path108"
             style="fill:#2b2b2a;fill-opacity:1;fill-rule:nonzero;stroke:none"
             d="M 0,0 -22.828,24.274 V 0.897 h -1.723 V 28.461 L -1.723,4.36 V 28.1 H 0 Z" /></g><g
           transform="translate(524.5352,197.3681)"
           id="g110"><path
             id="path112"
             style="fill:#2b2b2a;fill-opacity:1;fill-rule:nonzero;stroke:none"
             d="m 0,0 c 0.072,-3.428 -0.434,-6.421 -2.843,-9.053 -2.602,-2.813 -6.506,-4.403 -10.324,-4.403 -7.529,0 -13.956,6.354 -13.956,13.853 0,7.795 6.385,14.072 14.173,14.072 4.938,0 8.95,-2.452 11.8,-6.349 L -2.561,6.999 c -2.415,3.608 -6.094,5.843 -10.498,5.843 -6.637,0 -12.336,-5.807 -12.336,-12.336 0,-6.71 5.56,-12.329 12.336,-12.329 2.928,0 5.771,1.186 8.011,2.987 2.337,1.987 3.217,4.259 3.325,7.216 h -9.746 V 0 Z" /></g></g></g></g></svg>