<?xml version="1.0" encoding="UTF-8" standalone="no"?>
<!DOCTYPE svg PUBLIC "-//W3C//DTD SVG 1.1//EN" "http://www.w3.org/Graphics/SVG/1.1/DTD/svg11.dtd">
<svg xmlns="http://www.w3.org/2000/svg" xmlns:xlink="http://www.w3.org/1999/xlink" xmlns:serif="http://www.serif.com/" width="60" height="60" viewBox="0 0 500 500" version="1.1" xml:space="preserve" style="fill-rule:evenodd;clip-rule:evenodd;stroke-linejoin:round;stroke-miterlimit:2;">
    <g transform="matrix(1,0,0,1,-1.59535,1.84512)">
        <g transform="matrix(0.420707,0,0,0.420707,-2781.8,-3024.87)">
            <circle cx="7210.23" cy="7779.81" r="489.5" style="fill:white;"/>
        </g>
        <g transform="matrix(0.420707,0,0,0.420707,-2781.8,-3024.87)">
            <path d="M7210.23,7236.23C7510.23,7236.23 7753.8,7479.8 7753.8,7779.81C7753.8,8079.82 7510.23,8323.38 7210.23,8323.38C6910.22,8323.38 6666.65,8079.82 6666.65,7779.81C6666.65,7479.8 6910.22,7236.23 7210.23,7236.23ZM7210.23,7290.31C6940.06,7290.31 6720.73,7509.65 6720.73,7779.81C6720.73,8049.97 6940.06,8269.31 7210.23,8269.31C7480.39,8269.31 7699.73,8049.97 7699.73,7779.81C7699.73,7509.65 7480.39,7290.31 7210.23,7290.31Z" style="fill:rgb(225,88,37);"/>
        </g>
        <g transform="matrix(1.75295,0,0,1.75295,-2659.37,-3584.3)">
            <rect x="1608.16" y="2109.37" width="109.96" height="153.84" style="fill:rgb(225,88,37);fill-rule:nonzero;"/>
        </g>
        <g transform="matrix(1.75295,0,0,1.75295,-2659.37,-3584.3)">
            <path d="M1657.83,2133.15L1651.15,2126.46L1634.93,2142.68L1628.9,2136.65L1622.22,2143.33L1628.24,2149.36L1628.18,2149.43L1634.87,2156.11L1634.93,2156.05L1634.97,2156.09L1641.65,2149.41L1641.61,2149.36L1657.83,2133.15Z" style="fill:white;fill-rule:nonzero;"/>
        </g>
        <g transform="matrix(1.75295,0,0,1.75295,-2659.37,-3584.3)">
            <path d="M1657.83,2220.45L1651.15,2213.77L1634.93,2229.98L1628.9,2223.95L1622.22,2230.64L1628.24,2236.67L1628.18,2236.73L1634.87,2243.41L1634.93,2243.35L1634.97,2243.39L1641.65,2236.71L1641.61,2236.67L1657.83,2220.45Z" style="fill:white;fill-rule:nonzero;"/>
        </g>
        <g transform="matrix(1.75295,0,0,1.75295,-2659.37,-3584.3)">
            <rect x="1664.79" y="2136.98" width="46.01" height="6.61" style="fill:white;fill-rule:nonzero;"/>
        </g>
        <g transform="matrix(1.75295,0,0,1.75295,-2659.37,-3584.3)">
            <rect x="1664.79" y="2184.17" width="46.01" height="6.61" style="fill:white;fill-rule:nonzero;"/>
        </g>
        <g transform="matrix(1.75295,0,0,1.75295,-2659.37,-3584.3)">
            <rect x="1664.79" y="2231.36" width="46.01" height="6.61" style="fill:white;fill-rule:nonzero;"/>
        </g>
        <g transform="matrix(1.10142,-1.36371,1.36371,1.10142,-4083.56,-641.999)">
            <path d="M1140.25,2138.17L1143.45,2138.49L1146.44,2139.43L1149.14,2140.9L1151.48,2142.82L1153.4,2145.16L1154.87,2147.86L1155.81,2150.85L1156.13,2154.05L1156.13,2159.33C1156.13,2164.71 1151.78,2169.06 1146.4,2169.06L1134.1,2169.06C1128.72,2169.06 1124.37,2164.71 1124.37,2159.33L1124.37,2154.05L1124.69,2150.85L1125.63,2147.86L1127.1,2145.16L1129.03,2142.82L1131.36,2140.9L1134.06,2139.43L1137.05,2138.49L1140.25,2138.17ZM1140.25,2147.9C1136.87,2147.9 1134.1,2150.67 1134.1,2154.05L1134.1,2159.33L1146.4,2159.33L1146.4,2154.05C1146.4,2150.67 1143.63,2147.9 1140.25,2147.9Z" style="fill:white;"/>
        </g>
        <g transform="matrix(1.10142,-1.36371,1.36371,1.10142,-4083.56,-641.999)">
            <path d="M1134.1,2225.5L1140.03,2235.19L1146.4,2225.5L1146.4,2163.66L1134.1,2163.66L1134.1,2225.5Z" style="fill:rgb(225,88,37);"/>
        </g>
        <g transform="matrix(1.10142,-1.36371,1.36371,1.10142,-4083.56,-641.999)">
            <path d="M1124.37,2225.5L1124.37,2163.66C1124.37,2158.28 1128.72,2153.93 1134.1,2153.93L1146.4,2153.93C1151.78,2153.93 1156.13,2158.28 1156.13,2163.66L1156.13,2225.5C1156.13,2227.4 1155.58,2229.26 1154.53,2230.85L1148.16,2240.54C1146.33,2243.32 1143.2,2244.98 1139.87,2244.92C1136.54,2244.87 1133.47,2243.11 1131.73,2240.27L1125.8,2230.58C1124.86,2229.05 1124.37,2227.29 1124.37,2225.5ZM1134.1,2225.5L1140.03,2235.19L1146.4,2225.5L1146.4,2163.66L1134.1,2163.66L1134.1,2225.5Z" style="fill:white;"/>
        </g>
        <g transform="matrix(1.10142,-1.36371,1.36371,1.10142,-4083.56,-641.999)">
            <path d="M1140.25,2147.9C1136.87,2147.9 1134.1,2150.67 1134.1,2154.05L1134.1,2159.33L1146.4,2159.33L1146.4,2154.05C1146.4,2150.67 1143.63,2147.9 1140.25,2147.9Z" style="fill:rgb(225,88,37);"/>
        </g>
    </g>
</svg>
