<?xml version="1.0" encoding="utf-8"?>
<!-- Generator: Adobe Illustrator 25.2.0, SVG Export Plug-In . SVG Version: 6.00 Build 0)  -->
<svg version="1.1" id="Ebene_1" xmlns="http://www.w3.org/2000/svg" xmlns:xlink="http://www.w3.org/1999/xlink" x="0px" y="0px"
	 width="210px" height="39px" viewBox="0 0 210 39" style="enable-background:new 0 0 210 39;" xml:space="preserve">
<style type="text/css">
	.st0{fill:#202124;}
	.st1{fill:#FFFFFF;}
</style>
<path class="st0" d="M10.3131485,8.6399317c4.4627676-3.2220502,10.0543232-4.4127564,15.4696541-4.5675478
	c2.7886353,0.0976377,5.63204,0.4405613,8.1992035,1.6026907c2.6290779,1.1478405,4.9366646,3.3339767,5.7130089,6.1583309
	c0.7168045,2.6814699,0.3810234,5.7272978-1.2121391,8.0420294c-1.8813171,2.779108-5.2033882,4.1984291-8.4444885,4.5794563
	c-1.0668716,0.0904942-2.1837559,0.4191284-3.210144-0.0404854c0.0238132-0.3810253-0.1619358-0.8882656,0.2071819-1.1526012
	c0.3548298-0.1547928,0.7549076-0.1095448,1.1311703-0.1381226c2.5004845-0.0833492,5.0843163-0.6144047,7.1537666-2.0932617
	c2.279007-1.5717316,3.4935303-4.4413319,3.2339516-7.177577c-0.1047783-2.6505108-1.8408279-5.0033464-4.0984077-6.2893095
	c-3.1053619-1.8003473-6.820364-2.1027865-10.3353291-1.9265628c-4.9199982,0.3214912-9.9519215,1.7098541-13.8217163,4.8795142
	c-2.1266012,1.7551003-3.9317122,4.3008308-3.7959714,7.1751957c-0.0476284,2.1266003,1.3050141,4.212719,3.2934928,4.9842949
	c2.3575983,0.9263706,5.0414495,0.4691391,7.2466383-0.6477432c0.5048599-0.2619553,0.928751-0.6501274,1.4074154-0.9501839
	c0.7120419-0.3500671,1.381218,0.7191868,0.7668133,1.2073765c-1.478857,1.3050137-3.4197083,1.9884796-5.341507,2.295681
	c-2.5171528,0.3715-5.3176947-0.3095837-7.0656514-2.2432899c-1.6241226-1.7169991-2.1051679-4.2603455-1.6431737-6.5298338
	C5.7908468,12.8216915,7.8793454,10.3688383,10.3131485,8.6399317z"/>
<path class="st0" d="M133.5559998,6.5704851c3.8078766-1.5241041,7.9253387-2.1051683,12.0070801-2.1932807
	c3.0005646,0.0476284,6.0511627,0.3024397,8.8898163,1.3431168c1.6455536,0.6286926,3.2315826,1.6265039,4.2246246,3.1125054
	c0.8811188,1.2788181,1.1287842,2.9434261,0.7715759,4.4413338c-0.1024017,0.5143862-0.6358337,0.5191479-1.0525818,0.5739212
	c-0.7739563-0.7715769-0.0500183-1.9194183-0.3786469-2.8481703c-0.6429901-2.3933191-3.0625-3.6530862-5.2676849-4.2960668
	c-4.2722626-1.1335526-8.7897949-1.0454407-13.1239624-0.3333979c-3.5102081,0.6405993-7.0966034,1.7431931-9.8471527,4.1103168
	c-1.7026978,1.4431362-2.8934021,3.70786-2.4004517,5.9797277c0.4715195,1.9670448,2.3147278,3.2196693,4.1031647,3.8959904
	c4.0555573,1.4907627,8.4325867,1.5550613,12.685791,1.9789524c2.3647461,0.2476673,4.7723541,0.3929348,7.0513611,1.1121197
	c1.3216858,0.4357986,2.7124329,1.181181,3.2649231,2.5385857c0.7787018,1.99086,0.0476074,4.3579845-1.5645905,5.7177715
	c-2.3433228,2.0361061-5.5367889,2.6552734-8.5421295,2.8934135c-4.2984619,0.1643181-8.8016968-0.2786217-12.6500549-2.3290176
	c-0.6501312-0.2929134-0.366745-1.0287743-0.0190582-1.4383736c0.8882599,0.1023998,1.6122131,0.6715565,2.4480896,0.943037
	c3.5530701,1.2883472,7.4014282,1.6074543,11.1473846,1.293108c2.431427-0.2738647,5.0485992-0.8430214,6.8299103-2.6481323
	c1.1549683-1.1335506,1.5907745-3.2006168,0.4667358-4.5008659c-1.0787659-1.0668736-2.6671753-1.3240681-4.0960236-1.6193619
	c-5.758255-0.8858852-11.7427521-0.550106-17.3104858-2.4933395c-2.1504059-0.7668152-4.3936996-2.1218376-5.1295624-4.4199009
	c-0.5953522-2.0170555-0.2381363-4.3032112,0.9740067-6.0297356C128.59552,9.0804939,131.0412292,7.5897293,133.5559998,6.5704851z"
	/>
<path class="st0" d="M28.0332375,9.9068432c0.5548706-0.4619932,1.4169407,0.43818,0.9692345,0.988287
	c-0.5739212,0.6263113-1.2716751,1.1359339-1.7765331,1.8265429c-1.0811615,1.4217033-1.5598259,3.1958542-1.7050915,4.9533377
	c-0.3453045,3.4006557,0.2167091,6.872757-0.6334553,10.223402c-0.5286732,2.3504562-1.7551022,4.6937656-3.9078979,5.9273357
	c-4.1984291,2.3361664-10.3234224,0.8668327-12.5190849-3.5483036c0.2214718-0.6024971,1.0335331-0.9501858,1.4550438-0.3381615
	c1.2430973,1.6765137,2.9839087,3.1291752,5.1128922,3.4173298c2.0646839,0.2500458,4.3960876,0.0928726,6.0249729-1.3455009
	c1.8336868-1.5217228,2.5076275-3.9721947,2.719574-6.2583504c0.4167461-3.276825-0.1238346-6.6131821,0.4881878-9.8733358
	C24.7302189,13.5337353,25.9328327,11.1808996,28.0332375,9.9068432z"/>
<path class="st0" d="M53.773922,10.6403189c0.6548882-0.5000963,1.686039-0.5143852,2.2647247,0.111927
	c0.7072754,0.7453814,0.743,1.8265419,1.0311508,2.7600555c3.3054008-0.0142879,6.6108017-0.0238142,9.9162025,0.0023823
	c0.6191711-0.0928755,0.8334961,0.5715389,0.7858658,1.0716352c-0.1309738,0.0785866-0.3929367,0.2333794-0.5239105,0.311964
	c-3.3839912,0.0166702-6.770359-0.0142879-10.156723,0.0142899c-0.0142937,2.9648571-0.6977577,5.8797054-1.5574455,8.7016811
	c-0.5334358,1.6669884-1.1264076,3.3387394-2.0742073,4.8223591c0.4238892,1.4264641,1.0073357,2.9291382,2.2337608,3.8555088
	c0.6596527,0.5239105,1.6788979,0.5096207,2.3433113,0c1.0668716-0.7644367,1.7884407-1.9075146,2.4314232-3.0291576
	c0.5429611-1.0859241,1.20261-2.1432724,1.3526421-3.3720818c-0.7620544-0.0095253-1.8265457-0.1214523-2.0242004-1.0263882
	c-0.0071449-1.1406956,0.5596313-2.2337646,1.262146-3.1077423c0.3286362-0.4500866,0.9930496-0.7572899,1.4788551-0.3524513
	c0.7906303,0.721571,0.8049164,1.8884602,0.9525642,2.8743649c1.0073395,0.0166702,2.1790009-0.1738415,3.0053482,0.5524883
	c0.8930283,1.0192451,0.4310379,2.4766693,0.3000565,3.6769028c-0.1214523,1.1668911-0.4429398,2.5242958,0.3214874,3.543541
	c0.6382141,0.9073143,2.0075302,0.8739777,2.8505554,0.2929153c1.5907745-1.0502052,2.5528717-2.7743492,3.4077988-4.4246655
	c0.3953171-1.2240467,0.214325-2.5552559,0.5024796-3.8007355c0.1976547-0.5882092,1.2692871-0.6667938,1.3669281,0.0142879
	c0.0809708,2.3052063-0.4334183,4.5937462-0.2333832,6.9013348c0.2643433,0.8620701,0.6596603,1.9789524,1.7074814,2.0956402
	c0.9144592,0.192894,1.7050858-0.4024582,2.3075867-1.0144806c1.412178-1.4336109,2.3552094-3.2434826,3.2672958-5.0176353
	c0.5405807-1.5669689,1.721756-3.143465,3.4649506-3.3863678c1.5598297-0.28339,3.2506256,0.950182,3.2815857,2.5719261
	c-0.0523911,0.7048969-0.2357559,1.493145-0.8358688,1.938467c-0.3786469,0.2476692-0.8096848,0.0309601-1.0644913-0.2833843
	c-0.1809921-0.6310768,0.4929504-1.15975,0.3572159-1.8027325c-0.1047821-0.6715565-0.8525543-1.0144806-1.4740982-0.9573269
	c-0.8644562,0.1024017-1.5241089,0.7858658-1.9384689,1.5074329c-0.8454056,1.5669708-0.8930359,3.5530682-0.0857315,5.1438522
	c0.5096207,0.9978123,1.624115,1.6288853,2.7433853,1.5574436c1.8551178,0.0071411,3.4816208-1.1335526,4.6604233-2.4790516
	c0.8287277-0.9668541,1.6193619-2.0242004,2.0313492-3.2434826c0.245285-1.1311722,0.1547852-2.3123512,0.3953094-3.4459038
	c0.0904999-0.6977539,1.2954941-0.7977734,1.3955078-0.0619164c0.073822,2.2766304-0.4905701,4.5437355-0.2262344,6.8203659
	c0.1571732,0.9263687,0.6739426,2.0575409,1.7336731,2.1575584c1.0930634,0.1857491,1.9551392-0.6596527,2.6266937-1.4002724
	c1.7479553-1.9027462,2.4647598-4.5580215,4.4651489-6.2535877c1.2692871-1.002573,3.0886917-1.5836391,4.6413727-0.9049358
	c0.5977325,0.2571926,1.3335876,0.5596333,1.5431595,1.2359524c0.095253,0.5215302-0.3953171,0.8215866-0.8311234,0.9168434
	c-0.9096909-0.8406372-2.2218552-1.1478405-3.40065-0.7310925c-1.60746,0.5477257-2.5838394,2.2147141-2.7171936,3.8459816
	c-0.0928726,0.9192219,0.0047684,2.0599213,0.8787384,2.5909729c0.8215942,0.4334221,1.7979736-0.0238113,2.3647461-0.6715546
	c0.9597092-0.9859047,1.2478638-2.36236,1.5503006-3.6507053c0.4238892-0.1547947,1.0263824-0.2095661,1.2264252,0.3072014
	c0.2476654,1.3288269,0.1214523,2.8791256,1.1287918,3.9364719c0.7572861,0.7168083,1.9241791,0.304821,2.6171722-0.2976761
	c1.3121567-1.1335506,2.1170731-2.7124271,2.8719788-4.241293c0.2095642-0.5715389,0.99543-0.5905895,1.3359756-0.126215
	c0.2309952,0.4786625-0.1071625,0.9335136-0.2952957,1.3621674c-0.9454269,1.8098755-2.064682,3.6983337-3.9055176,4.7175789
	c-1.2931061,0.7572899-3.2006149,0.5239105-4.0126801-0.8215866c-0.3000565-0.2976761-0.3238678-0.9882851-0.8382568-0.9478035
	c-0.5072403,0.5310555-0.9430389,1.1454582-1.5788727,1.5360107c-1.1311722,0.8215866-2.8124542,0.6977539-3.8316956-0.2500496
	c-0.5786819-0.5834427-0.8906479-1.3740749-1.0121002-2.1742287c-0.6810837,1.2954865-1.7503357,2.407608-3.0220108,3.1410828
	c-1.1549911,0.6620331-2.7076645,0.4834251-3.6816635-0.4191284c-0.9049377-0.7977753-1.2859573-2.0194359-1.3788376-3.1863289
	c-1.2264252,1.9075127-3.0815506,3.5030594-5.3224564,4.0364914c-1.4478989,0.3762627-3.0958405,0.2000427-4.303215-0.7287102
	c-1.0740128-0.8287315-1.626503-2.15518-1.8098679-3.4673367c-0.8311157,1.5050545-1.9646683,2.9219952-3.4840088,3.7721577
	c-1.1049805,0.6215477-2.5695496,0.4905701-3.5387802-0.3214912c-1.0025711-0.8072968-1.4407501-2.1170731-1.5193405-3.3649349
	c-0.7477646,1.3478794-1.8241577,2.5623989-3.2006149,3.2839642c-1.4598083,0.7620583-3.5554581,0.4572372-4.4556274-1.0121002
	c-0.8739777-1.2978668-0.7715759-2.9577122-0.5072403-4.427042c0.1762238-0.8287315,0.2309952-1.686039,0.0928802-2.5242977
	c-0.6953812-0.059536-1.3931351-0.059536-2.088501-0.0428658c-0.2643394,1.0621109-0.4572334,2.1718464-1.0359154,3.1196518
	c-0.9454193,1.8003464-1.9694328,3.7126198-3.767395,4.7914009c-1.2716751,0.7644348-2.9672394,0.4310341-4.0436363-0.5239105
	c-0.9763832-0.8644524-1.6622238-2.028965-2.0789719-3.2577744c-0.8763618,1.4526634-1.8789368,2.9410477-3.4030418,3.7745399
	c-1.0406761,0.5953522-2.4790497,0.631073-3.4387589-0.1428871c-0.5524864-0.438179-0.876358-1.0787773-1.1907082-1.6907997
	c-0.7668152,0.4310341-1.1716537,1.2978706-1.9646645,1.7027092c-1.4550438,0.9692383-3.6983337,0.3500671-4.3532219-1.300251
	c-1.3383522-3.1315575,0.8025398-7.2228222,4.1460419-7.9181957c1.3026314-0.3691177,2.7767258,0.0857315,3.7411995,1.0001945
	c0.5453415,0.512001,0.0119057,1.240715-0.6048813,1.3264465c-0.6405983-0.4619942-1.3407364-0.9763794-2.176609-0.9025555
	c-2.0027695-0.1405048-3.6006966,1.6693687-3.8936119,3.5292511c-0.1238289,0.9525642-0.2214699,2.1289825,0.5405807,2.8529358
	c0.5667801,0.592968,1.5526848,0.4500847,2.1575584-0.016674c1.1740417-0.9096966,1.7646294-2.3980789,1.8789368-3.8459778
	c0.3834076-0.4000797,1.1049728-0.557251,1.3716965,0.0571499c0.2857666,1.2264309,0.1071625,2.6219387,0.9216042,3.679285
	c0.4000778,0.6715584,1.3145409,0.8049164,1.9860954,0.4929504c1.2478638-0.5620117,2.014679-1.7646275,2.7243385-2.8743629
	c0.4262733-0.7763424,1.0930672-1.5883999,0.7644348-2.5314407c-0.7763443-4.0555458-0.4286575-8.2087288,0.1023979-12.2714176
	c-2.414753,0.0095253-4.8295021-0.0261965-7.2442551,0.0190516c-0.2929115-0.2238531-0.7310905-0.6501265-0.4096031-1.0263901
	c0.2286148-0.4762821,0.8096809-0.3715,1.240715-0.3976955c2.2575798,0.0119076,4.5127754-0.0047617,6.7703552,0.0095263
	C52.5046272,12.4882956,52.8332634,11.3214025,53.773922,10.6403189 M53.6953354,13.5075397
	c0.6120262,0.0047617,1.2240448-0.0023823,1.836071-0.052392c-0.1000214-0.6477442-0.266716-1.2978697-0.6715622-1.8289242
	C54.2478256,12.0905991,53.8310776,12.7454863,53.6953354,13.5075397 M53.2976379,14.8935213
	c-0.4929504,2.0861177-0.4905701,4.2317686-0.6596489,6.3559904c-0.0642967,1.6812763,0.1166878,3.35779,0.3095818,5.0247784
	c0.6310768-0.847784,0.8525467-1.909893,1.2002335-2.8886528c0.8073006-2.7552948,1.4431381-5.6058445,1.433609-8.4897337
	C54.8193626,14.9030476,54.0596924,14.9030476,53.2976379,14.8935213 M61.122963,24.2667599
	c0.2667198,0.0642967,0.5334358,0.1285973,0.8001518,0.1881313c0.1095428-0.5215282,0.0190468-1.0454388-0.1595573-1.5383911
	C61.5230408,23.3522968,61.3158569,23.807148,61.122963,24.2667599z"/>
<path class="st0" d="M173.5518188,10.6641321c0.6572571-0.5191479,1.697937-0.5477238,2.2956696,0.0809689
	c0.709671,0.7406187,0.7787323,1.8170176,1.021637,2.7600565c3.2149048-0.007144,6.4298096,0,9.6470947-0.0047617
	c0.3929443-0.0381041,0.7430115,0.147646,1.0835571,0.3238716c-0.0142975,0.4119835-0.0333557,1.0382957-0.5858307,1.0525837
	c-3.3697052,0.0809679-6.7441711-0.0333395-10.1138611,0.0547714c-0.0023804,0.8334951-0.0119171,1.671752-0.1548004,2.4957209
	c-0.2667084,2.229002-0.8311005,4.4103756-1.5145721,6.5465031c-0.514389,1.5455379-1.0835419,3.0934544-1.9646606,4.4770546
	c0.4548492,1.4693317,1.0573425,3.052969,2.3933105,3.9436188c0.8096924,0.5310555,1.9051361,0.2714806,2.5624084-0.385788
	c1.4288483-1.3335915,2.3194885-3.1291752,3.1005859-4.8914204c0.3500824-1.2478619,1.1597595-2.4766693,2.4838257-2.8195934
	c1.5407715-0.5382004,3.2458496,0.8192062,3.2339478,2.4123726c0.12146,2.2075653-1.5955505,3.9912453-3.4363708,4.9319019
	c0.269104,1.0192432,1.512207,1.345499,2.4433289,1.2669125c1.5836487,0.171463,2.8553162-1.047823,3.7149963-2.2313824
	c0.9835205-1.4455185,1.8217926-3.0458279,2.1480408-4.777113c-0.7572937-0.0309601-1.8860779-0.1238346-2.0194397-1.0692558
	c-0.023819-1.1121197,0.5310516-2.1813736,1.2192841-3.0315361c0.3310242-0.4429436,0.9787598-0.8168259,1.4883881-0.4119854
	c0.8430176,0.690609,0.8644562,1.9003677,0.9739838,2.89818c1.145462-0.0142899,2.7671967-0.2309971,3.3363647,1.0478191
	c0.5191498,1.4693336-0.1547852,3.0148678-0.1667023,4.5151577c-0.1738434,1.1097393,0.2095642,2.5433502,1.433609,2.8481712
	c1.3074036,0.3333969,2.4481049-0.6406021,3.2411041-1.5622063c0.9358978-1.0311527,1.5050507-2.3123531,2.2504425-3.4720993
	c0.4310303-0.6787033,1.6455536-0.0523911,1.2573853,0.697752c-1.0644989,1.9503765-2.1932831,4.0293484-4.1150818,5.2629223
	c-1.3717041,0.9335136-3.4506683,0.876358-4.5961304-0.3929367c-1.0382843-1.1835556-1.1192627-2.874361-0.8692169-4.3556004
	c0.1071625-0.9763794,0.5024872-2.0099125,0.1095428-2.9624767c-0.650116-0.1214504-1.3192902-0.0904942-1.9741821-0.0452461
	c-0.3191071,0.9478016-0.4381866,1.9646645-0.9096985,2.8576927c-0.8954163,1.776535-1.9217987,3.5840263-3.5554504,4.7818756
	c-1.7932129,1.3026352-4.5223083,1.2954903-6.1726227-0.2476654c-0.8168335-0.7215652-1.2692871-1.745575-1.5574493-2.7743454
	c-0.7001343,1.2430973-1.5979309,2.414753-2.8052979,3.2030029c-1.1264038,0.7501411-2.6743317,0.6096382-3.7602539-0.1428871
	c-1.2145081-0.8192062-1.9598999-2.1527958-2.4885712-3.4863873c-0.9287415,1.5574417-2.0361023,3.1744213-3.7697754,3.9031353
	c-1.0192413,0.3714981-2.2766266,0.340538-3.1506195-0.3595924c-0.5524902-0.3929367-0.7787018-1.0573502-1.1192627-1.6122169
	c-0.3953094-0.0047646-0.5548553,0.416748-0.8072815,0.645359c-0.7001343,0.8287354-1.707489,1.5193443-2.8386536,1.4455185
	c-1.2335815,0.0119095-2.3694916-0.8406372-2.7886353-1.9837151c-0.5619965-1.4264679-0.3429108-3.0029621-0.0166626-4.458004
	c0.3619843-1.2550049,0.802536-2.61479,1.8789368-3.4459038c0.4143677,0.2024212,0.9858856,0.5358162,0.7406158,1.0978298
	c-0.3548279,0.8072987-0.8692169,1.5526829-1.0835419,2.4195156c-0.3357849,1.3431168-0.654892,2.8481712,0.0119019,4.1436558
	c0.3953094,0.7572918,1.4550476,0.9525661,2.1670837,0.5358181c0.6048889-0.3238716,1.095459-0.8406372,1.4550476-1.4193192
	c1.0192413-1.7027111,0.6834717-3.7888279,1.0144806-5.6630001c0.1309814-0.7406178,1.3002472-0.8573074,1.4121857-0.0452461
	c0.1404877,2.2051868-0.7715912,4.6389904,0.5000916,6.6631908c0.4762726,0.9573288,1.7527161,0.9978142,2.5623932,0.4596138
	c1.2955017-0.8573093,2.1313782-2.2313843,2.8315125-3.588789c0.1619263-0.3619747,0.4072113-0.7525272,0.283371-1.1668911
	c-0.4810333-2.5743065-0.6525116-5.208149-0.4858093-7.8253212c0.1667023-1.6312675,0.2786255-3.2696781,0.4953461-4.8985662
	c-2.407608,0.0047646-4.8175964-0.0238132-7.2252197,0.0142899c-0.3095703-0.2119455-0.7358398-0.6382189-0.4238739-1.0240078
	c0.1833496-0.3619738,0.6048737-0.4048395,0.9668427-0.3929338c2.3575897-0.0047617,4.7175903,0.0071459,7.0775604-0.0047617
	C172.3087158,12.483531,172.6421204,11.3475981,173.5518188,10.6641321 M174.4567566,11.7976856
	c-0.5310669,0.4143648-0.7620544,1.062109-0.9954224,1.6669884c0.6096344,0.0428658,1.2216644,0.0428658,1.8360596,0.0309572
	C175.1783142,12.9336185,175.2402344,11.7476759,174.4567566,11.7976856 M173.1017303,14.8935213
	c-0.4715271,2.0932608-0.4953308,4.2412939-0.6524963,6.3678961c-0.0428772,1.6908016,0.0523834,3.4006557,0.381012,5.0605011
	c0.9906616-2.050396,1.5479279-4.2817783,2.0265808-6.4988747c0.2834015-1.626503,0.6024933-3.2696781,0.5262909-4.9295225
	C174.6210785,14.9030476,173.8614044,14.9030476,173.1017303,14.8935213 M191.6410217,23.197506
	c-0.1595459,0.385788-0.2714844,0.7858658-0.3191071,1.2002316c0.245285-0.0023804,0.4953308-0.0047626,0.7453918-0.0071449
	c0.0047455-0.378643,0.0023651-0.757288,0.0023651-1.1359329C191.9625244,23.2403698,191.7481842,23.2117939,191.6410217,23.197506
	 M183.0441284,26.7505741c-0.5096283,1.1621304-0.6096344,2.5147705-0.1690826,3.7150002
	c1.1954651-0.6239281,2.333786-1.6169777,2.6290741-2.9910526c0.1309814-0.6358376,0.0857391-1.5121975-0.6405945-1.7622452
	C184.0871887,25.5050945,183.3822784,26.109972,183.0441284,26.7505741z"/>
<path class="st1" d="M174.4567566,11.7976856c0.7834778-0.0500097,0.7215576,1.1359329,0.8406372,1.6979456
	c-0.6143951,0.0119085-1.2264252,0.0119085-1.8360596-0.0309572
	C173.6947021,12.8597946,173.9256897,12.2120504,174.4567566,11.7976856z"/>
<path class="st0" d="M74.0016403,16.8939075c1.2669144-0.8001537,3.0363007,0.5072403,2.6386032,1.9479961
	c-0.2238464,1.307394-2.014679,1.8670254-2.9481888,0.9406567C72.7442551,19.0538483,72.9419098,17.4154358,74.0016403,16.8939075
	 M74.2850266,18.7585526c0.192894,0.4548512,0.778717,0.2262344,1.1549835,0.2405224
	c0-0.3738804,0.2333755-0.9692345-0.2333755-1.1549835C74.6612854,17.5345058,73.9516296,18.2060642,74.2850266,18.7585526z"/>
<path class="st0" d="M94.1698227,16.7962685c1.1883163-0.5477238,2.6647949,0.5548706,2.4695206,1.8479767
	c-0.073822,1.3312092-1.8074875,2.0813541-2.8386383,1.2550049C92.6528625,19.1848259,92.8933792,17.2273045,94.1698227,16.7962685
	 M94.2579346,18.7490292c0.1786041,0.4977131,0.7834854,0.2214699,1.1716537,0.2286148
	c0.0190506-0.4000778,0.2000351-1.0906868-0.3714981-1.1692753C94.5246506,17.5845165,93.9316788,18.2584553,94.2579346,18.7490292z
	"/>
</svg>
