<?xml version="1.0" encoding="utf-8"?>
<!-- Generator: Adobe Illustrator 25.2.0, SVG Export Plug-In . SVG Version: 6.00 Build 0)  -->
<svg version="1.1" id="Ebene_1" xmlns="http://www.w3.org/2000/svg" xmlns:xlink="http://www.w3.org/1999/xlink" x="0px" y="0px"
	 width="569.1021729px" height="420px" viewBox="0 0 569.1021729 420" style="enable-background:new 0 0 569.1021729 420;"
	 xml:space="preserve">
<path d="M0.004316,58.019989c6.4900513-0.1500244,12.9800415,0.1799927,19.4700317-0.25
	c7.289978-0.3300171,14.5700054,0.5899658,21.8599834,0.0299683c8.3699951-0.3599854,16.7299805,0.5900269,25.1000404-0.0299683
	c13.3299561-0.0100098,26.6499634,0.0299683,39.9699707,0.2299805c12.3499756-0.6699829,24.710022,0.3900146,37.0700073-0.0999756
	c11.6400146-0.1900024,23.2799683,0.1399536,34.9299927-0.1799927c13.4500122,0.3899536,26.9000244,0.0899658,40.3599854,0.039978
	c0.0800171,18.4500122,0.0300293,36.9000244,0.0300293,55.3599854c-72.9299927,0-145.8500366,0-218.7800293,0
	C-0.0156425,94.7499695,0.0143258,76.3799744,0.004316,58.019989z"/>
<path d="M246.7343597,58.059967c1.8800049-0.1400146,3.7699585-0.289978,5.6799927-0.3699951
	c3.3300171,0.0900269,6.6699677,0.4799805,10.0099945,0.1799927c5.9899902-0.4500122,11.9899902,0.5800171,17.9799805-0.1499634
	c10.9099731,0.3199463,21.8400269-0.3900146,32.7399902,0.4199829c31.5799561,43.5899658,63.3000488,87.0999756,95,130.6199951
	c31.6500244-43.6199951,63.4200439-87.1500244,95.0899658-130.7600098c21.9300842-0.1199951,43.8501282-0.3099976,65.7900696,0
	c-0.3199463,2.7700195,0.9100342,6.0999756-1.1500244,8.3900146
	c-51.8199463,69.0299683-103.5699768,138.0999756-155.3700256,207.1400146c-3.8099365,0.0100098-7.6099854,0.0100098-11.4000244,0
	c-32.3199463-44.1900024-64.5799561-88.4200439-96.9599609-132.5599976
	c-0.0899658,73.7799683-0.0100098,147.5599976-0.039978,221.3400269c-19.1199951-0.0100098-38.2399902-0.0100098-57.3500214,0
	C246.72435,260.8899841,246.7743378,159.4700012,246.7343597,58.059967z"/>
<path d="M0.004316,196.22995c70.0200195-0.0199585,140.0400391,0,210.0599976-0.0099487
	c-0.0099487,17.6799927,0.0100098,35.3599854-0.0099487,53.039978
	c-50.8300171-0.0100098-101.6600342,0.0100098-152.4800415-0.0100098
	c-0.5799561,6.8699951-0.2299805,13.7600098-0.0199585,20.6300049c-0.0300293,2.9899902-0.0500488,5.9899902-0.0300293,9
	c0.0300293,3.6600342-0.3300171,7.3199463-0.2600098,11c-0.0100098,1.6500244-0.0100098,3.3199463,0.0200195,5.0100098
	c0.3599854,20.6600342-0.039978,41.3299561,0.25,62c-0.0100098,1.5699463-0.0100098,3.1500244,0.0100098,4.7600098
	c-8.7000122,0.2900391-17.4299927,0.0899658-26.1500225,0.3599854c-10.4599609,0.0999756-20.8999634-0.3499756-31.3499756,0
	C-0.0456718,306.7499695,0.0343453,251.4899597,0.004316,196.22995z"/>
</svg>
