<?xml version="1.0" encoding="UTF-8" ?>
<!DOCTYPE svg PUBLIC "-//W3C//DTD SVG 1.1//EN" "http://www.w3.org/Graphics/SVG/1.1/DTD/svg11.dtd">
<svg width="168pt" height="102pt" viewBox="0 0 168 102" version="1.1" xmlns="http://www.w3.org/2000/svg">
<path fill="#7a7a7a" opacity="1.00" d=" M 5.81 10.19 C 17.94 10.17 30.08 10.15 42.21 10.20 C 42.21 12.63 42.23 15.06 42.24 17.48 C 32.75 17.65 23.26 17.50 13.77 17.57 C 13.77 23.53 13.79 29.49 13.75 35.45 C 21.72 35.53 29.70 35.44 37.67 35.50 C 37.64 38.07 37.63 40.64 37.64 43.21 C 29.68 43.27 21.72 43.18 13.76 43.28 C 13.82 51.30 13.69 59.33 13.85 67.35 C 11.17 67.37 8.49 67.37 5.81 67.36 C 5.84 48.31 5.83 29.25 5.81 10.19 Z" />
<path fill="#7a7a7a" opacity="1.00" d=" M 49.80 10.18 C 52.39 10.17 54.98 10.18 57.57 10.22 C 63.03 22.82 68.81 35.28 74.21 47.90 C 79.89 35.37 85.48 22.80 91.01 10.20 C 93.56 10.18 96.10 10.17 98.65 10.17 C 98.58 29.25 98.61 48.32 98.64 67.39 C 96.01 67.38 93.39 67.37 90.77 67.35 C 90.73 54.25 90.92 41.14 90.68 28.05 C 86.19 38.52 81.64 48.97 77.06 59.41 C 75.26 59.45 73.47 59.50 71.67 59.56 C 66.81 49.28 62.39 38.78 57.66 28.44 C 57.58 41.41 57.59 54.39 57.67 67.37 C 55.05 67.37 52.42 67.37 49.80 67.36 C 49.82 48.30 49.82 29.24 49.80 10.18 Z" />
<path fill="#7a7a7a" opacity="1.00" d=" M 112.77 10.17 C 115.43 10.17 118.09 10.17 120.76 10.18 C 120.67 18.56 120.73 26.93 120.72 35.31 C 128.94 35.33 137.16 35.26 145.39 35.35 C 145.39 26.96 145.40 18.57 145.37 10.17 C 148.11 10.17 150.84 10.17 153.57 10.18 C 153.53 29.25 153.51 48.31 153.58 67.38 C 150.82 67.38 148.07 67.37 145.32 67.33 C 145.47 59.26 145.36 51.20 145.39 43.13 C 137.16 43.16 128.94 43.10 120.71 43.17 C 120.75 51.23 120.63 59.29 120.79 67.35 C 118.12 67.37 115.44 67.37 112.77 67.37 C 112.79 48.30 112.79 29.24 112.77 10.17 Z" />
<path fill="#7a7a7a" opacity="1.00" d=" M 10.72 74.29 C 11.24 74.28 12.27 74.27 12.79 74.26 C 15.06 80.25 17.23 86.28 19.53 92.25 C 16.85 92.69 15.96 90.55 15.21 88.49 C 12.92 88.46 10.62 88.34 8.34 88.58 C 7.76 89.67 7.33 90.82 6.86 91.96 C 6.16 91.98 4.78 92.01 4.09 92.03 C 6.46 86.18 8.46 80.18 10.72 74.29 M 11.75 78.04 C 10.80 80.62 9.90 83.22 8.99 85.81 C 10.84 85.84 12.70 85.86 14.55 85.88 C 13.69 83.24 12.79 80.61 11.75 78.04 Z" />
<path fill="#7a7a7a" opacity="1.00" d=" M 21.58 74.37 C 25.32 74.59 29.95 73.10 32.96 75.97 C 35.43 78.90 33.87 83.01 30.89 84.85 C 32.17 87.28 33.46 89.70 34.83 92.09 C 33.72 92.01 32.62 91.92 31.51 91.82 C 30.40 89.44 29.24 87.09 28.04 84.76 C 26.78 84.77 25.53 84.77 24.28 84.78 C 24.28 87.19 24.29 89.59 24.30 92.00 C 23.63 92.00 22.28 92.00 21.61 92.00 C 21.65 86.12 21.68 80.24 21.58 74.37 M 24.25 82.27 C 26.28 82.29 28.31 82.33 30.35 82.38 C 30.93 81.01 31.76 79.62 31.31 78.08 C 29.67 75.93 26.67 76.87 24.36 76.47 C 24.34 78.40 24.26 80.34 24.25 82.27 Z" />
<path fill="#7a7a7a" opacity="1.00" d=" M 63.44 74.30 C 66.47 74.33 69.55 73.98 72.54 74.63 C 76.18 75.76 76.94 80.97 74.68 83.66 C 72.54 86.16 68.92 85.26 66.03 85.59 C 66.07 87.73 66.11 89.86 66.13 91.99 C 65.45 92.00 64.11 92.00 63.43 92.00 C 63.52 86.10 63.49 80.20 63.44 74.30 M 66.10 76.57 C 66.09 78.68 66.09 80.80 66.09 82.92 C 67.98 82.89 69.89 82.97 71.77 82.72 C 74.10 81.68 73.96 78.19 71.90 76.92 C 69.99 76.58 68.03 76.63 66.10 76.57 Z" />
<path fill="#7a7a7a" opacity="1.00" d=" M 78.94 74.31 C 82.95 74.65 88.76 72.71 91.05 77.19 C 92.64 80.19 90.52 83.10 88.23 84.93 C 89.52 87.30 90.81 89.67 92.14 92.02 C 91.36 92.01 89.80 92.00 89.02 91.99 C 87.83 89.56 86.61 87.14 85.35 84.74 C 84.41 84.74 82.53 84.75 81.59 84.75 C 81.59 87.17 81.61 89.59 81.64 92.01 C 80.97 92.00 79.62 92.00 78.94 91.99 C 78.94 86.10 78.94 80.21 78.94 74.31 M 81.59 76.54 C 81.60 78.48 81.60 80.42 81.61 82.36 C 83.84 82.07 86.54 82.99 88.42 81.42 C 88.80 80.18 88.80 78.84 88.37 77.62 C 86.47 76.08 83.83 76.82 81.59 76.54 Z" />
<path fill="#7a7a7a" opacity="1.00" d=" M 100.44 74.23 C 100.98 74.27 102.04 74.33 102.57 74.37 C 104.80 80.26 106.79 86.25 109.22 92.06 C 108.48 92.02 107.00 91.95 106.27 91.91 C 105.89 90.77 105.51 89.63 105.13 88.50 C 102.69 88.49 100.25 88.48 97.81 88.48 C 97.44 89.62 97.08 90.77 96.71 91.91 C 95.97 91.95 94.49 92.02 93.76 92.05 C 96.07 86.15 98.21 80.17 100.44 74.23 M 101.21 78.51 C 100.34 80.96 99.53 83.43 98.69 85.89 C 100.27 85.99 101.85 86.04 103.43 86.05 C 104.48 83.55 102.30 80.77 101.21 78.51 Z" />
<path fill="#7a7a7a" opacity="1.00" d=" M 109.98 74.38 C 110.67 74.34 112.06 74.28 112.75 74.24 C 114.12 76.48 115.46 78.73 116.82 80.97 C 118.10 78.77 119.37 76.57 120.63 74.35 C 121.37 74.31 122.85 74.21 123.60 74.16 C 121.82 77.16 120.00 80.14 118.13 83.08 C 119.92 86.18 121.83 89.20 123.72 92.24 C 119.53 92.74 118.74 88.01 116.87 85.37 C 115.52 87.55 114.21 89.75 112.96 91.98 C 112.23 91.99 110.78 92.01 110.05 92.02 C 111.91 89.09 113.71 86.11 115.48 83.13 C 113.65 80.21 111.83 77.28 109.98 74.38 Z" />
<path fill="#7a7a7a" opacity="1.00" d=" M 125.53 74.33 C 129.34 74.33 133.16 74.06 136.95 74.44 C 137.14 74.96 137.51 76.02 137.70 76.54 C 134.52 76.66 131.33 76.65 128.15 76.65 C 128.15 78.53 128.16 80.41 128.17 82.29 C 130.75 82.30 133.34 82.30 135.92 82.31 C 135.94 82.88 135.98 84.02 136.00 84.60 C 133.35 84.63 130.70 84.65 128.05 84.69 C 128.12 86.50 128.18 88.31 128.26 90.12 C 131.27 90.12 134.29 90.13 137.31 90.15 C 137.31 90.61 137.31 91.53 137.31 91.99 C 133.38 92.00 129.46 92.00 125.54 92.00 C 125.59 86.11 125.59 80.22 125.53 74.33 Z" />
<path fill="#7a7a7a" opacity="1.00" d=" M 140.69 73.87 C 141.30 74.10 142.50 74.54 143.11 74.76 C 146.27 78.75 148.38 83.48 151.55 87.47 C 151.70 83.12 151.60 78.76 151.57 74.41 C 152.16 74.34 153.33 74.20 153.92 74.13 C 154.05 80.19 153.98 86.25 153.95 92.31 C 153.32 92.14 152.07 91.78 151.45 91.60 C 148.41 87.72 146.13 83.29 143.37 79.22 C 143.21 83.48 143.27 87.74 143.31 92.00 C 142.64 92.00 141.29 92.00 140.61 92.00 C 140.69 85.96 140.57 79.91 140.69 73.87 Z" />
<path fill="#7a7a7a" opacity="1.00" d=" M 37.52 74.31 C 41.25 74.26 44.98 74.25 48.71 74.36 C 47.12 80.05 43.27 84.69 40.51 89.83 C 43.37 90.30 47.69 88.57 49.27 91.83 C 45.17 92.10 41.05 92.04 36.94 91.90 C 39.02 86.42 42.60 81.71 45.40 76.60 C 42.82 76.63 40.25 76.66 37.67 76.71 C 37.63 76.11 37.56 74.91 37.52 74.31 Z" />
<path fill="#7a7a7a" opacity="1.00" d=" M 49.10 74.56 C 53.47 73.95 57.91 74.31 62.31 74.45 C 62.15 77.71 58.73 76.41 56.59 76.68 C 56.59 81.79 56.55 86.90 56.64 92.00 C 56.03 92.00 54.81 92.00 54.20 92.00 C 54.30 86.91 54.26 81.81 54.27 76.71 C 52.29 76.64 50.30 76.58 48.33 76.47 L 49.10 74.56 Z" />
</svg>
