<?xml version="1.0" encoding="utf-8"?>
<!-- Generator: Adobe Illustrator 26.0.2, SVG Export Plug-In . SVG Version: 6.00 Build 0)  -->
<svg version="1.1" id="Layer_1" xmlns="http://www.w3.org/2000/svg" xmlns:xlink="http://www.w3.org/1999/xlink" x="0px" y="0px"
	 viewBox="0 0 340 156" style="enable-background:new 0 0 340 156;" xml:space="preserve">
<style type="text/css">
	.st0{fill:#20305E;}
</style>
<g>
	<g>
		<polygon class="st0" points="20.3,86.5 29.6,86.5 29.6,62.5 45.9,62.5 45.9,54.3 29.6,54.3 29.6,43.4 45.9,43.4 45.9,34.4 
			20.3,34.4 		"/>
		<rect x="54.9" y="33" class="st0" width="8.1" height="53.5"/>
		<path class="st0" d="M98.5,48.7v22.6c0,0,0.6,8.4-8.2,8.4c-8.8,0-8.2-8.4-8.2-8.4V48.7h-8l0,22c0,17.5,16.2,16.4,16.2,16.4
			s16.2,1.1,16.2-16.4l0-22H98.5z"/>
		<path class="st0" d="M239.1,47.3c-11.1,0-20.1,9-20.1,20.1s9,20.1,20.1,20.1s20.1-9,20.1-20.1S250.2,47.3,239.1,47.3z M239.1,83.5
			c-8.9,0-16.1-7.2-16.1-16.1s7.2-16.1,16.1-16.1s16.1,7.2,16.1,16.1S248,83.5,239.1,83.5z"/>
		<path class="st0" d="M286.5,47.3c-11.1,0-20.1,9-20.1,20.1s9,20.1,20.1,20.1s20.1-9,20.1-20.1S297.6,47.3,286.5,47.3z M286.5,83.5
			c-8.9,0-16.1-7.2-16.1-16.1s7.2-16.1,16.1-16.1s16.1,7.2,16.1,16.1S295.4,83.5,286.5,83.5z"/>
		<rect x="315.5" y="32.9" class="st0" width="4.2" height="54.6"/>
		<path class="st0" d="M201.7,34.6h-12.1h-4.2v52.9h4.2V61.5h15.8c11.9-0.7,11.9-13.2,11.9-13.2C216.9,33.7,201.7,34.6,201.7,34.6z
			 M203.5,57.6h-13.9V38.9h13.9c5.2,0,9.4,4.2,9.4,9.4S208.7,57.6,203.5,57.6z"/>
		<path class="st0" d="M133.7,65.1l-6.3-3.5c0,0-2.7-1.2-2.7-3.9c0,0,0.3-3.7,5.6-2c0,0,2.7,0.8,5.5,2.7l4.9-4.7c0,0-3.7-6.2-13-6.2
			c0,0-10.9-0.2-10.9,10.9c0,0-0.7,6.3,9,10.9c0,0,8.1,3.1,8,7.5c0,0,0.6,3.6-5.7,2.9c0,0-4.2-0.1-7.5-4.1l-5,5.5
			c0,0,3.3,6.2,13.7,6.2c0,0,12.4,0.9,12.4-11.4C141.7,75.8,141.8,69.4,133.7,65.1z"/>
		<path class="st0" d="M166.2,65.1l-6.3-3.5c0,0-2.7-1.2-2.7-3.9c0,0,0.3-3.7,5.6-2c0,0,2.7,0.8,5.5,2.7l4.9-4.7c0,0-3.7-6.2-13-6.2
			c0,0-10.9-0.2-10.9,10.9c0,0-0.7,6.3,9,10.9c0,0,8.1,3.1,8,7.5c0,0,0.6,3.6-5.7,2.9c0,0-4.2-0.1-7.5-4.1l-5,5.5
			c0,0,3.3,6.2,13.7,6.2c0,0,12.4,0.9,12.4-11.4C174.1,75.8,174.2,69.4,166.2,65.1z"/>
	</g>
	<g>
		<path class="st0" d="M26.8,122.7h-1.4v-12.9h-4.8v-1.3h10.9v1.3h-4.8V122.7z"/>
		<path class="st0" d="M37.7,108.6h1.4v6.2h7.7v-6.2h1.4v14.2h-1.4V116h-7.7v6.7h-1.4V108.6z"/>
		<path class="st0" d="M57.7,121.4h7.6v1.3h-9v-14.2H65v1.3h-7.4v4.8h6.9v1.3h-6.9V121.4z"/>
		<path class="st0" d="M81.4,122.7h-1.7l6.2-14.2h1.4l6.2,14.2h-1.7l-1.6-3.7H83L81.4,122.7z M83.6,117.7h6.2l-3.1-7.5L83.6,117.7z"
			/>
		<path class="st0" d="M100.9,122.7h-1.4v-14.2h4.4c1.4,0,2.6,0.3,3.4,0.9c0.8,0.6,1.3,1.6,1.3,2.8c0,1-0.3,1.8-0.9,2.5
			c-0.6,0.7-1.5,1.1-2.7,1.2l4.1,6.7h-1.8l-3.9-6.6h-2.4V122.7z M100.9,114.8h2.6c0.6,0,1.2-0.1,1.6-0.2s0.8-0.3,1.1-0.5
			c0.3-0.2,0.5-0.5,0.6-0.8s0.2-0.6,0.2-1c0-0.3-0.1-0.7-0.2-1c-0.1-0.3-0.3-0.6-0.6-0.8c-0.3-0.2-0.6-0.4-1.1-0.5
			c-0.4-0.1-1-0.2-1.6-0.2h-2.6V114.8z"/>
		<path class="st0" d="M120,122.7h-1.4v-12.9h-4.8v-1.3h10.9v1.3H120V122.7z"/>
		<path class="st0" d="M154.4,115.6c0,1.1-0.2,2.1-0.6,3c-0.4,0.9-0.9,1.7-1.6,2.4c-0.7,0.7-1.4,1.2-2.3,1.6
			c-0.9,0.4-1.9,0.6-2.9,0.6c-1.1,0-2-0.2-2.9-0.6c-0.9-0.4-1.7-0.9-2.3-1.6c-0.7-0.7-1.2-1.4-1.6-2.4c-0.4-0.9-0.6-1.9-0.6-3
			c0-1.1,0.2-2.1,0.6-3c0.4-0.9,0.9-1.7,1.6-2.4c0.7-0.7,1.4-1.2,2.3-1.6c0.9-0.4,1.9-0.6,2.9-0.6c1.1,0,2,0.2,2.9,0.6
			c0.9,0.4,1.7,0.9,2.3,1.6c0.7,0.7,1.2,1.4,1.6,2.4S154.4,114.6,154.4,115.6z M152.8,115.6c0-0.8-0.1-1.6-0.4-2.3
			c-0.3-0.7-0.7-1.4-1.2-2c-0.5-0.6-1.1-1-1.8-1.3c-0.7-0.3-1.5-0.5-2.4-0.5c-0.9,0-1.7,0.2-2.4,0.5s-1.3,0.8-1.8,1.3
			s-0.9,1.2-1.2,2c-0.3,0.7-0.4,1.5-0.4,2.3c0,0.8,0.1,1.6,0.4,2.3c0.3,0.7,0.7,1.4,1.2,2c0.5,0.6,1.1,1,1.8,1.3s1.5,0.5,2.4,0.5
			c0.9,0,1.7-0.2,2.4-0.5c0.7-0.3,1.3-0.8,1.8-1.3c0.5-0.6,0.9-1.2,1.2-2C152.7,117.2,152.8,116.5,152.8,115.6z"/>
		<path class="st0" d="M162.7,122.7h-1.4v-14.2h8.6v1.3h-7.1v4.8h6.6v1.3h-6.6V122.7z"/>
		<path class="st0" d="M192.7,110.9c-0.6-0.9-1.5-1.4-2.7-1.4c-0.4,0-0.7,0-1.1,0.1c-0.4,0.1-0.7,0.3-1,0.5
			c-0.3,0.2-0.5,0.5-0.7,0.8c-0.2,0.3-0.3,0.7-0.3,1.2c0,0.6,0.2,1.1,0.5,1.5s0.8,0.6,1.3,0.9c0.5,0.2,1.1,0.4,1.8,0.6
			c0.6,0.2,1.2,0.4,1.8,0.7c0.5,0.3,1,0.7,1.3,1.2c0.4,0.5,0.5,1.2,0.5,2c0,0.6-0.1,1.2-0.4,1.7c-0.3,0.5-0.6,0.9-1.1,1.3
			c-0.4,0.3-0.9,0.6-1.5,0.8c-0.6,0.2-1.1,0.3-1.7,0.3c-0.9,0-1.7-0.2-2.5-0.5c-0.8-0.3-1.4-0.9-2-1.6l1.3-0.9
			c0.3,0.5,0.7,0.9,1.3,1.3s1.2,0.5,1.9,0.5c0.4,0,0.7-0.1,1.1-0.2c0.4-0.1,0.7-0.3,1-0.5c0.3-0.2,0.5-0.5,0.7-0.8s0.3-0.7,0.3-1.1
			c0-0.5-0.1-0.9-0.3-1.2c-0.2-0.3-0.5-0.6-0.8-0.8c-0.3-0.2-0.7-0.4-1.2-0.6c-0.4-0.1-0.9-0.3-1.3-0.4c-0.5-0.1-0.9-0.3-1.3-0.5
			c-0.4-0.2-0.8-0.4-1.2-0.7c-0.3-0.3-0.6-0.6-0.8-1.1c-0.2-0.4-0.3-1-0.3-1.6c0-0.7,0.1-1.3,0.4-1.8s0.6-0.9,1-1.3
			c0.4-0.3,0.9-0.6,1.5-0.7s1.1-0.2,1.7-0.2c0.8,0,1.5,0.1,2.2,0.4c0.7,0.3,1.3,0.7,1.8,1.3L192.7,110.9z"/>
		<path class="st0" d="M204.2,120.7L204.2,120.7l3.6-12.1h1.7l3.6,12.1h0l3.4-12.1h1.6l-4.2,14.2h-1.7l-3.6-12.1h0l-3.6,12.1h-1.7
			l-4.2-14.2h1.6L204.2,120.7z"/>
		<path class="st0" d="M225.5,122.7h-1.4v-14.2h1.4V122.7z"/>
		<path class="st0" d="M240.4,120.1l4.8-11.5h2.2v14.2h-1.4v-12.3h0l-5.1,12.3H240l-5.1-12.3h0v12.3h-1.4v-14.2h2.2L240.4,120.1z"/>
		<path class="st0" d="M262.2,120.1l4.8-11.5h2.2v14.2h-1.4v-12.3h0l-5.1,12.3h-0.8l-5.1-12.3h0v12.3h-1.4v-14.2h2.2L262.2,120.1z"
			/>
		<path class="st0" d="M278.5,122.7h-1.4v-14.2h1.4V122.7z"/>
		<path class="st0" d="M296.6,120.6L296.6,120.6l0-12h1.4v14.2h-1.8l-8.5-12.1h0v12.1h-1.4v-14.2h1.8L296.6,120.6z"/>
		<path class="st0" d="M316.5,111.2c-0.5-0.5-1.1-0.9-1.7-1.2s-1.4-0.4-2.3-0.4c-0.9,0-1.7,0.2-2.4,0.5c-0.7,0.3-1.3,0.8-1.8,1.3
			s-0.9,1.2-1.2,2c-0.3,0.7-0.4,1.5-0.4,2.3c0,0.8,0.1,1.6,0.4,2.3c0.3,0.7,0.7,1.4,1.2,2c0.5,0.6,1.1,1,1.8,1.3
			c0.7,0.3,1.5,0.5,2.4,0.5c0.7,0,1.4-0.1,2.1-0.3c0.7-0.2,1.3-0.4,1.8-0.7V116H313v-1.3h4.8v7c-0.8,0.5-1.7,0.8-2.6,1.1
			c-1,0.2-1.9,0.4-2.7,0.4c-1.1,0-2-0.2-2.9-0.6c-0.9-0.4-1.7-0.9-2.3-1.6c-0.7-0.7-1.2-1.4-1.6-2.4c-0.4-0.9-0.6-1.9-0.6-3
			c0-1.1,0.2-2.1,0.6-3s0.9-1.7,1.6-2.4c0.7-0.7,1.4-1.2,2.3-1.6c0.9-0.4,1.9-0.6,2.9-0.6c1.1,0,2.1,0.2,2.9,0.5
			c0.8,0.3,1.6,0.8,2.2,1.4L316.5,111.2z"/>
	</g>
</g>
</svg>
