<?xml version="1.0" encoding="UTF-8"?> <svg xmlns="http://www.w3.org/2000/svg" id="Ebene_2" viewBox="0 0 896.53 394.46"><defs><style>.cls-1,.cls-2{fill:none;}.cls-2{stroke:#fff;stroke-linecap:round;stroke-linejoin:round;stroke-width:3px;}</style></defs><g id="Ebene_1-2"><g><g><path class="cls-2" d="M196.44,158.87s-14.68-8.66-19.58-7.53c0,0,3.39,106.92,0,120.09,0,0,15.06,1.51,19.58-4.52s0-108.05,0-108.05Z"></path><path class="cls-2" d="M170.47,154.73s-15.44,2.26-15.81,10.16-4.52,42.92-3.39,48.19,4.14,26.35,4.14,31.62-4.52,20.71-1.13,21.46,16.19,5.44,16.19,5.44v-116.87Z"></path><path class="cls-2" d="M123.12,176.05s-1.97,63.76-3.48,70.91c-1.51,7.15,16.94,3.01,16.94,3.01,0,0,6.02-44.15,1.04-67.51-.51-2.4-2.41-4.27-4.83-4.7l-9.67-1.72Z"></path><path class="cls-2" d="M117.38,176.05s-13.55,8.79-13.18,10.68-4.52,27.29-1.88,36.33,3.76,15.06,2.26,16.19,9.79,8.47,9.79,8.47l3.01-71.66Z"></path><path class="cls-2" d="M227.08,139.91c-2.07,.3-3.65,1.98-3.82,4.06-.75,9.13-2.64,32.87-2.34,35.6,.38,3.39,1.88,2.64,2.64,5.27s-4.52,49.32-7.15,54.59,6.4,10.16,5.65,24.09c-.75,13.93,.15,21.84,1.58,22.96s27.03,4.14,28.16,4.52,3.01-24.85,0-50.07c0,0,5.89-44.05,1.63-54.96,0,0,1.08-33.4-.48-45.92-.26-2.1-2.2-3.57-4.29-3.26l-21.56,3.12Z"></path><path class="cls-2" d="M258.66,290.36c5.65-108.05,1.09-153.61,1.09-153.61,0,0,13.87,3.29,15.38,12.33s8.66,80.19,3.39,109.18l-4.58,25.22c-.42,2.28-2.17,4.09-4.44,4.57l-10.83,2.31Z"></path><path class="cls-2" d="M265.52,133.46s6.59,1.51,10.92,6.4c4.33,4.89,28.42-2.64,30.68-3.11s11.86,0,11.86,0c0,0-3.58,37.65-6.4,47.81-2.82,10.16,1.41,56.56,.28,63.15s-4.24,18.45-2.82,28.33,7.06,21.46,6.49,23.44c-.56,1.98,42.35,2.82,42.35,2.82,0,0,.56-57.32,0-62.12s1.91-52.24,.25-54.49-1.39-59.01-1.95-60.42-24-.28-28.8,1.41-26.54,2.82-31.91,2.54-30.96,4.24-30.96,4.24Z"></path><path class="cls-2" d="M361.71,124.63s2.26,43.56,2.54,48.36-1.13,114.92-1.27,127.91c0,0,14.26-4.24,14.82-12.14,.56-7.91-.85-112.94,0-121.13,.85-8.19-.56-26.45-4.52-30.87s-11.58-12.12-11.58-12.12Z"></path><path class="cls-2" d="M358.89,87.15s.55,5.22,1.98,7.76,.55,23.79,.85,24.64,11.29,10.24,14.68,15.32c0,0,.56-30.78-1.69-35.58s-10.45-11.01-15.81-12.14Z"></path><path class="cls-2" d="M357.38,119.72s1.69-22.21,0-24.85-2.82-7.72-4.71-7.72-101.36,6.78-131.29,25.13c0,0,1.13,20.33,3.11,22.59s36.05-3.95,41.04-5.65c4.99-1.69,21.65-4.1,37.18-4.59s46.68-5.95,54.68-4.91Z"></path><path class="cls-2" d="M514.78,128.82c1.43,10.75,5.67,40.12,.53,55.84,0,0,2.84,44.99,.29,55.9,0,0,2.18,54.78,0,60.33,0,0,32.46,.66,41.12-1.98,8.66-2.64-.75-56.09,0-57.22s3.01-45.55-.38-54.96c0,0,7.91-47.44,0-59.11-6.18-9.12-28.46-5.81-37.89-3.93-2.39,.48-3.99,2.72-3.67,5.13Z"></path><path class="cls-2" d="M509.9,129.98l-10.03,14.96s3.2,123.31,0,145.42c0,0,8.94,5.17,9.79,7.99,.85,2.82,1.98-94.87,.56-107.01-1.41-12.14,2.12-12.52-.33-61.36Z"></path><path class="cls-2" d="M620,140.27c1.06,9.39,4.21,35.06,.4,48.79,0,0,2.11,39.31,.21,48.85,0,0,1.61,47.86,0,52.72,0,0,24.08,.58,30.51-1.73,6.42-2.3-.56-49.01,0-50s2.23-39.8-.28-48.03c0,0,5.49-36.49-.37-46.69-4.58-7.97-20.74-10.04-27.74-8.4-1.77,.42-2.96,2.38-2.72,4.48Z"></path><path class="cls-2" d="M615.83,137.41l-14.87,8.66s.42,119.2-2.38,138.52c0,0,15.76,1.4,16.5,3.87,.74,2.47,2.31-83.97,1.08-94.58-1.23-10.61,1.81-13.79-.32-56.47Z"></path><path class="cls-2" d="M699.34,158.4c.8,7.06,3.16,26.35,.3,36.67,0,0,1.58,29.55,.16,36.72,0,0,1.21,35.98,0,39.62,0,0,16.8-4.93,21.63-6.66s-.42-25.52,0-26.26,.48-46.62-1.41-52.8c0,0,3.47-16.66-1.41-23.44-4.04-5.61-11.96-8.46-17.22-7.23-1.33,.31-2.23,1.79-2.05,3.37Z"></path><path class="cls-2" d="M694.89,152.65l-16.27,6.81s.33,93.73-1.87,108.92c0,0,17.82,1.14,18.4,3.08s1.03-67.66,.06-76,1.36-9.25-.32-42.81Z"></path><path class="cls-2" d="M758.17,179.81c.53,4.73-.02,10.54,.2,18.39,0,0,1.06,19.8,.11,24.6,0,0,.81,24.11,0,26.55,0,0,8.4-4.65,10.8-7.05,2.43-2.43-.14-15.6,.14-16.09s.98-25.51-.28-29.65c0,0,1.15-7.46-2.12-12-2.71-3.76-5.65-7.2-7.47-7.01-.91,.1-1.49,1.2-1.37,2.26Z"></path><path class="cls-2" d="M754.61,176.94l-16.38,2.87s1.19,60.65-.28,70.83c0,0,15.11-1.28,16.78,0,1.08,.82,.67-41.85,.02-47.44-.65-5.59,.98-3.77-.14-26.26Z"></path></g><rect class="cls-1" width="896.53" height="394.46"></rect></g></g></svg> 