<?xml version="1.0" encoding="UTF-8"?>
<svg xmlns="http://www.w3.org/2000/svg" id="Ebene_1" data-name="Ebene 1" viewBox="0 0 36.314 36.315">
  <defs>
    <style>
      .cls-1 {
        fill: #1f609e;
      }
    </style>
  </defs>
  <path id="Pfad_3381" data-name="Pfad 3381" class="cls-1" d="M35.613,32.227l-10.379-10.374c4.405-6.272,2.891-14.927-3.381-19.332S6.927-.369,2.522,5.903C-1.883,12.175-.369,20.83,5.903,25.234c4.786,3.361,11.165,3.361,15.951,0l10.379,10.38c.934.934,2.448.933,3.382,0s.933-2.448,0-3.382h0M13.864,24.716c-5.998-.005-10.857-4.871-10.853-10.869.005-5.998,4.871-10.857,10.869-10.853,5.998.005,10.857,4.871,10.853,10.869-.002,2.88-1.148,5.641-3.185,7.676-2.037,2.039-4.802,3.182-7.684,3.177"></path>
</svg>
