<?xml version="1.0" encoding="UTF-8"?>
<svg xmlns="http://www.w3.org/2000/svg" id="Ebene_1" data-name="Ebene 1" viewBox="0 0 1106.829 1000.003">
  <defs>
    <style>
      .cls-1 {
        fill: #1a65a6;
      }

      .cls-2 {
        fill: #1f609e;
      }
    </style>
  </defs>
  <path id="Differenzmenge_2" data-name="Differenzmenge 2" class="cls-1" d="M1106.82,729.68h-325.4c-.558-27.479-3.839-54.834-9.794-81.664-5.809-26.07-14.143-51.516-24.884-75.971-10.583-24.061-23.437-47.059-38.387-68.68-14.854-21.465-31.695-41.484-50.3-59.793-18.618-18.305-38.919-34.814-60.634-49.311-21.886-14.59-45.118-27.055-69.377-37.223-24.682-10.326-50.315-18.211-76.533-23.547-27.025-5.471-54.527-8.24-82.1-8.27V0h2.853c24.927.113,50.044,1.479,74.653,4.062,24.283,2.555,48.676,6.352,72.5,11.289,23.521,4.873,47.068,10.98,69.986,18.146,22.632,7.076,45.212,15.367,67.114,24.646,43.449,18.426,85.029,40.979,124.169,67.35,38.845,26.193,75.127,56.002,108.36,89.025,33.221,33.033,63.245,69.133,89.672,107.816,26.602,38.969,49.408,80.398,68.106,123.719,9.4,21.811,17.838,44.328,25.066,66.924,7.309,22.85,13.565,46.338,18.6,69.82,5.094,23.779,9.052,48.125,11.765,72.354,2.752,24.578,4.291,49.654,4.574,74.523l-.009.004Z"></path>
  <rect id="Rechteck_9726" data-name="Rechteck 9726" class="cls-2" y="324.003" width="369" height="676"></rect>
  <rect id="Rechteck_9727" data-name="Rechteck 9727" class="cls-2" x="506" y="730.003" width="277" height="270"></rect>
</svg>
