<?xml version="1.0" encoding="utf-8"?>
<!-- Generator: Adobe Illustrator 27.0.0, SVG Export Plug-In . SVG Version: 6.00 Build 0)  -->
<svg version="1.1"
	 id="Ebene_1" xmlns:svg="http://www.w3.org/2000/svg" xmlns:inkscape="http://www.inkscape.org/namespaces/inkscape" xmlns:sodipodi="http://sodipodi.sourceforge.net/DTD/sodipodi-0.dtd" inkscape:version="1.2.1 (0f2f062aeb, 2022-09-21, custom)" sodipodi:docname="Logo_Saeulen.svg"
	 xmlns="http://www.w3.org/2000/svg" xmlns:xlink="http://www.w3.org/1999/xlink" x="0px" y="0px" viewBox="0 0 199.6 42.8"
	 style="enable-background:new 0 0 199.6 42.8;" xml:space="preserve">
<style type="text/css">
	.st0{fill:#A48C5F;}
	.st1{font-family:'RotisSemiSerifStd';}
	.st2{font-size:11.6298px;}
</style>
<sodipodi:namedview  bordercolor="#000000" borderopacity="0.25" id="namedview53" inkscape:current-layer="Ebene_1" inkscape:cx="65.500003" inkscape:cy="21.950001" inkscape:deskcolor="#d1d1d1" inkscape:pagecheckerboard="0" inkscape:pageopacity="0.0" inkscape:showpageshadow="2" inkscape:window-height="1016" inkscape:window-maximized="1" inkscape:window-width="1920" inkscape:window-x="0" inkscape:window-y="0" inkscape:zoom="9.9999996" pagecolor="#ffffff" showgrid="false">
	</sodipodi:namedview>
<g>
	<path class="st0" d="M80.7,29.8c0-1,0-2.1,0-3.1h0c0-2.3,0-4.7,0-7c0-0.1-0.1-0.2-0.1-0.3c0-0.1,0.1-0.3,0.1-0.5
		c0-4.9-0.1-9.2-0.3-11.1c-0.6,1.1-1.8,2.9-2.5,3.2c0.4,1.2,0.5,15.7,0.5,15.7c0,6.4-0.2,12.6-0.5,13.8c0.7,0.1,1.8,1,2.4,1.6
		c0.2-1.7,0.4-6.4,0.4-11.9c0-0.1-0.1-0.2-0.1-0.2C80.6,29.9,80.7,29.9,80.7,29.8z"/>
	<path class="st0" d="M14,30.4v-0.5c0.1,0,0.3-1.4,0.4-3.3c0,0,0.1-1.3,0.1-2c0-3-0.4-5.1-0.5-5.1h-0.3l0.2-0.5H14
		c0.2,0,0.4-1.3,0.4-3c0-0.8,0-1.6-0.1-2.2c0-0.3,0-0.5-0.1-0.7c-0.1,0-0.1-0.1-0.1-0.1c-0.4,0.1-0.8,0.3-1.4,0.5
		c-0.6,0.3-1.3,0.6-2.3,1.1c0,0,0,0,0,0.1c0,0.2-0.1,0.4-0.1,0.6c-0.1,0.4-0.2,1-0.2,1.5c0,0.3,0,0.5-0.1,0.7c0,0.2-0.1,0.4-0.2,0.6
		c-0.2,0.4-0.3,0.7-0.3,1.3c0.2,0.4,0.1,1.2,0,2.1c-0.1,0.9-0.3,2.1-0.3,3.3c0,0.6,0,1.1,0.1,1.7c0,0,0,1,0.1,1.5
		c0.1,0.9,0.2,1.6,0,2c0.5,0.4,0.6,1.6,0.6,2.5c0,0.9-0.1,2-0.5,2.5c0.6,0.5,1.5,0.7,2.4,0.9c0.5,0.1,0.9,0.2,1.3,0.3
		c0.3,0.1,0.6,0.2,0.8,0.3c0.2-0.4,0.4-1.7,0.4-3.1C14.4,31.5,14.1,30.4,14,30.4z"/>
	<path class="st0" d="M130.9,26.6c0-0.6,0-1.2,0-1.8c0-1.5,0-2.8-0.1-3.7c0-0.5-0.1-0.8-0.1-1.1v-0.3h-0.1v-0.4
		c0-0.1-0.2-0.3-0.4-0.5c-0.1-0.1-0.1-0.1-0.2-0.2l-0.1-0.2c-0.1-0.1-0.2-0.2-0.3-0.3c-0.1-0.1-0.4-0.2-0.8-0.3
		c0.5,0.5,0.1,1.4-0.2,1.7c0.2,0.6,0.3,3,0.3,5.2c0,0.6,0,1.3,0,1.9l1.4,0.1l-1.5,0.1c-0.1,1.5-0.1,2.9-0.3,3.4
		c0.1,0.1,0.2,0.2,0.2,0.3c0.1,0.2,0.1,0.4,0.1,0.7c0.1,0.3,0,0.5,0,0.7c0.5-0.3,0.8-0.5,1-0.7c0.2-0.2,0.4-0.3,0.5-0.5
		c0-0.1,0.1-0.2,0.2-0.3c0-0.1,0.1-0.2,0.3-0.3V30v-0.3c0.1-0.3,0.1-0.7,0.1-1.2C131,27.9,131,27.3,130.9,26.6L130.9,26.6z"/>
	<path class="st0" d="M6.2,18.3L6.2,18.3l-0.1-0.1C5.9,18.1,5.5,18,5,17.9c-0.8-0.1-1.7-0.3-2.3-0.3c0.1,0.2,0.2,0.4,0.2,0.6
		c0,0,0,0.1,0,0.1c0.3,1.3,0.4,4,0.4,6.5c0,0.6,0,1.2,0,1.8c0,2.5-0.2,4.7-0.6,5.5c1.1,0,3,0,3.6,0c0.4-0.6,0.5-3,0.5-5.6
		C6.8,22.7,6.6,18.3,6.2,18.3z"/>
	<path class="st0" d="M128.1,17.6c-0.7,0.2-2.8,0.6-3.6,0.7c0.3,0.8,0.4,4,0.4,6.9c0,0.5,0,0.9,0,1.3c0,0-0.2,4.9-0.4,5.6
		c0.9,0,2.9,0,3.6,0c0.2-0.5,0.3-3,0.3-5.6C128.4,26.5,128.3,18.4,128.1,17.6z"/>
	<path class="st0" d="M121,14.7l-0.3,0.1v-0.2c0-0.7-1.2-1.2-4-1.4c1,1.2,0.6,5.4,0.1,6.2c0.3,0.6,0.4,3.1,0.4,5.3
		c0,0.6,0,1.2,0,1.8c-0.1,1.6-0.2,3-0.4,3.5c0.3,0.5,0.4,2,0.4,3.3c0,1.2,0,2.4-0.2,3.1c2-0.5,3.4-1,4.4-1.5c0,0,0,0,0-0.1
		c0-0.1,0.1-0.3,0.1-0.5c0.1-0.4,0.1-1,0.1-1.7s0-1.3-0.1-1.7c0-0.2-0.1-0.4-0.1-0.5h-0.2l0.1-0.5h0.1v-0.1v-0.3
		c0-0.2,0.1-0.6,0.1-1.1c0.1-0.5,0.1-1.1,0.1-1.8c0-0.6,0-1.2,0-1.9c0-1.4,0-2.7-0.1-3.7c0-0.4-0.1-0.8-0.1-1.1c0-0.1,0-0.2,0-0.3
		h-0.2l0.2-0.4v-0.1V19c0-0.1,0.1-0.3,0.1-0.5c0.1-0.4,0.1-1,0.1-1.7c0-0.6,0.1-1.3,0-1.7C121.5,14.7,121.4,14.6,121,14.7z"/>
	<path class="st0" d="M1.5,18.5c-0.4,0.4-0.9,0.8-1.2,1.1c0,0.1,0,0.3,0,0.6c0,0.4-0.1,0.8-0.1,1.3c-0.1,1-0.2,2.3-0.2,3.4
		c0,0.6,0.1,1.1,0.1,1.6l-0.1,0c0,0.6,0.1,1.1,0.1,1.6c0.1,0.9,0.1,1.6-0.1,2c0.3,0.3,0.5,0.4,0.8,0.6c0.3,0.2,0.6,0.4,0.8,0.5
		c0.4,0.2,0.8,0.4,1,0.7c0.2-0.1,0.3-0.4,0.3-0.8c0-0.6-0.3-0.8-0.5-0.8H2.1l0.2-0.5h0.1c0.1,0,0.3-1.3,0.5-3.2l-0.1,0
		c0.1-0.6,0.1-1.2,0.1-1.9c0-3-0.4-5.1-0.5-5.1H2.1l0.2-0.5h0.1c0.2,0,0.5-0.3,0.5-0.8c-0.1-0.3-0.1-0.5-0.2-0.7
		C2.3,17.8,1.9,18.1,1.5,18.5z"/>
	<path class="st0" d="M50.4,1.6v1.5l-0.1,3.3c0.2,0.2,0.9,0.8,1.5,1.4C52.4,8.4,53,9,53.3,9.4c0.1-0.3,0.1-0.7,0.3-1.2
		c0.1-0.9,0-3.5,0-3.6L53.4,3l-0.6-1.4L50,0c0.1,0.1,0.1,0.4,0.1,0.6C50.2,1,50.4,1.3,50.4,1.6z"/>
	<path class="st0" d="M27.1,9c0,0,0.9,0,1.9-0.1c1-0.1,2-0.2,2.1-0.3c0.2-0.1,1.4-0.4,2.5-0.6c1.1-0.2,2.3-0.4,2.6-0.5
		c0.3-0.1,2-0.2,3.5-0.2c0.8,0,1.6,0,2.2,0c0.6,0,1,0,1.1,0c0.3,0,5.8-0.7,7-0.8c0-0.3-0.1-2.8-0.2-4.1c0-0.8-0.2-1.5-0.4-1.9
		C49.3,0.2,49.2,0,49.1,0l-3.8,0.2l-5.8,0.9l-7.9,1.2c0,0-2.3,0.8-4.2,1.2c-2,0.4-3.9,1-4.2,1c-0.4,0.4,0.2,4.3,0.3,5L27.1,9z"/>
	<path class="st0" d="M17.9,14.2L18,14c0,0,0-0.1-0.1-0.1c-0.2-0.1-0.6-0.3-1.1-0.5c-0.8-0.3-1.7-0.6-2.3-0.7
		c0.5,1.4,0.7,7.9,0.6,13.8l-0.1,0c-0.1,4.7-0.3,9-0.7,10.1c0.6-0.1,1.6-0.3,2.4-0.5c0.5-0.1,0.9-0.2,1.2-0.3v-0.1H18
		c0.5,0,0.6-4.4,0.6-9.1C18.5,20.7,18.2,14.2,17.9,14.2L17.9,14.2z"/>
	<path class="st0" d="M53.8,11.3L53.8,11.3L53.7,11c0-0.1,0-0.1,0-0.1c0-0.1-0.1-0.3-0.2-0.5c-0.2-0.4-0.6-1-1-1.5
		c-0.7-0.9-1.5-1.7-2-2C51,8.8,51.2,18,51.3,26.6v0.1c0,7.3-0.1,14.2-0.4,15.7c0.4-0.2,1.1-0.6,1.7-1c0.3-0.3,0.6-0.5,0.8-0.7
		l0.1-0.1l-0.1-0.2h0.1c0.5-0.1,0.6-6.7,0.6-13.6l0.1,0C54.2,19.2,54,11.3,53.8,11.3z"/>
	<path class="st0" d="M29.5,19.3c0.1,0,0.4-2.3,0.4-4.9c0-2.7-0.2-4.8-0.3-4.8c-1.4,0-3.4,0.4-6.2,1.2c0.3,0.5,0.1,2.1,0,3.7
		c-0.1,0.9-0.1,1.8-0.2,2.7c-0.1,0.8-0.1,1.6,0,2.1c0.2,0.4,0.2,1.2,0.1,2.1c-0.1,1-0.2,2.2-0.2,3.4c0,0.7-0.1,1.3-0.1,1.8l0.1,0
		c-0.1,1.1-0.4,2-0.6,3.5c0.3,1.5,0.6,1.9,0.6,3.8c0,0.9,0.1,2,0.2,3c0.1,0.8,0.2,1.6,0,2c0.9,0.5,2,0.7,3.2,0.8
		c0.6,0.1,1.2,0.1,1.7,0.2c0.4,0,0.9,0.1,1.2,0.2c0.3-0.5,0.5-2.6,0.5-4.9c0-2.8-0.4-4.8-0.4-4.8h-0.3l0.2-0.5h0.1
		c0.1,0,0.3-1.3,0.4-3.1l0,0c0-0.6,0-1.2,0-1.9c0-3-0.3-5.1-0.4-5.1h-0.3L29.5,19.3L29.5,19.3z"/>
	<path class="st0" d="M107.5,19.1c0.1-0.1,0.1-0.2,0.1-0.3c0-0.2,0.1-0.6,0.1-1c0-0.8,0.1-1.9,0.1-3c0-1.1,0-2.1-0.1-2.9
		c0-0.4-0.1-0.7-0.2-0.9c0-0.1-0.1-0.2-0.1-0.2h-0.1l-0.2,0.1l-0.1-0.1c-0.6-0.7-2.5-1.2-5.9-1.2c1.1,1.6,0.8,8.7,0.2,9.8
		c0.3,0.6,0.4,3,0.4,5.3c0,0.6,0,1.3,0,1.9c0,1.6-0.2,3-0.4,3.5c0.3,0.6,0.4,2.9,0.4,5.1c0,2-0.1,4-0.3,4.9c2.6-0.5,4.7-0.9,6.1-1.2
		v-0.1c0-0.1,0-0.2,0-0.3c0-0.3,0.1-0.6,0.1-1c0-0.8,0.1-1.9,0.1-3.1s0-2.3-0.1-3.1c0-0.4-0.1-0.7-0.1-0.9c0-0.1,0-0.1,0-0.2h-0.2
		l0.1-0.5h0.1v-0.1c0-0.1,0-0.2,0-0.3c0-0.2,0.1-0.6,0.1-1.1s0.1-1.1,0.1-1.8l-0.1,0c0-0.5,0-1.1,0-1.7c0-1.5,0-2.8-0.1-3.7
		c0-0.5-0.1-0.8-0.1-1.1v-0.3h-0.2L107.5,19.1L107.5,19.1z"/>
	<path class="st0" d="M50.3,7.2L50.3,7.2c-1.1-0.1-2.2,0-3.5,0.2C45.5,7.6,44,8,42.2,8.3c0.1,0.3,0.2,0.7,0.2,1.3c0,0,0,0.1,0,0.1
		c0,0.1,0,0.1,0,0.2c0,0,0,0,0,0c0.1,3-0.6,8.6-1.3,9.6c0.2,0.3,0.1,1,0,1.9c-0.1,0.9-0.3,2.1-0.3,3.3c0,0.6,0,1.3,0.1,1.9h-0.1
		c0.1,0.5,0.1,1,0.2,1.5c0.1,0.9,0.2,1.7,0,2c0.1,0.2,0.1,0.5,0.1,0.8s-0.1,0.8-0.2,1.3c-0.2,1.1-0.4,2.4-0.4,3.7s0.4,2.6,0.7,3.7
		c0.1,0.5,0.3,1,0.4,1.4c0.1,0.3,0.2,0.6,0.1,0.8c1.6,0.6,3.2,0.7,4.6,0.7c0.8,0,1.5,0,2.1,0c0.6,0,1.2,0,1.8,0.1
		c0.2-0.5,0.4-3.2,0.4-6.2c0-1.7-0.1-3.2-0.2-4.3c0-0.5,0-3.5,0.1-5.3c0,0,0.1-1.2,0.1-1.9c0-3-0.3-5.1-0.3-5.1S51.1,6.8,50.3,7.2z"
		/>
	<path class="st0" d="M100.7,9.6c-0.7,0.6-2.8,1.8-3.6,2c0.4,1.2,0.5,8.3,0.5,15c0,0-0.1,11.4-0.4,12.6c0.8,0,2.8,0.5,3.6,0.8
		c0.3-1.3,0.4-7.2,0.4-13.4"/>
	<path class="st0" d="M89.2,19.2c0,0,0.3-2.8,0.3-5.8c0-3.1-0.1-5.6-0.5-5.5h-0.2c-1.5-0.7-4.3-1-8.3-0.8c0.9,1.7,0.7,9.6,0.2,11.8
		c0,0.3,0,0.5,0,0.8c0.3,0.9,0.4,3,0.4,5c0,0.6,0,1.2,0,1.8h0c-0.1,1.4-0.2,2.7-0.4,3.3c0,0.1,0,0.3,0,0.4c0.3,1,0.4,3.6,0.4,6.1
		c0,2.6-0.1,5.2-0.4,6.2c3.5-0.3,6.3-0.5,8.4-0.7c0.1-0.1,0.3-2.7,0.3-5.8c0-1.6,0-3.1-0.1-4.1c0-0.5-0.1-0.9-0.1-1.2v-0.3H89
		l0.1-0.5h0.1v-0.1c0-0.1,0-0.2,0-0.3c0-0.2,0.1-0.6,0.1-1.1s0.1-1.1,0.1-1.8h0.1c0-0.6,0-1.2,0-1.9c0-1.4,0-2.7-0.1-3.6
		c0-0.5-0.1-0.8-0.1-1.1c-0.1-0.1-0.1-0.2-0.1-0.3h-0.3L89.2,19.2L89.2,19.2z"/>
	<path class="st0" d="M33.4,11.6L33.4,11.6c0.1-0.1,0-0.2-0.1-0.3c-0.2-0.2-0.6-0.5-1.1-0.8c-0.8-0.5-1.8-1-2.3-1.1
		c0.5,1.5,0.7,9.7,0.6,17.2h0.1c0,6.4-0.2,12.2-0.6,13.5c0.5-0.1,1.5-0.3,2.3-0.5c0.4-0.1,0.8-0.2,1.1-0.3c1-2.8,1.3-7.8,1.3-12.7
		C34.7,19.1,33.9,11.6,33.4,11.6L33.4,11.6z"/>
	<path class="st0" d="M42.3,9.1c-0.1-0.4-0.2-0.8-0.3-1c-0.7,0-3.8,0-4.7,0.1c-0.9,0.2-4.6,0.9-5.9,1.1l2.9,1.3
		c0.3,0,1.5-0.1,2.7-0.2c1.3-0.1,2.5-0.2,2.8-0.4c0.4-0.2,0.9-0.2,1.4-0.2c0.3,0,0.5,0.1,0.7,0.1c0.2,0,0.4,0,0.5,0
		c0-0.1,0-0.2,0-0.3C42.4,9.4,42.3,9.3,42.3,9.1z"/>
	<path class="st0" d="M112.7,14.2c0.3,1,0.4,5.9,0.4,10.7c0,0.6,0,1.1,0,1.7c0,4.2-0.1,8.1-0.4,9.1c0.8,0.1,2.8,0.6,3.6,0.9
		c0.2-1.1,0.3-5.4,0.3-10c0-5.8-0.1-12.2-0.3-13.7C115.6,13.3,113.5,14,112.7,14.2z"/>
</g>
<text transform="matrix(1 0 0 1 141.5125 11.1617)" class="st0 st1 st2">steuer</text>
<text transform="matrix(1 0 0 1 141.5125 24.4527)" class="st0 st1 st2">bilanz</text>
<text transform="matrix(1 0 0 1 141.5125 37.7437)" class="st0 st1 st2">treuhand ag</text>
</svg>
