<?xml version="1.0" encoding="utf-8"?>
<!-- Generator: Adobe Illustrator 15.0.0, SVG Export Plug-In . SVG Version: 6.00 Build 0)  -->
<svg version="1.2" baseProfile="tiny" id="Ebene_1" xmlns="http://www.w3.org/2000/svg" xmlns:xlink="http://www.w3.org/1999/xlink"
	 x="0px" y="0px" width="180px" height="60px" viewBox="0 0 180 60" xml:space="preserve">
<g>
	<g>
		<path fill-rule="evenodd" fill="#0053A1" d="M65.034,14.129c0.003,1.45,0.003,3.188,0,4.588c-2.684-0.731-5.946-0.909-7.661,0.82
			c-1.28,1.291-1.583,3.56-0.532,5.326c1.378,2.313,5.284,2.409,8.358,1.515c0,1.475,0,2.95,0,4.426
			c-2.766,1.153-6.889,1.281-9.957,0.245c-2.914-0.982-5.063-2.942-6.145-5.694c-1.303-3.319-0.055-6.825,1.885-8.726
			c2.037-1.996,5.095-3.076,8.685-3.072C61.609,13.558,63.371,13.639,65.034,14.129z"/>
	</g>
	<g>
		<path fill-rule="evenodd" fill="#0053A1" d="M45.78,14.088c0,1.543,0,3.085,0,4.629c-2.896-0.748-6.14-0.928-7.825,1.106
			c-0.585,0.707-1.087,1.731-0.942,3.153c0.282,2.752,2.671,4.189,5.858,3.975c1.047-0.069,2.102-0.414,3.114-0.531
			c0,1.446,0,2.894,0,4.342c-3.404,1.589-8.788,1.235-11.839-0.533c-2.406-1.391-4.315-3.829-4.671-6.677
			c-0.424-3.409,1.294-6.112,3.155-7.62c0.905-0.733,1.94-1.252,3.072-1.638C38.489,13.343,42.583,13.353,45.78,14.088z"/>
	</g>
	<g>
		<path fill-rule="evenodd" fill="#0053A1" d="M69.156,13.843h7.309c0,0-0.001,3.496,0,5.408c0,1.877-0.141,3.813,0,5.408
			c0.073,0.844,0.451,1.628,1.065,1.966c1.134,0.624,2.63,0.125,3.072-0.86c0.324-0.721,0.206-1.788,0.206-2.828
			c-0.001-3.057,0-9.094,0-9.094s4.643,0,6.964,0c0.001,2.479,0,5.133,0,7.743c0.001,2.508,0.273,5.311-0.738,6.964
			c-2.414,3.948-11.989,4.241-15.731,1.27c-1.027-0.815-1.928-2.065-2.131-3.564c-0.016-0.124-0.027-0.401-0.027-0.401
			L69.156,13.843z"/>
	</g>
	<g>
		<path fill-rule="evenodd" fill="#0053A1" d="M92.861,13.843c0,0,13.154-0.02,14.29,0c2.245,0.039,4.331,1.795,4.546,3.933
			c0.299,2.956-1.389,4.492-3.441,5.285c0.485,0.383,0.992,0.531,1.435,0.901c0.888,0.743,1.239,2.043,1.596,3.359
			c0.367,1.342,0.592,2.842,0.78,4.177c-1.864,0-3.777,0-5.777,0c-0.626,0-1.44,0.048-1.68-0.204
			c-0.227-0.239-0.227-1.032-0.286-1.556c-0.068-0.606-0.097-1.082-0.164-1.597c-0.127-0.968-0.233-2.201-1.064-2.581
			c-0.455-0.208-2.993-0.124-2.993-0.124l-0.041,6.062h-7.167L92.861,13.843z M99.899,17.817c0,1.119,0,2.239,0,3.36
			c1.443-0.003,3.335,0.337,4.136-0.575c0.381-0.431,0.545-1.299,0.246-2.007c-0.495-1.179-2.607-0.842-4.3-0.901
			C99.929,17.71,99.896,17.746,99.899,17.817z"/>
	</g>
	<g>
		<polygon fill-rule="evenodd" fill="#0053A1" points="139.188,18.513 145.415,18.524 145.415,31.498 152.91,31.498 152.91,18.513 
			159.057,18.513 159.057,13.843 139.195,13.843 		"/>
	</g>
	<g>
		<polygon fill-rule="evenodd" fill="#0053A1" points="178.229,13.843 178.229,31.498 170.719,31.498 170.69,19.004 160.858,31.498 
			154.918,31.498 168.663,13.817 		"/>
	</g>
	<g>
		<polygon fill-rule="evenodd" fill="#0053A1" points="135.856,13.843 135.856,31.498 128.347,31.498 128.318,19.004 
			118.486,31.498 112.547,31.498 126.29,13.817 		"/>
	</g>
	<g>
		<polygon fill-rule="evenodd" fill="#0053A1" points="26.111,13.843 26.111,31.498 18.601,31.498 18.573,19.004 8.74,31.498 
			2.799,31.498 16.543,13.817 		"/>
	</g>
</g>
<g>
	<g>
		<path d="M131.266,36.874h0.867v4.283h3.809v-4.283h0.866v9.77h-0.866v-4.675h-3.809v4.675h-0.867V36.874z"/>
		<path d="M142.085,36.776c3.444,0,3.444,4.128,3.444,4.982c0,0.853,0,4.983-3.444,4.983s-3.444-4.131-3.444-4.983
			C138.641,40.904,138.641,36.776,142.085,36.776z M142.085,45.93c2.52,0,2.52-3.4,2.52-4.171c0-0.77,0-4.171-2.52-4.171
			c-2.519,0-2.519,3.401-2.519,4.171C139.566,42.529,139.566,45.93,142.085,45.93z"/>
		<path d="M147.363,36.874h0.865v8.958h3.179v0.812h-4.044V36.874z"/>
		<path d="M152.808,36.874h1.273c3.247,0,4.773,1.582,4.773,4.746c0,2.84-1.386,5.023-4.536,5.023h-1.511V36.874z M153.675,45.832
			h0.896c2.169,0,3.361-1.624,3.361-4.073c0-1.525-0.24-4.074-3.516-4.074h-0.741V45.832z"/>
		<path d="M160.59,36.874h0.868v9.77h-0.868V36.874z"/>
		<path d="M163.697,36.874h1.119l4.101,8.678h0.03v-8.678h0.81v9.77h-1.118l-4.102-8.622h-0.027v8.622h-0.813V36.874z"/>
		<path d="M175.496,41.396h2.619v4.814c-0.701,0.378-1.457,0.532-2.254,0.532c-3.431,0-4.271-3.221-4.271-5.082
			c0-2.506,1.498-4.884,4.241-4.884c0.784,0,1.75,0.308,2.045,0.475l-0.043,0.953c-0.379-0.296-1.314-0.616-2.057-0.616
			c-1.4,0-3.262,1.063-3.262,4.157c0,1.791,0.812,4.185,3.386,4.185c0.504,0,0.897-0.056,1.346-0.293v-3.432h-1.751V41.396z"/>
	</g>
	<g>
		<g>
			<path d="M131.266,36.874h0.867v4.283h3.809v-4.283h0.866v9.77h-0.866v-4.675h-3.809v4.675h-0.867V36.874z"/>
		</g>
		<g>
			<path d="M142.085,36.776c3.444,0,3.444,4.128,3.444,4.982c0,0.853,0,4.983-3.444,4.983s-3.444-4.131-3.444-4.983
				C138.641,40.904,138.641,36.776,142.085,36.776z M142.085,45.93c2.52,0,2.52-3.4,2.52-4.171c0-0.77,0-4.171-2.52-4.171
				c-2.519,0-2.519,3.401-2.519,4.171C139.566,42.529,139.566,45.93,142.085,45.93z"/>
		</g>
		<g>
			<path d="M147.363,36.874h0.865v8.958h3.179v0.812h-4.044V36.874z"/>
		</g>
		<g>
			<path d="M152.808,36.874h1.273c3.247,0,4.773,1.582,4.773,4.746c0,2.84-1.386,5.023-4.536,5.023h-1.511V36.874z M153.675,45.832
				h0.896c2.169,0,3.361-1.624,3.361-4.073c0-1.525-0.24-4.074-3.516-4.074h-0.741V45.832z"/>
		</g>
		<g>
			<path d="M160.59,36.874h0.868v9.77h-0.868V36.874z"/>
		</g>
		<g>
			<path d="M163.697,36.874h1.119l4.101,8.678h0.03v-8.678h0.81v9.77h-1.118l-4.102-8.622h-0.027v8.622h-0.813V36.874z"/>
		</g>
		<g>
			<path d="M175.496,41.396h2.619v4.814c-0.701,0.378-1.457,0.532-2.254,0.532c-3.431,0-4.271-3.221-4.271-5.082
				c0-2.506,1.498-4.884,4.241-4.884c0.784,0,1.75,0.308,2.045,0.475l-0.043,0.953c-0.379-0.296-1.314-0.616-2.057-0.616
				c-1.4,0-3.262,1.063-3.262,4.157c0,1.791,0.812,4.185,3.386,4.185c0.504,0,0.897-0.056,1.346-0.293v-3.432h-1.751V41.396z"/>
		</g>
	</g>
</g>
</svg>
