<svg xmlns="http://www.w3.org/2000/svg" id="Ebene_1" data-name="Ebene 1" viewBox="0 0 355.85 107.6" width="355.85px" height="107.6px">
  <defs>
    <style>.cls-1 { fill: rgb(253, 253, 253); }
.cls-2 { fill: none; stroke: rgb(253, 253, 253); stroke-width: 2.41px; }
</style>
  </defs>
  <path class="cls-1" d="M15.54 53.1h-2.7V31.36H7v-2.5h14.45v2.5h-5.91zM30.14 53.1h-2.71V28.86h3.51c4.6 0 8.87 1.22 8.87 6.68a6.33 6.33 0 01-6.07 6.69l7.71 10.87h-3.31l-7.33-10.64h-.67zm0-13H31c3.06 0 6.14-.58 6.14-4.34 0-4-2.92-4.38-6.17-4.38h-.8zM48.08 28.86h12.57v2.5h-9.87v7.21h9.58v2.5h-9.58v9.52h9.87v2.51H48.08zM71.06 43.29c0 1.8-.06 3.86 1.06 5.4A6.27 6.27 0 0077 51a6.43 6.43 0 004.76-2.16c1.3-1.53 1.24-3.65 1.24-5.55V28.86h2.7V44c0 2.64-.19 4.73-2.12 6.72a8.92 8.92 0 01-6.58 2.8A9.07 9.07 0 0170.74 51c-2.12-2-2.38-4.24-2.38-7V28.86h2.7zM108.91 38.69v-9.83h2.7V53.1h-2.7V41.2H96.5v11.9h-2.7V28.86h2.7v9.83zM123.47 46.22l-2.92 6.88h-3l11.19-25.4 10.9 25.4h-3l-2.86-6.88zM128.71 34l-4.15 9.71h8.2zM145.69 27.83l18.9 19.8V28.86h2.7v25.33l-18.9-19.77V53.1h-2.7zM175.52 28.86h4.57c3.63 0 6.59.48 9.45 2.92a11.73 11.73 0 014 9.23 11.7 11.7 0 01-3.95 9c-2.9 2.57-5.79 3.06-9.58 3.06h-4.51zm4.67 21.73c2.95 0 5.43-.42 7.65-2.51a9.91 9.91 0 00-.13-14.37c-2.22-2-4.66-2.35-7.52-2.35h-2v19.23zM240.64 33.58a4.44 4.44 0 00-4.18-2.58 3.85 3.85 0 00-4 3.76c0 2.09 2.16 3 3.8 3.79l1.6.71c3.15 1.38 5.82 3 5.82 6.81a7.65 7.65 0 01-15.17 1.23l2.63-.74A5 5 0 00236 51a4.88 4.88 0 005-4.73c0-2.83-2.22-3.79-4.47-4.82l-1.53-.63c-2.83-1.29-5.27-2.74-5.27-6.21 0-3.76 3.18-6.17 6.78-6.17a6.94 6.94 0 016.27 3.76zM253.47 43.29c0 1.8-.07 3.86 1.06 5.4a6.26 6.26 0 004.89 2.31 6.44 6.44 0 004.76-2.16c1.28-1.54 1.18-3.66 1.18-5.56V28.86h2.7V44c0 2.64-.19 4.73-2.12 6.72a8.91 8.91 0 01-6.52 2.77 9.05 9.05 0 01-6.27-2.49c-2.12-2-2.38-4.24-2.38-7V28.86h2.7zM278.8 53.1h-2.7V28.86h2.7zM297.93 33.58a4.44 4.44 0 00-4.18-2.58 3.84 3.84 0 00-4 3.76c0 2.09 2.15 3 3.79 3.79l1.61.71c3.15 1.38 5.82 3 5.82 6.81a7.65 7.65 0 01-15.18 1.23l2.64-.74a5 5 0 004.85 4.5 4.88 4.88 0 005-4.73c0-2.83-2.22-3.79-4.47-4.82l-1.48-.64c-2.83-1.29-5.27-2.74-5.27-6.21 0-3.76 3.18-6.17 6.78-6.17a7 7 0 016.27 3.76zM319.12 33.58a4.44 4.44 0 00-4.18-2.58 3.85 3.85 0 00-4 3.76c0 2.09 2.16 3 3.8 3.79l1.6.71c3.16 1.38 5.82 3 5.82 6.81A7.65 7.65 0 01307 47.25l2.63-.74a5 5 0 004.86 4.5 4.88 4.88 0 005-4.73c0-2.83-2.21-3.79-4.47-4.82l-1.47-.64c-2.83-1.29-5.28-2.74-5.28-6.21 0-3.76 3.19-6.17 6.79-6.17a7 7 0 016.27 3.76zM329.31 28.86h12.58v2.5H332v7.21h9.58v2.5H332v9.52h9.87v2.51h-12.56z"/>
  <path class="cls-2" d="M211.67 6.3v68.36"/>
  <path class="cls-1" d="M7.65 92.74h1.21c.13 2.18 1.6 3.41 4 3.41 1.89 0 3.3-1 3.3-2.7s-1.21-2.25-4-2.81c-2.38-.47-4.05-1.19-4.05-3.44 0-2 1.73-3.4 4.3-3.4 2.86 0 4.3 1.54 4.54 3.76h-1.12a3 3 0 00-3.35-2.76c-2 0-3.15.94-3.15 2.36s1.19 2 3.49 2.43c2.5.49 4.57 1.1 4.57 3.8 0 2.29-1.83 3.77-4.53 3.77-3.39 0-5.06-1.91-5.21-4.42zM18.59 92.28c0-2.78 1.55-4.88 4.25-4.88a3.48 3.48 0 013.75 3h-1.12a2.42 2.42 0 00-2.63-2.09c-2.14 0-3.09 1.79-3.09 4s1 3.92 3.07 3.92a2.62 2.62 0 002.76-2.48h1.06a3.58 3.58 0 01-3.82 3.44c-2.71-.03-4.23-2.14-4.23-4.91zM28 84.05h1.12v5a3.57 3.57 0 013.11-1.63 2.73 2.73 0 013 2.9v6.61h-1.08v-6.5a1.88 1.88 0 00-2.13-2A2.74 2.74 0 0029.14 91v5.9H28zM36.08 87.61h1.17l1.62 5.76c.25.92.6 2.44.6 2.44s.36-1.5.6-2.35l1.58-5.85h1.21l1.53 5.85c.21.85.56 2.35.56 2.35s.38-1.54.65-2.44l1.73-5.76h1.13l-2.93 9.31h-1.17L42.76 91c-.23-.88-.48-2.11-.48-2.11S42 90.1 41.75 91l-1.64 5.94h-1.26zM48.89 92.28c0-2.79 1.68-4.88 4.25-4.88 3 0 4 2.46 4 5.07H50c.06 2.09 1.07 3.73 3.19 3.73A2.6 2.6 0 0056 94.11h1a3.64 3.64 0 01-3.8 3c-2.76.05-4.31-2.04-4.31-4.83zm7.11-.69c-.06-1.83-.92-3.27-2.83-3.27s-2.88 1.42-3.08 3.27zM58.66 84.05h1.11v1.58h-1.11zm0 3.56h1.11v9.31h-1.11zM61.05 96l5.43-7.33h-5.07v-1H68v.8l-5.55 7.47v.05h5.71v1h-7.11zM68.63 92.28c0-2.79 1.67-4.88 4.24-4.88 3 0 4 2.46 4 5.07h-7.09c0 2.09 1.06 3.73 3.18 3.73a2.6 2.6 0 002.72-2.09h1.08a3.63 3.63 0 01-3.8 3c-2.79.05-4.33-2.04-4.33-4.83zm7.07-.69c0-1.83-.92-3.27-2.83-3.27S70 89.74 69.8 91.59zM78.35 87.61h1.12v1.73a3.16 3.16 0 012.85-1.8 1 1 0 01.3 0v1.1a2.67 2.67 0 00-2 .45 3 3 0 00-1.2 2.5v5.29h-1.07zM83.85 84.05H85v1.58h-1.15zm0 3.56H85v9.31h-1.15zM86.33 94h1.14c.16 1.57 1.24 2.2 2.73 2.2s2.36-.72 2.36-1.8-.57-1.37-2.48-1.8-3.41-.88-3.41-2.68c0-1.55 1.34-2.53 3.24-2.53 2.22 0 3.25 1.12 3.46 2.76h-1.11c-.13-1.21-1-1.84-2.35-1.84s-2.12.69-2.12 1.55c0 1.06.88 1.32 2.66 1.73s3.23.86 3.23 2.79c0 1.66-1.33 2.77-3.5 2.77-2.48.02-3.74-1.33-3.85-3.15zM94.62 92.28c0-2.78 1.55-4.88 4.25-4.88a3.48 3.48 0 013.75 3h-1.12a2.42 2.42 0 00-2.63-2.09c-2.14 0-3.1 1.79-3.1 4s1 3.92 3.08 3.92a2.62 2.62 0 002.76-2.48h1.06a3.58 3.58 0 01-3.82 3.44c-2.72-.03-4.23-2.14-4.23-4.91zM104.05 84.05h1.12v5a3.6 3.6 0 013.12-1.63 2.73 2.73 0 013 2.9v6.61h-1.12v-6.5a1.87 1.87 0 00-2.12-2 2.74 2.74 0 00-2.88 2.57v5.9h-1.12zM112.72 92.28c0-2.79 1.68-4.88 4.25-4.88 3 0 4 2.46 4 5.07h-7.09c.05 2.09 1.06 3.73 3.18 3.73a2.6 2.6 0 002.72-2.09h1.08a3.63 3.63 0 01-3.8 3c-2.79.05-4.34-2.04-4.34-4.83zm7.08-.69c0-1.83-.92-3.27-2.83-3.27s-2.88 1.42-3.08 3.27zM122.45 87.61h1.12v1.73a3.16 3.16 0 012.85-1.8 1 1 0 01.3 0v1.1a2.67 2.67 0 00-2 .45 3 3 0 00-1.2 2.5v5.29h-1.12zM134.74 85.13h-4.35v-1.08h9.9v1.08H136v11.79h-1.21zM139.94 87.61h1.12v1.73a3.16 3.16 0 012.85-1.8 1 1 0 01.3 0v1.1a2.67 2.67 0 00-2 .45 3 3 0 00-1.2 2.5v5.29h-1.12zM144.63 92.28c0-2.79 1.68-4.88 4.25-4.88 3 0 4 2.46 4 5.07h-7.09c.05 2.09 1.06 3.73 3.18 3.73a2.6 2.6 0 002.72-2.09h1.08a3.64 3.64 0 01-3.8 3c-2.79.05-4.34-2.04-4.34-4.83zm7.08-.69c-.06-1.83-.92-3.27-2.83-3.27s-2.88 1.42-3.08 3.27zM154.29 94.18v-6.57h1.12v6.5a1.93 1.93 0 002.19 2.09 2.65 2.65 0 002.71-2.77v-5.82h1.09v9.31h-1.09v-1.37a3.31 3.31 0 01-2.92 1.59 2.81 2.81 0 01-3.1-2.96zM163.37 84.05h1.12v5a3.57 3.57 0 013.11-1.63 2.73 2.73 0 013 2.9v6.61h-1.12v-6.5a1.87 1.87 0 00-2.12-2 2.74 2.74 0 00-2.87 2.57v5.9h-1.12zM172 94.55c0-2.22 1.72-2.67 3.83-2.92 1.84-.22 2.5-.33 2.5-1.26v-.18c0-1.26-.79-1.87-2.23-1.87-1.65 0-2.52.68-2.61 2.07h-1.1c.13-1.8 1.32-3 3.71-3 2 0 3.3.85 3.3 2.89v5.06c0 .55.21.79.61.81a1.73 1.73 0 00.41-.08h.06v.81a1.71 1.71 0 01-.76.15 1.25 1.25 0 01-1.37-1.32v-.19a3.77 3.77 0 01-3.26 1.6c-1.78.02-3.09-.85-3.09-2.57zm6.35-1v-1.67a7.64 7.64 0 01-2.41.61c-1.57.22-2.77.45-2.77 2.06 0 1.29 1 1.69 2.07 1.69a2.86 2.86 0 003.11-2.69zm-4.16-9.47h1.08v1.55h-1.08zm2.81 0h1.08v1.55H177zM181.56 87.61h1.12V89a3.58 3.58 0 013.12-1.63 2.73 2.73 0 013 2.9v6.61h-1.12v-6.5a1.87 1.87 0 00-2.12-2 2.73 2.73 0 00-2.88 2.62v5.9h-1.12zM190.23 92.29c0-3.09 1.77-4.88 4-4.88a3.31 3.31 0 013.06 1.75v-5.11h1.12v12.87h-1.12v-1.38a3.32 3.32 0 01-3 1.63c-2.54 0-4.06-2.01-4.06-4.88zm7.17 0c0-2.28-1.1-4-3.11-4-1.84 0-2.9 1.64-2.9 4s.93 3.93 2.9 3.93 3.11-1.58 3.11-3.91zM199.93 92.28c0-2.79 1.67-4.88 4.24-4.88 3 0 4 2.46 4 5.07h-7.09c0 2.09 1.06 3.73 3.18 3.73a2.6 2.6 0 002.74-2.09h1.08a3.63 3.63 0 01-3.8 3c-2.81.05-4.35-2.04-4.35-4.83zm7.07-.69c-.05-1.83-.92-3.27-2.83-3.27s-2.88 1.42-3.07 3.27zM209.65 87.61h1.12v1.73a3.16 3.16 0 012.85-1.8 1 1 0 01.3 0v1.1a2.67 2.67 0 00-2 .45 3 3 0 00-1.2 2.5v5.29h-1.12zM214.73 87.61h1.19l2 5.91c.3.9.75 2.36.75 2.36s.47-1.46.77-2.36l2.09-5.91h1.13l-3.36 9.31H218zM223 92.28c0-2.79 1.67-4.88 4.25-4.88 3 0 4 2.46 4 5.07h-7.09c.05 2.09 1.06 3.73 3.19 3.73a2.59 2.59 0 002.65-2.09h1.08a3.63 3.63 0 01-3.79 3c-2.77.05-4.29-2.04-4.29-4.83zm7.07-.69c-.05-1.83-.92-3.27-2.82-3.27s-2.89 1.42-3.08 3.27zM232.7 87.61h1.12v1.73a3.16 3.16 0 012.85-1.8 1.17 1.17 0 01.31 0v1.1a2.69 2.69 0 00-2 .45 3 3 0 00-1.2 2.5v5.29h-1.08zM239.34 95.52v1.4h-1.11V84.05h1.11v5.17a3.51 3.51 0 013.15-1.81c2.23 0 3.84 1.79 3.84 4.88 0 2.87-1.46 4.88-3.91 4.88a3.37 3.37 0 01-3.08-1.65zm5.85-3.21c0-2.32-1-4-2.84-4-2.06 0-3.14 1.75-3.14 4s1.08 3.93 3.16 3.93c1.9 0 2.82-1.75 2.82-3.93zM247.27 94.55c0-2.22 1.73-2.67 3.83-2.92 1.84-.22 2.51-.33 2.51-1.26v-.18c0-1.26-.8-1.87-2.24-1.87-1.65 0-2.52.68-2.61 2.07h-1.1c.13-1.8 1.32-3 3.71-3 2 0 3.3.85 3.3 2.89v5.06c0 .55.21.79.61.81a1.73 1.73 0 00.41-.08h.06v.81a1.68 1.68 0 01-.76.15 1.25 1.25 0 01-1.37-1.32v-.19h-.05a3.77 3.77 0 01-3.26 1.6c-1.73.02-3.04-.85-3.04-2.57zm6.35-1v-1.67a7.64 7.64 0 01-2.41.61c-1.57.22-2.77.45-2.77 2.06 0 1.29 1 1.69 2.07 1.69a2.86 2.86 0 003.11-2.69zM256.83 87.61H258V89a3.57 3.57 0 013.11-1.63 2.73 2.73 0 013 2.9v6.61H263v-6.5a1.87 1.87 0 00-2.12-2A2.74 2.74 0 00258 91v5.9h-1.12zM265.51 92.29c0-3.09 1.76-4.88 4-4.88a3.33 3.33 0 013.07 1.75v-5.11h1.12v12.87h-1.12v-1.38a3.34 3.34 0 01-3 1.63c-2.58 0-4.07-2.01-4.07-4.88zm7.16 0c0-2.28-1.1-4-3.11-4-1.84 0-2.9 1.64-2.9 4s.93 3.93 2.9 3.93 3.11-1.58 3.11-3.91z"/>
</svg>