<svg id="Ebene_1" data-name="Ebene 1" xmlns="http://www.w3.org/2000/svg" viewBox="0 0 360 134"><defs><style>.cls-1{fill:#3d4999;}.cls-2{fill:#acb3b8;}.cls-3{fill:none;}</style></defs><path class="cls-1" d="M20,21.15a5.82,5.82,0,0,1-.3,1.9,4,4,0,0,1-1,1.5,4.35,4.35,0,0,1-1.8.9,9.52,9.52,0,0,1-2.5.3,6.7,6.7,0,0,1-3.1-.7,6.9,6.9,0,0,1-2.4-1.8l1.6-1.6a4.63,4.63,0,0,0,1.8,1.3,5.37,5.37,0,0,0,2.1.5c2.1,0,3.2-.7,3.2-2.2a1.88,1.88,0,0,0-.2-.8,1.7,1.7,0,0,0-.6-.6,5.42,5.42,0,0,0-1.1-.6,6,6,0,0,0-1.6-.5c-.8-.2-1.5-.5-2.1-.7a5.3,5.3,0,0,1-1.5-.8,2.73,2.73,0,0,1-.9-1.2,4.31,4.31,0,0,1-.3-1.7,3.66,3.66,0,0,1,.4-1.8,3.48,3.48,0,0,1,1.1-1.3,4.81,4.81,0,0,1,1.6-.8,6.45,6.45,0,0,1,2-.3,8.21,8.21,0,0,1,2.8.5,7.82,7.82,0,0,1,2.2,1.5l-1.6,1.6a4.19,4.19,0,0,0-1.6-1.1,5.92,5.92,0,0,0-2-.4,2.4,2.4,0,0,0-1.9.6,2.23,2.23,0,0,0-.6,1.3,1.45,1.45,0,0,0,.2.7,2.65,2.65,0,0,0,.5.6,2.34,2.34,0,0,0,1,.5,13.78,13.78,0,0,0,1.6.6c.8.2,1.4.5,2,.7a3.77,3.77,0,0,1,1.5.9,5.8,5.8,0,0,1,1,1.2A2.73,2.73,0,0,1,20,21.15Z"/><path class="cls-1" d="M34.15,22.85a6.61,6.61,0,0,1-2.2,2.2,6.21,6.21,0,0,1-3.1.8,6,6,0,0,1-2.7-.6,5.26,5.26,0,0,1-2-1.6,6.61,6.61,0,0,1-1.3-2.5,10.49,10.49,0,0,1,0-6.4,6.61,6.61,0,0,1,1.3-2.5,6.15,6.15,0,0,1,2-1.6,6,6,0,0,1,2.7-.6,5.93,5.93,0,0,1,3.1.7,5.78,5.78,0,0,1,2,2.1l-2,1.3a4.42,4.42,0,0,0-1.3-1.4,3.58,3.58,0,0,0-1.9-.4,3.44,3.44,0,0,0-3,1.5,7.11,7.11,0,0,0-1.1,4.1,7.11,7.11,0,0,0,1.1,4.1,3.44,3.44,0,0,0,3,1.5,3.94,3.94,0,0,0,2-.5,4.66,4.66,0,0,0,1.4-1.4Z"/><path class="cls-1" d="M46.55,25.55v-6.8h-7v6.8h-2.3V10.35h2.3v6.2h7v-6.2h2.3v15.2Z"/><path class="cls-1" d="M52.55,25.55V10.35h2.3v13h7.6v2.2Z"/><path class="cls-1" d="M76.05,19.15a7.18,7.18,0,0,1-1.5,4.9,6.29,6.29,0,0,1-8.6,0,7.34,7.34,0,0,1-1.4-4.9v-8.8h2.3v8.8a5,5,0,0,0,.9,3.3,3.31,3.31,0,0,0,2.6,1.1,3.39,3.39,0,0,0,2.7-1.1,4.89,4.89,0,0,0,.9-3.2v-8.9h2.3v8.8Z"/><path class="cls-1" d="M89.25,25.55,83.15,16a8.79,8.79,0,0,1-.6-1c-.2-.4-.4-.7-.5-.9v11.4h-2.2V10.25h2.3l5.8,9.3c.1.2.2.3.3.5a2.09,2.09,0,0,0,.4.6l.3.6c.1.2.2.3.2.4V10.15h2.2v15.4Z"/><path class="cls-1" d="M95.25,25.55V10.35h9.8v2.2h-7.5v3.7H102v2.2h-4.4v4.8h7.9v2.2H95.25Z"/><path class="cls-1" d="M119.45,19.55a7.1,7.1,0,0,1-.4,2.6,6.66,6.66,0,0,1-1.2,2,5.67,5.67,0,0,1-1.8,1.2,5.87,5.87,0,0,1-2.3.4,6,6,0,0,1-2.7-.6,5.26,5.26,0,0,1-2-1.6,6.61,6.61,0,0,1-1.3-2.5,10.49,10.49,0,0,1,0-6.4,6.61,6.61,0,0,1,1.3-2.5,6.15,6.15,0,0,1,2-1.6,6.8,6.8,0,0,1,5.8.1,5.78,5.78,0,0,1,2,2.1l-2,1.2a4.42,4.42,0,0,0-1.3-1.4,3.58,3.58,0,0,0-1.9-.4,3.44,3.44,0,0,0-3,1.5,7.11,7.11,0,0,0-1.1,4.1,7.11,7.11,0,0,0,1.1,4.1,3.44,3.44,0,0,0,3,1.5,3.81,3.81,0,0,0,1.6-.3,2.84,2.84,0,0,0,1.1-.8,3,3,0,0,0,.6-1.1,5.07,5.07,0,0,0,.2-1.3v-.1h-2.5v-2.2h4.8v2Z"/><path class="cls-1" d="M134.15,19.55a7.1,7.1,0,0,1-.4,2.6,6.66,6.66,0,0,1-1.2,2,5.67,5.67,0,0,1-1.8,1.2,5.87,5.87,0,0,1-2.3.4,6,6,0,0,1-2.7-.6,5.26,5.26,0,0,1-2-1.6,6.61,6.61,0,0,1-1.3-2.5,10.49,10.49,0,0,1,0-6.4,6.61,6.61,0,0,1,1.3-2.5,6.15,6.15,0,0,1,2-1.6,6.8,6.8,0,0,1,5.8.1,5.78,5.78,0,0,1,2,2.1l-2,1.2a4.42,4.42,0,0,0-1.3-1.4,3.58,3.58,0,0,0-1.9-.4,3.44,3.44,0,0,0-3,1.5,7.11,7.11,0,0,0-1.1,4.1,7.11,7.11,0,0,0,1.1,4.1,3.44,3.44,0,0,0,3,1.5,3.81,3.81,0,0,0,1.6-.3,2.84,2.84,0,0,0,1.1-.8,3,3,0,0,0,.6-1.1,5.07,5.07,0,0,0,.2-1.3v-.1h-2.5v-2.2h4.8v2Z"/><path class="cls-1" d="M137.25,25.55V10.35h9.8v2.2h-7.5v3.7H144v2.2h-4.4v4.8h7.9v2.2h-10.2Z"/><path class="cls-1" d="M161.85,14.85a4.86,4.86,0,0,1-.9,3,4.82,4.82,0,0,1-2.5,1.5l3.1,6.2H159l-3-6h-3.4v6h-2.3V10.35H157a5.82,5.82,0,0,1,1.9.3,8,8,0,0,1,1.6.8,5.26,5.26,0,0,1,1.1,1.4A9.43,9.43,0,0,1,161.85,14.85Zm-2.3.1a2.14,2.14,0,0,0-.7-1.8,2.88,2.88,0,0,0-1.9-.6h-4.4v4.9H157a2.88,2.88,0,0,0,1.9-.6A2.94,2.94,0,0,0,159.55,15Z"/><path class="cls-1" d="M182.55,15.05a4.64,4.64,0,0,1-.4,2.1,4,4,0,0,1-1,1.5,5.07,5.07,0,0,1-1.6.9,6.45,6.45,0,0,1-2,.3h-4v5.7h-2.3V10.35h6.4a5.82,5.82,0,0,1,1.9.3,5.07,5.07,0,0,1,1.6.9,3.07,3.07,0,0,1,1,1.5A5.44,5.44,0,0,1,182.55,15.05Zm-2.4,0a2.35,2.35,0,0,0-.7-1.9,2.94,2.94,0,0,0-1.9-.7h-4.1v5.2h4.1a2.58,2.58,0,0,0,2-.7A2.43,2.43,0,0,0,180.15,15.05Z"/><path class="cls-1" d="M194.05,25.55l-1.3-3.6h-6.1l-1.3,3.6H183l5.5-15.2h2.4l5.7,15.2Zm-3.2-9.2-.3-.9c-.1-.3-.2-.7-.3-1l-.3-.9a2.54,2.54,0,0,1-.2-.7,2.54,2.54,0,0,1-.2.7l-.3.9c-.1.3-.2.7-.3,1a9.44,9.44,0,0,1-.3.9l-1.2,3.5h4.7Z"/><path class="cls-1" d="M210.85,14.85a4.86,4.86,0,0,1-.9,3,4.82,4.82,0,0,1-2.5,1.5l3.1,6.2H208l-3-6h-3.4v6h-2.3V10.35H206a5.82,5.82,0,0,1,1.9.3,8,8,0,0,1,1.6.8,5.26,5.26,0,0,1,1.1,1.4A9.43,9.43,0,0,1,210.85,14.85Zm-2.4.1a2.14,2.14,0,0,0-.7-1.8,2.88,2.88,0,0,0-1.9-.6h-4.4v4.9h4.4a2.88,2.88,0,0,0,1.9-.6A2.49,2.49,0,0,0,208.45,15Z"/><path class="cls-1" d="M223.45,25.55l-4.4-7.8-2.8,3.4v4.4h-2.2V10.35h2.2v7.9a1.38,1.38,0,0,0,.3-.4,2.65,2.65,0,0,1,.5-.6,4.23,4.23,0,0,0,.5-.7,3.17,3.17,0,0,1,.5-.6l4.5-5.6h2.6l-4.5,5.5,5.4,9.7Z"/><path class="cls-1" d="M244.35,25.55l-1.2-1.4a7.61,7.61,0,0,1-1.9,1.2,6.05,6.05,0,0,1-2.4.4,5.34,5.34,0,0,1-3.6-1.1,3.92,3.92,0,0,1-1.2-3,4.46,4.46,0,0,1,.8-2.6,6.94,6.94,0,0,1,2.4-1.9l-.3-.3a9.25,9.25,0,0,1-1.1-1.6,4.15,4.15,0,0,1-.3-1.6,3.31,3.31,0,0,1,1.1-2.6,5,5,0,0,1,3.1-.9,5.22,5.22,0,0,1,2.1.4,6.64,6.64,0,0,1,2,1.1l-1.1,1.8a8.94,8.94,0,0,0-1.6-.9,4.15,4.15,0,0,0-1.6-.3,1.7,1.7,0,0,0-1.3.4,1.28,1.28,0,0,0-.4,1,2.92,2.92,0,0,0,.2.9,3.74,3.74,0,0,0,.6,1l4.5,5.5.6-1.2a6.47,6.47,0,0,0,.4-1.3l2.1.6a14.58,14.58,0,0,1-.7,1.9,16.18,16.18,0,0,1-1,1.8l2.4,3h-2.6Zm-5.8-6.9a5.86,5.86,0,0,0-1.7,1.3,2.27,2.27,0,0,0-.6,1.6,2,2,0,0,0,.6,1.5,2.81,2.81,0,0,0,2,.6,4.15,4.15,0,0,0,1.6-.3,3.81,3.81,0,0,0,1.3-.9Z"/><path class="cls-1" d="M266.85,15.05a4.64,4.64,0,0,1-.4,2.1,4,4,0,0,1-1,1.5,5.07,5.07,0,0,1-1.6.9,6.45,6.45,0,0,1-2,.3h-4v5.7h-2.3V10.35H262a5.82,5.82,0,0,1,1.9.3,5.07,5.07,0,0,1,1.6.9,3.07,3.07,0,0,1,1,1.5A5.44,5.44,0,0,1,266.85,15.05Zm-2.4,0a2.35,2.35,0,0,0-.7-1.9,2.94,2.94,0,0,0-1.9-.7h-4.1v5.2h4.1a2.58,2.58,0,0,0,2-.7A2.43,2.43,0,0,0,264.45,15.05Z"/><path class="cls-1" d="M278.35,25.55l-1.3-3.6H271l-1.3,3.6h-2.4l5.5-15.2h2.4l5.6,15.2Zm-3.2-9.2-.3-.9c-.1-.3-.2-.7-.3-1l-.3-.9a2.54,2.54,0,0,1-.2-.7,2.54,2.54,0,0,1-.2.7l-.3.9c-.1.3-.2.7-.3,1a9.44,9.44,0,0,1-.3.9l-1.2,3.5h4.7Z"/><path class="cls-1" d="M295.05,14.85a4.86,4.86,0,0,1-.9,3,4.82,4.82,0,0,1-2.5,1.5l3.1,6.2h-2.6l-3-6h-3.4v6h-2.3V10.35h6.7a5.82,5.82,0,0,1,1.9.3,8,8,0,0,1,1.6.8,5.26,5.26,0,0,1,1.1,1.4A5.62,5.62,0,0,1,295.05,14.85Zm-2.3.1a2.14,2.14,0,0,0-.7-1.8,2.88,2.88,0,0,0-1.9-.6h-4.4v4.9h4.4a2.88,2.88,0,0,0,1.9-.6A2.49,2.49,0,0,0,292.75,15Z"/><path class="cls-1" d="M304,12.55v13h-2.3v-13h-4.4v-2.2h11.2v2.2Z"/><path class="cls-1" d="M320.45,25.55l-6.1-9.6a8.79,8.79,0,0,1-.6-1c-.2-.4-.4-.7-.5-.9v11.4h-2.2V10.25h2.3l5.8,9.3c.1.2.2.3.3.5a2.09,2.09,0,0,0,.4.6l.3.6c.1.2.2.3.2.4V10.15h2.2v15.4Z"/><path class="cls-1" d="M326.25,25.55V10.35h9.8v2.2h-7.5v3.7H333v2.2h-4.4v4.8h7.9v2.2h-10.2Z"/><path class="cls-1" d="M350.85,14.85a4.86,4.86,0,0,1-.9,3,4.82,4.82,0,0,1-2.5,1.5l3.1,6.2H348l-3-6h-3.4v6h-2.3V10.35H346a5.82,5.82,0,0,1,1.9.3,8,8,0,0,1,1.6.8,5.26,5.26,0,0,1,1.1,1.4A5.62,5.62,0,0,1,350.85,14.85Zm-2.3.1a2.14,2.14,0,0,0-.7-1.8,2.88,2.88,0,0,0-1.9-.6h-4.4v4.9H346a2.88,2.88,0,0,0,1.9-.6A2.49,2.49,0,0,0,348.55,15Z"/><path class="cls-1" d="M208.85,40.25v13h-2.3v-13h-4.4v-2.2h11.2v2.2Z"/><path class="cls-1" d="M227.55,42.55a4.19,4.19,0,0,1-3.4,4.5l3.1,6.2h-2.6l-3-6h-3.4v6H216V38.05h6.7a5.82,5.82,0,0,1,1.9.3,8,8,0,0,1,1.6.8,5.26,5.26,0,0,1,1.1,1.4A5.62,5.62,0,0,1,227.55,42.55Zm-2.3.1a2.14,2.14,0,0,0-.7-1.8,2.88,2.88,0,0,0-1.9-.6h-4.4v4.9h4.4a2.88,2.88,0,0,0,1.9-.6A2.94,2.94,0,0,0,225.25,42.65Z"/><path class="cls-1" d="M230.65,53.25V38.05h9.8v2.2H233V44h4.4v2.2H233V51h7.9v2.2h-10.2Z"/><path class="cls-1" d="M255.15,46.85a7.18,7.18,0,0,1-1.5,4.9,6.29,6.29,0,0,1-8.6,0,7.34,7.34,0,0,1-1.4-4.9v-8.8H246v8.8a5,5,0,0,0,.9,3.3,3.31,3.31,0,0,0,2.6,1.1,3.39,3.39,0,0,0,2.7-1.1,4.89,4.89,0,0,0,.9-3.2v-8.9h2.3v8.8Z"/><path class="cls-1" d="M267.85,53.25v-6.8h-7v6.8h-2.3V38.05h2.3v6.2h7v-6.2h2.3v15.2Z"/><path class="cls-1" d="M283.85,53.25l-1.3-3.6h-6.1l-1.3,3.6h-2.4l5.5-15.2h2.4l5.6,15.2Zm-3.2-9.2-.3-.9c-.1-.3-.2-.7-.3-1l-.3-.9a2.54,2.54,0,0,1-.2-.7,2.54,2.54,0,0,1-.2.7l-.3.9c-.1.3-.2.7-.3,1a9.44,9.44,0,0,1-.3.9l-1.2,3.5H282Z"/><path class="cls-1" d="M298.25,53.25l-6.1-9.6a8.79,8.79,0,0,1-.6-1c-.2-.4-.4-.7-.5-.9v11.4h-2.2V38h2.3l5.8,9.3c.1.2.2.3.3.5a2.09,2.09,0,0,0,.4.6l.3.6c.1.2.2.3.2.4V37.85h2.2v15.2h-2.1Z"/><path class="cls-1" d="M316.25,45.65a9.15,9.15,0,0,1-.6,3.5,6.74,6.74,0,0,1-1.6,2.4,7.22,7.22,0,0,1-2.4,1.4,8.63,8.63,0,0,1-2.8.4h-4.2V38.15h4.2a9.25,9.25,0,0,1,2.9.4,5.85,5.85,0,0,1,2.4,1.4,6,6,0,0,1,1.6,2.4A9.54,9.54,0,0,1,316.25,45.65Zm-2.3,0a7.8,7.8,0,0,0-.3-2.2,4.61,4.61,0,0,0-.9-1.7,3.81,3.81,0,0,0-1.6-1.1,5.27,5.27,0,0,0-2.3-.4H307v10.8h1.9a5.27,5.27,0,0,0,2.3-.4,4.05,4.05,0,0,0,2.5-2.8A7.8,7.8,0,0,0,314,45.65Z"/><path class="cls-1" d="M335.45,53.25l-1.3-3.6h-6.1l-1.3,3.6h-2.4l5.5-15.2h2.4l5.6,15.2Zm-3.2-9.2-.3-.9c-.1-.3-.2-.7-.3-1l-.3-.9a2.54,2.54,0,0,1-.2-.7,2.54,2.54,0,0,1-.2.7l-.3.9c-.1.3-.2.7-.3,1a9.44,9.44,0,0,1-.3.9l-1.2,3.5h4.7Z"/><path class="cls-1" d="M351.45,47.25a7.1,7.1,0,0,1-.4,2.6,6.66,6.66,0,0,1-1.2,2,5.67,5.67,0,0,1-1.8,1.2,5.87,5.87,0,0,1-2.3.4,6,6,0,0,1-2.7-.6,5.26,5.26,0,0,1-2-1.6,6.61,6.61,0,0,1-1.3-2.5,10.49,10.49,0,0,1,0-6.4,6.61,6.61,0,0,1,1.3-2.5,6.15,6.15,0,0,1,2-1.6,6.8,6.8,0,0,1,5.8.1,5.78,5.78,0,0,1,2,2.1l-2,1.2a4.42,4.42,0,0,0-1.3-1.4,3.58,3.58,0,0,0-1.9-.4,3.44,3.44,0,0,0-3,1.5,7.11,7.11,0,0,0-1.1,4.1,7.11,7.11,0,0,0,1.1,4.1,3.44,3.44,0,0,0,3,1.5,3.81,3.81,0,0,0,1.6-.3,2.84,2.84,0,0,0,1.1-.8,2.38,2.38,0,0,0,.6-1.1,5.07,5.07,0,0,0,.2-1.3v-.1h-2.5v-1.9h4.8v1.7Z"/><path class="cls-1" d="M63.85,100.45a22.44,22.44,0,0,1-1.9,9.3,21.45,21.45,0,0,1-5.5,7.5,27,27,0,0,1-8.8,5,36.3,36.3,0,0,1-11.9,1.8,39,39,0,0,1-16.1-3.3,41.06,41.06,0,0,1-12.4-8.4l6.3-7a43.07,43.07,0,0,0,10.4,7.4,26.26,26.26,0,0,0,12.1,2.8c5.7,0,10.1-1.3,13.4-3.9s4.9-6.1,4.9-10.7a13.17,13.17,0,0,0-1-5.3,12.43,12.43,0,0,0-3.3-4.5,37,37,0,0,0-6.2-4.1,88.67,88.67,0,0,0-9.7-4.1,90.05,90.05,0,0,1-11.6-4.9,32.85,32.85,0,0,1-7.5-5.3,16.32,16.32,0,0,1-4.1-6.4,24.56,24.56,0,0,1-1.3-8.1,20.59,20.59,0,0,1,1.9-9.1,19.87,19.87,0,0,1,5.4-6.8,23.82,23.82,0,0,1,8.4-4.3,37.1,37.1,0,0,1,10.8-1.5A38.58,38.58,0,0,1,50.65,39,45.47,45.47,0,0,1,62,45.65l-6.1,7.4a40,40,0,0,0-9.3-5.9,28.59,28.59,0,0,0-11.1-2c-5.8,0-10,1.3-12.6,3.8a11.72,11.72,0,0,0-3.9,8.7,14.19,14.19,0,0,0,.8,4.8,10,10,0,0,0,3,4.1,29.33,29.33,0,0,0,6.1,3.9,94.61,94.61,0,0,0,10.2,4.2,92.08,92.08,0,0,1,11.8,5.1,29.39,29.39,0,0,1,7.6,5.6,17.37,17.37,0,0,1,4.1,6.7A26.46,26.46,0,0,1,63.85,100.45Z"/><path class="cls-1" d="M129.75,63.25a28.31,28.31,0,0,1-2.1,11.2,22.44,22.44,0,0,1-5.9,8.2,24.67,24.67,0,0,1-9,5,38.88,38.88,0,0,1-11.7,1.7H80.45v33.3H71V37.85h31.7a35.93,35.93,0,0,1,10.7,1.5,22.75,22.75,0,0,1,8.5,4.7,22,22,0,0,1,5.7,7.9A26.82,26.82,0,0,1,129.75,63.25Zm-9.5.3c0-5.5-1.5-9.7-4.6-12.7s-7.5-4.4-13.3-4.4H80.45v34.3h20.7C113.85,80.75,120.25,75.05,120.25,63.55Z"/><path class="cls-2" d="M195.25,63.25a28.31,28.31,0,0,1-2.1,11.2,22.44,22.44,0,0,1-5.9,8.2,24.67,24.67,0,0,1-9,5,38.88,38.88,0,0,1-11.7,1.7H146v33.3h-9.5V37.85h31.7a35.93,35.93,0,0,1,10.7,1.5,22.75,22.75,0,0,1,8.5,4.7,22,22,0,0,1,5.7,7.9A26.82,26.82,0,0,1,195.25,63.25Zm-9.5.3c0-5.5-1.5-9.7-4.6-12.7s-7.5-4.4-13.3-4.4H146v34.3h20.7C179.35,80.75,185.75,75.05,185.75,63.55Z"/><rect class="cls-3" width="360" height="134"/></svg>