<?xml version="1.0"?>
<svg xmlns="http://www.w3.org/2000/svg" xmlns:xlink="http://www.w3.org/1999/xlink" version="1.1" id="Capa_1" x="0px" y="0px" viewBox="0 0 512 512" style="enable-background:new 0 0 512 512;" xml:space="preserve" width="512px" height="512px"><g><g>
	<g>
		<path d="M447.311,151.154c-2.089-3.575-6.682-4.781-10.259-2.692c-3.577,2.09-4.782,6.683-2.693,10.259    c20.003,34.24,30.577,73.423,30.577,113.312c0,60.091-23.401,116.585-65.892,159.076C356.553,473.6,300.059,497,239.968,497    s-116.585-23.401-159.076-65.892C38.401,388.617,15,332.123,15,272.032c0-60.091,23.401-116.585,65.892-159.076    c42.491-42.491,98.985-65.892,159.076-65.892c39.409,0,78.18,10.335,112.123,29.887c3.588,2.065,8.175,0.834,10.243-2.755    c2.067-3.589,0.834-8.175-2.755-10.243c-36.216-20.862-77.577-31.889-119.61-31.889c-64.098,0-124.359,24.961-169.683,70.285    C24.961,147.673,0,207.935,0,272.032s24.961,124.359,70.285,169.683C115.609,487.039,175.87,512,239.968,512    s124.359-24.961,169.683-70.285c45.324-45.324,70.285-105.585,70.285-169.683C479.936,229.487,468.655,187.688,447.311,151.154z" data-original="#000000" class="active-path" data-old_color="#000000" fill="#1B3E90"/>
	</g>
</g><g>
	<g>
		<path d="M280.738,272.763c-4.058-0.832-8.021,1.786-8.851,5.844c-3.083,15.069-16.507,26.006-31.918,26.006    c-17.965,0-32.581-14.616-32.581-32.581c-0.001-15.221,10.333-28.268,25.129-31.726c4.033-0.943,6.539-4.977,5.596-9.01    c-0.943-4.033-4.975-6.539-9.01-5.596c-21.618,5.053-36.716,24.106-36.716,46.333c0,26.236,21.345,47.581,47.581,47.581    c22.504,0,42.108-15.981,46.614-38C287.413,277.556,284.796,273.593,280.738,272.763z" data-original="#000000" class="active-path" data-old_color="#000000" fill="#1B3E90"/>
	</g>
</g><g>
	<g>
		<path d="M511.429,44.711c-1.161-2.803-3.896-4.63-6.929-4.63h-32.581V7.5c0-3.034-1.827-5.768-4.63-6.929    c-2.801-1.16-6.028-0.52-8.173,1.626l-80.161,80.161c-1.407,1.406-2.197,3.314-2.197,5.303v36.974l-53.205,53.205    c-3.209-1.591-6.77-2.439-10.468-2.439c-6.298,0-12.208,2.441-16.64,6.873l-34.01,34.009c-7.319,7.32-8.78,18.294-4.421,27.095    l-23.35,23.35c-2.929,2.929-2.929,7.678,0,10.606c1.464,1.464,3.384,2.197,5.303,2.197c1.919,0,3.839-0.732,5.303-2.197    l23.35-23.35c3.285,1.627,6.866,2.46,10.455,2.46c6.026,0,12.053-2.294,16.64-6.881l34.009-34.009    c4.432-4.432,6.873-10.342,6.873-16.64c0-3.698-0.847-7.258-2.439-10.467l53.205-53.205h36.974c1.989,0,3.897-0.79,5.303-2.197    l80.161-80.161C511.948,50.739,512.59,47.513,511.429,44.711z M319.119,204.948l-34.009,34.009c-3.327,3.328-8.74,3.327-12.067,0    c-3.326-3.327-3.326-8.74,0-12.067l34.01-34.009c1.599-1.599,3.741-2.479,6.033-2.479s4.434,0.88,6.033,2.48    c1.599,1.599,2.479,3.741,2.479,6.033S320.718,203.349,319.119,204.948z M421.232,120.242h-18.868l47.317-47.317    c2.929-2.929,2.929-7.678,0-10.606c-2.929-2.929-7.678-2.929-10.606,0l-47.317,47.317V90.768l65.161-65.161v21.974    c0,4.142,3.358,7.5,7.5,7.5h21.974L421.232,120.242z" data-original="#000000" class="active-path" data-old_color="#000000" fill="#1B3E90"/>
	</g>
</g><g>
	<g>
		<path d="M398.083,163.311c-2.349-3.411-7.019-4.271-10.431-1.921c-3.411,2.35-4.271,7.02-1.921,10.431    c20.351,29.542,31.108,64.195,31.108,100.212c0,97.527-79.344,176.871-176.871,176.871S63.097,369.559,63.097,272.032    S142.441,95.161,239.968,95.161c36.832,0,72.131,11.208,102.082,32.414c3.381,2.392,8.06,1.593,10.454-1.787    c2.394-3.381,1.593-8.062-1.788-10.455c-32.499-23.009-70.795-35.171-110.749-35.171c-105.798,0-191.871,86.073-191.871,191.871    s86.073,191.871,191.871,191.871s191.871-86.073,191.871-191.871C431.838,232.963,420.166,195.367,398.083,163.311z" data-original="#000000" class="active-path" data-old_color="#000000" fill="#1B3E90"/>
	</g>
</g><g>
	<g>
		<path d="M364.096,199.441c-2.095-3.575-6.69-4.772-10.263-2.679c-3.574,2.094-4.773,6.689-2.679,10.263    c11.506,19.634,17.587,42.113,17.587,65.008c0,71.006-57.768,128.774-128.774,128.774s-128.774-57.768-128.774-128.774    s57.768-128.774,128.774-128.774c22.051,0,43.806,5.666,62.913,16.386c3.615,2.028,8.185,0.74,10.212-2.871    c2.026-3.613,0.741-8.184-2.871-10.211c-21.344-11.975-45.637-18.304-70.253-18.304c-79.277,0-143.774,64.497-143.774,143.774    s64.497,143.774,143.774,143.774s143.774-64.497,143.774-143.774C383.742,246.475,376.949,221.373,364.096,199.441z" data-original="#000000" class="active-path" data-old_color="#000000" fill="#1B3E90"/>
	</g>
</g><g>
	<g>
		<path d="M333.476,251.687c-0.877-4.048-4.872-6.618-8.918-5.742c-4.048,0.877-6.619,4.87-5.742,8.918    c1.214,5.602,1.829,11.379,1.829,17.17c0,44.485-36.192,80.677-80.677,80.677s-80.677-36.192-80.677-80.677    c0-44.485,36.192-80.677,80.677-80.677c5.695-0.001,11.377,0.594,16.891,1.768c4.053,0.863,8.035-1.722,8.897-5.773    c0.862-4.051-1.722-8.035-5.773-8.897c-6.539-1.392-13.272-2.098-20.015-2.098c-52.757,0-95.677,42.92-95.677,95.677    c0,52.757,42.92,95.677,95.677,95.677s95.677-42.92,95.677-95.677C335.645,265.176,334.915,258.331,333.476,251.687z" data-original="#000000" class="active-path" data-old_color="#000000" fill="#1B3E90"/>
	</g>
</g></g> </svg>
