<?xml version="1.0" encoding="utf-8"?>
<!-- Generator: Adobe Illustrator 27.2.0, SVG Export Plug-In . SVG Version: 6.00 Build 0)  -->
<svg version="1.1" id="Ebene_1" xmlns="http://www.w3.org/2000/svg" xmlns:xlink="http://www.w3.org/1999/xlink" x="0px" y="0px"
	 viewBox="0 0 216 51" style="enable-background:new 0 0 216 51;" xml:space="preserve">
<g id="BT-UI-Desktop">
	<g id="BT---OBT-Gruppe" transform="translate(-829.000000, -2258.000000)">
		<g id="astal-logo" transform="translate(829.000000, 2258.000000)">
			<path id="Shape" d="M30.2,0.8l17,49H36.6l-3.5-10.6H13.7L10,49.9H0l17.7-49H30.2z M30.5,31.4l-6.8-20.9l-7.3,20.9H30.5z"/>
			<path id="Path" d="M60.9,34.2c0,2.3-0.1,9.3,8.9,9.3c5.7,0,9.3-2.7,9.3-6.8c0-4.3-3.1-5.1-9.3-6.6c-11.7-2.9-18-6.4-18-14.8
				C51.8,7.1,57.5,0,71.2,0C76.2,0,82.3,1.2,86,5.8c2.8,3.5,2.8,7.5,2.8,9.1H78.6c-0.1-1.7-0.7-7.5-7.9-7.5c-4.9,0-8.1,2.6-8.1,6.6
				c0,4.5,3.6,5.4,10.6,7.1c8.5,2,16.8,4.3,16.8,13.9c0,8.8-7.3,15.9-20.9,15.9c-18.8,0-18.9-12.1-19-16.8L60.9,34.2L60.9,34.2z"/>
			<polygon id="Path_00000042697533259447844380000007116434927553493408_" points="108.6,9 94,9 94,0.8 133.7,0.8 133.7,9 119.2,9 
				119.2,49.9 108.6,49.9 108.6,9 			"/>
			<path id="Shape_00000012461589278336371390000011910651665231808140_" d="M161.3,0.8l17,49h-10.6l-3.5-10.6h-19.4l-3.7,10.6h-10
				l17.7-49H161.3z M161.6,31.4l-6.8-20.9l-7.3,20.9H161.6z"/>
			<polygon id="Path_00000119078715069463292220000013531359082002656426_" points="183.9,0.9 194.6,0.9 194.6,41.5 215.6,41.5 
				215.6,49.9 183.9,49.9 			"/>
		</g>
	</g>
</g>
</svg>
