<?xml version="1.0" encoding="utf-8"?>
<!-- Generator: Adobe Illustrator 27.2.0, SVG Export Plug-In . SVG Version: 6.00 Build 0)  -->
<svg version="1.1" id="Ebene_1" xmlns="http://www.w3.org/2000/svg" xmlns:xlink="http://www.w3.org/1999/xlink" x="0px" y="0px"
	 viewBox="0 0 190 94" style="enable-background:new 0 0 190 94;" xml:space="preserve">
<style type="text/css">
	.st0{fill-rule:evenodd;clip-rule:evenodd;}
	.st1{fill:#FFFFFF;}
	.st2{fill:none;}
</style>
<g id="BT-UI-Desktop">
	<g id="BT---OBT-Gruppe" transform="translate(-839.000000, -1330.000000)">
		<g id="figas-ogo" transform="translate(839.000000, 1330.000000)">
			<polygon id="Path" class="st0" points="69.1,0 123.3,0 190,25.3 189.8,70.5 122.5,92.9 67.4,93.2 0,69 0,24.2 			"/>
			<polygon id="Path_00000115503202351286584040000014741547425087866516_" class="st0" points="5.3,27.3 70.6,5.3 122.2,5.3 
				184.7,28.3 184.5,68 121.2,88.8 68.8,88.7 5.3,66.7 			"/>
			<path id="Shape" class="st1" d="M4.3,25.7L69.7,3.6l0.2-0.1h0.2h51.7h0.2l0.2,0.1l62.6,23l0.7,0.3l0,0.8l-0.2,39.9l0,0.8
				l-0.8,0.3l-63.5,20.9l-0.2,0.1h-0.2l-52.5-0.1h-0.2l-0.2-0.1L4.3,67.4l-0.8-0.3v-0.8V26.8v-0.8L4.3,25.7L4.3,25.7z M70.2,5.8
				L5.8,27.6v38l62.6,21.8l52.1,0.1l62.5-20.6l0.2-38.3L121.6,5.8H70.2L70.2,5.8z"/>
			<g id="Group" transform="translate(23.971963, 29.299065)">
				<polygon id="Path_00000008853276744696290730000012752837448528949137_" class="st1" points="0,35.7 0,0.7 22.8,0.7 22.8,6.5 
					7.6,6.5 7.6,15 21.8,15 21.8,20.8 7.6,20.8 7.6,35.7 0,35.7 				"/>
				<polygon id="Path_00000056423948016646946220000017753812825096896418_" class="st1" points="34.4,35.7 26.8,35.7 26.8,0.7 
					34.4,0.7 				"/>
				<path id="Path_00000114781781074223168030000006114879382417902499_" class="st1" d="M57.4,22.8V17h14.5v17.5
					c-2.6,0.8-5.2,1.3-7.9,1.5c-1.7,0.1-3.5,0.3-8.1,0.3c-7,0-16.6-4.3-16.6-18.2C39.3,4.3,48.8,0,55.8,0c10.2,0,16.5,3,16.6,11.4
					h-8.1c0-4.5-2.9-6-7.1-6c-6.7,0-9.9,4.9-9.9,12.8S50.5,31,57.2,31c3,0,5-0.4,7-0.8v-7.4L57.4,22.8L57.4,22.8z"/>
				<path id="Shape_00000118358670788288410150000005846112875445327029_" class="st1" d="M76.1,35.7L88.8,0.7h9l12.3,34.9h-7.6
					l-2.5-7.4h-14l-2.6,7.4H76.1z M98,22.5L93.2,7.6h-0.1l-5.2,14.9H98z"/>
				<path id="Path_00000039130505323197156570000004128499067415509432_" class="st1" d="M132.9,10.7c-0.3-3.5-2.2-5.3-5.9-5.3
					c-2.8,0-5.6,1.5-5.6,4.5c0,3.8,3.4,4.2,6.5,4.9c5.4,1.4,13.3,2.9,13.3,9.9c0,8.7-7.6,11.7-15.2,11.7c-8.1,0-13.8-3.1-13.5-11.9
					h7.7c-0.3,3.9,2,6.5,5.9,6.5c3,0,7-0.9,7-4.6c0-4.1-5-4.4-8.1-5.2c-4.9-1.2-11.7-3.4-11.7-9.6c0-8,7.4-11.5,14.7-11.5
					c6.8,0,12.2,3.7,12.2,10.7L132.9,10.7L132.9,10.7z"/>
			</g>
			<rect id="Rectangle" x="8.9" y="55" class="st2" width="15.1" height="1"/>
		</g>
	</g>
</g>
</svg>
