<?xml version="1.0" encoding="utf-8"?>
<!-- Generator: Adobe Illustrator 27.2.0, SVG Export Plug-In . SVG Version: 6.00 Build 0)  -->
<svg version="1.1" id="Ebene_1" xmlns="http://www.w3.org/2000/svg" xmlns:xlink="http://www.w3.org/1999/xlink" x="0px" y="0px"
	 viewBox="0 0 190 86" style="enable-background:new 0 0 190 86;" xml:space="preserve">
<g id="BT-UI-Desktop">
	<g id="BT---OBT-Gruppe" transform="translate(-829.000000, -1017.000000)">
		<g id="obt-gruppe-logo" transform="translate(829.000000, 1017.000000)">
			<path id="Shape" d="M27.8,73.5c7.6,0,7.8-8.5,7.9-13.9c-0.1-4.7-0.6-13.9-7.9-13.9c-7.1,0-7.7,9.2-7.7,13.9
				C20.1,65,20.9,73.5,27.8,73.5 M27.8,85.6C10.3,85.6,0,76.7,0,59.6c0-16.8,10.3-26,27.8-26s28.1,9.1,28.1,26
				C55.9,76.7,45.4,85.6,27.8,85.6"/>
			<path id="Shape_00000054971518942602802870000007853226119759853219_" d="M79,53.7h4.8c3.4,0,7-1,7-4.8c0-3.7-3.2-4.9-6.6-4.9H79
				L79,53.7z M79,74.4h5c3.5,0,7.3-1.3,7.3-5.2c0-4.3-3.6-5.1-7.2-5.1H79L79,74.4z M60.8,34.5h31.6c8.7,0,17.3,2.8,17.3,12.4
				c0,6.9-3.7,10.6-10.4,12.3v0.1c7,0.9,11.3,6.4,11.3,11.4c0,12.7-10.2,14-20.6,14H60.8V34.5z"/>
			<polygon id="Path" points="112.5,34.5 112.5,49.3 126.6,49.3 126.6,84.7 145.8,84.7 145.8,49.3 161.7,49.3 146.9,34.5 			"/>
			<polygon id="Path_00000063601344466788394580000001915876294687096203_" points="190,50 190,0 140,0 			"/>
		</g>
	</g>
</g>
</svg>
