<svg width="283" height="283" viewBox="0 0 283 283" fill="none" xmlns="http://www.w3.org/2000/svg">
<path d="M141.5 282.781C219.528 282.781 282.781 219.528 282.781 141.5C282.781 63.4726 219.528 0.218811 141.5 0.218811C63.4725 0.218811 0.21875 63.4726 0.21875 141.5C0.21875 219.528 63.4725 282.781 141.5 282.781Z" fill="#FF585D"/>
<path d="M63.4683 107.812C63.4683 101.969 68.2808 97.1562 74.1245 97.1562C79.9683 97.1562 84.7808 101.969 84.7808 107.812C84.7808 113.656 79.9683 118.469 74.1245 118.469C68.2808 118.469 63.4683 113.656 63.4683 107.812ZM65.5308 126.031H82.3745V182.062H65.5308V126.031Z" fill="white"/>
<path d="M91.9995 153.875C91.9995 138.063 103.343 124.656 117.781 124.656C125.343 124.656 130.843 128.438 132.906 131.531V98.1876H149.75V182.063H132.906V176.563C130.5 179.656 125.343 183.438 117.781 183.438C103.343 183.094 91.9995 169.688 91.9995 153.875ZM134.281 153.875C134.281 145.969 129.125 140.125 121.562 140.125C114 140.125 108.843 145.969 108.843 153.875C108.843 161.781 114 167.625 121.562 167.625C129.125 167.625 134.281 162.125 134.281 153.875Z" fill="white"/>
<path d="M162.812 126.031H179.656V131.531C182.062 128.437 187.218 124.656 194.781 124.656C209.562 124.656 220.562 138.062 220.562 153.875C220.562 169.687 209.218 183.094 194.781 183.094C187.218 183.094 181.718 179.312 179.656 176.219V205.094H162.812V126.031ZM204.062 153.875C204.062 145.969 198.906 140.125 191.343 140.125C183.781 140.125 178.625 145.969 178.625 153.875C178.625 161.781 183.781 167.625 191.343 167.625C198.906 167.625 204.062 162.125 204.062 153.875Z" fill="white"/>
</svg>
