<svg xmlns="http://www.w3.org/2000/svg" width="63" height="126" viewBox="0 0 63 126" fill="none"><path d="M0 0H63V63H0V0Z" fill="#3D5164"></path><path d="M0 63H63V126H0V63Z" fill="#FF585D"></path><path d="M45.5818 17.4119L39.6755 16.0466C38.8142 15.8474 37.9295 16.2927 37.5779 17.1072L34.8533 23.4646C34.531 24.2087 34.7478 25.0877 35.3748 25.6033L38.533 28.1873C36.5408 32.242 33.242 35.5466 29.1814 37.5388L26.5974 34.3806C26.0818 33.7537 25.2029 33.5369 24.4587 33.8591L18.1072 36.5837C17.2927 36.9353 16.8474 37.8142 17.0466 38.6755L18.406 44.5759C18.5994 45.4138 19.3377 45.9998 20.1931 45.9998C34.9705 45.9998 46.9998 34.0349 46.9998 19.1931C46.9998 18.3377 46.4138 17.5994 45.5818 17.4119ZM20.2283 44.1248L18.8806 38.2888L25.1736 35.5935L28.6599 39.8591C34.7302 37.0115 38.0173 33.7127 40.8533 27.6658L36.5877 24.1795L39.283 17.8865L45.1189 19.2341C45.1072 32.9744 33.9685 44.1072 20.2283 44.1248Z" fill="white"></path><path d="M44.1875 82H19.8125C18.2598 82 17 83.4489 17 85.2347V104.643C17 106.429 18.2598 107.878 19.8125 107.878H44.1875C45.7402 107.878 47 106.429 47 104.643V85.2347C47 83.4489 45.7402 82 44.1875 82ZM19.8125 84.1565H44.1875C44.7031 84.1565 45.125 84.6417 45.125 85.2347V88.0246C43.8418 89.2713 42.0078 90.9898 36.3008 96.199C35.3105 97.102 33.3594 99.2787 32 99.2517C30.6406 99.2787 28.6836 97.102 27.6992 96.199C21.9922 90.9898 20.1582 89.2713 18.875 88.0246V85.2347C18.875 84.6417 19.2969 84.1565 19.8125 84.1565ZM44.1875 105.721H19.8125C19.2969 105.721 18.875 105.236 18.875 104.643V90.828C20.2109 92.0882 22.3203 94.0358 26.5332 97.8837C27.7344 98.9889 29.8555 101.422 32 101.408C34.1328 101.428 36.2363 99.0158 37.4668 97.8837C41.6797 94.0358 43.7891 92.0882 45.125 90.828V104.643C45.125 105.236 44.7031 105.721 44.1875 105.721Z" fill="white"></path></svg>