<svg xmlns="http://www.w3.org/2000/svg" width="142" height="142" viewBox="0 0 142 142" fill="none"><path fill-rule="evenodd" clip-rule="evenodd" d="M141.433 70.9999C141.433 109.899 109.899 141.433 70.9999 141.433C32.1005 141.433 0.566406 109.899 0.566406 70.9999C0.566406 32.1005 32.1005 0.566406 70.9999 0.566406C109.899 0.566406 141.433 32.1005 141.433 70.9999ZM37.4111 48.8931C34.4978 48.8931 32.0986 51.2923 32.0986 54.2056C32.0986 57.1189 34.4978 59.5181 37.4111 59.5181C40.3244 59.5181 42.7236 57.1189 42.7236 54.2056C42.7236 51.2923 40.3244 48.8931 37.4111 48.8931ZM41.524 63.2882H33.1269V91.2217H41.524V63.2882ZM46.3225 77.1693C46.3225 69.2863 51.9777 62.6028 59.1753 62.6028C62.9455 62.6028 65.6874 64.4879 66.7156 66.0302V49.4072H75.1128V91.2218H66.7156V88.4798C65.516 90.0222 62.9455 91.9072 59.1753 91.9072C51.9777 91.7359 46.3225 85.0524 46.3225 77.1693ZM67.4011 77.1693C67.4011 73.2278 64.8305 70.3145 61.0604 70.3145C57.2902 70.3145 54.7197 73.2278 54.7197 77.1693C54.7197 81.1109 57.2902 84.0242 61.0604 84.0242C64.8305 84.0242 67.4011 81.2822 67.4011 77.1693ZM90.0219 63.2882H81.6248V102.704H90.0219V88.3084C91.0502 89.8507 93.7921 91.7358 97.5623 91.7358C104.76 91.7358 110.415 85.0523 110.415 77.1693C110.415 69.2862 104.931 62.6027 97.5623 62.6027C93.7921 62.6027 91.2215 64.4878 90.0219 66.0301V63.2882ZM95.8485 70.3144C99.6187 70.3144 102.189 73.2277 102.189 77.1693C102.189 81.2822 99.6187 84.0241 95.8485 84.0241C92.0784 84.0241 89.5078 81.1108 89.5078 77.1693C89.5078 73.2277 92.0784 70.3144 95.8485 70.3144Z" fill="white"></path></svg>