<svg xmlns="http://www.w3.org/2000/svg" viewBox="0 0 200 47"><title>Group</title><g fill="none" fill-rule="evenodd"><g fill="#fff" fill-rule="nonzero"><g transform="translate(0)"><path id="Shape" d="m0.052697 0h6.3816c5.2739 0 9.5987 4.1664 9.5987 9.3877 0 5.2213-4.272 9.3877-9.5987 9.3877h-6.3816v-18.775zm6.3816 14.925c3.1644 0 5.3267-2.5315 5.3267-5.5377 0-3.0062-2.1623-5.5377-5.3267-5.5377h-2.2151v11.075h2.2151z"></path><path id="Shape" d="m18.934 0h7.3836c3.5336 0 5.8013 2.5315 5.8013 5.6431 0 2.4261-1.3185 4.0082-3.6918 4.8521l6.6453 8.2802h-5.063l-6.1705-7.7528h-0.68563v7.7528h-4.2192v-18.775zm6.9089 7.489c1.2657 0 2.1623-0.73831 2.1623-1.7931 0-1.1603-0.89661-1.7932-2.1623-1.7932h-2.6897v3.5863h2.6897z"></path><path id="Path" d="m36.285 16.191c0-1.5821 1.2658-2.8479 2.848-2.8479 1.5821 0 2.8479 1.2658 2.8479 2.8479 0 1.5822-1.2658 2.8479-2.8479 2.8479-1.5822-0.05268-2.848-1.3185-2.848-2.8479z"></path><polygon id="Path" points="51.316 0 55.535 0 55.535 18.775 51.316 18.775"></polygon><polygon id="Path" points="62.497 4.061 57.697 4.061 57.697 0 71.568 0 71.568 4.0082 66.716 4.0082 66.716 18.775 62.497 18.775"></polygon><polygon id="Path" points="73.783 0 85.702 0 85.702 4.0082 78.002 4.0082 78.002 7.3836 84.12 7.3836 84.12 11.392 78.002 11.392 78.002 14.767 85.702 14.767 85.702 18.775 73.783 18.775"></polygon><polygon id="Path" points="102.47 18.775 93.35 7.1726 93.35 18.775 89.13 18.775 89.13 0 92.77 0 101.89 11.603 101.89 0 106.11 0 106.11 18.775"></polygon><path id="Path" d="m111.49 22.889h-2.3209l2.0043-4.1138c-0.89661-0.3692-1.74-1.3713-1.74-2.637 0-1.5822 1.2655-2.8479 2.8477-2.8479 1.5821 0 2.8477 1.2657 2.8477 2.8479 0 0.63286-0.2634 1.2657-0.58 1.8459l-3.0588 4.9048z"></path><path id="Shape" d="m124.57 0h6.3818c5.2741 0 9.5984 4.1664 9.5984 9.3877 0 5.2213-4.272 9.3877-9.5984 9.3877h-6.3818v-18.775zm6.3818 14.925c3.1643 0 5.3264-2.5315 5.3264-5.5377 0-3.0062-2.1621-5.5377-5.3264-5.5377h-2.2154v11.075h2.2154z"></path><path id="Path" d="m143.29 11.339v-11.339h4.2188v11.392c0 2.2679 1.4243 3.6391 3.5332 3.6391 2.1098 0 3.5341-1.3713 3.5341-3.6391v-11.392h4.2188v11.339c0 4.6939-3.2166 7.7528-7.6997 7.7528-4.6409 0-7.8052-3.0588-7.8052-7.7528z"></path><path id="Shape" d="m162.6 0h6.3818c5.2741 0 9.5984 4.1664 9.5984 9.3877 0 5.2213-4.272 9.3877-9.5984 9.3877h-6.3818v-18.775zm6.3818 14.925c3.1643 0 5.3264-2.5315 5.3264-5.5377 0-3.0062-2.1621-5.5377-5.3264-5.5377h-2.2154v11.075h2.2154z"></path><polygon id="Path" points="181.53 0 185.75 0 185.75 14.767 193.5 14.767 193.5 18.775 181.53 18.775"></polygon><polygon id="Path" points="195.72 0 199.94 0 199.94 18.775 195.72 18.775"></polygon><path id="Shape" d="m6.3815 40.029h-2.1623v5.9596h-4.2192v-18.775h6.3815c3.7973 0 6.5925 2.7953 6.5925 6.4343 0.052767 3.6391-2.7952 6.3815-6.5925 6.3815zm-0.05268-8.8603h-2.1096v4.9048h2.1096c1.5295 0 2.5842-1.1076 2.5842-2.4788 0.052767-1.3713-1.0547-2.4261-2.5842-2.4261z"></path><path id="Shape" d="m20.252 27.214h3.7973l8.0164 18.775h-4.3774l-1.6877-3.9555h-7.7528l-1.6877 3.9555h-4.3774l8.0692-18.775zm4.2192 11.181-2.3733-5.6431-2.3733 5.6431h4.7466z"></path><path id="Shape" d="m34.017 27.214h7.3836c3.5336 0 5.8013 2.5315 5.8013 5.6432 0 2.426-1.3185 4.0082-3.6918 4.8521l6.698 8.2802h-5.063l-6.2233-7.7528h-0.68563v7.7528h-4.2192v-18.775zm6.9089 7.4363c1.2657 0 2.1623-0.73831 2.1623-1.7931 0-1.1603-0.89661-1.7931-2.1623-1.7931h-2.6897v3.5863h2.6897z"></path><polygon id="Path" points="54.322 31.222 49.523 31.222 49.523 27.214 63.393 27.214 63.393 31.222 58.541 31.222 58.541 45.989 54.322 45.989"></polygon><polygon id="Path" points="78.952 45.989 69.828 34.386 69.828 45.989 65.608 45.989 65.608 27.214 69.247 27.214 78.372 38.816 78.372 27.214 82.591 27.214 82.591 45.989"></polygon><polygon id="Path" points="86.599 27.214 98.518 27.214 98.518 31.222 90.818 31.222 90.818 34.597 96.936 34.597 96.936 38.605 90.818 38.605 90.818 41.981 98.518 41.981 98.518 45.989 86.599 45.989"></polygon><path id="Shape" d="m101.95 27.214h7.3839c3.5332 0 5.8009 2.5315 5.8009 5.6432 0 2.426-1.3179 4.0082-3.692 4.8521l6.6984 8.2802h-5.063l-6.223-7.7528h-0.68554v7.7528h-4.2196v-18.775zm6.9086 7.4363c1.2664 0 2.163-0.73831 2.163-1.7931 0-1.1603-0.89661-1.7931-2.163-1.7931h-2.6889v3.5863h2.6889z"></path><path id="Path" d="m124.36 32.593h0.73874c0.052331 0.79107 0.89661 1.1603 1.5289 1.1603 0.79107 0 1.3719-0.42196 1.3719-1.1076 0-0.58009-0.36981-1.0021-1.0021-1.213l-1.0021-0.36911c-1.0553-0.42196-1.4766-0.94937-1.4766-1.8987 0-1.0548 0.8434-1.6877 2.0034-1.6877 1.3719 0 1.952 0.89661 2.0575 1.7931h-0.73874c-0.15787-0.73831-0.79107-1.0547-1.3711-1.0547-0.68554 0-1.2655 0.36911-1.2655 1.0021 0 0.63286 0.3166 0.89652 1.0021 1.1603l0.89661 0.36911c1.0021 0.3692 1.5821 0.94937 1.5821 1.9514 0 1.1603-0.89661 1.8459-2.1098 1.8459-1.3187-0.10545-2.2154-0.94929-2.2154-1.9513z"></path><path id="Path" d="m130.16 32.962v-2.7953h-1.0021v-0.63286h1.0021v-1.3185h0.68554v1.3185h1.3711v0.63286h-1.3711v2.7425c0 0.63286 0.2634 0.79107 0.79107 0.79107 0.21107 0 0.47447-0.052767 0.58-0.10545v0.58009c-0.21107 0.052767-0.42214 0.10553-0.68554 0.10553-0.73874 0.10545-1.3711-0.3692-1.3711-1.3185z"></path><path id="Shape" d="m132.69 31.907c0-1.3713 0.89661-2.4788 2.4264-2.4788 1.5289 0 2.3732 1.3185 2.2154 2.6897h-3.9562c0 1.0021 0.79107 1.6877 1.6877 1.6877 0.63321 0 1.1609-0.26366 1.4766-0.89661h0.68641c-0.21107 0.79116-0.94981 1.5295-2.163 1.5295-1.4234-0.05268-2.3732-1.1075-2.3732-2.5315zm0.68554-0.3692h3.2175c-0.15787-0.94929-0.79107-1.4767-1.5821-1.4767-0.68554 0-1.4243 0.3692-1.6353 1.4767z"></path><path id="Path" d="m138.34 32.54v-3.0062h0.68641v2.9007c0 0.84384 0.47447 1.3713 1.16 1.3713 0.79107 0 1.4243-0.73839 1.4243-1.8987v-2.3733h0.68554v4.7993h-0.68554v-0.79107c-0.3166 0.63286-0.89661 0.89661-1.5298 0.89661-1.0021-0.052767-1.7409-0.73839-1.7409-1.8987z"></path><path id="Shape" d="m143.4 31.907c0-1.3713 0.89661-2.4788 2.4264-2.4788 1.5298 0 2.3732 1.3185 2.2154 2.6897h-3.9562c0 1.0021 0.79194 1.6877 1.6886 1.6877 0.63234 0 1.16-0.26366 1.4766-0.89661h0.68554c-0.21107 0.79116-0.94981 1.5295-2.1621 1.5295-1.3719-0.05268-2.3741-1.1075-2.3741-2.5315zm0.73874-0.3692h3.2175c-0.15874-0.94929-0.79107-1.4767-1.5821-1.4767-0.73874 0-1.4775 0.3692-1.6353 1.4767z"></path><path id="Path" d="m149.15 29.534h0.68554v1.0021c0.21107-0.68562 0.8434-1.0548 1.3711-1.0548 0.10554 0 0.21107 8.72e-5 0.36894 0.052767v0.68563c-0.15787-0.052767-0.2634-0.052767-0.42214-0.052767-0.58 0-1.3179 0.52741-1.3179 1.7404v2.4261h-0.68554v-4.7994z"></path><path id="Shape" d="m153 33.49v0.79116h-0.68554v-7.1199h0.68554v3.2171c0.36893-0.52741 1.0545-0.89661 1.7932-0.89661 1.3711 0 2.3732 1.1076 2.3732 2.4788 0 1.3713-1.0021 2.4788-2.3732 2.4788-0.73874-0.052767-1.4243-0.42196-1.7932-0.94937zm3.4809-1.5821c0-1.0548-0.73874-1.8459-1.7409-1.8459-1.0545 0-1.74 0.84384-1.74 1.8459 0 1.0548 0.73787 1.8459 1.74 1.8459 1.0021 0.05268 1.7409-0.79107 1.7409-1.8459z"></path><path id="Shape" d="m157.9 31.907c0-1.3713 0.89661-2.4788 2.4264-2.4788 1.5289 0 2.3732 1.3185 2.2145 2.6897h-3.9554c0 1.0021 0.79107 1.6877 1.6877 1.6877 0.63321 0 1.1609-0.26366 1.4766-0.89661h0.68641c-0.21107 0.79116-0.94981 1.5295-2.163 1.5295-1.3711-0.05268-2.3732-1.1075-2.3732-2.5315zm0.73874-0.3692h3.2166c-0.15787-0.94929-0.79107-1.4767-1.5821-1.4767-0.68554 0-1.4234 0.3692-1.6345 1.4767z"></path><path id="Path" d="m163.65 29.534h0.68554v1.0021c0.21107-0.68562 0.84428-1.0548 1.3719-1.0548 0.10553 0 0.21107 8.72e-5 0.36893 0.052767v0.68563c-0.15786-0.052767-0.2634-0.052767-0.42214-0.052767-0.58 0-1.3187 0.52741-1.3187 1.7404v2.4261h-0.68554v-4.7994z"></path><path id="Shape" d="m166.39 31.907c0-1.3713 1.0021-2.4788 2.3732-2.4788 0.73787 0 1.4243 0.3692 1.7932 0.89661v-0.79116h0.68554v4.7994h-0.68554v-0.79107c-0.36893 0.52732-1.0553 0.89652-1.7932 0.89652-1.3187-0.05268-2.3732-1.1603-2.3732-2.5315zm4.2188 0c0-1.0547-0.73787-1.8459-1.74-1.8459-1.0553 0-1.7409 0.84384-1.7409 1.8459 0 1.0548 0.73874 1.8459 1.7409 1.8459 1.0021 0.052767 1.74-0.79107 1.74-1.8459z"></path><path id="Path" d="m173.04 32.962v-2.7953h-1.0021v-0.63286h1.0021v-1.3185h0.68554v1.3185h1.3711v0.63286h-1.3711v2.7425c0 0.63286 0.2634 0.79107 0.79107 0.79107 0.21107 0 0.47447-0.052767 0.58-0.10545v0.58009c-0.21107 0.052767-0.42214 0.10553-0.68554 0.10553-0.79107 0.10545-1.3711-0.3692-1.3711-1.3185z"></path><path id="Path" d="m175.94 32.54v-3.0062h0.68554v2.9007c0 0.84384 0.47447 1.3713 1.16 1.3713 0.79107 0 1.4243-0.73839 1.4243-1.8987v-2.3733h0.68554v4.7993h-0.68554v-0.79107c-0.3166 0.63286-0.89661 0.89661-1.5298 0.89661-1.0021-0.052767-1.74-0.73839-1.74-1.8987z"></path><path id="Path" d="m181.32 29.534h0.68554v0.79116c0.36981-0.63294 0.94981-0.89661 1.583-0.89661 1.0545 0 1.7923 0.73839 1.7923 1.8987v3.0062h-0.68554v-2.9007c0-0.84384-0.47447-1.3713-1.2123-1.3713-0.84428 0-1.4775 0.68563-1.4775 1.8987v2.3733h-0.68554v-4.7994z"></path><path id="Shape" d="m186.54 34.808h0.68554c0.21107 0.68563 0.8434 1.0021 1.6877 1.0021 0.94894 0 1.6345-0.63286 1.6345-1.7931v-0.58018c-0.36893 0.52741-1.0021 0.89661-1.74 0.89661-1.3711 0-2.3732-1.0548-2.3732-2.4261s1.0021-2.4261 2.3732-2.4261c0.73787 0 1.4243 0.3692 1.74 0.89661v-0.79107h0.68554v4.4829c0 1.5822-1.0013 2.3733-2.32 2.3733-1.3187-0.052767-2.2154-0.68562-2.3732-1.6349zm4.0077-2.9535c0-1.0547-0.68554-1.7931-1.74-1.7931s-1.7409 0.79107-1.7409 1.7931c0 1.0548 0.68641 1.7932 1.7409 1.7932 1.0545 0.05268 1.74-0.73839 1.74-1.7932z"></path><path id="Path" d="m124.68 44.09v-3.0062h0.68554v2.9006c0 0.84384 0.47447 1.3713 1.16 1.3713 0.79107 0 1.4243-0.73831 1.4243-1.8986v-2.3733h0.68554v4.7993h-0.68554v-0.79107c-0.3166 0.63286-0.89661 0.89661-1.5289 0.89661-1.0021 0-1.7409-0.73839-1.7409-1.8987z"></path><path id="Path" d="m130.06 41.137h0.68554v0.79107c0.36894-0.63286 0.94894-0.89661 1.5821-0.89661 1.0545 0 1.7932 0.73839 1.7932 1.8987v3.0062h-0.68554v-2.9007c0-0.84384-0.47447-1.3713-1.2132-1.3713-0.8434 0-1.4766 0.68563-1.4766 1.8987v2.3733h-0.68554v-4.7993z"></path><path id="Shape" d="m135.12 43.51c0-1.3713 1.0021-2.4788 2.3732-2.4788 0.73874 0 1.4243 0.3692 1.7932 0.89661v-3.2171h0.68554v7.1726h-0.68554v-0.79107c-0.36893 0.52741-1.0545 0.89661-1.7932 0.89661-1.3711 0-2.3732-1.1076-2.3732-2.4788zm4.2188 0c0-1.0547-0.73787-1.8459-1.74-1.8459-1.0545 0-1.7409 0.84384-1.7409 1.8459 0 1.0548 0.73874 1.8459 1.7409 1.8459s1.74-0.79107 1.74-1.8459z"></path><polygon id="Path" points="145.25 39.819 143.03 39.819 143.03 39.133 148.15 39.133 148.15 39.819 145.93 39.819 145.93 45.936 145.19 45.936"></polygon><path id="Path" d="m148.25 41.137h0.68554v1.0021c0.21107-0.68563 0.8434-1.0547 1.3711-1.0547 0.10554 0 0.21107 0 0.36894 0.05268v0.68563c-0.15787-0.05268-0.2634-0.05268-0.42214-0.05268-0.58 0-1.3179 0.52741-1.3179 1.7404v2.4261h-0.68554v-4.7994z"></path><path id="Shape" d="m150.99 43.51c0-1.3713 0.89661-2.4788 2.4255-2.4788 1.5298 0 2.3741 1.3185 2.2154 2.6897h-3.9554c0 1.0021 0.79107 1.6877 1.6877 1.6877 0.63321 0 1.16-0.26366 1.4766-0.89652h0.68554c-0.21107 0.79107-0.94894 1.5294-2.1621 1.5294-1.3711-0.05268-2.3732-1.1075-2.3732-2.5314zm0.73787-0.42196h3.2175c-0.15787-0.94929-0.79107-1.4767-1.5821-1.4767-0.68554 0.05268-1.4766 0.42188-1.6353 1.4767z"></path><path id="Path" d="m156.69 44.09v-3.0062h0.68554v2.9006c0 0.84384 0.47447 1.3713 1.16 1.3713 0.79107 0 1.4243-0.73831 1.4243-1.8986v-2.3733h0.68554v4.7993h-0.68554v-0.79107c-0.3166 0.63286-0.89661 0.89661-1.5298 0.89661-1.0021 0-1.74-0.73839-1.74-1.8987z"></path><path id="Path" d="m162.02 38.711h0.68554v3.2171c0.36894-0.63295 0.94894-0.89661 1.5821-0.89661 1.0545 0 1.7932 0.73839 1.7932 1.8987v3.0062h-0.68554v-2.9007c0-0.84384-0.47447-1.3713-1.2132-1.3713-0.8434 0-1.4766 0.68563-1.4766 1.8987v2.3733h-0.68554v-7.2254z"></path><path id="Shape" d="m167.13 43.51c0-1.3713 1.0021-2.4788 2.3732-2.4788 0.73874 0 1.4243 0.3692 1.7932 0.89661v-0.79107h0.68554v4.7993h-0.68554v-0.79107c-0.36893 0.52741-1.0545 0.89652-1.7932 0.89652-1.3711-0.05268-2.3732-1.1603-2.3732-2.5314zm4.1664 0c0-1.0548-0.73787-1.846-1.74-1.846-1.0553 0-1.7409 0.84384-1.7409 1.846 0 1.0547 0.73874 1.8459 1.7409 1.8459 1.0545 0 1.74-0.79116 1.74-1.8459z"></path><path id="a" d="m173.36 41.137h0.68554v0.79107c0.36893-0.63286 0.94894-0.89661 1.5821-0.89661 1.0545 0 1.7932 0.73839 1.7932 1.8987v3.0062h-0.68554v-2.9007c0-0.84384-0.47534-1.3713-1.2132-1.3713-0.84428 0-1.4766 0.68563-1.4766 1.8987v2.3733h-0.68554v-4.7993z"></path><path id="b" d="m178.42 43.51c0-1.3713 1.0021-2.4788 2.3732-2.4788 0.73787 0 1.4234 0.3692 1.7932 0.89661v-3.2171h0.68554v7.1726h-0.68554v-0.79107c-0.36981 0.52741-1.0553 0.89661-1.7932 0.89661-1.3187 0-2.3732-1.1076-2.3732-2.4788zm4.2188 0c0-1.0547-0.73787-1.8459-1.74-1.8459-1.0553 0-1.7409 0.84384-1.7409 1.8459 0 1.0548 0.73874 1.8459 1.7409 1.8459 1.0545 0 1.74-0.79107 1.74-1.8459z"></path><path d="m189.34 39.08h0.58l3.0588 6.8035h-0.79107l-0.94894-2.1096h-3.2707l-0.94894 2.1096h-0.73874l3.0596-6.8035zm1.6345 4.0082-1.3187-2.9534-1.3179 2.9534h2.6366z"></path><path d="m193.03 42.508c0-2.0041 1.5298-3.5336 3.5341-3.5336 1.6877 0 2.8477 1.0548 3.2166 2.1096h-0.79107c-0.36894-0.79116-1.2655-1.424-2.4255-1.424-1.5821 0-2.7954 1.213-2.7954 2.8479 0 1.5822 1.2132 2.8479 2.7954 2.8479 1.4766 0 2.5311-1.1075 2.6898-2.5842h-2.6898v-0.68563h3.4277c0.15874 2.3733-1.4766 3.9554-3.4277 3.9554-1.952-0.05268-3.5341-1.5821-3.5341-3.5336z"></path></g></g></g></svg>