<?xml version="1.0" standalone="no"?>
<!DOCTYPE svg PUBLIC "-//W3C//DTD SVG 20010904//EN"
 "http://www.w3.org/TR/2001/REC-SVG-20010904/DTD/svg10.dtd">
<svg version="1.0" xmlns="http://www.w3.org/2000/svg"
 width="700.000000pt" height="700.000000pt" viewBox="0 0 700.000000 700.000000"
 preserveAspectRatio="xMidYMid meet">
<metadata>
Created by potrace 1.14, written by Peter Selinger 2001-2017
</metadata>
<g transform="translate(0.000000,700.000000) scale(0.100000,-0.100000)"
fill="#000000" stroke="none">
<path d="M3397 6994 c-1 -1 -56 -4 -122 -8 -66 -3 -131 -8 -145 -10 -14 -3
-51 -8 -83 -11 -32 -3 -82 -10 -110 -16 -29 -5 -68 -12 -87 -15 -19 -3 -98
-20 -175 -39 -344 -82 -691 -226 -1000 -415 -628 -383 -1141 -987 -1410 -1660
-20 -52 -43 -108 -50 -125 -33 -77 -121 -390 -139 -495 -3 -19 -8 -46 -11 -60
-5 -21 -14 -85 -40 -265 -8 -58 -19 -261 -18 -370 0 -121 11 -357 17 -377 3
-7 7 -42 11 -77 3 -36 7 -67 9 -70 2 -3 6 -29 10 -58 3 -28 8 -57 10 -65 3 -7
7 -29 10 -48 9 -59 55 -239 88 -345 281 -906 923 -1662 1773 -2088 72 -36 132
-65 135 -65 3 1 23 -8 45 -19 71 -36 306 -120 440 -157 190 -52 417 -96 570
-110 163 -16 202 -18 341 -19 137 -1 391 10 404 17 3 2 34 7 69 10 54 6 192
29 306 51 234 46 589 172 835 298 156 80 406 232 474 288 6 5 40 32 76 60 193
150 373 319 495 465 28 32 55 64 61 69 7 6 49 60 95 120 273 362 467 754 584
1175 33 117 69 281 81 360 3 19 7 40 9 47 2 7 7 45 10 85 4 40 8 78 10 85 7
22 19 244 18 353 0 118 -10 342 -18 380 -3 14 -7 48 -10 75 -5 53 -8 75 -30
195 -70 383 -210 763 -408 1105 -484 834 -1276 1427 -2212 1654 -182 44 -345
69 -565 87 -68 5 -348 12 -353 8z"/>
</g>
</svg>
