<?xml version="1.0" encoding="utf-8"?>
<!-- Generator: Adobe Illustrator 26.0.2, SVG Export Plug-In . SVG Version: 6.00 Build 0)  -->
<svg version="1.1" id="Ebene_1" xmlns="http://www.w3.org/2000/svg" xmlns:xlink="http://www.w3.org/1999/xlink" x="0px" y="0px"
	 viewBox="0 0 330 64" style="enable-background:new 0 0 330 64;" xml:space="preserve">
<style type="text/css">
	.st0{fill:#002F60;}
	.st1{fill:none;}
</style>
<g>
	<path class="st0" d="M51.6,31.2c-4.5,0.8-8.4,1.1-11.7,1.1h0c-11.3,0-16.4-3.5-16.7-3.7c-3.7-2.5-5.2-6.2-5.1-9.8
		c0-5,2.4-10,4.7-13.9c1.2-2.1,2.5-3.8,3.3-5H15.4L0.8,60.5C12.8,58.4,32.4,51.8,51.6,31.2"/>
	<path class="st0" d="M61.5,25.5c4.2-1.2,8.8-2.9,13.9-5l2.7-11c-1.9,1.6-4,3.5-6.1,5.5C68.3,18.5,64.6,22.3,61.5,25.5"/>
	<path class="st0" d="M54.1,33.4C33.5,55.4,12.4,62.1,0,64l0,0h64.9l9.5-39.5C68,27,62.3,28.8,57.2,30.1
		C55.3,32.1,54.1,33.3,54.1,33.4"/>
	<path class="st0" d="M30.4,0c-0.2,0.2-0.6,0.7-0.8,0.9c-0.2,0.3-0.6,0.7-1,1.3c-0.8,1.1-1.9,2.6-3,4.5c-2.2,3.6-4.3,8.3-4.2,12.2
		c0,2.8,0.9,5.1,3.7,7l0,0l0,0l0,0c0,0,0.1,0,0.1,0.1c0.1,0.1,0.3,0.2,0.6,0.3c0.5,0.3,1.4,0.7,2.6,1.1c2.4,0.8,6.1,1.6,11.5,1.6
		c4.2,0,9.3-0.5,15.6-1.9C60,22.1,68.1,13.8,75,7.7c1.5-1.3,2.9-2.5,4.3-3.5l1-4.2H30.4z"/>
	<path class="st0" d="M29.5,0.9c0.2-0.2,0.6-0.7,0.8-0.9h-1.1l0.6,0.5C29.9,0.5,29.8,0.6,29.5,0.9"/>
	<path class="st0" d="M89.7,14.6h0.5c0.8,1.8,1.8,2.6,3,2.6c1.5,0,2.1-1,2.1-1.9c0-1.1-0.8-1.5-2.6-2.2c-1.4-0.5-2.8-0.9-2.8-2.8
		c0-1.9,1.5-3,3.4-3c0.8,0,1.5,0.2,1.9,0.3l0.5-0.4h0.3v2.9h-0.5c-0.5-1.4-1.3-2.3-2.5-2.3c-1,0-1.8,0.7-1.8,1.8
		c0,1.1,0.9,1.4,2.5,2c1.4,0.5,2.8,0.9,2.8,2.8c0,1.5-0.9,3.2-3.4,3.2c-0.8,0-1.7-0.2-2.2-0.4L90,17.8h-0.4V14.6z"/>
	<path class="st0" d="M97.3,14.1c0-2.1,1.4-3.7,3.3-3.7c1.6,0,2.4,0.9,2.4,1.6c0,0.5-0.3,0.9-0.8,0.9c-0.5,0-0.8-0.3-0.8-0.8
		c0-0.4,0.3-0.7,0.5-0.8c-0.2-0.2-0.7-0.4-1.3-0.4c-1.1,0-2,0.9-2,2.9c0,1.8,0.9,3,2.4,3c0.8,0,1.5-0.4,2-1l0.3,0.3
		c-0.6,0.9-1.4,1.6-2.8,1.6C98.5,17.7,97.3,16.1,97.3,14.1"/>
	<path class="st0" d="M104,17.1c0.9,0,1.1-0.2,1.1-0.5V8.3c0-0.5-0.3-0.7-1.2-0.7V7.1l2.4-0.1v4.6c0.8-0.6,1.7-1.1,2.7-1.1
		c1,0,1.7,0.7,1.7,2.1v3.9c0,0.4,0.2,0.5,1.1,0.5v0.5h-3.3v-0.5c0.8,0,1-0.2,1-0.5v-3.4c0-1.3-0.5-1.7-1.4-1.7
		c-0.7,0-1.3,0.3-1.7,0.6v4.5c0,0.4,0.2,0.5,1,0.5v0.5H104V17.1z"/>
	<path class="st0" d="M117.2,12c-0.2-0.6-0.5-0.9-1.1-1v-0.4h3.1V11c-0.7,0-1,0.2-1,0.5c0,0.1,0,0.2,0.1,0.3l1.5,4.1h0.1l1.2-3.5
		c0.1-0.3,0.2-0.6,0.2-0.8c0-0.3-0.2-0.5-0.9-0.7v-0.4h2.8V11c-0.8,0.1-1,0.4-1.3,1.1l-2,5.5h-0.6l-1.6-4.4l-1.8,4.4h-0.7l-2.1-5.6
		c-0.3-0.7-0.4-0.8-1.1-1v-0.4h3.2V11c-0.7,0-0.9,0.2-0.9,0.5c0,0.1,0,0.2,0.1,0.3l1.5,4.1h0.1l1.4-3.5L117.2,12z"/>
	<path class="st0" d="M124.6,13.4l3.2-0.1c0.2-1.3-0.4-2.4-1.5-2.4C125.5,11,124.8,11.7,124.6,13.4 M123.3,14.1
		c0-2.1,1.3-3.7,3.2-3.7c2,0,2.9,1.7,2.8,3.4h-4.6V14v0c0,1.7,0.8,2.9,2.3,2.9c0.8,0,1.5-0.5,2.1-1.3l0.3,0.3
		c-0.6,0.9-1.3,1.8-2.9,1.8C124.4,17.7,123.3,16.1,123.3,14.1"/>
	<path class="st0" d="M131.1,8c0-0.5,0.3-0.9,0.9-0.9c0.5,0,0.9,0.4,0.9,0.9c0,0.5-0.3,0.9-0.9,0.9C131.4,8.8,131.1,8.5,131.1,8
		 M130.2,17.1c0.9,0,1.1-0.2,1.1-0.5v-4.7c0-0.5-0.2-0.7-1.1-0.7v-0.5l2.4-0.1v6c0,0.4,0.2,0.5,1.1,0.5v0.5h-3.5V17.1z"/>
	<path class="st0" d="M134.6,17.3l4.3-6.1h-1.5c-1.3,0-1.6,0.6-2.1,1.8l-0.4,0l0.1-2.3h5.5l0,0.2l-4.3,6.1h1.5
		c1.4,0,1.8-0.7,2.3-1.9l0.4,0l-0.1,2.4h-5.7L134.6,17.3z"/>
	<path class="st0" d="M143,13.4l3.2-0.1c0.2-1.3-0.4-2.4-1.5-2.4C143.9,11,143.2,11.7,143,13.4 M141.7,14.1c0-2.1,1.3-3.7,3.2-3.7
		c2,0,2.9,1.7,2.8,3.4H143V14v0c0,1.7,0.8,2.9,2.3,2.9c0.8,0,1.5-0.5,2.1-1.3l0.3,0.3c-0.6,0.9-1.3,1.8-2.9,1.8
		C142.8,17.7,141.7,16.1,141.7,14.1"/>
	<path class="st0" d="M148.9,17.1c0.9,0,1.1-0.2,1.1-0.5v-4.7c0-0.5-0.2-0.7-1.1-0.7v-0.5l2.3-0.1v1.2c0.5-0.7,1.2-1.2,2-1.2
		c0.8,0,1.1,0.5,1.1,1c0,0.5-0.3,0.9-0.8,0.9c-0.5,0-0.8-0.3-0.8-0.8c0-0.1,0-0.2,0-0.3c-0.7,0-1.2,0.4-1.5,0.9v4.3
		c0,0.4,0.3,0.5,1.3,0.5v0.5h-3.6V17.1z"/>
	<path class="st0" d="M156,8c0-0.5,0.3-0.9,0.9-0.9c0.5,0,0.9,0.4,0.9,0.9c0,0.5-0.3,0.9-0.9,0.9C156.3,8.8,156,8.5,156,8
		 M155.1,17.1c0.9,0,1.1-0.2,1.1-0.5v-4.7c0-0.5-0.2-0.7-1.1-0.7v-0.5l2.4-0.1v6c0,0.4,0.2,0.5,1.1,0.5v0.5h-3.5V17.1z"/>
	<path class="st0" d="M159.7,15.3h0.4c0.7,1.1,1.4,1.8,2.3,1.8c0.8,0,1.2-0.6,1.2-1.1c0-0.7-0.4-1-1.8-1.4c-1.5-0.5-2.1-1-2.1-1.9
		c0-1.3,0.9-2.2,2.4-2.2c0.5,0,1.1,0.2,1.4,0.4l0.3-0.4h0.3v2.1h-0.4c-0.5-0.9-1.1-1.6-1.8-1.6c-0.7,0-1.2,0.5-1.2,1.1
		c0,0.6,0.5,0.9,1.7,1.3c1.4,0.4,2.1,0.9,2.1,2c0,1.3-0.8,2.3-2.3,2.3c-0.6,0-1.3-0.2-1.8-0.5l-0.5,0.5h-0.3V15.3z"/>
	<path class="st0" d="M165.6,14.1c0-2.1,1.4-3.7,3.3-3.7c1.6,0,2.4,0.9,2.4,1.6c0,0.5-0.3,0.9-0.8,0.9c-0.5,0-0.8-0.3-0.8-0.8
		c0-0.4,0.3-0.7,0.5-0.8c-0.2-0.2-0.7-0.4-1.3-0.4c-1.1,0-2,0.9-2,2.9c0,1.8,0.9,3,2.4,3c0.8,0,1.4-0.4,2-1l0.3,0.3
		c-0.6,0.9-1.4,1.6-2.8,1.6C166.8,17.7,165.6,16.1,165.6,14.1"/>
	<path class="st0" d="M172.3,17.1c0.9,0,1.1-0.2,1.1-0.5V8.3c0-0.5-0.3-0.7-1.2-0.7V7.1l2.4-0.1v4.6c0.8-0.6,1.7-1.1,2.7-1.1
		c1,0,1.7,0.7,1.7,2.1v3.9c0,0.4,0.2,0.5,1.1,0.5v0.5h-3.3v-0.5c0.8,0,1-0.2,1-0.5v-3.4c0-1.3-0.5-1.7-1.4-1.7
		c-0.7,0-1.3,0.3-1.7,0.6v4.5c0,0.4,0.2,0.5,1,0.5v0.5h-3.3V17.1z"/>
	<path class="st0" d="M182.5,13.4l3.2-0.1c0.2-1.3-0.4-2.4-1.5-2.4C183.3,11,182.6,11.7,182.5,13.4 M181.1,14.1
		c0-2.1,1.3-3.7,3.2-3.7c2,0,2.9,1.7,2.8,3.4h-4.6V14v0c0,1.7,0.8,2.9,2.3,2.9c0.8,0,1.5-0.5,2.1-1.3l0.3,0.3
		c-0.6,0.9-1.3,1.8-2.9,1.8C182.2,17.7,181.1,16.1,181.1,14.1"/>
	<path class="st0" d="M193.1,17.1c1.3,0,1.7-0.2,1.7-0.7V8.1H194c-1.4,0-1.7,0.8-2.3,2.6l-0.5,0l0.1-3.1h8.4l0.1,3.1l-0.5,0
		c-0.5-1.7-0.8-2.6-2.3-2.6h-0.8v8.3c0,0.5,0.3,0.6,1.7,0.7v0.5h-4.8V17.1z"/>
	<path class="st0" d="M200.4,17.1c0.9,0,1.1-0.2,1.1-0.5v-4.7c0-0.5-0.2-0.7-1.1-0.7v-0.5l2.3-0.1v1.2c0.5-0.7,1.2-1.2,2-1.2
		c0.8,0,1.1,0.5,1.1,1c0,0.5-0.3,0.9-0.8,0.9c-0.5,0-0.8-0.3-0.8-0.8c0-0.1,0-0.2,0-0.3c-0.7,0-1.2,0.4-1.5,0.9v4.3
		c0,0.4,0.3,0.5,1.3,0.5v0.5h-3.6V17.1z"/>
	<path class="st0" d="M207.7,13.4l3.2-0.1c0.2-1.3-0.4-2.4-1.5-2.4C208.5,11,207.8,11.7,207.7,13.4 M206.3,14.1
		c0-2.1,1.3-3.7,3.2-3.7c2,0,2.9,1.7,2.8,3.4h-4.6V14v0c0,1.7,0.8,2.9,2.3,2.9c0.8,0,1.5-0.5,2.1-1.3l0.3,0.3
		c-0.6,0.9-1.3,1.8-2.9,1.8C207.4,17.7,206.3,16.1,206.3,14.1"/>
	<path class="st0" d="M214.1,15.6v-3.9c0-0.5-0.2-0.6-1.1-0.6v-0.5l2.4-0.1V15c0,1.3,0.5,1.7,1.5,1.7c0.7,0,1.1-0.2,1.6-0.5v-4.5
		c0-0.5-0.3-0.6-1.1-0.6v-0.5l2.4-0.1v6c0,0.4,0.2,0.5,1.1,0.5v0.5h-2.3v-0.9c-0.8,0.5-1.6,1-2.6,1
		C214.8,17.7,214.1,16.9,214.1,15.6"/>
	<path class="st0" d="M221.6,17.1c0.9,0,1.1-0.2,1.1-0.5V8.3c0-0.5-0.3-0.7-1.2-0.7V7.1L224,7v4.6c0.8-0.6,1.7-1.1,2.7-1.1
		c1,0,1.7,0.7,1.7,2.1v3.9c0,0.4,0.2,0.5,1.1,0.5v0.5h-3.3v-0.5c0.8,0,1-0.2,1-0.5v-3.4c0-1.3-0.5-1.7-1.4-1.7
		c-0.7,0-1.3,0.3-1.7,0.6v4.5c0,0.4,0.2,0.5,0.9,0.5v0.5h-3.3V17.1z"/>
	<path class="st0" d="M234.5,15.9v-2c-2.2,0.5-2.7,0.8-2.7,1.8c0,0.6,0.3,1.1,1.1,1.1C233.6,16.8,234.2,16.4,234.5,15.9 M230.5,16
		c0-0.6,0.3-1.2,0.9-1.6c1.1-0.6,2.9-0.9,3.2-1.1V13c0-1.5-0.4-2-1.4-2c-0.5,0-0.8,0.1-1,0.4c0.1,0.3,0.2,0.5,0.2,0.7
		c0,0.5-0.3,0.8-0.8,0.8c-0.5,0-0.8-0.4-0.8-0.8c0-0.9,1.2-1.6,2.6-1.6c1.6,0,2.5,0.7,2.5,2.2v3.5c0,0.7,0.2,0.9,1.2,0.8l0.1,0.4
		c-0.5,0.2-0.9,0.3-1.4,0.3c-0.8,0-0.9-0.3-1-1.2h-0.1c-0.6,0.7-1.4,1.2-2.3,1.2C231,17.6,230.5,16.9,230.5,16"/>
	<path class="st0" d="M237.6,17.1c0.9,0,1.1-0.2,1.1-0.5v-4.7c0-0.5-0.2-0.7-1.1-0.7v-0.5l2.3-0.1v1c0.8-0.6,1.7-1.1,2.7-1.1
		c1,0,1.7,0.7,1.7,2.1v3.9c0,0.4,0.2,0.5,1.1,0.5v0.5h-3.3v-0.5c0.8,0,1-0.2,1-0.5v-3.4c0-1.3-0.5-1.7-1.4-1.7
		c-0.7,0-1.3,0.3-1.7,0.6v4.5c0,0.4,0.2,0.5,1,0.5v0.5h-3.3V17.1z"/>
	<path class="st0" d="M251.4,16.3v-4.5c-0.4-0.6-0.8-0.9-1.6-0.9c-1.1,0-2,1.1-2,3.2c0,1.6,0.8,2.8,2.1,2.8
		C250.5,16.9,251,16.7,251.4,16.3 M246.4,14.2c0-2.1,1.3-3.7,3.4-3.7c0.8,0,1.2,0.2,1.6,0.4V8.3c0-0.5-0.3-0.7-1.2-0.7V7.1l2.4-0.1
		v9.5c0,0.4,0.2,0.5,1.1,0.5v0.5l-2.3,0.1v-0.8c-0.5,0.5-1.2,0.9-2.1,0.9C247.5,17.7,246.4,16.1,246.4,14.2"/>
	<path class="st0" d="M259,12.8c0-1.2-0.6-1.9-1.4-1.9c-0.8,0-1.3,0.5-1.3,1.9c0,1.4,0.7,1.9,1.4,1.9C258.4,14.7,259,14.2,259,12.8
		 M260.1,18.6c0-0.6-0.4-1.1-2-1.1h-1.3c-0.8,0.2-1.3,0.5-1.3,1.2c0,0.7,0.6,1.3,2.3,1.3C259.1,20.1,260.1,19.5,260.1,18.6
		 M258.9,10.8c0.3-0.6,0.8-1.2,1.5-1.2c0.5,0,0.8,0.3,0.8,0.7c0,0.3-0.3,0.6-0.6,0.6c-0.3,0-0.6-0.3-0.6-0.7
		c-0.3,0.1-0.7,0.4-0.8,0.7c0.6,0.4,1.1,1,1.1,1.9c0,1.5-1.1,2.3-2.7,2.3c-0.3,0-0.6,0-0.9-0.1c-0.5,0.2-0.7,0.4-0.7,0.7
		c0,0.3,0.3,0.6,1.5,0.6h0.6c1.9,0,2.9,0.5,2.9,1.9c0,1.2-1.2,2.4-3.6,2.4c-1.9,0-3-0.7-3-1.6c0-0.7,0.7-1.4,1.9-1.6v-0.1
		c-0.9-0.2-1.3-0.5-1.3-1.2c0-0.5,0.4-0.9,1.1-1.3c-0.8-0.3-1.3-1-1.3-2c0-1.5,1.1-2.3,2.7-2.3C258.1,10.5,258.5,10.6,258.9,10.8"/>
	<path class="st0" d="M263.4,13.4l3.2-0.1c0.2-1.3-0.4-2.4-1.5-2.4C264.2,11,263.5,11.7,263.4,13.4 M262,14.1c0-2.1,1.3-3.7,3.2-3.7
		c2,0,2.9,1.7,2.8,3.4h-4.6V14v0c0,1.7,0.8,2.9,2.3,2.9c0.8,0,1.5-0.5,2.1-1.3l0.3,0.3c-0.6,0.9-1.3,1.8-2.9,1.8
		C263.1,17.7,262,16.1,262,14.1"/>
	<path class="st0" d="M269.5,15.3h0.4c0.7,1.1,1.4,1.8,2.3,1.8c0.8,0,1.2-0.6,1.2-1.1c0-0.7-0.4-1-1.8-1.4c-1.5-0.5-2.1-1-2.1-1.9
		c0-1.3,0.9-2.2,2.4-2.2c0.5,0,1.1,0.2,1.4,0.4l0.3-0.4h0.3v2.1h-0.4c-0.5-0.9-1.1-1.6-1.8-1.6c-0.7,0-1.2,0.5-1.2,1.1
		c0,0.6,0.5,0.9,1.7,1.3c1.4,0.4,2.1,0.9,2.1,2c0,1.3-0.8,2.3-2.3,2.3c-0.6,0-1.3-0.2-1.8-0.5l-0.5,0.5h-0.3V15.3z"/>
	<path class="st0" d="M277,13.4l3.2-0.1c0.2-1.3-0.4-2.4-1.5-2.4C277.9,11,277.2,11.7,277,13.4 M275.7,14.1c0-2.1,1.3-3.7,3.2-3.7
		c2,0,2.9,1.7,2.8,3.4H277V14v0c0,1.7,0.8,2.9,2.3,2.9c0.8,0,1.5-0.5,2.1-1.3l0.3,0.3c-0.6,0.9-1.3,1.8-2.9,1.8
		C276.8,17.7,275.7,16.1,275.7,14.1"/>
	<path class="st0" d="M282.8,17.1c0.9,0,1.1-0.2,1.1-0.5V8.3c0-0.5-0.3-0.7-1.2-0.7V7.1l2.4-0.1v9.5c0,0.4,0.2,0.5,1.1,0.5v0.5h-3.5
		V17.1z"/>
	<path class="st0" d="M287.2,17.1c0.9,0,1.1-0.2,1.1-0.5V8.3c0-0.5-0.3-0.7-1.2-0.7V7.1l2.4-0.1v9.5c0,0.4,0.2,0.5,1.1,0.5v0.5h-3.5
		V17.1z"/>
	<path class="st0" d="M291.8,15.3h0.4c0.7,1.1,1.4,1.8,2.3,1.8c0.8,0,1.2-0.6,1.2-1.1c0-0.7-0.4-1-1.8-1.4c-1.5-0.5-2.1-1-2.1-1.9
		c0-1.3,0.9-2.2,2.4-2.2c0.5,0,1.1,0.2,1.4,0.4l0.3-0.4h0.3v2.1h-0.4c-0.5-0.9-1.1-1.6-1.8-1.6c-0.7,0-1.2,0.5-1.2,1.1
		c0,0.6,0.5,0.9,1.7,1.3c1.4,0.4,2.1,0.9,2.1,2c0,1.3-0.8,2.3-2.3,2.3c-0.6,0-1.3-0.2-1.8-0.5l-0.5,0.5h-0.3V15.3z"/>
	<path class="st0" d="M298,14.1c0-2.1,1.4-3.7,3.3-3.7c1.6,0,2.4,0.9,2.4,1.6c0,0.5-0.3,0.9-0.8,0.9c-0.5,0-0.8-0.3-0.8-0.8
		c0-0.4,0.3-0.7,0.5-0.8c-0.2-0.2-0.7-0.4-1.3-0.4c-1.1,0-2,0.9-2,2.9c0,1.8,0.9,3,2.4,3c0.8,0,1.4-0.4,2-1l0.3,0.3
		c-0.6,0.9-1.4,1.6-2.8,1.6C299.2,17.7,298,16.1,298,14.1"/>
	<path class="st0" d="M304.4,17.1c0.9,0,1.1-0.2,1.1-0.5V8.3c0-0.5-0.3-0.7-1.2-0.7V7.1l2.4-0.1v4.6c0.8-0.6,1.7-1.1,2.7-1.1
		c1,0,1.7,0.7,1.7,2.1v3.9c0,0.4,0.2,0.5,1.1,0.5v0.5h-3.3v-0.5c0.8,0,1-0.2,1-0.5v-3.4c0-1.3-0.5-1.7-1.4-1.7
		c-0.7,0-1.3,0.3-1.7,0.6v4.5c0,0.4,0.2,0.5,1,0.5v0.5h-3.3V17.1z"/>
	<path class="st0" d="M317.3,15.9v-2c-2.2,0.5-2.7,0.8-2.7,1.8c0,0.6,0.3,1.1,1.1,1.1C316.4,16.8,317,16.4,317.3,15.9 M313.3,16
		c0-0.6,0.3-1.2,0.9-1.6c1.1-0.6,2.9-0.9,3.2-1.1V13c0-1.5-0.4-2-1.4-2c-0.5,0-0.8,0.1-1,0.4c0.1,0.3,0.2,0.5,0.2,0.7
		c0,0.5-0.3,0.8-0.8,0.8c-0.5,0-0.8-0.4-0.8-0.8c0-0.9,1.2-1.6,2.6-1.6c1.6,0,2.5,0.7,2.5,2.2v3.5c0,0.7,0.2,0.9,1.2,0.8l0.1,0.4
		c-0.5,0.2-0.9,0.3-1.4,0.3c-0.8,0-0.9-0.3-1-1.2h-0.1c-0.6,0.7-1.4,1.2-2.3,1.2C313.8,17.6,313.3,16.9,313.3,16"/>
	<path class="st0" d="M320.3,17.1c0.9,0,1.1-0.2,1.1-0.5v-5.2h-1.3v-0.4l1.3-0.3v-0.3c0-1.3,0.3-2.1,0.9-2.7
		c0.5-0.5,1.1-0.7,1.7-0.7c1.1,0,1.7,0.6,1.7,1.1c0,0.5-0.3,0.8-0.7,0.8c-0.4,0-0.8-0.3-0.8-1c0-0.1,0-0.3,0-0.4
		c-0.1-0.1-0.3-0.1-0.4-0.1c-0.2,0-0.4,0.1-0.6,0.3c-0.3,0.3-0.4,0.8-0.4,1.9v1h1.9v0.6h-1.9v5.3c0,0.4,0.3,0.5,1.5,0.5v0.5h-3.9
		V17.1z"/>
	<path class="st0" d="M326.3,15.8v-4.5h-1.3v-0.4l1.3-0.3V8.7l1.2-0.5v2.5h2.2v0.6h-2.2v4.3c0,0.8,0.3,1.2,0.9,1.2
		c0.4,0,0.8-0.3,1.1-0.8l0.3,0.2c-0.6,1-1.1,1.4-2,1.4C327,17.7,326.3,17,326.3,15.8"/>
	<path class="st0" d="M84.1,35.8h0.5c0.8,1.8,1.8,2.6,3,2.6c1.5,0,2.1-1,2.1-1.9c0-1.1-0.8-1.5-2.6-2.2c-1.4-0.5-2.8-0.9-2.8-2.8
		c0-1.9,1.5-3,3.4-3c0.8,0,1.4,0.2,1.9,0.3l0.5-0.4h0.3v2.9h-0.5c-0.5-1.4-1.3-2.3-2.5-2.3c-1,0-1.8,0.7-1.8,1.8
		c0,1.1,0.9,1.4,2.5,2c1.4,0.5,2.8,0.9,2.8,2.8c0,1.5-0.9,3.2-3.4,3.2c-0.8,0-1.7-0.2-2.2-0.4L84.5,39h-0.4V35.8z"/>
	<path class="st0" d="M97.1,35.2c0-2.1-0.8-3.1-2-3.1c-1.2,0-1.9,1-1.9,3.1c0,2.1,0.8,3.1,2,3.1C96.4,38.4,97.1,37.3,97.1,35.2
		 M91.8,35.3c0-2.1,1.3-3.6,3.4-3.6c2.1,0,3.4,1.5,3.4,3.6c0,2.1-1.3,3.6-3.4,3.6C93,38.8,91.8,37.4,91.8,35.3"/>
	<path class="st0" d="M99.8,35.3c0-2.1,1.4-3.7,3.3-3.7c1.6,0,2.4,0.9,2.4,1.6c0,0.5-0.3,0.9-0.8,0.9c-0.5,0-0.8-0.3-0.8-0.8
		c0-0.4,0.3-0.7,0.5-0.8c-0.2-0.2-0.7-0.4-1.3-0.4c-1.1,0-2,0.9-2,2.9c0,1.8,0.9,3,2.4,3c0.8,0,1.4-0.4,2-1l0.3,0.3
		c-0.6,0.9-1.4,1.6-2.8,1.6C101,38.8,99.8,37.3,99.8,35.3"/>
	<path class="st0" d="M107.5,29.1c0-0.5,0.3-0.9,0.9-0.9c0.5,0,0.9,0.4,0.9,0.9c0,0.5-0.3,0.9-0.9,0.9
		C107.8,30,107.5,29.7,107.5,29.1 M106.6,38.2c0.9,0,1.1-0.2,1.1-0.5V33c0-0.5-0.2-0.7-1.1-0.7v-0.5l2.4-0.1v6
		c0,0.4,0.2,0.5,1.1,0.5v0.5h-3.5V38.2z"/>
	<path class="st0" d="M114.6,28.8c0.3-0.8,0.5-1.1,0.9-1.1c0.3,0,0.6,0.3,0.6,0.6c0,0.3-0.2,0.6-0.6,1l-1.2,1.3h-0.5L114.6,28.8z
		 M112.4,34.6l3.2-0.1c0.2-1.3-0.4-2.4-1.5-2.4C113.3,32.1,112.6,32.8,112.4,34.6 M111.1,35.3c0-2.1,1.3-3.7,3.2-3.7
		c2,0,2.9,1.7,2.8,3.4h-4.6v0.1v0c0,1.7,0.8,2.9,2.3,2.9c0.8,0,1.5-0.5,2.1-1.3l0.3,0.3c-0.6,0.9-1.3,1.8-2.9,1.8
		C112.2,38.8,111.1,37.3,111.1,35.3"/>
	<path class="st0" d="M119.2,36.9v-4.5h-1.3V32l1.3-0.3v-1.9l1.2-0.5v2.5h2.2v0.6h-2.2v4.3c0,0.8,0.3,1.2,0.9,1.2
		c0.4,0,0.8-0.3,1.1-0.8l0.3,0.2c-0.6,1-1.1,1.4-2,1.4C119.8,38.8,119.2,38.2,119.2,36.9"/>
	<path class="st0" d="M127.2,28.8c0.3-0.8,0.5-1.1,0.9-1.1c0.3,0,0.6,0.3,0.6,0.6c0,0.3-0.2,0.6-0.6,1l-1.2,1.3h-0.5L127.2,28.8z
		 M125,34.6l3.2-0.1c0.2-1.3-0.4-2.4-1.5-2.4C125.9,32.1,125.1,32.8,125,34.6 M123.7,35.3c0-2.1,1.3-3.7,3.2-3.7
		c2,0,2.9,1.7,2.8,3.4H125v0.1v0c0,1.7,0.8,2.9,2.3,2.9c0.8,0,1.5-0.5,2.1-1.3l0.3,0.3c-0.6,0.9-1.3,1.8-2.9,1.8
		C124.8,38.8,123.7,37.3,123.7,35.3"/>
	<path class="st0" d="M133.7,38.2c1.3,0,1.6-0.2,1.6-0.7v-7.7c0-0.5-0.3-0.6-1.6-0.7v-0.5h8l0.1,2.9l-0.5,0c-0.5-1.7-1-2.3-2.7-2.3
		h-2v4.1h1c1.1,0,1.4-0.2,1.8-1.6h0.4v3.9h-0.4c-0.4-1.6-0.7-1.7-1.8-1.7h-1v3.6c0,0.5,0.3,0.6,1.7,0.7v0.5h-4.7V38.2z"/>
	<path class="st0" d="M143.5,29.1c0-0.5,0.3-0.9,0.9-0.9c0.5,0,0.9,0.4,0.9,0.9c0,0.5-0.3,0.9-0.9,0.9
		C143.8,30,143.5,29.7,143.5,29.1 M142.6,38.2c0.9,0,1.1-0.2,1.1-0.5V33c0-0.5-0.2-0.7-1.1-0.7v-0.5l2.4-0.1v6
		c0,0.4,0.2,0.5,1.1,0.5v0.5h-3.5V38.2z"/>
	<path class="st0" d="M152,37.5V33c-0.4-0.6-0.8-0.9-1.6-0.9c-1.1,0-2,1.1-2,3.2c0,1.6,0.8,2.8,2.1,2.8
		C151.1,38.1,151.6,37.8,152,37.5 M147,35.3c0-2.1,1.3-3.7,3.4-3.7c0.8,0,1.2,0.2,1.6,0.4v-2.6c0-0.5-0.3-0.7-1.2-0.7v-0.5l2.4-0.1
		v9.5c0,0.4,0.2,0.5,1.1,0.5v0.5l-2.3,0.1V38c-0.5,0.5-1.2,0.9-2.1,0.9C148.1,38.8,147,37.3,147,35.3"/>
	<path class="st0" d="M155.9,36.7v-3.9c0-0.5-0.2-0.6-1.1-0.6v-0.5l2.4-0.1v4.5c0,1.3,0.5,1.7,1.5,1.7c0.7,0,1.1-0.2,1.6-0.5v-4.5
		c0-0.5-0.3-0.6-1.1-0.6v-0.5l2.4-0.1v6c0,0.4,0.2,0.5,1.1,0.5v0.5h-2.3v-0.9c-0.8,0.5-1.6,1-2.6,1
		C156.6,38.8,155.9,38.1,155.9,36.7"/>
	<path class="st0" d="M163.5,35.3c0-2.1,1.4-3.7,3.3-3.7c1.6,0,2.4,0.9,2.4,1.6c0,0.5-0.3,0.9-0.8,0.9c-0.5,0-0.8-0.3-0.8-0.8
		c0-0.4,0.3-0.7,0.5-0.8c-0.2-0.2-0.7-0.4-1.3-0.4c-1.1,0-2,0.9-2,2.9c0,1.8,0.9,3,2.4,3c0.8,0,1.4-0.4,2-1l0.3,0.3
		c-0.6,0.9-1.4,1.6-2.8,1.6C164.7,38.8,163.5,37.3,163.5,35.3"/>
	<path class="st0" d="M171.2,29.1c0-0.5,0.3-0.9,0.9-0.9c0.5,0,0.9,0.4,0.9,0.9c0,0.5-0.3,0.9-0.9,0.9
		C171.6,30,171.2,29.7,171.2,29.1 M170.4,38.2c0.9,0,1.1-0.2,1.1-0.5V33c0-0.5-0.2-0.7-1.1-0.7v-0.5l2.4-0.1v6
		c0,0.4,0.2,0.5,1.1,0.5v0.5h-3.5V38.2z"/>
	<path class="st0" d="M179,37.1v-2c-2.2,0.5-2.7,0.8-2.7,1.8c0,0.6,0.3,1.1,1.1,1.1C178,38,178.6,37.5,179,37.1 M174.9,37.2
		c0-0.6,0.3-1.2,0.9-1.6c1.1-0.6,2.9-0.9,3.2-1.1v-0.4c0-1.5-0.4-2-1.4-2c-0.5,0-0.8,0.1-1,0.4c0.1,0.3,0.2,0.5,0.2,0.7
		c0,0.5-0.3,0.8-0.8,0.8c-0.5,0-0.8-0.4-0.8-0.8c0-0.9,1.2-1.6,2.6-1.6c1.6,0,2.5,0.7,2.5,2.2v3.5c0,0.7,0.2,0.9,1.2,0.8l0.1,0.4
		c-0.5,0.2-0.9,0.3-1.4,0.3c-0.8,0-0.9-0.3-1-1.2H179c-0.6,0.7-1.4,1.2-2.3,1.2C175.4,38.8,174.9,38,174.9,37.2"/>
	<path class="st0" d="M182.9,29.1c0-0.5,0.3-0.9,0.9-0.9c0.5,0,0.9,0.4,0.9,0.9c0,0.5-0.3,0.9-0.9,0.9
		C183.3,30,182.9,29.7,182.9,29.1 M182.1,38.2c0.9,0,1.1-0.2,1.1-0.5V33c0-0.5-0.2-0.7-1.1-0.7v-0.5l2.4-0.1v6
		c0,0.4,0.2,0.5,1.1,0.5v0.5h-3.5V38.2z"/>
	<path class="st0" d="M186.2,38.2c0.9,0,1.1-0.2,1.1-0.5V33c0-0.5-0.2-0.7-1.1-0.7v-0.5l2.3-0.1v1.2c0.5-0.7,1.2-1.2,2-1.2
		c0.8,0,1.1,0.5,1.1,1c0,0.5-0.3,0.9-0.8,0.9c-0.5,0-0.8-0.3-0.8-0.8c0-0.1,0-0.2,0-0.3c-0.7,0-1.2,0.4-1.5,0.9v4.3
		c0,0.4,0.3,0.5,1.3,0.5v0.5h-3.6V38.2z"/>
	<path class="st0" d="M193.8,34.6l3.2-0.1c0.2-1.3-0.4-2.4-1.5-2.4C194.6,32.1,193.9,32.8,193.8,34.6 M192.4,35.3
		c0-2.1,1.3-3.7,3.2-3.7c2,0,2.9,1.7,2.8,3.4h-4.6v0.1v0c0,1.7,0.8,2.9,2.3,2.9c0.8,0,1.5-0.5,2.1-1.3l0.3,0.3
		c-0.6,0.9-1.3,1.8-2.9,1.8C193.5,38.8,192.4,37.3,192.4,35.3"/>
	<path class="st0" d="M202.6,35.8h0.5c0.8,1.8,1.8,2.6,3,2.6c1.5,0,2.1-1,2.1-1.9c0-1.1-0.8-1.5-2.6-2.2c-1.4-0.5-2.8-0.9-2.8-2.8
		c0-1.9,1.5-3,3.4-3c0.8,0,1.5,0.2,1.9,0.3l0.5-0.4h0.3v2.9h-0.5c-0.5-1.4-1.3-2.3-2.5-2.3c-1,0-1.8,0.7-1.8,1.8
		c0,1.1,0.9,1.4,2.5,2c1.4,0.5,2.8,0.9,2.8,2.8c0,1.5-0.9,3.2-3.4,3.2c-0.8,0-1.7-0.2-2.2-0.4l-0.8,0.5h-0.4V35.8z"/>
	<path class="st0" d="M211.1,36.7v-3.9c0-0.5-0.2-0.6-1.1-0.6v-0.5l2.4-0.1v4.5c0,1.3,0.5,1.7,1.5,1.7c0.7,0,1.1-0.2,1.6-0.5v-4.5
		c0-0.5-0.3-0.6-1.1-0.6v-0.5l2.4-0.1v6c0,0.4,0.2,0.5,1.1,0.5v0.5h-2.3v-0.9c-0.8,0.5-1.6,1-2.6,1
		C211.8,38.8,211.1,38.1,211.1,36.7"/>
	<path class="st0" d="M219.6,29.1c0-0.5,0.3-0.9,0.9-0.9c0.5,0,0.9,0.4,0.9,0.9c0,0.5-0.3,0.9-0.9,0.9
		C219.9,30,219.6,29.7,219.6,29.1 M218.7,38.2c0.9,0,1.1-0.2,1.1-0.5V33c0-0.5-0.2-0.7-1.1-0.7v-0.5l2.4-0.1v6
		c0,0.4,0.2,0.5,1.1,0.5v0.5h-3.5V38.2z"/>
	<path class="st0" d="M223.3,36.5h0.4c0.7,1.1,1.4,1.8,2.3,1.8c0.8,0,1.2-0.6,1.2-1.1c0-0.7-0.4-1-1.8-1.4c-1.5-0.5-2.1-1-2.1-1.9
		c0-1.3,0.9-2.2,2.4-2.2c0.5,0,1.1,0.2,1.4,0.4l0.3-0.4h0.3v2.1h-0.4c-0.5-0.9-1.1-1.6-1.8-1.6c-0.7,0-1.2,0.5-1.2,1.1
		c0,0.6,0.5,0.9,1.7,1.3c1.4,0.4,2.1,0.9,2.1,2c0,1.3-0.8,2.3-2.3,2.3c-0.6,0-1.3-0.2-1.8-0.5l-0.5,0.5h-0.3V36.5z"/>
	<path class="st0" d="M229.4,36.5h0.4c0.7,1.1,1.4,1.8,2.3,1.8c0.8,0,1.2-0.6,1.2-1.1c0-0.7-0.4-1-1.8-1.4c-1.5-0.5-2.1-1-2.1-1.9
		c0-1.3,0.9-2.2,2.4-2.2c0.5,0,1.1,0.2,1.4,0.4l0.3-0.4h0.3v2.1h-0.4c-0.5-0.9-1.1-1.6-1.8-1.6c-0.7,0-1.2,0.5-1.2,1.1
		c0,0.6,0.5,0.9,1.7,1.3c1.4,0.4,2.1,0.9,2.1,2c0,1.3-0.8,2.3-2.3,2.3c-0.6,0-1.3-0.2-1.8-0.5l-0.5,0.5h-0.3V36.5z"/>
	<path class="st0" d="M236.9,34.6l3.2-0.1c0.2-1.3-0.4-2.4-1.5-2.4C237.7,32.1,237,32.8,236.9,34.6 M235.5,35.3
		c0-2.1,1.3-3.7,3.2-3.7c2,0,2.9,1.7,2.8,3.4h-4.6v0.1v0c0,1.7,0.8,2.9,2.3,2.9c0.8,0,1.5-0.5,2.1-1.3l0.3,0.3
		c-0.6,0.9-1.3,1.8-2.9,1.8C236.7,38.8,235.5,37.3,235.5,35.3"/>
	<path class="st0" d="M78.9,56.9h0.5c0.8,1.8,1.8,2.6,3,2.6c1.5,0,2.1-1,2.1-1.9c0-1.1-0.8-1.5-2.6-2.2C80.5,55,79,54.6,79,52.7
		c0-1.9,1.5-3,3.4-3c0.8,0,1.5,0.2,1.9,0.3l0.5-0.4h0.3v2.9h-0.5c-0.5-1.4-1.3-2.3-2.5-2.3c-1,0-1.8,0.7-1.8,1.8
		c0,1.1,0.9,1.4,2.5,2c1.4,0.5,2.8,0.9,2.8,2.8c0,1.5-0.9,3.2-3.4,3.2c-0.8,0-1.7-0.2-2.2-0.4l-0.8,0.5h-0.4V56.9z"/>
	<path class="st0" d="M91.1,54.3c-0.2-0.6-0.5-0.9-1.1-1v-0.4h3.1v0.4c-0.7,0-1,0.2-1,0.5c0,0.1,0,0.2,0.1,0.3l1.5,4.1h0.1l1.2-3.5
		c0.1-0.3,0.2-0.6,0.2-0.8c0-0.3-0.2-0.5-0.9-0.7v-0.4h2.8v0.4c-0.8,0.1-1,0.4-1.3,1.1l-2,5.5h-0.6l-1.6-4.4L89.8,60h-0.7L87,54.3
		c-0.3-0.7-0.4-0.8-1.1-1v-0.4h3.2v0.4c-0.7,0-0.9,0.2-0.9,0.5c0,0.1,0,0.2,0.1,0.3l1.5,4.1h0.1l1.4-3.5L91.1,54.3z"/>
	<path class="st0" d="M98.3,50.3c0-0.5,0.3-0.9,0.9-0.9c0.5,0,0.9,0.4,0.9,0.9c0,0.5-0.3,0.9-0.9,0.9C98.7,51.2,98.3,50.8,98.3,50.3
		 M97.5,59.4c0.9,0,1.1-0.2,1.1-0.5v-4.7c0-0.5-0.2-0.7-1.1-0.7V53l2.4-0.1v6c0,0.4,0.2,0.5,1.1,0.5v0.5h-3.5V59.4z"/>
	<path class="st0" d="M102.1,57.7h0.4c0.7,1.1,1.4,1.8,2.3,1.8c0.8,0,1.2-0.6,1.2-1.1c0-0.7-0.4-1-1.8-1.4c-1.5-0.5-2.1-1-2.1-1.9
		c0-1.3,0.9-2.2,2.4-2.2c0.5,0,1.1,0.2,1.4,0.4l0.3-0.4h0.3v2.1h-0.4c-0.5-0.9-1.1-1.6-1.8-1.6c-0.7,0-1.2,0.5-1.2,1.1
		c0,0.6,0.5,0.9,1.7,1.3c1.4,0.4,2.1,0.9,2.1,2c0,1.3-0.8,2.3-2.3,2.3c-0.6,0-1.3-0.2-1.8-0.5l-0.5,0.5h-0.3V57.7z"/>
	<path class="st0" d="M108.4,57.7h0.4c0.7,1.1,1.4,1.8,2.3,1.8c0.8,0,1.2-0.6,1.2-1.1c0-0.7-0.4-1-1.8-1.4c-1.5-0.5-2.1-1-2.1-1.9
		c0-1.3,0.9-2.2,2.4-2.2c0.5,0,1.1,0.2,1.4,0.4l0.3-0.4h0.3v2.1h-0.4c-0.5-0.9-1.1-1.6-1.8-1.6c-0.7,0-1.2,0.5-1.2,1.1
		c0,0.6,0.5,0.9,1.7,1.3c1.4,0.4,2.1,0.9,2.1,2c0,1.3-0.8,2.3-2.3,2.3c-0.6,0-1.3-0.2-1.8-0.5l-0.5,0.5h-0.3V57.7z"/>
	<path class="st0" d="M119.3,59.4c1.3,0,1.7-0.2,1.7-0.7v-8.3h-0.8c-1.4,0-1.7,0.8-2.3,2.6l-0.5,0l0.1-3.1h8.4L126,53l-0.5,0
		c-0.5-1.7-0.8-2.6-2.3-2.6h-0.8v8.3c0,0.5,0.3,0.6,1.7,0.7v0.5h-4.8V59.4z"/>
	<path class="st0" d="M126.6,59.4c0.9,0,1.1-0.2,1.1-0.5v-4.7c0-0.5-0.2-0.7-1.1-0.7V53l2.3-0.1v1.2c0.5-0.7,1.2-1.2,2-1.2
		c0.8,0,1.1,0.5,1.1,1c0,0.5-0.3,0.9-0.8,0.9c-0.5,0-0.8-0.3-0.8-0.8c0-0.1,0-0.2,0-0.3c-0.7,0-1.2,0.4-1.5,0.9v4.3
		c0,0.4,0.3,0.5,1.3,0.5v0.5h-3.6V59.4z"/>
	<path class="st0" d="M133.6,57.9V54c0-0.5-0.2-0.6-1.1-0.6V53l2.4-0.1v4.5c0,1.3,0.5,1.7,1.5,1.7c0.7,0,1.1-0.2,1.6-0.5V54
		c0-0.5-0.3-0.6-1.1-0.6V53l2.4-0.1v6c0,0.4,0.2,0.5,1.1,0.5v0.5H138V59c-0.8,0.5-1.6,1-2.6,1C134.3,60,133.6,59.2,133.6,57.9"/>
	<path class="st0" d="M141.4,57.7h0.4c0.7,1.1,1.4,1.8,2.3,1.8c0.8,0,1.2-0.6,1.2-1.1c0-0.7-0.4-1-1.8-1.4c-1.5-0.5-2.1-1-2.1-1.9
		c0-1.3,0.9-2.2,2.4-2.2c0.5,0,1.1,0.2,1.4,0.4l0.3-0.4h0.3v2.1h-0.4c-0.5-0.9-1.1-1.6-1.8-1.6c-0.7,0-1.2,0.5-1.2,1.1
		c0,0.6,0.5,0.9,1.7,1.3c1.4,0.4,2.1,0.9,2.1,2c0,1.3-0.8,2.3-2.3,2.3c-0.6,0-1.3-0.2-1.8-0.5l-0.5,0.5h-0.3V57.7z"/>
	<path class="st0" d="M148.5,58.1v-4.5h-1.3v-0.4l1.3-0.3V51l1.2-0.5V53h2.2v0.6h-2.2v4.3c0,0.8,0.3,1.2,0.9,1.2
		c0.4,0,0.8-0.3,1.1-0.8l0.3,0.2c-0.6,1-1.1,1.4-2,1.4C149.1,60,148.5,59.4,148.5,58.1"/>
	<path class="st0" d="M155.8,55c0-3,2.2-5.3,5.1-5.3c1,0,1.9,0.4,2.5,0.7l0.4-0.7h0.5V53h-0.5c-0.6-1.7-1.6-2.8-3.1-2.8
		c-1.7,0-3.3,1.6-3.3,4.7c0,2.9,1.9,4.4,3.6,4.4c1.7,0,2.6-1,3.2-2.3l0.5,0.2c-0.6,1.4-1.9,2.9-4.1,2.9
		C157.7,60.1,155.8,58.1,155.8,55"/>
	<path class="st0" d="M170.8,56.4c0-2.1-0.8-3.1-2-3.1c-1.2,0-1.9,1-1.9,3.1c0,2.1,0.8,3.1,2,3.1C170.1,59.5,170.8,58.5,170.8,56.4
		 M165.5,56.4c0-2.1,1.3-3.6,3.4-3.6c2.1,0,3.4,1.5,3.4,3.6c0,2.1-1.3,3.6-3.4,3.6C166.7,60,165.5,58.5,165.5,56.4"/>
	<path class="st0" d="M177.7,59.4c0.8,0,0.9-0.2,0.9-0.5v-3.4c0-1.3-0.5-1.7-1.4-1.7c-0.7,0-1.1,0.3-1.6,0.6v4.5
		c0,0.4,0.1,0.5,0.9,0.5v0.5h-3.2v-0.5c0.9,0,1.1-0.2,1.1-0.5v-4.7c0-0.5-0.2-0.7-1.1-0.7V53l2.3-0.1v1c0.8-0.6,1.6-1.1,2.6-1.1
		c0.8,0,1.4,0.5,1.6,1.3c0.9-0.8,1.8-1.3,2.7-1.3c1,0,1.6,0.7,1.6,2.1v3.9c0,0.4,0.2,0.5,1.1,0.5v0.5h-3.2v-0.5
		c0.8,0,0.9-0.2,0.9-0.5v-3.4c0-1.3-0.5-1.7-1.4-1.7c-0.5,0-1,0.3-1.6,0.8c0,0.2,0,0.3,0,0.5v3.8c0,0.4,0.1,0.5,1,0.5v0.5h-3.2V59.4
		z"/>
	<path class="st0" d="M191.5,56.3c0-1.7-0.7-2.7-1.8-2.7c-0.8,0-1.4,0.4-1.8,0.8v3.8c0.3,1,0.8,1.3,1.7,1.3
		C190.6,59.5,191.5,58.4,191.5,56.3 M185.6,62.3c0.9,0,1.1-0.2,1.1-0.5v-7.6c0-0.5-0.2-0.7-1.1-0.7V53l2.3-0.1v1
		c0.7-0.6,1.3-1.1,2.3-1.1c1.8,0,2.7,1.4,2.7,3.4c0,2.1-1.1,3.7-3,3.7c-0.8,0-1.4-0.2-1.9-0.5v2.3c0,0.4,0.3,0.5,1.4,0.5v0.5h-3.8
		V62.3z"/>
	<path class="st0" d="M198.3,58.2v-2c-2.2,0.5-2.7,0.8-2.7,1.8c0,0.6,0.3,1.1,1.1,1.1C197.4,59.2,198,58.7,198.3,58.2 M194.2,58.4
		c0-0.6,0.3-1.2,0.9-1.6c1.1-0.6,2.9-0.9,3.2-1.1v-0.4c0-1.5-0.4-2-1.4-2c-0.5,0-0.8,0.1-1,0.4c0.1,0.3,0.2,0.5,0.2,0.7
		c0,0.5-0.3,0.8-0.8,0.8c-0.5,0-0.8-0.4-0.8-0.8c0-0.9,1.2-1.6,2.6-1.6c1.6,0,2.5,0.7,2.5,2.2v3.5c0,0.7,0.2,0.9,1.2,0.8l0.1,0.4
		c-0.5,0.2-0.9,0.3-1.4,0.3c-0.8,0-0.9-0.3-1-1.2h-0.1c-0.6,0.7-1.4,1.2-2.3,1.2C194.8,60,194.2,59.2,194.2,58.4"/>
	<path class="st0" d="M201.4,59.4c0.9,0,1.1-0.2,1.1-0.5v-4.7c0-0.5-0.2-0.7-1.1-0.7V53l2.3-0.1v1c0.8-0.6,1.7-1.1,2.7-1.1
		c1,0,1.7,0.7,1.7,2.1v3.9c0,0.4,0.2,0.5,1.1,0.5v0.5h-3.3v-0.5c0.8,0,1-0.2,1-0.5v-3.4c0-1.3-0.5-1.7-1.4-1.7
		c-0.7,0-1.3,0.3-1.7,0.6v4.5c0,0.4,0.2,0.5,1,0.5v0.5h-3.3V59.4z"/>
	<path class="st0" d="M210.5,54.3c-0.3-0.7-0.5-0.9-1.1-1v-0.4h3.4v0.4c-1,0-1.2,0.3-1,0.8l1.7,4.1l1.4-3.5c0.4-0.9,0.3-1.3-0.7-1.4
		v-0.4h2.8v0.4c-0.5,0.1-0.9,0.4-1.2,1.1l-2.5,6c-0.8,1.9-1.6,2.4-2.4,2.4c-0.8,0-1.3-0.5-1.3-1c0-0.5,0.3-0.9,0.8-0.9
		c0.5,0,0.8,0.4,0.8,0.8c0,0.1,0,0.3-0.1,0.4c0.5,0,1-0.5,1.7-2.2l0.1-0.2L210.5,54.3z"/>
	<rect y="0" class="st1" width="330" height="64"/>
</g>
</svg>
