<?xml version="1.0" encoding="UTF-8"?>
<svg id="SwissAccounting" xmlns="http://www.w3.org/2000/svg" xmlns:xlink="http://www.w3.org/1999/xlink" version="1.1" viewBox="0 0 140 36">
  <!-- Generator: Adobe Illustrator 29.3.1, SVG Export Plug-In . SVG Version: 2.1.0 Build 151)  -->
  <defs>
    <style>
      .st0 {
        fill: #868686;
      }

      .st1 {
        fill: #575757;
      }
    </style>
  </defs>
  <path d="M8,0c0,4.4-3.6,8-8,8V0h8ZM8,0c0,4.4,3.6,8,8,8V0h-8ZM8,15.9c0-4.4-3.6-8-8-8v8h8ZM15.9,15.9v-8c-4.4,0-8,3.6-8,8h8Z"/>
  <ellipse class="st0" cx="23.9" cy="8" rx="8" ry="8"/>
  <path class="st0" d="M15.9,21.1c0,5.9-4.8,10.7-10.7,10.7H0v-15.9h15.9v5.2Z"/>
  <rect class="st1" x="15.9" y="15.9" width="15.9" height="15.9"/>
  <path d="M48.5,12.1c0,2.6-2,4.1-5,4.1s-4.6-1.3-5.4-3.4l2.3-1.3c.5,1.3,1.4,2.1,3.1,2.1s2.2-.7,2.2-1.4-.9-1.4-2.9-2c-2.1-.6-4.1-1.5-4.1-4.1s2.1-4,4.5-4,4,1.1,4.9,3.1l-2.3,1.3c-.5-1-1.2-1.8-2.6-1.8s-1.8.6-1.8,1.4.5,1.3,2.6,1.9c2.2.7,4.5,1.4,4.5,4.2ZM60.8,6.2l-1.7,6-1.8-6h-2.4l-1.8,6-1.7-6h-2.7l3.1,9.7h2.4l1.8-5.9,1.8,5.9h2.4l3.1-9.7h-2.7ZM66.2,4.9c.9,0,1.6-.7,1.6-1.5s-.7-1.6-1.6-1.6-1.5.7-1.5,1.6.7,1.5,1.5,1.5ZM64.9,6.2h2.5v9.7h-2.5V6.2h0ZM72.2,8.9c0-.5.5-.8,1.1-.8s1.3.4,1.6,1l2.1-1.2c-.8-1.3-2.1-2.1-3.7-2.1s-3.7,1.1-3.7,3.1c0,3.4,5,2.6,5,4.1s-.5.8-1.3.8-1.6-.5-1.9-1.3l-2.2,1.2c.7,1.5,2.1,2.3,4.1,2.3s3.9-1,3.9-3.1c0-3.6-5-2.7-5-4.1ZM81.2,8.9c0-.5.5-.8,1.1-.8s1.3.4,1.6,1l2.1-1.2c-.8-1.3-2.1-2.1-3.7-2.1s-3.7,1.1-3.7,3.1c0,3.4,5,2.6,5,4.1s-.5.8-1.3.8-1.6-.5-1.9-1.3l-2.2,1.2c.7,1.5,2.1,2.3,4.1,2.3s3.9-1,3.9-3.1c0-3.6-5-2.7-5-4.1ZM42.4,26.9l1.9-5.6,1.9,5.6h-3.7ZM47.8,31.8h2.9l-4.8-13.6h-3.3l-4.8,13.6h2.9l.8-2.5h5.4l.8,2.5ZM58.5,28.3c-.4.8-1.2,1.3-2.2,1.3-1.5,0-2.6-1.1-2.6-2.6s1.1-2.7,2.6-2.7,1.8.5,2.2,1.3l2.2-1.3c-.8-1.5-2.5-2.5-4.4-2.5-3,0-5.1,2.2-5.1,5.1s2.2,5.1,5.1,5.1,3.6-1,4.4-2.5l-2.2-1.2ZM68.8,28.3c-.4.8-1.2,1.3-2.2,1.3-1.5,0-2.6-1.1-2.6-2.6s1.1-2.7,2.6-2.7,1.8.5,2.2,1.3l2.2-1.3c-.8-1.5-2.5-2.5-4.4-2.5-3,0-5.1,2.2-5.1,5.1s2.2,5.1,5.1,5.1,3.6-1,4.4-2.5l-2.2-1.2ZM82,27c0,2.9-2.3,5.1-5.2,5.1s-5.1-2.2-5.1-5.1,2.3-5.1,5.1-5.1,5.2,2.2,5.2,5.1ZM79.5,27c0-1.6-1.2-2.7-2.7-2.7s-2.6,1.1-2.6,2.7,1.2,2.7,2.6,2.7,2.7-1.1,2.7-2.7ZM90,22.1v5.3c0,1.7-.9,2.4-2.1,2.4s-1.9-.7-1.9-2v-5.7h-2.5v6c0,2.6,1.6,4,3.7,4s2.3-.5,2.9-1.4v1.1h2.5v-9.7h-2.5ZM100.2,21.8c-1.3,0-2.3.5-2.9,1.4v-1.1h-2.5v9.7h2.5v-5.3c0-1.7.9-2.4,2.1-2.4s1.9.7,1.9,2v5.7h2.5v-6c0-2.6-1.6-4-3.7-4ZM111.7,24.5v-2.4h-2.2v-2.7l-2.5.8v2h-1.7v2.4h1.7v4c0,2.6,1.2,3.7,4.7,3.3v-2.3c-1.4,0-2.2,0-2.2-1v-4h2.2ZM115.2,20.8c.9,0,1.6-.7,1.6-1.5s-.7-1.6-1.6-1.6-1.5.7-1.5,1.6.7,1.5,1.5,1.5ZM113.9,22.1h2.5v9.7h-2.5v-9.7ZM124.4,21.8c-1.3,0-2.3.5-2.9,1.4v-1.1h-2.5v9.7h2.5v-5.3c0-1.7.9-2.4,2.1-2.4s1.9.7,1.9,2v5.7h2.5v-6c0-2.6-1.6-4-3.7-4ZM140,22.1v9.3c0,3.2-2.5,4.6-5.1,4.6s-3.8-.8-4.6-2.4l2.1-1.2c.4.8,1.1,1.4,2.6,1.4s2.6-.9,2.6-2.4v-1.1c-.7.9-1.7,1.5-3.1,1.5-2.8,0-4.9-2.2-4.9-5s2.1-5,4.9-5,2.4.6,3.1,1.5v-1.2h2.5ZM137.5,26.8c0-1.5-1.2-2.6-2.7-2.6s-2.7,1.1-2.7,2.6,1.2,2.7,2.7,2.7,2.7-1.1,2.7-2.7Z"/>
</svg>