<?xml version="1.0" encoding="utf-8"?>
<!-- Generator: Adobe Illustrator 26.0.2, SVG Export Plug-In . SVG Version: 6.00 Build 0)  -->
<svg version="1.1" id="Ebene_1" xmlns="http://www.w3.org/2000/svg" xmlns:xlink="http://www.w3.org/1999/xlink" x="0px" y="0px"
	 viewBox="0 0 600 478" style="enable-background:new 0 0 600 478;" xml:space="preserve">
<style type="text/css">
	.st0{fill:#002F60;}
</style>
<g>
	<path class="st0" d="M385.6,233.1c-33.5,5.9-62.7,8.2-87.7,8.2h-0.2c-84.2,0-122.2-26.1-124.5-27.7c-27.5-18.3-38.6-46-38.3-72.9
		c0.2-37.2,18-74.6,35.1-103.5c9.2-15.4,18.3-28.3,24.9-37h-79.4L6.3,451.8C95.8,436.1,241.8,386.5,385.6,233.1"/>
	<path class="st0" d="M459.5,190.2c31.4-9.2,65.8-21.3,103.5-37L582.9,71c-14.5,12.3-30,26.4-45.3,41
		C510,138.2,482.4,166.3,459.5,190.2"/>
	<path class="st0" d="M404.4,249.2C250.5,413.8,92.8,463.5,0,478l0.1-0.1h484.6l71.2-295.1c-47.9,19.1-90.7,32.5-128.7,41.7
		C413.1,239.6,404.6,249,404.4,249.2"/>
	<path class="st0" d="M226.9,0c-1.5,1.7-4.8,5.3-6.2,7c-1.7,2.2-4.3,5.4-7.3,9.5c-6,8.2-14.2,19.7-22.2,33.3
		c-16.2,27-31.8,62-31.6,90.8c0.3,21.2,6.9,38.3,27.7,52.6l0.2,0.2l0.1,0.1l0.1,0c0.2,0.1,0.5,0.3,0.9,0.6c0.9,0.5,2.3,1.4,4.3,2.4
		c4,2.1,10.4,5,19.3,8c17.8,5.9,45.8,12.1,85.7,12.1c31.2,0,69.8-3.8,116.4-14.4c34.4-36.8,94.4-99.3,146.1-144.3
		c11.2-9.7,22-18.6,32.1-26.3L600,0H226.9z"/>
	<path class="st0" d="M220.7,7c1.3-1.7,4.7-5.3,6.2-7h-8l4.4,3.8C223.3,3.8,222.4,4.8,220.7,7"/>
</g>
</svg>
