<?xml version="1.0" encoding="utf-8"?>
<!-- Generator: Adobe Illustrator 26.0.2, SVG Export Plug-In . SVG Version: 6.00 Build 0)  -->
<svg version="1.1" id="Layer_1" xmlns="http://www.w3.org/2000/svg" xmlns:xlink="http://www.w3.org/1999/xlink" x="0px" y="0px"
	 viewBox="0 0 25 25" style="enable-background:new 0 0 25 25;" xml:space="preserve">
<style type="text/css">
	.st0{clip-path:url(#SVGID_00000048495100783729809690000008353034400903840171_);fill:#1A171B;}
	.st1{clip-path:url(#SVGID_00000072974668386549283860000012649805263948364442_);fill:#1A171B;}
</style>
<g>
	<defs>
		<rect id="SVGID_1_" width="25" height="25"/>
	</defs>
	<clipPath id="SVGID_00000006687356046943730050000010040209448981881225_">
		<use xlink:href="#SVGID_1_"  style="overflow:visible;"/>
	</clipPath>
	<path style="clip-path:url(#SVGID_00000006687356046943730050000010040209448981881225_);fill:#1A171B;" d="M21.1,21h-3.7v-6
		c0-1.7-0.6-2.5-1.9-2.5c-0.5,0-0.9,0.1-1.2,0.4c-0.3,0.3-0.6,0.6-0.7,1c-0.1,0.2-0.1,0.5-0.1,0.9V21H9.8c0-6.7,0-10.4,0-11.1h3.7
		v1.6c0.8-1.2,1.9-1.8,3.3-1.8c1.3,0,2.3,0.4,3.1,1.3c0.8,0.8,1.2,2.1,1.2,3.7V21z M8,6.4c0,0.5-0.2,1-0.6,1.4
		C7.1,8.1,6.6,8.3,5.9,8.3h0c-0.6,0-1.1-0.2-1.5-0.6C4,7.4,3.9,6.9,3.9,6.4c0-0.6,0.2-1,0.6-1.4C4.8,4.7,5.3,4.5,6,4.5
		S7.1,4.7,7.5,5C7.8,5.4,8,5.8,8,6.4 M4.1,9.8h3.7V21H4.1V9.8z M25,0H0v25h25V0z"/>
</g>
<g>
	<defs>
		<rect id="SVGID_00000050645885818706911460000014060383968426072207_" width="25" height="25"/>
	</defs>
	<clipPath id="SVGID_00000033333306737061127950000011350016959995288710_">
		<use xlink:href="#SVGID_00000050645885818706911460000014060383968426072207_"  style="overflow:visible;"/>
	</clipPath>
	<path style="clip-path:url(#SVGID_00000033333306737061127950000011350016959995288710_);fill:#1A171B;" d="M21.1,21h-3.7v-6
		c0-1.7-0.6-2.5-1.9-2.5c-0.5,0-0.9,0.1-1.2,0.4c-0.3,0.3-0.6,0.6-0.7,1c-0.1,0.2-0.1,0.5-0.1,0.9V21H9.8c0-6.7,0-10.4,0-11.1h3.7
		v1.6c0.8-1.2,1.9-1.8,3.3-1.8c1.3,0,2.3,0.4,3.1,1.3c0.8,0.8,1.2,2.1,1.2,3.7V21z M8,6.4c0,0.5-0.2,1-0.6,1.4
		C7.1,8.1,6.6,8.3,5.9,8.3h0c-0.6,0-1.1-0.2-1.5-0.6C4,7.4,3.9,6.9,3.9,6.4c0-0.6,0.2-1,0.6-1.4C4.8,4.7,5.3,4.5,6,4.5
		S7.1,4.7,7.5,5C7.8,5.4,8,5.8,8,6.4 M4.1,9.8h3.7V21H4.1V9.8z M25,0H0v25h25V0z"/>
</g>
</svg>
