<?xml version="1.0" standalone="no"?>
<!DOCTYPE svg PUBLIC "-//W3C//DTD SVG 20010904//EN"
 "http://www.w3.org/TR/2001/REC-SVG-20010904/DTD/svg10.dtd">
<svg version="1.0" xmlns="http://www.w3.org/2000/svg"
 width="700.000000pt" height="700.000000pt" viewBox="0 0 700.000000 700.000000"
 preserveAspectRatio="xMidYMid meet">
<metadata>
Created by potrace 1.14, written by Peter Selinger 2001-2017
</metadata>
<g transform="translate(0.000000,700.000000) scale(0.100000,-0.100000)"
fill="#000000" stroke="none">
<path d="M1345 6278 c-2 -7 -27 -107 -54 -223 -78 -322 -169 -698 -197 -815
-14 -58 -27 -112 -29 -120 -2 -8 -13 -55 -25 -105 -12 -49 -23 -97 -25 -105
-2 -8 -18 -72 -35 -142 -17 -70 -33 -135 -35 -145 -2 -10 -15 -64 -29 -120
-14 -56 -27 -112 -30 -125 -2 -13 -7 -30 -10 -38 -3 -8 -7 -26 -10 -40 -2 -14
-9 -45 -16 -70 -7 -25 -14 -52 -15 -60 -5 -24 -43 -181 -85 -355 -21 -88 -57
-236 -80 -330 -22 -93 -48 -197 -56 -230 -8 -33 -16 -69 -18 -80 -3 -11 -32
-130 -65 -265 -87 -358 -102 -422 -108 -449 -2 -14 -6 -28 -8 -31 -2 -4 -7
-20 -9 -36 -3 -16 -24 -103 -46 -194 -22 -91 -63 -259 -91 -375 -28 -115 -79
-328 -115 -473 -35 -144 -66 -274 -68 -287 -3 -14 -7 -29 -11 -35 -8 -13 29
-13 75 -1 19 6 49 12 65 14 32 5 43 7 150 32 725 166 1408 440 2090 838 132
77 148 87 383 240 89 59 172 116 184 127 12 11 25 20 29 20 8 0 366 267 389
290 3 3 39 32 80 65 41 32 77 61 80 64 3 4 48 42 100 86 52 44 102 87 111 95
9 8 58 53 110 100 135 122 401 382 557 545 17 19 15 27 -7 20 -10 -3 -36 -8
-57 -10 -22 -3 -64 -9 -94 -15 -30 -5 -77 -12 -105 -15 -27 -3 -61 -8 -75 -10
-22 -3 -81 -9 -195 -20 -193 -19 -590 -25 -775 -11 -109 7 -132 10 -215 22
-27 4 -53 7 -57 6 -4 -1 -53 7 -110 17 -530 98 -856 267 -1045 541 -77 112
-144 288 -159 418 -10 78 -11 247 -3 302 4 25 10 65 13 90 33 249 206 683 386
970 5 8 21 35 36 60 41 68 184 282 204 305 9 11 25 32 35 48 l17 27 -461 0
c-360 0 -463 -3 -466 -12z"/>
<path d="M2618 6258 c-37 -40 -154 -195 -230 -303 -102 -146 -308 -500 -308
-529 0 -7 -4 -16 -9 -21 -13 -13 -76 -161 -111 -260 -115 -322 -126 -637 -29
-827 62 -122 174 -240 292 -307 96 -55 313 -134 442 -162 156 -33 224 -46 300
-55 28 -3 61 -8 74 -10 163 -24 693 -25 911 0 19 2 62 7 95 10 33 4 71 8 85
11 14 2 48 6 75 10 140 17 274 41 515 91 l115 24 53 58 c454 490 1233 1260
1606 1587 37 33 73 65 80 70 41 37 214 178 269 220 66 50 74 61 83 112 3 16
18 80 33 143 16 63 32 127 35 143 l6 27 -2175 0 -2176 0 -31 -32z"/>
<path d="M6355 4105 c-179 -71 -455 -168 -680 -240 -276 -88 -270 -86 -495
-145 -184 -48 -197 -53 -229 -88 -19 -20 -82 -89 -140 -152 -188 -204 -653
-663 -795 -783 -11 -10 -32 -28 -46 -40 -65 -60 -288 -244 -400 -331 -69 -53
-132 -103 -141 -110 -72 -60 -425 -302 -644 -441 -102 -65 -363 -215 -374
-215 -5 0 -11 -3 -13 -7 -1 -5 -19 -16 -38 -27 -85 -45 -391 -198 -455 -226
-391 -178 -703 -295 -1081 -405 -87 -26 -166 -48 -174 -50 -8 -1 -35 -8 -60
-15 -25 -7 -56 -14 -70 -17 -13 -2 -63 -13 -110 -24 -47 -12 -96 -23 -110 -25
-14 -3 -61 -11 -105 -20 -44 -8 -96 -17 -115 -20 -19 -3 -37 -8 -39 -10 -2 -2
1260 -3 2804 -1 l2808 2 12 45 c7 25 31 122 54 215 22 94 63 265 91 380 29
116 53 217 55 225 2 8 17 74 35 145 17 72 33 139 36 150 2 11 15 65 28 120 13
55 45 188 71 295 26 107 64 265 86 351 21 86 40 167 43 180 2 13 16 71 31 129
15 58 29 116 31 130 3 14 10 43 16 65 5 22 11 47 13 55 4 18 49 204 179 743
25 104 46 192 46 198 0 14 -5 12 -125 -36z"/>
</g>
</svg>
