<svg xmlns="http://www.w3.org/2000/svg" xmlns:xlink="http://www.w3.org/1999/xlink" viewBox="0 0 590 700"><defs><style>.cls-1{isolation:isolate;}.cls-2{fill:#00a1df;}.cls-3,.cls-5,.cls-8{fill:#fff;}.cls-3{opacity:0.35;}.cls-4{opacity:0.75;}.cls-6{fill:#908c7a;}.cls-7{fill:url(#linear-gradient);}.cls-8{opacity:0.14;}.cls-9{opacity:0.07;}.cls-10{fill:#0085ba;}.cls-11,.cls-15{opacity:0.5;}.cls-12{fill:none;stroke:#fff;stroke-miterlimit:10;stroke-width:2px;stroke-dasharray:8.97 8.97;}.cls-13{opacity:0.7;}.cls-14{opacity:0.3;}.cls-14,.cls-15{mix-blend-mode:overlay;}</style><linearGradient id="linear-gradient" x1="149.34" y1="296.65" x2="440.66" y2="587.98" gradientUnits="userSpaceOnUse"><stop offset="0" stop-color="#908c7a"/><stop offset="0.31" stop-color="#a7a391"/><stop offset="0.33" stop-color="#a4a08e"/><stop offset="0.44" stop-color="#999583"/><stop offset="0.59" stop-color="#928e7c"/><stop offset="1" stop-color="#908c7a"/></linearGradient></defs><g class="cls-1"><g id="Ribbon"><path class="cls-2" d="M556,281,302,376.41a19.85,19.85,0,0,1-14,0L34,281a20.11,20.11,0,0,1-13-18.83V27.78A20,20,0,0,1,41,7.68H549a20,20,0,0,1,20,20.1V262.17A20.11,20.11,0,0,1,556,281Z"/><path class="cls-3" d="M395,7.68H195v333.8l93,34.93a19.85,19.85,0,0,0,14,0l93-34.93Z"/><g class="cls-4"><polygon class="cls-5" points="195 7.68 160 7.68 160 328.33 195 341.48 195 7.68"/><polygon class="cls-5" points="395 7.68 395 341.48 430 328.33 430 7.68 395 7.68"/></g></g><g id="Medal"><circle class="cls-6" cx="295" cy="442.32" r="250"/><circle class="cls-7" cx="295" cy="442.32" r="206"/><path class="cls-8" d="M501,442.34c0,113.76-92.24,206-206,206S89,556.1,89,442.34H80c0,118.73,96.27,215,215,215s215-96.25,215-215Z"/><path class="cls-9" d="M89,442.34v0c0-113.78,92.23-206,206-206s206,92.22,206,206v0h9v0c0-118.75-96.26-215-215-215s-215,96.25-215,215v0Z"/></g><g id="Sticker"><rect class="cls-10" x="5.56" y="35.62" width="578.87" height="85.22" rx="12"/><g class="cls-11"><rect class="cls-12" x="13" y="43.73" width="564" height="69" rx="6"/></g><path class="cls-5" d="M111.55,97.66V58.52h13.51a25.39,25.39,0,0,1,6.56.74,12.36,12.36,0,0,1,4.47,2.08,8.09,8.09,0,0,1,2.56,3.27,11.1,11.1,0,0,1,.81,4.33,8.53,8.53,0,0,1-.41,2.64,7.6,7.6,0,0,1-1.26,2.36,9.45,9.45,0,0,1-2.16,2,13.21,13.21,0,0,1-3.13,1.51q8.07,1.82,8.07,8.72a11.14,11.14,0,0,1-.95,4.6,10.1,10.1,0,0,1-2.76,3.64,13.25,13.25,0,0,1-4.47,2.4,19.36,19.36,0,0,1-6.06.86Zm7.28-22.19h5.82a9.69,9.69,0,0,0,5.63-1.36,4.89,4.89,0,0,0,1.93-4.3q0-3.06-1.74-4.36c-1.15-.86-3-1.3-5.41-1.3h-6.23Zm0,5V92h7.39a10.06,10.06,0,0,0,3.4-.49,5.85,5.85,0,0,0,2.19-1.3A4.71,4.71,0,0,0,133,88.3a7,7,0,0,0,.37-2.3,6.15,6.15,0,0,0-.41-2.29A4.24,4.24,0,0,0,131.69,82a5.92,5.92,0,0,0-2.22-1.1,12.34,12.34,0,0,0-3.27-.38Z"/><path class="cls-5" d="M176.92,58.52v5.8H159.57V75.17h13.67v5.6H159.57V91.84h17.35v5.82H152.23V58.52Z"/><path class="cls-5" d="M184.8,58.52h5.87a2.47,2.47,0,0,1,1.54.46,2.85,2.85,0,0,1,.9,1.2l9.2,23.87c.31.77.6,1.63.88,2.56s.54,1.91.8,2.93a33.6,33.6,0,0,1,1.54-5.49l9.18-23.87a2.78,2.78,0,0,1,.86-1.14,2.38,2.38,0,0,1,1.55-.52H223L207.18,97.66H200.6Z"/><path class="cls-5" d="M268.52,78.09a21.59,21.59,0,0,1-1.44,8,18.87,18.87,0,0,1-4,6.35,18.16,18.16,0,0,1-6.26,4.18,22.45,22.45,0,0,1-16.19,0,18.24,18.24,0,0,1-6.28-4.18,18.46,18.46,0,0,1-4-6.35,22.78,22.78,0,0,1,0-15.94A18.26,18.26,0,0,1,240.6,59.59a21.17,21.17,0,0,1,8.1-1.5,20.9,20.9,0,0,1,8.09,1.52,18.44,18.44,0,0,1,6.26,4.18,18.88,18.88,0,0,1,4,6.33A21.67,21.67,0,0,1,268.52,78.09Zm-7.48,0a18.24,18.24,0,0,0-.85-5.78A12.18,12.18,0,0,0,257.74,68a10.52,10.52,0,0,0-3.88-2.73,14.52,14.52,0,0,0-10.33,0A10.63,10.63,0,0,0,239.62,68a12.39,12.39,0,0,0-2.48,4.34,19.85,19.85,0,0,0,0,11.56,12.17,12.17,0,0,0,2.48,4.33,10.6,10.6,0,0,0,3.91,2.72,14.52,14.52,0,0,0,10.33,0,10.49,10.49,0,0,0,3.88-2.72,12,12,0,0,0,2.45-4.33A18.16,18.16,0,0,0,261,78.09Z"/><path class="cls-5" d="M287.19,82.37V97.66h-7.28V58.52h11.94a25,25,0,0,1,6.86.83,13.14,13.14,0,0,1,4.68,2.31,9,9,0,0,1,2.68,3.56,12.52,12.52,0,0,1,.27,8.3,10.82,10.82,0,0,1-1.68,3.19,11.23,11.23,0,0,1-2.7,2.52A14.28,14.28,0,0,1,298.29,81a7.26,7.26,0,0,1,2.38,2.25l9.8,14.45h-6.55a3.12,3.12,0,0,1-1.61-.38,3.2,3.2,0,0,1-1.12-1.08L293,83.67a2.92,2.92,0,0,0-1-1,3.52,3.52,0,0,0-1.64-.3Zm0-5.22h4.55a11.09,11.09,0,0,0,3.59-.52,6.87,6.87,0,0,0,2.51-1.42,5.72,5.72,0,0,0,1.48-2.15,7.53,7.53,0,0,0,.48-2.73,5.56,5.56,0,0,0-2-4.58c-1.31-1.06-3.3-1.6-6-1.6h-4.66Z"/><path class="cls-5" d="M348.5,58.52V61.2a4,4,0,0,1-.71,2.28L327.71,91.84H348v5.82H318.27V94.79a2.86,2.86,0,0,1,.19-1,4.1,4.1,0,0,1,.48-.93l20.14-28.5H319.54v-5.8Z"/><path class="cls-5" d="M375.11,91.79a9.6,9.6,0,0,0,3.77-.7,7.91,7.91,0,0,0,2.82-2A8.82,8.82,0,0,0,383.46,86a12.82,12.82,0,0,0,.61-4.06V58.52h7.28V82a18.08,18.08,0,0,1-1.13,6.46A14.59,14.59,0,0,1,387,93.54a14.74,14.74,0,0,1-5.12,3.35,19.52,19.52,0,0,1-13.53,0A14.3,14.3,0,0,1,360,88.42,18.08,18.08,0,0,1,358.89,82V58.52h7.28V81.94a12.87,12.87,0,0,0,.61,4.06,8.94,8.94,0,0,0,1.75,3.1,7.77,7.77,0,0,0,2.8,2A9.61,9.61,0,0,0,375.11,91.79Z"/><path class="cls-5" d="M422.15,92.3a18.15,18.15,0,0,0,4.29-.44,18.4,18.4,0,0,0,3.48-1.23V83.51H425a1.5,1.5,0,0,1-1.11-.4,1.28,1.28,0,0,1-.41-1V78h13V93.87a21.06,21.06,0,0,1-3.1,1.89A19.6,19.6,0,0,1,430,97.07a26.28,26.28,0,0,1-3.91.77,37,37,0,0,1-4.49.26,20.48,20.48,0,0,1-7.88-1.49,18.47,18.47,0,0,1-10.32-10.48,21.26,21.26,0,0,1-1.48-8A22,22,0,0,1,403.34,70a17.84,17.84,0,0,1,10.47-10.45,23.26,23.26,0,0,1,8.45-1.46,21.92,21.92,0,0,1,8.29,1.42,19,19,0,0,1,5.94,3.7l-2.11,3.3a1.86,1.86,0,0,1-1.65,1,2.43,2.43,0,0,1-1.32-.43c-.58-.35-1.17-.69-1.78-1a11.84,11.84,0,0,0-2-.89,16.3,16.3,0,0,0-2.46-.63,18.48,18.48,0,0,0-3.16-.24,13.46,13.46,0,0,0-5.23,1,11,11,0,0,0-4,2.79,12.47,12.47,0,0,0-2.54,4.36,17,17,0,0,0-.89,5.68,17.84,17.84,0,0,0,.94,6A12.57,12.57,0,0,0,413,88.57,11.34,11.34,0,0,0,417,91.34,13.48,13.48,0,0,0,422.15,92.3Z"/><path class="cls-5" d="M476.31,58.52v6H464.54V97.66h-7.29V64.51H445.43v-6Z"/></g><g id="Logo"><g class="cls-13"><path class="cls-5" d="M314.6,388.39,326.72,372a2.69,2.69,0,0,0-.08-3.29,3.06,3.06,0,0,0-2.55-1h-2.24a3.09,3.09,0,0,0-2.47,1.25l-9.6,13-9.32-12.68a3.79,3.79,0,0,0-3-1.54h-1.87a3,3,0,0,0-2.57,1,2.67,2.67,0,0,0-.08,3.28l12,16.35-13.32,18.24a2.69,2.69,0,0,0,.1,3.29,2.79,2.79,0,0,0,2.16,1h2.82a2.68,2.68,0,0,0,2.16-1.1l10.9-15,10.86,14.82a3.08,3.08,0,0,0,2.47,1.25h2.71a2.67,2.67,0,0,0,2.16-4.26L314.6,388.39Z"/><path class="cls-5" d="M337.43,367.8H337a3.4,3.4,0,0,0-3.6,3.32v36.41a3.32,3.32,0,0,0,3.32,3.32h1.08a3.32,3.32,0,0,0,3.32-3.32V371.12a3.42,3.42,0,0,0-3.65-3.32Z"/><path class="cls-5" d="M358.54,378.8l0-.05a14.18,14.18,0,0,1,20.18,0,15.41,15.41,0,0,1,0,21,13.51,13.51,0,0,1-10.2,4.22,13.23,13.23,0,0,1-10-4.17,15.62,15.62,0,0,1,0-21Zm25.77-5.4a22.2,22.2,0,0,0-31.34,0,23,23,0,0,0,0,31.72,21.09,21.09,0,0,0,15.6,6.51,21.45,21.45,0,0,0,15.75-6.5,22.72,22.72,0,0,0,0-31.7Z"/><path class="cls-5" d="M268.66,374.67a13.43,13.43,0,0,1,10.12,4.21,14,14,0,0,1,3.5,5.85H255.12a14.14,14.14,0,0,1,3.44-5.81l0,0a13.24,13.24,0,0,1,10.06-4.21Zm20.82,16.2a4.51,4.51,0,0,0,1.22-3.42,22.06,22.06,0,0,0-22-20.42A21.23,21.23,0,0,0,253,373.49a23,23,0,0,0,0,31.72,21.05,21.05,0,0,0,15.6,6.51,21.67,21.67,0,0,0,15.74-6.49,25,25,0,0,0,3.86-5.38,2.2,2.2,0,0,0,0-2.18,2.44,2.44,0,0,0-2.18-1.13h-2.74c-1.66,0-2.21.36-2.64,1a15.65,15.65,0,0,1-1.84,2.29,13.5,13.5,0,0,1-10.19,4.22,13.22,13.22,0,0,1-10-4.17,14,14,0,0,1-3.83-7.62h31.45a4.59,4.59,0,0,0,3.3-1.42Z"/><path class="cls-5" d="M220.64,404a13.22,13.22,0,0,1-10-4.18,15.62,15.62,0,0,1-.05-20.93l.09-.1a14.18,14.18,0,0,1,20.18,0,15.4,15.4,0,0,1,0,21A13.51,13.51,0,0,1,220.64,404Zm.07-37.06a21.12,21.12,0,0,0-14.24,5.24V352.45c0-1.84-1.54-3.18-3.64-3.18h-.46c-2.1,0-3.62,1.34-3.62,3.18v36.88A21.82,21.82,0,0,0,205,405.16a21.09,21.09,0,0,0,15.61,6.51,21.43,21.43,0,0,0,15.74-6.49,22.72,22.72,0,0,0,0-31.7,21.35,21.35,0,0,0-15.67-6.5Z"/><path class="cls-5" d="M337.22,350.1a5.36,5.36,0,1,0,5.35,5.35,5.36,5.36,0,0,0-5.35-5.35Z"/></g><g class="cls-14"><path d="M353,373.37a22.2,22.2,0,0,1,31.34,0,21.5,21.5,0,0,1,6.35,13.85c0-.66.09-1.32.09-2a21.73,21.73,0,0,0-6.44-15.85,22.2,22.2,0,0,0-31.34,0,21.81,21.81,0,0,0-6.36,15.88c0,.68,0,1.34.09,2A21.53,21.53,0,0,1,353,373.37Z"/><path d="M358.54,399.79a13.23,13.23,0,0,0,10,4.17,13.51,13.51,0,0,0,10.2-4.22,14.37,14.37,0,0,0,4.12-10.49,16.26,16.26,0,0,0-.13-2,14.09,14.09,0,0,1-4,8.49,13.51,13.51,0,0,1-10.2,4.22,13.23,13.23,0,0,1-10-4.17,14.08,14.08,0,0,1-3.93-8.52,18.15,18.15,0,0,0-.12,2A14.48,14.48,0,0,0,358.54,399.79Z"/><path d="M337.43,363.8H337a3.4,3.4,0,0,0-3.6,3.32v4a3.4,3.4,0,0,1,3.6-3.32h.47a3.42,3.42,0,0,1,3.65,3.32v-4A3.42,3.42,0,0,0,337.43,363.8Z"/><path d="M337.22,346.1a5.35,5.35,0,0,0-5,7.35,5.35,5.35,0,0,1,9.92,0,5.35,5.35,0,0,0-5-7.35Z"/><path d="M293.25,368.5a3.3,3.3,0,0,1,2.31-.73h1.87a3.79,3.79,0,0,1,3,1.54L309.78,382l9.6-13a3.09,3.09,0,0,1,2.47-1.25h2.24a3.28,3.28,0,0,1,2.29.73l.34-.46a2.69,2.69,0,0,0-.08-3.29,3.06,3.06,0,0,0-2.55-1h-2.24a3.09,3.09,0,0,0-2.47,1.25l-9.6,13-9.32-12.68a3.79,3.79,0,0,0-3-1.54h-1.87a3,3,0,0,0-2.57,1,2.67,2.67,0,0,0-.08,3.28Z"/><path d="M292,406.15l13-17.76-1.47-2-11.85,16.23a2.69,2.69,0,0,0,.1,3.29Z"/><path d="M316.07,386.4l-1.47,2,13,17.76a2.71,2.71,0,0,0,.57-.73,2.67,2.67,0,0,0-.23-2.8Z"/><path d="M282.28,384.73a13.14,13.14,0,0,0-2-4h-23.2a13.32,13.32,0,0,0-2,4Z"/><path d="M286,392.54h-2.74c-1.66,0-2.21.36-2.64,1a15.65,15.65,0,0,1-1.84,2.29,13.5,13.5,0,0,1-10.19,4.22,13.22,13.22,0,0,1-10-4.17,14.48,14.48,0,0,1-2.56-3.62h-1.27a14,14,0,0,0,3.83,7.62,13.22,13.22,0,0,0,10,4.17,13.5,13.5,0,0,0,10.19-4.22,15.65,15.65,0,0,0,1.84-2.29c.43-.67,1-1,2.64-1H286a2.63,2.63,0,0,1,1.52.46c.25-.41.47-.8.67-1.15a2.2,2.2,0,0,0,0-2.18A2.44,2.44,0,0,0,286,392.54Z"/><path d="M268.66,363A21.23,21.23,0,0,0,253,369.49a21.82,21.82,0,0,0-6.35,15.88c0,.68,0,1.34.08,2A21.58,21.58,0,0,1,253,373.49a22.2,22.2,0,0,1,31.34,0,21.49,21.49,0,0,1,6.11,11.8,4.64,4.64,0,0,0,.26-1.87,22.06,22.06,0,0,0-22-20.42Z"/><path d="M202.37,349.27h.46c2.1,0,3.64,1.34,3.64,3.18v-4c0-1.84-1.54-3.18-3.64-3.18h-.46c-2.1,0-3.62,1.34-3.62,3.18v4C198.75,350.61,200.27,349.27,202.37,349.27Z"/><path d="M210.61,399.86a13.22,13.22,0,0,0,10,4.18,13.51,13.51,0,0,0,10.19-4.23A14.36,14.36,0,0,0,235,389.33a18.53,18.53,0,0,0-.12-2,14.08,14.08,0,0,1-4,8.48A13.51,13.51,0,0,1,220.64,400a13.22,13.22,0,0,1-10-4.18,14.05,14.05,0,0,1-3.93-8.52,18.34,18.34,0,0,0-.12,2A14.46,14.46,0,0,0,210.61,399.86Z"/><path d="M220.71,363a21.12,21.12,0,0,0-14.24,5.24v4A21.12,21.12,0,0,1,220.71,367a22,22,0,0,1,22,20.35c.06-.66.09-1.32.09-2a21.69,21.69,0,0,0-6.44-15.85A21.35,21.35,0,0,0,220.71,363Z"/></g></g><g id="Status_Dark" data-name="Status Dark"><g class="cls-15"><path d="M193.33,483.91V500.2h-8.61V453.93h15.07a26.26,26.26,0,0,1,8,1.09,15.25,15.25,0,0,1,5.6,3,11.91,11.91,0,0,1,3.27,4.67,17.44,17.44,0,0,1-.07,12.11,12.67,12.67,0,0,1-3.36,4.82,15.56,15.56,0,0,1-5.6,3.13,24.82,24.82,0,0,1-7.87,1.12Zm0-6.72h6.46a12.82,12.82,0,0,0,4.13-.59,7.6,7.6,0,0,0,2.91-1.7,6.86,6.86,0,0,0,1.73-2.68,10.43,10.43,0,0,0,.58-3.54,9.4,9.4,0,0,0-.58-3.36,6.57,6.57,0,0,0-1.73-2.56,7.87,7.87,0,0,0-2.91-1.62,13.75,13.75,0,0,0-4.13-.56h-6.46Z"/><path d="M234.64,493.1h18.53v7.1H226V453.93h8.61Z"/><path d="M301.39,500.2h-6.65a2.92,2.92,0,0,1-1.84-.56,3.16,3.16,0,0,1-1-1.39l-3.46-9.44H269.23l-3.45,9.44a3.08,3.08,0,0,1-1,1.34,2.82,2.82,0,0,1-1.84.61h-6.69l18.18-46.27h8.8Zm-29.95-17.47h14.75l-5.63-15.39c-.26-.69-.54-1.49-.85-2.42s-.61-1.94-.91-3c-.3,1.08-.59,2.1-.88,3s-.57,1.76-.85,2.46Z"/><path d="M335.66,453.93V461H321.74v39.2h-8.6V461h-14v-7.07Z"/><path d="M352.43,500.2h-8.64V453.93h8.64Z"/><path d="M369.9,454a2.06,2.06,0,0,1,.69.19,2.17,2.17,0,0,1,.59.41,7,7,0,0,1,.64.72l24.29,30.95q-.12-1.12-.18-2.19c0-.72,0-1.39,0-2V453.93h7.58V500.2H399a4,4,0,0,1-1.69-.32,3.81,3.81,0,0,1-1.32-1.15l-24.19-30.82c.07.68.11,1.36.15,2s0,1.29,0,1.84V500.2h-7.58V453.93h4.51A6.46,6.46,0,0,1,369.9,454Z"/></g></g><g id="Status_Bright" data-name="Status Bright"><path class="cls-5" d="M193.33,488.91V505.2h-8.61V458.93h15.07a26.26,26.26,0,0,1,8,1.09,15.25,15.25,0,0,1,5.6,3,11.91,11.91,0,0,1,3.27,4.67,17.44,17.44,0,0,1-.07,12.11,12.67,12.67,0,0,1-3.36,4.82,15.56,15.56,0,0,1-5.6,3.13,24.82,24.82,0,0,1-7.87,1.12Zm0-6.72h6.46a12.82,12.82,0,0,0,4.13-.59,7.6,7.6,0,0,0,2.91-1.7,6.86,6.86,0,0,0,1.73-2.68,10.43,10.43,0,0,0,.58-3.54,9.4,9.4,0,0,0-.58-3.36,6.57,6.57,0,0,0-1.73-2.56,7.87,7.87,0,0,0-2.91-1.62,13.75,13.75,0,0,0-4.13-.56h-6.46Z"/><path class="cls-5" d="M234.64,498.1h18.53v7.1H226V458.93h8.61Z"/><path class="cls-5" d="M301.39,505.2h-6.65a2.92,2.92,0,0,1-1.84-.56,3.16,3.16,0,0,1-1-1.39l-3.46-9.44H269.23l-3.45,9.44a3.08,3.08,0,0,1-1,1.34,2.82,2.82,0,0,1-1.84.61h-6.69l18.18-46.27h8.8Zm-29.95-17.47h14.75l-5.63-15.39c-.26-.69-.54-1.49-.85-2.42s-.61-1.94-.91-3c-.3,1.08-.59,2.1-.88,3s-.57,1.76-.85,2.46Z"/><path class="cls-5" d="M335.66,458.93V466H321.74v39.2h-8.6V466h-14v-7.07Z"/><path class="cls-5" d="M352.43,505.2h-8.64V458.93h8.64Z"/><path class="cls-5" d="M369.9,459a2.06,2.06,0,0,1,.69.19,2.17,2.17,0,0,1,.59.41,7,7,0,0,1,.64.72l24.29,30.95q-.12-1.12-.18-2.19c0-.72,0-1.39,0-2V458.93h7.58V505.2H399a4,4,0,0,1-1.69-.32,3.81,3.81,0,0,1-1.32-1.15l-24.19-30.82c.07.68.11,1.36.15,2s0,1.29,0,1.84V505.2h-7.58V458.93h4.51A6.46,6.46,0,0,1,369.9,459Z"/></g></g></svg>