<svg xmlns="http://www.w3.org/2000/svg" id="Layer_2" data-name="Layer 2" viewBox="0 0 251.04 30.22"><defs><style>      .cls-1 {        fill: #fff;      }      .cls-2 {        fill: #4e84ff;      }    </style></defs><g id="Layer_5" data-name="Layer 5"><g><path class="cls-2" d="M251.04,29.68v-2.75l-1.6-.18V15.2c0-4.18-1.16-7.2-5.15-7.2-1.77,0-3.51,.52-4.98,1.51V0h-4.8V2.76l1.6,.18V26.75l-1.6,.18v2.76h6.49v-2.76l-1.6-.18V12.26c1.27-.84,2.75-1.3,4.26-1.33,2.04,0,2.67,.98,2.67,4.53v14.31l4.71-.09Zm-21.24-.35v-2.49c-1.41,.21-2.84,.32-4.27,.35-2.76,0-4-.98-4-5.78v-4.79c0-4.8,1.24-5.78,4-5.78h1.42l.35,2.04h2.4v-4.09c-1.51-.55-3.11-.79-4.71-.71-5.07,0-6.66,3.29-6.66,8.62v4.8c0,5.33,1.6,8.71,6.66,8.71,1.63-.06,3.25-.36,4.8-.89M212.57,0h-3.29V4.45h3.29V0Zm1.51,29.68v-2.75l-1.6-.18V8.44h-4.8v2.76l1.6,.18v15.37l-1.6,.18v2.76h6.4Zm-10.84-18.75v-2.93c-2.14-.11-4.26,.55-5.95,1.87v-1.42h-4.71v2.76l1.6,.18v15.46l-1.6,.18v2.76h6.49v-2.76l-1.6-.18V12.35c1.78-.94,3.76-1.43,5.78-1.42M177.73,.8h-3.11V5.15h3.11V.8Zm6.93,0h-3.11V5.15h3.11V.8Zm3.47,28.88v-2.75l-1.6-.18V8.44h-4.8v2.76l1.6,.18v14.4c-1.35,.89-2.91,1.42-4.53,1.51-2.13,0-2.4-.98-2.4-4.35V8.44h-4.89v2.76l1.6,.18v11.64c0,3.91,.62,7.11,4.8,7.11,1.91-.1,3.75-.72,5.33-1.78v1.42l4.89-.09Zm-21.24,0v-4.98h-2.4l-.35,2.22h-6.31l9.06-14.84v-3.64h-11.83v4.53h2.4l.35-1.78h5.78l-8.88,14.57v3.91h12.17Z"></path><path class="cls-1" d="M140.05,26.22c-1.11,.63-2.37,.97-3.64,.98-2.49,0-3.29-1.51-3.29-5.15v-5.42c0-5.07,1.33-5.87,3.82-5.87,1.05,.02,2.09,.14,3.11,.35v15.11Zm4.89,3.47v-2.76l-1.6-.18V0h-5.33V2.76l2.13,.18v5.42c-1.08-.25-2.18-.37-3.29-.35-4.27,0-6.93,1.87-6.93,8.71v5.42c0,5.24,1.78,8,5.78,8,1.61,.01,3.18-.45,4.53-1.33v.98l4.71-.09Zm-19.46,0v-2.76l-1.6-.18V15.11c0-4.62-.8-7.11-4.98-7.11-1.88,.09-3.7,.7-5.24,1.78v-1.33h-4.8v2.76l1.6,.18v15.46l-1.6,.18v2.76h6.49v-2.76l-1.6-.18V12.35c1.36-.88,2.92-1.4,4.53-1.51,1.95,0,2.4,.98,2.4,4.35v14.57l4.8-.09h0Zm-26.04-3.38c-1.17,.76-2.52,1.19-3.91,1.24-1.6,0-2.4-.53-2.4-2.76v-1.51c0-3.11,1.07-3.91,4.35-3.91h2.04l-.09,6.93Zm4.89,3.38v-2.75l-1.6-.18V14.93c0-4.89-1.16-6.93-6.49-6.93-1.81,0-3.61,.27-5.33,.8v4.09h2.4l.35-2.04c.71-.07,1.42-.1,2.13-.09,3.2,0,3.73,.62,3.73,4.09v2.04h-2.04c-4.98,0-7.55,1.51-7.55,6.31v1.07c0,3.73,1.42,5.69,4.89,5.69,1.76,.02,3.48-.55,4.89-1.6v1.24l4.62,.09Zm-19.02,0v-2.75l-1.6-.18V15.2c0-4.18-1.16-7.2-5.15-7.2-1.77,0-3.51,.52-4.98,1.51V0h-4.8V2.76l1.6,.18V26.75l-1.6,.18v2.76h6.49v-2.76l-1.6-.18V12.26c1.27-.84,2.75-1.3,4.27-1.33,2.04,0,2.67,.98,2.67,4.53v14.31l4.71-.09h0Zm-21.15,0v-2.75l-1.6-.18V8.44h-4.8v2.76l1.6,.18v14.4c-1.35,.89-2.91,1.42-4.53,1.51-2.13,0-2.4-.98-2.4-4.35V8.44h-4.8v2.76l1.6,.18v11.64c0,3.91,.62,7.11,4.8,7.11,1.91-.1,3.75-.72,5.33-1.78v1.42l4.79-.09Zm-23.91-12.09h-7.55v-.53c0-3.55,.44-6.13,3.82-6.13s3.73,2.57,3.73,6.13v.53Zm3.28,2.67v-1.95c0-6.84-1.87-10.31-7.02-10.31s-7.02,3.47-7.02,10.04v2.4c0,7.29,1.95,9.69,7.73,9.69,1.95,.03,3.89-.21,5.78-.71v-2.67c-1.85,.35-3.72,.53-5.6,.53-4.09,0-4.62-1.6-4.62-6.49v-.62l10.76,.09ZM25.59,10.93v-2.93c-2.14-.11-4.26,.55-5.95,1.87v-1.42h-4.71v2.76l1.6,.18v15.46l-1.6,.18v2.76h6.49v-2.76l-1.6-.18V12.35c1.78-.95,3.76-1.44,5.78-1.42M10.4,29.59v-2.4c-.35,0-1.6,.18-2.49,.18-1.51,0-1.6-.27-1.6-2.13V11.19h4.09v-2.75H6.31V3.29H3.11v5.15H0v2.4l3.11,.35v14.31c0,3.47,1.16,4.53,4.09,4.53,1.09,.07,2.17-.08,3.2-.44"></path></g></g></svg>