<?xml version="1.0" encoding="UTF-8"?> <svg xmlns="http://www.w3.org/2000/svg" width="159.554" height="143.599" viewBox="0 0 159.554 143.599"><path id="ICON_Unternehmensberatung" d="M66.822,108.21v-7.978H11.057l-.08,31.911A15.9,15.9,0,0,0,26.933,148.1H138.621a15.9,15.9,0,0,0,15.955-15.955V100.233H98.733v7.978Zm79.777-71.8H114.608V20.455L98.653,4.5H66.742L50.787,20.455V36.411H18.955A16,16,0,0,0,3,52.366V76.3A15.9,15.9,0,0,0,18.955,92.255H66.822V76.3H98.733V92.255H146.6A16,16,0,0,0,162.554,76.3V52.366A16,16,0,0,0,146.6,36.411Zm-47.866,0H66.822V20.455H98.733Z" transform="translate(-3 -4.5)" fill="#fff" opacity="0.3"></path></svg> 