<?xml version="1.0" encoding="UTF-8"?> <svg xmlns="http://www.w3.org/2000/svg" width="143.599" height="143.599" viewBox="0 0 143.599 143.599"><path id="ICON_Steuerberatung" d="M0,113.673v11.976c0,9.9,24.12,17.95,53.85,17.95s53.85-8.049,53.85-17.95V113.673c-11.583,8.162-32.758,11.976-53.85,11.976S11.583,121.835,0,113.673ZM89.749,35.9c29.729,0,53.85-8.049,53.85-17.95S119.479,0,89.749,0,35.9,8.049,35.9,17.95,60.02,35.9,89.749,35.9ZM0,84.252V98.724c0,9.9,24.12,17.95,53.85,17.95s53.85-8.049,53.85-17.95V84.252C96.116,93.788,74.913,98.724,53.85,98.724S11.583,93.788,0,84.252Zm116.674,3.085C132.745,84.224,143.6,78.446,143.6,71.8V59.824c-6.507,4.6-16.071,7.741-26.925,9.676ZM53.85,44.875C24.12,44.875,0,54.915,0,67.312S24.12,89.749,53.85,89.749,107.7,79.709,107.7,67.312,83.579,44.875,53.85,44.875Zm61.506,15.79c16.828-3.029,28.243-8.975,28.243-15.79V32.9c-9.957,7.04-27.065,10.826-45.071,11.723C106.8,48.633,112.888,54.018,115.356,60.665Z" fill="#fff" opacity="0.3"></path></svg> 