<?xml version="1.0" encoding="UTF-8"?> <svg xmlns="http://www.w3.org/2000/svg" width="51.073" height="48" viewBox="0 0 51.073 48"><path id="ICON_USP3" d="M510.794,48V37.774a16.449,16.449,0,0,1-12.878-16.1V16.521A16.54,16.54,0,0,1,514.437,0h18.03a16.539,16.539,0,0,1,16.521,16.521v5.152a16.539,16.539,0,0,1-16.521,16.521H527.6Zm3.643-45.868a14.4,14.4,0,0,0-14.39,14.389v5.152a14.33,14.33,0,0,0,11.989,14.173l.889.149v8.293l14.1-8.225h5.439a14.406,14.406,0,0,0,14.389-14.389V16.521A14.4,14.4,0,0,0,532.468,2.132Z" transform="translate(-497.916)" fill="#687179"></path></svg> 