<?xml version="1.0" encoding="UTF-8"?> <svg xmlns="http://www.w3.org/2000/svg" id="ICON_phone_braun" width="70.5" height="70.5" viewBox="0 0 70.5 70.5"><circle id="Ellipse_9" data-name="Ellipse 9" cx="35.25" cy="35.25" r="35.25" transform="translate(0 0)" fill="#cfad93"></circle><path id="Icon_ionic-ios-phone-portrait" data-name="Icon ionic-ios-phone-portrait" d="M26.033,2.25H12.872a2.731,2.731,0,0,0-2.747,2.73V36.6a2.811,2.811,0,0,0,2.747,2.83H26.024A2.756,2.756,0,0,0,28.7,36.6V4.98A2.663,2.663,0,0,0,26.033,2.25ZM18.174,4.159h2.489a.332.332,0,1,1,0,.664H18.174a.332.332,0,0,1,0-.664ZM19.46,38.181A1.444,1.444,0,1,1,20.9,36.737,1.445,1.445,0,0,1,19.46,38.181Zm7.759-4.066h-15.6a.166.166,0,0,1-.166-.166V6.648a.166.166,0,0,1,.166-.166h15.6a.166.166,0,0,1,.166.166v27.3A.166.166,0,0,1,27.219,34.115Z" transform="translate(16.358 15.142)" fill="#fff"></path></svg> 