<?xml version="1.0" encoding="UTF-8"?> <svg xmlns="http://www.w3.org/2000/svg" width="64.52" height="48" viewBox="0 0 64.52 48"><g id="ICON_USP6" transform="translate(-1568.501 -844.615)"><path id="Pfad_17" data-name="Pfad 17" d="M560.021,131.589l-12.6-13.974h-19.65l-.011,0-.011,0H508.1l-12.6,13.974,31.28,33.605c.023.023.054.03.077.054l.011.012a.947.947,0,0,0,.083.052,1.286,1.286,0,0,0,.331.208,1.434,1.434,0,0,0,.274.054,1.224,1.224,0,0,0,.193.041l.011,0,.011,0a1.258,1.258,0,0,0,.193-.041,1.435,1.435,0,0,0,.274-.054,1.283,1.283,0,0,0,.331-.208.958.958,0,0,0,.083-.052c.005,0,.005-.009.011-.012.022-.024.054-.032.077-.054ZM511.592,132.9l11.282,24.209L500.337,132.9Zm16.158-12.634.011,0,.011,0h5.245l7.36,9.985H515.057l7.361-9.985ZM555.183,132.9l-22.709,24.4,11.368-24.4Zm-14.262,0-13.2,28.331-13.2-28.331Zm14.33-2.648H543.667l-7.361-9.985h9.939Zm-45.973-9.985h9.85l-7.36,9.985h-11.5Z" transform="translate(1073 727)" fill="#687179"></path></g></svg> 