<?xml version="1.0" encoding="UTF-8"?> <svg xmlns="http://www.w3.org/2000/svg" width="111.711" height="145.078" viewBox="0 0 111.711 145.078"><path id="ICON_TreuhandBuchhaltung" d="M4.138,145.076l4.014-.87c1.251-.266,2.49-.514,3.742-.762,1.922-.375,3.85-.743,5.773-1.1,1.451-.278,2.9-.514,4.358-.78l.332-.091c1.511-.266,3.01-.544,4.515-.725l7.338-1.082V0h-.254c-3.808.024-7.592.1-11.388.218C18.4.325,14.142.579,9.972.851c-1.807.127-3.627.278-5.434.423H4.265V145.04ZM41.325.1V138.772c5.2-.6,10.4-1.1,15.607-1.487a370.694,370.694,0,0,1,38.523-.913q10.228.308,20.395,1.161V9.09q-9.1-2.076-18.3-3.669C85.651,3.353,73.64,1.909,61.6,1Q51.5.267,41.337.1h-.012Zm65.059,89.443-.278-.024-3.391-.369c-8.456-.883-16.955-1.463-25.43-1.759-8.5-.272-17.016-.181-25.527.1h-.266a2.344,2.344,0,0,1-.816-.1,3.586,3.586,0,0,1-1.614-.9,3.515,3.515,0,0,1-.943-2.992,3.814,3.814,0,0,1,.326-1,2.973,2.973,0,0,1,.629-.81,3.368,3.368,0,0,1,.864-.629,5.377,5.377,0,0,1,1.088-.369h.544c1.179,0,2.363-.1,3.445-.1,8.432-.175,16.762-.175,25.2.181,8.7.363,17.312,1,25.919,1.995l.913.091c.266.1.538.1.816.181a4,4,0,0,1,1.541,1.094,3.923,3.923,0,0,1,.635.991,2.506,2.506,0,0,1,.266,1.088,3.41,3.41,0,0,1-.991,2.72,5.17,5.17,0,0,1-.816.635,3.518,3.518,0,0,1-1,.363.918.918,0,0,1-.538.1h-.284l-.29-.484Zm.212-16.387a2.805,2.805,0,0,1-.544-.036l-3.355-.429c-8.432-1.082-16.949-1.813-25.375-2.17-8.432-.453-16.955-.544-25.472-.363l-.278-.1c-.272-.091-.544-.091-.816-.175a3.44,3.44,0,0,1-1.535-1,4.6,4.6,0,0,1-.544-.895,3.575,3.575,0,0,1,.085-3.173,3.428,3.428,0,0,1,.635-.907,1.979,1.979,0,0,1,.907-.629,2.577,2.577,0,0,1,1.088-.363l.544-.1,3.536-.091c8.438-.1,16.768.091,25.1.544,8.7.453,17.318,1.269,25.926,2.357l.9.1.55.085a3.127,3.127,0,0,1,1.632,1,3.4,3.4,0,0,1,1,2.714,1.85,1.85,0,0,1-.272,1,8.545,8.545,0,0,1-.544.907,3.236,3.236,0,0,1-.822.725,3.486,3.486,0,0,1-.991.369l-.55.085h-.254l-.55.544Zm0-16.387a2.806,2.806,0,0,1-.544-.036l-3.355-.484c-8.432-1.148-16.859-2.019-25.375-2.587-8.432-.556-16.955-.816-25.472-.78h-.278l-.544-.1a4.424,4.424,0,0,1-.991-.411,3.8,3.8,0,0,1-1.723-2.648,4.124,4.124,0,0,1,.1-1.088,3.7,3.7,0,0,1,.357-1.028,3.887,3.887,0,0,1,.731-.87,3.576,3.576,0,0,1,1.723-.907,3.379,3.379,0,0,1,.816-.091h3.439c8.7.054,17.4.387,26.016,1.04,8.432.635,16.768,1.572,25.1,2.762l.907.127a2.006,2.006,0,0,1,.544.115,3.558,3.558,0,0,1,1,.484,2.178,2.178,0,0,1,.816.743,10.755,10.755,0,0,1,.544.955,3.556,3.556,0,0,1-.175,2.9,3.225,3.225,0,0,1-.635.883,3.291,3.291,0,0,1-1.632.907,1.382,1.382,0,0,1-.55.085l-.266.03h-.55Zm0-16.393a2.413,2.413,0,0,1-.544-.042l-3.355-.544c-8.432-1.36-16.859-2.363-25.375-3-8.432-.719-16.955-1.082-25.472-1.263h-.278l-.635-.085a3.832,3.832,0,0,1-1-.447,3.762,3.762,0,0,1-.846-.731,7.4,7.4,0,0,1-.568-.9,5.447,5.447,0,0,1-.266-1.094,3.778,3.778,0,0,1,1.094-2.986,3.565,3.565,0,0,1,1.686-.907,2.51,2.51,0,0,1,.816-.091c1.142,0,2.3.03,3.445.048,8.686.206,17.354.683,26.016,1.487,8.384.719,16.744,1.813,25.055,3.167l.816.1a1.2,1.2,0,0,1,.544.085,4.053,4.053,0,0,1,1,.459,3.151,3.151,0,0,1,.756.719,3.821,3.821,0,0,1,.635,2.811,4.49,4.49,0,0,1-.369,1,3.116,3.116,0,0,1-.725.816,3.631,3.631,0,0,1-1.638.9h-.816l.024.5Zm-94.72-3.077a3.857,3.857,0,0,1-1.638-.381,3.665,3.665,0,0,1-1.989-3.053,3.722,3.722,0,0,1,.181-1,2.758,2.758,0,0,1,.544-1.148,4.009,4.009,0,0,1,.991-.979,4.4,4.4,0,0,1,1.457-.556l2.9-.266c3.983-.351,7.888-.635,11.781-.87h.363a3.28,3.28,0,0,1,1.638.429A3.571,3.571,0,0,1,30,32.609a3.784,3.784,0,0,1-.175.973,2.861,2.861,0,0,1-.55,1.142,3.336,3.336,0,0,1-1,1,4.076,4.076,0,0,1-1.451.544c-.629.091-1.263.091-1.9.181-.822.091-1.729.091-2.635.187l-7.06.532-1.723.187a4.89,4.89,0,0,1-1.185.091l-.453-.151ZM106.5,23.99l-.55-.06-3.349-.6c-8.432-1.414-16.955-2.569-25.472-3.409-8.432-.834-16.949-1.36-25.472-1.638H51.39l-.544-.109a3.857,3.857,0,0,1-1-.429,4.475,4.475,0,0,1-.816-.731,3.41,3.41,0,0,1-.725-3.059,6.164,6.164,0,0,1,.447-1.088,3.6,3.6,0,0,1,.731-.907,3.793,3.793,0,0,1,1.723-.907,2.492,2.492,0,0,1,.816-.091l3.53.091c8.432.369,16.768.907,25.109,1.819,8.7.895,17.312,2.17,25.919,3.627l.907.085a.909.909,0,0,1,.544.1,3.5,3.5,0,0,1,1,.447,3.654,3.654,0,0,1,1.445,2.545,2.192,2.192,0,0,1-.091,1.094,1.894,1.894,0,0,1-.357.991,6.225,6.225,0,0,1-.635.816,3.06,3.06,0,0,1-1.729.816l-.52.085h-.278ZM11.773,19.341A3.557,3.557,0,0,1,10.262,19a3.478,3.478,0,0,1-1.8-1.922,3.272,3.272,0,0,1-.236-.943,3.568,3.568,0,0,1,1.541-3.3,3.622,3.622,0,0,1,1.572-.6c.955-.085,1.9-.085,2.859-.175,3.929-.272,7.864-.453,11.781-.635h.29a4.47,4.47,0,0,1,1.547.453,3.783,3.783,0,0,1,1.813,3.167,3.456,3.456,0,0,1-.181,1,5.215,5.215,0,0,1-.629,1.179,2.783,2.783,0,0,1-1.1.907,3.057,3.057,0,0,1-1.541.453,14.987,14.987,0,0,1-1.995.085l-2.714.187c-2.448.175-4.805.272-7.169.447l-1.813.1a5.523,5.523,0,0,1-1.173.091Z" transform="translate(-4.139 0.001)" fill="#fff" opacity="0.3"></path></svg> 