<?xml version="1.0" encoding="UTF-8"?> <svg xmlns="http://www.w3.org/2000/svg" width="55.886" height="48" viewBox="0 0 55.886 48"><g id="ICON_USP5" transform="translate(-1320.818 -727)"><path id="Pfad_18" data-name="Pfad 18" d="M261.447,15.951a1.846,1.846,0,1,0,1.846,1.846,1.848,1.848,0,0,0-1.846-1.846m-.154,1.846a.154.154,0,0,1,.308,0c0,.17-.309.168-.308,0" transform="translate(1075.114 729.901)" fill="#687179"></path><path id="Pfad_19" data-name="Pfad 19" d="M303.7,22.952l-2.246-.614c-.03.091-.695,2.055-4.342,2.394-.519-5.7-4.585-9.982-6.236-11.5a9.593,9.593,0,0,0,.681-3.541,9.71,9.71,0,0,0-19.355-1.115,17.678,17.678,0,0,0-5.971,1.459A9.015,9.015,0,0,0,259.11,7.9l-1.366.223.452,1.309s.614,1.767,1.486,4.436a16.549,16.549,0,0,0-4.969,7.808h-6.9l1.745,10.3h5.631c1.382,3.038,5.378,6.855,6.728,8.094V48H268l2.085-4.443a16.978,16.978,0,0,0,5.206.751,20.087,20.087,0,0,0,5.479-.717L283.068,48h6.53V39.625a15.552,15.552,0,0,0,7.586-12.553c5.491-.442,6.481-3.961,6.521-4.12M281.85,2.331a7.361,7.361,0,1,1-7.382,7.361,7.377,7.377,0,0,1,7.382-7.361m5.995,35.63-.578.337v7.371h-2.785l-2.6-4.981-.988.409a16.127,16.127,0,0,1-5.6.879,12.753,12.753,0,0,1-5.256-.932l-1.079-.565-2.436,5.19h-2.271V39.026l-.392-.349c-1.633-1.45-6.027-5.752-6.748-8.2l-.246-.836h-5.335l-.956-5.634h5.977l.195-.924c.01-.052,1.115-5.119,4.97-7.835l.7-.5-.265-.817c-.5-1.539-.932-2.838-1.242-3.76a6.026,6.026,0,0,1,4.195,2.054l.636.756.851-.5a14.108,14.108,0,0,1,5.629-1.564,9.7,9.7,0,0,0,17.493,4.437c1.726,1.709,5.144,5.721,5.137,10.694a13.209,13.209,0,0,1-7.01,11.913" transform="translate(1073 727)" fill="#687179"></path></g></svg> 