<?xml version="1.0" encoding="UTF-8"?> <svg xmlns="http://www.w3.org/2000/svg" width="47.752" height="48" viewBox="0 0 47.752 48"><g id="ICON_USP2" transform="translate(-1529.956 -1034.211)"><path id="Pfad_24" data-name="Pfad 24" d="M521.834,122.211h0a24,24,0,0,0,0,48h0a24,24,0,0,0,0-48m1,14.473a40.574,40.574,0,0,0,8.174-.932,40.809,40.809,0,0,1,1.294,9.454h-9.467Zm0-2V124.314c3.112.652,5.874,4.305,7.6,9.52a38.919,38.919,0,0,1-7.6.853m-2-10.375v10.375a38.546,38.546,0,0,1-7.6-.863c1.731-5.21,4.492-8.859,7.6-9.511m0,12.371v8.522h-9.472a40.84,40.84,0,0,1,1.294-9.456,40.748,40.748,0,0,0,8.179.934m-11.469,8.522h-9.39a21.954,21.954,0,0,1,4.757-12.7,20.3,20.3,0,0,0,5.957,2.737,43.256,43.256,0,0,0-1.324,9.964m0,2a43.1,43.1,0,0,0,1.322,9.961,20.285,20.285,0,0,0-5.962,2.744,21.958,21.958,0,0,1-4.75-12.7Zm2,0h9.472v8.52a40.772,40.772,0,0,0-8.182.934,40.828,40.828,0,0,1-1.291-9.454m9.472,10.517v10.388c-3.115-.651-5.879-4.306-7.608-9.524a38.7,38.7,0,0,1,7.608-.863m2,10.388V157.719a38.546,38.546,0,0,1,7.6.863c-1.729,5.218-4.492,8.871-7.6,9.524m0-12.384V147.2H532.3a40.9,40.9,0,0,1-1.29,9.454,40.739,40.739,0,0,0-8.178-.934M534.3,147.2h9.39a21.967,21.967,0,0,1-4.747,12.7,20.346,20.346,0,0,0-5.963-2.742,43.19,43.19,0,0,0,1.32-9.961m0-2a43.114,43.114,0,0,0-1.324-9.962,20.381,20.381,0,0,0,5.961-2.737,21.97,21.97,0,0,1,4.753,12.7Zm3.318-14.211a18.889,18.889,0,0,1-5.2,2.335,21.349,21.349,0,0,0-4.606-8.281,21.867,21.867,0,0,1,9.808,5.947m-21.759-5.947a21.36,21.36,0,0,0-4.6,8.267,19.323,19.323,0,0,1-5.2-2.328,21.87,21.87,0,0,1,9.8-5.939m-9.806,36.377a19.23,19.23,0,0,1,5.2-2.332,21.36,21.36,0,0,0,4.6,8.279,21.865,21.865,0,0,1-9.806-5.947m21.757,5.949a21.368,21.368,0,0,0,4.606-8.282,19.3,19.3,0,0,1,5.2,2.332,21.874,21.874,0,0,1-9.81,5.951" transform="translate(1032 912)" fill="#687179"></path></g></svg> 