<?xml version="1.0" encoding="UTF-8"?> <svg xmlns="http://www.w3.org/2000/svg" id="ICON_mail_braun" width="70.5" height="70.5" viewBox="0 0 70.5 70.5"><circle id="Ellipse_9" data-name="Ellipse 9" cx="35.25" cy="35.25" r="35.25" transform="translate(0 0)" fill="#cfad93"></circle><g id="Icon_ionic-ios-mail" data-name="Icon ionic-ios-mail" transform="translate(18.909 23.461)"><path id="Pfad_15" data-name="Pfad 15" d="M36.345,10.363l-8.6,8.758a.154.154,0,0,0,0,.224l6.017,6.409a1.037,1.037,0,0,1,0,1.47,1.042,1.042,0,0,1-1.47,0L26.3,20.839a.164.164,0,0,0-.232,0l-1.462,1.486a6.434,6.434,0,0,1-4.587,1.934,6.563,6.563,0,0,1-4.683-1.99l-1.406-1.43a.164.164,0,0,0-.232,0L7.706,27.224a1.042,1.042,0,0,1-1.47,0,1.037,1.037,0,0,1,0-1.47l6.017-6.409a.17.17,0,0,0,0-.224L3.647,10.363a.157.157,0,0,0-.272.112V28a2.565,2.565,0,0,0,2.557,2.557H34.06A2.565,2.565,0,0,0,36.617,28V10.475A.16.16,0,0,0,36.345,10.363Z" transform="translate(-3.375 -7.542)" fill="#fff"></path><path id="Pfad_16" data-name="Pfad 16" d="M19.88,22.506A4.344,4.344,0,0,0,23,21.2L35.542,8.434a2.511,2.511,0,0,0-1.582-.559H5.808a2.5,2.5,0,0,0-1.582.559L16.763,21.2A4.345,4.345,0,0,0,19.88,22.506Z" transform="translate(-3.259 -7.875)" fill="#fff"></path></g></svg> 