<?xml version="1.0" encoding="UTF-8"?> <svg xmlns="http://www.w3.org/2000/svg" width="51.2" height="48" viewBox="0 0 51.2 48"><g id="ICON_USP1" transform="translate(-1032 -912.018)"><path id="Pfad_25" data-name="Pfad 25" d="M42.133,6.2V.018H33.6V6.2h-16V.018H9.067V6.2H0V48.018H51.2V6.2ZM24.533,26.04H14.4V17.574H24.533Zm12.267,0H26.667V17.574H36.8Zm12.267,0H38.933V17.574H49.067Zm-36.8,0H2.133V17.574H12.267ZM2.133,28.174H12.267v7.888H2.133Zm12.267,0H24.533v7.888H14.4ZM24.533,45.885H14.4V38.2H24.533Zm2.133-7.69H36.8v7.69H26.667Zm0-10.021H36.8v7.888H26.667Zm12.267,0H49.067v7.888H38.933Zm-3.2-26.022H40V6.2H35.733Zm-24.533,0h4.267V6.2H11.2ZM9.067,8.328h40v7.113H2.133V8.328ZM2.133,38.2H12.267v7.69H2.133Zm36.8,0H49.067v7.69H38.933Z" transform="translate(1032 912)" fill="#687179"></path></g></svg> 