<?xml version="1.0" encoding="UTF-8"?> <svg xmlns="http://www.w3.org/2000/svg" width="42.385" height="24.725" viewBox="0 0 42.385 24.725"><g id="ICON_Menü" transform="translate(-4.5 -10.125)"><path id="Pfad_34" data-name="Pfad 34" d="M45.119,13.657H6.266A1.771,1.771,0,0,1,4.5,11.891h0a1.771,1.771,0,0,1,1.766-1.766H45.119a1.771,1.771,0,0,1,1.766,1.766h0A1.771,1.771,0,0,1,45.119,13.657Z" fill="#fff"></path><path id="Pfad_35" data-name="Pfad 35" d="M45.119,20.407H6.266A1.771,1.771,0,0,1,4.5,18.641h0a1.771,1.771,0,0,1,1.766-1.766H45.119a1.771,1.771,0,0,1,1.766,1.766h0A1.771,1.771,0,0,1,45.119,20.407Z" transform="translate(0 3.846)" fill="#fff"></path><path id="Pfad_36" data-name="Pfad 36" d="M45.119,27.157H6.266A1.771,1.771,0,0,1,4.5,25.391h0a1.771,1.771,0,0,1,1.766-1.766H45.119a1.771,1.771,0,0,1,1.766,1.766h0A1.771,1.771,0,0,1,45.119,27.157Z" transform="translate(0 7.692)" fill="#fff"></path></g></svg> 