<?xml version="1.0" encoding="UTF-8"?> <svg xmlns="http://www.w3.org/2000/svg" width="161.542" height="143.599" viewBox="0 0 161.542 143.599"><path id="ICON_Finanzmanagement" d="M4.489,62.825h8.274A45.014,45.014,0,0,1,23.252,48.1l-5.3-21.175h8.975A26.755,26.755,0,0,1,47.4,36.545a44.481,44.481,0,0,1,6.451-.645h35.9a44.918,44.918,0,0,1,43.977,35.9h12.116a6.739,6.739,0,0,0,6.591-8.077,6.909,6.909,0,0,0-6.871-5.385h-.28a1.688,1.688,0,0,1-1.683-1.683V51.045a1.688,1.688,0,0,1,1.683-1.683c7.993,0,15.117,5.722,16.127,13.631a15.718,15.718,0,0,1-15.566,17.782H134.626a44.694,44.694,0,0,1-17.95,35.7v22.634a4.5,4.5,0,0,1-4.487,4.487H94.238a4.5,4.5,0,0,1-4.487-4.487V125.649h-35.9v13.462a4.5,4.5,0,0,1-4.487,4.487H31.414a4.5,4.5,0,0,1-4.487-4.487V116.478a44.88,44.88,0,0,1-8.779-8.779H4.489A4.5,4.5,0,0,1,0,103.212v-35.9A4.5,4.5,0,0,1,4.489,62.825Zm35.9,17.95A4.487,4.487,0,1,0,35.9,76.287,4.5,4.5,0,0,0,40.389,80.774Zm49.362-53.85h-35.9c-1.515,0-3,.112-4.459.224,0-.084-.028-.14-.028-.224a26.925,26.925,0,1,1,53.85,0c0,.589-.14,1.15-.168,1.739A53.314,53.314,0,0,0,89.751,26.925Z" transform="translate(-0.002)" fill="#fff" opacity="0.3"></path></svg> 