<?xml version="1.0" encoding="UTF-8"?><svg id="Ebene_2" xmlns="http://www.w3.org/2000/svg" viewBox="0 0 178 30.4"><g id="Ebene_1-2"><line x1="1.3" y1="18.4" x2="144.3" y2="18.4" fill="none" stroke="#fff" stroke-width=".6"/><path d="M75.3,18.4c0,1.9-1.5,3.4-3.4,3.4s-3.4-1.5-3.4-3.4,1.5-3.4,3.4-3.4,3.4,1.5,3.4,3.4" fill="#c6c6c6"/><path d="M167.9,18.4c0,1.9-1.5,3.4-3.4,3.4s-3.4-1.5-3.4-3.4,1.5-3.4,3.4-3.4,3.4,1.5,3.4,3.4" fill="#f7a600"/><g isolation="isolate"><g isolation="isolate"><path d="M3.7,1.2H0v-.7h8.2v.7h-3.7v9.9h-.8s0-9.9,0-9.9Z" fill="#fff"/></g></g><g isolation="isolate"><g isolation="isolate"><path d="M11.7,3.3h.7v2.2c.6-1.4,1.9-2.4,3.4-2.3v.8h0c-1.8,0-3.4,1.4-3.4,3.9v3.2h-.7V3.3Z" fill="#fff"/></g><g isolation="isolate"><path d="M18,7.2h0c0-2.3,1.6-4.1,3.7-4.1s3.6,1.8,3.6,4.1,0,.2,0,.3h-6.5c.1,1.9,1.5,3.1,3.1,3.1s2-.5,2.7-1.2l.5.5c-.8.9-1.7,1.5-3.2,1.5s-3.8-1.6-3.8-4.1l-.1-.1ZM24.5,6.9c-.1-1.6-1-3-2.8-3s-2.7,1.3-2.9,3h5.7Z" fill="#fff"/><path d="M28.1,8.1V3.3h.7v4.6c0,1.6.9,2.7,2.5,2.7s2.7-1.2,2.7-2.8V3.3h.7v7.8h-.7v-1.4c-.5.9-1.4,1.6-2.8,1.6s-3.1-1.3-3.1-3.2Z" fill="#fff"/><path d="M38.3,0h.7v4.8c.5-.9,1.4-1.6,2.8-1.6s3.1,1.3,3.1,3.2v4.8h-.7v-4.6c0-1.6-.9-2.7-2.5-2.7s-2.7,1.2-2.7,2.8v4.5h-.7V0Z" fill="#fff"/><path d="M47.8,8.9h0c0-1.6,1.4-2.6,3.4-2.6s1.8.1,2.6.3v-.3c0-1.6-1-2.4-2.6-2.4s-1.7.3-2.4.6l-.3-.7c.9-.4,1.7-.7,2.8-.7s1.9.3,2.5.9c.5.5.8,1.2.8,2.2v4.9h-.7v-1.3c-.5.7-1.5,1.5-3,1.5s-3-.8-3-2.4h-.1ZM53.8,8.2v-.9c-.7-.2-1.5-.4-2.6-.4-1.6,0-2.6.7-2.6,1.8h0c0,1.2,1.1,1.8,2.3,1.8s2.9-1,2.9-2.4v.1Z" fill="#fff"/><path d="M58,3.3h.7v1.5c.5-.9,1.4-1.6,2.8-1.6s3.1,1.3,3.1,3.2v4.8h-.7v-4.6c0-1.6-.9-2.7-2.5-2.7s-2.7,1.2-2.7,2.8v4.5h-.7V3.3Z" fill="#fff"/><path d="M67.6,7.3h0c0-2.6,1.9-4.1,3.8-4.1s2.6.9,3.2,1.9V.1h.7v11.1h-.7v-1.7c-.7,1-1.7,1.9-3.2,1.9s-3.8-1.5-3.8-4v-.1ZM74.6,7.2h0c0-2-1.6-3.4-3.2-3.4s-3.1,1.2-3.1,3.3h0c0,2.1,1.4,3.4,3.1,3.4s3.2-1.4,3.2-3.3Z" fill="#fff"/><path d="M78.4,10.7l5.6-6.7h-5.4v-.7h6.5v.4l-5.6,6.7h5.6v.7h-6.7s0-.4,0-.4Z" fill="#fff"/><path d="M87.4,7.2h0c0-2.3,1.6-4.1,3.7-4.1s3.6,1.8,3.6,4.1,0,.2,0,.3h-6.5c.1,1.9,1.5,3.1,3.1,3.1s2-.5,2.7-1.2l.5.5c-.8.9-1.7,1.5-3.2,1.5s-3.8-1.6-3.8-4.1l-.1-.1ZM93.8,6.9c-.1-1.6-1-3-2.8-3s-2.7,1.3-2.9,3h5.7Z" fill="#fff"/><path d="M97.6,3.3h.7v1.5c.5-.9,1.4-1.6,2.8-1.6s3.1,1.3,3.1,3.2v4.8h-.7v-4.6c0-1.6-.9-2.7-2.5-2.7s-2.7,1.2-2.7,2.8v4.5h-.7V3.3Z" fill="#fff"/><path d="M108.1,9.1V4h-1.1v-.7h1.1V.8h.7v2.5h2.7v.7h-2.7v5c0,1.1.7,1.5,1.6,1.5s.7,0,1.1-.3v.7c-.4.2-.8.3-1.3.3-1.2,0-2.2-.7-2.2-2.1h.1Z" fill="#fff"/></g><g isolation="isolate"><path d="M114.8,3.3h.7v2.2c.6-1.4,1.9-2.4,3.4-2.3v.8h0c-1.8,0-3.4,1.4-3.4,3.9v3.2h-.7V3.3Z" fill="#fff"/></g><g isolation="isolate"><path d="M121.5,8.1V3.3h.7v4.6c0,1.6.9,2.7,2.5,2.7s2.7-1.2,2.7-2.8V3.3h.7v7.8h-.7v-1.4c-.5.9-1.4,1.6-2.8,1.6s-3.1-1.3-3.1-3.2h0Z" fill="#fff"/></g></g><g isolation="isolate"><g isolation="isolate"><path d="M131.8,3.3h.7v1.4c.5-.8,1.2-1.6,2.6-1.6s2.2.8,2.6,1.7c.5-.9,1.3-1.7,2.8-1.7s3,1.3,3,3.2v4.7h-.7v-4.6c0-1.7-.9-2.7-2.3-2.7s-2.5,1-2.5,2.7v4.5h-.7v-4.7c0-1.6-.9-2.6-2.3-2.6s-2.5,1.2-2.5,2.8v4.5h-.7V3.1v.2Z" fill="#fff"/></g></g><polygon points="59.9 29.8 65.4 22.9 60.1 22.9 60.1 22 66.7 22 66.7 22.6 61.2 29.5 66.7 29.5 66.7 30.4 59.9 30.4 59.9 29.8" fill="#fff"/><path d="M68.5,26.9v-4.9h.9v4.8c0,1.8,1,2.8,2.6,2.8s2.5-.9,2.5-2.8v-4.9h.9v4.8c0,2.5-1.4,3.7-3.5,3.7s-3.5-1.3-3.5-3.7" fill="#fff"/><path d="M77.7,22h3.6c1,0,1.9.3,2.4.8.4.4.7,1,.7,1.7h0c0,1.4-1,2.2-2.3,2.5l2.6,3.4h-1.2l-2.4-3.3h-2.4v3.3h-.9v-8.4h-.1ZM81.3,26.3c1.3,0,2.2-.7,2.2-1.7h0c0-1-.8-1.7-2.2-1.7h-2.6v3.4h2.6Z" fill="#fff"/><rect x="86.5" y="22" width=".9" height="8.4" fill="#fff"/><path d="M89.5,26.2h0c0-2.4,1.8-4.4,4.2-4.4s2.4.5,3.3,1.3l-.7.7c-.7-.7-1.5-1.2-2.6-1.2-1.9,0-3.2,1.5-3.2,3.4h0c0,2,1.4,3.5,3.2,3.5s1.9-.4,2.7-1.2l.6.6c-.9.9-1.8,1.5-3.4,1.5-2.4,0-4.2-1.9-4.2-4.3" fill="#fff"/><polygon points="98.8 22 99.7 22 99.7 25.7 104.6 25.7 104.6 22 105.5 22 105.5 30.4 104.6 30.4 104.6 26.6 99.7 26.6 99.7 30.4 98.8 30.4 98.8 22" fill="#fff"/><path d="M178,18.5c0,1.9-1.5,3.4-3.4,3.4s-3.4-1.5-3.4-3.4,1.5-3.4,3.4-3.4,3.4,1.5,3.4,3.4" fill="#0091d2"/><path d="M158,18.4c0,1.9-1.5,3.4-3.4,3.4s-3.4-1.5-3.4-3.4,1.5-3.4,3.4-3.4,3.4,1.5,3.4,3.4" fill="#00569d"/></g></svg>