<svg width="179" height="31" viewBox="0 0 179 31" fill="none" xmlns="http://www.w3.org/2000/svg">
<path d="M2.19922 18.4004H145.199" stroke="#1D1D1B" stroke-width="0.6"/>
<path d="M76.1984 18.4C76.1984 20.3 74.6984 21.8 72.7984 21.8C70.8984 21.8 69.3984 20.3 69.3984 18.4C69.3984 16.5 70.8984 15 72.7984 15C74.6984 15 76.1984 16.5 76.1984 18.4Z" fill="#C6C6C6"/>
<path d="M168.8 18.4C168.8 20.3 167.3 21.8 165.4 21.8C163.5 21.8 162 20.3 162 18.4C162 16.5 163.5 15 165.4 15C167.3 15 168.8 16.5 168.8 18.4Z" fill="#F7A600"/>
<path d="M4.59844 1.2H0.898438V0.5H9.09844V1.2H5.39844V11.1H4.59844V1.2Z" fill="#1D1D1B"/>
<path d="M12.6016 3.30024H13.3016V5.50024C13.9016 4.10024 15.2016 3.10024 16.7016 3.20024V4.00024C14.9016 4.00024 13.3016 5.40025 13.3016 7.90025V11.1002H12.6016V3.30024Z" fill="#1D1D1B"/>
<path d="M18.9023 7.19961C18.9023 4.89961 20.5023 3.09961 22.6023 3.09961C24.7023 3.09961 26.2023 4.89961 26.2023 7.19961C26.2023 9.49961 26.2023 7.39961 26.2023 7.49961H19.7023C19.8023 9.39961 21.2023 10.5996 22.8023 10.5996C24.4023 10.5996 24.8023 10.0996 25.5023 9.39961L26.0023 9.89961C25.2023 10.7996 24.3023 11.3996 22.8023 11.3996C21.3023 11.3996 19.0023 9.79961 19.0023 7.29961L18.9023 7.19961ZM25.4023 6.89961C25.3023 5.29961 24.4023 3.89961 22.6023 3.89961C20.8023 3.89961 19.9023 5.19961 19.7023 6.89961H25.4023Z" fill="#1D1D1B"/>
<path d="M29.0039 8.0998V3.2998H29.7039V7.89981C29.7039 9.49981 30.6039 10.5998 32.2039 10.5998C33.8039 10.5998 34.9039 9.3998 34.9039 7.7998V3.2998H35.6039V11.0998H34.9039V9.69981C34.4039 10.5998 33.5039 11.2998 32.1039 11.2998C30.7039 11.2998 29.0039 9.9998 29.0039 8.0998Z" fill="#1D1D1B"/>
<path d="M39.2031 0H39.9031V4.8C40.4031 3.9 41.3031 3.2 42.7031 3.2C44.1031 3.2 45.8031 4.5 45.8031 6.4V11.2H45.1031V6.6C45.1031 5 44.2031 3.9 42.6031 3.9C41.0031 3.9 39.9031 5.1 39.9031 6.7V11.2H39.2031V0.1V0Z" fill="#1D1D1B"/>
<path d="M48.7031 8.89961C48.7031 7.29961 50.1031 6.29961 52.1031 6.29961C54.1031 6.29961 53.9031 6.39961 54.7031 6.59961V6.29961C54.7031 4.69961 53.7031 3.89961 52.1031 3.89961C50.5031 3.89961 50.4031 4.19961 49.7031 4.49961L49.4031 3.79961C50.3031 3.39961 51.1031 3.09961 52.2031 3.09961C53.3031 3.09961 54.1031 3.39961 54.7031 3.99961C55.2031 4.49961 55.5031 5.19961 55.5031 6.19961V11.0996H54.8031V9.79961C54.3031 10.4996 53.3031 11.2996 51.8031 11.2996C50.3031 11.2996 48.8031 10.4996 48.8031 8.89961H48.7031ZM54.7031 8.19961V7.29961C54.0031 7.09961 53.2031 6.89961 52.1031 6.89961C50.5031 6.89961 49.5031 7.59961 49.5031 8.69961C49.5031 9.89961 50.6031 10.4996 51.8031 10.4996C53.0031 10.4996 54.7031 9.49961 54.7031 8.09961V8.19961Z" fill="#1D1D1B"/>
<path d="M58.9023 3.30019H59.6023V4.80019C60.1023 3.90019 61.0023 3.2002 62.4023 3.2002C63.8023 3.2002 65.5023 4.50019 65.5023 6.40019V11.2002H64.8023V6.60019C64.8023 5.00019 63.9023 3.90019 62.3023 3.90019C60.7023 3.90019 59.6023 5.1002 59.6023 6.7002V11.2002H58.9023V3.40019V3.30019Z" fill="#1D1D1B"/>
<path d="M68.5039 7.29961C68.5039 4.69961 70.4039 3.19961 72.3039 3.19961C74.2039 3.19961 74.9039 4.09961 75.5039 5.09961V0.0996094H76.2039V11.1996H75.5039V9.49961C74.8039 10.4996 73.8039 11.3996 72.3039 11.3996C70.8039 11.3996 68.5039 9.89961 68.5039 7.39961V7.29961ZM75.5039 7.19961C75.5039 5.19961 73.9039 3.79961 72.3039 3.79961C70.7039 3.79961 69.2039 4.99961 69.2039 7.09961C69.2039 9.19961 70.6039 10.4996 72.3039 10.4996C74.0039 10.4996 75.5039 9.09961 75.5039 7.19961Z" fill="#1D1D1B"/>
<path d="M79.3008 10.6998L84.9008 3.99981H79.5008V3.2998H86.0008V3.69981L80.4008 10.3998H86.0008V11.0998H79.3008V10.6998Z" fill="#1D1D1B"/>
<path d="M88.3008 7.19961C88.3008 4.89961 89.9008 3.09961 92.0008 3.09961C94.1008 3.09961 95.6008 4.89961 95.6008 7.19961C95.6008 9.49961 95.6008 7.39961 95.6008 7.49961H89.1008C89.2008 9.39961 90.6008 10.5996 92.2008 10.5996C93.8008 10.5996 94.2008 10.0996 94.9008 9.39961L95.4008 9.89961C94.6008 10.7996 93.7008 11.3996 92.2008 11.3996C90.7008 11.3996 88.4008 9.79961 88.4008 7.29961L88.3008 7.19961ZM94.7008 6.89961C94.6008 5.29961 93.7008 3.89961 91.9008 3.89961C90.1008 3.89961 89.2008 5.19961 89.0008 6.89961H94.7008Z" fill="#1D1D1B"/>
<path d="M98.5039 3.30019H99.2039V4.80019C99.7039 3.90019 100.604 3.2002 102.004 3.2002C103.404 3.2002 105.104 4.50019 105.104 6.40019V11.2002H104.404V6.60019C104.404 5.00019 103.504 3.90019 101.904 3.90019C100.304 3.90019 99.2039 5.1002 99.2039 6.7002V11.2002H98.5039V3.40019V3.30019Z" fill="#1D1D1B"/>
<path d="M109.002 9.0998V3.99981H107.902V3.2998H109.002V0.799805H109.702V3.2998H112.402V3.99981H109.702V8.99981C109.702 10.0998 110.402 10.4998 111.302 10.4998C112.202 10.4998 112.002 10.4998 112.402 10.1998V10.8998C112.002 11.0998 111.602 11.1998 111.102 11.1998C109.902 11.1998 108.902 10.4998 108.902 9.0998H109.002Z" fill="#1D1D1B"/>
<path d="M115.703 3.30024H116.403V5.50024C117.003 4.10024 118.303 3.10024 119.803 3.20024V4.00024C118.003 4.00024 116.403 5.40025 116.403 7.90025V11.1002H115.703V3.30024Z" fill="#1D1D1B"/>
<path d="M122.402 8.0998V3.2998H123.102V7.89981C123.102 9.49981 124.002 10.5998 125.602 10.5998C127.202 10.5998 128.302 9.3998 128.302 7.7998V3.2998H129.002V11.0998H128.302V9.69981C127.802 10.5998 126.902 11.2998 125.502 11.2998C124.102 11.2998 122.402 9.9998 122.402 8.0998Z" fill="#1D1D1B"/>
<path d="M132.699 3.29961H133.399V4.69961C133.899 3.89961 134.599 3.09961 135.999 3.09961C137.399 3.09961 138.199 3.89961 138.599 4.79961C139.099 3.89961 139.899 3.09961 141.399 3.09961C142.899 3.09961 144.399 4.39961 144.399 6.29961V10.9996H143.699V6.39961C143.699 4.69961 142.799 3.69961 141.399 3.69961C139.999 3.69961 138.899 4.69961 138.899 6.39961V10.8996H138.199V6.19961C138.199 4.59961 137.299 3.59961 135.899 3.59961C134.499 3.59961 133.399 4.79961 133.399 6.39961V10.8996H132.699V3.09961V3.29961Z" fill="#1D1D1B"/>
<path d="M60.8008 29.8L66.3008 22.9H61.0008V22H67.6008V22.6L62.1008 29.5H67.6008V30.4H60.8008V29.8Z" fill="#706F6F"/>
<path d="M69.4008 26.9004V22.0004H70.3008V26.8004C70.3008 28.6004 71.3008 29.6004 72.9008 29.6004C74.5008 29.6004 75.4008 28.7004 75.4008 26.8004V21.9004H76.3008V26.7004C76.3008 29.2004 74.9008 30.4004 72.8008 30.4004C70.7008 30.4004 69.3008 29.1004 69.3008 26.7004" fill="#706F6F"/>
<path d="M78.6016 22H82.2016C83.2016 22 84.1016 22.3 84.6016 22.8C85.0016 23.2 85.3016 23.8 85.3016 24.5C85.3016 25.9 84.3016 26.7 83.0016 27L85.6016 30.4H84.4016L82.0016 27.1H79.6016V30.4H78.7016V22H78.6016ZM82.2016 26.3C83.5016 26.3 84.4016 25.6 84.4016 24.6C84.4016 23.6 83.6016 22.9 82.2016 22.9H79.6016V26.3H82.2016Z" fill="#706F6F"/>
<path d="M88.3023 22H87.4023V30.4H88.3023V22Z" fill="#706F6F"/>
<path d="M90.4008 26.1998C90.4008 23.7998 92.2008 21.7998 94.6008 21.7998C97.0008 21.7998 97.0008 22.2998 97.9008 23.0998L97.2008 23.7998C96.5008 23.0998 95.7008 22.5998 94.6008 22.5998C92.7008 22.5998 91.4008 24.0998 91.4008 25.9998C91.4008 27.9998 92.8008 29.4998 94.6008 29.4998C96.4008 29.4998 96.5008 29.0998 97.3008 28.2998L97.9008 28.8998C97.0008 29.7998 96.1008 30.3998 94.5008 30.3998C92.1008 30.3998 90.3008 28.4998 90.3008 26.0998" fill="#706F6F"/>
<path d="M99.6992 22H100.599V25.7H105.499V22H106.399V30.4H105.499V26.6H100.599V30.4H99.6992V22Z" fill="#706F6F"/>
<path d="M178.902 18.4996C178.902 20.3996 177.402 21.8996 175.502 21.8996C173.602 21.8996 172.102 20.3996 172.102 18.4996C172.102 16.5996 173.602 15.0996 175.502 15.0996C177.402 15.0996 178.902 16.5996 178.902 18.4996Z" fill="#0091D2"/>
<path d="M158.902 18.4C158.902 20.3 157.402 21.8 155.502 21.8C153.602 21.8 152.102 20.3 152.102 18.4C152.102 16.5 153.602 15 155.502 15C157.402 15 158.902 16.5 158.902 18.4Z" fill="#00569D"/>
</svg>
