<?xml version="1.0" encoding="UTF-8"?><svg id="Ebene_2" xmlns="http://www.w3.org/2000/svg" viewBox="0 0 600 156.9"><g id="layer"><polygon points="0 40.4 0 44.9 10.5 44.9 10.5 83.8 15.3 83.8 15.3 44.9 25.9 44.9 25.9 40.4 0 40.4" fill="#fff"/><polygon points="73.6 40.4 96.1 40.4 96.1 44.9 78.4 44.9 78.4 57.8 95.6 57.8 95.6 62.3 78.4 62.3 78.4 79.3 96.1 79.3 96.1 83.8 73.6 83.8 73.6 40.4" fill="#fff"/><path d="M41.5,83.8h-4.8v-43.4h6.3c8.2,0,15.9,2.2,15.9,12,0,6.7-4.2,11.4-10.9,12l13.8,19.5h-5.9l-13.1-19.1h-1.3v19ZM41.5,60.5h1.5c5.5,0,11-1,11-7.8,0-7.1-5.2-7.8-11.1-7.8h-1.4v15.6Z" fill="#fff"/><polygon points="182.6 58 182.6 40.4 187.4 40.4 187.4 83.8 182.6 83.8 182.6 62.5 160.4 62.5 160.4 83.8 155.5 83.8 155.5 40.4 160.4 40.4 160.4 58 182.6 58" fill="#fff"/><path d="M114.8,66.3c0,3.2-.1,6.9,1.9,9.7,1.9,2.7,5.6,4.2,8.8,4.2,3.1,0,6.5-1.4,8.5-3.9,2.3-2.8,2.1-6.6,2.1-10v-25.9h4.8v27.2c0,4.7-.3,8.5-3.8,12-3,3.2-7.3,5-11.7,5-4.1,0-8.3-1.6-11.2-4.4-3.8-3.6-4.3-7.6-4.3-12.6v-27.2h4.8v25.9h.1Z" fill="#fff"/><path d="M208.7,71.5l-5.2,12.3h-5.3l20-45.5,19.5,45.5h-5.4l-5.1-12.3h-18.5ZM218.1,49.6l-7.4,17.4h14.7l-7.3-17.4Z" fill="#fff"/><polygon points="248.5 38.6 282.4 74 282.4 40.4 287.2 40.4 287.2 85.8 253.3 50.4 253.3 83.8 248.5 83.8 248.5 38.6" fill="#fff"/><rect x="482.1" y="40.4" width="4.8" height="43.4" fill="#fff"/><polygon points="577.5 40.4 577.5 83.8 600 83.8 600 79.3 582.3 79.3 582.3 62.3 599.5 62.3 599.5 57.8 582.3 57.8 582.3 44.9 600 44.9 600 40.4 577.5 40.4" fill="#fff"/><path d="M559.2,48.9c-1.7-3-3.8-4.7-7.5-4.7-3.9,0-7.2,2.8-7.2,6.7,0,3.7,3.9,5.5,6.8,6.8l2.9,1.3c5.6,2.5,10.4,5.3,10.4,12.2,0,7.6-6.1,13.4-13.7,13.4-7,0-12.2-4.5-13.5-11.2l4.7-1.3c.6,4.4,4,8.1,8.7,8.1s8.9-3.6,8.9-8.5c0-5.1-4-6.8-8-8.6l-2.6-1.2c-5.1-2.3-9.4-4.9-9.4-11.1,0-6.7,5.7-11.1,12.2-11.1,4.8,0,8.9,2.5,11.2,6.7l-3.9001,2.5Z" fill="#fff"/><path d="M521.2,48.9c-1.7-3-3.8-4.7-7.5-4.7-3.9,0-7.2,2.8-7.2,6.7,0,3.7,3.9,5.5,6.8,6.8l2.9,1.3c5.6,2.5,10.4,5.3,10.4,12.2,0,7.6-6.1,13.4-13.7,13.4-7,0-12.2-4.5-13.5-11.2l4.7-1.3c.6,4.4,4,8.1,8.7,8.1s8.9-3.6,8.9-8.5c0-5.1-4-6.8-8-8.6l-2.6-1.2c-5.1-2.3-9.4-4.9-9.4-11.1,0-6.7,5.7-11.1,12.2-11.1,4.8,0,8.9,2.5,11.2,6.7l-3.9001,2.5Z" fill="#fff"/><path d="M301.9,40.4h8.2c6.5,0,11.8.9,16.9,5.2,5,4.3,7.2,10.1,7.2,16.5,0,6.3-2.3,11.9-7.1,16.2-5.2,4.6-10.4,5.5-17.2,5.5h-8.1v-43.4h.1ZM310.3,79.3c5.3,0,9.7-.8,13.7-4.5,3.6-3.3,5.4-7.9,5.4-12.7,0-5-1.9-9.7-5.6-13-4-3.5-8.4-4.2-13.5-4.2h-3.5v34.4h3.5Z" fill="#fff"/><path d="M418.6,48.9c-1.7-3-3.8-4.7-7.5-4.7-3.9,0-7.2,2.8-7.2,6.7,0,3.7,3.9,5.5,6.8,6.8l2.9,1.3c5.6,2.5,10.4,5.3,10.4,12.2,0,7.6-6.1,13.4-13.7,13.4-7,0-12.2-4.5-13.5-11.2l4.7-1.3c.6,4.4,4,8.1,8.7,8.1s8.9-3.6,8.9-8.5c0-5.1-4-6.8-8-8.6l-2.6-1.2c-5.1-2.3-9.4-4.9-9.4-11.1,0-6.7,5.7-11.1,12.1-11.1,4.8,0,8.9,2.5,11.2,6.7l-3.8,2.5Z" fill="#fff"/><path d="M441.6,66.3c0,3.2-.1,6.9,1.9,9.7,1.9,2.7,5.6,4.2,8.8,4.2,3.1,0,6.5-1.4,8.5-3.9,2.3-2.8,2.1-6.6,2.1-10v-25.9h4.8v27.2c0,4.7-.3,8.5-3.8,12-3,3.2-7.3,5-11.7,5-4.1,0-8.3-1.6-11.2-4.4-3.8-3.6-4.3-7.6-4.3-12.6v-27.2h4.8v25.9h.1Z" fill="#fff"/><rect x="364.5" width="4.3" height="122.5" fill="#fff"/><path d="M5,149.9c-.1,4,2.8,5.3,6.4,5.3,2.1,0,5.2-1.1,5.2-4,0-2.2-2.2-3.1-4-3.5l-4.4-1.1c-2.3-.6-4.4-1.7-4.4-4.7,0-1.9,1.2-5.5,6.8-5.5,3.9,0,7.3,2.1,7.3,6.1h-1.9c-.1-3-2.6-4.5-5.4-4.5-2.6,0-4.9,1-4.9,3.9,0,1.8,1.4,2.6,3,3l4.8,1.2c2.8.7,5.1,2,5.1,5.2,0,1.3-.5,5.6-7.5,5.6-4.6,0-8.1-2.1-7.8-6.9h1.7v-.1Z" fill="#fff"/><path d="M32.4,146.6c-.5-2.1-1.8-3.4-4-3.4-3.3,0-5,3-5,6.1,0,3,1.6,6,5,6,2.1,0,3.9-1.7,4.1-4h1.7c-.5,3.4-2.7,5.5-5.9,5.5-4.3,0-6.7-3.4-6.7-7.5s2.4-7.5,6.7-7.5c3,0,5.4,1.6,5.7,4.9h-1.6v-.1Z" fill="#fff"/><path d="M38,136.7h1.7v7.9h.1c.6-1.7,2.5-2.9,4.5-2.9,4,0,5.2,2.1,5.2,5.5v9.1h-1.7v-8.8c0-2.4-.8-4.3-3.6-4.3s-4.4,2.1-4.5,4.9v8.3h-1.7s0-19.7,0-19.7Z" fill="#fff"/><path d="M52.8,142.2h1.8l3.6,12.2h.1l3.5-12.2h2l3.5,12.2h.1l3.6-12.2h1.8l-4.6,14.2h-1.9l-3.5-11.9h-.1l-3.5,11.9h-1.9l-4.5-14.2Z" fill="#fff"/><path d="M76.9,149.7c0,2.5,1.3,5.6,4.7,5.6,2.5,0,3.9-1.5,4.5-3.6h1.7c-.7,3.2-2.6,5.1-6.2,5.1-4.5,0-6.4-3.5-6.4-7.5,0-3.7,1.9-7.5,6.4-7.5,4.6,0,6.4,4,6.2,8h-10.9v-.1ZM86.1,148.3c-.1-2.6-1.7-5.1-4.5-5.1s-4.4,2.5-4.7,5.1h9.2Z" fill="#fff"/><path d="M91.6,136.7h1.7v2.8h-1.7v-2.8ZM91.6,142.2h1.7v14.2h-1.7v-14.2Z" fill="#fff"/><path d="M98.9,154.9h9.8v1.5h-11.9v-1.4l9.3-11.3h-8.6v-1.5h10.8v1.2l-9.4,11.5Z" fill="#fff"/><path d="M113.2,149.7c0,2.5,1.3,5.6,4.7,5.6,2.5,0,3.9-1.5,4.5-3.6h1.7c-.7,3.2-2.6,5.1-6.2,5.1-4.5,0-6.4-3.5-6.4-7.5,0-3.7,1.9-7.5,6.4-7.5,4.6,0,6.4,4,6.2,8h-10.9v-.1ZM122.3,148.3c-.1-2.6-1.7-5.1-4.5-5.1s-4.4,2.5-4.7,5.1h9.2Z" fill="#fff"/><path d="M127.8,142.2h1.6v3.3h.1c.9-2.3,2.8-3.6,5.4-3.5v1.7c-3.1-.2-5.3,2.1-5.3,5.1v7.6h-1.7v-14.2h-.1Z" fill="#fff"/><path d="M137.8,136.7h1.7v2.8h-1.7v-2.8ZM137.8,142.2h1.7v14.2h-1.7v-14.2Z" fill="#fff"/><path d="M152.8,146.3c-.1-2.1-1.7-3.1-3.7-3.1-1.5,0-3.4.6-3.4,2.4,0,1.5,1.8,2.1,2.9,2.4l2.3.5c2,.3,4,1.5,4,3.9,0,3.1-3.1,4.3-5.7,4.3-3.3,0-5.6-1.5-5.8-5h1.7c.1,2.3,1.9,3.5,4.2,3.5,1.6,0,3.9-.7,3.9-2.7,0-1.6-1.5-2.2-3.1-2.6l-2.2-.5c-2.3-.6-4-1.4-4-3.8,0-2.9,2.8-4,5.3-4,2.8,0,5.1,1.5,5.2,4.6h-1.6v.1Z" fill="#fff"/><path d="M168.9,146.6c-.5-2.1-1.8-3.4-4-3.4-3.3,0-5,3-5,6.1,0,3,1.6,6,5,6,2.1,0,3.9-1.7,4.1-4h1.7c-.5,3.4-2.7,5.5-5.9,5.5-4.3,0-6.7-3.4-6.7-7.5s2.4-7.5,6.7-7.5c3,0,5.4,1.6,5.7,4.9h-1.6v-.1Z" fill="#fff"/><path d="M174.5,136.7h1.7v7.9h.1c.6-1.7,2.5-2.9,4.5-2.9,4,0,5.2,2.1,5.2,5.5v9.1h-1.7v-8.8c0-2.4-.8-4.3-3.6-4.3s-4.4,2.1-4.5,4.9v8.3h-1.7v-19.7Z" fill="#fff"/><path d="M191.6,149.7c0,2.5,1.3,5.6,4.7,5.6,2.5,0,3.9-1.5,4.5-3.6h1.7c-.7,3.2-2.6,5.1-6.2,5.1-4.5,0-6.4-3.5-6.4-7.5,0-3.7,1.9-7.5,6.4-7.5,4.6,0,6.4,4,6.2,8h-10.9v-.1ZM200.8,148.3c-.1-2.6-1.7-5.1-4.5-5.1s-4.4,2.5-4.7,5.1h9.2Z" fill="#fff"/><path d="M206.3,142.2h1.6v3.3h.1c.9-2.3,2.8-3.6,5.4-3.5v1.7c-3.1-.2-5.3,2.1-5.3,5.1v7.6h-1.7v-14.2h-.1Z" fill="#fff"/><path d="M223.5,136.7h15.6v1.6h-6.8v18h-1.9v-18h-6.9v-1.6Z" fill="#fff"/><path d="M239.5,142.2h1.6v3.3h.1c.9-2.3,2.8-3.6,5.4-3.5v1.7c-3.1-.2-5.3,2.1-5.3,5.1v7.6h-1.8v-14.2Z" fill="#fff"/><path d="M250,149.7c0,2.5,1.3,5.6,4.7,5.6,2.5,0,3.9-1.5,4.5-3.6h1.7c-.7,3.2-2.6,5.1-6.2,5.1-4.5,0-6.4-3.5-6.4-7.5,0-3.7,1.9-7.5,6.4-7.5,4.6,0,6.4,4,6.2,8h-10.9v-.1ZM259.2,148.3c-.1-2.6-1.7-5.1-4.5-5.1s-4.4,2.5-4.7,5.1h9.2Z" fill="#fff"/><path d="M276.2,156.4h-1.6v-2.6h-.1c-.9,1.9-2.8,3-4.9,3-3.6,0-5-2.1-5-5.4v-9.2h1.7v9.2c.1,2.6,1,3.9,3.8,3.9,3,0,4.3-2.8,4.3-5.7v-7.5h1.7v14.3h.1Z" fill="#fff"/><path d="M280.7,136.7h1.7v7.9h.1c.6-1.7,2.5-2.9,4.5-2.9,4,0,5.2,2.1,5.2,5.5v9.1h-1.7v-8.8c0-2.4-.8-4.3-3.6-4.3s-4.4,2.1-4.5,4.9v8.3h-1.7v-19.7h0Z" fill="#fff"/><path d="M296.7,146.5c.2-3.3,2.5-4.8,5.7-4.8,2.5,0,5.2.8,5.2,4.6v7.5c0,.7.3,1,1,1,.2,0,.4-.1.5-.1v1.5c-.4.1-.7.1-1.1.1-1.8,0-2-1-2-2.5h-.1c-1.2,1.8-2.4,2.9-5.2,2.9-2.6,0-4.8-1.3-4.8-4.2,0-4,3.9-4.1,7.6-4.6,1.4-.2,2.2-.4,2.2-1.9,0-2.3-1.7-2.9-3.7-2.9-2.1,0-3.7,1-3.8,3.3h-1.5v.1ZM306,148.6h0c-.3.4-1,.5-1.5.6-2.9.5-6.6.5-6.6,3.3,0,1.7,1.5,2.8,3.2,2.8,2.6,0,5-1.7,4.9-4.5v-2.2ZM299,139.7v-2.8h1.9v2.8h-1.9ZM303.9,139.7v-2.8h1.9v2.8h-1.9Z" fill="#fff"/><path d="M312.5,142.2h1.7v2.4h.1c.6-1.7,2.5-2.9,4.5-2.9,4,0,5.2,2.1,5.2,5.5v9.1h-1.7v-8.8c0-2.4-.8-4.3-3.6-4.3s-4.4,2.1-4.5,4.9v8.3h-1.7v-14.2Z" fill="#fff"/><path d="M341.1,156.4h-1.6v-2.7h0c-.7,1.8-3,3.1-5.1,3.1-4.3,0-6.4-3.5-6.4-7.5s2.1-7.5,6.4-7.5c2.1,0,4.2,1.1,4.9,3.1h.1v-8.1h1.7v19.6ZM334.4,155.3c3.7,0,5-3.1,5-6s-1.3-6.1-5-6.1c-3.3,0-4.6,3.1-4.6,6.1,0,2.9,1.3,6,4.6,6Z" fill="#fff"/><path d="M346.8,149.7c0,2.5,1.3,5.6,4.7,5.6,2.5,0,3.9-1.5,4.5-3.6h1.7c-.7,3.2-2.6,5.1-6.2,5.1-4.5,0-6.4-3.5-6.4-7.5,0-3.7,1.9-7.5,6.4-7.5,4.6,0,6.4,4,6.2,8h-10.9v-.1ZM356,148.3c-.1-2.6-1.7-5.1-4.5-5.1s-4.4,2.5-4.7,5.1h9.2Z" fill="#fff"/><path d="M361.5,142.2h1.6v3.3h.1c.9-2.3,2.8-3.6,5.4-3.5v1.7c-3.1-.2-5.3,2.1-5.3,5.1v7.6h-1.8v-14.2Z" fill="#fff"/><path d="M369.9,142.2h1.9l4.5,12.5h.1l4.4-12.5h1.8l-5.3,14.2h-1.8l-5.6-14.2Z" fill="#fff"/><path d="M386.6,149.7c0,2.5,1.3,5.6,4.7,5.6,2.5,0,3.9-1.5,4.5-3.6h1.7c-.7,3.2-2.6,5.1-6.2,5.1-4.5,0-6.4-3.5-6.4-7.5,0-3.7,1.9-7.5,6.4-7.5,4.6,0,6.4,4,6.2,8h-10.9v-.1ZM395.8,148.3c-.1-2.6-1.7-5.1-4.5-5.1s-4.4,2.5-4.7,5.1h9.2Z" fill="#fff"/><path d="M401.2,142.2h1.6v3.3h.1c.9-2.3,2.8-3.6,5.4-3.5v1.7c-3.1-.2-5.3,2.1-5.3,5.1v7.6h-1.7v-14.2h-.1Z" fill="#fff"/><path d="M411.2,136.7h1.7v8.1h.1c.7-2,2.8-3.1,4.9-3.1,4.3,0,6.4,3.5,6.4,7.5s-2.1,7.5-6.4,7.5c-2.3,0-4.3-1.2-5.1-3.1h-.1v2.7h-1.6v-19.6h.1ZM417.9,143.2c-3.7,0-5,3.1-5,6.1,0,2.9,1.3,6,5,6,3.3,0,4.6-3.1,4.6-6,.1-3-1.3-6.1-4.6-6.1Z" fill="#fff"/><path d="M428.2,146.5c.2-3.3,2.5-4.8,5.7-4.8,2.5,0,5.2.8,5.2,4.6v7.5c0,.7.3,1,1,1,.2,0,.4-.1.5-.1v1.5c-.4.1-.7.1-1.1.1-1.8,0-2-1-2-2.5h0c-1.2,1.8-2.4,2.9-5.2,2.9-2.6,0-4.8-1.3-4.8-4.2,0-4,3.9-4.1,7.6-4.6,1.4-.2,2.2-.4,2.2-1.9,0-2.3-1.7-2.9-3.7-2.9-2.1,0-3.7,1-3.8,3.3h-1.6v.1ZM437.5,148.6h0c-.3.4-1,.5-1.5.6-2.9.5-6.6.5-6.6,3.3,0,1.7,1.5,2.8,3.2,2.8,2.6,0,5-1.7,4.9-4.5v-2.2Z" fill="#fff"/><path d="M444,142.2h1.7v2.4h.1c.6-1.7,2.5-2.9,4.5-2.9,4,0,5.2,2.1,5.2,5.5v9.1h-1.7v-8.8c0-2.4-.8-4.3-3.6-4.3s-4.4,2.1-4.5,4.9v8.3h-1.7v-14.2Z" fill="#fff"/><path d="M472.7,156.4h-1.6v-2.7h-.1c-.7,1.8-3,3.1-5.1,3.1-4.3,0-6.4-3.5-6.4-7.5s2.1-7.5,6.4-7.5c2.1,0,4.2,1.1,4.9,3.1h.1v-8.1h1.7v19.6h.1ZM466,155.3c3.7,0,5-3.1,5-6s-1.3-6.1-5-6.1c-3.3,0-4.6,3.1-4.6,6.1-.1,2.9,1.3,6,4.6,6Z" fill="#fff"/></g></svg>