<svg xmlns="http://www.w3.org/2000/svg" xmlns:xlink="http://www.w3.org/1999/xlink" id="Layer_1" x="0px" y="0px" width="676px" height="317px" viewBox="0 0 676 317" xml:space="preserve"><g>	<path fill="#9B9B9D" d="M673.999,315.6c0,0.2-69.5,0.4-154.5,0.4h-154.5l-0.199-83.7l0,0l-0.3-83.8l-34.7-0.3l-34.7-0.2l1.5-3.8  c0.8-2,3.3-7.5,5.601-12.2c5.899-12.5,11.299-23.9,15.899-33.7c2.3-4.9,5.8-12.4,7.899-16.8c2.2-4.4,5.801-12,8.101-17  c2.3-4.9,6.2-12.9,8.6-17.7c2.4-4.8,4.3-9,4.3-9.3c-0.1-0.3,1.4-3.8,3.4-7.8c1.9-4,5.5-11.2,7.9-16.2c2.399-5,4.6-10,4.899-11.2  L363.8,0h77h77.1"></path></g><g>	<path fill="#008AC9" d="M128.5,63.3L160.2,0H248.1H336l-3.9,7.8c-4.6,9-20.1,41.2-20.1,41.7S295.4,84.6,293.4,88.5  c-0.899,1.7-5.399,11.1-10.1,21c-11.1,23.5-20.9,43.9-23.9,49.6C258.1,161.7,257,164.3,257,164.9c0,0.8,11.1,1.1,39.5,1.1H336v75  v75H169c-91.9,0-167-0.3-167-0.7c0-0.399,5.1-10.8,11.399-23.2"></path></g></svg>