<svg xmlns="http://www.w3.org/2000/svg" xmlns:xlink="http://www.w3.org/1999/xlink" id="layer" x="0px" y="0px" width="1020px" height="351px" viewBox="434.5 356.5 1020 351" xml:space="preserve"><path fill="#BBDC00" d="M1050.258,572.122l62.613-84.644c3.313-5.136,3.313-11.762,0-16.896c-2.484-3.313-6.791-5.135-13.583-5.135 h-11.761c-5.135,0-10.104,2.484-12.755,6.791l-49.03,66.755l-48.202-65.926c-3.313-5.136-9.276-7.62-16.068-7.62h-9.441 c-5.963,0-10.104,1.656-13.582,5.135c-4.307,5.135-4.307,11.761,0,16.896l62.613,84.644l-69.405,94.749 c-3.313,5.135-3.313,11.761,0.828,16.896c2.485,3.313,6.792,5.135,10.933,5.135h14.411c4.307,0,8.448-2.484,10.933-5.963 l56.65-77.853l56.65,77.024c3.313,4.307,7.619,6.791,12.755,6.791h14.411c5.135,0,10.104-2.484,12.754-7.62 c2.484-5.135,1.656-10.104-0.828-14.41L1050.258,572.122L1050.258,572.122z M1168.693,465.614h-2.485 c-10.932,0-18.552,7.619-18.552,16.896v188.669c0,9.275,7.62,16.896,16.896,16.896h5.964c9.275,0,16.896-7.62,16.896-16.896V482.509 C1188.073,472.405,1179.626,465.614,1168.693,465.614z M1411.362,494.27c-22.031-22.03-49.859-33.791-81.166-33.791 c-32.135,0-59.135,10.932-81.166,33.791c-22.03,22.03-32.963,49.858-32.963,81.994c0,32.135,10.933,60.129,32.963,81.993 c22.031,22.031,49.031,33.792,81.166,33.792s59.135-10.933,81.166-33.792c22.03-22.03,32.963-49.858,32.963-81.993 C1445.153,544.294,1434.221,516.3,1411.362,494.27z M1278.516,522.264c14.411-15.239,31.307-22.031,52.509-22.031 s38.099,6.792,52.51,22.031c14.41,15.239,21.202,32.963,21.202,54.165c0,22.031-6.792,39.755-21.202,54.166 c-14.411,14.411-31.308,22.03-52.51,22.03s-38.098-6.791-51.516-22.03c-14.41-14.411-21.202-32.963-21.202-54.994 C1257.479,554.399,1264.27,537.503,1278.516,522.264z M919.896,584.877c4.307-5.135,6.792-10.933,5.963-17.725 c-1.656-27.993-13.582-52.509-32.963-71.889c-22.03-22.031-49.858-33.792-81.165-33.792c-32.136,0-59.136,10.933-81.166,33.792 c-22.03,22.03-32.963,49.858-32.963,81.993c0,32.136,10.933,60.129,32.963,81.994c22.03,22.03,49.03,33.791,81.166,33.791 c31.307,0,59.135-10.933,81.165-33.791c8.448-8.448,15.239-19.38,20.374-27.994c1.657-3.313,1.657-7.619,0-10.933 c-2.484-3.313-5.963-5.963-10.933-5.963h-14.41c-8.448,0-11.761,1.656-13.583,5.135c-2.485,4.307-5.964,8.448-9.276,11.761 c-14.411,14.411-31.307,22.031-52.509,22.031c-21.203,0-38.099-6.792-51.516-22.031c-10.933-10.933-17.724-24.515-19.381-39.754 h161.503C909.791,592.496,915.755,589.018,919.896,584.877z M812.559,501.061c21.202,0,38.098,6.792,52.509,22.031 c9.276,9.275,15.239,19.38,17.724,30.479H742.325c3.313-10.933,9.276-21.203,17.724-30.479 C774.46,507.853,791.355,501.061,812.559,501.061z M563.927,461.307c-27.994,0-53.338,9.275-73.547,27V385.939 c0-9.276-7.619-16.067-18.552-16.067h-2.484c-10.933,0-18.553,6.791-18.553,16.067v191.153c0,32.135,10.933,60.129,32.964,81.993 c22.03,22.031,49.03,33.792,81.165,33.792c32.136,0,59.136-10.933,81.166-33.792c22.03-22.03,32.963-49.858,32.963-81.993 s-10.933-60.129-32.963-81.994C623.062,472.405,596.062,461.307,563.927,461.307z M563.927,653.288 c-21.203,0-38.099-6.792-51.516-22.031c-14.411-14.411-21.202-32.963-21.202-54.993c0-21.203,6.791-38.927,20.374-54.166 c14.411-14.411,31.307-22.03,52.509-22.03s38.099,6.791,52.51,22.03s21.202,32.963,21.202,54.166 c0,22.03-6.791,39.754-21.202,54.165C602.024,645.668,584.963,653.288,563.927,653.288z M1167.865,373.35 c-15.239,0-27.994,12.754-27.994,27.993s12.755,27.994,27.994,27.994s27.993-12.755,27.993-27.994S1182.938,373.35,1167.865,373.35z "></path></svg>