<svg xmlns="http://www.w3.org/2000/svg" xmlns:xlink="http://www.w3.org/1999/xlink" id="layer" x="0px" y="0px" width="595.279px" height="116.998px" viewBox="0 342.778 595.279 116.998" xml:space="preserve"><polygon fill="#1078BE" points="18.717,382.507 18.717,386.616 28.303,386.616 28.303,422.132 32.686,422.132 32.686,386.616  42.364,386.616 42.364,382.507 "></polygon><polygon fill="#1078BE" points="85.914,382.507 106.456,382.507 106.456,386.616 90.296,386.616 90.296,398.394 106,398.394  106,402.502 90.296,402.502 90.296,418.023 106.456,418.023 106.456,422.132 85.914,422.132 "></polygon><path fill="#1078BE" d="M56.607,422.132h-4.383v-39.625h5.752c7.486,0,14.517,2.009,14.517,10.956 c0,6.118-3.834,10.409-9.951,10.957l12.6,17.804h-5.387l-11.961-17.438h-1.187V422.132z M56.607,400.859h1.369 c5.021,0,10.043-0.913,10.043-7.122c0-6.482-4.747-7.121-10.134-7.121h-1.278V400.859z"></path><polygon fill="#1078BE" points="185.432,398.576 185.432,382.507 189.814,382.507 189.814,422.132 185.432,422.132 185.432,402.685  165.163,402.685 165.163,422.132 160.689,422.132 160.689,382.507 165.163,382.507 165.163,398.576 "></polygon><path fill="#1078BE" d="M123.53,406.154c0,2.922-0.091,6.3,1.735,8.856c1.734,2.465,5.112,3.834,8.034,3.834 c2.83,0,5.935-1.277,7.761-3.561c2.1-2.556,1.917-6.025,1.917-9.13v-23.647h4.383v24.834c0,4.291-0.274,7.76-3.47,10.956 c-2.739,2.921-6.665,4.564-10.683,4.564c-3.743,0-7.577-1.461-10.226-4.018c-3.469-3.286-3.926-6.938-3.926-11.503v-24.834h4.383 v23.647H123.53z"></path><path fill="#1078BE" d="M209.261,410.902l-4.747,11.229h-4.84l18.261-41.542l17.804,41.542h-4.931l-4.656-11.229H209.261z  M217.843,390.907l-6.756,15.886h13.421L217.843,390.907z"></path><polygon fill="#1078BE" points="245.599,380.864 276.55,413.185 276.55,382.507 280.932,382.507 280.932,423.958 249.981,391.638  249.981,422.132 245.599,422.132 "></polygon><rect x="458.877" y="382.507" fill="#1078BE" width="4.382" height="39.625"></rect><polygon fill="#1078BE" points="545.978,382.507 545.978,422.132 566.521,422.132 566.521,418.023 550.36,418.023 550.36,402.502  566.064,402.502 566.064,398.394 550.36,398.394 550.36,386.616 566.521,386.616 566.521,382.507 "></polygon><path fill="#1078BE" d="M529.27,390.268c-1.553-2.739-3.47-4.291-6.848-4.291c-3.561,0-6.573,2.556-6.573,6.117 c0,3.378,3.561,5.021,6.208,6.208l2.647,1.187c5.113,2.282,9.495,4.839,9.495,11.139c0,6.939-5.568,12.234-12.508,12.234 c-6.391,0-11.139-4.108-12.325-10.226l4.291-1.187c0.548,4.017,3.651,7.395,7.943,7.395c4.291,0,8.125-3.286,8.125-7.76 c0-4.656-3.651-6.209-7.304-7.853l-2.374-1.096c-4.656-2.1-8.582-4.474-8.582-10.134c0-6.117,5.204-10.135,11.139-10.135 c4.383,0,8.126,2.283,10.226,6.117L529.27,390.268z"></path><path fill="#1078BE" d="M494.575,390.268c-1.552-2.739-3.47-4.291-6.848-4.291c-3.561,0-6.573,2.556-6.573,6.117 c0,3.378,3.561,5.021,6.208,6.208l2.647,1.187c5.113,2.282,9.496,4.839,9.496,11.139c0,6.939-5.569,12.234-12.509,12.234 c-6.391,0-11.139-4.108-12.325-10.226l4.291-1.187c0.548,4.017,3.652,7.395,7.943,7.395s8.125-3.286,8.125-7.76 c0-4.656-3.651-6.209-7.304-7.853l-2.374-1.096c-4.656-2.1-8.582-4.474-8.582-10.134c0-6.117,5.204-10.135,11.139-10.135 c4.383,0,8.126,2.283,10.226,6.117L494.575,390.268z"></path><path fill="#1078BE" d="M294.354,382.507h7.486c5.935,0,10.773,0.822,15.43,4.748c4.564,3.926,6.573,9.222,6.573,15.064 c0,5.752-2.1,10.865-6.482,14.791c-4.747,4.2-9.495,5.021-15.703,5.021h-7.396v-39.625H294.354z M302.023,418.023 c4.839,0,8.855-0.73,12.508-4.108c3.287-3.013,4.931-7.213,4.931-11.596c0-4.564-1.735-8.856-5.113-11.869 c-3.652-3.196-7.669-3.834-12.325-3.834h-3.195v31.407H302.023L302.023,418.023z"></path><path fill="#1078BE" d="M400.901,390.268c-1.552-2.739-3.469-4.291-6.848-4.291c-3.561,0-6.573,2.556-6.573,6.117 c0,3.378,3.561,5.021,6.208,6.208l2.648,1.187c5.112,2.282,9.495,4.839,9.495,11.139c0,6.939-5.569,12.234-12.509,12.234 c-6.391,0-11.139-4.108-12.325-10.226l4.291-1.187c0.548,4.017,3.652,7.395,7.943,7.395s8.126-3.286,8.126-7.76 c0-4.656-3.652-6.209-7.305-7.853l-2.373-1.096c-4.656-2.1-8.583-4.474-8.583-10.134c0-6.117,5.204-10.135,11.048-10.135 c4.383,0,8.126,2.283,10.226,6.117L400.901,390.268z"></path><path fill="#1078BE" d="M421.9,406.154c0,2.922-0.091,6.3,1.735,8.856c1.734,2.465,5.112,3.834,8.034,3.834 c2.83,0,5.935-1.277,7.761-3.561c2.1-2.556,1.917-6.025,1.917-9.13v-23.647h4.383v24.834c0,4.291-0.274,7.76-3.47,10.956 c-2.739,2.921-6.665,4.564-10.682,4.564c-3.744,0-7.578-1.461-10.227-4.018c-3.469-3.286-3.926-6.938-3.926-11.503v-24.834h4.383 v23.647H421.9z"></path><rect x="351.507" y="345.622" fill="#1078BE" width="3.926" height="111.843"></rect></svg>