<?xml version="1.0" encoding="UTF-8"?>
<svg xmlns="http://www.w3.org/2000/svg" id="Ebene_1" data-name="Ebene 1" viewBox="0 0 1747.84 177.75">
  <defs>
    <style>
      .cls-1 {
        fill: #2b2e34;
      }

      .cls-2 {
        isolation: isolate;
      }

      .cls-3 {
        fill: #1b64a5;
      }
    </style>
  </defs>
  <g class="cls-2">
    <path class="cls-3" d="M144.514,177.75c-.444-39.03-32.206-70.538-71.34-70.538S2.279,138.72,1.835,177.75h31.46c.444-21.662,18.11-39.099,39.879-39.099s39.435,17.437,39.879,39.099h31.46Z"></path>
  </g>
  <g>
    <rect class="cls-3" x="31.522" y="-2.886" width="34.478" height="103.435" transform="translate(-20.247 48.781) rotate(-45)"></rect>
    <rect class="cls-3" x="45.875" y="31.519" width="103.435" height="34.478" transform="translate(-5.893 83.289) rotate(-45)"></rect>
  </g>
  <g class="cls-2">
    <path class="cls-1" d="M1718.751,70.117h-13.148v82.173h13.148v-82.173ZM1718.751,107.095c0-6.246,1.422-11.178,4.272-14.79,2.849-3.617,6.492-6.221,10.928-7.807,4.44-1.586,9.066-2.384,13.889-2.384v-12.325c-5.914,0-11.531,1.341-16.847,4.026-5.315,2.686-9.669,6.794-13.066,12.325-3.397,5.535-5.095,12.738-5.095,21.61l5.919-.655ZM1626.995,91.727c2.466-3.781,5.699-6.708,9.699-8.794,3.996-2.078,8.242-3.121,12.734-3.121,4.604,0,8.656,1.043,12.165,3.121,3.505,2.086,6.298,5.044,8.38,8.876,2.078,3.837,3.121,8.385,3.121,13.644l3.453-2.798h-56.7l3.453,2.63c0-5.259,1.233-9.777,3.695-13.557M1665.456,151.63c4.656-1.75,8.708-4.216,12.161-7.393,3.449-3.177,6.216-6.902,8.298-11.178l-11.342-5.751c-2.19,4.496-5.285,8.109-9.285,10.846-4.001,2.742-8.902,4.108-14.708,4.108-5.479,0-10.355-1.233-14.626-3.694-4.272-2.466-7.587-6.052-9.941-10.768-2.358-4.707-3.535-10.35-3.535-16.924l-3.289,2.793h67.878c0-9.204-1.535-17.2-4.604-23.994-3.065-6.794-7.393-12.083-12.98-15.859-5.591-3.781-12.221-5.673-19.886-5.673-7.889,0-14.876,1.836-20.955,5.505-6.083,3.673-10.85,8.742-14.299,15.204-3.453,6.466-5.177,13.915-5.177,22.352s1.724,15.885,5.177,22.352c3.449,6.466,8.242,11.531,14.381,15.2,6.134,3.673,13.2,5.505,21.201,5.505,5.695,0,10.872-.875,15.532-2.63M1590.987,110.216v-3.944c.108-9.091-1.177-16.433-3.858-22.024-2.69-5.587-6.44-9.665-11.26-12.243-4.824-2.574-10.411-3.862-16.765-3.862-6.794,0-12.6,1.647-17.42,4.932-4.824,3.289-8.518,8.053-11.092,14.299-2.578,6.246-3.862,13.695-3.862,22.352h6.41c0-9.311,1.996-16.519,5.996-21.614,4-5.091,9.613-7.639,16.847-7.639,4.164,0,7.889.793,11.174,2.38,3.289,1.591,5.889,4.522,7.807,8.794s2.88,10.467,2.88,18.571h13.144ZM1590.987,110.216h-13.148v42.073h13.148v-42.073ZM1533.14,37.247h-13.148v115.043h13.148V37.247ZM1488.308,148.345c6.246-3.944,11.01-9.423,14.299-16.433l-11.997-5.427c-2.194,4.932-5.402,8.768-9.618,11.506-4.216,2.742-9.014,4.108-14.381,4.108s-10.161-1.315-14.376-3.944c-4.22-2.63-7.51-6.268-9.863-10.928-2.358-4.656-3.535-9.997-3.535-16.023s1.177-11.368,3.535-16.023c2.354-4.656,5.587-8.303,9.695-10.932,4.112-2.63,8.85-3.944,14.217-3.944s10.135,1.233,14.299,3.699,7.341,5.893,9.531,10.273l11.997-5.423c-3.285-6.574-8.053-11.669-14.295-15.286-6.246-3.612-13.316-5.423-21.205-5.423-7.996,0-15.118,1.836-21.364,5.505-6.242,3.673-11.092,8.742-14.545,15.204-3.449,6.466-5.177,13.915-5.177,22.352s1.755,15.885,5.259,22.352c3.505,6.466,8.385,11.531,14.626,15.2,6.246,3.673,13.424,5.505,21.533,5.505,7.997,0,15.118-1.97,21.364-5.914M1392.578,144.318c5.035-6.63,7.557-15.532,7.557-26.705h-5.587c0,5.151-.961,9.613-2.875,13.394-1.918,3.781-4.63,6.682-8.134,8.708-3.509,2.03-7.617,3.043-12.329,3.043-5.695,0-10.135-1.233-13.312-3.699-3.177-2.466-4.763-5.833-4.763-10.109,0-4.707,1.612-8.324,4.845-10.846,3.233-2.518,8.682-3.781,16.355-3.781h20.541v-11.01h-23.498c-9.971,0-17.726,2.22-23.257,6.656-5.535,4.436-8.298,10.82-8.298,19.144,0,7.889,2.712,14.053,8.135,18.489,5.423,4.44,12.954,6.656,22.597,6.656s16.98-3.311,22.024-9.941M1407.368,152.289l.164-44.539c.108-8.652-1.095-15.911-3.617-21.774-2.522-5.863-6.272-10.299-11.255-13.312-4.988-3.013-11.316-4.522-18.985-4.522-5.039,0-9.531.741-13.476,2.22-3.944,1.479-7.393,3.617-10.354,6.41-2.957,2.793-5.479,6.108-7.557,9.941l11.833,4.604c2.078-3.944,4.737-6.82,7.971-8.63,3.229-1.806,7.091-2.712,11.583-2.712,4.932,0,8.932,1.099,11.997,3.289,3.069,2.19,5.315,5.397,6.738,9.613,1.427,4.22,2.138,9.561,2.138,16.023v29.913l.66,13.476h12.161ZM1216.266,152.289v-42.565c0-9.311,1.806-16.519,5.423-21.614,3.617-5.091,8.6-7.639,14.954-7.639,3.724,0,7.04.793,9.945,2.38,2.901,1.591,5.203,4.522,6.902,8.794s2.548,10.467,2.548,18.571v42.073h13.148v-42.565c0-9.311,1.806-16.519,5.423-21.614,3.617-5.091,8.656-7.639,15.118-7.639,3.724,0,7.014.793,9.863,2.38,2.849,1.591,5.121,4.522,6.82,8.794,1.698,4.272,2.548,10.467,2.548,18.571v42.073h13.148v-47.005c.108-12.488-2.491-21.8-7.807-27.938-5.315-6.134-12.57-9.204-21.774-9.204-6.139,0-11.423,1.591-15.859,4.768-4.44,3.177-7.807,7.781-10.109,13.803-2.082-6.242-5.453-10.898-10.109-13.967-4.656-3.065-10.268-4.604-16.847-4.604-5.255,0-9.859,1.151-13.803,3.453-3.944,2.302-7.178,5.643-9.695,10.023l-.66-11.501h-12.324v82.173h13.148ZM1180.374,110.216v-3.944c.108-9.091-1.181-16.433-3.863-22.024-2.686-5.587-6.44-9.665-11.26-12.243-4.824-2.574-10.411-3.862-16.765-3.862-6.794,0-12.6,1.647-17.42,4.932-4.824,3.289-8.518,8.053-11.092,14.299-2.578,6.246-3.863,13.695-3.863,22.352h6.41c0-9.311,1.996-16.519,5.996-21.614,4-5.091,9.617-7.639,16.847-7.639,4.164,0,7.889.793,11.174,2.38,3.289,1.591,5.889,4.522,7.807,8.794,1.918,4.272,2.88,10.467,2.88,18.571h13.148ZM1180.374,110.216h-13.148v42.073h13.148v-42.073ZM1122.523,37.247h-13.148v115.043h13.148V37.247ZM1014.365,112.19v3.944c0,8.984,1.315,16.295,3.944,21.938,2.63,5.647,6.354,9.755,11.178,12.329,4.819,2.569,10.406,3.858,16.76,3.858,6.902,0,12.739-1.642,17.506-4.927,4.764-3.289,8.406-8.053,10.928-14.299,2.517-6.246,3.781-13.695,3.781-22.352h-6.41c0,9.204-2,16.381-6.001,21.528-4,5.151-9.561,7.725-16.678,7.725-4.169,0-7.919-.793-11.26-2.384-3.341-1.586-5.945-4.518-7.807-8.79-1.862-4.276-2.793-10.462-2.793-18.571h-13.148ZM1027.513,70.117h-13.148v42.073h13.148v-42.073ZM1085.2,152.289v-82.173h-13.148v67.055l.819,15.118h12.329ZM993.492,110.216v-3.944c.108-9.091-1.177-16.433-3.858-22.024-2.69-5.587-6.44-9.665-11.26-12.243-4.824-2.574-10.411-3.862-16.765-3.862-6.794,0-12.6,1.647-17.42,4.932-4.824,3.289-8.518,8.053-11.092,14.299-2.578,6.246-3.862,13.695-3.862,22.352h6.41c0-9.311,1.996-16.519,5.996-21.614,4.001-5.091,9.613-7.639,16.847-7.639,4.164,0,7.889.793,11.174,2.38,3.289,1.591,5.889,4.522,7.807,8.794s2.875,10.467,2.875,18.571h13.148ZM993.492,110.216h-13.148v42.073h13.148v-42.073ZM935.645,37.247h-13.148v115.043h13.148V37.247ZM890.813,148.345c6.246-3.944,11.01-9.423,14.299-16.433l-11.997-5.427c-2.194,4.932-5.402,8.768-9.617,11.506-4.216,2.742-9.014,4.108-14.381,4.108s-10.161-1.315-14.377-3.944c-4.22-2.63-7.509-6.268-9.863-10.928-2.358-4.656-3.535-9.997-3.535-16.023s1.177-11.368,3.535-16.023c2.354-4.656,5.587-8.303,9.695-10.932,4.108-2.63,8.85-3.944,14.217-3.944s10.135,1.233,14.299,3.699c4.164,2.466,7.337,5.893,9.531,10.273l11.997-5.423c-3.285-6.574-8.053-11.669-14.299-15.286-6.242-3.612-13.312-5.423-21.201-5.423-7.997,0-15.118,1.836-21.364,5.505-6.246,3.673-11.092,8.742-14.545,15.204-3.449,6.466-5.177,13.915-5.177,22.352s1.754,15.885,5.259,22.352c3.505,6.466,8.385,11.531,14.627,15.2,6.246,3.673,13.419,5.505,21.533,5.505,7.996,0,15.118-1.97,21.364-5.914M793.617,149.905c5.971-2.901,10.493-6.846,13.558-11.833,3.069-4.983,4.604-10.488,4.604-16.515,0-7.014-2.987-13.562-8.958-19.64-5.97-6.083-14.545-10.436-25.718-13.066l-12.657-3.121c-5.479-1.315-9.919-3.371-13.312-6.164-3.397-2.793-5.095-6.82-5.095-12.079,0-6.134,2.164-10.984,6.492-14.545,4.328-3.561,10.161-5.341,17.502-5.341,7.014,0,12.984,1.56,17.916,4.682,4.932,3.125,8.436,7.423,10.518,12.902l13.148-4.6c-1.427-4.384-3.863-8.466-7.315-12.247-3.449-3.781-7.915-6.902-13.394-9.367s-11.997-3.699-19.558-3.699c-12.708,0-22.433,2.936-29.171,8.794-6.738,5.863-10.105,13.997-10.105,24.408,0,5.587,1.285,10.38,3.858,14.377,2.574,4.005,6.027,7.29,10.355,9.863,4.328,2.574,9.066,4.518,14.217,5.833l12.657,3.289c7.337,1.862,13.256,4.466,17.748,7.807s6.738,7.699,6.738,13.066c0,5.807-2.522,10.462-7.561,13.967-5.039,3.509-11.997,5.259-20.869,5.259-7.233,0-13.342-1.78-18.325-5.341-4.988-3.561-8.298-7.751-9.945-12.57l-13.312,4.6c1.095,3.397,2.793,6.604,5.095,9.613,2.302,3.018,5.259,5.755,8.876,8.221,3.612,2.461,7.889,4.38,12.816,5.751,4.932,1.367,10.574,2.052,16.929,2.052,8.876,0,16.299-1.453,22.27-4.354M651.05,70.117h-13.148v82.173h13.148v-82.173ZM651.05,107.095c0-6.246,1.423-11.178,4.272-14.79,2.845-3.617,6.492-6.221,10.928-7.807,4.436-1.586,9.066-2.384,13.889-2.384v-12.325c-5.919,0-11.536,1.341-16.847,4.026-5.315,2.686-9.674,6.794-13.066,12.325-3.397,5.535-5.095,12.738-5.095,21.61l5.919-.655ZM559.294,91.727c2.466-3.781,5.695-6.708,9.695-8.794,4-2.078,8.247-3.121,12.738-3.121,4.604,0,8.656,1.043,12.161,3.121,3.505,2.086,6.302,5.044,8.385,8.876,2.078,3.837,3.121,8.385,3.121,13.644l3.453-2.798h-56.7l3.449,2.63c0-5.259,1.233-9.777,3.699-13.557M597.751,151.63c4.656-1.75,8.712-4.216,12.161-7.393,3.453-3.177,6.221-6.902,8.303-11.178l-11.342-5.751c-2.194,4.496-5.285,8.109-9.286,10.846-4,2.742-8.902,4.108-14.708,4.108-5.479,0-10.355-1.233-14.627-3.694-4.272-2.466-7.587-6.052-9.945-10.768-2.358-4.707-3.531-10.35-3.531-16.924l-3.289,2.793h67.878c0-9.204-1.539-17.2-4.604-23.994-3.069-6.794-7.397-12.083-12.984-15.859-5.587-3.781-12.217-5.673-19.886-5.673-7.889,0-14.872,1.836-20.955,5.505-6.078,3.673-10.846,8.742-14.299,15.204-3.449,6.466-5.173,13.915-5.173,22.352s1.724,15.885,5.173,22.352c3.453,6.466,8.247,11.531,14.381,15.2,6.134,3.673,13.204,5.505,21.201,5.505,5.699,0,10.876-.875,15.532-2.63M521.713,37.247h-13.148v115.043h13.148V37.247ZM484.506,37.247h-13.148v115.043h13.148V37.247ZM398.044,48.093c1.53-1.535,2.298-3.393,2.298-5.587s-.767-4.052-2.298-5.587c-1.539-1.535-3.401-2.302-5.591-2.302-2.082,0-3.919.767-5.505,2.302-1.591,1.535-2.384,3.397-2.384,5.587s.793,4.052,2.384,5.587c1.586,1.535,3.423,2.302,5.505,2.302,2.19,0,4.052-.767,5.591-2.302M438.635,48.011c1.535-1.586,2.302-3.423,2.302-5.505,0-2.19-.767-4.052-2.302-5.587s-3.397-2.302-5.587-2.302-4.052.767-5.587,2.302c-1.535,1.535-2.302,3.397-2.302,5.587,0,2.082.767,3.919,2.302,5.505,1.535,1.591,3.393,2.384,5.587,2.384s4.052-.793,5.587-2.384M376.348,112.19v3.944c0,8.984,1.315,16.295,3.944,21.938,2.63,5.647,6.354,9.755,11.178,12.329,4.819,2.569,10.406,3.858,16.76,3.858,6.906,0,12.738-1.642,17.506-4.927,4.763-3.289,8.406-8.053,10.928-14.299,2.518-6.246,3.781-13.695,3.781-22.352h-6.41c0,9.204-2,16.381-6.001,21.528-4,5.151-9.557,7.725-16.679,7.725-4.169,0-7.919-.793-11.26-2.384-3.341-1.586-5.945-4.518-7.807-8.79-1.862-4.276-2.793-10.462-2.793-18.571h-13.148ZM389.496,70.117h-13.148v42.073h13.148v-42.073ZM447.183,152.289v-82.173h-13.148v67.055l.819,15.118h12.329ZM255.818,152.289V59.926l40.263,59.657,40.267-59.985v92.691h13.803V37.247h-14.295l-39.776,58.834-39.772-58.834h-14.463v115.043h13.971Z"></path>
  </g>
</svg>
