<?xml version="1.0" encoding="utf-8"?>
<!-- Generator: Adobe Illustrator 27.2.0, SVG Export Plug-In . SVG Version: 6.00 Build 0)  -->
<svg version="1.1" id="Ebene_1" xmlns="http://www.w3.org/2000/svg" xmlns:xlink="http://www.w3.org/1999/xlink" x="0px" y="0px"
	 viewBox="0 0 2084.3 574.9" style="enable-background:new 0 0 2084.3 574.9;" xml:space="preserve">
<style type="text/css">
	.st0{fill:#2766A7;}
</style>
<g>
	<path class="st0" d="M197.9,349.8h78.2v225.1c-26.6,0-52.9-3.8-78.2-11.2l0,0L197.9,349.8z"/>
	<path class="st0" d="M403.1,53.6l-40.6,68.2c-26.7-13.1-56.1-19.9-86.3-19.9c-108.6,0-196.9,88.4-196.9,197
		c0,43.3,13.8,84.4,39.9,118.9c11,14.5,24,27.4,38.5,38.3v92.2c-39.7-19-74.8-47.4-101.5-82.6C19.4,417.2,0,359.6,0,298.8
		C0,146.6,123.9,22.7,276.1,22.7C320.7,22.7,364,33.3,403.1,53.6z"/>
	<path class="st0" d="M316.5,572C316.5,571.9,316.5,571.9,316.5,572c27.2-4,53.4-12,78.2-23.8V271h-78.2V572z"/>
	<path class="st0" d="M474.1,0l-42.2,70.8L391.2,139l-8.6,14.4H435v371.2c0.2-0.2,0.4-0.3,0.7-0.5c18.4-13,35.3-28.5,50-45.6
		c0.1-0.1,0.2-0.2,0.2-0.3c2.7-3.2,5.4-6.4,8-9.8c18.6-25.9,19.3-53,19.3-71.6V153.4h52.4L474.1,0z"/>
</g>
<g>
	<path class="st0" d="M816,363.1h-2.4c-6.2,0-11.4-0.1-15.6-0.4c-4.2-0.3-7.9-0.9-10.9-1.9c-3.1-1-5.7-2.5-7.9-4.5s-4.4-4.8-6.7-8.3
		l-15.1-24l-6.8,5.1v13.8c0,2.4,0.4,4.4,1.2,5.8s1.8,2.6,3,3.3c1.2,0.8,2.5,1.3,4,1.5c1.4,0.2,2.8,0.4,4,0.4h2v9.1h-54.2v-9h2
		c1.3,0,2.6-0.1,4-0.4c1.4-0.2,2.7-0.8,3.9-1.5c1.2-0.8,2.2-1.9,3-3.3s1.2-3.4,1.2-5.8v-90c0-2.3-0.4-4.1-1.2-5.4
		c-0.8-1.4-1.8-2.4-3-3.2c-1.2-0.7-2.5-1.2-4-1.5c-1.4-0.2-2.7-0.3-4-0.3h-2v-9h40v65.7c0,1.6,0,3.3-0.1,5.4c-0.1,2-0.2,4-0.3,5.8
		c-0.2,2.2-0.3,4.4-0.4,6.6l21.5-24c1.9-2.1,3.1-3.8,3.7-5s0.9-2.3,0.9-3.1c0-1.4-0.8-2.6-2.3-3.4s-3.7-1.2-6.5-1.2v-8.6h42.9v8.6
		c-3.9,0-7.8,1.2-11.6,3.5s-7.9,6-12.4,11L775.1,307l22.6,33.8c3,4.5,6,7.8,9.1,10c3,2.2,5.9,3.2,8.7,3.2h0.6L816,363.1L816,363.1z"
		/>
	<path class="st0" d="M891.7,363.1V307c0-3.7-0.2-6.9-0.7-9.8s-1.2-5.3-2.3-7.2c-1.1-1.9-2.5-3.4-4.2-4.5c-1.7-1-3.9-1.5-6.4-1.5
		c-2.8,0-5.2,0.7-7.1,2.2c-1.9,1.4-3.4,3.4-4.5,5.8s-2,5.2-2.5,8.4c-0.5,3.2-0.7,6.5-0.7,10v32.5c0,2.4,0.3,4.3,0.9,5.7
		c0.6,1.4,1.4,2.6,2.5,3.4s2.3,1.3,3.9,1.6c1.5,0.2,3.2,0.4,5.1,0.4h0.5v9.1h-52.3V354h0.3c1.9,0,3.7-0.1,5.3-0.4
		c1.6-0.2,3-0.8,4.2-1.6c1.2-0.8,2.1-2,2.8-3.6s1-3.6,1-6.2v-50.9c0-2.4-0.3-4.3-0.9-5.7c-0.6-1.4-1.4-2.6-2.5-3.4s-2.4-1.3-3.9-1.6
		c-1.5-0.2-3.2-0.4-5.1-0.4h-0.5v-8.6h35.8l2.2,12.1h0.8c1.7-3.2,3.5-5.8,5.5-7.7c1.9-1.9,4-3.3,6.1-4.3s4.5-1.6,6.9-1.9
		s5-0.4,7.6-0.4c6.3,0,11.6,1.1,16.1,3.4c4.4,2.2,7.7,5.9,9.7,10.9h1.5c1.7-3.2,3.6-5.8,5.6-7.7c2-1.9,4.2-3.3,6.5-4.3
		s4.7-1.6,7.2-1.9s5.1-0.4,7.8-0.4c4.4,0,8.3,0.6,11.8,1.9s6.4,3.2,8.9,5.9c2.4,2.7,4.3,6.1,5.5,10.2c1.3,4.1,1.9,9.1,1.9,14.9v39.5
		c0,2.7,0.2,4.8,0.7,6.4s1.2,2.8,2.1,3.6c0.9,0.8,2.1,1.4,3.6,1.7c1.4,0.3,3.1,0.4,5,0.4h0.5v9.1H946v-56c0-7.3-1-13-3-17
		s-5.5-6-10.5-6c-2.7,0-4.9,0.7-6.8,2c-1.9,1.3-3.4,3.1-4.6,5.3c-1.2,2.2-2.1,4.8-2.6,7.8c-0.6,3-0.8,6.1-0.8,9.4V342
		c0,2.7,0.2,4.8,0.7,6.4s1.2,2.8,2.1,3.6c0.9,0.8,2.1,1.4,3.6,1.7c1.4,0.3,3.1,0.4,5.1,0.4h0.5v9.1L891.7,363.1L891.7,363.1z"/>
	<path class="st0" d="M1068,363.1l-3.7-12.1h-0.8c-1.7,2.9-3.6,5.3-5.6,7.1c-2,1.8-4.1,3.2-6.4,4.2s-4.7,1.6-7.2,2
		c-2.5,0.3-5.1,0.5-7.8,0.5c-8.9,0-15.7-2.7-20.4-8.2s-7.1-14-7.1-25.5v-38.2c0-2.5-0.2-4.5-0.7-6.1c-0.4-1.6-1.1-2.8-2.1-3.7
		c-0.9-0.9-2.2-1.5-3.6-1.8c-1.5-0.3-3.2-0.5-5.3-0.5H997v-9.1h37.9v54.6c0,3.7,0.2,7,0.6,9.9s1.1,5.5,2.1,7.5s2.3,3.7,4,4.8
		s3.7,1.7,6.2,1.7c2.7,0,5.1-0.6,7-1.8c2-1.2,3.6-2.9,4.8-5.2s2.2-5,2.7-8.2c0.6-3.2,0.9-6.8,0.9-10.8v-32.7c0-2.5-0.3-4.5-1-5.9
		s-1.6-2.5-2.7-3.3s-2.4-1.2-3.9-1.4c-1.5-0.2-3.1-0.3-4.7-0.3h-0.5v-9.1h38.7v71.6c0,2.5,0.3,4.5,0.9,5.9s1.4,2.5,2.4,3.2
		s2.2,1.2,3.6,1.4c1.4,0.2,2.9,0.3,4.6,0.3h1.4v9.1h-34V363.1z"/>
	<path class="st0" d="M1171.1,343.7c0,2.7,0.4,4.8,1.1,6.4s1.7,2.8,3,3.7c1.2,0.9,2.7,1.4,4.5,1.7c1.7,0.3,3.5,0.4,5.4,0.4h3.9v7.2
		h-53v-7.2h3.9c1.9,0,3.7-0.1,5.4-0.4c1.7-0.2,3.2-0.8,4.5-1.5c1.3-0.8,2.3-1.9,3-3.5c0.7-1.5,1.1-3.5,1.1-6v-94.6h-16.3
		c-2.5,0-4.6,0.4-6.3,1.1c-1.7,0.7-3.1,1.8-4.2,3c-1.1,1.3-1.9,2.8-2.4,4.5s-0.9,3.5-1.1,5.4l-0.9,7.3h-8.8l0.8-29.8h95.9l0.8,29.8
		h-8.8l-0.8-7.3c-0.2-1.9-0.6-3.7-1.2-5.4c-0.6-1.7-1.4-3.2-2.4-4.5c-1.1-1.3-2.4-2.3-4.2-3c-1.7-0.7-3.9-1.1-6.4-1.1H1171
		L1171.1,343.7L1171.1,343.7z"/>
	<path class="st0" d="M1313.6,342.3c2.9,4.5,5.7,8,8.4,10.2c2.7,2.3,5.9,3.4,9.5,3.4h0.5v7.2h-2.4c-5.3,0-9.7-0.2-13.1-0.6
		s-6.3-1.1-8.7-2.2c-2.4-1.1-4.4-2.7-6.1-4.7s-3.5-4.6-5.5-7.8l-23-38.4H1259v35.1c0,2.5,0.4,4.5,1.1,6s1.8,2.7,3,3.5
		c1.3,0.8,2.8,1.3,4.5,1.5s3.5,0.4,5.4,0.4h2.2v7.2h-49.6v-7.2h2.2c1.9,0,3.7-0.1,5.4-0.4c1.7-0.2,3.2-0.8,4.5-1.5
		c1.3-0.8,2.3-1.9,3-3.5c0.7-1.5,1.1-3.5,1.1-6v-84.4c0-2.5-0.4-4.5-1.1-6s-1.8-2.7-3-3.5c-1.3-0.8-2.8-1.4-4.5-1.6
		c-1.7-0.2-3.5-0.4-5.4-0.4h-2.2v-7.2h45.8c14.8,0,25.7,2.7,33,8.2c7.2,5.5,10.8,13.7,10.8,24.7c0,4.5-0.7,8.5-2.2,11.9
		s-3.4,6.4-5.8,8.9s-5.1,4.6-8.1,6.2c-3,1.7-6,3-9,4L1313.6,342.3z M1259,301.4h12c5,0,9.2-0.6,12.5-1.7s6-2.8,8-5s3.4-5,4.3-8.3
		s1.3-7.2,1.3-11.6c0-4.5-0.5-8.4-1.4-11.6s-2.5-5.8-4.6-7.8s-4.8-3.5-8.2-4.4c-3.4-0.9-7.4-1.4-12.3-1.4H1259V301.4z"/>
	<path class="st0" d="M1375,354.6h32.9c2.7,0,5-0.4,6.9-1.1s3.5-1.8,4.8-3c1.3-1.3,2.3-2.8,3-4.5s1.2-3.5,1.5-5.4l1.2-7.3h8.9
		l-1.2,29.8h-91.4v-7.2h2.2c1.9,0,3.7-0.1,5.4-0.4c1.7-0.2,3.2-0.8,4.5-1.5c1.3-0.8,2.3-1.9,3-3.5c0.7-1.5,1.1-3.5,1.1-6v-83.7
		c0-2.7-0.4-4.8-1.1-6.4c-0.7-1.6-1.7-2.8-3-3.7s-2.8-1.4-4.5-1.7s-3.5-0.4-5.4-0.4h-2.2v-7.2h85.9l0.8,29.8h-8.8l-0.8-7.3
		c-0.2-1.9-0.7-3.7-1.3-5.4c-0.6-1.7-1.6-3.2-2.7-4.5c-1.2-1.3-2.7-2.3-4.5-3s-4-1.1-6.5-1.1H1375v45.3h41.1v8.3H1375V354.6z"/>
	<path class="st0" d="M1507.3,364.7c-6.7,0-12.7-0.7-18.1-2.1c-5.3-1.4-9.8-3.7-13.5-6.7c-3.7-3.1-6.5-7-8.4-11.9
		s-2.9-10.7-2.9-17.7v-66.2c0-2.5-0.4-4.5-1.1-6s-1.8-2.7-3-3.5c-1.3-0.8-2.8-1.4-4.5-1.6c-1.7-0.2-3.5-0.4-5.4-0.4h-2.2v-7.2h49.6
		v7.2h-2.2c-1.9,0-3.7,0.1-5.4,0.4c-1.7,0.3-3.2,0.8-4.5,1.7c-1.2,0.9-2.2,2.1-3,3.7c-0.7,1.6-1.1,3.7-1.1,6.4v66.5
		c0,4.9,0.7,9.1,2.1,12.6s3.4,6.3,5.9,8.4c2.5,2.2,5.5,3.7,9,4.7s7.3,1.5,11.4,1.5c4.9,0,9.2-0.7,12.8-2c3.6-1.3,6.5-3.2,8.9-5.5
		c2.4-2.4,4.1-5.2,5.2-8.4c1.1-3.2,1.7-6.8,1.7-10.7v-67.8c0-2.5-0.4-4.5-1.1-6s-1.8-2.7-3-3.5c-1.3-0.8-2.8-1.4-4.5-1.6
		c-1.7-0.2-3.5-0.4-5.4-0.4h-2.2v-7.2h42.8v7.2h-2.2c-1.9,0-3.7,0.1-5.4,0.4c-1.7,0.3-3.2,0.8-4.5,1.7c-1.2,0.9-2.2,2.1-3,3.7
		c-0.7,1.6-1.1,3.7-1.1,6.4v67.5c0,5.7-0.9,10.7-2.7,15.3c-1.8,4.5-4.5,8.3-8,11.5c-3.5,3.1-7.9,5.5-13.1,7.2
		C1520,363.9,1514,364.7,1507.3,364.7z"/>
	<path class="st0" d="M1651.1,363.1v-7.2h2.2c1.9,0,3.8-0.1,5.5-0.4s3.2-0.8,4.4-1.7c1.2-0.9,2.2-2.1,3-3.7c0.7-1.6,1.1-3.7,1.1-6.4
		v-39.9h-55.4v39.9c0,2.7,0.4,4.8,1.1,6.4s1.7,2.8,3,3.7c1.2,0.9,2.7,1.4,4.5,1.7c1.7,0.3,3.5,0.4,5.4,0.4h2.2v7.2h-49.6v-7.2h2.2
		c1.9,0,3.8-0.1,5.4-0.4c1.7-0.3,3.2-0.8,4.5-1.7c1.3-0.9,2.3-2.1,3-3.7s1.1-3.7,1.1-6.4v-83.5c0-2.5-0.4-4.5-1.1-6s-1.8-2.7-3-3.5
		c-1.3-0.8-2.8-1.4-4.5-1.6c-1.7-0.2-3.5-0.4-5.4-0.4h-2.2v-7.2h49.6v7.2h-2.2c-1.9,0-3.7,0.1-5.4,0.4c-1.7,0.3-3.2,0.8-4.5,1.7
		c-1.2,0.9-2.2,2.1-3,3.7c-0.7,1.6-1.1,3.7-1.1,6.4v34.4h55.4v-34.4c0-2.7-0.4-4.8-1.1-6.4c-0.7-1.6-1.7-2.8-3-3.7
		c-1.2-0.9-2.7-1.4-4.4-1.7c-1.7-0.3-3.5-0.4-5.5-0.4h-2.2v-7.2h49.6v7.2h-2.2c-1.9,0-3.8,0.1-5.5,0.4c-1.7,0.3-3.2,0.8-4.5,1.7
		s-2.3,2.1-3,3.7s-1.1,3.7-1.1,6.4v83.7c0,2.5,0.4,4.5,1.1,6s1.8,2.7,3,3.5c1.3,0.8,2.8,1.3,4.5,1.5s3.5,0.4,5.4,0.4h2.2v7.2
		L1651.1,363.1L1651.1,363.1z"/>
	<path class="st0" d="M1745.9,322.4l-6.5,17.9c-0.5,1.3-0.9,2.6-1.2,4c-0.3,1.3-0.4,2.4-0.4,3.4c0,2.9,0.9,5,2.8,6.3s4.7,2,8.5,2
		h3.9v7.2h-41.6V356h3.2c1.7,0,3.1-0.2,4.2-0.5c1.2-0.4,2.2-1,3.2-2c0.9-1,1.8-2.4,2.7-4.1c0.9-1.7,1.8-3.9,2.9-6.7l37.8-101.2h13.3
		l38.5,105.4c0.7,1.8,1.3,3.2,2,4.4c0.7,1.2,1.5,2.1,2.5,2.8c0.9,0.7,2,1.2,3.2,1.5s2.7,0.4,4.3,0.4h2.2v7.2h-46.8V356h3.9
		c6.8,0,10.2-2.7,10.2-8.2c0-0.9-0.1-1.9-0.4-2.9c-0.2-1-0.6-2.1-1-3.4l-6.8-19.1L1745.9,322.4L1745.9,322.4z M1777,284
		c-1.8-5-3.4-9.8-4.9-14.2c-1.5-4.4-2.7-8.7-3.6-12.8c-0.4,2.1-0.8,4-1.4,5.9c-0.5,1.9-1.1,3.9-1.7,5.9s-1.3,4.1-2.1,6.3
		c-0.8,2.2-1.7,4.6-2.7,7.3l-11.6,31.4h38.4L1777,284z"/>
	<path class="st0" d="M1932.8,363.1l-63.9-98.2v78.8c0,2.7,0.4,4.8,1.1,6.4s1.7,2.8,3,3.7c1.2,0.9,2.7,1.4,4.5,1.7
		c1.7,0.3,3.5,0.4,5.4,0.4h2.2v7.2h-42.8v-7.2h2.2c1.9,0,3.8-0.1,5.4-0.4c1.7-0.3,3.2-0.8,4.5-1.7c1.3-0.9,2.3-2.1,3-3.7
		s1.1-3.7,1.1-6.4v-83.5c0-2.5-0.4-4.5-1.1-6s-1.8-2.7-3-3.5c-1.3-0.8-2.8-1.4-4.5-1.6c-1.7-0.2-3.5-0.4-5.4-0.4h-2.2v-7.2h31.2
		l61,94.2v-75.5c0-2.5-0.4-4.5-1.1-6s-1.8-2.7-3-3.5c-1.3-0.8-2.8-1.4-4.5-1.6c-1.7-0.2-3.5-0.4-5.4-0.4h-2.2v-7.2h42.8v7.2h-2.2
		c-1.9,0-3.8,0.1-5.5,0.4c-1.7,0.3-3.2,0.8-4.5,1.7s-2.3,2.1-3,3.7s-1.1,3.7-1.1,6.4v102.3h-12V363.1z"/>
	<path class="st0" d="M2084.3,302.1c0,9.3-1.2,17.7-3.5,25.3c-2.3,7.5-5.8,13.9-10.4,19.2c-4.6,5.3-10.4,9.4-17.3,12.2
		c-6.9,2.9-15,4.3-24.3,4.3h-52.2v-7.2h2.2c1.9,0,3.8-0.1,5.4-0.4c1.7-0.3,3.2-0.8,4.5-1.7c1.3-0.9,2.3-2.1,3-3.7s1.1-3.7,1.1-6.4
		v-83.5c0-2.5-0.4-4.5-1.1-6s-1.8-2.7-3-3.5c-1.3-0.8-2.8-1.4-4.5-1.6c-1.7-0.2-3.5-0.4-5.4-0.4h-2.2v-7.2h52.2
		c8.8,0,16.6,1.3,23.5,4c6.9,2.7,12.7,6.6,17.4,11.8c4.7,5.2,8.4,11.5,10.9,19.1S2084.3,292.4,2084.3,302.1z M2024.8,354.4
		c6.8,0,12.7-1.2,17.8-3.5c5.1-2.3,9.3-5.7,12.7-10.1s5.9-9.9,7.6-16.4c1.7-6.5,2.5-14,2.5-22.4c0-16.9-3.4-29.8-10.1-38.8
		c-6.7-8.9-16.8-13.4-30.3-13.4h-15v104.5L2024.8,354.4L2024.8,354.4z"/>
</g>
</svg>
