<?xml version="1.0" encoding="UTF-8"?> <svg xmlns="http://www.w3.org/2000/svg" width="257.925" height="52.649" viewBox="0 0 257.925 52.649"><g id="LOGO_treu-suisse" transform="translate(-7 -6.3)"><path id="Pfad_1" data-name="Pfad 1" d="M13.577,47.262H11.5V30.519H7V28.593H18.129v1.925H13.577Zm11.245,0H22.735V28.593h2.7c3.543,0,6.831.94,6.831,5.145a4.875,4.875,0,0,1-4.675,5.152l5.938,8.372H30.983l-5.645-8.195h-.516Zm0-10.012h.662c2.357,0,4.729-.447,4.729-3.343,0-3.081-2.249-3.373-4.752-3.373h-.616Zm13.817-8.657H48.32v1.925h-7.6v5.553H48.1V38H40.718v7.332h7.6v1.933H38.639Zm17.7,11.114c0,1.386-.046,2.973.816,4.159a4.829,4.829,0,0,0,3.758,1.779,4.952,4.952,0,0,0,3.666-1.664c1-1.178.955-2.811.955-4.274V28.593h2.079v11.66c0,2.033-.146,3.643-1.633,5.176a6.87,6.87,0,0,1-5.068,2.156,6.986,6.986,0,0,1-4.821-1.941c-1.633-1.54-1.833-3.266-1.833-5.391V28.593h2.079Zm29.151-3.543V28.593h2.079V47.262H85.489V38.1H75.931v9.165H73.851V28.593h2.079v7.571Zm11.214,5.8-2.249,5.3H92.143L100.761,27.7l8.395,19.562h-2.311l-2.2-5.3Zm4.036-9.412-3.2,7.478h6.315ZM113.816,27.8l14.556,15.25V28.593h2.079V48.1L115.9,32.876V47.262h-2.079Zm22.974.793h3.52c2.8,0,5.075.37,7.278,2.249a9.034,9.034,0,0,1,3.081,7.109,9.011,9.011,0,0,1-3.042,6.932c-2.234,1.979-4.459,2.357-7.378,2.357h-3.473Zm3.6,16.736c2.272,0,4.182-.323,5.892-1.933a7.632,7.632,0,0,0-.1-11.067c-1.71-1.54-3.589-1.81-5.792-1.81h-1.54V45.329Zm46.557-13.1a3.42,3.42,0,0,0-3.219-1.987,2.965,2.965,0,0,0-3.081,2.9c0,1.61,1.664,2.311,2.927,2.919l1.232.547c2.426,1.063,4.482,2.311,4.482,5.245A5.892,5.892,0,0,1,177.6,42.8l2.026-.57a3.851,3.851,0,0,0,3.743,3.42A3.758,3.758,0,0,0,187.221,42c0-2.18-1.71-2.919-3.443-3.712L182.6,37.8c-2.18-.994-4.059-2.11-4.059-4.783,0-2.9,2.449-4.752,5.222-4.752a5.345,5.345,0,0,1,4.829,2.9Zm9.881,7.478c0,1.386-.054,2.973.816,4.159a4.821,4.821,0,0,0,3.766,1.779,4.96,4.96,0,0,0,3.666-1.664c.986-1.186.909-2.819.909-4.282V28.593h2.079v11.66c0,2.033-.146,3.643-1.633,5.176a6.862,6.862,0,0,1-5.022,2.133,6.97,6.97,0,0,1-4.829-1.918c-1.633-1.54-1.833-3.266-1.833-5.391V28.593h2.079Zm19.509,7.555h-2.079V28.593h2.079Zm14.734-15.034a3.42,3.42,0,0,0-3.219-1.987,2.958,2.958,0,0,0-3.081,2.9c0,1.61,1.656,2.311,2.919,2.919l1.24.547c2.426,1.063,4.482,2.311,4.482,5.245a5.892,5.892,0,0,1-11.691.947l2.033-.57a3.851,3.851,0,0,0,3.735,3.466,3.758,3.758,0,0,0,3.851-3.643c0-2.18-1.71-2.919-3.443-3.712l-1.14-.493c-2.18-.994-4.059-2.11-4.059-4.783,0-2.9,2.449-4.752,5.222-4.752a5.391,5.391,0,0,1,4.829,2.9Zm16.32,0a3.42,3.42,0,0,0-3.219-1.987,2.965,2.965,0,0,0-3.081,2.9c0,1.61,1.664,2.311,2.927,2.919l1.232.547c2.434,1.063,4.482,2.311,4.482,5.245a5.892,5.892,0,0,1-11.676.909l2.026-.57a3.851,3.851,0,0,0,3.743,3.466,3.758,3.758,0,0,0,3.851-3.643c0-2.18-1.7-2.919-3.443-3.712L243.1,37.8c-2.18-.994-4.067-2.11-4.067-4.783,0-2.9,2.457-4.752,5.23-4.752a5.391,5.391,0,0,1,4.829,2.9Zm7.848-3.635h9.689v1.925h-7.617v5.553h7.378V38h-7.378v7.332h7.6v1.933h-9.673Z" transform="translate(0 -4.918)" fill="#0078c1"></path><path id="Pfad_2" data-name="Pfad 2" d="M211.67,6.3V58.949" transform="translate(-47.038)" fill="none" stroke="#0078c1" stroke-width="2"></path></g></svg> 